<svg width="31" height="30" viewBox="0 0 31 30" fill="none" xmlns="http://www.w3.org/2000/svg">
<path fill-rule="evenodd" clip-rule="evenodd" d="M25.3844 23.2415L21.2475 20.9303C20.4436 20.4812 19.4063 20.7487 18.9424 21.5274L18.7792 21.8015C18.3659 22.4954 17.7299 22.9376 16.9193 23.0983C16.1119 23.2584 15.3418 23.0908 14.6825 22.6122C13.3294 21.6299 12.0512 20.5452 10.8553 19.3878C9.65958 18.2307 8.53874 16.9939 7.52391 15.6845C7.0293 15.0464 6.85559 14.3011 7.02101 13.5195C7.18703 12.7351 7.645 12.1206 8.36157 11.7204L8.64451 11.5624C9.03691 11.3433 9.31162 10.9927 9.42896 10.5696C9.54575 10.1484 9.48775 9.70967 9.26233 9.33186L6.87376 5.32832C6.44963 4.6174 5.57442 4.33527 4.78701 4.62772L4.7356 4.64682C3.92403 4.94811 1.68725 5.73877 1.08614 6.32049C-0.691454 8.0408 0.0691357 11.153 0.862179 13.1334C2.25106 16.6018 4.88564 19.9401 7.58555 22.5525C10.2851 25.1647 13.7345 27.7151 17.3182 29.0591C18.5615 29.5254 19.9607 29.8935 21.303 29.8935C22.4264 29.8935 23.5446 29.6303 24.3587 28.8423C24.9317 28.2878 25.7816 26.0554 26.0931 25.2973L26.1131 25.2485C26.424 24.4917 26.111 23.6474 25.3844 23.2415ZM24.1102 7.53643C24.5013 7.67207 24.7621 8.03119 24.7621 8.43309V12.9917H24.9455C25.4887 12.9917 25.9298 13.4186 25.9298 13.9442C25.9298 14.4705 25.4893 14.8967 24.9455 14.8967H24.7621V15.9512C24.7621 16.4774 24.3211 16.9034 23.7779 16.9034C23.2344 16.9034 22.794 16.4774 22.794 15.9512V14.8967H19.0911C18.7104 14.8967 18.3636 14.6842 18.2011 14.3514C18.0386 14.0181 18.0891 13.6241 18.3308 13.3396L23.0177 7.82758C23.2814 7.51738 23.719 7.40084 24.1102 7.53643ZM22.794 12.9918H21.176L22.794 11.0893V12.9918ZM16.1232 11.1112C16.304 10.4701 16.1978 9.99268 15.8058 9.6925C15.3499 9.34375 14.5908 9.28193 14.0772 9.55264C13.7075 9.74752 13.5511 10.0761 13.5984 10.5576C13.6509 11.0813 13.2545 11.5469 12.7134 11.5969C12.1719 11.6477 11.6917 11.2636 11.6395 10.7404C11.515 9.48889 12.0602 8.44592 13.1353 7.87926C14.3473 7.24129 15.9479 7.37213 17.0273 8.19912C18.0505 8.98229 18.4132 10.2271 18.0221 11.6129C17.7557 12.5573 16.8341 13.2526 15.8594 13.9894C15.4433 14.3034 15.0011 14.6373 14.6001 14.9987H17.46C18.0035 14.9987 18.444 15.4255 18.444 15.9512C18.444 16.4774 18.0035 16.9034 17.46 16.9034H12.5965C12.2575 16.9034 11.9421 16.7349 11.7623 16.4569C11.5821 16.1792 11.5632 15.8307 11.7109 15.5356C12.3806 14.2004 13.6379 13.2506 14.648 12.4877C15.2631 12.0227 16.0289 11.4445 16.1232 11.1112ZM31 12.5116C31 15.8249 29.6664 18.9396 27.2455 21.2827C27.0531 21.4683 26.8015 21.5618 26.5494 21.5618C26.2978 21.5618 26.0454 21.4683 25.8536 21.2827C25.4691 20.9106 25.4691 20.3074 25.8536 19.9354C27.9025 17.9526 29.0315 15.3157 29.0315 12.5116C29.0315 6.7215 24.1644 2.01145 18.1814 2.01145C15.2834 2.01145 12.559 3.10381 10.5098 5.08662C10.1254 5.45869 9.50234 5.45869 9.11787 5.08662C8.73339 4.71455 8.73339 4.11162 9.11787 3.73955C11.5391 1.39703 14.7576 0.106445 18.1814 0.106445C25.2494 0.106504 31 5.67133 31 12.5116Z" fill="#7544FF"/>
</svg>
