<svg width="65" height="36" viewBox="0 0 65 36" fill="none" xmlns="http://www.w3.org/2000/svg">
<mask id="mask0_134_472" style="mask-type:luminance" maskUnits="userSpaceOnUse" x="0" y="0" width="65" height="36">
<path d="M64.7533 0.435547H0.84082V35.0175H64.7533V0.435547Z" fill="white"/>
</mask>
<g mask="url(#mask0_134_472)">
<path d="M49.5026 7.91282C48.7578 7.91322 48.0297 7.6943 47.4102 7.28373C46.7908 6.87317 46.3079 6.28942 46.0225 5.6063C45.7373 4.92319 45.6624 4.17141 45.8075 3.44605C45.9525 2.72069 46.3109 2.05434 46.8375 1.53128C47.3639 1.00822 48.0348 0.651954 48.7653 0.507534C49.4956 0.363113 50.2528 0.437033 50.9409 0.719938C51.629 1.00285 52.2172 1.48204 52.6311 2.0969C53.0448 2.71176 53.2657 3.43467 53.2657 4.17418C53.2641 5.16489 52.8672 6.11459 52.1619 6.81532C51.4566 7.51605 50.5003 7.91068 49.5026 7.91282Z" fill="#CEC1F1" fill-opacity="0.7"/>
<path d="M60.5849 23.6233H56.5122L55.549 14.85H55.3332L52.2461 23.6233H46.7704L43.6873 14.85H43.4715L42.5104 23.6233H38.4377C38.4377 23.6233 39.2522 16.2431 39.5861 13.2587C39.8895 10.4805 41.3537 9.06506 43.9317 9.06506H45.7807L49.4298 19.3024H49.5866L53.2357 9.06506H55.0684C57.6342 9.06506 59.0983 10.4805 59.42 13.2587C59.7499 16.142 60.5849 23.6233 60.5849 23.6233ZM13.8102 9.06506L20.7928 23.6233H15.588L14.2745 20.5075H7.01499L5.69951 23.6233H0.84082C0.84082 23.6233 4.32499 16.4635 5.51217 13.845C6.91114 10.7696 8.10646 9.06506 11.0103 9.06506H13.8102ZM10.5643 12.0981L8.12071 17.798H13.1708L10.7232 12.0981H10.5643ZM36.9919 19.5106C36.9919 22.0765 35.0696 23.6273 31.4693 23.6273H21.8598V13.1575C21.8598 10.8464 23.2018 9.06506 26.1138 9.06506H31.0621C34.4831 9.06506 36.1224 10.4339 36.1224 12.7653C36.1224 14.3202 35.1287 15.3312 33.7622 15.8246V15.9398C34.7295 16.051 36.9919 17.0661 36.9919 19.5065V19.5106ZM29.7995 14.9167C30.9175 14.9167 31.7503 14.4516 31.7503 13.3901C31.7503 12.4499 31.0661 11.8614 29.7995 11.8614H26.2583V14.9167H29.7995ZM29.9828 20.833C31.3146 20.833 32.3063 20.3134 32.3063 19.1466C32.3063 17.9032 31.2555 17.4361 29.9828 17.4361H26.2583V20.833H29.9828Z" fill="#CEC1F1" fill-opacity="0.7"/>
<path d="M21.8605 28.4902H23.4468C24.6136 28.4902 25.0025 29.0968 25.0025 29.8146C25.0033 29.9998 24.9608 30.1828 24.8785 30.3491C24.7962 30.5154 24.6763 30.6604 24.5281 30.773C24.7311 30.8842 24.8981 31.0505 25.0096 31.2525C25.121 31.4544 25.1722 31.6836 25.1573 31.9134C25.1573 32.6919 24.7297 33.3167 23.4854 33.3167H21.8564L21.8605 28.4902ZM23.4732 29.1332H22.5467V30.4981H23.5242C24.1208 30.4981 24.2695 30.1502 24.2695 29.8146C24.2695 29.479 24.1534 29.1332 23.4671 29.1332H23.4732ZM22.5467 32.6717H23.512C24.2756 32.6717 24.4243 32.2854 24.4243 31.9114C24.4243 31.3776 24.186 31.139 23.5242 31.139H22.5467V32.6717Z" fill="#CEC1F1" fill-opacity="0.7"/>
<path d="M26.499 32.3745C26.499 32.6778 26.7249 32.7789 27.0223 32.7789C27.2812 32.7836 27.5378 32.731 27.7737 32.6252V30.0938H28.4416V33.3107H27.9937L27.9305 33.1307C27.6592 33.3027 27.3441 33.394 27.0223 33.3936C26.2261 33.3936 25.8311 33.0073 25.8311 32.3584V30.0938H26.499V32.3745Z" fill="#CEC1F1" fill-opacity="0.7"/>
<path d="M29.6445 28.5732C29.7344 28.5729 29.8224 28.599 29.8973 28.6483C29.9722 28.6976 30.0308 28.7678 30.0654 28.8502C30.1001 28.9325 30.1095 29.0233 30.0922 29.1109C30.0749 29.1985 30.0318 29.279 29.9684 29.3423C29.9049 29.4056 29.824 29.4487 29.7358 29.4663C29.6477 29.4839 29.5563 29.475 29.4732 29.4409C29.3901 29.4068 29.319 29.349 29.2691 29.2749C29.2191 29.2007 29.1924 29.1135 29.1924 29.0242C29.1922 28.9651 29.2036 28.9065 29.2262 28.8518C29.2488 28.7971 29.2821 28.7473 29.3241 28.7054C29.3661 28.6636 29.416 28.6304 29.471 28.6076C29.526 28.585 29.5849 28.5732 29.6445 28.5732ZM30.0986 33.3977C29.5854 33.3977 29.3146 33.1955 29.3146 32.6193V30.0938H29.9683V32.6354C29.9683 32.7507 30.0334 32.783 30.2208 32.783V33.3896L30.0986 33.3977Z" fill="#CEC1F1" fill-opacity="0.7"/>
<path d="M31.7792 33.3976C31.266 33.3976 30.9951 33.1955 30.9951 32.6192V28.4904H31.6488V32.6394C31.6488 32.7547 31.714 32.787 31.9013 32.787V33.3936L31.7792 33.3976Z" fill="#CEC1F1" fill-opacity="0.7"/>
<path d="M35.3279 33.3146H34.8942L34.829 33.1347C34.5609 33.2969 34.255 33.3875 33.9411 33.3975C32.8476 33.3975 32.5361 32.7161 32.5361 31.7072C32.5361 30.6982 32.8476 30.0148 33.9411 30.0148C34.1956 30.0175 34.4461 30.0769 34.6742 30.1887V28.4902H35.3279V33.3146ZM33.9411 30.6254C33.3079 30.6254 33.2102 31.1208 33.2102 31.7072C33.2102 32.2935 33.3079 32.7869 33.9411 32.7869C34.1942 32.7929 34.4452 32.7403 34.6742 32.6332V30.773C34.5971 30.7377 34.5166 30.7099 34.4339 30.6901C34.2732 30.6475 34.1076 30.6258 33.9411 30.6254Z" fill="#CEC1F1" fill-opacity="0.7"/>
<path d="M36.535 28.5732C36.625 28.5729 36.713 28.599 36.7879 28.6483C36.8628 28.6976 36.9213 28.7678 36.9561 28.8502C36.9908 28.9325 37 29.0233 36.9827 29.1109C36.9654 29.1985 36.9223 29.279 36.8589 29.3423C36.7955 29.4056 36.7146 29.4487 36.6265 29.4663C36.5383 29.4839 36.4469 29.475 36.3638 29.4409C36.2808 29.4068 36.2097 29.349 36.1597 29.2749C36.1097 29.2007 36.083 29.1135 36.083 29.0242C36.0827 28.9651 36.0942 28.9065 36.1168 28.8518C36.1395 28.7971 36.1727 28.7473 36.2147 28.7054C36.2567 28.6636 36.3066 28.6304 36.3616 28.6076C36.4165 28.585 36.4755 28.5732 36.535 28.5732ZM36.9892 33.3977C36.476 33.3977 36.2051 33.1955 36.2051 32.6193V30.0938H36.8588V32.6354C36.8588 32.7507 36.924 32.783 37.1113 32.783V33.3896L36.9892 33.3977Z" fill="#CEC1F1" fill-opacity="0.7"/>
<path d="M39.8226 31.0378C39.8226 30.7346 39.5966 30.6335 39.2992 30.6335C39.0404 30.6289 38.7838 30.6814 38.5478 30.7871V33.3228H37.8799V30.0936H38.3299L38.3931 30.2736C38.6643 30.1016 38.9795 30.0104 39.3013 30.0107C40.0974 30.0107 40.4925 30.3969 40.4925 31.046V33.3106H39.8246L39.8226 31.0378Z" fill="#CEC1F1" fill-opacity="0.7"/>
<path d="M42.5317 32.5204C42.4564 32.5245 42.381 32.5245 42.3057 32.5204C42.2283 32.5729 42.1427 32.6498 42.1427 32.7226C42.1427 32.7954 42.1754 32.8257 42.2589 32.8378L43.2892 32.9592C43.9001 33.0299 44.2218 33.2807 44.2218 33.8792C44.2218 34.688 43.4318 35.0175 42.5317 35.0175C41.6316 35.0175 41.0615 34.7101 41.0615 33.9702C41.0663 33.8021 41.1203 33.6389 41.2169 33.5007C41.3133 33.3625 41.4483 33.2551 41.6052 33.1916C41.5236 33.082 41.4826 32.9478 41.4891 32.8116C41.4916 32.7229 41.5131 32.6357 41.5521 32.556C41.591 32.4761 41.6466 32.4054 41.7151 32.3485C41.3588 32.124 41.2366 31.7318 41.2366 31.287C41.2366 30.6055 41.5339 30.0333 42.5317 30.0333C42.729 30.0313 42.9253 30.0594 43.1141 30.1163H44.1587V30.553L43.7168 30.6763C43.7935 30.8693 43.8309 31.0755 43.8269 31.2829C43.8309 31.9501 43.5356 32.5204 42.5317 32.5204ZM42.3281 33.4201C41.986 33.5294 41.7172 33.6911 41.7172 33.954C41.7172 34.3017 41.99 34.3927 42.5317 34.3927C43.0734 34.3927 43.5499 34.2755 43.5499 33.863C43.5499 33.6385 43.4521 33.5496 43.1732 33.5173L42.3281 33.4201ZM42.5317 31.9078C43.1284 31.9078 43.1996 31.5984 43.1996 31.2648C43.1996 30.9311 43.1284 30.6217 42.5317 30.6217C41.9351 30.6217 41.8719 30.9311 41.8719 31.2648C41.8719 31.5984 41.9351 31.9138 42.5317 31.9138V31.9078Z" fill="#CEC1F1" fill-opacity="0.7"/>
<path d="M48.9589 28.4902H49.7042L47.9794 33.3975H47.507L45.7842 28.4902H46.5295L47.7513 32.2652L48.9589 28.4902Z" fill="#CEC1F1" fill-opacity="0.7"/>
<path d="M50.7545 30.6261C50.3769 30.6358 50.0032 30.704 49.6467 30.8283V30.2217C50.0029 30.0979 50.3771 30.033 50.7545 30.0295C51.7523 30.0295 52.0109 30.4805 52.0109 31.1477V33.3295H51.569L51.51 33.1616C51.2348 33.3215 50.9226 33.4079 50.6038 33.4124C49.7038 33.4124 49.4248 32.8724 49.4248 32.3124C49.4248 31.8049 49.6631 31.3539 50.6221 31.2771L51.3553 31.2185V31.1538C51.3532 30.7939 51.2228 30.6261 50.7545 30.6261ZM50.6119 31.8089C50.2047 31.8474 50.0865 32.0738 50.0865 32.2983C50.0865 32.5227 50.1395 32.7876 50.6119 32.7876C50.8714 32.7817 51.1254 32.7123 51.3511 32.5854V31.7422L50.6119 31.8089Z" fill="#CEC1F1" fill-opacity="0.7"/>
<path d="M53.6717 33.3975C53.1585 33.3975 52.8877 33.1954 52.8877 32.6191V28.4902H53.5414V32.6393C53.5414 32.7546 53.6065 32.7869 53.7939 32.7869V33.3935L53.6717 33.3975Z" fill="#CEC1F1" fill-opacity="0.7"/>
<path d="M55.1301 32.3745C55.1301 32.6778 55.3561 32.7789 55.6534 32.7789C55.9129 32.7832 56.1701 32.7307 56.4069 32.6252V30.0938H57.0666V33.3107H56.6207L56.5555 33.1307C56.2842 33.3027 55.9691 33.394 55.6473 33.3936C54.8511 33.3936 54.4561 33.0073 54.4561 32.3584V30.0938H55.124L55.1301 32.3745Z" fill="#CEC1F1" fill-opacity="0.7"/>
<path d="M58.49 32.0149C58.5429 32.4597 58.7302 32.7872 59.2495 32.7872C59.6339 32.7953 60.0149 32.7158 60.3635 32.5548V33.1795C60.0124 33.3315 59.6324 33.4059 59.2495 33.3979C58.154 33.3979 57.8037 32.7225 57.8037 31.7075C57.8037 30.6925 58.154 30.0151 59.2495 30.0151C60.3817 30.0151 60.5386 30.8057 60.5386 31.7075V32.0149H58.49ZM58.49 31.4426H59.8564C59.8564 31.018 59.7851 30.6338 59.2557 30.6338C58.7262 30.6338 58.5348 30.9797 58.49 31.4426Z" fill="#CEC1F1" fill-opacity="0.7"/>
<path d="M63.4112 21.0273C63.6762 21.0273 63.9353 21.1054 64.1555 21.2516C64.3759 21.3978 64.5477 21.6055 64.649 21.8486C64.7505 22.0918 64.777 22.3593 64.7253 22.6174C64.6736 22.8755 64.546 23.1125 64.3586 23.2986C64.1713 23.4847 63.9325 23.6114 63.6725 23.6628C63.4127 23.714 63.1432 23.6878 62.8984 23.587C62.6536 23.4863 62.4443 23.3158 62.297 23.097C62.1499 22.8782 62.0713 22.621 62.0713 22.3578C62.0718 22.0051 62.2132 21.667 62.4643 21.4177C62.7154 21.1682 63.0559 21.0279 63.4112 21.0273ZM63.4112 23.4962C63.638 23.4966 63.8599 23.4302 64.0486 23.3053C64.2374 23.1805 64.3847 23.0029 64.4718 22.7949C64.5589 22.5869 64.5819 22.3579 64.5379 22.1369C64.4939 21.916 64.3848 21.713 64.2245 21.5536C64.0644 21.3942 63.86 21.2856 63.6376 21.2415C63.4151 21.1974 63.1845 21.2198 62.9749 21.3059C62.7653 21.392 62.5861 21.538 62.4601 21.7251C62.334 21.9124 62.2668 22.1326 62.2668 22.3578C62.2668 22.6594 62.3872 22.9487 62.6018 23.1621C62.8164 23.3755 63.1075 23.4956 63.4112 23.4962ZM63.1199 23.1201H62.9265V21.5854H63.5191C63.8693 21.5854 64.0058 21.7351 64.0058 22.0121C64.0099 22.0662 64.003 22.1205 63.9856 22.172C63.9681 22.2234 63.9405 22.2708 63.9041 22.3113C63.8678 22.3519 63.8237 22.3848 63.7743 22.4081C63.7249 22.4313 63.6715 22.4445 63.6168 22.4468L64.0791 23.1201H63.8592L63.3969 22.4468H63.1199V23.1201ZM63.1199 22.2749H63.3766C63.5802 22.2749 63.8204 22.2749 63.8204 22.0121C63.8204 21.8099 63.6392 21.7573 63.4743 21.7573H63.1281L63.1199 22.2749Z" fill="#CEC1F1" fill-opacity="0.7"/>
</g>
</svg>
