<svg width="295" height="101" viewBox="0 0 295 101" fill="none" xmlns="http://www.w3.org/2000/svg">
<g filter="url(#filter0_b_134_1780)">
<rect width="289" height="67" rx="15" transform="matrix(-0.992962 -0.118432 -0.118432 0.992962 294.951 34.3499)" fill="url(#paint0_radial_134_1780)"/>
<rect x="-0.333846" y="0.262696" width="288.399" height="66.3992" rx="14.6996" transform="matrix(-0.992962 -0.118432 -0.118432 0.992962 294.317 34.3122)" stroke="url(#paint1_linear_134_1780)" stroke-width="0.60077"/>
</g>
<g filter="url(#filter1_b_134_1780)">
<rect width="277" height="55" rx="10" transform="matrix(-0.992962 -0.118432 -0.118432 0.992962 288.283 39.5969)" fill="url(#paint2_linear_134_1780)"/>
</g>
<g filter="url(#filter2_b_134_1780)">
<rect width="52" height="49" rx="10" transform="matrix(-0.992962 -0.118432 -0.118432 0.992962 283.955 42.1023)" fill="url(#paint3_linear_134_1780)"/>
</g>
<path d="M32.5415 42.3284L31.8783 39.1808L27.6117 38.6719L26.2269 41.5752L24.4194 41.3597L29.7962 30.6476L31.6735 30.8715L34.38 42.5477L32.5415 42.3284ZM30.474 32.6167L28.2204 37.3283L31.6027 37.7317L30.5205 32.6223L30.474 32.6167ZM35.931 36.8003C36.1049 35.3419 37.512 34.4947 39.4204 34.7224C41.2356 34.9389 42.3867 36.1068 42.2679 37.564L40.6932 37.3761C40.7035 36.6299 40.1607 36.101 39.2221 35.989C38.3145 35.8808 37.6566 36.2508 37.5798 36.8947C37.5197 37.3989 37.8824 37.7883 38.703 38.0987L40.0381 38.5805C41.6355 39.1723 42.1821 39.8669 42.0387 41.0693C41.861 42.5587 40.3503 43.4171 38.3489 43.1784C36.4172 42.948 35.2566 41.7946 35.3033 40.2817L36.9634 40.4797C37.0018 41.2789 37.5551 41.7855 38.5791 41.9077C39.5876 42.0279 40.2581 41.6831 40.3368 41.0237C40.3988 40.5039 40.1227 40.1799 39.2953 39.8609L37.8794 39.3301C36.4481 38.7975 35.795 37.9406 35.931 36.8003ZM45.3699 39.1299L49.0842 36.0245L51.0546 36.2595L47.2532 39.3702L50.2131 44.4361L48.266 44.2039L45.9286 40.2508L45.1481 40.8579L44.7984 43.7903L43.1227 43.5904L44.4579 32.3963L46.1335 32.5962L45.3544 39.128L45.3699 39.1299ZM57.3054 44.0782C58.4768 44.2179 59.4884 43.5203 59.6152 42.4576L59.692 41.8137L57.668 41.6982C56.6589 41.6486 56.0399 42.0233 55.9566 42.7214C55.8715 43.4351 56.4055 43.9709 57.3054 44.0782ZM56.6817 45.3493C55.0837 45.1587 54.085 44.0325 54.2599 42.5663C54.4301 41.1389 55.6285 40.3928 57.5808 40.5155L59.8307 40.6501L59.9057 40.0217C60.0139 39.1141 59.4659 38.498 58.4419 38.3758C57.4722 38.2602 56.8116 38.6534 56.5772 39.3651L54.9947 39.1763C55.2636 37.7135 56.6498 36.7773 58.6668 37.0179C60.6449 37.2538 61.7845 38.4519 61.5893 40.0888L60.9185 45.713L59.3127 45.5214L59.4727 44.1794L59.4339 44.1748C58.8525 45.0259 57.7523 45.4769 56.6817 45.3493ZM62.5476 45.9073L63.5209 37.7463L65.119 37.937L64.9561 39.3023L64.9949 39.3069C65.5481 38.4287 66.4854 37.9583 67.7421 38.1082C69.5419 38.3229 70.4367 39.594 70.2137 41.4636L69.5836 46.7465L67.9002 46.5457L68.4915 41.5886C68.6377 40.3629 68.1441 39.6196 66.9805 39.4808C65.8013 39.3401 64.9412 40.0873 64.7904 41.3518L64.2232 46.1071L62.5476 45.9073ZM71.649 50.077C71.5171 50.0613 71.0923 49.9949 70.971 49.9568L71.1329 48.5992C71.2533 48.6451 71.5326 48.6784 71.6722 48.695C72.4557 48.7885 72.9058 48.5117 73.2617 47.7044C73.2635 47.6889 73.4683 47.2255 73.4692 47.2178L71.4956 38.6975L73.3109 38.914L74.5901 45.8015L74.6134 45.8043L77.4767 39.4109L79.2454 39.6218L75.1569 47.8439C74.2228 49.7388 73.3479 50.2796 71.649 50.077ZM80.9497 37.866L82.6331 38.0668L82.4027 39.9984L83.9542 40.1835L83.796 41.51L82.2445 41.3249L81.7078 45.8243C81.6237 46.5302 81.896 46.8853 82.5787 46.9667C82.7493 46.9871 83.0227 47.004 83.1341 46.9936L82.9759 48.3202C82.7841 48.3445 82.4081 48.3311 82.0357 48.2867C80.3834 48.0896 79.8144 47.3845 80.0023 45.8097L80.5611 41.1242L79.3742 40.9826L79.5324 39.6561L80.7193 39.7976L80.9497 37.866ZM84.4237 48.5165L85.7589 37.3224L87.419 37.5204L86.8944 41.9189L86.9332 41.9235C87.4969 41.023 88.4547 40.5786 89.6959 40.7267C91.4879 40.9404 92.416 42.2627 92.1957 44.109L91.5684 49.3686L89.885 49.1678L90.4735 44.2341C90.6169 43.0316 90.0979 42.238 88.9187 42.0974C87.6775 41.9493 86.8155 42.712 86.6619 43.9997L86.0994 48.7163L84.4237 48.5165ZM93.244 49.5685L94.2174 41.4076L95.893 41.6074L94.9197 49.7683L93.244 49.5685ZM95.1977 40.3128C94.6624 40.249 94.2789 39.7705 94.3418 39.243C94.4057 38.7077 94.891 38.3329 95.4262 38.3967C95.9693 38.4615 96.3528 38.94 96.289 39.4752C96.226 40.0028 95.7407 40.3776 95.1977 40.3128ZM96.6341 49.9728L97.6074 41.8119L99.2055 42.0025L99.0426 43.3678L99.0814 43.3725C99.6346 42.4943 100.572 42.0239 101.829 42.1737C103.628 42.3884 104.523 43.6596 104.3 45.5291L103.67 50.812L101.987 50.6112L102.578 45.6542C102.724 44.4285 102.231 43.6851 101.067 43.5463C99.8879 43.4057 99.0277 44.1528 98.8769 45.4173L98.3097 50.1727L96.6341 49.9728ZM108.929 50.0623C110.24 50.2187 111.228 49.2586 111.428 47.5752C111.628 45.8996 110.899 44.6953 109.588 44.539C108.3 44.3854 107.333 45.3638 107.131 47.0627C106.927 48.7693 107.641 49.9087 108.929 50.0623ZM108.416 54.4937C106.492 54.2643 105.187 53.07 105.146 51.6332L106.829 51.834C106.988 52.5453 107.679 53.0841 108.633 53.1979C109.944 53.3542 110.809 52.702 110.942 51.585L111.102 50.2429L111.071 50.2392C110.508 51.069 109.477 51.5361 108.313 51.3973C106.265 51.153 105.114 49.3949 105.417 46.8504C105.724 44.2827 107.25 42.8283 109.345 43.0781C110.501 43.2159 111.378 43.9106 111.761 44.9163L111.792 44.92L111.959 43.5236L113.588 43.7179L112.632 51.7314C112.4 53.6786 110.743 54.7713 108.416 54.4937Z" fill="url(#paint4_linear_134_1780)"/>
<path d="M243.076 58.7868C242.465 58.4992 242.501 58.1568 243.181 58.0169L267.316 53.048C267.984 52.9105 268.31 53.3142 268.055 53.923L258.654 76.3443C258.394 76.965 258.021 76.9432 257.822 76.2998L254.623 65.9424L263.081 57.0834L252.481 63.22L243.076 58.7868Z" fill="url(#paint5_linear_134_1780)"/>
<defs>
<filter id="filter0_b_134_1780" x="-13.2803" y="-13.2075" width="321.562" height="127.417" filterUnits="userSpaceOnUse" color-interpolation-filters="sRGB">
<feFlood flood-opacity="0" result="BackgroundImageFix"/>
<feGaussianBlur in="BackgroundImageFix" stdDeviation="7.5"/>
<feComposite in2="SourceAlpha" operator="in" result="effect1_backgroundBlur_134_1780"/>
<feBlend mode="normal" in="SourceGraphic" in2="effect1_backgroundBlur_134_1780" result="shape"/>
</filter>
<filter id="filter1_b_134_1780" x="-9.99964" y="-9.92737" width="315.001" height="120.856" filterUnits="userSpaceOnUse" color-interpolation-filters="sRGB">
<feFlood flood-opacity="0" result="BackgroundImageFix"/>
<feGaussianBlur in="BackgroundImageFix" stdDeviation="8.91583"/>
<feComposite in2="SourceAlpha" operator="in" result="effect1_backgroundBlur_134_1780"/>
<feBlend mode="normal" in="SourceGraphic" in2="effect1_backgroundBlur_134_1780" result="shape"/>
</filter>
<filter id="filter2_b_134_1780" x="209.799" y="19.2252" width="90.8743" height="88.251" filterUnits="userSpaceOnUse" color-interpolation-filters="sRGB">
<feFlood flood-opacity="0" result="BackgroundImageFix"/>
<feGaussianBlur in="BackgroundImageFix" stdDeviation="8.91583"/>
<feComposite in2="SourceAlpha" operator="in" result="effect1_backgroundBlur_134_1780"/>
<feBlend mode="normal" in="SourceGraphic" in2="effect1_backgroundBlur_134_1780" result="shape"/>
</filter>
<radialGradient id="paint0_radial_134_1780" cx="0" cy="0" r="1" gradientUnits="userSpaceOnUse" gradientTransform="translate(144.5 67) rotate(-103.873) scale(66.5741 271.374)">
<stop stop-color="#7544FF" stop-opacity="0.5"/>
<stop offset="0.557971" stop-color="#0C0E19" stop-opacity="0.332609"/>
<stop offset="1" stop-color="#0C0E19" stop-opacity="0.2"/>
</radialGradient>
<linearGradient id="paint1_linear_134_1780" x1="-9.63333" y1="8.93333" x2="8.19785" y2="106.823" gradientUnits="userSpaceOnUse">
<stop offset="0.00626218" stop-color="#635B79" stop-opacity="0.2"/>
<stop offset="1" stop-color="#A68DED"/>
</linearGradient>
<linearGradient id="paint2_linear_134_1780" x1="13.6357" y1="3.05272" x2="22.8523" y2="50.8842" gradientUnits="userSpaceOnUse">
<stop stop-color="#B1B1B1" stop-opacity="0.32"/>
<stop offset="1" stop-color="#363567" stop-opacity="0.2"/>
</linearGradient>
<linearGradient id="paint3_linear_134_1780" x1="2.55977" y1="2.7197" x2="24.5696" y2="26.7881" gradientUnits="userSpaceOnUse">
<stop stop-color="#B1B1B1" stop-opacity="0.32"/>
<stop offset="1" stop-color="#363567" stop-opacity="0.2"/>
</linearGradient>
<linearGradient id="paint4_linear_134_1780" x1="24.869" y1="35.8743" x2="114.236" y2="46.5332" gradientUnits="userSpaceOnUse">
<stop stop-color="#CEC1F1"/>
<stop offset="1" stop-color="#FFBFFF"/>
</linearGradient>
<linearGradient id="paint5_linear_134_1780" x1="255.911" y1="51.6247" x2="252.983" y2="76.1725" gradientUnits="userSpaceOnUse">
<stop stop-color="#CEC1F1"/>
<stop offset="1" stop-color="#7544FF"/>
</linearGradient>
</defs>
</svg>
