<svg width="1022" height="135" viewBox="0 0 1022 135" fill="none" xmlns="http://www.w3.org/2000/svg">
<path d="M410.704 51.5703H428.5C436.784 51.5703 443.5 58.286 443.5 66.5703V86.0001" stroke="url(#paint0_linear_4012_42)"/>
<path d="M419.053 51.5711H378.001C369.717 51.5711 363.001 44.8553 363.001 36.5711V23.9043" stroke="#CEC1F1" stroke-dasharray="2 2"/>
<path d="M363 5.66663C364.473 5.66663 365.667 4.47272 365.667 2.99996C365.667 1.5272 364.473 0.333294 363 0.333294C361.527 0.333294 360.333 1.5272 360.333 2.99996C360.333 4.47272 361.527 5.66663 363 5.66663ZM363.5 24.5186L363.5 2.99996L362.5 2.99996L362.5 24.5186L363.5 24.5186Z" fill="#CEC1F1"/>
<path d="M621.444 51.5703H601C592.716 51.5703 586 58.286 586 66.5703V86.0001" stroke="url(#paint1_linear_4012_42)"/>
<path d="M612.422 51.5711H658C666.284 51.5711 673 44.8553 673 36.5711V23.9043" stroke="#CEC1F1" stroke-opacity="0.5" stroke-dasharray="2 2"/>
<path d="M673 5.66663C671.527 5.66663 670.333 4.47272 670.333 2.99996C670.333 1.5272 671.527 0.333294 673 0.333294C674.473 0.333294 675.667 1.5272 675.667 2.99996C675.667 4.47272 674.473 5.66663 673 5.66663ZM672.5 24.5186L672.5 2.99996L673.5 2.99996L673.5 24.5186L672.5 24.5186Z" fill="#CEC1F1" fill-opacity="0.5"/>
<path d="M51.9991 64.791V72.8917C51.9991 81.1759 58.7148 87.8917 66.9991 87.8917H124.528H130.438" stroke="#CEC1F1" stroke-opacity="0.5" stroke-dasharray="2 2"/>
<path d="M427 88L132.587 88" stroke="url(#paint2_linear_4012_42)"/>
<path d="M52 6.66701C53.4728 6.66701 54.6667 5.4731 54.6667 4.00034C54.6667 2.52758 53.4728 1.33368 52 1.33368C50.5272 1.33368 49.3333 2.52758 49.3333 4.00034C49.3333 5.4731 50.5272 6.66701 52 6.66701ZM52.5 64.1836L52.5 4.00034L51.5 4.00034L51.5 64.1836L52.5 64.1836Z" fill="#CEC1F1" fill-opacity="0.5"/>
<path d="M977 64.791V72.8917C977 81.1759 970.284 87.8917 962 87.8917H899.381H893.057" stroke="#CEC1F1" stroke-opacity="0.5" stroke-dasharray="2 2"/>
<path d="M651 87.8917L891.332 87.8916" stroke="url(#paint3_linear_4012_42)"/>
<path d="M977 6.66701C975.527 6.66701 974.333 5.4731 974.333 4.00034C974.333 2.52758 975.527 1.33368 977 1.33368C978.473 1.33368 979.667 2.52758 979.667 4.00034C979.667 5.4731 978.473 6.66701 977 6.66701ZM976.5 64.1836L976.5 4.00034L977.5 4.00034L977.5 64.1836L976.5 64.1836Z" fill="#CEC1F1" fill-opacity="0.5"/>
<path d="M856.918 132.381L811.918 132.381H744.418H738.918" stroke="#CEC1F1" stroke-dasharray="2 2"/>
<path d="M620.5 131.999L737 131.999" stroke="url(#paint4_linear_4012_42)"/>
<path d="M1016.33 132.18C1016.33 133.652 1017.53 134.846 1019 134.846C1020.47 134.846 1021.67 133.652 1021.67 132.18C1021.67 130.707 1020.47 129.513 1019 129.513C1017.53 129.513 1016.33 130.707 1016.33 132.18ZM861.418 132.68L1019 132.68L1019 131.68L861.418 131.68L861.418 132.68Z" fill="#CEC1F1"/>
<path d="M165.582 132.381L210.582 132.381H278.082H283.582" stroke="#CEC1F1" stroke-opacity="0.5" stroke-dasharray="2 2"/>
<path d="M402 131.999L285.5 131.999" stroke="url(#paint5_linear_4012_42)"/>
<path d="M6.16667 132.18C6.16667 133.652 4.97276 134.846 3.5 134.846C2.02724 134.846 0.833328 133.652 0.833328 132.18C0.833328 130.707 2.02724 129.513 3.5 129.513C4.97276 129.513 6.16667 130.707 6.16667 132.18ZM161.082 132.68L3.5 132.68L3.5 131.68L161.082 131.68L161.082 132.68Z" fill="#CEC1F1" fill-opacity="0.5"/>
<defs>
<linearGradient id="paint0_linear_4012_42" x1="427.102" y1="51.5703" x2="427.102" y2="86.0001" gradientUnits="userSpaceOnUse">
<stop stop-color="#CEC1F1"/>
<stop offset="1" stop-color="#0C0E19"/>
</linearGradient>
<linearGradient id="paint1_linear_4012_42" x1="603.722" y1="51.5703" x2="603.722" y2="86.0001" gradientUnits="userSpaceOnUse">
<stop stop-color="#CEC1F1"/>
<stop offset="1" stop-color="#0C0E19"/>
</linearGradient>
<linearGradient id="paint2_linear_4012_42" x1="427" y1="88" x2="132.587" y2="88" gradientUnits="userSpaceOnUse">
<stop stop-color="#0C0E19"/>
<stop offset="0.63" stop-color="#CEC1F1"/>
</linearGradient>
<linearGradient id="paint3_linear_4012_42" x1="651" y1="87.8917" x2="891.332" y2="87.8917" gradientUnits="userSpaceOnUse">
<stop stop-color="#0C0E19"/>
<stop offset="0.63" stop-color="#CEC1F1"/>
</linearGradient>
<linearGradient id="paint4_linear_4012_42" x1="608.5" y1="131.999" x2="737" y2="131.999" gradientUnits="userSpaceOnUse">
<stop stop-color="#0C0E19"/>
<stop offset="1" stop-color="#CEC1F1"/>
</linearGradient>
<linearGradient id="paint5_linear_4012_42" x1="414" y1="131.999" x2="285.5" y2="131.999" gradientUnits="userSpaceOnUse">
<stop stop-color="#0C0E19"/>
<stop offset="1" stop-color="#CEC1F1"/>
</linearGradient>
</defs>
</svg>
