<svg width="52" height="45" viewBox="0 0 52 45" fill="none" xmlns="http://www.w3.org/2000/svg">
<path d="M44.2501 12.0801V16.9688C44.2501 24.0857 38.4607 29.875 31.3438 29.875H9.38477C10.2642 35.1048 14.8017 39.0938 20.2813 39.0938H46.0938L51.6251 44.625V22.5C51.6251 17.6851 48.5442 13.6003 44.2501 12.0801Z" fill="#252239" fill-opacity="0.3"/>
<path d="M44.2501 12.0801V16.9688C44.2501 24.0857 38.4607 29.875 31.3438 29.875H9.38477C10.2642 35.1048 14.8017 39.0938 20.2813 39.0938H46.0938L51.6251 44.625V22.5C51.6251 17.6851 48.5442 13.6003 44.2501 12.0801Z" fill="url(#paint0_linear_134_539)"/>
<path d="M13.0723 29.875H9.38477C10.2642 35.1048 14.8017 39.0938 20.2813 39.0938H23.9688C18.4892 39.0938 13.9517 35.1048 13.0723 29.875Z" fill="#252239" fill-opacity="0.3"/>
<path d="M13.0723 29.875H9.38477C10.2642 35.1048 14.8017 39.0938 20.2813 39.0938H23.9688C18.4892 39.0938 13.9517 35.1048 13.0723 29.875Z" fill="url(#paint1_linear_134_539)"/>
<path d="M11.0625 0.375C4.95323 0.375 0 5.32823 0 11.4375V33.5625L5.53125 28.0312H31.3438C37.453 28.0312 42.4062 23.078 42.4062 16.9688V11.4375C42.4062 5.32823 37.453 0.375 31.3438 0.375H11.0625Z" fill="#252239" fill-opacity="0.3"/>
<path d="M11.0625 0.375C4.95323 0.375 0 5.32823 0 11.4375V33.5625L5.53125 28.0312H31.3438C37.453 28.0312 42.4062 23.078 42.4062 16.9688V11.4375C42.4062 5.32823 37.453 0.375 31.3438 0.375H11.0625Z" fill="url(#paint2_linear_134_539)"/>
<path d="M3.6875 11.4375C3.6875 5.32823 8.64073 0.375 14.75 0.375H11.0625C4.95323 0.375 0 5.32823 0 11.4375V33.5625L3.6875 29.875V11.4375Z" fill="#FF40A3" fill-opacity="0.6"/>
<path d="M3.6875 11.4375C3.6875 5.32823 8.64073 0.375 14.75 0.375H11.0625C4.95323 0.375 0 5.32823 0 11.4375V33.5625L3.6875 29.875V11.4375Z" fill="url(#paint3_linear_134_539)"/>
<defs>
<linearGradient id="paint0_linear_134_539" x1="11.4641" y1="13.8865" x2="45.4056" y2="46.1064" gradientUnits="userSpaceOnUse">
<stop stop-color="#7C48FF"/>
<stop offset="1" stop-color="#363567" stop-opacity="0.2"/>
</linearGradient>
<linearGradient id="paint1_linear_134_539" x1="10.1027" y1="30.3867" x2="19.6285" y2="41.4086" gradientUnits="userSpaceOnUse">
<stop stop-color="#7C48FF"/>
<stop offset="1" stop-color="#363567" stop-opacity="0.2"/>
</linearGradient>
<linearGradient id="paint2_linear_134_539" x1="2.08751" y1="2.21704" x2="36.6668" y2="34.5333" gradientUnits="userSpaceOnUse">
<stop stop-color="#7C48FF"/>
<stop offset="1" stop-color="#363567" stop-opacity="0.2"/>
</linearGradient>
<linearGradient id="paint3_linear_134_539" x1="0.726089" y1="2.21704" x2="21.1051" y2="8.84151" gradientUnits="userSpaceOnUse">
<stop stop-color="#7C48FF"/>
<stop offset="1" stop-color="#363567" stop-opacity="0.2"/>
</linearGradient>
</defs>
</svg>
