<svg width="27" height="27" viewBox="0 0 27 27" fill="none" xmlns="http://www.w3.org/2000/svg">
<path d="M17.5284 22.1623C15.1546 22.3311 15.1546 25.7736 17.5284 25.9423H23.1646C23.8509 25.9423 24.5034 25.6948 25.0096 25.2336C26.6746 23.7823 25.7859 20.8573 23.5921 20.5873C22.8046 15.8398 15.9309 17.6398 17.5621 22.1623" fill="url(#paint0_linear_134_1827)"/>
<path d="M17.5284 22.1623C15.1546 22.3311 15.1546 25.7736 17.5284 25.9423H23.1646C23.8509 25.9423 24.5034 25.6948 25.0096 25.2336C26.6746 23.7823 25.7859 20.8573 23.5921 20.5873C22.8046 15.8398 15.9309 17.6398 17.5621 22.1623" fill="url(#paint1_linear_134_1827)"/>
<path d="M24.75 12.4537V17.2575C24.75 17.6175 24.1763 17.775 23.9288 17.5162C23.4 16.965 22.7362 16.5487 21.9713 16.3125C20.205 15.7612 18.1687 16.3013 16.8863 17.6287C16.0763 18.495 15.6375 19.575 15.615 20.745C15.615 20.9475 15.5137 21.1275 15.3562 21.2512C14.5462 21.8925 14.0512 22.8938 14.0512 24.0413V24.0525C14.0512 24.4125 13.7925 24.7388 13.4325 24.7388H8.2575C4.95 24.75 2.25 22.05 2.25 18.7312V7.2225C2.25 4.4775 4.4775 2.25 7.2225 2.25H9.8325C11.6662 2.25 12.24 2.84625 12.9712 3.825L14.5463 5.9175C14.895 6.37875 14.94 6.435 15.5925 6.435H18.7312C21.4088 6.435 23.6812 8.19 24.4575 10.62C24.6262 11.1262 24.7162 11.6438 24.7388 12.195C24.75 12.2738 24.75 12.375 24.75 12.4537Z" fill="url(#paint2_linear_134_1827)"/>
<defs>
<linearGradient id="paint0_linear_134_1827" x1="15.959" y1="20.165" x2="19.9163" y2="27.9119" gradientUnits="userSpaceOnUse">
<stop stop-color="#CEC1F1"/>
<stop offset="1" stop-color="#7544FF"/>
</linearGradient>
<linearGradient id="paint1_linear_134_1827" x1="15.959" y1="20.165" x2="19.9163" y2="27.9119" gradientUnits="userSpaceOnUse">
<stop stop-color="#CEC1F1"/>
<stop offset="1" stop-color="#7544FF"/>
</linearGradient>
<linearGradient id="paint2_linear_134_1827" x1="2.71875" y1="8.80923" x2="14.8976" y2="28.0239" gradientUnits="userSpaceOnUse">
<stop stop-color="#CEC1F1"/>
<stop offset="1" stop-color="#7544FF"/>
</linearGradient>
</defs>
</svg>
