<svg width="137" height="29" viewBox="0 0 137 29" fill="none" xmlns="http://www.w3.org/2000/svg">
<g clip-path="url(#clip0_134_450)">
<path d="M29.0563 3.5717C26.8679 2.54959 24.5281 1.80676 22.0819 1.38379C21.7814 1.92603 21.4305 2.65534 21.1885 3.23552C18.588 2.84511 16.0115 2.84511 13.4589 3.23552C13.217 2.65534 12.858 1.92603 12.5549 1.38379C10.106 1.80676 7.76343 2.55232 5.57511 3.57711C1.16125 10.2356 -0.0352729 16.7288 0.562992 23.1297C3.49049 25.3122 6.3276 26.638 9.11683 27.5055C9.80551 26.5593 10.4197 25.5535 10.9489 24.4934C9.9411 24.1112 8.97591 23.6394 8.06392 23.0918C8.30586 22.9128 8.54252 22.7258 8.77117 22.5332C14.3337 25.1306 20.3775 25.1306 25.8736 22.5332C26.1049 22.7258 26.3415 22.9128 26.5809 23.0918C25.6662 23.6421 24.6983 24.1139 23.6906 24.4961C24.2197 25.5535 24.8312 26.562 25.5226 27.5081C28.3145 26.6406 31.1542 25.3149 34.0817 23.1297C34.7837 15.7094 32.8826 9.27589 29.0563 3.5717ZM11.7067 19.1932C10.0368 19.1932 8.66746 17.637 8.66746 15.7419C8.66746 13.8468 10.0076 12.2879 11.7067 12.2879C13.4058 12.2879 14.7751 13.8441 14.7459 15.7419C14.7485 17.637 13.4058 19.1932 11.7067 19.1932ZM22.9381 19.1932C21.2683 19.1932 19.8989 17.637 19.8989 15.7419C19.8989 13.8468 21.239 12.2879 22.9381 12.2879C24.6371 12.2879 26.0065 13.8441 25.9773 15.7419C25.9773 17.637 24.6371 19.1932 22.9381 19.1932Z" fill="#CEC1F1" fill-opacity="0.7"/>
<path d="M45.8472 8.04883H53.1058C54.8557 8.04883 56.3339 8.32807 57.5467 8.88386C58.7563 9.4396 59.6631 10.215 60.2642 11.2073C60.8648 12.1996 61.1679 13.3355 61.1679 14.6152C61.1679 15.8677 60.8541 17.0036 60.2267 18.0203C59.5992 19.0397 58.6445 19.845 57.3605 20.4386C56.0763 21.0324 54.4859 21.3306 52.585 21.3306H45.8472V8.04883ZM52.5104 17.9552C53.6884 17.9552 54.5952 17.6543 55.2279 17.0552C55.8608 16.4533 56.1774 15.6346 56.1774 14.5962C56.1774 13.6337 55.8951 12.8665 55.3316 12.2917C54.7682 11.7169 53.9146 11.4269 52.7736 11.4269H50.5029V17.9552H52.5104Z" fill="#CEC1F1" fill-opacity="0.7"/>
<path d="M72.0334 21.3138C71.0282 21.0481 70.1213 20.6632 69.3159 20.1561V17.0059C69.9248 17.4857 70.7408 17.8816 71.7645 18.1933C72.7882 18.5024 73.7777 18.6569 74.7346 18.6569C75.1813 18.6569 75.5191 18.5972 75.7476 18.4779C75.9765 18.3587 76.091 18.215 76.091 18.0496C76.091 17.8599 76.0298 17.7025 75.9047 17.5751C75.7796 17.4477 75.5377 17.342 75.179 17.2525L72.9454 16.7402C71.6663 16.4365 70.7594 16.0162 70.22 15.4767C69.6801 14.9399 69.4114 14.235 69.4114 13.3621C69.4114 12.6273 69.6453 11.9903 70.119 11.4453C70.5894 10.9004 71.2595 10.4801 72.1288 10.1846C72.9986 9.8864 74.0139 9.7373 75.1813 9.7373C76.2235 9.7373 77.1781 9.85115 78.0479 10.0789C78.9173 10.3066 79.6351 10.5967 80.207 10.9519V13.9314C79.6217 13.5763 78.9516 13.297 78.1861 13.0856C77.4228 12.8768 76.6387 12.7737 75.8301 12.7737C74.6627 12.7737 74.0807 12.9771 74.0807 13.381C74.0807 13.5708 74.171 13.7118 74.3518 13.8067C74.5325 13.9015 74.8648 13.9992 75.3463 14.1022L77.2073 14.4438C78.4228 14.658 79.3293 15.0349 79.9248 15.5716C80.5208 16.1085 80.8182 16.9028 80.8182 17.9547C80.8182 19.1069 80.3265 20.0206 79.34 20.6984C78.3534 21.3762 76.9547 21.7151 75.1415 21.7151C74.0751 21.7123 73.0384 21.5794 72.0334 21.3138Z" fill="#CEC1F1" fill-opacity="0.7"/>
<path d="M85.2146 20.9153C84.1487 20.3839 83.3429 19.6628 82.8058 18.7519C82.2687 17.841 81.9976 16.8161 81.9976 15.6775C81.9976 14.5388 82.2766 13.5195 82.835 12.6221C83.3933 11.7247 84.2122 11.0198 85.292 10.5074C86.3713 9.99497 87.661 9.74011 89.1634 9.74011C91.0244 9.74011 92.5694 10.1387 93.7979 10.9357V14.4087C93.3646 14.1051 92.859 13.8583 92.282 13.6685C91.7052 13.4788 91.0883 13.3839 90.4289 13.3839C89.275 13.3839 88.3737 13.598 87.7221 14.0291C87.0706 14.4602 86.7439 15.0213 86.7439 15.7181C86.7439 16.4013 87.0599 16.9598 87.6929 17.3991C88.3259 17.8355 89.243 18.0551 90.4474 18.0551C91.0671 18.0551 91.6787 17.963 92.282 17.7814C92.8831 17.597 93.4016 17.372 93.8349 17.1063V20.4653C92.4711 21.3003 90.8891 21.7178 89.0887 21.7178C87.5734 21.7124 86.2809 21.4467 85.2146 20.9153Z" fill="#CEC1F1" fill-opacity="0.7"/>
<path d="M98.4393 20.9156C97.3651 20.3842 96.5463 19.6576 95.9823 18.7331C95.4188 17.8086 95.1343 16.7784 95.1343 15.6396C95.1343 14.5011 95.416 13.4844 95.9823 12.5924C96.5486 11.7005 97.3624 11.001 98.4315 10.494C99.4973 9.98699 100.771 9.73486 102.247 9.73486C103.723 9.73486 104.996 9.98699 106.063 10.494C107.129 11.001 107.942 11.695 108.501 12.5815C109.059 13.4681 109.338 14.4847 109.338 15.637C109.338 16.7757 109.059 17.8059 108.501 18.7303C107.942 19.6549 107.126 20.3814 106.051 20.9128C104.978 21.4442 103.709 21.7099 102.244 21.7099C100.779 21.7099 99.5107 21.4469 98.4393 20.9156ZM104.095 17.5483C104.547 17.0874 104.776 16.4774 104.776 15.7183C104.776 14.9592 104.549 14.3546 104.095 13.9073C103.643 13.4572 103.026 13.2322 102.244 13.2322C101.449 13.2322 100.827 13.4572 100.372 13.9073C99.9204 14.3574 99.6942 14.9592 99.6942 15.7183C99.6942 16.4774 99.9204 17.0874 100.372 17.5483C100.825 18.0092 101.449 18.2423 102.244 18.2423C103.026 18.2396 103.643 18.0092 104.095 17.5483Z" fill="#CEC1F1" fill-opacity="0.7"/>
<path d="M120.522 10.4393V14.5385C120.049 14.2214 119.437 14.0641 118.679 14.0641C117.686 14.0641 116.921 14.3705 116.389 14.9832C115.855 15.5959 115.589 16.5502 115.589 17.8407V21.3327H111.029V10.2306H115.496V13.7605C115.743 12.47 116.145 11.5184 116.698 10.9029C117.248 10.2902 117.961 9.98389 118.828 9.98389C119.484 9.98389 120.049 10.1357 120.522 10.4393Z" fill="#CEC1F1" fill-opacity="0.7"/>
<path d="M135.672 7.66846V21.3326H131.112V18.8464C130.726 19.7818 130.141 20.4948 129.355 20.9828C128.567 21.4681 127.594 21.7121 126.44 21.7121C125.409 21.7121 124.511 21.4572 123.741 20.9449C122.973 20.4324 122.381 19.7303 121.963 18.8384C121.548 17.9463 121.338 16.9378 121.338 15.81C121.324 14.6469 121.546 13.6031 122 12.6786C122.452 11.7541 123.093 11.033 123.917 10.5151C124.741 9.99732 125.682 9.73705 126.738 9.73705C128.911 9.73705 130.368 10.6995 131.112 12.6216V7.66846H135.672ZM130.432 17.4719C130.897 17.011 131.129 16.4118 131.129 15.6798C131.129 14.9723 130.902 14.3947 130.45 13.9528C129.998 13.511 129.378 13.2887 128.599 13.2887C127.831 13.2887 127.217 13.5137 126.757 13.9636C126.297 14.4138 126.068 14.9967 126.068 15.7178C126.068 16.439 126.297 17.0273 126.757 17.4827C127.217 17.9382 127.823 18.166 128.581 18.166C129.349 18.1633 129.966 17.9328 130.432 17.4719Z" fill="#CEC1F1" fill-opacity="0.7"/>
<path d="M65.0113 11.4128C66.2667 11.4128 67.2849 10.4806 67.2849 9.33064C67.2849 8.18071 66.2667 7.24854 65.0113 7.24854C63.7555 7.24854 62.7378 8.18071 62.7378 9.33064C62.7378 10.4806 63.7555 11.4128 65.0113 11.4128Z" fill="#CEC1F1" fill-opacity="0.7"/>
<path d="M62.7358 12.8472C64.1288 13.4599 65.8574 13.4869 67.2824 12.8472V21.3926H62.7358V12.8472Z" fill="#CEC1F1" fill-opacity="0.7"/>
</g>
<defs>
<clipPath id="clip0_134_450">
<rect width="136.256" height="27.2512" fill="white" transform="translate(0.419434 0.820251)"/>
</clipPath>
</defs>
</svg>
