<svg width="50" height="50" viewBox="0 0 50 50" fill="none" xmlns="http://www.w3.org/2000/svg">
<g filter="url(#filter0_b_134_2203)">
<rect x="0.823242" y="0.98291" width="49.025" height="49.025" rx="10" fill="url(#paint0_linear_134_2203)"/>
</g>
<path d="M36.3689 43.6025H12.5052C12.017 43.6025 11.6201 43.2057 11.6201 42.7175V18.9101C11.6201 18.7988 11.6644 18.6921 11.7431 18.6138L21.2535 9.10344C21.3322 9.02472 21.4389 8.98047 21.5497 8.98047H36.3685C36.8566 8.98047 37.2535 9.37734 37.2535 9.8655V42.718C37.2535 43.2061 36.8566 43.603 36.3685 43.603L36.3689 43.6025ZM12.4586 19.0834V42.7175C12.4586 42.7431 12.4795 42.7641 12.5052 42.7641H36.3689C36.3946 42.7641 36.4155 42.7431 36.4155 42.7175V9.86504C36.4155 9.83942 36.3946 9.81846 36.3689 9.81846H21.7235L12.4586 19.0834Z" fill="#CEC1F1"/>
<path d="M19.6797 37.8124C19.1819 38.0303 18.7585 37.9978 18 37.9988V35C18.701 35.0085 19.107 34.9652 19.6001 35.161C20.7908 35.6519 20.7821 37.3003 19.6797 37.8124Z" fill="#CEC1F1"/>
<path d="M23.8679 35.1826C23.2889 35.8329 23.2889 37.9756 24.6831 37.9756C25.5136 37.9756 25.8546 37.2298 25.8546 36.3993C25.8546 34.6949 24.473 34.5114 23.8679 35.1826ZM23.8679 35.1826C23.2889 35.8329 23.2889 37.9756 24.6831 37.9756C25.5136 37.9756 25.8546 37.2298 25.8546 36.3993C25.8546 34.6949 24.473 34.5114 23.8679 35.1826ZM33.3555 32.3589H15.625C15.1103 32.3589 14.6934 32.7758 14.6934 33.2905V39.5114C14.6934 40.0256 15.1103 40.443 15.625 40.443H33.3555C33.8702 40.443 34.2871 40.0256 34.2871 39.5114V33.2905C34.2871 32.7758 33.8702 32.3589 33.3555 32.3589ZM20.5146 38.3958C19.6626 38.9128 18.6942 38.7409 17.1011 38.7717V34.0302C18.7943 34.0526 20.4833 33.7377 21.2994 35.2101C21.4876 35.5487 21.5813 35.947 21.5813 36.4054C21.5813 37.3216 21.1024 38.0389 20.5146 38.3958ZM26.4755 38.2029C25.3566 39.3521 22.2376 39.2226 22.2376 36.4026C22.2376 33.5826 25.3478 33.4517 26.4722 34.5952C26.9078 35.0377 27.1253 35.6405 27.1253 36.4026C27.1253 37.1646 26.9087 37.7585 26.4755 38.2029ZM31.8793 35.4821H31.7391C29.1818 33.304 28.1305 37.3086 29.9271 37.8722C30.6254 38.0906 31.2039 37.8079 31.7517 37.3225H31.8793V38.4563C27.1393 40.5673 26.36 33.938 30.2043 33.938C30.6808 33.938 31.1392 34.0069 31.5752 34.1942C31.6907 34.244 31.7922 34.2901 31.8793 34.3325V35.4821ZM25.1237 34.912C23.3411 34.1881 22.9931 37.371 24.234 37.8862C26.0036 38.6287 26.3889 35.4253 25.1237 34.912Z" fill="#CEC1F1"/>
<path d="M22.09 9.03183C21.9335 8.96708 21.7532 9.00295 21.6331 9.12266L12.1227 18.6331C12.003 18.7528 11.9671 18.933 12.0318 19.09C12.0966 19.2465 12.2494 19.349 12.4189 19.349H21.4635C21.9517 19.349 22.3485 18.9521 22.3485 18.464V9.41938C22.3485 9.24983 22.2465 9.09704 22.0895 9.0323L22.09 9.03183Z" fill="#CEC1F1"/>
<defs>
<filter id="filter0_b_134_2203" x="-3.17676" y="-3.01709" width="57.0254" height="57.0249" filterUnits="userSpaceOnUse" color-interpolation-filters="sRGB">
<feFlood flood-opacity="0" result="BackgroundImageFix"/>
<feGaussianBlur in="BackgroundImageFix" stdDeviation="2"/>
<feComposite in2="SourceAlpha" operator="in" result="effect1_backgroundBlur_134_2203"/>
<feBlend mode="normal" in="SourceGraphic" in2="effect1_backgroundBlur_134_2203" result="shape"/>
</filter>
<linearGradient id="paint0_linear_134_2203" x1="0.823242" y1="3.72994" x2="60.6987" y2="28.1495" gradientUnits="userSpaceOnUse">
<stop stop-color="#15192E"/>
<stop offset="0.469102" stop-color="#443B7A" stop-opacity="0.3"/>
<stop offset="1" stop-color="#A492D6" stop-opacity="0.1"/>
</linearGradient>
</defs>
</svg>
