<svg width="30" height="30" viewBox="0 0 30 30" fill="none" xmlns="http://www.w3.org/2000/svg">
<path d="M20 2.5H10C5.625 2.5 3.75 5 3.75 8.75V14.3375C3.75 14.775 4.175 15.075 4.575 14.925C5.95 14.3875 7.5125 14.2125 9.125 14.5375C12.375 15.1875 14.9625 17.8625 15.5 21.125C15.825 23.1125 15.425 25 14.5125 26.5625C14.2625 26.975 14.5625 27.5 15.05 27.5H20C24.375 27.5 26.25 25 26.25 21.25V8.75C26.25 5 24.375 2.5 20 2.5ZM23.125 11.5625H20.625C18.725 11.5625 17.1875 10.025 17.1875 8.125V5.625C17.1875 5.1125 17.6125 4.6875 18.125 4.6875C18.6375 4.6875 19.0625 5.1125 19.0625 5.625V8.125C19.0625 8.9875 19.7625 9.6875 20.625 9.6875H23.125C23.6375 9.6875 24.0625 10.1125 24.0625 10.625C24.0625 11.1375 23.6375 11.5625 23.125 11.5625Z" fill="url(#paint0_linear_134_1887)"/>
<path d="M7.5 16.25C4.05 16.25 1.25 19.05 1.25 22.5C1.25 25.95 4.05 28.75 7.5 28.75C10.95 28.75 13.75 25.95 13.75 22.5C13.75 19.05 10.95 16.25 7.5 16.25ZM6.45 24.0875C6.7625 24.4 6.7625 24.9125 6.45 25.2375C6.2875 25.4 6.0875 25.475 5.875 25.475C5.6625 25.475 5.4625 25.4 5.3 25.2375L3.1375 23.075C2.825 22.7625 2.825 22.25 3.1375 21.925L5.3 19.7625C5.6125 19.45 6.125 19.45 6.45 19.7625C6.7625 20.075 6.7625 20.5875 6.45 20.9125L4.8625 22.5L6.45 24.0875ZM11.85 23.075L9.6875 25.2375C9.525 25.4 9.325 25.475 9.1125 25.475C8.9 25.475 8.7 25.4 8.5375 25.2375C8.225 24.925 8.225 24.4125 8.5375 24.0875L10.1375 22.5L8.55 20.9125C8.2375 20.6 8.2375 20.0875 8.55 19.7625C8.8625 19.45 9.375 19.45 9.7 19.7625L11.8625 21.925C12.1625 22.25 12.1625 22.75 11.85 23.075Z" fill="url(#paint1_linear_134_1887)"/>
<defs>
<linearGradient id="paint0_linear_134_1887" x1="15" y1="2.5" x2="24.9454" y2="28.9457" gradientUnits="userSpaceOnUse">
<stop stop-color="#CEC1F1"/>
<stop offset="1" stop-color="#7544FF"/>
</linearGradient>
<linearGradient id="paint1_linear_134_1887" x1="7.5" y1="16.25" x2="12.0833" y2="29.7917" gradientUnits="userSpaceOnUse">
<stop stop-color="#CEC1F1"/>
<stop offset="1" stop-color="#7544FF"/>
</linearGradient>
</defs>
</svg>
