<svg width="122" height="25" viewBox="0 0 122 25" fill="none" xmlns="http://www.w3.org/2000/svg">
<mask id="mask0_134_442" style="mask-type:luminance" maskUnits="userSpaceOnUse" x="0" y="0" width="122" height="25">
<path d="M121.041 0.667114H0.0166016V24.4686H121.041V0.667114Z" fill="white"/>
</mask>
<g mask="url(#mask0_134_442)">
<path d="M14.0555 5.13972L7.03603 9.61233L14.0555 14.0849L7.03603 18.5576L0.0166016 14.0608L7.03603 9.58816L0.0166016 5.13972L7.03603 0.667114L14.0555 5.13972ZM6.99973 19.996L14.0192 15.5235L21.0386 19.996L14.0192 24.4686L6.99973 19.996ZM14.0555 14.0608L21.0749 9.58816L14.0555 5.13972L21.0386 0.667114L28.0581 5.13972L21.0386 9.61233L28.0581 14.0849L21.0386 18.5576L14.0555 14.0608Z" fill="#CEC1F1" fill-opacity="0.7"/>
<path d="M33.5654 5.13935H39.2415C42.8602 5.13935 45.8494 7.2306 45.8494 12.0054V13.0087C45.8494 17.8198 43.0538 19.9836 39.3504 19.9836H33.5654V5.13935ZM36.7363 7.83501V17.2759H39.1689C41.2263 17.2759 42.606 15.934 42.606 12.9483V12.1626C42.606 9.17679 41.1537 7.83501 39.06 7.83501H36.7363ZM47.5317 7.98007H50.0732L50.4847 10.7725C50.9688 8.87459 52.2032 7.85918 54.4422 7.85918H55.2288V11.0626H53.9218C51.344 11.0626 50.7147 11.9571 50.7147 14.4956V20.0198H47.5801V7.98007H47.5317ZM55.8582 14.2417V13.9032C55.8582 9.8779 58.436 7.67786 61.9457 7.67786C65.5281 7.67786 68.0333 9.8779 68.0333 13.9032V14.2417C68.0333 18.1945 65.6006 20.322 61.9457 20.322C58.0609 20.2857 55.8582 18.2066 55.8582 14.2417ZM64.8261 14.2055V13.9032C64.8261 11.6669 63.7006 10.3252 61.9095 10.3252C60.1546 10.3252 58.9928 11.5581 58.9928 13.9032V14.2055C58.9928 16.3692 60.1182 17.6022 61.9095 17.6022C63.7006 17.566 64.8261 16.3692 64.8261 14.2055ZM69.6792 7.98007H72.2933L72.5959 10.2526C73.2252 8.72953 74.5686 7.67786 76.5534 7.67786C79.6154 7.67786 81.6365 9.8779 81.6365 13.9516V14.2901C81.6365 18.2428 79.3975 20.3342 76.5534 20.3342C74.6534 20.3342 73.3463 19.4759 72.7048 18.0978V24.1782H69.6429L69.6792 7.98007ZM78.4536 14.2055V13.9395C78.4536 11.5461 77.2191 10.3614 75.5731 10.3614C73.8182 10.3614 72.6564 11.7032 72.6564 13.9395V14.1692C72.6564 16.2967 73.782 17.6385 75.5368 17.6385C77.3401 17.6022 78.4536 16.4538 78.4536 14.2055ZM86.2717 17.7956L86.0055 19.9956H83.3187V3.95471H86.3806V10.1076C87.0584 8.53612 88.4018 7.67786 90.3018 7.67786C93.1823 7.71413 95.3123 9.69658 95.3123 13.6856V14.0604C95.3123 18.0495 93.2912 20.3342 90.2292 20.3342C88.2081 20.2857 86.9011 19.355 86.2717 17.7956ZM92.093 14.0604V13.7581C92.093 11.5581 90.8949 10.3252 89.2126 10.3252C87.494 10.3252 86.2959 11.7032 86.2959 13.7944V14.0604C86.2959 16.2967 87.4578 17.6022 89.1764 17.6022C91.0159 17.6022 92.093 16.4538 92.093 14.0604ZM96.6557 14.2417V13.9032C96.6557 9.8779 99.2335 7.67786 102.743 7.67786C106.326 7.67786 108.831 9.8779 108.831 13.9032V14.2417C108.831 18.1945 106.362 20.322 102.743 20.322C98.8583 20.2857 96.6557 18.2066 96.6557 14.2417ZM105.648 14.2055V13.9032C105.648 11.6669 104.522 10.3252 102.731 10.3252C100.976 10.3252 99.8144 11.5581 99.8144 13.9032V14.2055C99.8144 16.3692 100.94 17.6022 102.731 17.6022C104.535 17.566 105.648 16.3692 105.648 14.2055ZM112.933 13.7581L108.709 7.98007H112.329L114.761 11.5944L117.23 7.98007H120.812L116.528 13.7219L121.043 19.9956H117.496L114.737 16.0066L112.05 19.9956H108.347L112.933 13.7581Z" fill="#CEC1F1" fill-opacity="0.7"/>
</g>
</svg>
