<svg width="290" height="183" viewBox="0 0 290 183" fill="none" xmlns="http://www.w3.org/2000/svg">
<g clip-path="url(#clip0_174_841)">
<rect width="290" height="47" rx="5" fill="url(#paint0_linear_174_841)"/>
<g filter="url(#filter0_bi_174_841)">
<rect x="5.59766" y="55.4121" width="33.3056" height="32.286" rx="16.143" fill="url(#paint1_linear_174_841)" fill-opacity="0.2"/>
</g>
<g filter="url(#filter1_i_174_841)">
<path d="M25.5827 71.8071V76.295C25.5827 78.2434 24.2838 79.534 22.3438 79.534H17.1647C15.2247 79.534 13.9258 78.2434 13.9258 76.295V69.8254C13.9258 67.877 15.2247 66.5864 17.1647 66.5864H20.3538C21.2114 66.5864 22.0357 66.9278 22.6435 67.5356L24.6335 69.5173C25.2413 70.1251 25.5827 70.9495 25.5827 71.8071Z" fill="url(#paint2_linear_174_841)"/>
<path d="M30.5778 68.1098V72.5978C30.5778 74.5378 29.2789 75.8367 27.3388 75.8367H26.4146V71.8067C26.4146 70.7326 25.9816 69.6835 25.2239 68.9258L23.2339 66.9441C22.4762 66.1864 21.4271 65.7535 20.353 65.7535H18.9375C19.0874 64.0216 20.3447 62.8809 22.1598 62.8809H25.3488C26.2064 62.8809 27.0307 63.2222 27.6386 63.8301L29.6286 65.8201C30.2364 66.4279 30.5778 67.2522 30.5778 68.1098Z" fill="url(#paint3_linear_174_841)"/>
</g>
<path d="M58.6893 68.6201C58.0706 68.6201 57.4759 68.5241 56.9053 68.3321C56.3399 68.1348 55.8439 67.8548 55.4173 67.4921C54.9906 67.1241 54.6839 66.6841 54.4973 66.1721L56.3293 65.5001C56.4039 65.7134 56.5559 65.9081 56.7853 66.0841C57.0146 66.2601 57.2946 66.4014 57.6253 66.5081C57.9559 66.6148 58.3106 66.6681 58.6893 66.6681C59.0786 66.6681 59.4413 66.6094 59.7773 66.4921C60.1186 66.3694 60.3933 66.2014 60.6013 65.9881C60.8093 65.7694 60.9133 65.5161 60.9133 65.2281C60.9133 64.9348 60.8039 64.6948 60.5853 64.5081C60.3666 64.3161 60.0866 64.1641 59.7453 64.0521C59.4039 63.9401 59.0519 63.8548 58.6893 63.7961C57.8946 63.6734 57.1826 63.4841 56.5533 63.2281C55.9239 62.9721 55.4253 62.6174 55.0573 62.1641C54.6946 61.7108 54.5133 61.1241 54.5133 60.4041C54.5133 59.7268 54.7079 59.1348 55.0973 58.6281C55.4866 58.1214 55.9986 57.7268 56.6333 57.4441C57.2679 57.1614 57.9533 57.0201 58.6893 57.0201C59.3026 57.0201 59.8946 57.1161 60.4653 57.3081C61.0359 57.5001 61.5346 57.7801 61.9613 58.1481C62.3933 58.5161 62.7026 58.9588 62.8893 59.4761L61.0493 60.1401C60.9746 59.9268 60.8226 59.7321 60.5933 59.5561C60.3639 59.3801 60.0839 59.2414 59.7533 59.1401C59.4226 59.0334 59.0679 58.9801 58.6893 58.9801C58.3106 58.9748 57.9506 59.0361 57.6093 59.1641C57.2733 59.2868 56.9986 59.4548 56.7853 59.6681C56.5719 59.8814 56.4653 60.1268 56.4653 60.4041C56.4653 60.7614 56.5639 61.0308 56.7613 61.2121C56.9639 61.3934 57.2333 61.5268 57.5693 61.6121C57.9053 61.6921 58.2786 61.7668 58.6893 61.8361C59.4359 61.9534 60.1266 62.1508 60.7613 62.4281C61.3959 62.7054 61.9053 63.0761 62.2893 63.5401C62.6733 63.9988 62.8653 64.5614 62.8653 65.2281C62.8653 65.9054 62.6733 66.5001 62.2893 67.0121C61.9053 67.5188 61.3959 67.9134 60.7613 68.1961C60.1266 68.4788 59.4359 68.6201 58.6893 68.6201ZM67.9116 68.6201C67.1756 68.6201 66.5036 68.4308 65.8956 68.0521C65.293 67.6734 64.8103 67.1668 64.4476 66.5321C64.0903 65.8921 63.9116 65.1854 63.9116 64.4121C63.9116 63.8254 64.0156 63.2788 64.2236 62.7721C64.4316 62.2601 64.717 61.8121 65.0796 61.4281C65.4476 61.0388 65.8743 60.7348 66.3596 60.5161C66.845 60.2974 67.3623 60.1881 67.9116 60.1881C68.6476 60.1881 69.317 60.3774 69.9196 60.7561C70.5276 61.1348 71.0103 61.6441 71.3676 62.2841C71.7303 62.9241 71.9116 63.6334 71.9116 64.4121C71.9116 64.9934 71.8076 65.5374 71.5996 66.0441C71.3916 66.5508 71.1036 66.9988 70.7356 67.3881C70.373 67.7721 69.949 68.0734 69.4636 68.2921C68.9836 68.5108 68.4663 68.6201 67.9116 68.6201ZM67.9116 66.6681C68.301 66.6681 68.6503 66.5641 68.9596 66.3561C69.269 66.1481 69.5116 65.8734 69.6876 65.5321C69.869 65.1908 69.9596 64.8174 69.9596 64.4121C69.9596 63.9961 69.8663 63.6174 69.6796 63.2761C69.4983 62.9294 69.2503 62.6548 68.9356 62.4521C68.6263 62.2441 68.285 62.1401 67.9116 62.1401C67.5276 62.1401 67.181 62.2441 66.8716 62.4521C66.5623 62.6601 66.317 62.9374 66.1356 63.2841C65.9543 63.6308 65.8636 64.0068 65.8636 64.4121C65.8636 64.8334 65.957 65.2148 66.1436 65.5561C66.3303 65.8974 66.5783 66.1694 66.8876 66.3721C67.2023 66.5694 67.5436 66.6681 67.9116 66.6681ZM75.6088 58.7321V60.4121H77.7928V62.3641H75.6088V68.4121H73.6568V62.3641H72.7848V60.4121H73.6568V58.7321C73.6568 58.2734 73.7688 57.8548 73.9928 57.4761C74.2221 57.0921 74.5288 56.7881 74.9128 56.5641C75.2968 56.3348 75.7208 56.2201 76.1848 56.2201C76.5208 56.2201 76.8541 56.2894 77.1848 56.4281C77.5154 56.5668 77.8088 56.7801 78.0648 57.0681L76.6568 58.4441C76.6088 58.3534 76.5394 58.2868 76.4488 58.2441C76.3634 58.1961 76.2754 58.1721 76.1848 58.1721C76.0301 58.1721 75.8941 58.2281 75.7768 58.3401C75.6648 58.4468 75.6088 58.5774 75.6088 58.7321ZM83.664 62.3641H82.112V68.4121H80.16V62.3641H78.976V60.4121H80.16V57.9001H82.112V60.4121H83.664V62.3641ZM89.2384 68.4121H87.3024L84.6304 60.4121H86.5424L88.2784 65.5881L90.0064 60.4121H91.9344L93.6624 65.5881L95.3984 60.4121H97.3104L94.6384 68.4121H92.7024L90.9664 63.2121L89.2384 68.4121ZM104.221 60.4121H106.173V68.4121H104.221L104.133 67.4201C103.914 67.7774 103.623 68.0681 103.261 68.2921C102.903 68.5108 102.479 68.6201 101.989 68.6201C101.397 68.6201 100.842 68.5081 100.325 68.2841C99.8072 68.0601 99.3512 67.7508 98.9565 67.3561C98.5672 66.9614 98.2605 66.5054 98.0365 65.9881C97.8178 65.4708 97.7085 64.9161 97.7085 64.3241C97.7085 63.7534 97.8125 63.2174 98.0205 62.7161C98.2338 62.2148 98.5298 61.7748 98.9085 61.3961C99.2872 61.0174 99.7245 60.7214 100.221 60.5081C100.717 60.2948 101.25 60.1881 101.821 60.1881C102.349 60.1881 102.821 60.3054 103.237 60.5401C103.658 60.7748 104.015 61.0734 104.309 61.4361L104.221 60.4121ZM101.941 66.7401C102.357 66.7401 102.725 66.6361 103.045 66.4281C103.365 66.2201 103.615 65.9401 103.797 65.5881C103.978 65.2308 104.069 64.8388 104.069 64.4121C104.069 63.9801 103.978 63.5881 103.797 63.2361C103.615 62.8788 103.362 62.5961 103.037 62.3881C102.717 62.1801 102.351 62.0761 101.941 62.0761C101.53 62.0761 101.154 62.1828 100.813 62.3961C100.477 62.6041 100.207 62.8841 100.005 63.2361C99.8072 63.5881 99.7085 63.9801 99.7085 64.4121C99.7085 64.8441 99.8098 65.2361 100.013 65.5881C100.215 65.9401 100.485 66.2201 100.821 66.4281C101.162 66.6361 101.535 66.7401 101.941 66.7401ZM107.775 68.4121L107.767 60.4121H109.719L109.727 61.1241C109.999 60.8361 110.324 60.6094 110.703 60.4441C111.081 60.2734 111.489 60.1881 111.927 60.1881C112.22 60.1881 112.513 60.2308 112.807 60.3161L112.039 62.2841C111.836 62.2041 111.633 62.1641 111.431 62.1641C111.116 62.1641 110.828 62.2414 110.567 62.3961C110.311 62.5454 110.105 62.7508 109.951 63.0121C109.801 63.2681 109.727 63.5534 109.727 63.8681V68.4121H107.775ZM116.849 68.6201C116.113 68.6201 115.441 68.4308 114.833 68.0521C114.23 67.6734 113.748 67.1641 113.385 66.5241C113.028 65.8841 112.849 65.1774 112.849 64.4041C112.849 63.8228 112.953 63.2788 113.161 62.7721C113.369 62.2601 113.654 61.8121 114.017 61.4281C114.385 61.0388 114.812 60.7348 115.297 60.5161C115.782 60.2974 116.3 60.1881 116.849 60.1881C117.473 60.1881 118.044 60.3214 118.561 60.5881C119.084 60.8494 119.526 61.2094 119.889 61.6681C120.252 62.1268 120.516 62.6494 120.681 63.2361C120.846 63.8228 120.884 64.4361 120.793 65.0761H114.945C115.02 65.3748 115.142 65.6441 115.313 65.8841C115.484 66.1188 115.7 66.3081 115.961 66.4521C116.222 66.5908 116.518 66.6628 116.849 66.6681C117.19 66.6734 117.5 66.5934 117.777 66.4281C118.06 66.2574 118.294 66.0281 118.481 65.7401L120.473 66.2041C120.148 66.9134 119.662 67.4948 119.017 67.9481C118.372 68.3961 117.649 68.6201 116.849 68.6201ZM114.881 63.6121H118.817C118.758 63.2921 118.633 63.0041 118.441 62.7481C118.254 62.4868 118.022 62.2788 117.745 62.1241C117.468 61.9694 117.169 61.8921 116.849 61.8921C116.529 61.8921 116.233 61.9694 115.961 62.1241C115.689 62.2734 115.457 62.4788 115.265 62.7401C115.078 62.9961 114.95 63.2868 114.881 63.6121Z" fill="#CEC1F1"/>
<path d="M196.778 59.9606C196.458 59.9566 196.158 60.0086 195.878 60.1166C195.602 60.2206 195.376 60.3646 195.2 60.5486C195.024 60.7326 194.936 60.9466 194.936 61.1906C194.936 61.4906 195.018 61.7186 195.182 61.8746C195.346 62.0306 195.566 62.1466 195.842 62.2226C196.122 62.2946 196.434 62.3606 196.778 62.4206C197.33 62.5086 197.84 62.6546 198.308 62.8586C198.78 63.0626 199.158 63.3346 199.442 63.6746C199.73 64.0106 199.874 64.4246 199.874 64.9166C199.874 65.3686 199.754 65.7706 199.514 66.1226C199.274 66.4706 198.952 66.7526 198.548 66.9686C198.148 67.1806 197.706 67.3146 197.222 67.3706V68.5886H196.34V67.3706C195.936 67.3306 195.552 67.2346 195.188 67.0826C194.828 66.9306 194.514 66.7286 194.246 66.4766C193.978 66.2246 193.784 65.9326 193.664 65.6006L194.834 65.1626C194.902 65.3546 195.032 65.5266 195.224 65.6786C195.42 65.8266 195.652 65.9426 195.92 66.0266C196.192 66.1106 196.478 66.1526 196.778 66.1526C197.098 66.1526 197.398 66.1006 197.678 65.9966C197.962 65.8926 198.19 65.7486 198.362 65.5646C198.538 65.3806 198.626 65.1646 198.626 64.9166C198.626 64.6606 198.534 64.4506 198.35 64.2866C198.17 64.1226 197.938 63.9926 197.654 63.8966C197.374 63.8006 197.082 63.7286 196.778 63.6806C196.19 63.5846 195.662 63.4446 195.194 63.2606C194.73 63.0766 194.362 62.8186 194.09 62.4866C193.822 62.1546 193.688 61.7226 193.688 61.1906C193.688 60.7386 193.808 60.3366 194.048 59.9846C194.288 59.6326 194.608 59.3506 195.008 59.1386C195.412 58.9226 195.856 58.7886 196.34 58.7366V57.5006H197.222V58.7366C197.614 58.7766 197.99 58.8726 198.35 59.0246C198.714 59.1766 199.032 59.3786 199.304 59.6306C199.576 59.8786 199.774 60.1746 199.898 60.5186L198.716 60.9446C198.648 60.7486 198.518 60.5786 198.326 60.4346C198.134 60.2866 197.902 60.1706 197.63 60.0866C197.362 60.0026 197.078 59.9606 196.778 59.9606ZM200.859 67.2446V66.1346C201.143 65.8986 201.469 65.6246 201.837 65.3126C202.205 64.9966 202.579 64.6626 202.959 64.3106C203.339 63.9546 203.689 63.6006 204.009 63.2486C204.329 62.8926 204.587 62.5566 204.783 62.2406C204.983 61.9206 205.083 61.6426 205.083 61.4066C205.083 61.1386 205.017 60.8946 204.885 60.6746C204.757 60.4506 204.583 60.2726 204.363 60.1406C204.143 60.0046 203.899 59.9366 203.631 59.9366C203.363 59.9366 203.117 60.0046 202.893 60.1406C202.673 60.2726 202.495 60.4506 202.359 60.6746C202.227 60.8946 202.161 61.1386 202.161 61.4066H200.913C200.913 60.8986 201.037 60.4406 201.285 60.0326C201.537 59.6206 201.867 59.2946 202.275 59.0546C202.687 58.8106 203.139 58.6886 203.631 58.6886C204.127 58.6886 204.579 58.8106 204.987 59.0546C205.395 59.2986 205.721 59.6266 205.965 60.0386C206.209 60.4466 206.331 60.9026 206.331 61.4066C206.331 61.6866 206.273 61.9746 206.157 62.2706C206.041 62.5666 205.879 62.8686 205.671 63.1766C205.467 63.4846 205.229 63.7966 204.957 64.1126C204.685 64.4286 204.393 64.7446 204.081 65.0606C203.769 65.3766 203.451 65.6886 203.127 65.9966H206.403V67.2446H200.859ZM210.828 67.2446V65.0966H207.234V63.8426L210.528 58.8446H212.076V63.8486H212.844V65.0966H212.076V67.2446H210.828ZM208.686 63.8426L210.828 63.8486L210.816 60.5666L208.686 63.8426ZM215.045 67.2446V60.0926H214.043L214.385 58.8446H216.293V67.2446H215.045Z" fill="#CEC1F1"/>
<path d="M221.412 58.8446L218.982 67.9166H217.734L220.164 58.8446H221.412ZM225.489 59.9606C225.169 59.9566 224.869 60.0086 224.589 60.1166C224.313 60.2206 224.087 60.3646 223.911 60.5486C223.735 60.7326 223.647 60.9466 223.647 61.1906C223.647 61.4906 223.729 61.7186 223.893 61.8746C224.057 62.0306 224.277 62.1466 224.553 62.2226C224.833 62.2946 225.145 62.3606 225.489 62.4206C226.041 62.5086 226.551 62.6546 227.019 62.8586C227.491 63.0626 227.869 63.3346 228.153 63.6746C228.441 64.0106 228.585 64.4246 228.585 64.9166C228.585 65.3686 228.465 65.7706 228.225 66.1226C227.985 66.4706 227.663 66.7526 227.259 66.9686C226.859 67.1806 226.417 67.3146 225.933 67.3706V68.5886H225.051V67.3706C224.647 67.3306 224.263 67.2346 223.899 67.0826C223.539 66.9306 223.225 66.7286 222.957 66.4766C222.689 66.2246 222.495 65.9326 222.375 65.6006L223.545 65.1626C223.613 65.3546 223.743 65.5266 223.935 65.6786C224.131 65.8266 224.363 65.9426 224.631 66.0266C224.903 66.1106 225.189 66.1526 225.489 66.1526C225.809 66.1526 226.109 66.1006 226.389 65.9966C226.673 65.8926 226.901 65.7486 227.073 65.5646C227.249 65.3806 227.337 65.1646 227.337 64.9166C227.337 64.6606 227.245 64.4506 227.061 64.2866C226.881 64.1226 226.649 63.9926 226.365 63.8966C226.085 63.8006 225.793 63.7286 225.489 63.6806C224.901 63.5846 224.373 63.4446 223.905 63.2606C223.441 63.0766 223.073 62.8186 222.801 62.4866C222.533 62.1546 222.399 61.7226 222.399 61.1906C222.399 60.7386 222.519 60.3366 222.759 59.9846C222.999 59.6326 223.319 59.3506 223.719 59.1386C224.123 58.9226 224.567 58.7886 225.051 58.7366V57.5006H225.933V58.7366C226.325 58.7766 226.701 58.8726 227.061 59.0246C227.425 59.1766 227.743 59.3786 228.015 59.6306C228.287 59.8786 228.485 60.1746 228.609 60.5186L227.427 60.9446C227.359 60.7486 227.229 60.5786 227.037 60.4346C226.845 60.2866 226.613 60.1706 226.341 60.0866C226.073 60.0026 225.789 59.9606 225.489 59.9606ZM229.57 67.2446V66.1346C229.854 65.8986 230.18 65.6246 230.548 65.3126C230.916 64.9966 231.29 64.6626 231.67 64.3106C232.05 63.9546 232.4 63.6006 232.72 63.2486C233.04 62.8926 233.298 62.5566 233.494 62.2406C233.694 61.9206 233.794 61.6426 233.794 61.4066C233.794 61.1386 233.728 60.8946 233.596 60.6746C233.468 60.4506 233.294 60.2726 233.074 60.1406C232.854 60.0046 232.61 59.9366 232.342 59.9366C232.074 59.9366 231.828 60.0046 231.604 60.1406C231.384 60.2726 231.206 60.4506 231.07 60.6746C230.938 60.8946 230.872 61.1386 230.872 61.4066H229.624C229.624 60.8986 229.748 60.4406 229.996 60.0326C230.248 59.6206 230.578 59.2946 230.986 59.0546C231.398 58.8106 231.85 58.6886 232.342 58.6886C232.838 58.6886 233.29 58.8106 233.698 59.0546C234.106 59.2986 234.432 59.6266 234.676 60.0386C234.92 60.4466 235.042 60.9026 235.042 61.4066C235.042 61.6866 234.984 61.9746 234.868 62.2706C234.752 62.5666 234.59 62.8686 234.382 63.1766C234.178 63.4846 233.94 63.7966 233.668 64.1126C233.396 64.4286 233.104 64.7446 232.792 65.0606C232.48 65.3766 232.162 65.6886 231.838 65.9966H235.114V67.2446H229.57ZM239.086 67.4006C238.554 67.4006 238.072 67.2726 237.64 67.0166C237.212 66.7566 236.872 66.4126 236.62 65.9846C236.372 65.5526 236.248 65.0806 236.248 64.5686H237.496C237.496 64.8606 237.568 65.1266 237.712 65.3666C237.856 65.6066 238.048 65.7986 238.288 65.9426C238.528 66.0826 238.794 66.1526 239.086 66.1526C239.374 66.1526 239.638 66.0826 239.878 65.9426C240.118 65.7986 240.31 65.6066 240.454 65.3666C240.598 65.1266 240.67 64.8606 240.67 64.5686C240.67 64.2766 240.604 64.0106 240.472 63.7706C240.34 63.5266 240.142 63.3326 239.878 63.1886C239.614 63.0406 239.278 62.9666 238.87 62.9666H236.752L237.604 58.8446H241.666V60.0926H238.618L238.288 61.7186L239.014 61.7306C239.586 61.7426 240.088 61.8746 240.52 62.1266C240.956 62.3746 241.298 62.7106 241.546 63.1346C241.794 63.5546 241.918 64.0326 241.918 64.5686C241.918 64.9566 241.844 65.3226 241.696 65.6666C241.548 66.0066 241.344 66.3066 241.084 66.5666C240.828 66.8266 240.528 67.0306 240.184 67.1786C239.844 67.3266 239.478 67.4006 239.086 67.4006ZM245.891 67.4006C245.395 67.4006 244.947 67.2886 244.547 67.0646C244.151 66.8366 243.809 66.5226 243.521 66.1226C243.233 65.7226 243.013 65.2606 242.861 64.7366C242.709 64.2086 242.633 63.6446 242.633 63.0446C242.633 62.4446 242.709 61.8806 242.861 61.3526C243.013 60.8246 243.233 60.3626 243.521 59.9666C243.809 59.5666 244.151 59.2546 244.547 59.0306C244.947 58.8026 245.395 58.6886 245.891 58.6886C246.379 58.6886 246.823 58.8026 247.223 59.0306C247.623 59.2546 247.963 59.5666 248.243 59.9666C248.527 60.3626 248.745 60.8246 248.897 61.3526C249.049 61.8806 249.125 62.4446 249.125 63.0446C249.125 63.6446 249.049 64.2086 248.897 64.7366C248.745 65.2606 248.527 65.7226 248.243 66.1226C247.963 66.5226 247.623 66.8366 247.223 67.0646C246.823 67.2886 246.379 67.4006 245.891 67.4006ZM245.891 66.1526C246.351 66.1526 246.733 66.0086 247.037 65.7206C247.345 65.4286 247.575 65.0466 247.727 64.5746C247.879 64.1026 247.955 63.5926 247.955 63.0446C247.955 62.4686 247.875 61.9466 247.715 61.4786C247.559 61.0066 247.327 60.6326 247.019 60.3566C246.715 60.0766 246.339 59.9366 245.891 59.9366C245.535 59.9366 245.225 60.0206 244.961 60.1886C244.701 60.3566 244.485 60.5866 244.313 60.8786C244.145 61.1706 244.017 61.5026 243.929 61.8746C243.845 62.2466 243.803 62.6366 243.803 63.0446C243.803 63.5926 243.881 64.1026 244.037 64.5746C244.193 65.0466 244.425 65.4286 244.733 65.7206C245.045 66.0086 245.431 66.1526 245.891 66.1526Z" fill="#CEC1F1" fill-opacity="0.7"/>
<rect x="53.6973" y="79.5586" width="196.696" height="4.99583" rx="2.49792" fill="#31425C"/>
<rect x="53.8906" y="79.5586" width="177.352" height="4.99583" rx="2.49792" fill="url(#paint4_linear_174_841)"/>
<g filter="url(#filter2_f_174_841)">
<circle cx="254.271" cy="51.4362" r="75.6989" fill="#19C8A7" fill-opacity="0.15"/>
</g>
<g filter="url(#filter3_bi_174_841)">
<rect x="10.5977" y="5.62549" width="33.3056" height="32.286" rx="16.143" fill="url(#paint5_linear_174_841)" fill-opacity="0.2"/>
</g>
<g filter="url(#filter4_i_174_841)">
<path d="M32.0098 13.2043H21.5098C20.0573 13.2043 18.8848 14.3681 18.8848 15.8031V25.3493C18.8848 26.7843 20.0573 27.9481 21.5098 27.9481H22.1748C22.8748 27.9481 23.5398 28.2193 24.0298 28.7093L25.526 30.1881C26.2085 30.8618 27.3198 30.8618 28.0023 30.1881L29.4985 28.7093C29.9885 28.2193 30.6623 27.9481 31.3535 27.9481H32.0098C33.4623 27.9481 34.6348 26.7843 34.6348 25.3493V15.8031C34.6348 14.3681 33.4623 13.2043 32.0098 13.2043ZM26.7598 16.4856C27.8885 16.4856 28.7985 17.3956 28.7985 18.5243C28.7985 19.6531 27.8885 20.5631 26.7598 20.5631C25.631 20.5631 24.721 19.6443 24.721 18.5243C24.721 17.3956 25.631 16.4856 26.7598 16.4856ZM29.1048 24.6318H24.4148C23.706 24.6318 23.2948 23.8443 23.6885 23.2581C24.2835 22.3743 25.4385 21.7793 26.7598 21.7793C28.081 21.7793 29.236 22.3743 29.831 23.2581C30.2248 23.8443 29.8048 24.6318 29.1048 24.6318Z" fill="url(#paint6_linear_174_841)"/>
</g>
<path d="M55.704 10.8H57.952L62.024 22H59.952L59.232 20.016H54.432L53.712 22H51.64L55.704 10.8ZM55.144 18.064H58.512L56.824 13.448L55.144 18.064ZM67.7794 19.592L69.5394 20.544C69.1714 21.0453 68.71 21.448 68.1554 21.752C67.6007 22.056 66.9954 22.208 66.3394 22.208C65.6034 22.208 64.9314 22.0187 64.3234 21.64C63.7207 21.2613 63.238 20.7547 62.8754 20.12C62.518 19.48 62.3394 18.7733 62.3394 18C62.3394 17.4133 62.4434 16.8667 62.6514 16.36C62.8594 15.848 63.1447 15.4 63.5074 15.016C63.8754 14.6267 64.302 14.3227 64.7874 14.104C65.2727 13.8853 65.79 13.776 66.3394 13.776C66.9954 13.776 67.6007 13.928 68.1554 14.232C68.71 14.536 69.1714 14.944 69.5394 15.456L67.7794 16.4C67.5927 16.1867 67.3714 16.0213 67.1154 15.904C66.8647 15.7867 66.606 15.728 66.3394 15.728C65.9554 15.728 65.6087 15.8347 65.2994 16.048C64.99 16.256 64.7447 16.5333 64.5634 16.88C64.382 17.2213 64.2914 17.5947 64.2914 18C64.2914 18.4 64.382 18.7733 64.5634 19.12C64.7447 19.4613 64.99 19.736 65.2994 19.944C65.6087 20.152 65.9554 20.256 66.3394 20.256C66.6167 20.256 66.8807 20.1973 67.1314 20.08C67.382 19.9573 67.598 19.7947 67.7794 19.592ZM75.6856 19.592L77.4456 20.544C77.0776 21.0453 76.6163 21.448 76.0616 21.752C75.507 22.056 74.9016 22.208 74.2456 22.208C73.5096 22.208 72.8376 22.0187 72.2296 21.64C71.627 21.2613 71.1443 20.7547 70.7816 20.12C70.4243 19.48 70.2456 18.7733 70.2456 18C70.2456 17.4133 70.3496 16.8667 70.5576 16.36C70.7656 15.848 71.051 15.4 71.4136 15.016C71.7816 14.6267 72.2083 14.3227 72.6936 14.104C73.179 13.8853 73.6963 13.776 74.2456 13.776C74.9016 13.776 75.507 13.928 76.0616 14.232C76.6163 14.536 77.0776 14.944 77.4456 15.456L75.6856 16.4C75.499 16.1867 75.2776 16.0213 75.0216 15.904C74.771 15.7867 74.5123 15.728 74.2456 15.728C73.8616 15.728 73.515 15.8347 73.2056 16.048C72.8963 16.256 72.651 16.5333 72.4696 16.88C72.2883 17.2213 72.1976 17.5947 72.1976 18C72.1976 18.4 72.2883 18.7733 72.4696 19.12C72.651 19.4613 72.8963 19.736 73.2056 19.944C73.515 20.152 73.8616 20.256 74.2456 20.256C74.523 20.256 74.787 20.1973 75.0376 20.08C75.2883 19.9573 75.5043 19.7947 75.6856 19.592ZM82.1519 22.208C81.4159 22.208 80.7439 22.0187 80.1359 21.64C79.5332 21.2613 79.0505 20.7547 78.6879 20.12C78.3305 19.48 78.1519 18.7733 78.1519 18C78.1519 17.4133 78.2559 16.8667 78.4639 16.36C78.6719 15.848 78.9572 15.4 79.3199 15.016C79.6879 14.6267 80.1145 14.3227 80.5999 14.104C81.0852 13.8853 81.6025 13.776 82.1519 13.776C82.8879 13.776 83.5572 13.9653 84.1599 14.344C84.7679 14.7227 85.2505 15.232 85.6079 15.872C85.9705 16.512 86.1519 17.2213 86.1519 18C86.1519 18.5813 86.0479 19.1253 85.8399 19.632C85.6319 20.1387 85.3439 20.5867 84.9759 20.976C84.6132 21.36 84.1892 21.6613 83.7039 21.88C83.2239 22.0987 82.7065 22.208 82.1519 22.208ZM82.1519 20.256C82.5412 20.256 82.8905 20.152 83.1999 19.944C83.5092 19.736 83.7519 19.4613 83.9279 19.12C84.1092 18.7787 84.1999 18.4053 84.1999 18C84.1999 17.584 84.1065 17.2053 83.9199 16.864C83.7385 16.5173 83.4905 16.2427 83.1759 16.04C82.8665 15.832 82.5252 15.728 82.1519 15.728C81.7679 15.728 81.4212 15.832 81.1119 16.04C80.8025 16.248 80.5572 16.5253 80.3759 16.872C80.1945 17.2187 80.1039 17.5947 80.1039 18C80.1039 18.4213 80.1972 18.8027 80.3839 19.144C80.5705 19.4853 80.8185 19.7573 81.1279 19.96C81.4425 20.1573 81.7839 20.256 82.1519 20.256ZM86.9056 19.04V14H88.8576V18.528C88.8576 18.8427 88.935 19.1307 89.0896 19.392C89.2443 19.648 89.4496 19.8533 89.7056 20.008C89.967 20.1573 90.2523 20.232 90.5616 20.232C90.8816 20.232 91.1696 20.1573 91.4256 20.008C91.6816 19.8533 91.887 19.648 92.0416 19.392C92.1963 19.1307 92.2736 18.8427 92.2736 18.528V14H94.2256L94.2336 22H92.2816L92.2736 21.272C91.9963 21.56 91.6683 21.7893 91.2896 21.96C90.911 22.1253 90.5056 22.208 90.0736 22.208C89.4923 22.208 88.9616 22.0667 88.4816 21.784C88.0016 21.496 87.6176 21.1147 87.3296 20.64C87.047 20.16 86.9056 19.6267 86.9056 19.04ZM103.163 16.944V22H101.211V17.456C101.211 17.1413 101.134 16.856 100.979 16.6C100.824 16.3387 100.616 16.1333 100.355 15.984C100.099 15.8293 99.8137 15.752 99.499 15.752C99.1843 15.752 98.8963 15.8293 98.635 15.984C98.379 16.1333 98.1737 16.3387 98.019 16.6C97.8697 16.856 97.795 17.1413 97.795 17.456V22H95.843L95.835 14H97.787L97.795 14.712C98.067 14.424 98.3923 14.1973 98.771 14.032C99.1497 13.8613 99.5577 13.776 99.995 13.776C100.576 13.776 101.107 13.92 101.587 14.208C102.067 14.4907 102.448 14.872 102.731 15.352C103.019 15.8267 103.163 16.3573 103.163 16.944ZM109.045 15.952H107.493V22H105.541V15.952H104.357V14H105.541V11.488H107.493V14H109.045V15.952Z" fill="#CEC1F1"/>
<path d="M198.877 15.716C198.557 15.712 198.257 15.764 197.977 15.872C197.701 15.976 197.475 16.12 197.299 16.304C197.123 16.488 197.035 16.702 197.035 16.946C197.035 17.246 197.117 17.474 197.281 17.63C197.445 17.786 197.665 17.902 197.941 17.978C198.221 18.05 198.533 18.116 198.877 18.176C199.429 18.264 199.939 18.41 200.407 18.614C200.879 18.818 201.257 19.09 201.541 19.43C201.829 19.766 201.973 20.18 201.973 20.672C201.973 21.124 201.853 21.526 201.613 21.878C201.373 22.226 201.051 22.508 200.647 22.724C200.247 22.936 199.805 23.07 199.321 23.126V24.344H198.439V23.126C198.035 23.086 197.651 22.99 197.287 22.838C196.927 22.686 196.613 22.484 196.345 22.232C196.077 21.98 195.883 21.688 195.763 21.356L196.933 20.918C197.001 21.11 197.131 21.282 197.323 21.434C197.519 21.582 197.751 21.698 198.019 21.782C198.291 21.866 198.577 21.908 198.877 21.908C199.197 21.908 199.497 21.856 199.777 21.752C200.061 21.648 200.289 21.504 200.461 21.32C200.637 21.136 200.725 20.92 200.725 20.672C200.725 20.416 200.633 20.206 200.449 20.042C200.269 19.878 200.037 19.748 199.753 19.652C199.473 19.556 199.181 19.484 198.877 19.436C198.289 19.34 197.761 19.2 197.293 19.016C196.829 18.832 196.461 18.574 196.189 18.242C195.921 17.91 195.787 17.478 195.787 16.946C195.787 16.494 195.907 16.092 196.147 15.74C196.387 15.388 196.707 15.106 197.107 14.894C197.511 14.678 197.955 14.544 198.439 14.492V13.256H199.321V14.492C199.713 14.532 200.089 14.628 200.449 14.78C200.813 14.932 201.131 15.134 201.403 15.386C201.675 15.634 201.873 15.93 201.997 16.274L200.815 16.7C200.747 16.504 200.617 16.334 200.425 16.19C200.233 16.042 200.001 15.926 199.729 15.842C199.461 15.758 199.177 15.716 198.877 15.716ZM205.503 23.156C204.995 23.156 204.539 23.038 204.135 22.802C203.735 22.566 203.419 22.25 203.187 21.854C202.955 21.458 202.839 21.018 202.839 20.534H204.087C204.087 20.786 204.147 21.016 204.267 21.224C204.387 21.432 204.553 21.598 204.765 21.722C204.977 21.846 205.223 21.908 205.503 21.908C205.755 21.908 205.989 21.846 206.205 21.722C206.421 21.598 206.595 21.432 206.727 21.224C206.859 21.016 206.925 20.786 206.925 20.534C206.925 20.214 206.841 19.946 206.673 19.73C206.505 19.514 206.271 19.354 205.971 19.25C205.675 19.142 205.333 19.088 204.945 19.088V18.104C205.473 18.104 205.895 18 206.211 17.792C206.527 17.584 206.685 17.274 206.685 16.862C206.685 16.646 206.627 16.45 206.511 16.274C206.399 16.094 206.249 15.952 206.061 15.848C205.877 15.74 205.679 15.686 205.467 15.686C205.247 15.686 205.035 15.74 204.831 15.848C204.631 15.952 204.467 16.094 204.339 16.274C204.211 16.45 204.147 16.646 204.147 16.862H202.899C202.899 16.53 202.967 16.218 203.103 15.926C203.243 15.63 203.431 15.372 203.667 15.152C203.907 14.928 204.179 14.754 204.483 14.63C204.791 14.502 205.113 14.438 205.449 14.438C205.889 14.438 206.297 14.548 206.673 14.768C207.053 14.984 207.357 15.276 207.585 15.644C207.817 16.008 207.933 16.414 207.933 16.862C207.933 17.218 207.845 17.556 207.669 17.876C207.497 18.192 207.257 18.416 206.949 18.548C207.217 18.644 207.441 18.796 207.621 19.004C207.805 19.208 207.943 19.444 208.035 19.712C208.127 19.976 208.173 20.25 208.173 20.534C208.173 21.014 208.051 21.454 207.807 21.854C207.563 22.25 207.237 22.566 206.829 22.802C206.425 23.038 205.983 23.156 205.503 23.156ZM209.017 23.672L209.389 21.644H210.637L209.845 23.672H209.017ZM211.841 23V21.89C212.125 21.654 212.451 21.38 212.819 21.068C213.187 20.752 213.561 20.418 213.941 20.066C214.321 19.71 214.671 19.356 214.991 19.004C215.311 18.648 215.569 18.312 215.765 17.996C215.965 17.676 216.065 17.398 216.065 17.162C216.065 16.894 215.999 16.65 215.867 16.43C215.739 16.206 215.565 16.028 215.345 15.896C215.125 15.76 214.881 15.692 214.613 15.692C214.345 15.692 214.099 15.76 213.875 15.896C213.655 16.028 213.477 16.206 213.341 16.43C213.209 16.65 213.143 16.894 213.143 17.162H211.895C211.895 16.654 212.019 16.196 212.267 15.788C212.519 15.376 212.849 15.05 213.257 14.81C213.669 14.566 214.121 14.444 214.613 14.444C215.109 14.444 215.561 14.566 215.969 14.81C216.377 15.054 216.703 15.382 216.947 15.794C217.191 16.202 217.313 16.658 217.313 17.162C217.313 17.442 217.255 17.73 217.139 18.026C217.023 18.322 216.861 18.624 216.653 18.932C216.449 19.24 216.211 19.552 215.939 19.868C215.667 20.184 215.375 20.5 215.063 20.816C214.751 21.132 214.433 21.444 214.109 21.752H217.385V23H211.841ZM221.81 23V20.852H218.216V19.598L221.51 14.6H223.058V19.604H223.826V20.852H223.058V23H221.81ZM219.668 19.598L221.81 19.604L221.798 16.322L219.668 19.598ZM226.027 23V15.848H225.025L225.367 14.6H227.275V23H226.027Z" fill="#CEC1F1"/>
<path d="M232.394 14.6L229.964 23.672H228.716L231.146 14.6H232.394ZM236.471 15.716C236.151 15.712 235.851 15.764 235.571 15.872C235.295 15.976 235.069 16.12 234.893 16.304C234.717 16.488 234.629 16.702 234.629 16.946C234.629 17.246 234.711 17.474 234.875 17.63C235.039 17.786 235.259 17.902 235.535 17.978C235.815 18.05 236.127 18.116 236.471 18.176C237.023 18.264 237.533 18.41 238.001 18.614C238.473 18.818 238.851 19.09 239.135 19.43C239.423 19.766 239.567 20.18 239.567 20.672C239.567 21.124 239.447 21.526 239.207 21.878C238.967 22.226 238.645 22.508 238.241 22.724C237.841 22.936 237.399 23.07 236.915 23.126V24.344H236.033V23.126C235.629 23.086 235.245 22.99 234.881 22.838C234.521 22.686 234.207 22.484 233.939 22.232C233.671 21.98 233.477 21.688 233.357 21.356L234.527 20.918C234.595 21.11 234.725 21.282 234.917 21.434C235.113 21.582 235.345 21.698 235.613 21.782C235.885 21.866 236.171 21.908 236.471 21.908C236.791 21.908 237.091 21.856 237.371 21.752C237.655 21.648 237.883 21.504 238.055 21.32C238.231 21.136 238.319 20.92 238.319 20.672C238.319 20.416 238.227 20.206 238.043 20.042C237.863 19.878 237.631 19.748 237.347 19.652C237.067 19.556 236.775 19.484 236.471 19.436C235.883 19.34 235.355 19.2 234.887 19.016C234.423 18.832 234.055 18.574 233.783 18.242C233.515 17.91 233.381 17.478 233.381 16.946C233.381 16.494 233.501 16.092 233.741 15.74C233.981 15.388 234.301 15.106 234.701 14.894C235.105 14.678 235.549 14.544 236.033 14.492V13.256H236.915V14.492C237.307 14.532 237.683 14.628 238.043 14.78C238.407 14.932 238.725 15.134 238.997 15.386C239.269 15.634 239.467 15.93 239.591 16.274L238.409 16.7C238.341 16.504 238.211 16.334 238.019 16.19C237.827 16.042 237.595 15.926 237.323 15.842C237.055 15.758 236.771 15.716 236.471 15.716ZM241.554 23V15.848H240.552L240.894 14.6H242.802V23H241.554ZM247.382 23.156C246.886 23.156 246.438 23.044 246.038 22.82C245.642 22.592 245.3 22.278 245.012 21.878C244.724 21.478 244.504 21.016 244.352 20.492C244.2 19.964 244.124 19.4 244.124 18.8C244.124 18.2 244.2 17.636 244.352 17.108C244.504 16.58 244.724 16.118 245.012 15.722C245.3 15.322 245.642 15.01 246.038 14.786C246.438 14.558 246.886 14.444 247.382 14.444C247.87 14.444 248.314 14.558 248.714 14.786C249.114 15.01 249.454 15.322 249.734 15.722C250.018 16.118 250.236 16.58 250.388 17.108C250.54 17.636 250.616 18.2 250.616 18.8C250.616 19.4 250.54 19.964 250.388 20.492C250.236 21.016 250.018 21.478 249.734 21.878C249.454 22.278 249.114 22.592 248.714 22.82C248.314 23.044 247.87 23.156 247.382 23.156ZM247.382 21.908C247.842 21.908 248.224 21.764 248.528 21.476C248.836 21.184 249.066 20.802 249.218 20.33C249.37 19.858 249.446 19.348 249.446 18.8C249.446 18.224 249.366 17.702 249.206 17.234C249.05 16.762 248.818 16.388 248.51 16.112C248.206 15.832 247.83 15.692 247.382 15.692C247.026 15.692 246.716 15.776 246.452 15.944C246.192 16.112 245.976 16.342 245.804 16.634C245.636 16.926 245.508 17.258 245.42 17.63C245.336 18.002 245.294 18.392 245.294 18.8C245.294 19.348 245.372 19.858 245.528 20.33C245.684 20.802 245.916 21.184 246.224 21.476C246.536 21.764 246.922 21.908 247.382 21.908ZM251.451 23.672L251.823 21.644H253.071L252.279 23.672H251.451ZM257.413 23.156C256.917 23.156 256.469 23.044 256.069 22.82C255.673 22.592 255.331 22.278 255.043 21.878C254.755 21.478 254.535 21.016 254.383 20.492C254.231 19.964 254.155 19.4 254.155 18.8C254.155 18.2 254.231 17.636 254.383 17.108C254.535 16.58 254.755 16.118 255.043 15.722C255.331 15.322 255.673 15.01 256.069 14.786C256.469 14.558 256.917 14.444 257.413 14.444C257.901 14.444 258.345 14.558 258.745 14.786C259.145 15.01 259.485 15.322 259.765 15.722C260.049 16.118 260.267 16.58 260.419 17.108C260.571 17.636 260.647 18.2 260.647 18.8C260.647 19.4 260.571 19.964 260.419 20.492C260.267 21.016 260.049 21.478 259.765 21.878C259.485 22.278 259.145 22.592 258.745 22.82C258.345 23.044 257.901 23.156 257.413 23.156ZM257.413 21.908C257.873 21.908 258.255 21.764 258.559 21.476C258.867 21.184 259.097 20.802 259.249 20.33C259.401 19.858 259.477 19.348 259.477 18.8C259.477 18.224 259.397 17.702 259.237 17.234C259.081 16.762 258.849 16.388 258.541 16.112C258.237 15.832 257.861 15.692 257.413 15.692C257.057 15.692 256.747 15.776 256.483 15.944C256.223 16.112 256.007 16.342 255.835 16.634C255.667 16.926 255.539 17.258 255.451 17.63C255.367 18.002 255.325 18.392 255.325 18.8C255.325 19.348 255.403 19.858 255.559 20.33C255.715 20.802 255.947 21.184 256.255 21.476C256.567 21.764 256.953 21.908 257.413 21.908ZM264.397 23.156C263.901 23.156 263.453 23.044 263.053 22.82C262.657 22.592 262.315 22.278 262.027 21.878C261.739 21.478 261.519 21.016 261.367 20.492C261.215 19.964 261.139 19.4 261.139 18.8C261.139 18.2 261.215 17.636 261.367 17.108C261.519 16.58 261.739 16.118 262.027 15.722C262.315 15.322 262.657 15.01 263.053 14.786C263.453 14.558 263.901 14.444 264.397 14.444C264.885 14.444 265.329 14.558 265.729 14.786C266.129 15.01 266.469 15.322 266.749 15.722C267.033 16.118 267.251 16.58 267.403 17.108C267.555 17.636 267.631 18.2 267.631 18.8C267.631 19.4 267.555 19.964 267.403 20.492C267.251 21.016 267.033 21.478 266.749 21.878C266.469 22.278 266.129 22.592 265.729 22.82C265.329 23.044 264.885 23.156 264.397 23.156ZM264.397 21.908C264.857 21.908 265.239 21.764 265.543 21.476C265.851 21.184 266.081 20.802 266.233 20.33C266.385 19.858 266.461 19.348 266.461 18.8C266.461 18.224 266.381 17.702 266.221 17.234C266.065 16.762 265.833 16.388 265.525 16.112C265.221 15.832 264.845 15.692 264.397 15.692C264.041 15.692 263.731 15.776 263.467 15.944C263.207 16.112 262.991 16.342 262.819 16.634C262.651 16.926 262.523 17.258 262.435 17.63C262.351 18.002 262.309 18.392 262.309 18.8C262.309 19.348 262.387 19.858 262.543 20.33C262.699 20.802 262.931 21.184 263.239 21.476C263.551 21.764 263.937 21.908 264.397 21.908ZM271.382 23.156C270.886 23.156 270.438 23.044 270.038 22.82C269.642 22.592 269.3 22.278 269.012 21.878C268.724 21.478 268.504 21.016 268.352 20.492C268.2 19.964 268.124 19.4 268.124 18.8C268.124 18.2 268.2 17.636 268.352 17.108C268.504 16.58 268.724 16.118 269.012 15.722C269.3 15.322 269.642 15.01 270.038 14.786C270.438 14.558 270.886 14.444 271.382 14.444C271.87 14.444 272.314 14.558 272.714 14.786C273.114 15.01 273.454 15.322 273.734 15.722C274.018 16.118 274.236 16.58 274.388 17.108C274.54 17.636 274.616 18.2 274.616 18.8C274.616 19.4 274.54 19.964 274.388 20.492C274.236 21.016 274.018 21.478 273.734 21.878C273.454 22.278 273.114 22.592 272.714 22.82C272.314 23.044 271.87 23.156 271.382 23.156ZM271.382 21.908C271.842 21.908 272.224 21.764 272.528 21.476C272.836 21.184 273.066 20.802 273.218 20.33C273.37 19.858 273.446 19.348 273.446 18.8C273.446 18.224 273.366 17.702 273.206 17.234C273.05 16.762 272.818 16.388 272.51 16.112C272.206 15.832 271.83 15.692 271.382 15.692C271.026 15.692 270.716 15.776 270.452 15.944C270.192 16.112 269.976 16.342 269.804 16.634C269.636 16.926 269.508 17.258 269.42 17.63C269.336 18.002 269.294 18.392 269.294 18.8C269.294 19.348 269.372 19.858 269.528 20.33C269.684 20.802 269.916 21.184 270.224 21.476C270.536 21.764 270.922 21.908 271.382 21.908Z" fill="#CEC1F1" fill-opacity="0.5"/>
<rect x="54.6973" y="30.27" width="196.696" height="4.99583" rx="0.832639" fill="#CEC1F1" fill-opacity="0.1"/>
<rect x="54.8906" y="30.27" width="84.0965" height="4.99583" rx="2.49792" fill="url(#paint7_linear_174_841)"/>
<rect x="6" y="99" width="214.821" height="95.7535" rx="12.7323" fill="url(#paint8_linear_174_841)"/>
<path opacity="0.7" d="M97.7812 126.653H96.5508V116.789H97.7812V126.653ZM99.5107 126.653V119.543H100.632V120.678H100.659C101.056 119.913 101.814 119.42 102.915 119.42C104.474 119.42 105.376 120.425 105.376 122.039V126.653H104.187V122.25C104.187 121.102 103.646 120.473 102.553 120.473C101.432 120.473 100.7 121.266 100.7 122.469V126.653H99.5107ZM112.8 121.875H111.638C111.467 121.102 110.865 120.466 109.819 120.466C108.589 120.466 107.755 121.485 107.755 123.098C107.755 124.752 108.603 125.73 109.833 125.73C110.804 125.73 111.439 125.217 111.645 124.363H112.813C112.629 125.778 111.439 126.776 109.826 126.776C107.857 126.776 106.545 125.388 106.545 123.098C106.545 120.856 107.851 119.42 109.812 119.42C111.59 119.42 112.649 120.596 112.8 121.875ZM116.854 126.776C114.885 126.776 113.559 125.361 113.559 123.098C113.559 120.829 114.885 119.42 116.854 119.42C118.815 119.42 120.142 120.829 120.142 123.098C120.142 125.361 118.815 126.776 116.854 126.776ZM116.854 125.73C118.111 125.73 118.932 124.773 118.932 123.098C118.932 121.423 118.111 120.466 116.854 120.466C115.596 120.466 114.769 121.423 114.769 123.098C114.769 124.773 115.596 125.73 116.854 125.73ZM121.345 126.653V119.543H122.466V120.678H122.493C122.828 119.926 123.553 119.42 124.51 119.42C125.48 119.42 126.198 119.913 126.506 120.774H126.533C126.93 119.926 127.764 119.42 128.762 119.42C130.17 119.42 131.079 120.336 131.079 121.745V126.653H129.89V122.018C129.89 121.047 129.35 120.473 128.413 120.473C127.47 120.473 126.807 121.17 126.807 122.134V126.653H125.617V121.888C125.617 121.034 125.043 120.473 124.161 120.473C123.218 120.473 122.534 121.211 122.534 122.196V126.653H121.345ZM135.447 120.453C134.333 120.453 133.554 121.307 133.479 122.49H137.341C137.313 121.3 136.568 120.453 135.447 120.453ZM137.313 124.616H138.482C138.277 125.86 137.074 126.776 135.522 126.776C133.485 126.776 132.248 125.361 132.248 123.125C132.248 120.917 133.506 119.42 135.468 119.42C137.389 119.42 138.571 120.815 138.571 122.968V123.419H133.472V123.488C133.472 124.848 134.271 125.744 135.55 125.744C136.452 125.744 137.115 125.286 137.313 124.616Z" fill="#CEC1F1"/>
<path d="M102.234 161.582H100.4V159.916C96.3146 159.682 93.8297 157.627 93.8167 154.439H97.5375C97.6286 155.792 98.7475 156.781 100.4 156.963V151.889L99.0207 151.564C95.8853 150.835 94.207 149.027 94.207 146.321C94.207 143.134 96.4967 141.078 100.4 140.766V138.983H102.234V140.779C105.877 141.104 108.219 143.238 108.271 146.23H104.654C104.615 144.994 103.626 143.979 102.234 143.784V148.637L103.626 148.91C106.957 149.639 108.622 151.369 108.622 154.192C108.622 157.497 106.319 159.552 102.234 159.903V161.582ZM104.94 154.608C104.94 153.346 104.082 152.579 102.234 152.214V156.976C103.938 156.872 104.94 155.987 104.94 154.608ZM97.9669 145.996C97.9669 147.141 98.8125 147.921 100.4 148.259V143.771C98.9817 143.849 97.9669 144.76 97.9669 145.996ZM120.123 159.799V156.456H110.782V153.112C112.421 149.99 114.464 146.698 118.314 141.026H123.857V153.307H126.303V156.456H123.857V159.799H120.123ZM114.229 153.32V153.424H120.201V143.81H120.123C117.391 147.817 115.752 150.38 114.229 153.32ZM133.016 159.799V144.63H132.938L128.15 147.934V144.395L133.003 141.026H136.906V159.799H133.016ZM143.489 163.91H140.64L141.615 156.573H145.232L143.489 163.91ZM147.977 146.672C147.977 143.121 150.813 140.61 154.912 140.61C158.867 140.61 161.586 142.899 161.586 146.035C161.586 148.377 160.024 150.133 157.956 152.188L153.376 156.599V156.677H161.846V159.799H148.198V157.158L155.276 150.341C157.175 148.442 157.761 147.492 157.761 146.191C157.761 144.786 156.525 143.667 154.781 143.667C152.96 143.667 151.62 144.942 151.62 146.672V146.737H147.977V146.672ZM168.975 159.799V144.63H168.897L164.11 147.934V144.395L168.962 141.026H172.865V159.799H168.975ZM184.431 160.216C179.709 160.216 176.833 156.456 176.833 150.38C176.833 144.317 179.735 140.597 184.431 140.597C189.128 140.597 192.016 144.304 192.016 150.367C192.016 156.43 189.154 160.216 184.431 160.216ZM184.431 157.067C186.669 157.067 188.022 154.66 188.022 150.38C188.022 146.139 186.656 143.745 184.431 143.745C182.22 143.745 180.827 146.152 180.827 150.38C180.827 154.647 182.193 157.067 184.431 157.067Z" fill="#CEC1F1"/>
<g filter="url(#filter5_bi_174_841)">
<rect x="22.6523" y="116" width="47.2762" height="47.2762" rx="23.6381" fill="url(#paint9_linear_174_841)" fill-opacity="0.2"/>
</g>
<g filter="url(#filter6_i_174_841)">
<path d="M46.231 129.252L43.7751 134.969H41.3192C40.9116 134.969 40.5142 135 40.127 135.081L41.146 132.636L41.1868 132.544L41.2479 132.381C41.2785 132.309 41.2988 132.248 41.3294 132.197C42.5115 129.456 43.8363 128.6 46.231 129.252Z" fill="url(#paint10_linear_174_841)"/>
<path d="M53.1511 135.244L53.1308 135.234C52.5193 135.06 51.8977 134.969 51.2659 134.969H44.8867L47.1796 129.639L47.2101 129.568C47.3528 129.619 47.5057 129.69 47.6585 129.741L49.9106 130.689C51.164 131.209 52.0404 131.749 52.5805 132.401C52.6722 132.523 52.7537 132.635 52.8352 132.768C52.9269 132.91 52.9983 133.053 53.039 133.206C53.0798 133.298 53.1104 133.379 53.1308 133.471C53.2836 133.991 53.2938 134.582 53.1511 135.244Z" fill="url(#paint11_linear_174_841)"/>
<path d="M46.8203 144.996H47.0751C47.3808 144.996 47.6355 144.721 47.6355 144.385C47.6355 143.957 47.5133 143.896 47.2483 143.794L46.8203 143.641V144.996Z" fill="url(#paint12_linear_174_841)"/>
<path d="M52.7013 136.701C52.2427 136.569 51.7638 136.498 51.2645 136.498H41.3186C40.6257 136.498 39.9735 136.63 39.3621 136.895C37.5889 137.659 36.3457 139.422 36.3457 141.47V143.458C36.3457 143.702 36.3661 143.937 36.3967 144.181C36.6208 147.422 38.3532 149.154 41.5938 149.368C41.8281 149.399 42.0625 149.419 42.3173 149.419H50.2658C54.0362 149.419 56.0234 147.625 56.217 144.059C56.2272 143.865 56.2374 143.661 56.2374 143.458V141.47C56.2374 139.218 54.7394 137.323 52.7013 136.701ZM47.5959 142.795C48.0647 142.958 48.6965 143.305 48.6965 144.385C48.6965 145.312 47.973 146.056 47.0762 146.056H46.8214V146.28C46.8214 146.576 46.5871 146.81 46.2915 146.81C45.996 146.81 45.7616 146.576 45.7616 146.28V146.056H45.6699C44.6916 146.056 43.8866 145.231 43.8866 144.212C43.8866 143.916 44.121 143.682 44.4165 143.682C44.712 143.682 44.9464 143.916 44.9464 144.212C44.9464 144.64 45.2725 144.996 45.6699 144.996H45.7616V143.274L44.9872 142.999C44.5184 142.836 43.8866 142.49 43.8866 141.409C43.8866 140.482 44.6101 139.738 45.5069 139.738H45.7616V139.514C45.7616 139.218 45.996 138.984 46.2915 138.984C46.5871 138.984 46.8214 139.218 46.8214 139.514V139.738H46.9131C47.8914 139.738 48.6965 140.564 48.6965 141.583C48.6965 141.878 48.4621 142.112 48.1666 142.112C47.871 142.112 47.6367 141.878 47.6367 141.583C47.6367 141.155 47.3106 140.798 46.9131 140.798H46.8214V142.52L47.5959 142.795Z" fill="url(#paint13_linear_174_841)"/>
<path d="M44.9473 141.409C44.9473 141.837 45.0696 141.898 45.3345 142L45.7625 142.153V140.798H45.5077C45.1918 140.798 44.9473 141.073 44.9473 141.409Z" fill="url(#paint14_linear_174_841)"/>
</g>
</g>
<defs>
<filter id="filter0_bi_174_841" x="-85.0275" y="-35.213" width="214.556" height="213.536" filterUnits="userSpaceOnUse" color-interpolation-filters="sRGB">
<feFlood flood-opacity="0" result="BackgroundImageFix"/>
<feGaussianBlur in="BackgroundImageFix" stdDeviation="45.3126"/>
<feComposite in2="SourceAlpha" operator="in" result="effect1_backgroundBlur_174_841"/>
<feBlend mode="normal" in="SourceGraphic" in2="effect1_backgroundBlur_174_841" result="shape"/>
<feColorMatrix in="SourceAlpha" type="matrix" values="0 0 0 0 0 0 0 0 0 0 0 0 0 0 0 0 0 0 127 0" result="hardAlpha"/>
<feOffset dx="45.3126" dy="-45.3126"/>
<feGaussianBlur stdDeviation="22.6563"/>
<feComposite in2="hardAlpha" operator="arithmetic" k2="-1" k3="1"/>
<feColorMatrix type="matrix" values="0 0 0 0 0.256614 0 0 0 0 0.157371 0 0 0 0 0.506977 0 0 0 0.1 0"/>
<feBlend mode="normal" in2="shape" result="effect2_innerShadow_174_841"/>
</filter>
<filter id="filter1_i_174_841" x="-31.3868" y="62.8809" width="61.9644" height="61.9656" filterUnits="userSpaceOnUse" color-interpolation-filters="sRGB">
<feFlood flood-opacity="0" result="BackgroundImageFix"/>
<feBlend mode="normal" in="SourceGraphic" in2="BackgroundImageFix" result="shape"/>
<feColorMatrix in="SourceAlpha" type="matrix" values="0 0 0 0 0 0 0 0 0 0 0 0 0 0 0 0 0 0 127 0" result="hardAlpha"/>
<feOffset dx="-45.3126" dy="45.3126"/>
<feGaussianBlur stdDeviation="22.6563"/>
<feComposite in2="hardAlpha" operator="arithmetic" k2="-1" k3="1"/>
<feColorMatrix type="matrix" values="0 0 0 0 1 0 0 0 0 1 0 0 0 0 1 0 0 0 0.3 0"/>
<feBlend mode="normal" in2="shape" result="effect1_innerShadow_174_841"/>
</filter>
<filter id="filter2_f_174_841" x="100.932" y="-101.903" width="306.678" height="306.677" filterUnits="userSpaceOnUse" color-interpolation-filters="sRGB">
<feFlood flood-opacity="0" result="BackgroundImageFix"/>
<feBlend mode="normal" in="SourceGraphic" in2="BackgroundImageFix" result="shape"/>
<feGaussianBlur stdDeviation="38.8199" result="effect1_foregroundBlur_174_841"/>
</filter>
<filter id="filter3_bi_174_841" x="-80.0275" y="-84.9996" width="214.556" height="213.536" filterUnits="userSpaceOnUse" color-interpolation-filters="sRGB">
<feFlood flood-opacity="0" result="BackgroundImageFix"/>
<feGaussianBlur in="BackgroundImageFix" stdDeviation="45.3126"/>
<feComposite in2="SourceAlpha" operator="in" result="effect1_backgroundBlur_174_841"/>
<feBlend mode="normal" in="SourceGraphic" in2="effect1_backgroundBlur_174_841" result="shape"/>
<feColorMatrix in="SourceAlpha" type="matrix" values="0 0 0 0 0 0 0 0 0 0 0 0 0 0 0 0 0 0 127 0" result="hardAlpha"/>
<feOffset dx="45.3126" dy="-45.3126"/>
<feGaussianBlur stdDeviation="22.6563"/>
<feComposite in2="hardAlpha" operator="arithmetic" k2="-1" k3="1"/>
<feColorMatrix type="matrix" values="0 0 0 0 0.256614 0 0 0 0 0.157371 0 0 0 0 0.506977 0 0 0 0.1 0"/>
<feBlend mode="normal" in2="shape" result="effect2_innerShadow_174_841"/>
</filter>
<filter id="filter4_i_174_841" x="-26.4278" y="13.2043" width="61.0626" height="62.8016" filterUnits="userSpaceOnUse" color-interpolation-filters="sRGB">
<feFlood flood-opacity="0" result="BackgroundImageFix"/>
<feBlend mode="normal" in="SourceGraphic" in2="BackgroundImageFix" result="shape"/>
<feColorMatrix in="SourceAlpha" type="matrix" values="0 0 0 0 0 0 0 0 0 0 0 0 0 0 0 0 0 0 127 0" result="hardAlpha"/>
<feOffset dx="-45.3126" dy="45.3126"/>
<feGaussianBlur stdDeviation="22.6563"/>
<feComposite in2="hardAlpha" operator="arithmetic" k2="-1" k3="1"/>
<feColorMatrix type="matrix" values="0 0 0 0 1 0 0 0 0 1 0 0 0 0 1 0 0 0 0.3 0"/>
<feBlend mode="normal" in2="shape" result="effect1_innerShadow_174_841"/>
</filter>
<filter id="filter5_bi_174_841" x="-84.5474" y="8.8003" width="261.676" height="261.676" filterUnits="userSpaceOnUse" color-interpolation-filters="sRGB">
<feFlood flood-opacity="0" result="BackgroundImageFix"/>
<feGaussianBlur in="BackgroundImageFix" stdDeviation="53.5998"/>
<feComposite in2="SourceAlpha" operator="in" result="effect1_backgroundBlur_174_841"/>
<feBlend mode="normal" in="SourceGraphic" in2="effect1_backgroundBlur_174_841" result="shape"/>
<feColorMatrix in="SourceAlpha" type="matrix" values="0 0 0 0 0 0 0 0 0 0 0 0 0 0 0 0 0 0 127 0" result="hardAlpha"/>
<feOffset dx="53.5998" dy="-53.5998"/>
<feGaussianBlur stdDeviation="26.7999"/>
<feComposite in2="hardAlpha" operator="arithmetic" k2="-1" k3="1"/>
<feColorMatrix type="matrix" values="0 0 0 0 0.256614 0 0 0 0 0.157371 0 0 0 0 0.506977 0 0 0 0.1 0"/>
<feBlend mode="normal" in2="shape" result="effect2_innerShadow_174_841"/>
</filter>
<filter id="filter6_i_174_841" x="-8.96685" y="129.044" width="65.2042" height="65.6871" filterUnits="userSpaceOnUse" color-interpolation-filters="sRGB">
<feFlood flood-opacity="0" result="BackgroundImageFix"/>
<feBlend mode="normal" in="SourceGraphic" in2="BackgroundImageFix" result="shape"/>
<feColorMatrix in="SourceAlpha" type="matrix" values="0 0 0 0 0 0 0 0 0 0 0 0 0 0 0 0 0 0 127 0" result="hardAlpha"/>
<feOffset dx="-45.3126" dy="45.3126"/>
<feGaussianBlur stdDeviation="22.6563"/>
<feComposite in2="hardAlpha" operator="arithmetic" k2="-1" k3="1"/>
<feColorMatrix type="matrix" values="0 0 0 0 1 0 0 0 0 1 0 0 0 0 1 0 0 0 0.3 0"/>
<feBlend mode="normal" in2="shape" result="effect1_innerShadow_174_841"/>
</filter>
<linearGradient id="paint0_linear_174_841" x1="1.35716e-07" y1="2.63356" x2="56.3377" y2="144.404" gradientUnits="userSpaceOnUse">
<stop stop-color="#15192E"/>
<stop offset="0.469102" stop-color="#443B7A" stop-opacity="0.3"/>
</linearGradient>
<linearGradient id="paint1_linear_174_841" x1="34.0722" y1="65.0979" x2="8.26892" y2="65.0979" gradientUnits="userSpaceOnUse">
<stop stop-color="#0A0B20"/>
<stop offset="0.228601" stop-color="#30127C"/>
<stop offset="0.75" stop-color="#8559F4"/>
</linearGradient>
<linearGradient id="paint2_linear_174_841" x1="19.7543" y1="66.5864" x2="19.7543" y2="79.534" gradientUnits="userSpaceOnUse">
<stop stop-color="#9C7FE5"/>
<stop offset="1" stop-color="#111026"/>
</linearGradient>
<linearGradient id="paint3_linear_174_841" x1="24.7576" y1="62.8809" x2="24.7576" y2="75.8367" gradientUnits="userSpaceOnUse">
<stop stop-color="#9C7FE5"/>
<stop offset="1" stop-color="#111026"/>
</linearGradient>
<linearGradient id="paint4_linear_174_841" x1="53.8906" y1="82.0565" x2="231.243" y2="82.0565" gradientUnits="userSpaceOnUse">
<stop stop-color="#7544FF"/>
<stop offset="1" stop-color="#00AE4E"/>
</linearGradient>
<linearGradient id="paint5_linear_174_841" x1="39.0722" y1="15.3113" x2="13.2689" y2="15.3113" gradientUnits="userSpaceOnUse">
<stop stop-color="#0A0B20"/>
<stop offset="0.228601" stop-color="#30127C"/>
<stop offset="0.75" stop-color="#8559F4"/>
</linearGradient>
<linearGradient id="paint6_linear_174_841" x1="26.7598" y1="13.2043" x2="26.7598" y2="30.6934" gradientUnits="userSpaceOnUse">
<stop stop-color="#AF9CDE"/>
<stop offset="1" stop-color="#211D43"/>
</linearGradient>
<linearGradient id="paint7_linear_174_841" x1="54.8906" y1="32.7679" x2="138.987" y2="32.7679" gradientUnits="userSpaceOnUse">
<stop stop-color="#7544FF"/>
<stop offset="1" stop-color="#00AE4E"/>
</linearGradient>
<linearGradient id="paint8_linear_174_841" x1="6" y1="104.365" x2="172.563" y2="256.766" gradientUnits="userSpaceOnUse">
<stop stop-color="#15192E"/>
<stop offset="0.469102" stop-color="#443B7A" stop-opacity="0.3"/>
<stop offset="1" stop-color="#A492D6" stop-opacity="0.5"/>
</linearGradient>
<linearGradient id="paint9_linear_174_841" x1="63.0711" y1="130.183" x2="26.4441" y2="130.183" gradientUnits="userSpaceOnUse">
<stop stop-color="#0A0B20"/>
<stop offset="0.228601" stop-color="#30127C"/>
<stop offset="0.75" stop-color="#8559F4"/>
</linearGradient>
<linearGradient id="paint10_linear_174_841" x1="43.179" y1="129.044" x2="43.179" y2="135.081" gradientUnits="userSpaceOnUse">
<stop stop-color="#CEC1F1"/>
<stop offset="1" stop-color="#221E40"/>
</linearGradient>
<linearGradient id="paint11_linear_174_841" x1="49.0694" y1="129.568" x2="49.0694" y2="135.244" gradientUnits="userSpaceOnUse">
<stop stop-color="#CEC1F1"/>
<stop offset="1" stop-color="#221E40"/>
</linearGradient>
<linearGradient id="paint12_linear_174_841" x1="47.2279" y1="143.641" x2="47.2279" y2="144.996" gradientUnits="userSpaceOnUse">
<stop stop-color="#CEC1F1"/>
<stop offset="1" stop-color="#221E40"/>
</linearGradient>
<linearGradient id="paint13_linear_174_841" x1="46.2915" y1="136.498" x2="46.2915" y2="149.419" gradientUnits="userSpaceOnUse">
<stop stop-color="#CEC1F1"/>
<stop offset="1" stop-color="#221E40"/>
</linearGradient>
<linearGradient id="paint14_linear_174_841" x1="45.3549" y1="140.798" x2="45.3549" y2="142.153" gradientUnits="userSpaceOnUse">
<stop stop-color="#CEC1F1"/>
<stop offset="1" stop-color="#221E40"/>
</linearGradient>
<clipPath id="clip0_174_841">
<rect width="290" height="182.454" rx="15.528" fill="white"/>
</clipPath>
</defs>
</svg>
