<svg width="207" height="44" viewBox="0 0 207 44" fill="none" xmlns="http://www.w3.org/2000/svg">
<path d="M49.104 34.9825C43.4851 34.9825 41.0396 32.3915 41.0396 28.6359V28.141H44.1256V28.4612C44.1256 30.8776 45.1446 32.1003 49.2204 32.1003C52.1026 32.1003 53.1507 31.3143 53.1507 29.5093C53.1507 27.7334 52.5684 27.0929 49.5698 26.4815L46.2509 25.8119C42.9029 25.1714 41.0979 23.5411 41.0979 20.4551C41.0979 17.5729 43.3396 14.8945 48.3761 14.8945C53.7621 14.8945 55.9164 17.9223 55.9164 21.3867V21.7361H52.8304V21.4158C52.8304 19.0286 51.7824 17.7767 48.2888 17.7767C45.4066 17.7767 44.2421 18.5919 44.2421 20.3095C44.2421 22.0854 45.0281 22.5804 47.7065 23.1626L51.0254 23.8613C54.6937 24.6183 56.2949 26.4524 56.2949 29.3928C56.2949 32.4497 54.0823 34.9825 49.104 34.9825ZM61.8414 34.6914H58.6972V20.2222H61.5794V22.9297H61.6958C62.3654 21.3867 63.8793 19.9311 66.6451 19.9311C69.1779 19.9311 70.75 21.0956 71.4487 22.9297H71.5361C72.2057 21.4158 73.6904 19.9311 76.5435 19.9311C80.27 19.9311 81.9294 22.3183 81.9294 25.6081V34.6914H78.7852V26.3068C78.7852 23.7158 77.9992 22.6386 75.379 22.6386C72.9917 22.6386 71.8854 23.6284 71.8854 26.2777V34.6914H68.7412V26.3068C68.7412 23.7158 67.9552 22.6386 65.335 22.6386C62.9477 22.6386 61.8414 23.6284 61.8414 26.2486V34.6914ZM88.8413 34.9825C86.2502 34.9825 84.2414 33.6433 84.2414 31.1105C84.2414 28.7232 85.9882 27.4714 89.0742 27.0347L94.1399 26.2777V25.4917C94.1399 23.3373 93.15 22.6968 90.8792 22.6968C88.5793 22.6968 87.6768 23.4246 87.6768 25.3461V25.7828H84.649V25.4917C84.649 22.2601 87.1818 19.9311 91.0539 19.9311C95.1006 19.9311 97.1385 22.3766 97.1385 25.8993V34.6914H94.2272V32.4206H94.0817C93.2374 33.7889 91.5779 34.9825 88.8413 34.9825ZM87.2983 30.8776C87.2983 32.013 88.0261 32.4788 89.8603 32.4788C91.8982 32.4788 94.1399 31.6636 94.1399 28.7523V28.4903L89.54 29.189C87.8806 29.4219 87.2983 29.8004 87.2983 30.8776ZM103.293 34.6914H100.149V20.1349H103.031V22.4348H103.177C103.759 21.0956 105.098 19.9311 107.224 19.9311C110.251 19.9311 111.416 22.1437 111.416 24.8512V25.8119H108.272V25.2297C108.272 23.3082 107.719 22.6095 105.885 22.6095C103.992 22.6095 103.293 23.3373 103.293 25.2588V34.6914ZM119.738 34.6914C116.506 34.6914 114.818 33.4978 114.818 30.2371V22.8424H112.401V20.2222H114.876L115.546 16.6413H117.962V20.2222H122.329V22.8424H117.962V30.0915C117.962 31.6054 118.602 31.8674 120.553 31.8674H122.329V34.4294C121.717 34.575 120.728 34.6914 119.738 34.6914ZM133.103 34.9825C127.426 34.9825 123.991 31.0232 123.991 24.9385C123.991 18.8539 127.426 14.8945 133.103 14.8945C138.344 14.8945 141.517 17.8058 141.517 22.493V22.6677H138.169V22.493C138.169 19.2906 136.684 17.9223 133.016 17.9223C128.969 17.9223 127.339 19.8728 127.339 24.9385C127.339 30.0042 128.969 31.9548 133.016 31.9548C136.684 31.9548 138.169 30.5865 138.169 27.384V27.2093H141.517V27.384C141.517 32.0712 138.344 34.9825 133.103 34.9825ZM150.741 34.9825C146.287 34.9825 143.521 31.9548 143.521 27.4422C143.521 22.9588 146.287 19.9311 150.741 19.9311C155.166 19.9311 157.845 22.9588 157.845 27.4422C157.845 31.9548 155.166 34.9825 150.741 34.9825ZM150.741 32.1877C153.769 32.1877 154.817 30.7029 154.817 27.4422C154.817 24.2107 153.769 22.7259 150.741 22.7259C147.684 22.7259 146.607 24.2107 146.607 27.4422C146.607 30.7029 147.684 32.1877 150.741 32.1877ZM163.339 34.6914H160.195V20.2222H163.077V22.9297H163.194C163.863 21.3867 165.406 19.9311 168.23 19.9311C171.986 19.9311 173.674 22.3183 173.674 25.6081V34.6914H170.53V26.3068C170.53 23.7158 169.715 22.6386 167.066 22.6386C164.504 22.6386 163.339 23.6284 163.339 26.3359V34.6914ZM184.529 34.6914H180.57L174.776 20.2222H178.27L182.491 31.6928H182.695L186.946 20.2222H190.352L184.529 34.6914ZM197.908 34.9825C193.453 34.9825 190.688 31.9548 190.688 27.4422C190.688 22.9588 193.453 19.9311 197.908 19.9311C202.333 19.9311 205.011 22.9588 205.011 27.4422C205.011 31.9548 202.333 34.9825 197.908 34.9825ZM197.908 32.1877C200.935 32.1877 201.983 30.7029 201.983 27.4422C201.983 24.2107 200.935 22.7259 197.908 22.7259C194.851 22.7259 193.774 24.2107 193.774 27.4422C193.774 30.7029 194.851 32.1877 197.908 32.1877Z" fill="#CEC1F1"/>
<path d="M34.2199 3.02637L34.5686 6.11911C34.7795 8.00065 36.2643 9.48332 38.1458 9.69633L41.2386 10.0451L38.1458 10.3938C36.2643 10.6047 34.7816 12.0895 34.5686 13.971L34.2199 17.0638L33.8711 13.971C33.6602 12.0895 32.1755 10.6068 30.2939 10.3938L27.2012 10.0451L30.2939 9.69633C32.1755 9.48541 33.6581 8.00065 33.8711 6.11911L34.2199 3.02637Z" fill="#7C4DFF"/>
<path d="M28.3641 0L28.5787 1.90323C28.7085 3.0611 29.6222 3.97351 30.7801 4.10459L32.6833 4.3192L30.7801 4.53381C29.6222 4.66361 28.7098 5.57731 28.5787 6.73518L28.3641 8.63841L28.1495 6.73518C28.0197 5.57731 27.106 4.66489 25.9481 4.53381L24.0449 4.3192L25.9481 4.10459C27.106 3.9748 28.0184 3.0611 28.1495 1.90323L28.3641 0Z" fill="#FFB921"/>
<path d="M0.0567249 25.7812C0.562522 26.116 1.54126 28.0988 2.05448 28.7331C2.7309 29.5693 3.66858 30.3317 4.53895 30.9563C8.12934 33.5337 12.9292 34.4619 17.2756 33.7352C16.8471 34.0073 16.3776 34.1858 15.9097 34.3773C13.8555 35.1505 11.6916 35.6093 9.48723 35.5024C6.59155 35.362 3.28704 34.1538 1.31923 31.9561C-0.166631 30.2973 -0.0495216 27.8788 0.0567249 25.7812Z" fill="#7C4DFF"/>
<path d="M13.5971 8.34847L13.7097 8.33789L13.7556 8.39501C9.88327 10.4407 7.17332 13.2133 5.85146 17.4752C4.7731 20.9525 5.20392 24.5451 6.91048 27.7448C8.61679 30.9437 11.0546 32.6816 14.4805 33.7152C13.1496 33.5603 11.8651 33.4069 10.5568 33.1158C8.7331 32.5737 7.04058 31.8716 5.51259 30.7126C3.02494 28.8261 1.3332 26.1899 0.912192 23.0802C0.472899 19.8345 1.57723 16.6261 3.5559 14.0579C5.93969 10.9629 9.72403 8.83688 13.5971 8.34847Z" fill="#CEC1F1"/>
<path d="M23.4922 22.0088C24.6895 23.3886 25.4513 26.7454 25.5276 28.5509C25.677 32.083 24.4296 35.6841 22.0085 38.2832C19.8025 40.651 16.8527 42.0281 13.6047 42.122C10.1006 42.2233 6.95034 40.6459 4.44653 38.2946C3.06135 36.8431 2.0895 35.3107 1.27344 33.4845C1.59589 33.8039 1.92098 34.1236 2.28185 34.4005C4.89138 36.4036 8.61213 36.9523 11.8048 36.5316C15.5126 36.0429 19.1401 34.2395 21.4293 31.2413C23.5534 28.4594 23.9485 25.3809 23.4919 22.0091L23.4922 22.0088Z" fill="#7C4DFF"/>
<path d="M18.3082 8.71497C19.8229 8.58037 21.5631 8.90748 22.9894 9.40515C27.0185 10.8109 29.3941 13.9323 31.195 17.6124C30.9658 17.3501 30.726 17.0976 30.4759 16.8551C28.2752 14.7549 25.0523 13.9746 22.0843 14.0775C17.614 14.2324 13.9693 16.2747 10.9825 19.4949C10.6248 19.9352 10.2817 20.3797 9.98305 20.8626C8.08333 23.9364 8.20786 27.0144 9.01941 30.3873C7.56534 28.2274 6.43982 26.0167 6.18096 23.3858C5.83625 19.885 6.99596 16.0277 9.25125 13.3161C11.5346 10.571 14.7803 9.02436 18.3082 8.71497Z" fill="#FFB921"/>
<path d="M21.1096 15.34C22.1106 15.2364 23.1802 15.2834 24.1751 15.4281C26.8493 15.8165 29.5984 17.1411 31.2303 19.3441C32.8916 21.5871 33.1801 24.7508 32.7694 27.4306C32.3105 25.5459 31.522 23.8527 30.2971 22.3381C27.7273 19.1609 24.2588 17.4642 20.2374 17.0507L20.3256 17.1464C20.7024 17.2096 21.0757 17.2892 21.4455 17.3849C21.8154 17.4804 22.1805 17.592 22.5406 17.7192C22.9007 17.8464 23.2549 17.9889 23.6025 18.1467C23.9504 18.3046 24.2906 18.4773 24.6234 18.6645C27.6293 20.3516 30.3997 23.3223 31.3254 26.6928C32.191 29.8441 31.3789 32.8248 29.8115 35.5974C29.3939 36.2241 28.9607 36.8289 28.4732 37.4037C25.5529 40.8462 21.4167 42.409 17.015 42.7668C20.2551 41.695 23.0612 39.2186 24.7535 36.2796C26.4858 33.2719 27.0263 29.7206 26.1016 26.3617C25.2818 23.3831 23.4618 20.5375 20.7145 19.0109C18.0059 17.506 15.6502 17.6039 12.7715 18.4159C15.2382 16.5181 18.0327 15.5899 21.1093 15.3403L21.1096 15.34Z" fill="#CEC1F1"/>
</svg>
