<svg width="57" height="57" viewBox="0 0 57 57" fill="none" xmlns="http://www.w3.org/2000/svg">
<rect x="0.861328" y="0.291992" width="55.824" height="55.824" rx="10" fill="url(#paint0_linear_134_2193)"/>
<path d="M39.6945 35.7087L17.4204 35.8416C16.7737 35.8455 16.2531 36.3724 16.257 37.019L16.3036 44.834C16.3075 45.48 16.8343 46.0012 17.481 45.9974L39.7551 45.8644C40.4017 45.8606 40.9223 45.3331 40.9185 44.6871L40.8718 36.8721C40.868 36.2255 40.3411 35.7048 39.6945 35.7087ZM26.3535 43.5047C20.9806 45.6271 19.5372 40.6721 21.5762 38.6504C22.6996 37.5376 24.7737 37.5727 26.2984 38.3003L26.3068 39.6966L26.1347 39.6976C25.8978 39.5223 25.6293 39.3302 25.3874 39.2017C24.148 38.5262 22.3058 38.9175 22.3174 40.8603C22.3266 42.3993 23.2923 43.0092 24.7895 42.8657L24.7826 41.6977L23.5946 41.7048L23.5879 40.5806L26.3359 40.5642L26.3535 43.5047ZM30.9222 38.917L29.9462 38.9229L29.9691 42.7669L30.9452 42.7611L30.9515 43.8173L27.4632 43.8381L27.4569 42.7819L28.433 42.776L28.4101 38.932L27.434 38.9378L27.4277 37.8816L30.9159 37.8608L30.9222 38.917ZM36.4434 38.98L33.703 38.9964L33.7096 40.1041L36.2498 40.089L36.2567 41.2412L33.7165 41.2564L33.7317 43.8007L32.2038 43.8098L32.1682 37.8533L36.4365 37.8278L36.4434 38.98Z" fill="#CEC1F1"/>
<path d="M43.6289 49.5793L13.6498 49.7583C13.0365 49.7619 12.5349 49.2663 12.5313 48.6531L12.3528 18.7447C12.3519 18.6049 12.4067 18.4705 12.505 18.3716L24.3813 6.35276C24.4796 6.25328 24.6133 6.19689 24.7525 6.19605L43.3687 6.08494C43.982 6.08128 44.4835 6.57688 44.4872 7.19014L44.7335 48.4615C44.7372 49.0747 44.2416 49.5763 43.6283 49.5799L43.6289 49.5793ZM13.4074 18.9561L13.5846 48.6468C13.5848 48.679 13.6113 48.7051 13.6435 48.7049L43.6226 48.526C43.6548 48.5258 43.681 48.4993 43.6808 48.4671L43.4345 7.19584C43.4343 7.16365 43.4078 7.13748 43.3756 7.13767L24.9771 7.24748L13.4074 18.9561Z" fill="#CEC1F1"/>
<path d="M24.9562 6.23338C24.7591 6.15321 24.5329 6.19962 24.3828 6.35091L12.5066 18.3698C12.3571 18.5211 12.3134 18.7478 12.3959 18.9445C12.4784 19.1406 12.6711 19.2682 12.8841 19.267L24.2465 19.1991C24.8598 19.1955 25.3554 18.6939 25.3517 18.0807L25.2839 6.7183C25.2826 6.5053 25.1533 6.31413 24.9556 6.23397L24.9562 6.23338Z" fill="#CEC1F1"/>
<defs>
<linearGradient id="paint0_linear_134_2193" x1="0.861328" y1="3.41999" x2="69.0406" y2="31.2261" gradientUnits="userSpaceOnUse">
<stop stop-color="#15192E"/>
<stop offset="0.469102" stop-color="#443B7A" stop-opacity="0.3"/>
<stop offset="1" stop-color="#A492D6" stop-opacity="0.1"/>
</linearGradient>
</defs>
</svg>
