<svg width="37" height="33" viewBox="0 0 37 33" fill="none" xmlns="http://www.w3.org/2000/svg">
<path fill-rule="evenodd" clip-rule="evenodd" d="M30.2954 17.1163C32.5371 18.7608 33.9348 21.0801 33.9348 23.6487C33.9348 24.4058 33.8133 25.1412 33.5846 25.8441C33.5846 25.8441 35.3142 27.702 36.2549 28.7126C36.3584 28.8237 36.3864 28.9855 36.3264 29.1249C36.2663 29.2643 36.1295 29.3552 35.9777 29.3564C34.4043 29.3693 31.2474 29.395 31.2474 29.395C29.0943 31.3982 25.8394 32.6756 22.1998 32.6756C15.7231 32.6756 10.4649 28.6308 10.4649 23.6487C10.4649 22.2737 10.8654 20.9699 11.5817 19.803H26.9971C28.6044 19.803 29.9628 18.6521 30.2954 17.1163ZM17.3189 22.3372C16.595 22.3372 16.0073 22.9249 16.0073 23.6487C16.0073 24.3726 16.595 24.9603 17.3189 24.9603C18.0428 24.9603 18.6305 24.3726 18.6305 23.6487C18.6305 22.9249 18.0428 22.3372 17.3189 22.3372ZM22.2799 22.3372C21.556 22.3372 20.9683 22.9249 20.9683 23.6487C20.9683 24.3726 21.556 24.9603 22.2799 24.9603C23.0037 24.9603 23.5914 24.3726 23.5914 23.6487C23.5914 22.9249 23.0037 22.3372 22.2799 22.3372ZM27.2408 22.3372C26.5169 22.3372 25.9292 22.9249 25.9292 23.6487C25.9292 24.3726 26.5169 24.9603 27.2408 24.9603C27.9647 24.9603 28.5524 24.3726 28.5524 23.6487C28.5524 22.9249 27.9647 22.3372 27.2408 22.3372ZM29.301 9.50116V16.3859C29.301 17.6769 28.2655 18.7307 26.9971 18.7307H10.4688C10.4688 18.7307 6.61124 23.7475 5.00741 25.8333C4.90746 25.9633 4.73581 26.0153 4.58055 25.9625C4.42529 25.9097 4.32089 25.7639 4.32089 25.5999C4.32089 23.3968 4.32089 18.7307 4.32089 18.7307H2.38586C1.11745 18.7307 0.0820312 17.6769 0.0820312 16.3859V2.58782C0.0820312 1.29696 1.11745 0.243164 2.38586 0.243164H26.9971C28.2655 0.243164 29.301 1.29696 29.301 2.58782V4.3898C26.885 5.1962 24.8951 6.98194 24.0505 9.38067C23.8221 10.0294 23.69 10.6856 23.6463 11.3366C23.6141 11.8184 23.9078 12.2624 24.364 12.4211C24.82 12.5798 25.3259 12.414 25.5997 12.0162C26.4552 10.7729 27.7884 9.89287 29.301 9.50116ZM6.60634 5.39312H5.74786C4.79517 5.39312 4.01566 6.17263 4.01566 7.12533V9.3891C4.01566 10.3418 4.79517 11.1212 5.74786 11.1212H6.5865V13.2161C6.5865 14.5381 7.66412 15.6132 8.98616 15.6132H16.4981C17.82 15.6132 18.8977 14.5381 18.8977 13.2161V11.1212H19.7338C20.6865 11.1212 21.466 10.3351 21.466 9.3891V7.12533C21.466 6.17263 20.6865 5.39312 19.7338 5.39312H18.8779C18.7257 4.21647 17.715 3.302 16.4981 3.302H8.98616C7.76921 3.302 6.75853 4.21647 6.60634 5.39312ZM8.98616 4.37433H16.4981C17.229 4.37433 17.8254 4.9707 17.8254 5.70157V13.2161C17.8254 13.947 17.229 14.5409 16.4981 14.5409H8.98616C8.25521 14.5409 7.65883 13.947 7.65883 13.2161V5.70157C7.65883 4.9707 8.25521 4.37433 8.98616 4.37433ZM15.2165 7.22429C14.6455 7.22429 14.1836 7.68616 14.1836 8.25717C14.1836 8.82819 14.6455 9.29006 15.2165 9.29006C15.785 9.29006 16.2469 8.82819 16.2469 8.25717C16.2469 7.68616 15.785 7.22429 15.2165 7.22429ZM10.2677 7.22429C9.69673 7.22429 9.23486 7.68616 9.23486 8.25717C9.23486 8.82819 9.69673 9.29006 10.2677 9.29006C10.8362 9.29006 11.3006 8.82819 11.3006 8.25717C11.3006 7.68616 10.8362 7.22429 10.2677 7.22429ZM14.0618 11.0666H11.4224C11.0764 11.0666 10.7956 11.3475 10.7956 11.6934C10.7956 12.0394 11.0764 12.3202 11.4224 12.3202H14.0618C14.4077 12.3202 14.6886 12.0394 14.6886 11.6934C14.6886 11.3475 14.4077 11.0666 14.0618 11.0666ZM18.8977 6.46546H19.7338C20.0968 6.46546 20.3936 6.76242 20.3936 7.12533V9.3891C20.3936 9.7494 20.0968 10.0489 19.7338 10.0489H18.8977V6.46546ZM6.5865 10.0489H5.74786C5.38495 10.0489 5.08799 9.75201 5.08799 9.3891V7.12533C5.08799 6.76242 5.38495 6.46546 5.74786 6.46546H6.5865V10.0489ZM32.0304 8.25342C29.1162 7.92353 26.2556 9.17149 24.7163 11.4083C24.7536 10.852 24.8668 10.2912 25.062 9.73676C26.0621 6.89623 28.9186 5.06599 32.0304 4.98977V4.57172C32.0304 4.42465 32.1146 4.29061 32.2471 4.22673C32.3795 4.16285 32.5368 4.18047 32.6519 4.272C33.4096 4.87503 34.6665 5.87514 35.2912 6.37232C35.3825 6.44493 35.4357 6.5553 35.4357 6.67196C35.4357 6.78869 35.3825 6.89899 35.2912 6.97168C34.6665 7.46878 33.4096 8.46888 32.6519 9.07192C32.5368 9.16345 32.3795 9.18107 32.2471 9.11719C32.1146 9.05338 32.0304 8.91926 32.0304 8.77228V8.25342Z" fill="#7544FF"/>
</svg>
