<svg version="1.2" xmlns="http://www.w3.org/2000/svg" viewBox="0 0 302 221" width="302" height="221">
	<title>It</title>
	<defs>
		<linearGradient id="g1" x2="1" gradientUnits="userSpaceOnUse" gradientTransform="matrix(-116.55,152.411,-193.645,-148.082,246.863,19.693)">
			<stop offset="0" stop-color="#a492d6" stop-opacity=".5"/>
			<stop offset=".469" stop-color="#443b7a" stop-opacity=".3"/>
			<stop offset="1" stop-color="#15192e" stop-opacity="1"/>
		</linearGradient>
		<linearGradient id="g2" x2="1" gradientUnits="userSpaceOnUse" gradientTransform="matrix(-105.842,160.894,-206.222,-135.661,301.209,122.698)">
			<stop offset="0" stop-color="#15192e" stop-opacity="1"/>
			<stop offset=".469" stop-color="#443b7a" stop-opacity=".3"/>
			<stop offset="1" stop-color="#a492d6" stop-opacity=".1"/>
		</linearGradient>
		<clipPath clipPathUnits="userSpaceOnUse" id="cp1">
			<path d="m194.21 90.5h-14v14h14z"/>
		</clipPath>
		<clipPath clipPathUnits="userSpaceOnUse" id="cp2">
			<path d="m34.21 201.5h-14v14h14z"/>
		</clipPath>
	</defs>
	<style>
		.s0 { fill: #7544ff } 
		.s1 { fill: url(#g1) } 
		.s2 { opacity: .2;fill: #00ae4e } 
		.s3 { opacity: .7;fill: #cec1f1 } 
		.s4 { opacity: .3;fill: #cec1f1 } 
		.s5 { fill: url(#g2) } 
		.s6 { opacity: .2;fill: none;stroke: #cec1f1 } 
		.s7 { opacity: .1;fill: #fa7c0b } 
		.s8 { fill: #00ae4e } 
		.s9 { fill: #ffffff } 
		.s10 { fill: #fa7c0b } 
	</style>
	<path fill-rule="evenodd" class="s0" d="m24.9 156.9c0.5 0 0.9 0 1.3 0 4.3 0.3 8.4 1.2 11.8 3.9 2 1.6 2.5 3.8 1.5 5.7-1.1 2.3-3 3.2-5.6 2.7-4.8-1-7.9-4-10.1-8.2-0.4-0.7-0.7-1.4-1-2.1-6.3 0.9-9.6 5.7-8 11.5 1.2 4.7 4.3 8.2 7.8 11.9l-0.2-4.4 2.7-0.7 0.6 9.6c-3.2 0.2-6.4 0.4-9.7 0.6l0.4-2.7c1.4-0.1 2.7-0.2 4.1-0.4-0.7-0.8-1.3-1.4-1.8-2.1-2.3-2.6-4.4-5.4-5.5-8.8-2.2-6.8 1.3-13.6 8.1-15.8q0.6-0.2 1.2-0.5c-0.1-3 0.9-5.6 2.8-7.8 2.8-3.2 6.3-5.3 10.5-6.1 6.1-1.1 11.9 0.1 17.3 3q0.5 0.3 0.9 0.7l-0.2 0.3q-0.6-0.1-1.3-0.3c-3.2-0.8-6.3-2-9.5-2.4-6-0.8-11.7 0.4-16.2 4.8-2.1 2-3.1 4.5-2.3 7.5q0.2 0 0.4 0.1zm10.7 10.2c0.9 0.2 2.4-0.1 2.7-0.7 0.4-0.7 0-2-0.4-2.9-1-1.7-2.9-2.5-4.7-3.2-2.5-1.1-5.3-1.7-8.1-1.7 2.5 4.4 5.6 7.6 10.5 8.5z"/>
	<path fill-rule="evenodd" class="s0" d="m279.7 86.7c0.1-0.8 0.2-1.5 0.4-2.3 1.4-5.2 1.9-10.5 1.1-15.8-0.8-5.2-3.4-9.4-8-12.3q-0.1 0.5-0.1 0.9c0.3 6.3-2.4 11.4-6.4 15.8-1.3 1.4-2.8 2.4-4.6 3.1-5 1.8-9.8-2-9.7-7.2 0.2-7.1 8.3-14.7 14.4-14.9q1.8 0 3.7-0.1c-0.4-2.8-3.1-6.3-5.8-7.1-3.6-1.2-6.9-0.4-10.3 1.7 1.5 0.5 2.8 0.9 4.1 1.4l-0.5 2.5c-2.8-0.9-5.6-1.8-8.4-2.8l2.8-8.5 2.2 1.2-1.2 4.1c0.7-0.3 1.1-0.5 1.6-0.7 6.8-2.9 13.6-0.4 16.6 6.2 1 2 2.1 3.5 4 4.7 3.5 2.3 5.7 5.7 6.6 9.7 1.4 6.5 1.2 13-1.3 19.4-0.2 0.4-0.6 0.8-0.9 1.2zm-25-15.2c0.3 2.7 2.2 4.3 4.9 3.8 1.4-0.3 2.9-0.9 3.9-1.8 4.4-4 7.3-8.9 7.7-15 0.2-3.2-0.4-3.7-3.5-3-5.5 1.2-11.8 7.4-12.9 12.6-0.1 1.1-0.2 2.3-0.1 3.4z"/>
	<path class="s1" d="m237.1 15.4l-222.5-14.6c-5.5-0.4-10.3 3.8-10.6 9.3l-3 45.9c-0.4 5.5 3.8 10.3 9.3 10.7l222.5 14.5c5.5 0.4 10.3-3.8 10.6-9.3l3.1-45.9c0.3-5.5-3.9-10.3-9.4-10.6z"/>
	<path class="s2" d="m35.8 45l117.7 7.7-1.1 17.2-117.8-7.7z"/>
	<path fill-rule="evenodd" class="s3" d="m14.4 40.9l-1.5-0.1 0.6-9.9 1.6 0.1-0.3 4.7 4.4-4.4 1.9 0.1-4.2 4.1 3.8 5.8-1.9-0.1-3.1-4.7-1.1 1.1zm11.6-1.4l1.4 0.1c-0.3 1.3-1.6 2.2-3.2 2.1-2.1-0.2-3.3-1.7-3.2-4 0.2-2.2 1.6-3.6 3.6-3.5 2 0.1 3.1 1.6 3 3.8v0.5l-5.1-0.3v0.1c-0.1 1.2 0.6 2.1 1.8 2.2 0.8 0 1.5-0.4 1.7-1zm-1.5-4.1c-1-0.1-1.8 0.7-1.9 1.7l3.6 0.3c0-1.1-0.6-1.9-1.7-2zm8.9 4.6l1.4 0.1c-0.3 1.3-1.6 2.1-3.2 2-2.1-0.1-3.3-1.6-3.2-3.9 0.2-2.2 1.6-3.6 3.6-3.5 2 0.1 3.1 1.6 3 3.8v0.5l-5.1-0.3c-0.1 1.3 0.6 2.2 1.8 2.2 0.8 0.1 1.5-0.3 1.7-0.9zm-1.5-4.1c-1-0.1-1.8 0.7-1.9 1.7l3.5 0.3c0.1-1.1-0.6-2-1.6-2zm8.2-0.7c1.8 0.2 2.9 1.7 2.8 3.9-0.2 2.3-1.5 3.7-3.3 3.6-1-0.1-1.8-0.7-2.1-1.5h-0.1l-0.2 3.6-1.5-0.1 0.7-9.6 1.4 0.1-0.1 1.2c0.5-0.8 1.4-1.2 2.4-1.2zm-0.8 6.2c1.2 0.1 2-0.8 2.1-2.4 0.1-1.5-0.6-2.5-1.8-2.5-1.1-0.1-1.9 0.8-2 2.3-0.1 1.5 0.6 2.5 1.7 2.6zm10.2 4.5c-1.7-0.1-2.9-1.1-3-2.4l1.5 0.1c0.2 0.7 0.8 1.1 1.6 1.1 1.2 0.1 1.9-0.5 2-1.5l0.1-1.1h-0.1c-0.4 0.7-1.3 1.2-2.3 1.1-1.8-0.1-2.9-1.6-2.8-3.8 0.2-2.3 1.5-3.6 3.3-3.5 1 0 1.8 0.6 2.2 1.5l0.1-1.3 1.4 0.1-0.4 7.1c-0.1 1.7-1.5 2.7-3.6 2.6zm0.3-3.9c1.1 0.1 1.9-0.8 2-2.3 0.1-1.5-0.6-2.5-1.7-2.6-1.2 0-2 0.9-2.1 2.4-0.1 1.5 0.6 2.4 1.8 2.5zm9.6-0.3l1.4 0.1c-0.3 1.3-1.6 2.2-3.2 2-2.1-0.1-3.3-1.6-3.2-3.9 0.2-2.2 1.6-3.6 3.6-3.5 2 0.1 3.1 1.6 3 3.8v0.5l-5.1-0.3v0.1c-0.1 1.2 0.6 2.1 1.8 2.2 0.8 0 1.5-0.4 1.7-1zm-1.5-4.1c-1-0.1-1.8 0.7-1.9 1.7l3.6 0.3c0-1.1-0.6-1.9-1.7-2zm5-2.5l1.5 0.1-0.1 1.7 1.3 0.1v1.2l-1.4-0.1-0.3 4c0 0.6 0.3 0.9 0.9 0.9 0.1 0 0.4 0 0.4 0v1.2c-0.2 0-0.5 0-0.9 0-1.4-0.1-1.9-0.7-1.8-2.1l0.2-4.1-1-0.1 0.1-1.1h1zm4.5 0.3l1.5 0.1-0.1 1.7 1.3 0.1-0.1 1.2-1.3-0.1-0.3 4c0 0.6 0.2 0.9 0.8 0.9 0.2 0 0.4 0 0.5 0l-0.1 1.2c-0.1 0-0.4 0-0.8 0-1.4-0.1-2-0.7-1.9-2.1l0.3-4.1-1-0.1v-1.1h1.1zm3.5 9.2l0.5-7.2 1.4 0.1-0.4 7.2zm1.3-8.2c-0.5 0-0.9-0.4-0.8-0.9 0-0.5 0.4-0.8 0.9-0.8 0.4 0 0.8 0.4 0.8 0.9-0.1 0.5-0.5 0.8-0.9 0.8zm1.7 8.4l0.4-7.2 1.4 0.1v1.2c0.4-0.8 1.2-1.3 2.3-1.2 1.6 0.1 2.5 1.2 2.3 2.8l-0.3 4.7-1.4-0.1 0.3-4.4c0-1.1-0.4-1.7-1.5-1.8-1 0-1.7 0.7-1.8 1.8l-0.3 4.2zm10.5 3.4c-1.7-0.1-2.9-1.1-3-2.4l1.5 0.1c0.2 0.6 0.8 1.1 1.7 1.1 1.1 0.1 1.8-0.5 1.9-1.5l0.1-1.2c-0.5 0.8-1.4 1.2-2.4 1.2-1.8-0.2-2.9-1.6-2.7-3.9 0.1-2.2 1.4-3.6 3.2-3.5 1 0.1 1.8 0.7 2.2 1.5l0.1-1.2 1.5 0.1-0.5 7.1c-0.1 1.7-1.5 2.7-3.6 2.6zm0.3-3.9c1.1 0 2-0.8 2-2.3 0.1-1.5-0.6-2.5-1.7-2.6-1.1-0.1-1.9 0.8-2 2.3-0.1 1.5 0.5 2.5 1.7 2.6zm9.7 1.9c-1.4-0.1-2.4-1-2.3-2.3 0.1-1.2 1.1-2 2.8-1.9h2v-0.6c0.1-0.8-0.4-1.3-1.3-1.3-0.9-0.1-1.4 0.3-1.6 0.9l-1.4-0.1c0.2-1.3 1.3-2.2 3.1-2 1.8 0.1 2.8 1.1 2.7 2.5l-0.3 4.9h-1.4l0.1-1.2h-0.1c-0.4 0.7-1.4 1.2-2.3 1.1zm0.5-1.1c1 0.1 1.8-0.6 1.9-1.5v-0.6h-1.7c-0.9 0-1.4 0.3-1.5 1 0 0.6 0.5 1 1.3 1.1zm4.6 1.3l0.5-7.1 1.4 0.1-0.1 1.2h0.1c0.4-0.8 1.2-1.3 2.3-1.2 1.6 0.1 2.4 1.2 2.3 2.8l-0.3 4.6-1.5-0.1 0.3-4.3c0.1-1.1-0.4-1.7-1.4-1.8-1-0.1-1.8 0.6-1.8 1.8l-0.3 4.1zm15.3-1.1l1.4 0.1c-0.2 1.3-1.6 2.2-3.2 2.1-2.1-0.2-3.3-1.7-3.1-4 0.1-2.2 1.5-3.6 3.5-3.5 2 0.1 3.2 1.6 3 3.8v0.5l-5.1-0.3v0.1c-0.1 1.2 0.6 2.1 1.8 2.2 0.9 0 1.5-0.4 1.7-1zm-1.4-4.1c-1.1-0.1-1.9 0.7-2 1.7l3.6 0.3c0-1.1-0.6-1.9-1.6-2zm3.9 6.4l0.5-7.2 1.4 0.1-0.1 1.2h0.1c0.3-0.8 0.9-1.2 1.8-1.2 0.2 0 0.4 0.1 0.5 0.1l-0.1 1.4c-0.1-0.1-0.4-0.1-0.7-0.1-0.9-0.1-1.5 0.5-1.6 1.5l-0.3 4.3zm4.6 0.3l0.5-7.2 1.4 0.1-0.1 1.2c0.3-0.8 1-1.2 1.8-1.2 0.2 0 0.4 0.1 0.5 0.1l-0.1 1.4c-0.1-0.1-0.3-0.1-0.6-0.2-1 0-1.6 0.6-1.7 1.6l-0.2 4.3zm7.3 0.6c-2-0.1-3.3-1.6-3.2-3.9 0.2-2.3 1.6-3.7 3.7-3.5 2 0.1 3.3 1.6 3.2 3.9-0.2 2.3-1.6 3.6-3.7 3.5zm0.1-1.2c1.1 0.1 1.9-0.8 2.1-2.4 0.1-1.6-0.6-2.5-1.8-2.6-1.1-0.1-2 0.8-2.1 2.4-0.1 1.6 0.6 2.5 1.8 2.6zm4.5 1.4l0.4-7.2 1.4 0.1v1.2c0.3-0.8 1-1.3 1.8-1.2 0.2 0 0.4 0 0.5 0.1l-0.1 1.3c-0.1 0-0.4-0.1-0.6-0.1-1 0-1.6 0.6-1.7 1.6l-0.3 4.3zm7.5 0.5l0.4-7.2 1.4 0.1-0.1 1.2h0.1c0.4-0.8 1.1-1.3 2.1-1.2 1 0 1.7 0.6 1.9 1.5h0.1c0.4-0.8 1.3-1.3 2.3-1.2 1.4 0.1 2.3 1.1 2.2 2.5l-0.3 4.9-1.5-0.1 0.3-4.6c0-0.9-0.4-1.5-1.3-1.5-0.9-0.1-1.5 0.5-1.6 1.5l-0.3 4.4-1.4-0.1 0.3-4.6c0-0.9-0.5-1.4-1.3-1.5-0.9 0-1.5 0.6-1.6 1.5l-0.3 4.5zm16.4-1.1l1.4 0.1c-0.2 1.3-1.5 2.2-3.2 2-2.1-0.1-3.3-1.6-3.1-3.9 0.1-2.2 1.5-3.6 3.5-3.5 2 0.1 3.2 1.6 3 3.8v0.5l-5.1-0.3v0.1c-0.1 1.2 0.6 2.1 1.8 2.2 0.9 0 1.5-0.4 1.7-1zm-1.4-4.1c-1.1-0.1-1.8 0.7-2 1.7l3.6 0.3c0-1.1-0.6-1.9-1.6-2zm4.1 1.2c0.1-1.2 1.3-2.1 3-1.9 1.6 0.1 2.6 1 2.6 2.3l-1.4-0.1c0-0.6-0.5-1.1-1.3-1.1-0.8-0.1-1.4 0.3-1.4 0.8q-0.1 0.7 1 1l1.2 0.4c1.4 0.4 1.9 1 1.9 2.1-0.1 1.3-1.4 2.1-3.1 2-1.7-0.1-2.8-1.1-2.8-2.4l1.4 0.1c0.1 0.7 0.6 1.1 1.5 1.2 0.9 0 1.4-0.3 1.5-0.9 0-0.4-0.2-0.7-1-0.9l-1.2-0.4q-2-0.7-1.9-2.2zm6.8 0.5c0.1-1.3 1.3-2.1 2.9-2 1.6 0.1 2.7 1.1 2.7 2.4l-1.4-0.1c0-0.7-0.5-1.1-1.4-1.2-0.8 0-1.3 0.3-1.4 0.9q0 0.6 1.1 1l1.2 0.3c1.4 0.5 1.9 1.1 1.8 2.1-0.1 1.3-1.3 2.2-3.1 2-1.7-0.1-2.8-1-2.8-2.4l1.5 0.1c0 0.7 0.5 1.2 1.4 1.2 0.9 0.1 1.5-0.3 1.5-0.8 0.1-0.5-0.2-0.8-0.9-1l-1.3-0.4q-1.9-0.6-1.8-2.1zm8.6 5.8c-1.4-0.1-2.3-1-2.2-2.3 0.1-1.2 1.1-1.9 2.8-1.9h2v-0.6c0.1-0.8-0.5-1.3-1.4-1.3-0.8-0.1-1.4 0.3-1.5 0.9l-1.4-0.1c0.1-1.3 1.3-2.2 3.1-2 1.7 0.1 2.8 1.1 2.7 2.5l-0.3 5-1.5-0.1 0.1-1.2c-0.5 0.7-1.4 1.2-2.4 1.1zm0.5-1.1c1 0.1 1.9-0.6 2-1.5v-0.6h-1.8c-0.9 0-1.4 0.4-1.4 1-0.1 0.6 0.4 1 1.2 1.1zm7.6 4.2c-1.7-0.1-2.9-1-3-2.3l1.5 0.1c0.1 0.6 0.8 1.1 1.6 1.1 1.2 0.1 1.9-0.5 1.9-1.5l0.1-1.2c-0.5 0.8-1.3 1.2-2.4 1.1-1.8-0.1-2.8-1.6-2.7-3.8 0.1-2.2 1.4-3.6 3.3-3.5 1 0.1 1.8 0.7 2.2 1.5l0.1-1.2 1.4 0.1-0.5 7c-0.1 1.8-1.5 2.8-3.5 2.6zm0.2-3.8c1.2 0 2-0.9 2.1-2.3 0.1-1.5-0.6-2.5-1.8-2.6-1.1-0.1-1.9 0.8-2 2.3-0.1 1.5 0.6 2.5 1.7 2.6zm9.7-0.3l1.4 0.1c-0.3 1.3-1.6 2.1-3.3 2-2.1-0.1-3.3-1.6-3.1-3.9 0.1-2.3 1.5-3.7 3.6-3.5 2 0.1 3.1 1.6 3 3.7l-0.1 0.6-5-0.4v0.1c-0.1 1.3 0.6 2.1 1.7 2.2 0.9 0.1 1.5-0.3 1.8-0.9zm-1.5-4.2c-1 0-1.8 0.7-2 1.8l3.6 0.2c0.1-1.1-0.6-1.9-1.6-2zm7.8-2.2l1.5 0.1-0.1 1.7 1.3 0.1v1.1l-1.4-0.1-0.3 4c0 0.6 0.3 0.9 0.9 1 0.1 0 0.4 0 0.4 0v1.1c-0.2 0.1-0.5 0.1-0.9 0-1.4-0.1-1.9-0.6-1.8-2l0.2-4.1-1-0.1 0.1-1.2 1 0.1zm3.5 9.1l0.7-9.8 1.4 0.1-0.2 3.8c0.5-0.8 1.3-1.2 2.4-1.1 1.6 0.1 2.4 1.2 2.3 2.8l-0.3 4.6-1.5-0.1 0.3-4.3c0.1-1.1-0.4-1.7-1.4-1.8-1.1-0.1-1.8 0.6-1.9 1.8l-0.3 4.1zm9.8 0.8c-1.4-0.1-2.3-1-2.2-2.3 0-1.3 1.1-2 2.8-2h1.9l0.1-0.5c0-0.8-0.5-1.3-1.4-1.4-0.8 0-1.4 0.3-1.6 1l-1.4-0.1c0.2-1.3 1.4-2.2 3.2-2.1 1.7 0.1 2.7 1.1 2.7 2.6l-0.4 4.9-1.4-0.1 0.1-1.2c-0.5 0.8-1.5 1.2-2.4 1.2zm0.5-1.2c1 0.1 1.9-0.5 1.9-1.5l0.1-0.5h-1.8c-0.9 0-1.4 0.3-1.4 0.9-0.1 0.7 0.4 1.1 1.2 1.1zm5.7-7.4l1.5 0.1-0.2 1.7h1.4l-0.1 1.2-1.3-0.1-0.3 4c0 0.6 0.2 0.9 0.8 0.9 0.2 0 0.4 0 0.5 0l-0.1 1.2c-0.1 0-0.5 0-0.8 0-1.4-0.1-2-0.7-1.9-2.1l0.3-4.1h-1.1l0.1-1.2 1.1 0.1zm-207.8 8.1c0.1-1.2 1.3-2 3-1.9 1.6 0.1 2.6 1 2.6 2.3l-1.4-0.1c0-0.6-0.5-1.1-1.4-1.1-0.8-0.1-1.3 0.3-1.3 0.9q-0.1 0.6 1 1l1.2 0.3c1.4 0.5 1.9 1 1.8 2.1 0 1.3-1.3 2.1-3.1 2-1.7-0.1-2.7-1.1-2.8-2.4l1.5 0.1c0.1 0.7 0.6 1.1 1.5 1.2 0.8 0 1.4-0.3 1.5-0.9 0-0.4-0.3-0.7-1-0.9l-1.3-0.4q-1.9-0.6-1.8-2.2zm8.6 5.9c-1.4-0.1-2.3-1-2.2-2.3 0.1-1.3 1.1-2 2.8-2h2v-0.5c0.1-0.8-0.4-1.3-1.3-1.4-0.9 0-1.5 0.3-1.6 1l-1.4-0.1c0.2-1.3 1.3-2.2 3.1-2.1 1.7 0.1 2.8 1.1 2.7 2.6l-0.3 4.9-1.4-0.1v-1.2c-0.5 0.8-1.4 1.3-2.4 1.2zm0.5-1.1c1.1 0 1.9-0.6 2-1.6v-0.5h-1.8c-0.8 0-1.4 0.3-1.4 0.9-0.1 0.7 0.4 1.1 1.2 1.2zm5.2 4c-0.1 0-0.5 0-0.6 0l0.1-1.2c0.1 0 0.4 0 0.5 0 0.7 0.1 1.1-0.2 1.3-0.9 0 0 0.2-0.4 0.2-0.4l-2.1-7.4 1.6 0.1 1.4 6 2.2-5.8 1.6 0.1-3.2 7.4c-0.7 1.7-1.5 2.2-3 2.1zm11.1-11.8l1.2 0.1-0.9 3.5-1.5-0.1zm6.3 10.5c-2.8-0.2-4.4-2.3-4.2-5.4 0.2-3.1 2.1-5 4.9-4.8 2.2 0.2 3.8 1.6 3.9 3.7l-1.5-0.1c-0.2-1.3-1.2-2.2-2.5-2.2-1.8-0.2-3.1 1.2-3.2 3.5-0.2 2.3 0.9 3.8 2.7 4 1.4 0 2.4-0.6 2.8-1.8l1.5 0.1c-0.5 2-2.1 3.1-4.4 3zm8.5 0.5c-2.1-0.1-3.3-1.6-3.2-3.9 0.2-2.3 1.6-3.7 3.7-3.5 2 0.1 3.3 1.6 3.1 3.9-0.1 2.3-1.6 3.7-3.6 3.5zm0.1-1.2c1.1 0.1 1.9-0.8 2-2.4 0.1-1.6-0.6-2.5-1.7-2.6-1.2-0.1-2 0.8-2.1 2.4-0.1 1.6 0.6 2.5 1.8 2.6zm4.4 1.4l0.5-7.2 1.4 0.1-0.1 1.2h0.1c0.4-0.8 1.2-1.3 2.3-1.2 1.6 0.1 2.4 1.2 2.3 2.8l-0.3 4.7-1.5-0.1 0.3-4.4c0.1-1.1-0.4-1.7-1.4-1.7-1-0.1-1.8 0.6-1.8 1.7l-0.3 4.2zm7.6 0.5l0.5-7.2 1.4 0.1-0.1 1.2c0.5-0.8 1.3-1.3 2.4-1.2 1.6 0.1 2.4 1.2 2.3 2.8l-0.3 4.7-1.5-0.1 0.3-4.4c0.1-1.1-0.4-1.7-1.4-1.8-1 0-1.8 0.7-1.8 1.8l-0.3 4.2zm12.5-1.3l1.4 0.1c-0.3 1.3-1.6 2.1-3.2 2-2.2-0.1-3.3-1.6-3.2-3.9 0.2-2.3 1.6-3.7 3.6-3.5 2 0.1 3.1 1.6 3 3.7l-0.1 0.6-5-0.4v0.1c-0.1 1.3 0.6 2.1 1.8 2.2 0.8 0.1 1.5-0.3 1.7-0.9zm-1.5-4.2c-1 0-1.8 0.7-1.9 1.8l3.5 0.2c0.1-1.1-0.6-1.9-1.6-2zm10.4 2.1h-1.4c-0.1-0.8-0.6-1.5-1.6-1.5-1.1-0.1-1.9 0.8-2 2.3-0.1 1.6 0.6 2.6 1.7 2.7 0.9 0 1.6-0.4 1.8-1.3l1.4 0.1c-0.2 1.5-1.5 2.5-3.3 2.4-2-0.1-3.3-1.6-3.1-4 0.1-2.2 1.6-3.6 3.6-3.5 1.9 0.2 2.9 1.4 2.9 2.8zm1.8-4l1.5 0.1-0.1 1.7 1.3 0.1v1.1l-1.4-0.1-0.3 4c0 0.6 0.3 0.9 0.9 1 0.1 0 0.3 0 0.4-0.1v1.2c-0.2 0-0.5 0.1-0.9 0-1.4-0.1-1.9-0.7-1.8-2l0.2-4.2h-1l0.1-1.2 1 0.1zm3.5 9.1l0.5-7.2 1.5 0.1-0.5 7.2zm1.3-8.2c-0.5 0-0.9-0.4-0.8-0.9 0-0.4 0.4-0.8 0.9-0.8 0.5 0.1 0.8 0.5 0.8 1 0 0.4-0.5 0.8-0.9 0.7zm4.8 8.7c-2.1-0.1-3.4-1.6-3.2-3.9 0.1-2.3 1.6-3.6 3.6-3.5 2.1 0.1 3.3 1.6 3.2 3.9-0.2 2.4-1.6 3.7-3.6 3.5zm0-1.2c1.2 0.1 2-0.8 2.1-2.4 0.1-1.5-0.6-2.5-1.7-2.6-1.2-0.1-2 0.8-2.1 2.4-0.1 1.6 0.6 2.6 1.7 2.6zm4.5 1.4l0.5-7.2 1.4 0.1-0.1 1.2c0.5-0.8 1.3-1.2 2.4-1.1 1.6 0.1 2.4 1.1 2.3 2.8l-0.3 4.6-1.5-0.1 0.3-4.3c0.1-1.1-0.4-1.7-1.4-1.8-1.1-0.1-1.8 0.6-1.9 1.7l-0.2 4.2zm12.1 0.8l-1.5-0.1 0.6-9.8 6.2 0.4-0.1 1.3-4.6-0.3-0.2 3.1 4.2 0.3-0.1 1.3-4.2-0.3zm7.4 0.6c-1.4-0.1-2.3-1-2.2-2.3 0.1-1.3 1.1-2 2.8-2h2v-0.5c0.1-0.8-0.4-1.3-1.3-1.4-0.9 0-1.5 0.3-1.6 1l-1.4-0.1c0.1-1.3 1.3-2.2 3.1-2.1 1.7 0.1 2.8 1.1 2.7 2.6l-0.3 4.9-1.5-0.1 0.1-1.2c-0.5 0.8-1.4 1.3-2.4 1.2zm0.5-1.2c1.1 0.1 1.9-0.5 2-1.5v-0.5h-1.8c-0.9 0-1.4 0.3-1.4 0.9-0.1 0.7 0.4 1.1 1.2 1.1zm4.7 1.4l0.5-7.2 1.5 0.1-0.5 7.2zm1.3-8.2c-0.5 0-0.8-0.4-0.8-0.9 0-0.4 0.4-0.8 0.9-0.8 0.5 0.1 0.8 0.5 0.8 0.9 0 0.5-0.4 0.9-0.9 0.8zm1.7 8.4l0.7-9.8 1.5 0.1-0.7 9.8zm7.9-1.6l1.4 0.1c-0.3 1.3-1.6 2.1-3.2 2-2.1-0.1-3.3-1.6-3.2-3.9 0.2-2.2 1.6-3.6 3.6-3.5 2 0.1 3.1 1.6 3 3.8v0.5l-5.1-0.4v0.1c-0.1 1.3 0.6 2.2 1.8 2.2 0.8 0.1 1.5-0.3 1.7-0.9zm-1.5-4.1c-1-0.1-1.8 0.6-1.9 1.7l3.6 0.3c0-1.1-0.7-2-1.7-2zm6.7 6.7c-1.8-0.1-2.9-1.7-2.8-3.9 0.2-2.3 1.4-3.7 3.3-3.5 1 0 1.8 0.6 2.1 1.4l0.3-3.8 1.5 0.1-0.7 9.8-1.4-0.1 0.1-1.2c-0.5 0.8-1.4 1.2-2.4 1.2zm0.8-6.2c-1.2 0-2 0.9-2.1 2.4-0.1 1.5 0.6 2.5 1.7 2.6 1.2 0 2-0.9 2.1-2.4 0.1-1.5-0.6-2.5-1.7-2.6zm6.2 0.2h-1.2l0.8-3.6 1.5 0.1z"/>
	<path fill-rule="evenodd" class="s4" d="m17.5 18.2q-1-0.1-1.8-0.6-0.8-0.6-1.2-1.5-0.4-0.9-0.3-2.2 0.1-1.3 0.6-2.1 0.5-0.9 1.4-1.4 0.8-0.4 1.9-0.3 1.4 0 2.2 0.8 0.7 0.8 0.9 2.1h-1.3q-0.1-0.8-0.5-1.3-0.5-0.5-1.4-0.6-0.7 0-1.3 0.3-0.5 0.3-0.9 1-0.3 0.6-0.3 1.6-0.1 0.9 0.1 1.6 0.3 0.7 0.8 1.1 0.5 0.4 1.2 0.4 0.9 0.1 1.5-0.4 0.5-0.5 0.7-1.3l1.3 0.1q-0.2 0.9-0.7 1.5-0.5 0.6-1.2 1-0.7 0.3-1.7 0.2zm6.2 0.4q-0.9-0.1-1.4-0.6-0.5-0.4-0.5-1.2 0.1-0.7 0.5-1.1 0.5-0.4 1.5-0.5l2-0.3q0.1-0.7-0.2-1-0.3-0.4-0.9-0.4-0.6-0.1-0.9 0.2-0.4 0.2-0.5 0.7l-1.2-0.2q0.2-0.9 0.9-1.3 0.7-0.5 1.7-0.4 1.2 0.1 1.8 0.7 0.6 0.7 0.5 1.9l-0.2 2.2q0 0.2 0.1 0.3 0.1 0.1 0.2 0.1h0.2v1q-0.1 0-0.2 0-0.1 0-0.3 0-0.3-0.1-0.6-0.2-0.3-0.1-0.4-0.4 0-0.2-0.1-0.4-0.1 0.2-0.3 0.3-0.3 0.3-0.7 0.5-0.5 0.1-1 0.1zm2-0.9q0.1-0.2 0.2-0.3l-0.2-0.1q0 0.2 0 0.4zm-1.8-0.1q0.6 0.1 1-0.1 0.3-0.2 0.6-0.5 0.2-0.4 0.2-0.8l0.1-0.4-1.8 0.2q-0.5 0.1-0.7 0.3-0.3 0.2-0.3 0.5 0 0.4 0.2 0.6 0.3 0.2 0.7 0.2zm6.5 1.4q-0.8-0.1-1.3-0.3-0.6-0.3-0.9-0.8-0.2-0.5-0.2-1h1.2q0 0.5 0.3 0.8 0.3 0.3 1 0.3 0.6 0.1 0.9-0.1 0.3-0.2 0.3-0.5 0.1-0.2 0-0.4-0.1-0.2-0.4-0.3-0.3-0.1-0.9-0.2-0.8-0.3-1.3-0.5-0.5-0.3-0.7-0.6-0.2-0.4-0.1-0.9 0-0.8 0.6-1.2 0.7-0.5 1.8-0.4 0.8 0 1.3 0.3 0.5 0.3 0.7 0.8 0.3 0.4 0.3 1h-1.2q0-0.4-0.2-0.6-0.1-0.2-0.4-0.4-0.2-0.1-0.6-0.1-0.5-0.1-0.8 0.1-0.3 0.2-0.3 0.6 0 0.2 0.1 0.4 0.1 0.2 0.4 0.3 0.2 0.1 0.7 0.2 0.9 0.3 1.4 0.5 0.5 0.3 0.7 0.6 0.2 0.4 0.2 0.8-0.1 0.6-0.4 0.9-0.3 0.4-0.9 0.6-0.5 0.1-1.3 0.1zm6 0.4q-0.8-0.1-1.4-0.5-0.6-0.4-0.9-1.1-0.3-0.7-0.2-1.6 0-1 0.4-1.6 0.4-0.7 1-1 0.7-0.4 1.5-0.3 0.8 0 1.4 0.4 0.5 0.4 0.8 1.2 0.3 0.7 0.3 1.7l-0.1 0.2-4.2-0.2q0 0.8 0.4 1.3 0.4 0.4 1.1 0.5 0.5 0 0.9-0.2 0.3-0.2 0.5-0.6l1.2 0.1q-0.3 0.8-1 1.3-0.7 0.5-1.7 0.4zm-1.3-3.7l3 0.2q0-0.8-0.4-1.2-0.4-0.4-1-0.4-0.6-0.1-1 0.3-0.5 0.4-0.6 1.1zm9.9 4.1l0.5-2-1.3-0.1-0.5 2h-1.1l0.5-2.1h-0.8l0.2-0.9h0.9l0.4-1.7-0.9-0.1 0.2-0.9h0.9l0.5-2h1l-0.5 2.1 1.3 0.1 0.5-2.1 1.1 0.1-0.5 2 0.8 0.1-0.2 0.9h-0.9l-0.4 1.7 0.9 0.1-0.2 0.9h-0.9l-0.5 2zm-0.6-3.1l1.3 0.1 0.4-1.7-1.3-0.1zm6.7 3.6q-1-0.1-1.6-0.6-0.6-0.5-0.7-1.3h1.2q0.1 0.3 0.4 0.6 0.3 0.2 0.8 0.2 0.9 0.1 1.5-0.6 0.4-0.6 0.6-1.8-0.3 0.3-0.7 0.5-0.6 0.4-1.3 0.3-0.8 0-1.3-0.4-0.6-0.4-0.9-1-0.3-0.6-0.2-1.4 0-0.9 0.4-1.5 0.4-0.6 1.1-0.9 0.6-0.3 1.4-0.2 1.1 0 1.7 0.5 0.6 0.5 0.8 1.4 0.3 0.8 0.2 1.9 0 1-0.3 1.8-0.2 0.8-0.6 1.4-0.4 0.6-1 0.9-0.6 0.3-1.5 0.2zm2.2-3.5q0.1-0.2 0.2-0.5h-0.2q0 0.2 0 0.5zm-1.8-0.2q0.5 0 0.9-0.1 0.4-0.2 0.6-0.6 0.3-0.3 0.3-0.8 0-0.5-0.1-0.9-0.2-0.4-0.6-0.7-0.3-0.2-0.8-0.3-0.5 0-0.9 0.2-0.3 0.2-0.6 0.6-0.2 0.3-0.2 0.8 0 0.6 0.1 0.9 0.2 0.4 0.5 0.7 0.4 0.2 0.8 0.2zm6.8 4.2q-0.9-0.1-1.5-0.4-0.7-0.3-1-0.8-0.4-0.6-0.3-1.3 0-0.9 0.6-1.4 0.4-0.4 1-0.6-0.4-0.2-0.7-0.5-0.4-0.5-0.3-1.2 0-0.6 0.4-1.1 0.3-0.5 0.9-0.7 0.6-0.2 1.5-0.2 0.8 0.1 1.3 0.4 0.6 0.3 0.9 0.8 0.3 0.5 0.2 1.1 0 0.8-0.5 1.2-0.3 0.2-0.7 0.4 0.6 0.2 1 0.7 0.4 0.6 0.4 1.5-0.1 0.7-0.5 1.2-0.4 0.5-1.1 0.7-0.7 0.2-1.6 0.2zm-1.2-4.5q0.2 0.1 0.4 0.2v-0.3q-0.2 0.1-0.4 0.1zm3 0.2q-0.2-0.1-0.4-0.1v0.2q0.2 0 0.4-0.1zm-1.7 3.2q0.8 0 1.3-0.3 0.5-0.3 0.5-0.9 0.1-0.7-0.3-1.1-0.4-0.4-1.3-0.5-0.9 0-1.4 0.3-0.5 0.4-0.5 1 0 0.7 0.4 1.1 0.5 0.3 1.3 0.4zm0.2-3.7q0.7 0 1.1-0.2 0.4-0.3 0.4-0.9 0-0.5-0.3-0.8-0.3-0.4-1-0.4-0.7 0-1.1 0.2-0.4 0.3-0.4 0.8 0 0.6 0.3 0.9 0.4 0.3 1 0.4zm6.8 5.2q-0.9 0-1.6-0.6-0.7-0.5-1-1.4-0.3-1-0.3-2.2 0.1-1.3 0.6-2.2 0.4-0.9 1.2-1.3 0.7-0.5 1.7-0.4 1 0.1 1.6 0.6 0.7 0.5 1 1.5 0.4 0.9 0.3 2.2-0.1 1.2-0.5 2.1-0.5 0.9-1.2 1.4-0.8 0.4-1.8 0.3zm0.1-1.1q0.9 0.1 1.5-0.6 0.6-0.8 0.7-2.2 0-1-0.2-1.6-0.1-0.7-0.6-1.1-0.4-0.4-1-0.4-0.6-0.1-1.1 0.3-0.4 0.3-0.7 0.9-0.3 0.7-0.3 1.6-0.1 1.5 0.3 2.3 0.5 0.8 1.4 0.8zm5.1 1.3q0.1-1.2 0.5-2.4 0.4-1.1 1.1-2.2 0.6-1 1.5-1.9l-4.3-0.3 0.1-1.1 5.6 0.4-0.1 1q-1 1-1.7 2-0.7 1-1 2.1-0.4 1.1-0.5 2.5z"/>
	<path class="s5" d="m291.2 119h-226c-5.5 0-10 4.5-10 10v46c0 5.5 4.5 10 10 10h226c5.5 0 10-4.5 10-10v-46c0-5.5-4.5-10-10-10z"/>
	<path class="s6" d="m66.2 142.5h221"/>
	<g>
	</g>
	<path class="s7" d="m63.2 163h126v16h-126z"/>
	<path fill-rule="evenodd" class="s3" d="m73.6 158h-1.4v-4.1h-4.7v4.1h-1.4v-9.2h1.4v3.9h4.7v-3.9h1.4zm3.3 0.2c-1.3 0-2.2-0.9-2.2-2.1 0-1.1 0.9-1.8 2.5-1.9l1.8-0.1v-0.6c0-0.7-0.5-1.1-1.4-1.1-0.7 0-1.2 0.3-1.4 0.9h-1.3c0.1-1.2 1.1-2.1 2.8-2.1 1.6 0 2.6 0.9 2.6 2.2v4.6h-1.3v-1.1c-0.4 0.8-1.2 1.3-2.1 1.3zm0.4-1.1c0.9 0 1.7-0.7 1.7-1.6v-0.5l-1.7 0.1c-0.8 0.1-1.2 0.4-1.2 1 0 0.6 0.4 1 1.2 1zm10.1-5.7l-2.4 6.6h-1.5l-2.4-6.6h1.5l1.6 5.3h0.1l1.6-5.3zm0.9 6.6v-6.6h1.3v6.6zm0.7-7.6c-0.4 0-0.8-0.4-0.8-0.8 0-0.4 0.4-0.8 0.8-0.8 0.5 0 0.8 0.4 0.8 0.8 0 0.4-0.3 0.8-0.8 0.8zm2.1 7.6v-6.6h1.3v1.1h0.1c0.3-0.8 1-1.3 2.1-1.3 1.4 0 2.3 1 2.3 2.5v4.3h-1.4v-4c0-1-0.5-1.6-1.4-1.6-1 0-1.6 0.7-1.6 1.8v3.8zm9.9 2.6c-1.5 0-2.7-0.9-2.9-2h1.4c0.2 0.5 0.8 0.9 1.6 0.9 1.1 0 1.7-0.6 1.7-1.5v-1.1c-0.4 0.7-1.2 1.2-2.1 1.2-1.7 0-2.8-1.3-2.8-3.4 0-2.1 1.1-3.4 2.8-3.4 0.9 0 1.7 0.4 2.1 1.2v-1.1h1.4v6.5c0 1.6-1.3 2.7-3.2 2.7zm0-3.7c1.1 0 1.8-0.8 1.8-2.2 0-1.4-0.7-2.3-1.8-2.3-1 0-1.7 0.9-1.7 2.3 0 1.4 0.7 2.2 1.7 2.2zm7.6-7.1h1.3v1.6h1.3v1h-1.3v3.7c0 0.6 0.3 0.9 0.9 0.9 0.1 0 0.3 0 0.4-0.1v1.1c-0.1 0.1-0.4 0.1-0.8 0.1-1.3 0-1.8-0.5-1.8-1.8v-3.9h-1v-1h1zm3.7 8.2v-6.7h1.4v1.2c0.2-0.8 0.8-1.3 1.6-1.3q0.3 0 0.5 0.1v1.3c-0.1-0.1-0.4-0.1-0.7-0.1-0.8 0-1.4 0.6-1.4 1.5v4zm6.9 0.1c-2 0-3.2-1.3-3.2-3.4 0-2.2 1.3-3.5 3.2-3.5 1.9 0 3.1 1.3 3.1 3.5 0 2.1-1.2 3.4-3.1 3.4zm0-1.1c1 0 1.7-0.8 1.7-2.3 0-1.5-0.7-2.3-1.7-2.3-1.1 0-1.8 0.8-1.8 2.3 0 1.5 0.7 2.3 1.8 2.3zm9.9-5.7v6.7h-1.3v-1.1c-0.4 0.8-1.1 1.2-2.1 1.2-1.5 0-2.3-0.9-2.3-2.4v-4.4h1.3v4.1c0 1 0.5 1.6 1.5 1.6 0.9 0 1.5-0.7 1.5-1.8v-3.9zm5 6.8c-1 0-1.8-0.4-2.2-1.2v1.1h-1.3v-9.1h1.3v3.6h0.1c0.4-0.8 1.1-1.3 2.1-1.3 1.6 0 2.7 1.4 2.7 3.5 0 2.1-1 3.4-2.7 3.4zm-0.4-5.7c-1.1 0-1.8 0.9-1.8 2.3 0 1.4 0.7 2.3 1.8 2.3 1.1 0 1.7-0.9 1.7-2.3 0-1.4-0.6-2.3-1.7-2.3zm4.3 5.6v-9.1h1.3v9.1zm7.2-1.9h1.3c-0.1 1.2-1.3 2-2.8 2-2 0-3.2-1.3-3.2-3.4 0-2.1 1.2-3.5 3.1-3.5 1.9 0 3 1.3 3 3.4v0.4h-4.7v0.1c0 1.2 0.7 1.9 1.8 1.9 0.8 0 1.4-0.4 1.5-0.9zm-1.6-3.8c-0.9 0-1.6 0.8-1.7 1.8h3.3c0-1.1-0.6-1.8-1.6-1.8zm6.8 5.7v-6.7h1.3v6.7zm0.7-7.6c-0.4 0-0.8-0.4-0.8-0.8 0-0.5 0.4-0.8 0.8-0.8 0.5 0 0.8 0.3 0.8 0.8 0 0.4-0.3 0.8-0.8 0.8zm2.1 7.6v-6.7h1.3v1.2h0.1c0.3-0.8 1-1.3 2.1-1.3 1.4 0 2.3 1 2.3 2.5v4.3h-1.4v-4c0-1-0.5-1.6-1.4-1.6-1 0-1.6 0.7-1.6 1.7v3.9zm6.9-4.8c0-1.2 1.1-2 2.7-2 1.4 0 2.5 0.9 2.5 2h-1.3c0-0.6-0.5-0.9-1.3-0.9-0.7 0-1.2 0.3-1.2 0.9q0 0.6 1 0.8l1.1 0.3c1.4 0.3 1.9 0.8 1.9 1.8 0 1.2-1.1 2-2.8 2-1.6 0-2.6-0.8-2.7-2h1.3c0.1 0.6 0.6 1 1.5 1 0.8 0 1.3-0.3 1.3-0.9 0-0.4-0.2-0.6-0.9-0.8l-1.2-0.3q-1.8-0.5-1.9-1.9zm6.9-3.4h1.3v1.5h1.3v1.1h-1.3v3.7c0 0.6 0.3 0.8 0.8 0.8 0.2 0 0.4 0 0.5 0v1.1c-0.2 0-0.5 0.1-0.8 0.1-1.3 0-1.8-0.5-1.8-1.8v-3.9h-1v-1.1h1zm5.6 8.4c-1.3 0-2.2-0.8-2.2-2 0-1.2 0.9-1.9 2.4-2l1.9-0.1v-0.5c0-0.7-0.5-1.2-1.4-1.2-0.8 0-1.3 0.4-1.4 1h-1.3c0.1-1.2 1.1-2.1 2.8-2.1 1.6 0 2.6 0.9 2.6 2.2v4.6h-1.3v-1.1c-0.4 0.7-1.2 1.2-2.1 1.2zm0.4-1.1c0.9 0 1.7-0.6 1.7-1.5v-0.5l-1.7 0.1c-0.8 0-1.3 0.4-1.3 1 0 0.6 0.5 0.9 1.3 0.9zm4.4 1v-9.2h1.4v9.2zm2.8 0v-9.2h1.4v9.2zm2.8 0v-6.7h1.4v6.7zm0.7-7.7c-0.5 0-0.8-0.3-0.8-0.7 0-0.5 0.3-0.8 0.8-0.8 0.4 0 0.8 0.3 0.8 0.8 0 0.4-0.4 0.7-0.8 0.7zm2.1 7.7v-6.7h1.3v1.1c0.4-0.7 1.1-1.2 2.1-1.2 1.5 0 2.3 1 2.3 2.5v4.3h-1.4v-4.1c0-1-0.4-1.5-1.4-1.5-0.9 0-1.6 0.7-1.6 1.7v3.9zm10 2.5c-1.6 0-2.8-0.8-2.9-2h1.3c0.2 0.6 0.8 1 1.6 1 1.1 0 1.7-0.7 1.7-1.6v-1.1c-0.4 0.8-1.2 1.2-2.1 1.2-1.7 0-2.8-1.3-2.8-3.4 0-2.1 1.1-3.4 2.8-3.4 1 0 1.7 0.5 2.2 1.3v-1.2h1.3v6.6c0 1.6-1.2 2.6-3.1 2.6zm0-3.6c1 0 1.7-0.9 1.7-2.3 0-1.3-0.7-2.2-1.7-2.2-1.1 0-1.8 0.9-1.8 2.2 0 1.4 0.7 2.3 1.8 2.3zm5.5 1.2c-0.5 0-0.8-0.4-0.8-0.9 0-0.4 0.3-0.8 0.8-0.8 0.5 0 0.8 0.4 0.8 0.8 0 0.5-0.3 0.9-0.8 0.9zm3.4 0c-0.4 0-0.8-0.4-0.8-0.9 0-0.4 0.4-0.8 0.8-0.8 0.5 0 0.8 0.4 0.8 0.8 0 0.5-0.3 0.9-0.8 0.9zm3.4 0c-0.4 0-0.8-0.4-0.8-0.9 0-0.4 0.4-0.8 0.8-0.8 0.5 0 0.9 0.4 0.9 0.8 0 0.5-0.4 0.9-0.9 0.9zm4.4-0.1v-6.7h1.4v6.7zm0.7-7.7c-0.5 0-0.8-0.3-0.8-0.7 0-0.5 0.3-0.8 0.8-0.8 0.4 0 0.8 0.3 0.8 0.8 0 0.4-0.4 0.7-0.8 0.7zm4.7 7.7v-6.7h1.3v1.1c0.4-0.7 1.1-1.2 2.1-1.2 1.5 0 2.4 1 2.4 2.5v4.3h-1.4v-4.1c0-1-0.5-1.5-1.4-1.5-1 0-1.6 0.7-1.6 1.7v3.9zm11.5-2h1.3c-0.2 1.3-1.4 2.1-2.9 2.1-2 0-3.1-1.3-3.1-3.4 0-2.1 1.2-3.5 3-3.5 1.9 0 3.1 1.3 3.1 3.3v0.5h-4.8v0.1c0 1.2 0.7 1.9 1.8 1.9 0.8 0 1.4-0.4 1.6-1zm-1.7-3.7c-0.9 0-1.6 0.7-1.7 1.7h3.4c0-1-0.7-1.7-1.7-1.7zm8.5 3.7h1.3c-0.1 1.3-1.3 2.1-2.8 2.1-2 0-3.2-1.3-3.2-3.4 0-2.1 1.2-3.5 3.1-3.5 1.9 0 3 1.3 3 3.3v0.5h-4.7v0.1c0 1.2 0.7 1.9 1.8 1.9 0.8 0 1.4-0.4 1.5-1zm-1.6-3.7c-0.9 0-1.6 0.7-1.7 1.7h3.4c-0.1-1-0.7-1.7-1.7-1.7zm6.6 5.8c-1.7 0-2.8-1.3-2.8-3.4 0-2.1 1.1-3.5 2.8-3.5 0.9 0 1.7 0.5 2.1 1.2v-3.6h1.4v9.2h-1.3v-1.1h-0.1c-0.4 0.7-1.1 1.2-2.1 1.2zm0.4-5.7c-1.1 0-1.8 0.9-1.8 2.3 0 1.4 0.7 2.3 1.8 2.3 1 0 1.7-0.9 1.7-2.3 0-1.4-0.7-2.3-1.7-2.3zm7.2 5.6v-9.2h1.3v3.6h0.1c0.3-0.7 1.1-1.2 2.1-1.2 1.5 0 2.3 1 2.3 2.5v4.3h-1.3v-4c0-1-0.5-1.6-1.5-1.6-1 0-1.6 0.7-1.6 1.7v3.9zm11.6-2h1.3c-0.2 1.3-1.4 2.1-2.9 2.1-2 0-3.2-1.3-3.2-3.4 0-2.1 1.2-3.5 3.1-3.5 1.9 0 3 1.3 3 3.3v0.5h-4.7v0.1c0 1.2 0.7 1.9 1.8 1.9 0.8 0 1.4-0.4 1.6-1zm-1.7-3.7c-0.9 0-1.6 0.7-1.7 1.7h3.4c-0.1-1-0.7-1.7-1.7-1.7zm4.1 5.7v-9.2h1.4v9.2zm6.3-6.8c1.7 0 2.8 1.4 2.8 3.5 0 2.1-1.1 3.4-2.8 3.4-1 0-1.7-0.5-2.1-1.2v3.3h-1.4v-8.9h1.3v1.2h0.1c0.3-0.8 1.1-1.3 2.1-1.3zm-0.4 5.8c1.1 0 1.8-0.9 1.8-2.3 0-1.4-0.7-2.3-1.8-2.3-1 0-1.7 0.9-1.7 2.3 0 1.4 0.7 2.3 1.7 2.3zm-201.7 7.8h1.1l-0.6 3.4h-1.4zm2.5 9.2v-6.7h1.3v1.1c0.2-0.8 0.8-1.2 1.6-1.2q0.3 0 0.5 0v1.3c-0.1 0-0.3-0.1-0.6-0.1-0.9 0-1.4 0.6-1.4 1.6v4zm8.4-2h1.3c-0.2 1.2-1.4 2.1-2.9 2.1-2 0-3.2-1.3-3.2-3.5 0-2 1.2-3.4 3.1-3.4 1.9 0 3 1.3 3 3.3v0.5h-4.7c0 1.2 0.7 2 1.8 2 0.8 0 1.4-0.4 1.6-1zm-1.7-3.7c-0.9 0-1.6 0.7-1.7 1.7h3.4c-0.1-1-0.7-1.7-1.7-1.7zm4.1 5.7v-6.7h1.3v1.1c0.3-0.7 1-1.2 1.9-1.2 1 0 1.6 0.4 1.9 1.3 0.4-0.8 1.2-1.3 2.1-1.3 1.3 0 2.2 0.8 2.2 2.2v4.6h-1.4v-4.3c0-0.9-0.4-1.4-1.3-1.4-0.8 0-1.3 0.6-1.3 1.5v4.2h-1.4v-4.4c0-0.8-0.5-1.3-1.2-1.3-0.9 0-1.4 0.7-1.4 1.5v4.2zm13.6 0.1c-1.9 0-3.2-1.3-3.2-3.5 0-2.1 1.3-3.4 3.2-3.4 1.9 0 3.1 1.3 3.1 3.4 0 2.2-1.2 3.5-3.1 3.5zm0-1.1c1 0 1.7-0.9 1.7-2.4 0-1.5-0.7-2.3-1.7-2.3-1.1 0-1.8 0.8-1.8 2.3 0 1.5 0.7 2.4 1.8 2.4zm4.6-7.3h1.4v1.6h1.2v1.1h-1.2v3.6c0 0.6 0.2 0.9 0.8 0.9 0.1 0 0.3 0 0.4 0v1c-0.1 0.1-0.4 0.1-0.7 0.1-1.4 0-1.9-0.5-1.9-1.8v-3.8h-1v-1.1h1zm8 6.3h1.3c-0.2 1.2-1.3 2.1-2.8 2.1-2 0-3.2-1.4-3.2-3.5 0-2.1 1.2-3.5 3.1-3.5 1.9 0 3 1.3 3 3.4v0.4h-4.7v0.1c0 1.2 0.7 2 1.8 2 0.8 0 1.3-0.4 1.5-1zm-1.6-3.8c-1 0-1.6 0.8-1.7 1.8h3.3c0-1-0.6-1.8-1.6-1.8zm4.1 5.7v-9.1h1.4v9.1zm3.4 2.5c-0.1 0-0.4 0-0.5 0v-1.1c0.1 0 0.3 0 0.4 0 0.7 0 1-0.3 1.2-0.9 0-0.1 0.1-0.5 0.1-0.5l-2.4-6.6h1.5l1.7 5.4 1.7-5.4h1.5l-2.5 7c-0.6 1.6-1.3 2.1-2.7 2.1zm10.6-2.3c-1.3 0-2.3-0.9-2.3-2.1 0-1.1 0.9-1.8 2.5-1.9l1.8-0.1v-0.6c0-0.7-0.5-1.1-1.3-1.1-0.8 0-1.3 0.3-1.4 0.9h-1.3c0.1-1.2 1.1-2.1 2.8-2.1 1.6 0 2.6 0.9 2.6 2.2v4.6h-1.3v-1.1c-0.4 0.8-1.3 1.3-2.1 1.3zm0.3-1.1c1 0 1.7-0.7 1.7-1.6v-0.5l-1.6 0.1c-0.8 0.1-1.3 0.4-1.3 1 0 0.6 0.5 1 1.2 1zm4.3-3.9c0-1.1 1.1-2 2.6-2 1.5 0 2.6 0.9 2.6 2.1h-1.3c0-0.6-0.5-1-1.3-1-0.7 0-1.2 0.3-1.2 0.9q0 0.6 1 0.8l1.1 0.3c1.4 0.3 1.9 0.8 1.9 1.8 0 1.2-1.2 2.1-2.8 2.1-1.6 0-2.6-0.9-2.7-2.1h1.3c0.1 0.7 0.6 1 1.5 1 0.8 0 1.3-0.3 1.3-0.9 0-0.4-0.3-0.6-1-0.8l-1.2-0.3q-1.8-0.4-1.8-1.9zm6.3 0c0-1.1 1.1-2 2.6-2 1.5 0 2.6 0.9 2.6 2.1h-1.3c-0.1-0.6-0.5-1-1.3-1-0.8 0-1.2 0.3-1.2 0.9q-0.1 0.6 1 0.8l1.1 0.3c1.3 0.3 1.8 0.8 1.8 1.8 0 1.2-1.1 2.1-2.7 2.1-1.6 0-2.7-0.9-2.8-2.1h1.4c0.1 0.7 0.6 1 1.4 1 0.9 0 1.4-0.3 1.4-0.9 0-0.4-0.3-0.6-1-0.8l-1.2-0.3q-1.8-0.4-1.8-1.9zm6.5 4.8v-6.6h1.3v6.6zm0.7-7.6c-0.4 0-0.8-0.4-0.8-0.8 0-0.4 0.4-0.8 0.8-0.8 0.5 0 0.8 0.4 0.8 0.8 0 0.4-0.3 0.8-0.8 0.8zm2 2.8c0-1.1 1-2 2.6-2 1.5 0 2.5 0.9 2.6 2.1h-1.3c-0.1-0.6-0.6-1-1.3-1-0.8 0-1.3 0.3-1.3 0.9q0 0.6 1 0.8l1.2 0.3c1.3 0.3 1.8 0.8 1.8 1.8 0 1.2-1.1 2.1-2.8 2.1-1.5 0-2.6-0.9-2.7-2.1h1.4c0.1 0.7 0.6 1 1.4 1 0.8 0 1.3-0.3 1.3-0.9 0-0.4-0.2-0.6-0.9-0.8l-1.2-0.3q-1.8-0.4-1.8-1.9zm6.8-3.4h1.4v1.6h1.2v1h-1.2v3.7c0 0.6 0.2 0.9 0.8 0.9 0.1 0 0.3 0 0.4-0.1v1.1c-0.1 0.1-0.4 0.1-0.7 0.1-1.4 0-1.9-0.5-1.9-1.8v-3.9h-1v-1h1zm5.6 8.3c-1.3 0-2.2-0.8-2.2-2 0-1.1 0.9-1.9 2.5-2l1.8-0.1v-0.5c0-0.7-0.5-1.2-1.3-1.2-0.8 0-1.3 0.4-1.4 1h-1.3c0-1.2 1.1-2.1 2.7-2.1 1.6 0 2.7 0.9 2.7 2.2v4.6h-1.3v-1.1h-0.1c-0.4 0.8-1.2 1.2-2.1 1.2zm0.4-1.1c1 0 1.7-0.6 1.7-1.5v-0.5l-1.6 0.1c-0.9 0-1.3 0.4-1.3 1 0 0.6 0.5 0.9 1.2 0.9zm4.4 1v-6.7h1.3v1.2c0.4-0.8 1.1-1.3 2.1-1.3 1.5 0 2.4 1 2.4 2.5v4.3h-1.4v-4c0-1-0.5-1.6-1.4-1.6-1 0-1.6 0.7-1.6 1.7v3.9zm7.5-8.2h1.3v1.5h1.3v1.1h-1.3v3.7c0 0.6 0.3 0.8 0.9 0.8 0.1 0 0.3 0 0.4 0v1.1c-0.2 0-0.5 0.1-0.8 0.1-1.3 0-1.8-0.6-1.8-1.8v-3.9h-1v-1.1h1zm4.8 8.4c-0.5 0-0.9-0.4-0.9-0.9 0-0.4 0.4-0.8 0.9-0.8 0.4 0 0.8 0.4 0.8 0.8 0 0.5-0.4 0.9-0.8 0.9zm2.8-5.9h-1.1l0.6-3.4h1.4z"/>
	<path fill-rule="evenodd" class="s4" d="m69.3 136.2q-1.1 0-1.9-0.5-0.8-0.5-1.3-1.4-0.4-0.9-0.4-2.2 0-1.2 0.4-2.2 0.5-0.9 1.3-1.4 0.8-0.5 1.9-0.5 1.4 0 2.2 0.7 0.8 0.8 1.1 2.1h-1.3q-0.1-0.8-0.6-1.2-0.5-0.5-1.4-0.5-0.7 0-1.3 0.4-0.5 0.3-0.8 1-0.3 0.7-0.3 1.6 0 0.9 0.3 1.6 0.3 0.7 0.8 1 0.6 0.4 1.3 0.4 0.9 0 1.4-0.5 0.5-0.5 0.7-1.4l1.2 0.1q-0.1 0.9-0.5 1.5-0.5 0.7-1.2 1-0.7 0.4-1.6 0.4zm6.2-0.1q-1 0-1.5-0.4-0.6-0.4-0.6-1.2 0-0.7 0.5-1.1 0.5-0.5 1.4-0.7l2-0.3q0-0.7-0.3-1.1-0.3-0.3-0.9-0.3-0.6 0-0.9 0.3-0.3 0.2-0.5 0.7l-1.2-0.1q0.2-0.9 0.9-1.4 0.6-0.5 1.7-0.5 1.2 0 1.8 0.7 0.6 0.6 0.6 1.7v2.3q0 0.2 0.1 0.3 0 0.1 0.2 0.1h0.2v0.9q0 0-0.2 0-0.1 0-0.2 0-0.4 0-0.7-0.1-0.2-0.1-0.4-0.4 0-0.2-0.1-0.4-0.1 0.2-0.3 0.4-0.2 0.3-0.7 0.5-0.4 0.1-0.9 0.1zm1.9-1q0.1-0.1 0.1-0.3h-0.1q0 0.1 0 0.3zm-1.8 0.1q0.6 0 0.9-0.2 0.4-0.2 0.6-0.6 0.2-0.3 0.2-0.8v-0.4l-1.7 0.4q-0.5 0.1-0.7 0.3-0.2 0.2-0.2 0.5 0 0.4 0.2 0.6 0.3 0.2 0.7 0.2zm6.6 0.9q-0.8 0-1.4-0.2-0.5-0.3-0.9-0.7-0.3-0.5-0.3-1l1.2-0.1q0.1 0.5 0.4 0.8 0.3 0.3 1 0.3 0.6 0 0.9-0.2 0.3-0.2 0.3-0.6 0-0.2-0.1-0.3-0.1-0.2-0.4-0.3-0.3-0.1-0.9-0.2-0.9-0.2-1.4-0.4-0.4-0.2-0.7-0.5-0.2-0.4-0.2-0.9 0-0.8 0.6-1.3 0.6-0.5 1.8-0.5 0.7 0 1.2 0.3 0.6 0.2 0.8 0.7 0.3 0.4 0.4 0.9l-1.2 0.1q0-0.3-0.2-0.5-0.2-0.3-0.4-0.4-0.3-0.1-0.6-0.1-0.6 0-0.9 0.2-0.3 0.2-0.3 0.6 0 0.3 0.2 0.4 0.1 0.2 0.4 0.3 0.3 0.1 0.7 0.2 1 0.1 1.5 0.4 0.5 0.2 0.7 0.5 0.2 0.3 0.2 0.8 0 0.6-0.3 0.9-0.3 0.4-0.8 0.6-0.6 0.2-1.3 0.2zm6 0q-0.9 0-1.5-0.3-0.6-0.4-0.9-1.1-0.4-0.7-0.4-1.6 0-0.9 0.4-1.6 0.3-0.7 0.9-1.1 0.6-0.4 1.5-0.4 0.8 0 1.4 0.4 0.6 0.4 0.9 1 0.3 0.7 0.3 1.7v0.3h-4.2q0.1 0.9 0.5 1.3 0.4 0.4 1.1 0.4 0.5 0 0.9-0.2 0.3-0.3 0.4-0.7l1.2 0.1q-0.2 0.8-0.9 1.3-0.6 0.5-1.6 0.5zm-1.6-3.6h3q0-0.7-0.4-1.1-0.4-0.4-1-0.4-0.7 0-1.1 0.4-0.4 0.4-0.5 1.1zm10.2 3.5l0.3-2h-1.3l-0.3 2h-1.1l0.4-2h-0.9l0.2-1h0.9l0.3-1.8h-0.9l0.1-0.9h0.9l0.4-2.1h1l-0.3 2.1h1.3l0.3-2.1h1.1l-0.4 2.1h0.9l-0.2 0.9h-0.9l-0.3 1.8h0.9l-0.1 1h-1l-0.3 2zm-0.8-3h1.3l0.3-1.8h-1.3zm6.9 3.2q-1 0-1.6-0.5-0.6-0.5-0.9-1.3l1.2-0.1q0.2 0.4 0.5 0.6 0.3 0.2 0.8 0.2 1 0 1.4-0.7 0.4-0.6 0.5-1.9-0.2 0.4-0.6 0.6-0.5 0.4-1.3 0.4-0.8 0-1.3-0.3-0.6-0.4-0.9-1-0.4-0.6-0.4-1.4 0-0.8 0.4-1.5 0.3-0.6 1-0.9 0.6-0.4 1.4-0.4 1 0 1.7 0.5 0.6 0.4 0.9 1.3 0.3 0.8 0.3 1.9 0 1-0.1 1.8-0.2 0.9-0.6 1.5-0.3 0.5-0.9 0.9-0.6 0.3-1.5 0.3zm1.9-3.7q0.2-0.2 0.3-0.4l-0.3-0.1q0 0.3 0 0.5zm-1.7 0q0.5 0 0.9-0.2 0.3-0.2 0.5-0.6 0.2-0.3 0.2-0.9 0-0.5-0.2-0.9-0.1-0.4-0.5-0.6-0.4-0.2-0.9-0.2-0.5 0-0.8 0.2-0.4 0.2-0.6 0.6-0.2 0.4-0.2 0.9 0 0.5 0.2 0.9 0.2 0.4 0.6 0.6 0.3 0.2 0.8 0.2zm7 3.7q-0.9 0-1.5-0.3-0.7-0.2-1.1-0.8-0.4-0.5-0.4-1.2 0-0.9 0.5-1.4 0.4-0.5 1.1-0.7-0.5-0.2-0.8-0.5-0.4-0.4-0.4-1.1 0-0.6 0.3-1.1 0.3-0.5 0.9-0.8 0.6-0.3 1.4-0.3 0.8 0 1.4 0.3 0.6 0.3 0.9 0.8 0.4 0.5 0.4 1.1 0 0.7-0.5 1.1-0.3 0.3-0.7 0.5 0.6 0.2 1 0.7 0.5 0.5 0.5 1.4 0 0.7-0.3 1.2-0.4 0.6-1.1 0.8-0.7 0.3-1.6 0.3zm-1.4-4.4q0.1 0.1 0.3 0.1v-0.2q-0.2 0.1-0.3 0.1zm2.9 0q-0.2 0-0.4-0.1v0.2q0.2 0 0.4-0.1zm-1.5 3.3q0.8 0 1.3-0.3 0.5-0.4 0.5-1 0-0.7-0.4-1.1-0.5-0.3-1.4-0.3-0.9 0-1.3 0.3-0.5 0.4-0.5 1.1 0.1 0.6 0.5 1 0.5 0.3 1.3 0.3zm0-3.7q0.7 0 1.1-0.3 0.3-0.3 0.3-0.9 0-0.5-0.3-0.8-0.4-0.3-1.1-0.3-0.7 0-1 0.3-0.4 0.3-0.4 0.8 0 0.6 0.4 0.9 0.4 0.3 1 0.3zm5.2 4.6q0-1.2 0.3-2.4 0.3-1.2 0.9-2.2 0.6-1.1 1.4-2.1h-4.3v-1.1h5.6v1q-0.9 1.1-1.5 2.1-0.7 1.1-1 2.2-0.2 1.2-0.2 2.5zm7.3 0.2q-0.9 0-1.6-0.4-0.6-0.4-0.9-1.2-0.4-0.8-0.4-1.9 0-1 0.2-1.8 0.2-0.9 0.6-1.5 0.3-0.7 0.9-1 0.6-0.4 1.5-0.4 1.1 0 1.7 0.6 0.6 0.5 0.8 1.3l-1.2 0.1q-0.1-0.4-0.4-0.6-0.3-0.3-0.9-0.3-0.9 0-1.4 0.8-0.5 0.6-0.6 1.8 0.1-0.1 0.2-0.2 0.3-0.3 0.7-0.5 0.5-0.2 1-0.2 0.8 0 1.4 0.3 0.6 0.4 0.9 0.9 0.3 0.6 0.3 1.4 0 0.9-0.3 1.5-0.4 0.6-1 1-0.7 0.3-1.5 0.3zm-1.7-4.5q-0.1 0.2-0.2 0.5h0.2q0-0.2 0-0.5zm1.7 3.4q0.7 0 1.2-0.4 0.4-0.5 0.4-1.3 0-0.5-0.2-0.8-0.2-0.4-0.5-0.6-0.4-0.2-0.8-0.2-0.5 0-0.9 0.2-0.4 0.2-0.6 0.6-0.2 0.3-0.2 0.8 0 0.5 0.2 0.9 0.2 0.4 0.5 0.6 0.4 0.2 0.9 0.2z"/>
	<path class="s8" d="m182.7 85h104c6.9 0 12.5 5.6 12.5 12.5 0 6.9-5.6 12.5-12.5 12.5h-104c-6.9 0-12.5-5.6-12.5-12.5 0-6.9 5.6-12.5 12.5-12.5z"/>
	<g id="Clip-Path" clip-path="url(#cp1)">
		<g>
			<path fill-rule="evenodd" class="s9" d="m182.7 94.3c0-0.8 0.5-1.3 1.3-1.3 0.8 0 1.3 0.5 1.3 1.3 0 0.8-0.6 1.3-1.3 1.3-0.7 0-1.3-0.5-1.3-1.3zm0.8 0.1c0 0.2 0.2 0.4 0.5 0.4 0.3 0 0.5-0.2 0.5-0.4 0-0.3-0.3-0.5-0.5-0.5-0.2 0-0.5 0.2-0.5 0.5z"/>
			<path fill-rule="evenodd" class="s9" d="m186.4 103.3c-1.8-1.7-3.5-3.3-5-5.2q-0.3-0.3-0.4-0.8c-0.2-1.6-0.2-4.4 0.7-5.3 0.9-0.9 3.6-0.7 5.2-0.6 0.3 0 0.7 0.1 0.9 0.3 1.9 1.6 3.5 3.2 5.1 5 0.7 0.8 0.8 2 0.1 2.9q-1.6 2.1-3.7 3.7c-0.4 0.3-0.9 0.5-1.4 0.5-0.5 0-1-0.2-1.5-0.5zm-4-10.8c-0.5 0.5-0.7 2.3-0.4 4.6q0 0.2 0.1 0.4c1.6 1.8 3.2 3.4 4.9 5 0.5 0.5 1.3 0.5 1.8 0.1 1.3-1 2.5-2.2 3.5-3.6 0.4-0.5 0.4-1.3 0-1.7-1.6-1.8-3.3-3.4-5.1-4.9-0.1-0.1-0.3-0.2-0.4-0.2-0.6-0.1-1.3-0.1-1.9-0.1-1.3 0-2.3 0.2-2.5 0.4z"/>
			<path class="s9" d="m188.4 100.9c0.1 0 0.2-0.1 0.3-0.1l1.7-1.8c0.2-0.2 0.2-0.4 0-0.6-0.2-0.2-0.4-0.2-0.6 0l-1.8 1.7c-0.1 0.2-0.1 0.5 0 0.7q0.2 0.1 0.4 0.1z"/>
		</g>
	</g>
	<path fill-rule="evenodd" class="s9" d="m200.5 102h-1.3v-7.3h-2.6v-1.2h6.5v1.2h-2.6zm6.1-1.8h1.2c-0.2 1.1-1.2 1.9-2.7 1.9-1.8 0-2.9-1.2-2.9-3.2 0-1.9 1.1-3.2 2.9-3.2 1.7 0 2.8 1.2 2.8 3.1v0.4h-4.4v0.1c0 1.1 0.7 1.8 1.7 1.8 0.7 0 1.2-0.4 1.4-0.9zm-1.5-3.5c-0.9 0-1.5 0.7-1.6 1.6h3.1c0-0.9-0.6-1.6-1.5-1.6zm9 1.2h-1.2c-0.1-0.6-0.6-1.1-1.4-1.1-1 0-1.6 0.8-1.6 2.1 0 1.3 0.6 2.1 1.6 2.1 0.8 0 1.3-0.4 1.4-1.1h1.3c-0.2 1.3-1.2 2.2-2.7 2.2-1.8 0-2.9-1.2-2.9-3.2 0-2 1.1-3.2 2.9-3.2 1.6 0 2.5 1 2.6 2.2zm1 4.1v-8.5h1.2v3.3h0.1c0.3-0.7 1-1.1 1.9-1.1 1.4 0 2.2 0.9 2.2 2.3v4h-1.3v-3.8c0-0.9-0.4-1.4-1.3-1.4-1 0-1.5 0.6-1.5 1.6v3.6zm6.6 0v-6.2h1.2v1c0.4-0.7 1-1.1 2-1.1 1.3 0 2.1 0.9 2.1 2.3v4h-1.3v-3.8c0-0.9-0.4-1.4-1.3-1.4-0.9 0-1.5 0.6-1.5 1.6v3.6zm6.6 0v-6.2h1.3v6.2zm0.6-7.1c-0.4 0-0.7-0.3-0.7-0.7 0-0.4 0.3-0.7 0.7-0.7 0.4 0 0.8 0.3 0.8 0.7 0 0.4-0.4 0.7-0.8 0.7zm7.2 3h-1.2c-0.1-0.6-0.6-1.1-1.4-1.1-1 0-1.6 0.8-1.6 2.1 0 1.3 0.6 2.1 1.6 2.1 0.8 0 1.3-0.4 1.4-1.1h1.3c-0.2 1.3-1.2 2.2-2.7 2.2-1.8 0-2.9-1.2-2.9-3.2 0-2 1.1-3.2 2.9-3.2 1.6 0 2.5 1 2.6 2.2zm2.8 4.2c-1.3 0-2.1-0.8-2.1-1.9 0-1.1 0.8-1.7 2.3-1.8l1.7-0.1v-0.5c0-0.7-0.5-1.1-1.3-1.1-0.7 0-1.1 0.4-1.3 0.9h-1.1c0-1.1 1-1.9 2.5-1.9 1.5 0 2.4 0.8 2.4 2v4.3h-1.2v-1c-0.4 0.6-1.1 1.1-1.9 1.1zm0.3-1c0.9 0 1.6-0.6 1.6-1.4v-0.5l-1.5 0.1c-0.8 0-1.2 0.4-1.2 0.9 0 0.5 0.4 0.9 1.1 0.9zm4.1 0.9v-8.5h1.3v8.5zm5 0v-6.2h1.3v6.2zm0.6-7.1c-0.4 0-0.7-0.3-0.7-0.7 0-0.4 0.3-0.7 0.7-0.7 0.4 0 0.8 0.3 0.8 0.7 0 0.4-0.4 0.7-0.8 0.7zm2 7.1v-6.2h1.2v1c0.3-0.7 1-1.1 1.9-1.1 1.4 0 2.2 0.9 2.2 2.3v4h-1.3v-3.8c0-0.9-0.4-1.4-1.3-1.4-0.9 0-1.5 0.6-1.5 1.6v3.6zm11.9-4.1h-1.3c-0.1-0.6-0.6-1.1-1.4-1.1-1 0-1.6 0.8-1.6 2.1 0 1.3 0.6 2.1 1.6 2.1 0.8 0 1.3-0.4 1.4-1.1h1.3c-0.2 1.3-1.2 2.2-2.7 2.2-1.8 0-2.9-1.2-2.9-3.2 0-2 1.1-3.2 2.9-3.2 1.6 0 2.5 1 2.7 2.2zm0.9 4.1v-6.2h1.3v6.2zm0.6-7.1c-0.4 0-0.7-0.3-0.7-0.7 0-0.4 0.3-0.7 0.7-0.7 0.4 0 0.7 0.3 0.7 0.7 0 0.4-0.3 0.7-0.7 0.7zm4.2 7.2c-1.5 0-2.5-1.3-2.5-3.2 0-2 1-3.2 2.5-3.2 0.9 0 1.6 0.5 2 1.1v-3.3h1.3v8.5h-1.3v-1.1c-0.4 0.7-1.1 1.2-2 1.2zm0.4-5.3c-1 0-1.7 0.8-1.7 2.1 0 1.3 0.7 2.1 1.7 2.1 1 0 1.6-0.8 1.6-2.1 0-1.3-0.6-2.1-1.6-2.1zm8.2 3.4h1.2c-0.1 1.1-1.2 1.9-2.6 1.9-1.8 0-2.9-1.2-2.9-3.2 0-1.9 1.1-3.2 2.8-3.2 1.8 0 2.8 1.2 2.8 3.1v0.4h-4.3v0.1c0 1.1 0.6 1.8 1.6 1.8 0.7 0 1.3-0.4 1.4-0.9zm-1.5-3.5c-0.8 0-1.5 0.7-1.5 1.6h3c0-0.9-0.6-1.6-1.5-1.6zm3.8 5.3v-6.2h1.2v1c0.4-0.7 1-1.1 2-1.1 1.3 0 2.1 0.9 2.1 2.3v4h-1.3v-3.8c0-0.9-0.4-1.4-1.3-1.4-0.9 0-1.4 0.6-1.4 1.6v3.6zm6.9-7.6h1.2v1.4h1.2v1h-1.2v3.4c0 0.5 0.3 0.8 0.8 0.8 0.1 0 0.3 0 0.4 0v1c-0.1 0-0.4 0-0.7 0-1.2 0-1.7-0.5-1.7-1.6v-3.6h-0.9v-1h0.9z"/>
	<path class="s7" d="m22.7 196h115c6.9 0 12.5 5.6 12.5 12.5 0 6.9-5.6 12.5-12.5 12.5h-115c-6.9 0-12.5-5.6-12.5-12.5 0-6.9 5.6-12.5 12.5-12.5z"/>
	<g id="Clip-Path" clip-path="url(#cp2)">
		<g>
			<path fill-rule="evenodd" class="s10" d="m22.7 205.3c0-0.8 0.5-1.4 1.3-1.4 0.8 0 1.3 0.6 1.3 1.4 0 0.8-0.6 1.3-1.3 1.3-0.7 0-1.3-0.6-1.3-1.3zm0.8 0c0 0.3 0.2 0.5 0.5 0.5 0.3 0 0.5-0.2 0.5-0.5 0-0.2-0.3-0.4-0.5-0.4-0.2 0-0.5 0.2-0.5 0.4z"/>
			<path fill-rule="evenodd" class="s10" d="m26.4 214.3c-1.8-1.7-3.4-3.3-5-5.2q-0.3-0.3-0.4-0.8c-0.1-1.6-0.2-4.4 0.7-5.3 0.9-0.9 3.6-0.7 5.2-0.6 0.3 0 0.7 0.1 0.9 0.3 1.9 1.6 3.5 3.2 5.1 5 0.7 0.8 0.8 2 0.1 2.9q-1.6 2.1-3.7 3.7c-0.4 0.3-0.9 0.5-1.4 0.5-0.5 0-1-0.2-1.5-0.5zm-4-10.8c-0.5 0.5-0.7 2.3-0.4 4.6q0 0.2 0.1 0.4c1.6 1.8 3.2 3.4 4.9 5 0.5 0.5 1.3 0.5 1.8 0.1 1.3-1 2.5-2.2 3.5-3.6 0.5-0.5 0.5-1.3 0-1.7-1.6-1.8-3.3-3.4-5.1-4.9-0.1-0.2-0.3-0.2-0.4-0.2-0.6-0.1-1.3-0.1-1.9-0.1-1.3 0-2.3 0.1-2.5 0.4z"/>
			<path class="s10" d="m28.4 211.9c0.1 0 0.2-0.1 0.3-0.1l1.7-1.8c0.2-0.2 0.2-0.4 0-0.6-0.2-0.2-0.4-0.2-0.6 0l-1.8 1.7c-0.1 0.2-0.1 0.5 0 0.7q0.2 0.1 0.4 0.1z"/>
		</g>
	</g>
	<path fill-rule="evenodd" class="s10" d="m45.3 213h-1.3v-3.7h-4.3v3.7h-1.4v-8.5h1.4v3.6h4.3v-3.6h1.3zm5.5-1.8h1.2c-0.2 1.2-1.2 2-2.7 2-1.8 0-2.9-1.3-2.9-3.2 0-1.9 1.1-3.2 2.9-3.2 1.7 0 2.8 1.2 2.8 3v0.5h-4.4v0.1c0 1 0.7 1.7 1.7 1.7 0.7 0 1.2-0.3 1.4-0.9zm-1.5-3.4c-0.9 0-1.5 0.7-1.6 1.6h3.1c0-0.9-0.6-1.6-1.5-1.6zm3.8 5.2v-8.4h1.3v8.4zm5.7-6.2c1.6 0 2.6 1.2 2.6 3.2 0 1.9-1 3.1-2.5 3.1-0.9 0-1.6-0.4-2-1.1v3.1h-1.3v-8.2h1.3v1c0.3-0.7 1.1-1.1 1.9-1.1zm-0.3 5.3c1 0 1.6-0.8 1.6-2.1 0-1.3-0.6-2.2-1.6-2.2-1 0-1.6 0.9-1.6 2.2 0 1.2 0.6 2.1 1.6 2.1zm4.4 2.7h-1.2l3-10.2h1.2zm5.1-5.1v3.3h-1.3v-8.5h3.2c1.8 0 2.9 1 2.9 2.6 0 1.2-0.6 2.1-1.7 2.4l1.9 3.5h-1.5l-1.7-3.3zm0-4.1v3.1h1.8c1 0 1.6-0.6 1.6-1.6 0-0.9-0.6-1.5-1.6-1.5zm10 5.6h1.2c-0.2 1.1-1.3 1.9-2.7 1.9-1.8 0-2.9-1.2-2.9-3.2 0-1.9 1.1-3.2 2.9-3.2 1.7 0 2.7 1.2 2.7 3.1v0.4h-4.3v0.1c0 1.1 0.6 1.8 1.6 1.8 0.8 0 1.3-0.4 1.5-0.9zm-1.5-3.5c-0.9 0-1.6 0.7-1.6 1.6h3.1c-0.1-0.9-0.7-1.6-1.5-1.6zm3.7 5.3v-6.2h1.2v1.1c0.3-0.7 1-1.2 1.8-1.2 0.9 0 1.5 0.5 1.7 1.2h0.1c0.3-0.7 1-1.2 1.9-1.2 1.2 0 2 0.8 2 2v4.3h-1.3v-3.9c0-0.8-0.4-1.3-1.2-1.3-0.7 0-1.2 0.6-1.2 1.3v3.9h-1.3v-4c0-0.7-0.4-1.2-1.1-1.2-0.8 0-1.3 0.6-1.3 1.4v3.8zm12.5 0.1c-1.7 0-2.9-1.2-2.9-3.2 0-2 1.2-3.2 2.9-3.2 1.8 0 3 1.2 3 3.2 0 2-1.2 3.2-3 3.2zm0-1c1 0 1.7-0.8 1.7-2.2 0-1.4-0.7-2.1-1.7-2.1-1 0-1.6 0.7-1.6 2.1 0 1.4 0.6 2.2 1.6 2.2zm4.3-6.7h1.3v1.4h1.1v1h-1.1v3.4c0 0.6 0.2 0.8 0.7 0.8 0.2 0 0.4 0 0.4 0v1c-0.1 0-0.4 0-0.7 0-1.2 0-1.7-0.4-1.7-1.6v-3.6h-0.9v-1h0.9zm7.4 5.8h1.2c-0.2 1.2-1.2 2-2.6 2-1.8 0-2.9-1.3-2.9-3.2 0-1.9 1.1-3.2 2.8-3.2 1.7 0 2.8 1.2 2.8 3v0.5h-4.4v0.1c0 1 0.7 1.7 1.7 1.7 0.7 0 1.2-0.3 1.4-0.9zm-1.5-3.4c-0.9 0-1.5 0.7-1.6 1.6h3.1c0-1-0.6-1.6-1.5-1.6zm11.9 5.2l-0.8-2.2h-3.2l-0.8 2.2h-1.4l3.1-8.4h1.4l3.1 8.4zm-2.4-7l-1.3 3.7h2.6l-1.3-3.7zm4.4 2.6c0-1.1 1-1.8 2.4-1.8 1.4 0 2.4 0.7 2.4 1.8h-1.2c0-0.5-0.5-0.9-1.2-0.9-0.7 0-1.1 0.4-1.1 0.8q0 0.6 0.9 0.8l1 0.3c1.3 0.3 1.8 0.8 1.8 1.7 0 1.1-1.1 1.9-2.6 1.9-1.5 0-2.4-0.8-2.5-1.9h1.2c0.1 0.6 0.6 0.9 1.4 0.9 0.7 0 1.2-0.3 1.2-0.8 0-0.4-0.2-0.6-0.9-0.8l-1.1-0.3q-1.7-0.4-1.7-1.7zm5.8 0c0-1.1 1-1.8 2.4-1.8 1.4 0 2.4 0.7 2.4 1.8h-1.2c0-0.5-0.5-0.9-1.2-0.9-0.7 0-1.1 0.4-1.1 0.8q0 0.6 0.9 0.8l1 0.3c1.3 0.3 1.8 0.8 1.8 1.7 0 1.1-1.1 1.9-2.6 1.9-1.5 0-2.4-0.8-2.5-1.9h1.2c0.1 0.6 0.6 0.9 1.4 0.9 0.7 0 1.2-0.3 1.2-0.8 0-0.4-0.2-0.6-0.9-0.8l-1.1-0.3q-1.7-0.4-1.7-1.7zm6 4.4v-6.1h1.2v6.1zm0.7-7c-0.4 0-0.7-0.3-0.7-0.7 0-0.4 0.3-0.8 0.7-0.8 0.4 0 0.7 0.4 0.7 0.8 0 0.4-0.3 0.7-0.7 0.7zm1.8 2.6c0-1.1 1-1.8 2.4-1.8 1.4 0 2.3 0.7 2.4 1.8h-1.2c-0.1-0.5-0.5-0.9-1.2-0.9-0.7 0-1.2 0.4-1.2 0.8q0 0.6 1 0.8l1 0.3c1.3 0.3 1.7 0.8 1.7 1.7 0 1.1-1 1.9-2.5 1.9-1.5 0-2.5-0.8-2.6-1.9h1.3c0.1 0.6 0.6 0.9 1.3 0.9 0.8 0 1.3-0.3 1.3-0.8 0-0.4-0.3-0.6-0.9-0.8l-1.1-0.3q-1.7-0.4-1.7-1.7zm6.3-3.2h1.3v1.5h1.1v1h-1.1v3.4c0 0.5 0.2 0.8 0.7 0.8 0.1 0 0.3-0.1 0.4-0.1v1c-0.1 0.1-0.4 0.1-0.7 0.1-1.2 0-1.7-0.5-1.7-1.7v-3.5h-0.9v-1h0.9z"/>
	<path class="s6" d="m13.1 23.2l222.6 14.6"/>
</svg>