<svg width="27" height="27" viewBox="0 0 27 27" fill="none" xmlns="http://www.w3.org/2000/svg">
<path d="M22.2647 4.74785C18.9347 1.4291 13.5347 1.4291 10.2272 4.74785C7.89846 7.0541 7.20096 10.3729 8.10096 13.2979L2.81346 18.5854C2.44221 18.9679 2.18346 19.7216 2.26221 20.2616L2.59971 22.7141C2.72346 23.5241 3.47721 24.2891 4.28721 24.4016L6.73971 24.7391C7.27971 24.8179 8.03346 24.5704 8.41596 24.1766L9.33846 23.2541C9.56346 23.0404 9.56346 22.6804 9.33846 22.4554L7.15596 20.2729C6.82971 19.9466 6.82971 19.4066 7.15596 19.0804C7.48221 18.7541 8.02221 18.7541 8.34846 19.0804L10.5422 21.2741C10.756 21.4879 11.116 21.4879 11.3297 21.2741L13.7147 18.9004C16.6285 19.8116 19.9472 19.1029 22.2647 16.7966C25.5835 13.4779 25.5835 8.0666 22.2647 4.74785ZM16.3135 13.5004C14.761 13.5004 13.501 12.2404 13.501 10.6879C13.501 9.13535 14.761 7.87535 16.3135 7.87535C17.866 7.87535 19.126 9.13535 19.126 10.6879C19.126 12.2404 17.866 13.5004 16.3135 13.5004Z" fill="url(#paint0_linear_134_1839)"/>
<defs>
<linearGradient id="paint0_linear_134_1839" x1="4.74868" y1="7.25766" x2="10.1618" y2="28.0875" gradientUnits="userSpaceOnUse">
<stop stop-color="#CEC1F1"/>
<stop offset="1" stop-color="#7544FF"/>
</linearGradient>
</defs>
</svg>
