<svg width="111" height="34" viewBox="0 0 111 34" fill="none" xmlns="http://www.w3.org/2000/svg">
<path fill-rule="evenodd" clip-rule="evenodd" d="M40.9091 10.8149V25.5703H46.2304V28.11H38.0698V10.8149C38.0877 10.8149 40.9091 10.8149 40.9091 10.8149ZM56.266 18.1479V16.5919H58.9623V28.11H56.266V26.554C55.9088 27.1263 55.391 27.5913 54.7303 27.9132C54.0696 28.2352 53.391 28.414 52.7124 28.414C51.8375 28.414 51.0339 28.253 50.3196 27.9311C49.6232 27.6271 48.9804 27.1799 48.4625 26.6076C47.9447 26.0532 47.534 25.3914 47.2482 24.676C46.9625 23.9427 46.8018 23.1558 46.8197 22.3509C46.8197 21.5461 46.9625 20.777 47.2482 20.0437C47.534 19.3283 47.9447 18.6666 48.4625 18.1121C48.9804 17.5398 49.6232 17.0927 50.3196 16.7886C51.0518 16.4667 51.8375 16.3057 52.7124 16.3057C53.391 16.3057 54.0517 16.4667 54.7303 16.8065C55.4088 17.1463 55.9088 17.5756 56.266 18.1479ZM56.016 23.7639C56.1767 23.3167 56.266 22.8338 56.266 22.3509C56.266 21.8501 56.1767 21.3851 56.016 20.938C55.8553 20.5087 55.6231 20.1153 55.3195 19.7754C55.016 19.4356 54.6588 19.1673 54.2481 18.9885C53.8374 18.7918 53.3553 18.6844 52.8553 18.6844C52.3375 18.6844 51.891 18.7918 51.4803 18.9885C51.0696 19.1852 50.7125 19.4535 50.4268 19.7754C50.1232 20.1153 49.8911 20.5087 49.7482 20.938C49.5875 21.3851 49.5161 21.868 49.5161 22.3509C49.5161 22.8517 49.5875 23.3167 49.7482 23.7639C49.9089 24.211 50.1232 24.6045 50.4268 24.9264C50.7303 25.2662 51.0875 25.5345 51.4803 25.7133C51.891 25.9101 52.3553 26.0174 52.8553 26.0174C53.3732 26.0174 53.8374 25.9101 54.2481 25.7133C54.6588 25.5166 55.016 25.2483 55.3195 24.9264C55.6231 24.5866 55.8553 24.1931 56.016 23.7639ZM61.0695 28.11V16.5919H68.3729V19.2389H63.7658V28.11H61.0695ZM78.1228 18.1479V16.5919H80.8191V28.11H78.1228V26.554C77.7656 27.1263 77.2478 27.5913 76.5871 27.9132C75.9264 28.2352 75.2478 28.414 74.5692 28.414C73.6943 28.414 72.9086 28.253 72.1764 27.9311C71.48 27.6271 70.8372 27.1799 70.3193 26.6076C69.8015 26.0532 69.3908 25.3914 69.105 24.676C68.8193 23.9427 68.6586 23.1558 68.6765 22.3509C68.6765 21.5461 68.8193 20.777 69.105 20.0437C69.3908 19.3283 69.7836 18.6666 70.3193 18.1121C70.8372 17.5398 71.48 17.0927 72.1764 16.7886C72.9086 16.4667 73.6943 16.3057 74.5692 16.3057C75.2478 16.3057 75.9085 16.4667 76.5871 16.8065C77.2478 17.1284 77.7656 17.5756 78.1228 18.1479ZM77.8728 23.7639C78.0335 23.3167 78.1228 22.8338 78.1228 22.3509C78.1228 21.8501 78.0335 21.3851 77.8728 20.938C77.712 20.5087 77.4799 20.1153 77.1763 19.7754C76.8728 19.4356 76.5156 19.1673 76.1049 18.9885C75.6942 18.7918 75.2121 18.6844 74.7121 18.6844C74.1942 18.6844 73.7478 18.7918 73.3371 18.9885C72.9264 19.1852 72.5693 19.4535 72.2836 19.7754C71.98 20.1153 71.7479 20.5087 71.605 20.938C71.4443 21.3851 71.3729 21.868 71.3729 22.3509C71.3729 22.8517 71.4443 23.3167 71.605 23.7639C71.7657 24.211 71.98 24.6045 72.2836 24.9264C72.5871 25.2662 72.9443 25.5345 73.3371 25.7133C73.7478 25.9101 74.2121 26.0174 74.7121 26.0174C75.2299 26.0174 75.6942 25.9101 76.1049 25.7133C76.5156 25.5166 76.8728 25.2483 77.1763 24.9264C77.4978 24.5866 77.7299 24.1931 77.8728 23.7639ZM91.6047 16.5919H94.3368L89.9261 28.11H86.5512L82.1048 16.5919H84.8369L88.2119 25.4093L91.6047 16.5919ZM100.194 16.3057C103.854 16.3057 106.354 19.5608 105.89 23.3525H96.9617C96.9617 24.3541 97.9617 26.2678 100.337 26.2678C102.39 26.2678 103.747 24.4614 103.747 24.4614L105.569 25.8743C103.944 27.6092 102.622 28.414 100.533 28.414C96.8189 28.414 94.2832 26.0532 94.2832 22.3509C94.2832 19.0064 96.8903 16.3057 100.194 16.3057ZM96.9617 21.3493H103.408C103.39 21.1347 103.033 18.4341 100.158 18.4341C97.301 18.4341 96.9796 21.1347 96.9617 21.3493ZM107.622 28.11V10.8149H110.319V28.11H107.622Z" fill="#CEC1F1" fill-opacity="0.7"/>
<path fill-rule="evenodd" clip-rule="evenodd" d="M33.4201 8.15378C33.4384 8.20694 33.4384 8.24239 33.4384 8.29556V15.4556C33.4384 15.6506 33.3289 15.8101 33.1646 15.9164L26.9773 19.3724V26.2311C26.9773 26.4261 26.8678 26.5856 26.7036 26.6919L13.7997 33.9051C13.7632 33.9229 13.7449 33.9406 13.7084 33.9406C13.6902 33.9406 13.6902 33.9583 13.6719 33.9583C13.5807 33.976 13.4894 33.976 13.3982 33.9583C13.3799 33.9583 13.3617 33.9406 13.3617 33.9406C13.3252 33.9229 13.3069 33.9229 13.2704 33.9051L0.366547 26.6919C0.202283 26.6033 0.0927734 26.4261 0.0927734 26.2311V4.75098C0.0927734 4.69781 0.0927732 4.66237 0.111025 4.6092C0.111025 4.59148 0.129276 4.57375 0.129276 4.57375C0.147528 4.53831 0.147527 4.52058 0.165779 4.48514C0.18403 4.46742 0.184031 4.44969 0.202283 4.43197C0.220534 4.41425 0.238785 4.39652 0.257036 4.3788C0.275288 4.36108 0.29354 4.36108 0.311792 4.34335C0.330043 4.32563 0.348295 4.30791 0.366547 4.29019L6.80935 0.692437C6.97362 0.603823 7.17438 0.603823 7.33865 0.692437L13.7815 4.29019C13.7997 4.30791 13.818 4.32563 13.8362 4.34335C13.8545 4.36108 13.8727 4.36108 13.891 4.3788C13.9092 4.39652 13.9275 4.41425 13.9457 4.43197C13.964 4.44969 13.964 4.46742 13.9822 4.48514C14.0005 4.50286 14.0005 4.53831 14.0187 4.57375C14.0187 4.59148 14.037 4.6092 14.037 4.62692C14.0552 4.68009 14.0552 4.71553 14.0552 4.7687V18.1672L19.4394 15.1543V8.29556C19.4394 8.24239 19.4394 8.20694 19.4577 8.15378C19.4577 8.13605 19.4759 8.11833 19.4759 8.10061C19.4942 8.06516 19.4942 8.04744 19.5124 8.01199C19.5307 7.99427 19.5307 7.97655 19.5489 7.95882C19.5672 7.9411 19.5855 7.92338 19.6037 7.90566C19.622 7.88793 19.6402 7.88793 19.6585 7.87021C19.6767 7.85249 19.695 7.83477 19.7132 7.81704L26.156 4.21929C26.3203 4.13068 26.521 4.13068 26.6853 4.21929L33.1281 7.81704C33.1464 7.83477 33.1646 7.85249 33.1829 7.87021C33.2011 7.88793 33.2194 7.88793 33.2376 7.90566C33.2559 7.92338 33.2741 7.9411 33.2924 7.95882C33.3106 7.97655 33.3106 7.99427 33.3289 8.01199C33.3471 8.02972 33.3471 8.06516 33.3654 8.10061C33.4201 8.13605 33.4201 8.13605 33.4201 8.15378ZM32.3616 15.1366V9.1817L30.0984 10.44L26.9773 12.1769V18.1318L32.3616 15.1366ZM25.9187 25.9121V19.9572L22.8525 21.6586L14.0917 26.5147V32.5228L25.9187 25.9121ZM1.18787 5.65485V25.9121L13.0149 32.5228V26.5147L6.8276 23.1119C6.80935 23.0942 6.7911 23.0765 6.77285 23.0765C6.7546 23.0587 6.73635 23.0587 6.71809 23.041C6.69984 23.0233 6.68159 23.0056 6.68159 22.9878C6.66334 22.9701 6.64509 22.9524 6.64509 22.9347C6.62684 22.9169 6.62684 22.8992 6.60858 22.8638C6.60858 22.8461 6.59033 22.8283 6.59033 22.8106C6.59033 22.7929 6.59033 22.7574 6.57208 22.7397C6.57208 22.722 6.57208 22.7043 6.57208 22.6865V8.68546L3.45106 6.94862L1.18787 5.65485ZM7.10138 1.73809L1.73541 4.75098L7.10138 7.76387L12.4673 4.75098L7.10138 1.73809ZM9.89387 20.4889L13.0149 18.7521V5.65485L10.7517 6.91317L7.63067 8.65002V21.7472C7.64892 21.765 9.89387 20.4889 9.89387 20.4889ZM26.448 5.28267L21.0821 8.29556L26.448 11.3085L31.814 8.29556C31.8323 8.29556 26.448 5.28267 26.448 5.28267ZM25.9187 12.2123L22.7977 10.4755L20.5345 9.21715V15.172L23.6556 16.9089L25.9187 18.1672C25.9187 18.1495 25.9187 12.2123 25.9187 12.2123ZM13.5442 25.6108L21.4289 21.2333L25.3712 19.0534L20.0052 16.0582L13.818 19.5142L8.17822 22.6688C8.19647 22.6511 13.5442 25.6108 13.5442 25.6108Z" fill="#CEC1F1" fill-opacity="0.7"/>
</svg>
