<svg width="217" height="74" viewBox="0 0 217 74" fill="none" xmlns="http://www.w3.org/2000/svg">
<g filter="url(#filter0_b_380_424)">
<path d="M0.609375 0.448242H206.269C211.791 0.448242 216.268 4.92539 216.268 10.4482V63.691C216.268 69.2138 211.791 73.691 206.268 73.691H10.6094C5.08652 73.691 0.609375 69.2138 0.609375 63.691V0.448242Z" fill="url(#paint0_radial_380_424)"/>
<path d="M0.90976 0.748627H206.269C211.625 0.748627 215.968 5.09129 215.968 10.4482V63.691C215.968 69.0479 211.625 73.3906 206.268 73.3906H10.6094C5.25242 73.3906 0.90976 69.0479 0.90976 63.691V0.748627Z" stroke="url(#paint1_linear_380_424)" stroke-width="0.60077"/>
</g>
<rect width="190.228" height="30.5178" rx="5.0863" transform="matrix(-1 0 0 1 199.992 30.9658)" fill="#7544FF" fill-opacity="0.2"/>
<rect x="-0.50863" y="0.50863" width="189.21" height="29.5005" rx="4.57767" transform="matrix(-1 0 0 1 198.975 30.9658)" stroke="#8CA7C8" stroke-opacity="0.2" stroke-width="1.01726"/>
<path d="M178.445 40.8842C177.499 40.8842 176.89 41.8908 177.331 42.7293L178.945 45.7907L184.358 46.4122L178.945 47.0362L177.331 50.0976C176.89 50.9361 177.497 51.9428 178.445 51.9428C178.616 51.9428 178.786 51.9086 178.945 51.8404L188.933 47.5261C189.908 47.1045 189.908 45.7224 188.933 45.3008L178.945 40.9865C178.786 40.9183 178.616 40.8842 178.445 40.8842Z" fill="#7544FF"/>
<path opacity="0.5" d="M21.8359 50.2247V46.8047L18.8479 41.7047H20.3359L22.4839 45.5087L24.6439 41.7047H26.1319L23.1319 46.8047V50.2247H21.8359ZM28.7292 50.3687C28.1212 50.3687 27.5892 50.2327 27.1332 49.9607C26.6772 49.6887 26.3252 49.3007 26.0772 48.7967C25.8292 48.2927 25.7052 47.7047 25.7052 47.0327C25.7052 46.3527 25.8292 45.7647 26.0772 45.2687C26.3252 44.7727 26.6772 44.3887 27.1332 44.1167C27.5892 43.8367 28.1212 43.6967 28.7292 43.6967C29.3372 43.6967 29.8692 43.8367 30.3252 44.1167C30.7812 44.3887 31.1332 44.7727 31.3812 45.2687C31.6292 45.7647 31.7532 46.3527 31.7532 47.0327C31.7532 47.7047 31.6292 48.2927 31.3812 48.7967C31.1332 49.3007 30.7812 49.6887 30.3252 49.9607C29.8692 50.2327 29.3372 50.3687 28.7292 50.3687ZM28.7292 49.2647C29.2732 49.2647 29.6932 49.0687 29.9892 48.6767C30.2852 48.2767 30.4332 47.7287 30.4332 47.0327C30.4332 46.3367 30.2852 45.7927 29.9892 45.4007C29.6932 45.0007 29.2732 44.8007 28.7292 44.8007C28.1932 44.8007 27.7732 45.0007 27.4692 45.4007C27.1732 45.7927 27.0252 46.3367 27.0252 47.0327C27.0252 47.7287 27.1732 48.2767 27.4692 48.6767C27.7732 49.0687 28.1932 49.2647 28.7292 49.2647ZM35.1387 50.3687C34.4987 50.3687 33.9867 50.1567 33.6027 49.7327C33.2267 49.3007 33.0387 48.7047 33.0387 47.9447V43.8407H34.3107V47.6207C34.3107 48.1967 34.4107 48.6207 34.6107 48.8927C34.8107 49.1647 35.1147 49.3007 35.5227 49.3007C35.9867 49.3007 36.3467 49.1527 36.6027 48.8567C36.8667 48.5527 36.9987 48.1287 36.9987 47.5847V43.8407H38.2707V50.2247H37.0827L37.0587 48.5567L37.2387 48.6287C37.1267 49.1887 36.8907 49.6207 36.5307 49.9247C36.1707 50.2207 35.7067 50.3687 35.1387 50.3687ZM40.0699 50.2247V43.8407H41.2339L41.2819 45.5327L41.1739 45.4967C41.2619 44.9207 41.4379 44.5007 41.7019 44.2367C41.9739 43.9727 42.3379 43.8407 42.7939 43.8407H43.4059V44.9807H42.7939C42.4739 44.9807 42.2059 45.0327 41.9899 45.1367C41.7739 45.2407 41.6099 45.4007 41.4979 45.6167C41.3939 45.8327 41.3419 46.1127 41.3419 46.4567V50.2247H40.0699ZM47.7105 50.2247V43.8407H48.8745L48.9225 45.5447L48.7665 45.4607C48.8385 45.0447 48.9745 44.7087 49.1745 44.4527C49.3745 44.1967 49.6185 44.0087 49.9065 43.8887C50.1945 43.7607 50.5065 43.6967 50.8425 43.6967C51.3225 43.6967 51.7185 43.8047 52.0305 44.0207C52.3505 44.2287 52.5905 44.5167 52.7505 44.8847C52.9185 45.2447 53.0025 45.6567 53.0025 46.1207V50.2247H51.7305V46.5047C51.7305 46.1287 51.6905 45.8127 51.6105 45.5567C51.5305 45.3007 51.3985 45.1047 51.2145 44.9687C51.0305 44.8327 50.7905 44.7647 50.4945 44.7647C50.0465 44.7647 49.6825 44.9127 49.4025 45.2087C49.1225 45.5047 48.9825 45.9367 48.9825 46.5047V50.2247H47.7105ZM56.4595 50.3687C55.7955 50.3687 55.2635 50.2167 54.8635 49.9127C54.4715 49.6087 54.2755 49.1807 54.2755 48.6287C54.2755 48.0767 54.4395 47.6487 54.7675 47.3447C55.1035 47.0327 55.6195 46.8087 56.3155 46.6727L58.5115 46.2527C58.5115 45.7567 58.3955 45.3887 58.1635 45.1487C57.9315 44.9007 57.5875 44.7767 57.1315 44.7767C56.7235 44.7767 56.4035 44.8687 56.1715 45.0527C55.9395 45.2287 55.7795 45.4927 55.6915 45.8447L54.3835 45.7607C54.5035 45.1207 54.7995 44.6167 55.2715 44.2487C55.7515 43.8807 56.3715 43.6967 57.1315 43.6967C57.9955 43.6967 58.6515 43.9287 59.0995 44.3927C59.5555 44.8487 59.7835 45.4927 59.7835 46.3247V48.8087C59.7835 48.9607 59.8075 49.0687 59.8555 49.1327C59.9115 49.1887 59.9995 49.2167 60.1195 49.2167H60.3475V50.2247C60.3075 50.2327 60.2435 50.2407 60.1555 50.2487C60.0675 50.2567 59.9755 50.2607 59.8795 50.2607C59.6075 50.2607 59.3715 50.2167 59.1715 50.1287C58.9795 50.0407 58.8355 49.8967 58.7395 49.6967C58.6435 49.4887 58.5955 49.2127 58.5955 48.8687L58.7275 48.9287C58.6635 49.2087 58.5235 49.4567 58.3075 49.6727C58.0995 49.8887 57.8315 50.0607 57.5035 50.1887C57.1835 50.3087 56.8355 50.3687 56.4595 50.3687ZM56.6635 49.3607C57.0475 49.3607 57.3755 49.2887 57.6475 49.1447C57.9195 48.9927 58.1315 48.7847 58.2835 48.5207C58.4355 48.2567 58.5115 47.9567 58.5115 47.6207V47.2127L56.6395 47.5727C56.2555 47.6447 55.9835 47.7607 55.8235 47.9207C55.6715 48.0727 55.5955 48.2687 55.5955 48.5087C55.5955 48.7807 55.6875 48.9927 55.8715 49.1447C56.0635 49.2887 56.3275 49.3607 56.6635 49.3607ZM61.4215 50.2247V43.8407H62.5855L62.6215 45.4247L62.4775 45.3767C62.5495 45.0247 62.6735 44.7247 62.8495 44.4767C63.0335 44.2287 63.2575 44.0367 63.5215 43.9007C63.7855 43.7647 64.0735 43.6967 64.3855 43.6967C64.9295 43.6967 65.3735 43.8527 65.7175 44.1647C66.0615 44.4687 66.2775 44.8887 66.3655 45.4247H66.1615C66.2335 45.0487 66.3535 44.7367 66.5215 44.4887C66.6975 44.2327 66.9215 44.0367 67.1935 43.9007C67.4655 43.7647 67.7735 43.6967 68.1175 43.6967C68.5655 43.6967 68.9455 43.7927 69.2575 43.9847C69.5775 44.1687 69.8175 44.4407 69.9775 44.8007C70.1455 45.1607 70.2295 45.6007 70.2295 46.1207V50.2247H68.9575V46.4327C68.9575 45.8807 68.8575 45.4647 68.6575 45.1847C68.4575 44.9047 68.1535 44.7647 67.7455 44.7647C67.4815 44.7647 67.2495 44.8327 67.0495 44.9687C66.8495 45.1047 66.6935 45.3007 66.5815 45.5567C66.4775 45.8127 66.4255 46.1207 66.4255 46.4807V50.2247H65.2135V46.4807C65.2135 45.9367 65.1215 45.5167 64.9375 45.2207C64.7615 44.9167 64.4575 44.7647 64.0255 44.7647C63.7535 44.7647 63.5175 44.8327 63.3175 44.9687C63.1255 45.1047 62.9735 45.3047 62.8615 45.5687C62.7495 45.8247 62.6935 46.1287 62.6935 46.4807V50.2247H61.4215ZM74.526 50.3687C73.902 50.3687 73.362 50.2327 72.906 49.9607C72.458 49.6887 72.11 49.3007 71.862 48.7967C71.622 48.2927 71.502 47.7047 71.502 47.0327C71.502 46.3607 71.622 45.7767 71.862 45.2807C72.11 44.7767 72.458 44.3887 72.906 44.1167C73.354 43.8367 73.882 43.6967 74.49 43.6967C75.066 43.6967 75.574 43.8327 76.014 44.1047C76.454 44.3687 76.794 44.7527 77.034 45.2567C77.282 45.7607 77.406 46.3687 77.406 47.0807V47.4047H72.822C72.854 48.0287 73.018 48.4967 73.314 48.8087C73.618 49.1207 74.026 49.2767 74.538 49.2767C74.914 49.2767 75.226 49.1887 75.474 49.0127C75.722 48.8367 75.894 48.6007 75.99 48.3047L77.31 48.3887C77.142 48.9807 76.81 49.4607 76.314 49.8287C75.826 50.1887 75.23 50.3687 74.526 50.3687ZM72.822 46.4447H76.062C76.022 45.8767 75.858 45.4567 75.57 45.1847C75.29 44.9127 74.93 44.7767 74.49 44.7767C74.034 44.7767 73.658 44.9207 73.362 45.2087C73.074 45.4887 72.894 45.9007 72.822 46.4447Z" fill="#CEC1F1"/>
<path d="M11.9032 22.6035V13.3735H13.3072V22.0835L12.5662 21.3165H17.8052V22.6035H11.9032ZM21.7165 22.7595C21.0579 22.7595 20.4815 22.6122 19.9875 22.3175C19.4935 22.0228 19.1122 21.6025 18.8435 21.0565C18.5749 20.5105 18.4405 19.8735 18.4405 19.1455C18.4405 18.4088 18.5749 17.7718 18.8435 17.2345C19.1122 16.6972 19.4935 16.2812 19.9875 15.9865C20.4815 15.6832 21.0579 15.5315 21.7165 15.5315C22.3752 15.5315 22.9515 15.6832 23.4455 15.9865C23.9395 16.2812 24.3209 16.6972 24.5895 17.2345C24.8582 17.7718 24.9925 18.4088 24.9925 19.1455C24.9925 19.8735 24.8582 20.5105 24.5895 21.0565C24.3209 21.6025 23.9395 22.0228 23.4455 22.3175C22.9515 22.6122 22.3752 22.7595 21.7165 22.7595ZM21.7165 21.5635C22.3059 21.5635 22.7609 21.3512 23.0815 20.9265C23.4022 20.4932 23.5625 19.8995 23.5625 19.1455C23.5625 18.3915 23.4022 17.8022 23.0815 17.3775C22.7609 16.9442 22.3059 16.7275 21.7165 16.7275C21.1359 16.7275 20.6809 16.9442 20.3515 17.3775C20.0309 17.8022 19.8705 18.3915 19.8705 19.1455C19.8705 19.8995 20.0309 20.4932 20.3515 20.9265C20.6809 21.3512 21.1359 21.5635 21.7165 21.5635ZM28.0023 22.6035L25.4803 15.6875H26.9493L28.8343 21.1995L30.7193 15.6875H32.2013L29.6663 22.6035H28.0023ZM35.9353 22.7595C35.2593 22.7595 34.6743 22.6122 34.1803 22.3175C33.6949 22.0228 33.3179 21.6025 33.0493 21.0565C32.7893 20.5105 32.6593 19.8735 32.6593 19.1455C32.6593 18.4175 32.7893 17.7848 33.0493 17.2475C33.3179 16.7015 33.6949 16.2812 34.1803 15.9865C34.6656 15.6832 35.2376 15.5315 35.8963 15.5315C36.5203 15.5315 37.0706 15.6788 37.5473 15.9735C38.0239 16.2595 38.3923 16.6755 38.6523 17.2215C38.9209 17.7675 39.0553 18.4262 39.0553 19.1975V19.5485H34.0893C34.1239 20.2245 34.3016 20.7315 34.6223 21.0695C34.9516 21.4075 35.3936 21.5765 35.9483 21.5765C36.3556 21.5765 36.6936 21.4812 36.9623 21.2905C37.2309 21.0998 37.4173 20.8442 37.5213 20.5235L38.9513 20.6145C38.7693 21.2558 38.4096 21.7758 37.8723 22.1745C37.3436 22.5645 36.6979 22.7595 35.9353 22.7595ZM34.0893 18.5085H37.5993C37.5559 17.8932 37.3783 17.4382 37.0663 17.1435C36.7629 16.8488 36.3729 16.7015 35.8963 16.7015C35.4023 16.7015 34.9949 16.8575 34.6743 17.1695C34.3623 17.4728 34.1673 17.9192 34.0893 18.5085ZM42.023 22.6035C41.5724 22.6035 41.2084 22.4865 40.931 22.2525C40.6537 22.0185 40.515 21.6458 40.515 21.1345V13.3735H41.893V21.0045C41.893 21.1605 41.932 21.2775 42.01 21.3555C42.0967 21.4335 42.218 21.4725 42.374 21.4725H42.92V22.6035H42.023ZM44.2185 24.5535V23.4225H45.0635C45.2975 23.4225 45.4708 23.3878 45.5835 23.3185C45.6962 23.2492 45.7828 23.1322 45.8435 22.9675L46.0645 22.3955H45.6355L43.1395 15.6875H44.5955L46.4935 21.1215L48.3005 15.6875H49.7695L47.0135 23.4095C46.8748 23.8082 46.6668 24.0985 46.3895 24.2805C46.1208 24.4625 45.7438 24.5535 45.2585 24.5535H44.2185ZM49.9137 24.6445L50.5637 22.6035H49.8487V20.9655H51.5257V22.4085L50.7067 24.6445H49.9137ZM56.2064 22.6035V15.6875H57.4674L57.5064 17.4035L57.3504 17.3515C57.4284 16.9702 57.5628 16.6452 57.7534 16.3765C57.9528 16.1078 58.1954 15.8998 58.4814 15.7525C58.7674 15.6052 59.0794 15.5315 59.4174 15.5315C60.0068 15.5315 60.4878 15.7005 60.8604 16.0385C61.2331 16.3678 61.4671 16.8228 61.5624 17.4035H61.3414C61.4194 16.9962 61.5494 16.6582 61.7314 16.3895C61.9221 16.1122 62.1648 15.8998 62.4594 15.7525C62.7541 15.6052 63.0878 15.5315 63.4604 15.5315C63.9458 15.5315 64.3574 15.6355 64.6954 15.8435C65.0421 16.0428 65.3021 16.3375 65.4754 16.7275C65.6574 17.1175 65.7484 17.5942 65.7484 18.1575V22.6035H64.3704V18.4955C64.3704 17.8975 64.2621 17.4468 64.0454 17.1435C63.8288 16.8402 63.4994 16.6885 63.0574 16.6885C62.7714 16.6885 62.5201 16.7622 62.3034 16.9095C62.0868 17.0568 61.9178 17.2692 61.7964 17.5465C61.6838 17.8238 61.6274 18.1575 61.6274 18.5475V22.6035H60.3144V18.5475C60.3144 17.9582 60.2148 17.5032 60.0154 17.1825C59.8248 16.8532 59.4954 16.6885 59.0274 16.6885C58.7328 16.6885 58.4771 16.7622 58.2604 16.9095C58.0524 17.0568 57.8878 17.2735 57.7664 17.5595C57.6451 17.8368 57.5844 18.1662 57.5844 18.5475V22.6035H56.2064ZM69.5058 22.7595C68.7864 22.7595 68.2101 22.5948 67.7768 22.2655C67.3521 21.9362 67.1398 21.4725 67.1398 20.8745C67.1398 20.2765 67.3174 19.8128 67.6728 19.4835C68.0368 19.1455 68.5958 18.9028 69.3498 18.7555L71.7288 18.3005C71.7288 17.7632 71.6031 17.3645 71.3518 17.1045C71.1004 16.8358 70.7278 16.7015 70.2338 16.7015C69.7918 16.7015 69.4451 16.8012 69.1938 17.0005C68.9424 17.1912 68.7691 17.4772 68.6738 17.8585L67.2568 17.7675C67.3868 17.0742 67.7074 16.5282 68.2188 16.1295C68.7388 15.7308 69.4104 15.5315 70.2338 15.5315C71.1698 15.5315 71.8804 15.7828 72.3658 16.2855C72.8598 16.7795 73.1068 17.4772 73.1068 18.3785V21.0695C73.1068 21.2342 73.1328 21.3512 73.1848 21.4205C73.2454 21.4812 73.3408 21.5115 73.4708 21.5115H73.7178V22.6035C73.6744 22.6122 73.6051 22.6208 73.5098 22.6295C73.4144 22.6382 73.3148 22.6425 73.2108 22.6425C72.9161 22.6425 72.6604 22.5948 72.4438 22.4995C72.2358 22.4042 72.0798 22.2482 71.9758 22.0315C71.8718 21.8062 71.8198 21.5072 71.8198 21.1345L71.9628 21.1995C71.8934 21.5028 71.7418 21.7715 71.5078 22.0055C71.2824 22.2395 70.9921 22.4258 70.6368 22.5645C70.2901 22.6945 69.9131 22.7595 69.5058 22.7595ZM69.7268 21.6675C70.1428 21.6675 70.4981 21.5895 70.7928 21.4335C71.0874 21.2688 71.3171 21.0435 71.4818 20.7575C71.6464 20.4715 71.7288 20.1465 71.7288 19.7825V19.3405L69.7008 19.7305C69.2848 19.8085 68.9901 19.9342 68.8168 20.1075C68.6521 20.2722 68.5698 20.4845 68.5698 20.7445C68.5698 21.0392 68.6694 21.2688 68.8688 21.4335C69.0768 21.5895 69.3628 21.6675 69.7268 21.6675ZM74.9539 24.5535V23.4225H75.7989C76.0329 23.4225 76.2062 23.3878 76.3189 23.3185C76.4315 23.2492 76.5182 23.1322 76.5789 22.9675L76.7999 22.3955H76.3709L73.8749 15.6875H75.3309L77.2289 21.1215L79.0359 15.6875H80.5049L77.7489 23.4095C77.6102 23.8082 77.4022 24.0985 77.1249 24.2805C76.8562 24.4625 76.4792 24.5535 75.9939 24.5535H74.9539ZM84.9105 22.6035V15.6875H86.2885V22.6035H84.9105ZM84.8845 14.6865V13.3085H86.3145V14.6865H84.8845ZM91.3979 22.6035V13.3735H92.7759V19.1065L95.8829 15.6875H97.6249L94.9209 18.5995L97.7289 22.6035H96.1429L93.9979 19.4575L92.7759 20.7575V22.6035H91.3979ZM98.7738 22.6035V15.6875H100.035L100.087 17.5335L99.9178 17.4425C99.9958 16.9918 100.143 16.6278 100.36 16.3505C100.576 16.0732 100.841 15.8695 101.153 15.7395C101.465 15.6008 101.803 15.5315 102.167 15.5315C102.687 15.5315 103.116 15.6485 103.454 15.8825C103.8 16.1078 104.06 16.4198 104.234 16.8185C104.416 17.2085 104.507 17.6548 104.507 18.1575V22.6035H103.129V18.5735C103.129 18.1662 103.085 17.8238 102.999 17.5465C102.912 17.2692 102.769 17.0568 102.57 16.9095C102.37 16.7622 102.11 16.6885 101.79 16.6885C101.304 16.6885 100.91 16.8488 100.607 17.1695C100.303 17.4902 100.152 17.9582 100.152 18.5735V22.6035H98.7738ZM109.149 22.7595C108.49 22.7595 107.914 22.6122 107.42 22.3175C106.926 22.0228 106.545 21.6025 106.276 21.0565C106.007 20.5105 105.873 19.8735 105.873 19.1455C105.873 18.4088 106.007 17.7718 106.276 17.2345C106.545 16.6972 106.926 16.2812 107.42 15.9865C107.914 15.6832 108.49 15.5315 109.149 15.5315C109.808 15.5315 110.384 15.6832 110.878 15.9865C111.372 16.2812 111.753 16.6972 112.022 17.2345C112.291 17.7718 112.425 18.4088 112.425 19.1455C112.425 19.8735 112.291 20.5105 112.022 21.0565C111.753 21.6025 111.372 22.0228 110.878 22.3175C110.384 22.6122 109.808 22.7595 109.149 22.7595ZM109.149 21.5635C109.738 21.5635 110.193 21.3512 110.514 20.9265C110.835 20.4932 110.995 19.8995 110.995 19.1455C110.995 18.3915 110.835 17.8022 110.514 17.3775C110.193 16.9442 109.738 16.7275 109.149 16.7275C108.568 16.7275 108.113 16.9442 107.784 17.3775C107.463 17.8022 107.303 18.3915 107.303 19.1455C107.303 19.8995 107.463 20.4932 107.784 20.9265C108.113 21.3512 108.568 21.5635 109.149 21.5635ZM115.019 22.6035L112.913 15.6875H114.356L115.838 21.0955L117.359 15.6875H118.659L120.18 21.0955L121.675 15.6875H123.118L121.012 22.6035H119.465L118.009 17.6635L116.553 22.6035H115.019ZM127.931 24.5535V23.4225H128.776C129.01 23.4225 129.184 23.3878 129.296 23.3185C129.409 23.2492 129.496 23.1322 129.556 22.9675L129.777 22.3955H129.348L126.852 15.6875H128.308L130.206 21.1215L132.013 15.6875H133.482L130.726 23.4095C130.588 23.8082 130.38 24.0985 130.102 24.2805C129.834 24.4625 129.457 24.5535 128.971 24.5535H127.931ZM137.218 22.7595C136.56 22.7595 135.983 22.6122 135.489 22.3175C134.995 22.0228 134.614 21.6025 134.345 21.0565C134.077 20.5105 133.942 19.8735 133.942 19.1455C133.942 18.4088 134.077 17.7718 134.345 17.2345C134.614 16.6972 134.995 16.2812 135.489 15.9865C135.983 15.6832 136.56 15.5315 137.218 15.5315C137.877 15.5315 138.453 15.6832 138.947 15.9865C139.441 16.2812 139.823 16.6972 140.091 17.2345C140.36 17.7718 140.494 18.4088 140.494 19.1455C140.494 19.8735 140.36 20.5105 140.091 21.0565C139.823 21.6025 139.441 22.0228 138.947 22.3175C138.453 22.6122 137.877 22.7595 137.218 22.7595ZM137.218 21.5635C137.808 21.5635 138.263 21.3512 138.583 20.9265C138.904 20.4932 139.064 19.8995 139.064 19.1455C139.064 18.3915 138.904 17.8022 138.583 17.3775C138.263 16.9442 137.808 16.7275 137.218 16.7275C136.638 16.7275 136.183 16.9442 135.853 17.3775C135.533 17.8022 135.372 18.3915 135.372 19.1455C135.372 19.8995 135.533 20.4932 135.853 20.9265C136.183 21.3512 136.638 21.5635 137.218 21.5635ZM144.162 22.7595C143.469 22.7595 142.914 22.5298 142.498 22.0705C142.091 21.6025 141.887 20.9568 141.887 20.1335V15.6875H143.265V19.7825C143.265 20.4065 143.373 20.8658 143.59 21.1605C143.807 21.4552 144.136 21.6025 144.578 21.6025C145.081 21.6025 145.471 21.4422 145.748 21.1215C146.034 20.7922 146.177 20.3328 146.177 19.7435V15.6875H147.555V22.6035H146.268L146.242 20.7965L146.437 20.8745C146.316 21.4812 146.06 21.9492 145.67 22.2785C145.28 22.5992 144.777 22.7595 144.162 22.7595ZM149.504 22.6035V15.6875H150.765L150.817 17.5205L150.7 17.4815C150.796 16.8575 150.986 16.4025 151.272 16.1165C151.567 15.8305 151.961 15.6875 152.455 15.6875H153.118V16.9225H152.455C152.109 16.9225 151.818 16.9788 151.584 17.0915C151.35 17.2042 151.173 17.3775 151.051 17.6115C150.939 17.8455 150.882 18.1488 150.882 18.5215V22.6035H149.504ZM157.782 22.6035V15.6875H159.043L159.095 17.5335L158.926 17.4425C159.004 16.9918 159.151 16.6278 159.368 16.3505C159.584 16.0732 159.849 15.8695 160.161 15.7395C160.473 15.6008 160.811 15.5315 161.175 15.5315C161.695 15.5315 162.124 15.6485 162.462 15.8825C162.808 16.1078 163.068 16.4198 163.242 16.8185C163.424 17.2085 163.515 17.6548 163.515 18.1575V22.6035H162.137V18.5735C162.137 18.1662 162.093 17.8238 162.007 17.5465C161.92 17.2692 161.777 17.0568 161.578 16.9095C161.378 16.7622 161.118 16.6885 160.798 16.6885C160.312 16.6885 159.918 16.8488 159.615 17.1695C159.311 17.4902 159.16 17.9582 159.16 18.5735V22.6035H157.782ZM167.26 22.7595C166.54 22.7595 165.964 22.5948 165.531 22.2655C165.106 21.9362 164.894 21.4725 164.894 20.8745C164.894 20.2765 165.071 19.8128 165.427 19.4835C165.791 19.1455 166.35 18.9028 167.104 18.7555L169.483 18.3005C169.483 17.7632 169.357 17.3645 169.106 17.1045C168.854 16.8358 168.482 16.7015 167.988 16.7015C167.546 16.7015 167.199 16.8012 166.948 17.0005C166.696 17.1912 166.523 17.4772 166.428 17.8585L165.011 17.7675C165.141 17.0742 165.461 16.5282 165.973 16.1295C166.493 15.7308 167.164 15.5315 167.988 15.5315C168.924 15.5315 169.634 15.7828 170.12 16.2855C170.614 16.7795 170.861 17.4772 170.861 18.3785V21.0695C170.861 21.2342 170.887 21.3512 170.939 21.4205C170.999 21.4812 171.095 21.5115 171.225 21.5115H171.472V22.6035C171.428 22.6122 171.359 22.6208 171.264 22.6295C171.168 22.6382 171.069 22.6425 170.965 22.6425C170.67 22.6425 170.414 22.5948 170.198 22.4995C169.99 22.4042 169.834 22.2482 169.73 22.0315C169.626 21.8062 169.574 21.5072 169.574 21.1345L169.717 21.1995C169.647 21.5028 169.496 21.7715 169.262 22.0055C169.036 22.2395 168.746 22.4258 168.391 22.5645C168.044 22.6945 167.667 22.7595 167.26 22.7595ZM167.481 21.6675C167.897 21.6675 168.252 21.5895 168.547 21.4335C168.841 21.2688 169.071 21.0435 169.236 20.7575C169.4 20.4715 169.483 20.1465 169.483 19.7825V19.3405L167.455 19.7305C167.039 19.8085 166.744 19.9342 166.571 20.1075C166.406 20.2722 166.324 20.4845 166.324 20.7445C166.324 21.0392 166.423 21.2688 166.623 21.4335C166.831 21.5895 167.117 21.6675 167.481 21.6675ZM172.635 22.6035V15.6875H173.896L173.935 17.4035L173.779 17.3515C173.857 16.9702 173.991 16.6452 174.182 16.3765C174.381 16.1078 174.624 15.8998 174.91 15.7525C175.196 15.6052 175.508 15.5315 175.846 15.5315C176.435 15.5315 176.916 15.7005 177.289 16.0385C177.662 16.3678 177.896 16.8228 177.991 17.4035H177.77C177.848 16.9962 177.978 16.6582 178.16 16.3895C178.351 16.1122 178.593 15.8998 178.888 15.7525C179.183 15.6052 179.516 15.5315 179.889 15.5315C180.374 15.5315 180.786 15.6355 181.124 15.8435C181.471 16.0428 181.731 16.3375 181.904 16.7275C182.086 17.1175 182.177 17.5942 182.177 18.1575V22.6035H180.799V18.4955C180.799 17.8975 180.691 17.4468 180.474 17.1435C180.257 16.8402 179.928 16.6885 179.486 16.6885C179.2 16.6885 178.949 16.7622 178.732 16.9095C178.515 17.0568 178.346 17.2692 178.225 17.5465C178.112 17.8238 178.056 18.1575 178.056 18.5475V22.6035H176.743V18.5475C176.743 17.9582 176.643 17.5032 176.444 17.1825C176.253 16.8532 175.924 16.6885 175.456 16.6885C175.161 16.6885 174.906 16.7622 174.689 16.9095C174.481 17.0568 174.316 17.2735 174.195 17.5595C174.074 17.8368 174.013 18.1662 174.013 18.5475V22.6035H172.635ZM186.832 22.7595C186.156 22.7595 185.571 22.6122 185.077 22.3175C184.591 22.0228 184.214 21.6025 183.946 21.0565C183.686 20.5105 183.556 19.8735 183.556 19.1455C183.556 18.4175 183.686 17.7848 183.946 17.2475C184.214 16.7015 184.591 16.2812 185.077 15.9865C185.562 15.6832 186.134 15.5315 186.793 15.5315C187.417 15.5315 187.967 15.6788 188.444 15.9735C188.92 16.2595 189.289 16.6755 189.549 17.2215C189.817 17.7675 189.952 18.4262 189.952 19.1975V19.5485H184.986C185.02 20.2245 185.198 20.7315 185.519 21.0695C185.848 21.4075 186.29 21.5765 186.845 21.5765C187.252 21.5765 187.59 21.4812 187.859 21.2905C188.127 21.0998 188.314 20.8442 188.418 20.5235L189.848 20.6145C189.666 21.2558 189.306 21.7758 188.769 22.1745C188.24 22.5645 187.594 22.7595 186.832 22.7595ZM184.986 18.5085H188.496C188.452 17.8932 188.275 17.4382 187.963 17.1435C187.659 16.8488 187.269 16.7015 186.793 16.7015C186.299 16.7015 185.891 16.8575 185.571 17.1695C185.259 17.4728 185.064 17.9192 184.986 18.5085Z" fill="#CEC1F1"/>
<defs>
<filter id="filter0_b_380_424" x="-14.3906" y="-14.5518" width="245.659" height="103.243" filterUnits="userSpaceOnUse" color-interpolation-filters="sRGB">
<feFlood flood-opacity="0" result="BackgroundImageFix"/>
<feGaussianBlur in="BackgroundImageFix" stdDeviation="7.5"/>
<feComposite in2="SourceAlpha" operator="in" result="effect1_backgroundBlur_380_424"/>
<feBlend mode="normal" in="SourceGraphic" in2="effect1_backgroundBlur_380_424" result="shape"/>
</filter>
<radialGradient id="paint0_radial_380_424" cx="0" cy="0" r="1" gradientUnits="userSpaceOnUse" gradientTransform="translate(108.439 73.691) rotate(-90) scale(42.2761 124.48)">
<stop stop-color="#7544FF" stop-opacity="0.5"/>
<stop offset="1" stop-color="#462999" stop-opacity="0.2"/>
</radialGradient>
<linearGradient id="paint1_linear_380_424" x1="-6.57926" y1="10.2139" x2="20.9625" y2="113.426" gradientUnits="userSpaceOnUse">
<stop offset="0.51" stop-color="#ABA1C8"/>
<stop offset="1" stop-color="#7544FF"/>
</linearGradient>
</defs>
</svg>
