<svg width="216" height="58" viewBox="0 0 216 58" fill="none" xmlns="http://www.w3.org/2000/svg">
<g filter="url(#filter0_b_380_376)">
<path d="M0 0.102539H205.659C211.182 0.102539 215.659 4.57969 215.659 10.1025V47.0691C215.659 52.5919 211.182 57.0691 205.659 57.0691H9.99999C4.47714 57.0691 0 52.5919 0 47.0691V0.102539Z" fill="url(#paint0_radial_380_376)"/>
<path d="M0.300385 0.402924H205.659C211.016 0.402924 215.359 4.74559 215.359 10.1025V47.0691C215.359 52.426 211.016 56.7687 205.659 56.7687H9.99999C4.64304 56.7687 0.300385 52.426 0.300385 47.0691V0.402924Z" stroke="url(#paint1_linear_380_376)" stroke-width="0.60077"/>
</g>
<g clip-path="url(#clip0_380_376)">
<path d="M177.953 29.6035H163.732C163.06 29.6035 162.516 30.1491 162.516 30.8221V39.9149C162.516 40.5879 163.06 41.1335 163.732 41.1335H166.385C166.509 41.1335 166.628 41.1828 166.716 41.2708L168.775 43.333C169.069 43.6283 169.573 43.4192 169.573 43.0016V41.4147C169.573 41.2594 169.699 41.1335 169.854 41.1335H177.953C178.625 41.1335 179.17 40.5879 179.17 39.9149V30.8221C179.17 30.1491 178.625 29.6035 177.953 29.6035Z" fill="#FEA713"/>
<path d="M177.956 29.6035H176.552C177.224 29.6035 177.769 30.1491 177.769 30.8221V35.5426C177.769 35.7652 177.613 35.9599 177.395 36.0016C176.325 36.2058 175.466 37.0563 175.268 38.1729L174.742 41.1335H177.956C178.628 41.1335 179.172 40.5879 179.172 39.9149V30.8221C179.172 30.1491 178.628 29.6035 177.956 29.6035Z" fill="#FE9901"/>
<path d="M176.174 36.7348C175.163 36.7348 174.34 35.9105 174.34 34.8972C174.34 33.8839 175.163 33.0596 176.174 33.0596C177.185 33.0596 178.008 33.8839 178.008 34.8972C178.008 35.9105 177.185 36.7348 176.174 36.7348ZM176.174 33.7352C175.534 33.7352 175.014 34.2565 175.014 34.8972C175.014 35.538 175.534 36.0593 176.174 36.0593C176.814 36.0593 177.334 35.538 177.334 34.8972C177.334 34.2565 176.814 33.7352 176.174 33.7352Z" fill="#DFF6FD"/>
<path d="M170.472 36.735C170.145 36.735 170.125 36.7316 170.101 36.7274C169.939 36.6997 169.82 36.559 169.82 36.3945V33.3974C169.82 33.2108 169.971 33.0596 170.157 33.0596C170.344 33.0596 170.495 33.2108 170.495 33.3974V36.0592C170.694 36.0591 170.958 36.0581 171.204 36.0567C171.388 36.0565 171.542 36.206 171.543 36.3926C171.544 36.5791 171.394 36.7312 171.208 36.7323C170.865 36.7342 170.632 36.735 170.472 36.735Z" fill="#DFF6FD"/>
<path d="M172.933 36.735C172.605 36.735 172.586 36.7316 172.561 36.7274C172.4 36.6997 172.281 36.559 172.281 36.3945V33.3974C172.281 33.2108 172.432 33.0596 172.618 33.0596C172.805 33.0596 172.956 33.2108 172.956 33.3974V36.0592C173.155 36.0591 173.419 36.0581 173.665 36.0567H173.667C173.852 36.0567 174.003 36.2067 174.004 36.3926C174.005 36.5791 173.855 36.7312 173.669 36.7323C173.326 36.7342 173.093 36.735 172.933 36.735Z" fill="#DFF6FD"/>
<path d="M164.021 36.7348C163.835 36.7348 163.684 36.5835 163.684 36.397V33.3974C163.684 33.2108 163.835 33.0596 164.021 33.0596C164.207 33.0596 164.358 33.2108 164.358 33.3974V36.397C164.358 36.5835 164.207 36.7348 164.021 36.7348Z" fill="#DFF6FD"/>
<path d="M166.091 36.7348C165.905 36.7348 165.754 36.5835 165.754 36.397V33.3974C165.754 33.2108 165.905 33.0596 166.091 33.0596C166.278 33.0596 166.429 33.2108 166.429 33.3974V36.397C166.429 36.5835 166.278 36.7348 166.091 36.7348Z" fill="#DFF6FD"/>
<path d="M166.093 35.1817H164.021C163.835 35.1817 163.684 35.0306 163.684 34.8443C163.684 34.6579 163.835 34.5068 164.021 34.5068H166.093C166.279 34.5068 166.43 34.6579 166.43 34.8443C166.43 35.0306 166.279 35.1817 166.093 35.1817Z" fill="#DFF6FD"/>
<path d="M168.751 36.7348H167.489C167.303 36.7348 167.152 36.5835 167.152 36.397V33.3974C167.152 33.2108 167.303 33.0596 167.489 33.0596H168.751C168.937 33.0596 169.088 33.2108 169.088 33.3974C169.088 33.5839 168.937 33.7352 168.751 33.7352H167.827V36.0593H168.751C168.937 36.0593 169.088 36.2105 169.088 36.397C169.088 36.5836 168.937 36.7348 168.751 36.7348Z" fill="#DFF6FD"/>
<path d="M168.658 35.2335H167.489C167.303 35.2335 167.152 35.0824 167.152 34.896C167.152 34.7097 167.303 34.5586 167.489 34.5586H168.658C168.844 34.5586 168.995 34.7097 168.995 34.896C168.995 35.0824 168.844 35.2335 168.658 35.2335Z" fill="#DFF6FD"/>
<path d="M187.219 37.926C186.598 37.8275 186.01 38.2451 185.899 38.868L186.148 37.4672C186.262 36.8274 185.835 36.1953 185.194 36.0937C184.573 35.9952 183.985 36.4128 183.875 37.0357L184.123 35.6349C184.237 34.9951 183.81 34.363 183.169 34.2614C182.548 34.1629 181.96 34.5804 181.85 35.2033L181.681 36.1543C181.792 35.5314 181.383 34.9363 180.767 34.8143C180.13 34.6885 179.512 35.1343 179.398 35.7741L178.235 42.3284L178.132 41.1295C178.076 40.482 177.501 39.9822 176.856 40.0501C176.231 40.116 175.771 40.6718 175.825 41.3021L176.137 44.9387C176.351 47.4355 178.213 49.4768 180.675 49.9156C183.68 50.4509 186.55 48.4443 187.084 45.4336L188.173 39.2995C188.286 38.6598 187.86 38.0277 187.219 37.926Z" fill="#FED2A4"/>
<path d="M187.213 37.9259C187.188 37.922 187.164 37.9192 187.139 37.9169L185.844 45.2137C185.347 48.0141 182.83 49.9453 180.062 49.7708C180.26 49.8295 180.462 49.8787 180.669 49.9155C183.674 50.4509 186.544 48.4443 187.078 45.4335L188.167 39.2994C188.28 38.6597 187.853 38.0276 187.213 37.9259Z" fill="#FFBD86"/>
<path d="M173.038 44.1832C172.864 44.1832 172.717 44.0503 172.702 43.8743L172.572 42.357C172.556 42.1712 172.693 42.0075 172.879 41.9915C173.065 41.9754 173.228 42.1133 173.244 42.2991L173.374 43.8164C173.39 44.0022 173.253 44.1659 173.067 44.1819C173.057 44.1827 173.047 44.1832 173.038 44.1832Z" fill="#FD8087"/>
<path d="M186.354 33.3299C186.249 33.3299 186.145 33.2805 186.079 33.188C185.662 32.6002 185.096 32.1464 184.443 31.8756C184.271 31.8042 184.189 31.6066 184.26 31.4343C184.331 31.2619 184.528 31.18 184.701 31.2513C185.471 31.5707 186.137 32.1049 186.629 32.7962C186.737 32.9482 186.701 33.1591 186.549 33.2672C186.49 33.3096 186.422 33.3299 186.354 33.3299Z" fill="#FD8087"/>
<path d="M174.595 44.8208C174.422 44.8208 174.275 44.688 174.26 44.5119L173.997 41.4605C173.981 41.2747 174.119 41.111 174.305 41.095C174.49 41.0788 174.654 41.2167 174.67 41.4027L174.932 44.454C174.948 44.6399 174.81 44.8035 174.625 44.8195C174.615 44.8204 174.605 44.8208 174.595 44.8208Z" fill="#FD8087"/>
<path d="M185.134 34.1999C185.029 34.1999 184.925 34.1506 184.86 34.058C184.656 33.7719 184.402 33.5421 184.103 33.3751C183.94 33.2842 183.882 33.0784 183.972 32.9155C184.063 32.7526 184.269 32.6941 184.431 32.7851C184.818 33.0013 185.147 33.2977 185.409 33.6661C185.517 33.818 185.481 34.0289 185.33 34.1372C185.27 34.1796 185.202 34.1999 185.134 34.1999Z" fill="#FD8087"/>
<path d="M180.984 46.6955L181.019 46.4976C181.222 45.3553 180.67 44.2243 179.646 43.6832L178.478 43.0662C178.342 42.9946 178.254 42.8549 178.247 42.7016L178.229 42.3268L178.229 42.3289L178.126 41.13C178.092 40.7387 177.869 40.4016 177.555 40.2109V42.3289C177.555 42.3341 177.555 42.3393 177.555 42.3445L177.573 42.7329C177.591 43.1243 177.817 43.481 178.163 43.6638L179.331 44.2808C180.095 44.6843 180.507 45.5276 180.356 46.3793L180.32 46.5771C180.288 46.7608 180.41 46.9362 180.593 46.9689C180.613 46.9724 180.633 46.9742 180.653 46.9742C180.813 46.9742 180.955 46.8591 180.984 46.6955Z" fill="#FFBD86"/>
<path d="M185.669 36.2922L184.669 41.925L183.055 41.6375L184.121 35.6314C184.201 35.1714 184.001 34.7161 183.644 34.46L182.391 41.5192L180.777 41.2317L181.679 36.1509C181.758 35.6924 181.556 35.2499 181.198 35.0007L180.113 41.1134L179.97 41.088C179.787 41.0554 179.612 41.1777 179.579 41.3614C179.547 41.5451 179.669 41.7205 179.852 41.7531L185.358 42.734C185.378 42.7375 185.397 42.7392 185.417 42.7392C185.577 42.7392 185.719 42.6242 185.749 42.4605C185.781 42.2769 185.659 42.1015 185.476 42.0688L185.333 42.0434L186.146 37.464C186.225 37.0038 186.026 36.5485 185.669 36.2922Z" fill="#FFBD86"/>
</g>
<path d="M14.9169 22.4492C14.0415 22.4492 13.2919 22.2455 12.6679 21.8382C12.0439 21.4222 11.5672 20.8545 11.2379 20.1352C10.9085 19.4072 10.7439 18.5752 10.7439 17.6392C10.7439 16.7119 10.9085 15.8842 11.2379 15.1562C11.5759 14.4282 12.0612 13.8562 12.6939 13.4402C13.3265 13.0155 14.0849 12.8032 14.9689 12.8032C15.7229 12.8032 16.3599 12.9375 16.8799 13.2062C17.4085 13.4749 17.8245 13.8432 18.1279 14.3112C18.4399 14.7792 18.6565 15.3122 18.7779 15.9102L17.3089 15.9882C17.2049 15.4249 16.9709 14.9699 16.6069 14.6232C16.2429 14.2679 15.6969 14.0902 14.9689 14.0902C14.3275 14.0902 13.8032 14.2505 13.3959 14.5712C12.9885 14.8919 12.6852 15.3209 12.4859 15.8582C12.2952 16.3955 12.1999 16.9892 12.1999 17.6392C12.1999 18.3152 12.2952 18.9175 12.4859 19.4462C12.6852 19.9749 12.9885 20.3952 13.3959 20.7072C13.8119 21.0105 14.3405 21.1622 14.9819 21.1622C15.4845 21.1622 15.9179 21.0539 16.2819 20.8372C16.6459 20.6205 16.9275 20.3259 17.1269 19.9532C17.3349 19.5805 17.4475 19.1689 17.4649 18.7182H14.9949V17.5352H18.8039V22.2412H17.8419L17.7509 20.1612L17.9329 20.3172C17.8375 20.7332 17.6425 21.1015 17.3479 21.4222C17.0532 21.7429 16.6935 21.9942 16.2689 22.1762C15.8529 22.3582 15.4022 22.4492 14.9169 22.4492ZM20.4145 22.2412V15.3252H21.6755L21.7275 17.1582L21.6105 17.1192C21.7058 16.4952 21.8965 16.0402 22.1825 15.7542C22.4771 15.4682 22.8715 15.3252 23.3655 15.3252H24.0285V16.5602H23.3655C23.0188 16.5602 22.7285 16.6165 22.4945 16.7292C22.2605 16.8419 22.0828 17.0152 21.9615 17.2492C21.8488 17.4832 21.7925 17.7865 21.7925 18.1592V22.2412H20.4145ZM27.8572 22.3972C27.1812 22.3972 26.5962 22.2499 26.1022 21.9552C25.6168 21.6605 25.2398 21.2402 24.9712 20.6942C24.7112 20.1482 24.5812 19.5112 24.5812 18.7832C24.5812 18.0552 24.7112 17.4225 24.9712 16.8852C25.2398 16.3392 25.6168 15.9189 26.1022 15.6242C26.5875 15.3209 27.1595 15.1692 27.8182 15.1692C28.4422 15.1692 28.9925 15.3165 29.4692 15.6112C29.9458 15.8972 30.3142 16.3132 30.5742 16.8592C30.8428 17.4052 30.9772 18.0639 30.9772 18.8352V19.1862H26.0112C26.0458 19.8622 26.2235 20.3692 26.5442 20.7072C26.8735 21.0452 27.3155 21.2142 27.8702 21.2142C28.2775 21.2142 28.6155 21.1189 28.8842 20.9282C29.1528 20.7375 29.3392 20.4819 29.4432 20.1612L30.8732 20.2522C30.6912 20.8935 30.3315 21.4135 29.7942 21.8122C29.2655 22.2022 28.6198 22.3972 27.8572 22.3972ZM26.0112 18.1462H29.5212C29.4778 17.5309 29.3002 17.0759 28.9882 16.7812C28.6848 16.4865 28.2948 16.3392 27.8182 16.3392C27.3242 16.3392 26.9168 16.4952 26.5962 16.8072C26.2842 17.1105 26.0892 17.5569 26.0112 18.1462ZM35.2204 22.3972C34.5444 22.3972 33.9594 22.2499 33.4654 21.9552C32.9801 21.6605 32.6031 21.2402 32.3344 20.6942C32.0744 20.1482 31.9444 19.5112 31.9444 18.7832C31.9444 18.0552 32.0744 17.4225 32.3344 16.8852C32.6031 16.3392 32.9801 15.9189 33.4654 15.6242C33.9508 15.3209 34.5228 15.1692 35.1814 15.1692C35.8054 15.1692 36.3558 15.3165 36.8324 15.6112C37.3091 15.8972 37.6774 16.3132 37.9374 16.8592C38.2061 17.4052 38.3404 18.0639 38.3404 18.8352V19.1862H33.3744C33.4091 19.8622 33.5868 20.3692 33.9074 20.7072C34.2368 21.0452 34.6788 21.2142 35.2334 21.2142C35.6408 21.2142 35.9788 21.1189 36.2474 20.9282C36.5161 20.7375 36.7024 20.4819 36.8064 20.1612L38.2364 20.2522C38.0544 20.8935 37.6948 21.4135 37.1574 21.8122C36.6288 22.2022 35.9831 22.3972 35.2204 22.3972ZM33.3744 18.1462H36.8844C36.8411 17.5309 36.6634 17.0759 36.3514 16.7812C36.0481 16.4865 35.6581 16.3392 35.1814 16.3392C34.6874 16.3392 34.2801 16.4952 33.9594 16.8072C33.6474 17.1105 33.4524 17.5569 33.3744 18.1462ZM42.1348 22.2412C41.4761 22.2412 40.9908 22.0895 40.6788 21.7862C40.3668 21.4829 40.2108 21.0105 40.2108 20.3692V13.7002H41.5888V20.2652C41.5888 20.5859 41.6581 20.8069 41.7968 20.9282C41.9355 21.0495 42.1478 21.1102 42.4338 21.1102H43.4218V22.2412H42.1348ZM39.1578 16.4562V15.3252H43.4218V16.4562H39.1578ZM44.7387 22.2412V15.3252H46.1167V22.2412H44.7387ZM44.7127 14.3242V12.9462H46.1427V14.3242H44.7127ZM48.1791 22.2412V15.3252H49.4401L49.4921 17.1712L49.3231 17.0802C49.4011 16.6295 49.5484 16.2655 49.7651 15.9882C49.9818 15.7109 50.2461 15.5072 50.5581 15.3772C50.8701 15.2385 51.2081 15.1692 51.5721 15.1692C52.0921 15.1692 52.5211 15.2862 52.8591 15.5202C53.2058 15.7455 53.4658 16.0575 53.6391 16.4562C53.8211 16.8462 53.9121 17.2925 53.9121 17.7952V22.2412H52.5341V18.2112C52.5341 17.8039 52.4908 17.4615 52.4041 17.1842C52.3174 16.9069 52.1744 16.6945 51.9751 16.5472C51.7758 16.3999 51.5158 16.3262 51.1951 16.3262C50.7098 16.3262 50.3154 16.4865 50.0121 16.8072C49.7088 17.1279 49.5571 17.5959 49.5571 18.2112V22.2412H48.1791ZM58.4894 24.3472C57.9434 24.3472 57.4624 24.2649 57.0464 24.1002C56.6304 23.9355 56.2881 23.7015 56.0194 23.3982C55.7508 23.1035 55.5688 22.7569 55.4734 22.3582L56.9034 22.2672C56.9988 22.5532 57.1634 22.7785 57.3974 22.9432C57.6401 23.1165 58.0041 23.2032 58.4894 23.2032C59.0614 23.2032 59.4991 23.0819 59.8024 22.8392C60.1144 22.5965 60.2704 22.2282 60.2704 21.7342V20.7332C60.1058 21.0885 59.8414 21.3702 59.4774 21.5782C59.1134 21.7862 58.7061 21.8902 58.2554 21.8902C57.6748 21.8902 57.1591 21.7472 56.7084 21.4612C56.2578 21.1752 55.9068 20.7809 55.6554 20.2782C55.4041 19.7755 55.2784 19.1949 55.2784 18.5362C55.2784 17.8689 55.3998 17.2839 55.6424 16.7812C55.8938 16.2785 56.2404 15.8842 56.6824 15.5982C57.1331 15.3122 57.6401 15.1692 58.2034 15.1692C58.6974 15.1692 59.1308 15.2819 59.5034 15.5072C59.8848 15.7325 60.1578 16.0359 60.3224 16.4172V15.3252H61.6484V21.6952C61.6484 22.2672 61.5184 22.7482 61.2584 23.1382C61.0071 23.5369 60.6431 23.8359 60.1664 24.0352C59.6984 24.2432 59.1394 24.3472 58.4894 24.3472ZM58.4764 20.7202C59.0138 20.7202 59.4428 20.5252 59.7634 20.1352C60.0928 19.7452 60.2618 19.2079 60.2704 18.5232C60.2791 18.0725 60.2098 17.6869 60.0624 17.3662C59.9151 17.0369 59.7028 16.7855 59.4254 16.6122C59.1568 16.4302 58.8404 16.3392 58.4764 16.3392C57.9131 16.3392 57.4754 16.5385 57.1634 16.9372C56.8601 17.3272 56.7084 17.8559 56.7084 18.5232C56.7084 19.1992 56.8644 19.7365 57.1764 20.1352C57.4971 20.5252 57.9304 20.7202 58.4764 20.7202ZM66.142 22.3972C65.492 22.3972 64.9416 22.2975 64.491 22.0982C64.049 21.8989 63.7066 21.6259 63.464 21.2792C63.2213 20.9239 63.0826 20.5165 63.048 20.0572L64.465 19.9922C64.5343 20.3735 64.699 20.6769 64.959 20.9022C65.219 21.1275 65.6133 21.2402 66.142 21.2402C66.5753 21.2402 66.9176 21.1709 67.169 21.0322C67.4203 20.8935 67.546 20.6725 67.546 20.3692C67.546 20.2045 67.5026 20.0659 67.416 19.9532C67.338 19.8319 67.182 19.7322 66.948 19.6542C66.714 19.5675 66.3673 19.4852 65.908 19.4072C65.2233 19.2772 64.686 19.1255 64.296 18.9522C63.906 18.7789 63.6286 18.5579 63.464 18.2892C63.2993 18.0205 63.217 17.6955 63.217 17.3142C63.217 16.6815 63.451 16.1659 63.919 15.7672C64.3956 15.3685 65.0803 15.1692 65.973 15.1692C66.571 15.1692 67.0736 15.2732 67.481 15.4812C67.8883 15.6805 68.2046 15.9535 68.43 16.3002C68.664 16.6382 68.8113 17.0195 68.872 17.4442L67.455 17.5222C67.4116 17.2795 67.325 17.0715 67.195 16.8982C67.0736 16.7162 66.909 16.5775 66.701 16.4822C66.493 16.3782 66.246 16.3262 65.96 16.3262C65.518 16.3262 65.1886 16.4129 64.972 16.5862C64.7553 16.7595 64.647 16.9849 64.647 17.2622C64.647 17.4702 64.6946 17.6392 64.79 17.7692C64.894 17.8992 65.0586 18.0075 65.284 18.0942C65.5093 18.1722 65.8083 18.2415 66.181 18.3022C66.9003 18.4235 67.4636 18.5752 67.871 18.7572C68.2783 18.9305 68.5643 19.1472 68.729 19.4072C68.8936 19.6672 68.976 19.9835 68.976 20.3562C68.976 20.7895 68.8546 21.1579 68.612 21.4612C68.3693 21.7645 68.0356 21.9985 67.611 22.1632C67.1863 22.3192 66.6966 22.3972 66.142 22.3972ZM75.5956 22.3972C74.8763 22.3972 74.2999 22.2325 73.8666 21.9032C73.4419 21.5739 73.2296 21.1102 73.2296 20.5122C73.2296 19.9142 73.4073 19.4505 73.7626 19.1212C74.1266 18.7832 74.6856 18.5405 75.4396 18.3932L77.8186 17.9382C77.8186 17.4009 77.6929 17.0022 77.4416 16.7422C77.1903 16.4735 76.8176 16.3392 76.3236 16.3392C75.8816 16.3392 75.5349 16.4389 75.2836 16.6382C75.0323 16.8289 74.8589 17.1149 74.7636 17.4962L73.3466 17.4052C73.4766 16.7119 73.7973 16.1659 74.3086 15.7672C74.8286 15.3685 75.5003 15.1692 76.3236 15.1692C77.2596 15.1692 77.9703 15.4205 78.4556 15.9232C78.9496 16.4172 79.1966 17.1149 79.1966 18.0162V20.7072C79.1966 20.8719 79.2226 20.9889 79.2746 21.0582C79.3353 21.1189 79.4306 21.1492 79.5606 21.1492H79.8076V22.2412C79.7643 22.2499 79.6949 22.2585 79.5996 22.2672C79.5043 22.2759 79.4046 22.2802 79.3006 22.2802C79.0059 22.2802 78.7503 22.2325 78.5336 22.1372C78.3256 22.0419 78.1696 21.8859 78.0656 21.6692C77.9616 21.4439 77.9096 21.1449 77.9096 20.7722L78.0526 20.8372C77.9833 21.1405 77.8316 21.4092 77.5976 21.6432C77.3723 21.8772 77.0819 22.0635 76.7266 22.2022C76.3799 22.3322 76.0029 22.3972 75.5956 22.3972ZM75.8166 21.3052C76.2326 21.3052 76.5879 21.2272 76.8826 21.0712C77.1773 20.9065 77.4069 20.6812 77.5716 20.3952C77.7363 20.1092 77.8186 19.7842 77.8186 19.4202V18.9782L75.7906 19.3682C75.3746 19.4462 75.0799 19.5719 74.9066 19.7452C74.7419 19.9099 74.6596 20.1222 74.6596 20.3822C74.6596 20.6769 74.7593 20.9065 74.9586 21.0712C75.1666 21.2272 75.4526 21.3052 75.8166 21.3052ZM80.9711 22.2412V15.3252H82.2321L82.2841 17.1712L82.1151 17.0802C82.1931 16.6295 82.3404 16.2655 82.5571 15.9882C82.7738 15.7109 83.0381 15.5072 83.3501 15.3772C83.6621 15.2385 84.0001 15.1692 84.3641 15.1692C84.8841 15.1692 85.3131 15.2862 85.6511 15.5202C85.9978 15.7455 86.2578 16.0575 86.4311 16.4562C86.6131 16.8462 86.7041 17.2925 86.7041 17.7952V22.2412H85.3261V18.2112C85.3261 17.8039 85.2828 17.4615 85.1961 17.1842C85.1094 16.9069 84.9664 16.6945 84.7671 16.5472C84.5678 16.3999 84.3078 16.3262 83.9871 16.3262C83.5018 16.3262 83.1074 16.4865 82.8041 16.8072C82.5008 17.1279 82.3491 17.5959 82.3491 18.2112V22.2412H80.9711ZM90.9564 22.3972C90.3671 22.3972 89.8514 22.2499 89.4094 21.9552C88.9761 21.6605 88.6424 21.2445 88.4084 20.7072C88.1831 20.1612 88.0704 19.5199 88.0704 18.7832C88.0704 18.0465 88.1874 17.4095 88.4214 16.8722C88.6554 16.3262 88.9891 15.9059 89.4224 15.6112C89.8557 15.3165 90.3671 15.1692 90.9564 15.1692C91.4331 15.1692 91.8577 15.2689 92.2304 15.4682C92.6031 15.6675 92.8847 15.9449 93.0754 16.3002V13.0112H94.4534V22.2412H93.1664L93.1274 21.2012C92.9367 21.5739 92.6464 21.8685 92.2564 22.0852C91.8751 22.2932 91.4417 22.3972 90.9564 22.3972ZM91.3204 21.2012C91.6931 21.2012 92.0094 21.1059 92.2694 20.9152C92.5294 20.7245 92.7287 20.4472 92.8674 20.0832C93.0061 19.7192 93.0754 19.2859 93.0754 18.7832C93.0754 18.2632 93.0061 17.8255 92.8674 17.4702C92.7287 17.1062 92.5294 16.8332 92.2694 16.6512C92.0094 16.4605 91.6931 16.3652 91.3204 16.3652C90.7657 16.3652 90.3237 16.5819 89.9944 17.0152C89.6651 17.4399 89.5004 18.0292 89.5004 18.7832C89.5004 19.5285 89.6651 20.1179 89.9944 20.5512C90.3237 20.9845 90.7657 21.2012 91.3204 21.2012ZM100.987 22.2412L98.8807 15.3252H100.324L101.806 20.7332L103.327 15.3252H104.627L106.148 20.7332L107.643 15.3252H109.086L106.98 22.2412H105.433L103.977 17.3012L102.521 22.2412H100.987ZM112.84 22.3972C112.164 22.3972 111.579 22.2499 111.085 21.9552C110.599 21.6605 110.222 21.2402 109.954 20.6942C109.694 20.1482 109.564 19.5112 109.564 18.7832C109.564 18.0552 109.694 17.4225 109.954 16.8852C110.222 16.3392 110.599 15.9189 111.085 15.6242C111.57 15.3209 112.142 15.1692 112.801 15.1692C113.425 15.1692 113.975 15.3165 114.452 15.6112C114.928 15.8972 115.297 16.3132 115.557 16.8592C115.825 17.4052 115.96 18.0639 115.96 18.8352V19.1862H110.994C111.028 19.8622 111.206 20.3692 111.527 20.7072C111.856 21.0452 112.298 21.2142 112.853 21.2142C113.26 21.2142 113.598 21.1189 113.867 20.9282C114.135 20.7375 114.322 20.4819 114.426 20.1612L115.856 20.2522C115.674 20.8935 115.314 21.4135 114.777 21.8122C114.248 22.2022 113.602 22.3972 112.84 22.3972ZM110.994 18.1462H114.504C114.46 17.5309 114.283 17.0759 113.971 16.7812C113.667 16.4865 113.277 16.3392 112.801 16.3392C112.307 16.3392 111.899 16.4952 111.579 16.8072C111.267 17.1105 111.072 17.5569 110.994 18.1462ZM118.927 22.2412C118.477 22.2412 118.113 22.1242 117.835 21.8902C117.558 21.6562 117.419 21.2835 117.419 20.7722V13.0112H118.797V20.6422C118.797 20.7982 118.836 20.9152 118.914 20.9932C119.001 21.0712 119.122 21.1102 119.278 21.1102H119.824V22.2412H118.927ZM123.846 22.3972C123.188 22.3972 122.611 22.2499 122.117 21.9552C121.623 21.6605 121.242 21.2402 120.973 20.6942C120.705 20.1482 120.57 19.5112 120.57 18.7832C120.57 18.0552 120.705 17.4225 120.973 16.8852C121.242 16.3392 121.623 15.9189 122.117 15.6242C122.611 15.3209 123.188 15.1692 123.846 15.1692C124.41 15.1692 124.908 15.2689 125.341 15.4682C125.783 15.6589 126.139 15.9405 126.407 16.3132C126.685 16.6859 126.862 17.1409 126.94 17.6782L125.497 17.7562C125.428 17.3055 125.246 16.9632 124.951 16.7292C124.657 16.4865 124.288 16.3652 123.846 16.3652C123.266 16.3652 122.811 16.5819 122.481 17.0152C122.161 17.4399 122 18.0292 122 18.7832C122 19.5372 122.161 20.1309 122.481 20.5642C122.811 20.9889 123.266 21.2012 123.846 21.2012C124.288 21.2012 124.657 21.0799 124.951 20.8372C125.246 20.5859 125.428 20.2089 125.497 19.7062L126.94 19.7842C126.862 20.3129 126.685 20.7722 126.407 21.1622C126.139 21.5522 125.783 21.8555 125.341 22.0722C124.908 22.2889 124.41 22.3972 123.846 22.3972ZM131.045 22.3972C130.386 22.3972 129.81 22.2499 129.316 21.9552C128.822 21.6605 128.44 21.2402 128.172 20.6942C127.903 20.1482 127.769 19.5112 127.769 18.7832C127.769 18.0465 127.903 17.4095 128.172 16.8722C128.44 16.3349 128.822 15.9189 129.316 15.6242C129.81 15.3209 130.386 15.1692 131.045 15.1692C131.703 15.1692 132.28 15.3209 132.774 15.6242C133.268 15.9189 133.649 16.3349 133.918 16.8722C134.186 17.4095 134.321 18.0465 134.321 18.7832C134.321 19.5112 134.186 20.1482 133.918 20.6942C133.649 21.2402 133.268 21.6605 132.774 21.9552C132.28 22.2499 131.703 22.3972 131.045 22.3972ZM131.045 21.2012C131.634 21.2012 132.089 20.9889 132.41 20.5642C132.73 20.1309 132.891 19.5372 132.891 18.7832C132.891 18.0292 132.73 17.4399 132.41 17.0152C132.089 16.5819 131.634 16.3652 131.045 16.3652C130.464 16.3652 130.009 16.5819 129.68 17.0152C129.359 17.4399 129.199 18.0292 129.199 18.7832C129.199 19.5372 129.359 20.1309 129.68 20.5642C130.009 20.9889 130.464 21.2012 131.045 21.2012ZM135.713 22.2412V15.3252H136.974L137.013 17.0412L136.857 16.9892C136.935 16.6079 137.07 16.2829 137.26 16.0142C137.46 15.7455 137.702 15.5375 137.988 15.3902C138.274 15.2429 138.586 15.1692 138.924 15.1692C139.514 15.1692 139.995 15.3382 140.367 15.6762C140.74 16.0055 140.974 16.4605 141.069 17.0412H140.848C140.926 16.6339 141.056 16.2959 141.238 16.0272C141.429 15.7499 141.672 15.5375 141.966 15.3902C142.261 15.2429 142.595 15.1692 142.967 15.1692C143.453 15.1692 143.864 15.2732 144.202 15.4812C144.549 15.6805 144.809 15.9752 144.982 16.3652C145.164 16.7552 145.255 17.2319 145.255 17.7952V22.2412H143.877V18.1332C143.877 17.5352 143.769 17.0845 143.552 16.7812C143.336 16.4779 143.006 16.3262 142.564 16.3262C142.278 16.3262 142.027 16.3999 141.81 16.5472C141.594 16.6945 141.425 16.9069 141.303 17.1842C141.191 17.4615 141.134 17.7952 141.134 18.1852V22.2412H139.821V18.1852C139.821 17.5959 139.722 17.1409 139.522 16.8202C139.332 16.4909 139.002 16.3262 138.534 16.3262C138.24 16.3262 137.984 16.3999 137.767 16.5472C137.559 16.6945 137.395 16.9112 137.273 17.1972C137.152 17.4745 137.091 17.8039 137.091 18.1852V22.2412H135.713ZM149.91 22.3972C149.234 22.3972 148.649 22.2499 148.155 21.9552C147.67 21.6605 147.293 21.2402 147.024 20.6942C146.764 20.1482 146.634 19.5112 146.634 18.7832C146.634 18.0552 146.764 17.4225 147.024 16.8852C147.293 16.3392 147.67 15.9189 148.155 15.6242C148.64 15.3209 149.212 15.1692 149.871 15.1692C150.495 15.1692 151.045 15.3165 151.522 15.6112C151.999 15.8972 152.367 16.3132 152.627 16.8592C152.896 17.4052 153.03 18.0639 153.03 18.8352V19.1862H148.064C148.099 19.8622 148.276 20.3692 148.597 20.7072C148.926 21.0452 149.368 21.2142 149.923 21.2142C150.33 21.2142 150.668 21.1189 150.937 20.9282C151.206 20.7375 151.392 20.4819 151.496 20.1612L152.926 20.2522C152.744 20.8935 152.384 21.4135 151.847 21.8122C151.318 22.2022 150.673 22.3972 149.91 22.3972ZM148.064 18.1462H151.574C151.531 17.5309 151.353 17.0759 151.041 16.7812C150.738 16.4865 150.348 16.3392 149.871 16.3392C149.377 16.3392 148.97 16.4952 148.649 16.8072C148.337 17.1105 148.142 17.5569 148.064 18.1462ZM154.644 19.4852C154.609 19.1819 154.575 18.8222 154.54 18.4062C154.505 17.9815 154.471 17.5525 154.436 17.1192C154.41 16.6772 154.397 16.2829 154.397 15.9362V13.0112H155.801V15.9362C155.801 16.2829 155.788 16.6772 155.762 17.1192C155.736 17.5525 155.701 17.9815 155.658 18.4062C155.623 18.8222 155.593 19.1819 155.567 19.4852H154.644ZM154.215 22.2412V20.6032H155.905V22.2412H154.215ZM160.815 22.2412V13.0112H162.219V17.4572L161.543 16.9632H167.159L166.483 17.4572V13.0112H167.887V22.2412H166.483V17.7432L167.159 18.2372H161.543L162.219 17.7432V22.2412H160.815ZM172.698 22.3972C172.039 22.3972 171.463 22.2499 170.969 21.9552C170.475 21.6605 170.094 21.2402 169.825 20.6942C169.556 20.1482 169.422 19.5112 169.422 18.7832C169.422 18.0465 169.556 17.4095 169.825 16.8722C170.094 16.3349 170.475 15.9189 170.969 15.6242C171.463 15.3209 172.039 15.1692 172.698 15.1692C173.357 15.1692 173.933 15.3209 174.427 15.6242C174.921 15.9189 175.302 16.3349 175.571 16.8722C175.84 17.4095 175.974 18.0465 175.974 18.7832C175.974 19.5112 175.84 20.1482 175.571 20.6942C175.302 21.2402 174.921 21.6605 174.427 21.9552C173.933 22.2499 173.357 22.3972 172.698 22.3972ZM172.698 21.2012C173.287 21.2012 173.742 20.9889 174.063 20.5642C174.384 20.1309 174.544 19.5372 174.544 18.7832C174.544 18.0292 174.384 17.4399 174.063 17.0152C173.742 16.5819 173.287 16.3652 172.698 16.3652C172.117 16.3652 171.662 16.5819 171.333 17.0152C171.012 17.4399 170.852 18.0292 170.852 18.7832C170.852 19.5372 171.012 20.1309 171.333 20.5642C171.662 20.9889 172.117 21.2012 172.698 21.2012ZM178.568 22.2412L176.462 15.3252H177.905L179.387 20.7332L180.908 15.3252H182.208L183.729 20.7332L185.224 15.3252H186.667L184.561 22.2412H183.014L181.558 17.3012L180.102 22.2412H178.568ZM13.9939 41.3972C13.3352 41.3972 12.7589 41.2499 12.2649 40.9552C11.7709 40.6605 11.3895 40.2402 11.1209 39.6942C10.8522 39.1482 10.7179 38.5112 10.7179 37.7832C10.7179 37.0552 10.8522 36.4225 11.1209 35.8852C11.3895 35.3392 11.7709 34.9189 12.2649 34.6242C12.7589 34.3209 13.3352 34.1692 13.9939 34.1692C14.5572 34.1692 15.0555 34.2689 15.4889 34.4682C15.9309 34.6589 16.2862 34.9405 16.5549 35.3132C16.8322 35.6859 17.0099 36.1409 17.0879 36.6782L15.6449 36.7562C15.5755 36.3055 15.3935 35.9632 15.0989 35.7292C14.8042 35.4865 14.4359 35.3652 13.9939 35.3652C13.4132 35.3652 12.9582 35.5819 12.6289 36.0152C12.3082 36.4399 12.1479 37.0292 12.1479 37.7832C12.1479 38.5372 12.3082 39.1309 12.6289 39.5642C12.9582 39.9889 13.4132 40.2012 13.9939 40.2012C14.4359 40.2012 14.8042 40.0799 15.0989 39.8372C15.3935 39.5859 15.5755 39.2089 15.6449 38.7062L17.0879 38.7842C17.0099 39.3129 16.8322 39.7722 16.5549 40.1622C16.2862 40.5522 15.9309 40.8555 15.4889 41.0722C15.0555 41.2889 14.5572 41.3972 13.9939 41.3972ZM20.4218 41.3972C19.7024 41.3972 19.1261 41.2325 18.6928 40.9032C18.2681 40.5739 18.0558 40.1102 18.0558 39.5122C18.0558 38.9142 18.2334 38.4505 18.5888 38.1212C18.9528 37.7832 19.5118 37.5405 20.2658 37.3932L22.6448 36.9382C22.6448 36.4009 22.5191 36.0022 22.2678 35.7422C22.0164 35.4735 21.6438 35.3392 21.1498 35.3392C20.7078 35.3392 20.3611 35.4389 20.1098 35.6382C19.8584 35.8289 19.6851 36.1149 19.5898 36.4962L18.1728 36.4052C18.3028 35.7119 18.6234 35.1659 19.1348 34.7672C19.6548 34.3685 20.3264 34.1692 21.1498 34.1692C22.0858 34.1692 22.7964 34.4205 23.2818 34.9232C23.7758 35.4172 24.0228 36.1149 24.0228 37.0162V39.7072C24.0228 39.8719 24.0488 39.9889 24.1008 40.0582C24.1614 40.1189 24.2568 40.1492 24.3868 40.1492H24.6338V41.2412C24.5904 41.2499 24.5211 41.2585 24.4258 41.2672C24.3304 41.2759 24.2308 41.2802 24.1268 41.2802C23.8321 41.2802 23.5764 41.2325 23.3598 41.1372C23.1518 41.0419 22.9958 40.8859 22.8918 40.6692C22.7878 40.4439 22.7358 40.1449 22.7358 39.7722L22.8788 39.8372C22.8094 40.1405 22.6578 40.4092 22.4238 40.6432C22.1984 40.8772 21.9081 41.0635 21.5528 41.2022C21.2061 41.3322 20.8291 41.3972 20.4218 41.3972ZM20.6428 40.3052C21.0588 40.3052 21.4141 40.2272 21.7088 40.0712C22.0034 39.9065 22.2331 39.6812 22.3978 39.3952C22.5624 39.1092 22.6448 38.7842 22.6448 38.4202V37.9782L20.6168 38.3682C20.2008 38.4462 19.9061 38.5719 19.7328 38.7452C19.5681 38.9099 19.4858 39.1222 19.4858 39.3822C19.4858 39.6769 19.5854 39.9065 19.7848 40.0712C19.9928 40.2272 20.2788 40.3052 20.6428 40.3052ZM25.7973 41.2412V34.3252H27.0583L27.1103 36.1712L26.9413 36.0802C27.0193 35.6295 27.1666 35.2655 27.3833 34.9882C27.5999 34.7109 27.8643 34.5072 28.1763 34.3772C28.4883 34.2385 28.8263 34.1692 29.1903 34.1692C29.7103 34.1692 30.1393 34.2862 30.4773 34.5202C30.8239 34.7455 31.0839 35.0575 31.2573 35.4562C31.4393 35.8462 31.5303 36.2925 31.5303 36.7952V41.2412H30.1523V37.2112C30.1523 36.8039 30.1089 36.4615 30.0223 36.1842C29.9356 35.9069 29.7926 35.6945 29.5933 35.5472C29.3939 35.3999 29.1339 35.3262 28.8133 35.3262C28.3279 35.3262 27.9336 35.4865 27.6303 35.8072C27.3269 36.1279 27.1753 36.5959 27.1753 37.2112V41.2412H25.7973ZM38.0561 41.2412L35.9501 34.3252H37.3931L38.8751 39.7332L40.3961 34.3252H41.6961L43.2171 39.7332L44.7121 34.3252H46.1551L44.0491 41.2412H42.5021L41.0461 36.3012L39.5901 41.2412H38.0561ZM49.9089 41.3972C49.2329 41.3972 48.6479 41.2499 48.1539 40.9552C47.6686 40.6605 47.2916 40.2402 47.0229 39.6942C46.7629 39.1482 46.6329 38.5112 46.6329 37.7832C46.6329 37.0552 46.7629 36.4225 47.0229 35.8852C47.2916 35.3392 47.6686 34.9189 48.1539 34.6242C48.6392 34.3209 49.2112 34.1692 49.8699 34.1692C50.4939 34.1692 51.0442 34.3165 51.5209 34.6112C51.9976 34.8972 52.3659 35.3132 52.6259 35.8592C52.8946 36.4052 53.0289 37.0639 53.0289 37.8352V38.1862H48.0629C48.0976 38.8622 48.2752 39.3692 48.5959 39.7072C48.9252 40.0452 49.3672 40.2142 49.9219 40.2142C50.3292 40.2142 50.6672 40.1189 50.9359 39.9282C51.2046 39.7375 51.3909 39.4819 51.4949 39.1612L52.9249 39.2522C52.7429 39.8935 52.3832 40.4135 51.8459 40.8122C51.3172 41.2022 50.6716 41.3972 49.9089 41.3972ZM48.0629 37.1462H51.5729C51.5296 36.5309 51.3519 36.0759 51.0399 35.7812C50.7366 35.4865 50.3466 35.3392 49.8699 35.3392C49.3759 35.3392 48.9686 35.4952 48.6479 35.8072C48.3359 36.1105 48.1409 36.5569 48.0629 37.1462ZM57.7133 41.2412V32.0112H59.0913V35.8852L58.9223 35.8592C59.0003 35.4692 59.1433 35.1529 59.3513 34.9102C59.5593 34.6589 59.8149 34.4725 60.1183 34.3512C60.4216 34.2299 60.7553 34.1692 61.1193 34.1692C61.6219 34.1692 62.0466 34.2819 62.3933 34.5072C62.7399 34.7239 62.9999 35.0315 63.1733 35.4302C63.3553 35.8289 63.4463 36.2839 63.4463 36.7952V41.2412H62.0683V37.1592C62.0683 36.5352 61.9599 36.0759 61.7433 35.7812C61.5353 35.4779 61.2059 35.3262 60.7553 35.3262C60.2526 35.3262 59.8496 35.4865 59.5463 35.8072C59.2429 36.1192 59.0913 36.5785 59.0913 37.1852V41.2412H57.7133ZM68.0886 41.3972C67.4126 41.3972 66.8276 41.2499 66.3336 40.9552C65.8483 40.6605 65.4713 40.2402 65.2026 39.6942C64.9426 39.1482 64.8126 38.5112 64.8126 37.7832C64.8126 37.0552 64.9426 36.4225 65.2026 35.8852C65.4713 35.3392 65.8483 34.9189 66.3336 34.6242C66.8189 34.3209 67.3909 34.1692 68.0496 34.1692C68.6736 34.1692 69.2239 34.3165 69.7006 34.6112C70.1773 34.8972 70.5456 35.3132 70.8056 35.8592C71.0743 36.4052 71.2086 37.0639 71.2086 37.8352V38.1862H66.2426C66.2773 38.8622 66.4549 39.3692 66.7756 39.7072C67.1049 40.0452 67.5469 40.2142 68.1016 40.2142C68.5089 40.2142 68.8469 40.1189 69.1156 39.9282C69.3843 39.7375 69.5706 39.4819 69.6746 39.1612L71.1046 39.2522C70.9226 39.8935 70.5629 40.4135 70.0256 40.8122C69.4969 41.2022 68.8513 41.3972 68.0886 41.3972ZM66.2426 37.1462H69.7526C69.7093 36.5309 69.5316 36.0759 69.2196 35.7812C68.9163 35.4865 68.5263 35.3392 68.0496 35.3392C67.5556 35.3392 67.1483 35.4952 66.8276 35.8072C66.5156 36.1105 66.3206 36.5569 66.2426 37.1462ZM74.1764 41.2412C73.7257 41.2412 73.3617 41.1242 73.0844 40.8902C72.807 40.6562 72.6684 40.2835 72.6684 39.7722V32.0112H74.0464V39.6422C74.0464 39.7982 74.0854 39.9152 74.1634 39.9932C74.25 40.0712 74.3714 40.1102 74.5274 40.1102H75.0734V41.2412H74.1764ZM76.2992 43.1912V34.3252H77.5992L77.6382 35.8072L77.4822 35.7292C77.6556 35.2179 77.9416 34.8322 78.3402 34.5722C78.7389 34.3035 79.1982 34.1692 79.7182 34.1692C80.3942 34.1692 80.9489 34.3382 81.3822 34.6762C81.8242 35.0055 82.1492 35.4432 82.3572 35.9892C82.5739 36.5352 82.6822 37.1332 82.6822 37.7832C82.6822 38.4332 82.5739 39.0312 82.3572 39.5772C82.1492 40.1232 81.8242 40.5652 81.3822 40.9032C80.9489 41.2325 80.3942 41.3972 79.7182 41.3972C79.3716 41.3972 79.0466 41.3365 78.7432 41.2152C78.4399 41.0939 78.1799 40.9249 77.9632 40.7082C77.7552 40.4829 77.6079 40.2185 77.5212 39.9152L77.6772 39.7592V43.1912H76.2992ZM79.4712 40.2012C80.0259 40.2012 80.4592 39.9889 80.7712 39.5642C81.0919 39.1395 81.2522 38.5459 81.2522 37.7832C81.2522 37.0205 81.0919 36.4269 80.7712 36.0022C80.4592 35.5775 80.0259 35.3652 79.4712 35.3652C79.1072 35.3652 78.7909 35.4562 78.5222 35.6382C78.2536 35.8115 78.0456 36.0802 77.8982 36.4442C77.7509 36.8082 77.6772 37.2545 77.6772 37.7832C77.6772 38.3119 77.7466 38.7582 77.8852 39.1222C78.0326 39.4862 78.2406 39.7592 78.5092 39.9412C78.7866 40.1145 79.1072 40.2012 79.4712 40.2012ZM87.7595 43.1912V42.0602H88.6045C88.8385 42.0602 89.0119 42.0255 89.1245 41.9562C89.2372 41.8869 89.3239 41.7699 89.3845 41.6052L89.6055 41.0332H89.1765L86.6805 34.3252H88.1365L90.0345 39.7592L91.8415 34.3252H93.3105L90.5545 42.0472C90.4159 42.4459 90.2079 42.7362 89.9305 42.9182C89.6619 43.1002 89.2849 43.1912 88.7995 43.1912H87.7595ZM97.0466 41.3972C96.3879 41.3972 95.8116 41.2499 95.3176 40.9552C94.8236 40.6605 94.4423 40.2402 94.1736 39.6942C93.9049 39.1482 93.7706 38.5112 93.7706 37.7832C93.7706 37.0465 93.9049 36.4095 94.1736 35.8722C94.4423 35.3349 94.8236 34.9189 95.3176 34.6242C95.8116 34.3209 96.3879 34.1692 97.0466 34.1692C97.7053 34.1692 98.2816 34.3209 98.7756 34.6242C99.2696 34.9189 99.6509 35.3349 99.9196 35.8722C100.188 36.4095 100.323 37.0465 100.323 37.7832C100.323 38.5112 100.188 39.1482 99.9196 39.6942C99.6509 40.2402 99.2696 40.6605 98.7756 40.9552C98.2816 41.2499 97.7053 41.3972 97.0466 41.3972ZM97.0466 40.2012C97.6359 40.2012 98.0909 39.9889 98.4116 39.5642C98.7323 39.1309 98.8926 38.5372 98.8926 37.7832C98.8926 37.0292 98.7323 36.4399 98.4116 36.0152C98.0909 35.5819 97.6359 35.3652 97.0466 35.3652C96.4659 35.3652 96.0109 35.5819 95.6816 36.0152C95.3609 36.4399 95.2006 37.0292 95.2006 37.7832C95.2006 38.5372 95.3609 39.1309 95.6816 39.5642C96.0109 39.9889 96.4659 40.2012 97.0466 40.2012ZM103.99 41.3972C103.297 41.3972 102.742 41.1675 102.326 40.7082C101.919 40.2402 101.715 39.5945 101.715 38.7712V34.3252H103.093V38.4202C103.093 39.0442 103.202 39.5035 103.418 39.7982C103.635 40.0929 103.964 40.2402 104.406 40.2402C104.909 40.2402 105.299 40.0799 105.576 39.7592C105.862 39.4299 106.005 38.9705 106.005 38.3812V34.3252H107.383V41.2412H106.096L106.07 39.4342L106.265 39.5122C106.144 40.1189 105.888 40.5869 105.498 40.9162C105.108 41.2369 104.606 41.3972 103.99 41.3972ZM115.146 41.2412C114.487 41.2412 114.002 41.0895 113.69 40.7862C113.378 40.4829 113.222 40.0105 113.222 39.3692V32.7002H114.6V39.2652C114.6 39.5859 114.669 39.8069 114.808 39.9282C114.946 40.0495 115.159 40.1102 115.445 40.1102H116.433V41.2412H115.146ZM112.169 35.4562V34.3252H116.433V35.4562H112.169ZM120.482 41.3972C119.823 41.3972 119.247 41.2499 118.753 40.9552C118.259 40.6605 117.878 40.2402 117.609 39.6942C117.34 39.1482 117.206 38.5112 117.206 37.7832C117.206 37.0465 117.34 36.4095 117.609 35.8722C117.878 35.3349 118.259 34.9189 118.753 34.6242C119.247 34.3209 119.823 34.1692 120.482 34.1692C121.141 34.1692 121.717 34.3209 122.211 34.6242C122.705 34.9189 123.086 35.3349 123.355 35.8722C123.624 36.4095 123.758 37.0465 123.758 37.7832C123.758 38.5112 123.624 39.1482 123.355 39.6942C123.086 40.2402 122.705 40.6605 122.211 40.9552C121.717 41.2499 121.141 41.3972 120.482 41.3972ZM120.482 40.2012C121.071 40.2012 121.526 39.9889 121.847 39.5642C122.168 39.1309 122.328 38.5372 122.328 37.7832C122.328 37.0292 122.168 36.4399 121.847 36.0152C121.526 35.5819 121.071 35.3652 120.482 35.3652C119.901 35.3652 119.446 35.5819 119.117 36.0152C118.796 36.4399 118.636 37.0292 118.636 37.7832C118.636 38.5372 118.796 39.1309 119.117 39.5642C119.446 39.9889 119.901 40.2012 120.482 40.2012ZM127.608 41.3972C127.018 41.3972 126.503 41.2499 126.061 40.9552C125.627 40.6605 125.294 40.2445 125.06 39.7072C124.834 39.1612 124.722 38.5199 124.722 37.7832C124.722 37.0465 124.839 36.4095 125.073 35.8722C125.307 35.3262 125.64 34.9059 126.074 34.6112C126.507 34.3165 127.018 34.1692 127.608 34.1692C128.084 34.1692 128.509 34.2689 128.882 34.4682C129.254 34.6675 129.536 34.9449 129.727 35.3002V32.0112H131.105V41.2412H129.818L129.779 40.2012C129.588 40.5739 129.298 40.8685 128.908 41.0852C128.526 41.2932 128.093 41.3972 127.608 41.3972ZM127.972 40.2012C128.344 40.2012 128.661 40.1059 128.921 39.9152C129.181 39.7245 129.38 39.4472 129.519 39.0832C129.657 38.7192 129.727 38.2859 129.727 37.7832C129.727 37.2632 129.657 36.8255 129.519 36.4702C129.38 36.1062 129.181 35.8332 128.921 35.6512C128.661 35.4605 128.344 35.3652 127.972 35.3652C127.417 35.3652 126.975 35.5819 126.646 36.0152C126.316 36.4399 126.152 37.0292 126.152 37.7832C126.152 38.5285 126.316 39.1179 126.646 39.5512C126.975 39.9845 127.417 40.2012 127.972 40.2012ZM134.87 41.3972C134.151 41.3972 133.574 41.2325 133.141 40.9032C132.716 40.5739 132.504 40.1102 132.504 39.5122C132.504 38.9142 132.682 38.4505 133.037 38.1212C133.401 37.7832 133.96 37.5405 134.714 37.3932L137.093 36.9382C137.093 36.4009 136.967 36.0022 136.716 35.7422C136.465 35.4735 136.092 35.3392 135.598 35.3392C135.156 35.3392 134.809 35.4389 134.558 35.6382C134.307 35.8289 134.133 36.1149 134.038 36.4962L132.621 36.4052C132.751 35.7119 133.072 35.1659 133.583 34.7672C134.103 34.3685 134.775 34.1692 135.598 34.1692C136.534 34.1692 137.245 34.4205 137.73 34.9232C138.224 35.4172 138.471 36.1149 138.471 37.0162V39.7072C138.471 39.8719 138.497 39.9889 138.549 40.0582C138.61 40.1189 138.705 40.1492 138.835 40.1492H139.082V41.2412C139.039 41.2499 138.969 41.2585 138.874 41.2672C138.779 41.2759 138.679 41.2802 138.575 41.2802C138.28 41.2802 138.025 41.2325 137.808 41.1372C137.6 41.0419 137.444 40.8859 137.34 40.6692C137.236 40.4439 137.184 40.1449 137.184 39.7722L137.327 39.8372C137.258 40.1405 137.106 40.4092 136.872 40.6432C136.647 40.8772 136.356 41.0635 136.001 41.2022C135.654 41.3322 135.277 41.3972 134.87 41.3972ZM135.091 40.3052C135.507 40.3052 135.862 40.2272 136.157 40.0712C136.452 39.9065 136.681 39.6812 136.846 39.3952C137.011 39.1092 137.093 38.7842 137.093 38.4202V37.9782L135.065 38.3682C134.649 38.4462 134.354 38.5719 134.181 38.7452C134.016 38.9099 133.934 39.1222 133.934 39.3822C133.934 39.6769 134.034 39.9065 134.233 40.0712C134.441 40.2272 134.727 40.3052 135.091 40.3052ZM140.318 43.1912V42.0602H141.163C141.397 42.0602 141.57 42.0255 141.683 41.9562C141.796 41.8869 141.882 41.7699 141.943 41.6052L142.164 41.0332H141.735L139.239 34.3252H140.695L142.593 39.7592L144.4 34.3252H145.869L143.113 42.0472C142.974 42.4459 142.766 42.7362 142.489 42.9182C142.22 43.1002 141.843 43.1912 141.358 43.1912H140.318ZM149.103 38.5242C149.103 37.8742 149.198 37.3672 149.389 37.0032C149.588 36.6305 149.917 36.3142 150.377 36.0542C150.706 35.8635 150.957 35.6945 151.131 35.5472C151.304 35.3999 151.417 35.2439 151.469 35.0792C151.529 34.9145 151.56 34.7109 151.56 34.4682C151.56 34.0609 151.425 33.7272 151.157 33.4672C150.888 33.1985 150.511 33.0642 150.026 33.0642C149.454 33.0642 149.012 33.2159 148.7 33.5192C148.388 33.8139 148.201 34.2472 148.141 34.8192L146.685 34.7412C146.737 34.1692 146.901 33.6622 147.179 33.2202C147.456 32.7782 147.833 32.4315 148.31 32.1802C148.795 31.9289 149.367 31.8032 150.026 31.8032C150.632 31.8032 151.157 31.9202 151.599 32.1542C152.049 32.3795 152.396 32.6915 152.639 33.0902C152.881 33.4889 153.003 33.9482 153.003 34.4682C153.003 34.8409 152.946 35.1615 152.834 35.4302C152.721 35.6902 152.543 35.9329 152.301 36.1582C152.067 36.3749 151.759 36.6002 151.378 36.8342C151.04 37.0422 150.806 37.2675 150.676 37.5102C150.554 37.7442 150.494 38.0822 150.494 38.5242H149.103ZM148.934 41.2412V39.6032H150.611V41.2412H148.934Z" fill="#CEC1F1"/>
<defs>
<filter id="filter0_b_380_376" x="-15" y="-14.8975" width="245.659" height="86.9666" filterUnits="userSpaceOnUse" color-interpolation-filters="sRGB">
<feFlood flood-opacity="0" result="BackgroundImageFix"/>
<feGaussianBlur in="BackgroundImageFix" stdDeviation="7.5"/>
<feComposite in2="SourceAlpha" operator="in" result="effect1_backgroundBlur_380_376"/>
<feBlend mode="normal" in="SourceGraphic" in2="effect1_backgroundBlur_380_376" result="shape"/>
</filter>
<radialGradient id="paint0_radial_380_376" cx="0" cy="0" r="1" gradientUnits="userSpaceOnUse" gradientTransform="translate(107.83 57.0691) rotate(-90) scale(32.8814 124.48)">
<stop stop-color="#7544FF" stop-opacity="0.5"/>
<stop offset="1" stop-color="#462999" stop-opacity="0.2"/>
</radialGradient>
<linearGradient id="paint1_linear_380_376" x1="-7.18863" y1="7.69808" x2="9.92179" y2="90.1392" gradientUnits="userSpaceOnUse">
<stop offset="0.51" stop-color="#ABA1C8"/>
<stop offset="1" stop-color="#7544FF"/>
</linearGradient>
<clipPath id="clip0_380_376">
<rect width="26.5572" height="21.2861" fill="white" transform="translate(162.516 29.6035)"/>
</clipPath>
</defs>
</svg>
