<svg width="28" height="28" viewBox="0 0 28 28" fill="none" xmlns="http://www.w3.org/2000/svg">
<path d="M6.70898 18.7947V9.20467C8.21398 8.81967 9.33398 7.46634 9.33398 5.83301C9.33398 3.89634 7.77065 2.33301 5.83398 2.33301C3.89732 2.33301 2.33398 3.89634 2.33398 5.83301C2.33398 7.46634 3.45398 8.81967 4.95898 9.20467V18.783C3.45398 19.1797 2.33398 20.533 2.33398 22.1663C2.33398 24.103 3.89732 25.6663 5.83398 25.6663C7.77065 25.6663 9.33398 24.103 9.33398 22.1663C9.33398 20.533 8.21398 19.1797 6.70898 18.7947Z" fill="url(#paint0_linear_134_1850)"/>
<path d="M23.0417 18.7945V7.58281C23.0417 5.80947 21.6067 4.37447 19.8333 4.37447H16.415L18.06 3.00947C18.4333 2.69447 18.48 2.14614 18.1767 1.77281C17.8617 1.39947 17.3133 1.35281 16.94 1.65614L13.44 4.57281C13.2417 4.73614 13.125 4.98114 13.125 5.24947C13.125 5.51781 13.2417 5.75114 13.44 5.92614L16.94 8.84281C17.1033 8.98281 17.3017 9.04114 17.5 9.04114C17.745 9.04114 18.0017 8.93614 18.1767 8.72614C18.4917 8.35281 18.4333 7.80447 18.06 7.48947L16.415 6.12447H19.8333C20.6383 6.12447 21.2917 6.77781 21.2917 7.58281V18.7945C19.7867 19.1795 18.6667 20.5328 18.6667 22.1661C18.6667 24.1028 20.23 25.6661 22.1667 25.6661C24.1033 25.6661 25.6667 24.1028 25.6667 22.1661C25.6667 20.5328 24.5467 19.1795 23.0417 18.7945Z" fill="url(#paint1_linear_134_1850)"/>
<defs>
<linearGradient id="paint0_linear_134_1850" x1="5.83398" y1="2.33301" x2="18.7261" y2="15.44" gradientUnits="userSpaceOnUse">
<stop stop-color="#CEC1F1"/>
<stop offset="1" stop-color="#7544FF"/>
</linearGradient>
<linearGradient id="paint1_linear_134_1850" x1="19.3958" y1="1.45703" x2="30.9025" y2="21.6586" gradientUnits="userSpaceOnUse">
<stop stop-color="#CEC1F1"/>
<stop offset="1" stop-color="#7544FF"/>
</linearGradient>
</defs>
</svg>
