<svg width="19" height="19" viewBox="0 0 19 19" fill="none" xmlns="http://www.w3.org/2000/svg">
<path d="M18.6335 11.3978V18.2305H14.6722V11.857C14.6722 10.2574 14.102 9.16234 12.6638 9.16234C11.5687 9.16234 10.9178 9.8991 10.6301 10.6106C10.5242 10.868 10.4989 11.2212 10.4989 11.5745V18.2305H6.53762C6.53762 18.2305 6.59313 7.43148 6.53762 6.31626H10.4989V8.00675C10.4989 8.00675 10.4787 8.03198 10.4737 8.04712H10.4989V8.00675C11.0237 7.19935 11.9623 6.03871 14.0717 6.03871C16.6756 6.03871 18.6335 7.74435 18.6335 11.4029V11.3978ZM0.38623 18.2305H4.34754V6.31121H0.38623V18.2254V18.2305ZM4.46361 2.26916C4.46361 3.39447 3.55023 4.30784 2.42492 4.30784C1.2996 4.30784 0.38623 3.39447 0.38623 2.26916C0.38623 1.14384 1.2996 0.230469 2.42492 0.230469C3.55023 0.230469 4.46361 1.14384 4.46361 2.26916Z" fill="#CEC1F1"/>
</svg>
