<svg width="30" height="30" viewBox="0 0 30 30" fill="none" xmlns="http://www.w3.org/2000/svg">
<path d="M23.4375 10V12.625C22.8875 12.55 22.2625 12.5125 21.5625 12.5V10C21.5625 6.0625 20.45 3.4375 15 3.4375C9.55 3.4375 8.4375 6.0625 8.4375 10V12.5C7.7375 12.5125 7.1125 12.55 6.5625 12.625V10C6.5625 6.375 7.4375 1.5625 15 1.5625C22.5625 1.5625 23.4375 6.375 23.4375 10Z" fill="url(#paint0_linear_134_1875)"/>
<path d="M23.4375 12.625C22.8875 12.55 22.2625 12.5125 21.5625 12.5H8.4375C7.7375 12.5125 7.1125 12.55 6.5625 12.625C3.375 13.0125 2.5 14.575 2.5 18.75V21.25C2.5 26.25 3.75 27.5 8.75 27.5H21.25C26.25 27.5 27.5 26.25 27.5 21.25V18.75C27.5 14.575 26.625 13.0125 23.4375 12.625ZM10.8875 20.8875C10.65 21.1125 10.325 21.25 10 21.25C9.8375 21.25 9.675 21.2125 9.525 21.15C9.3625 21.0875 9.2375 21 9.1125 20.8875C8.8875 20.65 8.75 20.325 8.75 20C8.75 19.8375 8.7875 19.675 8.85 19.525C8.9125 19.375 9 19.2375 9.1125 19.1125C9.2375 19 9.3625 18.9125 9.525 18.85C9.9875 18.65 10.5375 18.7625 10.8875 19.1125C11 19.2375 11.0875 19.375 11.15 19.525C11.2125 19.675 11.25 19.8375 11.25 20C11.25 20.325 11.1125 20.65 10.8875 20.8875ZM16.15 20.475C16.0875 20.625 16 20.7625 15.8875 20.8875C15.65 21.1125 15.325 21.25 15 21.25C14.6625 21.25 14.35 21.1125 14.1125 20.8875C14 20.7625 13.9125 20.625 13.85 20.475C13.7875 20.325 13.75 20.1625 13.75 20C13.75 19.6625 13.8875 19.35 14.1125 19.1125C14.575 18.65 15.4125 18.65 15.8875 19.1125C16.1125 19.35 16.25 19.6625 16.25 20C16.25 20.1625 16.2125 20.325 16.15 20.475ZM20.8875 20.8875C20.65 21.1125 20.325 21.25 20 21.25C19.675 21.25 19.35 21.1125 19.1125 20.8875C18.8875 20.65 18.75 20.3375 18.75 20C18.75 19.6625 18.8875 19.35 19.1125 19.1125C19.5875 18.65 20.425 18.65 20.8875 19.1125C20.9375 19.175 20.9875 19.2375 21.0375 19.3125C21.0875 19.375 21.125 19.45 21.15 19.525C21.1875 19.6 21.2125 19.675 21.225 19.75C21.2375 19.8375 21.25 19.925 21.25 20C21.25 20.325 21.1125 20.65 20.8875 20.8875Z" fill="url(#paint1_linear_134_1875)"/>
<defs>
<linearGradient id="paint0_linear_134_1875" x1="15" y1="1.5625" x2="15" y2="12.625" gradientUnits="userSpaceOnUse">
<stop stop-color="#CEC1F1"/>
<stop offset="1" stop-color="#7544FF"/>
</linearGradient>
<linearGradient id="paint1_linear_134_1875" x1="15" y1="12.5" x2="15" y2="27.5" gradientUnits="userSpaceOnUse">
<stop stop-color="#CEC1F1"/>
<stop offset="1" stop-color="#7544FF"/>
</linearGradient>
</defs>
</svg>
