<svg width="207" height="44" viewBox="0 0 207 44" fill="none" xmlns="http://www.w3.org/2000/svg">
<path d="M49.104 34.9828C43.4851 34.9828 41.0396 32.3917 41.0396 28.6361V28.1412H44.1256V28.4614C44.1256 30.8778 45.1446 32.1006 49.2204 32.1006C52.1026 32.1006 53.1507 31.3145 53.1507 29.5095C53.1507 27.7336 52.5684 27.0931 49.5698 26.4818L46.2509 25.8122C42.9029 25.1717 41.0979 23.5413 41.0979 20.4553C41.0979 17.5732 43.3396 14.8947 48.3761 14.8947C53.7621 14.8947 55.9164 17.9225 55.9164 21.387V21.7363H52.8304V21.4161C52.8304 19.0288 51.7824 17.7769 48.2888 17.7769C45.4066 17.7769 44.2421 18.5921 44.2421 20.3098C44.2421 22.0857 45.0281 22.5806 47.7065 23.1629L51.0254 23.8616C54.6937 24.6185 56.2949 26.4526 56.2949 29.3931C56.2949 32.4499 54.0823 34.9828 49.104 34.9828ZM61.8414 34.6917H58.6972V20.2224H61.5794V22.93H61.6958C62.3654 21.387 63.8793 19.9313 66.6451 19.9313C69.1779 19.9313 70.75 21.0958 71.4487 22.93H71.5361C72.2057 21.4161 73.6904 19.9313 76.5435 19.9313C80.27 19.9313 81.9294 22.3186 81.9294 25.6084V34.6917H78.7852V26.3071C78.7852 23.716 77.9992 22.6388 75.379 22.6388C72.9917 22.6388 71.8854 23.6287 71.8854 26.278V34.6917H68.7412V26.3071C68.7412 23.716 67.9552 22.6388 65.335 22.6388C62.9477 22.6388 61.8414 23.6287 61.8414 26.2489V34.6917ZM88.8413 34.9828C86.2502 34.9828 84.2414 33.6436 84.2414 31.1107C84.2414 28.7235 85.9882 27.4716 89.0742 27.0349L94.1399 26.278V25.4919C94.1399 23.3375 93.15 22.6971 90.8792 22.6971C88.5793 22.6971 87.6768 23.4249 87.6768 25.3463V25.783H84.649V25.4919C84.649 22.2604 87.1818 19.9313 91.0539 19.9313C95.1006 19.9313 97.1385 22.3768 97.1385 25.8995V34.6917H94.2272V32.4208H94.0817C93.2374 33.7891 91.5779 34.9828 88.8413 34.9828ZM87.2983 30.8778C87.2983 32.0132 88.0261 32.4791 89.8603 32.4791C91.8982 32.4791 94.1399 31.6639 94.1399 28.7526V28.4906L89.54 29.1893C87.8806 29.4222 87.2983 29.8007 87.2983 30.8778ZM103.293 34.6917H100.149V20.1351H103.031V22.435H103.177C103.759 21.0958 105.098 19.9313 107.224 19.9313C110.251 19.9313 111.416 22.1439 111.416 24.8514V25.8122H108.272V25.2299C108.272 23.3084 107.719 22.6097 105.885 22.6097C103.992 22.6097 103.293 23.3375 103.293 25.259V34.6917ZM119.738 34.6917C116.506 34.6917 114.818 33.498 114.818 30.2373V22.8426H112.401V20.2224H114.876L115.546 16.6415H117.962V20.2224H122.329V22.8426H117.962V30.0918C117.962 31.6057 118.602 31.8677 120.553 31.8677H122.329V34.4296C121.717 34.5752 120.728 34.6917 119.738 34.6917ZM133.103 34.9828C127.426 34.9828 123.991 31.0234 123.991 24.9388C123.991 18.8541 127.426 14.8947 133.103 14.8947C138.344 14.8947 141.517 17.8061 141.517 22.4933V22.6679H138.169V22.4933C138.169 19.2908 136.684 17.9225 133.016 17.9225C128.969 17.9225 127.339 19.8731 127.339 24.9388C127.339 30.0044 128.969 31.955 133.016 31.955C136.684 31.955 138.169 30.5867 138.169 27.3843V27.2096H141.517V27.3843C141.517 32.0715 138.344 34.9828 133.103 34.9828ZM150.741 34.9828C146.287 34.9828 143.521 31.955 143.521 27.4425C143.521 22.9591 146.287 19.9313 150.741 19.9313C155.166 19.9313 157.845 22.9591 157.845 27.4425C157.845 31.955 155.166 34.9828 150.741 34.9828ZM150.741 32.1879C153.769 32.1879 154.817 30.7032 154.817 27.4425C154.817 24.2109 153.769 22.7262 150.741 22.7262C147.684 22.7262 146.607 24.2109 146.607 27.4425C146.607 30.7032 147.684 32.1879 150.741 32.1879ZM163.339 34.6917H160.195V20.2224H163.077V22.93H163.194C163.863 21.387 165.406 19.9313 168.23 19.9313C171.986 19.9313 173.674 22.3186 173.674 25.6084V34.6917H170.53V26.3071C170.53 23.716 169.715 22.6388 167.066 22.6388C164.504 22.6388 163.339 23.6287 163.339 26.3362V34.6917ZM184.529 34.6917H180.57L174.776 20.2224H178.27L182.491 31.693H182.695L186.946 20.2224H190.352L184.529 34.6917ZM197.908 34.9828C193.453 34.9828 190.688 31.955 190.688 27.4425C190.688 22.9591 193.453 19.9313 197.908 19.9313C202.333 19.9313 205.011 22.9591 205.011 27.4425C205.011 31.955 202.333 34.9828 197.908 34.9828ZM197.908 32.1879C200.935 32.1879 201.983 30.7032 201.983 27.4425C201.983 24.2109 200.935 22.7262 197.908 22.7262C194.851 22.7262 193.774 24.2109 193.774 27.4425C193.774 30.7032 194.851 32.1879 197.908 32.1879Z" fill="white"/>
<path d="M34.2199 3.02649L34.5686 6.11923C34.7795 8.00077 36.2643 9.48345 38.1458 9.69645L41.2386 10.0452L38.1458 10.3939C36.2643 10.6049 34.7816 12.0896 34.5686 13.9712L34.2199 17.0639L33.8711 13.9712C33.6602 12.0896 32.1755 10.6069 30.2939 10.3939L27.2012 10.0452L30.2939 9.69645C32.1755 9.48553 33.6581 8.00077 33.8711 6.11923L34.2199 3.02649Z" fill="#7C4DFF"/>
<path d="M28.3641 0L28.5787 1.90323C28.7085 3.0611 29.6222 3.97351 30.7801 4.10459L32.6833 4.3192L30.7801 4.53381C29.6222 4.66361 28.7098 5.57731 28.5787 6.73518L28.3641 8.63841L28.1495 6.73518C28.0197 5.57731 27.106 4.66489 25.9481 4.53381L24.0449 4.3192L25.9481 4.10459C27.106 3.9748 28.0184 3.0611 28.1495 1.90323L28.3641 0Z" fill="#FFB921"/>
<path d="M0.0567249 25.7813C0.562522 26.1161 1.54126 28.0988 2.05448 28.7332C2.7309 29.5693 3.66858 30.3317 4.53895 30.9563C8.12934 33.5338 12.9292 34.4619 17.2756 33.7353C16.8471 34.0074 16.3776 34.1859 15.9097 34.3773C13.8555 35.1505 11.6916 35.6093 9.48723 35.5025C6.59155 35.3621 3.28704 34.1539 1.31923 31.9561C-0.166631 30.2973 -0.0495216 27.8788 0.0567249 25.7813Z" fill="#7C4DFF"/>
<path d="M13.5971 8.34865L13.7097 8.33807L13.7556 8.39519C9.88327 10.4409 7.17332 13.2135 5.85146 17.4754C4.7731 20.9527 5.20392 24.5453 6.91048 27.745C8.61679 30.9439 11.0546 32.6817 14.4805 33.7154C13.1496 33.5605 11.8651 33.4071 10.5568 33.1159C8.7331 32.5739 7.04058 31.8718 5.51259 30.7128C3.02494 28.8263 1.3332 26.1901 0.912192 23.0804C0.472899 19.8347 1.57723 16.6263 3.5559 14.0581C5.93969 10.9631 9.72403 8.83706 13.5971 8.34865Z" fill="#CEC1F1"/>
<path d="M23.4922 22.0088C24.6895 23.3886 25.4513 26.7454 25.5276 28.551C25.677 32.083 24.4296 35.6841 22.0085 38.2832C19.8025 40.651 16.8527 42.0282 13.6047 42.122C10.1006 42.2233 6.95034 40.646 4.44653 38.2946C3.06135 36.8431 2.0895 35.3107 1.27344 33.4845C1.59589 33.804 1.92098 34.1237 2.28185 34.4005C4.89138 36.4036 8.61213 36.9523 11.8048 36.5316C15.5126 36.0429 19.1401 34.2395 21.4293 31.2413C23.5534 28.4595 23.9485 25.3809 23.4919 22.0091L23.4922 22.0088Z" fill="#7C4DFF"/>
<path d="M18.3082 8.71543C19.8229 8.58083 21.5631 8.90794 22.9894 9.4056C27.0185 10.8113 29.3941 13.9327 31.195 17.6129C30.9658 17.3506 30.726 17.098 30.4759 16.8555C28.2752 14.7554 25.0523 13.975 22.0843 14.0779C17.614 14.2329 13.9693 16.2751 10.9825 19.4954C10.6248 19.9357 10.2817 20.3802 9.98305 20.8631C8.08333 23.9369 8.20786 27.0149 9.01941 30.3878C7.56534 28.2279 6.43982 26.0172 6.18096 23.3863C5.83625 19.8854 6.99596 16.0281 9.25125 13.3166C11.5346 10.5715 14.7803 9.02482 18.3082 8.71543Z" fill="#FFB921"/>
<path d="M21.1096 15.3401C22.1106 15.2364 23.1802 15.2835 24.1751 15.4281C26.8493 15.8166 29.5984 17.1411 31.2303 19.3441C32.8916 21.5871 33.1801 24.7508 32.7694 27.4306C32.3105 25.5459 31.522 23.8528 30.2971 22.3381C27.7273 19.1609 24.2588 17.4643 20.2374 17.0507L20.3256 17.1464C20.7024 17.2096 21.0757 17.2892 21.4455 17.3849C21.8154 17.4804 22.1805 17.592 22.5406 17.7192C22.9007 17.8464 23.2549 17.9889 23.6025 18.1468C23.9504 18.3046 24.2906 18.4773 24.6234 18.6645C27.6293 20.3516 30.3997 23.3223 31.3254 26.6928C32.191 29.8441 31.3789 32.8248 29.8115 35.5974C29.3939 36.2241 28.9607 36.8289 28.4732 37.4038C25.5529 40.8462 21.4167 42.409 17.015 42.7668C20.2551 41.695 23.0612 39.2186 24.7535 36.2796C26.4858 33.272 27.0263 29.7206 26.1016 26.3617C25.2818 23.3831 23.4618 20.5375 20.7145 19.011C18.0059 17.5061 15.6502 17.6039 12.7715 18.416C15.2382 16.5181 18.0327 15.59 21.1093 15.3403L21.1096 15.3401Z" fill="#CEC1F1"/>
</svg>
