<svg width="314" height="228" viewBox="0 0 314 228" fill="none" xmlns="http://www.w3.org/2000/svg">
<g clip-path="url(#clip0_2089_49)">
<g filter="url(#filter0_f_2089_49)">
<circle cx="6.90786" cy="157.699" r="75.6989" fill="#3E325F"/>
</g>
<g filter="url(#filter1_f_2089_49)">
<circle cx="259.48" cy="51.4362" r="75.6989" fill="#00AE4E" fill-opacity="0.2"/>
</g>
<path d="M38.2878 82.0394C38.2878 87.7168 34.0298 92.3692 28.5889 93V84.4839H31.1911L31.5853 81.4875H28.6678V79.6738C28.6678 78.8065 28.9043 78.2545 30.166 78.2545H31.743V75.4946C30.9545 75.4158 30.2448 75.4158 29.4563 75.4158C27.1696 75.4158 25.5925 76.8351 25.5925 79.3584V81.5663H22.9903V84.5627H25.5925V93C20.2305 92.1326 16.209 87.5591 16.209 82.0394C16.209 75.9677 21.1767 71 27.2484 71C33.3201 71 38.2878 75.9677 38.2878 82.0394Z" fill="url(#paint0_linear_2089_49)"/>
<path d="M48.7285 86.5H47.1973V76.6357H53.3564V77.9551H48.7285V81.0791H52.9668V82.3711H48.7285V86.5ZM56.7535 85.4541C57.7857 85.4541 58.5924 84.7432 58.5924 83.8066V83.2393L56.8219 83.3486C55.94 83.4102 55.441 83.7998 55.441 84.415C55.441 85.0439 55.9605 85.4541 56.7535 85.4541ZM56.3434 86.623C54.9352 86.623 53.9508 85.748 53.9508 84.4561C53.9508 83.1982 54.9146 82.4258 56.6236 82.3301L58.5924 82.2139V81.6602C58.5924 80.8604 58.0523 80.3818 57.15 80.3818C56.2955 80.3818 55.7623 80.792 55.6324 81.4346H54.2379C54.3199 80.1357 55.4273 79.1787 57.2047 79.1787C58.9479 79.1787 60.0621 80.1016 60.0621 81.5439V86.5H58.6471V85.3174H58.6129C58.1959 86.1172 57.2867 86.623 56.3434 86.623ZM67.8205 81.7832H66.4123C66.2619 81.0176 65.6877 80.4092 64.7238 80.4092C63.5822 80.4092 62.8303 81.3594 62.8303 82.9043C62.8303 84.4834 63.5891 85.3994 64.7375 85.3994C65.6467 85.3994 66.2414 84.9004 66.4123 84.0664H67.8342C67.677 85.5977 66.4533 86.6367 64.7238 86.6367C62.6662 86.6367 61.3264 85.2285 61.3264 82.9043C61.3264 80.6211 62.6662 79.1787 64.7102 79.1787C66.5627 79.1787 67.6906 80.3682 67.8205 81.7832ZM72.0379 80.3682C71.0057 80.3682 70.2811 81.1543 70.2059 82.2412H73.8016C73.7674 81.1406 73.0701 80.3682 72.0379 80.3682ZM73.7947 84.3877H75.1961C74.991 85.7002 73.7469 86.6367 72.0994 86.6367C69.9871 86.6367 68.7088 85.208 68.7088 82.9385C68.7088 80.6826 70.0076 79.1787 72.0379 79.1787C74.034 79.1787 75.2781 80.5869 75.2781 82.7676V83.2734H70.199V83.3623C70.199 84.6133 70.951 85.4404 72.1336 85.4404C72.9744 85.4404 73.5965 85.0166 73.7947 84.3877ZM80.4047 86.623C79.352 86.623 78.5385 86.1104 78.0941 85.2764H78.0668V86.5H76.6313V76.6357H78.1078V80.5322H78.142C78.5727 79.6982 79.393 79.1924 80.4115 79.1924C82.223 79.1924 83.4057 80.6279 83.4057 82.9043C83.4057 85.1875 82.2299 86.623 80.4047 86.623ZM80.0082 80.4365C78.8871 80.4365 78.101 81.4209 78.101 82.9043C78.101 84.4014 78.8871 85.3721 80.0082 85.3721C81.1703 85.3721 81.8881 84.4287 81.8881 82.9043C81.8881 81.3936 81.1703 80.4365 80.0082 80.4365ZM87.8008 86.6367C85.7432 86.6367 84.3896 85.2217 84.3896 82.9043C84.3896 80.5938 85.75 79.1787 87.8008 79.1787C89.8516 79.1787 91.2119 80.5938 91.2119 82.9043C91.2119 85.2217 89.8584 86.6367 87.8008 86.6367ZM87.8008 85.4199C88.9629 85.4199 89.708 84.5039 89.708 82.9043C89.708 81.3115 88.9561 80.3955 87.8008 80.3955C86.6455 80.3955 85.8936 81.3115 85.8936 82.9043C85.8936 84.5039 86.6455 85.4199 87.8008 85.4199ZM95.5934 86.6367C93.5357 86.6367 92.1822 85.2217 92.1822 82.9043C92.1822 80.5938 93.5426 79.1787 95.5934 79.1787C97.6441 79.1787 99.0045 80.5938 99.0045 82.9043C99.0045 85.2217 97.651 86.6367 95.5934 86.6367ZM95.5934 85.4199C96.7555 85.4199 97.5006 84.5039 97.5006 82.9043C97.5006 81.3115 96.7486 80.3955 95.5934 80.3955C94.4381 80.3955 93.6861 81.3115 93.6861 82.9043C93.6861 84.5039 94.4381 85.4199 95.5934 85.4199ZM101.841 82.3916L104.746 79.3086H106.483L103.502 82.4053L106.599 86.5H104.883L102.443 83.3076L101.827 83.916V86.5H100.351V76.6357H101.827V82.3916H101.841Z" fill="#CEC1F1" fill-opacity="0.7"/>
<path d="M155.966 86.5V78.1533H155.932L153.354 79.9854V78.4814L155.952 76.6357H157.463V86.5H155.966ZM164.709 86.5V84.5518H159.773V83.2119C160.621 81.6191 161.742 79.8486 163.963 76.6357H166.178V83.2666H167.532V84.5518H166.178V86.5H164.709ZM161.202 83.2529V83.2871H164.722V77.8184H164.695C162.986 80.2861 161.988 81.8242 161.202 83.2529ZM169.876 88.5303H168.7L169.316 84.9209H170.806L169.876 88.5303ZM172.61 79.5273C172.61 77.75 174.039 76.4512 176.001 76.4512C177.881 76.4512 179.282 77.6475 179.282 79.2129C179.282 80.3613 178.667 81.2158 177.224 82.6924L174.757 85.1738V85.208H179.439V86.5H172.692V85.4609L176.254 81.8311C177.457 80.5801 177.771 80.0605 177.771 79.2881C177.771 78.4131 176.978 77.7158 175.953 77.7158C174.873 77.7158 174.059 78.4951 174.059 79.5205V79.541H172.61V79.5273ZM183.096 82.0361V80.833H184.286C185.352 80.833 186.083 80.1631 186.083 79.2334C186.083 78.3174 185.454 77.709 184.286 77.709C183.219 77.709 182.508 78.3242 182.419 79.2949H180.977C181.093 77.5654 182.399 76.4512 184.354 76.4512C186.22 76.4512 187.58 77.5107 187.58 79.0283C187.58 80.2588 186.774 81.1406 185.55 81.3594V81.3867C187.034 81.4893 187.991 82.3984 187.991 83.7793C187.991 85.502 186.425 86.6846 184.368 86.6846C182.242 86.6846 180.874 85.5156 180.779 83.8135H182.248C182.344 84.7568 183.123 85.4062 184.368 85.4062C185.571 85.4062 186.432 84.7227 186.432 83.7588C186.432 82.6924 185.625 82.0361 184.327 82.0361H183.096ZM192.071 86.5V78.1533H192.037L189.46 79.9854V78.4814L192.058 76.6357H193.568V86.5H192.071Z" fill="#CEC1F1" fill-opacity="0.7"/>
<path d="M220.459 81.25L224.209 77.5M224.209 77.5L227.959 81.25M224.209 77.5V86.5" stroke="#00AE4E" stroke-width="1.5" stroke-linecap="round" stroke-linejoin="round"/>
<path d="M236.234 86.5L240.616 77.9619V77.9277H235.414V76.6357H242.127V77.9619L237.841 86.5H236.234ZM243.548 79.5273C243.548 77.75 244.977 76.4512 246.939 76.4512C248.819 76.4512 250.22 77.6475 250.22 79.2129C250.22 80.3613 249.605 81.2158 248.163 82.6924L245.695 85.1738V85.208H250.378V86.5H243.63V85.4609L247.192 81.8311C248.395 80.5801 248.71 80.0605 248.71 79.2881C248.71 78.4131 247.917 77.7158 246.891 77.7158C245.811 77.7158 244.998 78.4951 244.998 79.5205V79.541H243.548V79.5273ZM252.961 86.5752C252.462 86.5752 252.066 86.1787 252.066 85.6797C252.066 85.1807 252.462 84.7842 252.961 84.7842C253.46 84.7842 253.857 85.1807 253.857 85.6797C253.857 86.1787 253.46 86.5752 252.961 86.5752ZM259.229 86.6846C256.864 86.6846 255.463 84.7021 255.463 81.5576C255.463 78.4336 256.878 76.4512 259.229 76.4512C261.588 76.4512 262.982 78.4268 262.982 81.5508C262.982 84.6953 261.595 86.6846 259.229 86.6846ZM259.229 85.3994C260.638 85.3994 261.437 83.9434 261.437 81.5576C261.437 79.2061 260.624 77.7363 259.229 77.7363C257.835 77.7363 257.014 79.2129 257.014 81.5576C257.014 83.9365 257.821 85.3994 259.229 85.3994ZM268.068 86.6846C265.867 86.6846 264.335 85.502 264.335 83.834C264.335 82.5762 265.224 81.5713 266.53 81.2979V81.2637C265.436 80.9629 264.732 80.1084 264.732 79.0488C264.732 77.5518 266.133 76.4512 268.068 76.4512C270.009 76.4512 271.397 77.5449 271.397 79.0557C271.397 80.1016 270.7 80.9492 269.606 81.2637V81.2979C270.918 81.5713 271.8 82.583 271.8 83.834C271.8 85.5088 270.255 86.6846 268.068 86.6846ZM268.068 85.4541C269.326 85.4541 270.214 84.7295 270.214 83.7246C270.214 82.7061 269.326 81.9814 268.068 81.9814C266.81 81.9814 265.914 82.7129 265.914 83.7246C265.914 84.7295 266.81 85.4541 268.068 85.4541ZM268.068 80.751C269.127 80.751 269.886 80.1084 269.886 79.2129C269.886 78.3105 269.134 77.668 268.068 77.668C266.995 77.668 266.249 78.3105 266.249 79.2129C266.249 80.1084 266.995 80.751 268.068 80.751ZM277.146 78.9805C277.146 80.498 276.305 81.4688 275.013 81.4688C273.714 81.4688 272.873 80.498 272.873 78.9805C272.873 77.4629 273.714 76.4922 275.013 76.4922C276.305 76.4922 277.146 77.4629 277.146 78.9805ZM275.013 80.5049C275.553 80.5049 275.895 79.9238 275.895 78.9736C275.895 78.0303 275.553 77.4492 275.013 77.4492C274.466 77.4492 274.124 78.0303 274.124 78.9736C274.124 79.9238 274.466 80.5049 275.013 80.5049ZM274.951 86.5H273.598L277.412 81.2842L280.81 76.6357H282.156L278.444 81.7217L274.951 86.5ZM282.881 84.1279C282.881 85.6455 282.047 86.6162 280.748 86.6162C279.449 86.6162 278.615 85.6455 278.615 84.1279C278.615 82.6035 279.449 81.6328 280.748 81.6328C282.047 81.6328 282.881 82.6035 282.881 84.1279ZM280.748 85.6455C281.295 85.6455 281.63 85.0713 281.63 84.1211C281.63 83.1709 281.295 82.5967 280.748 82.5967C280.201 82.5967 279.866 83.1709 279.866 84.1211C279.866 85.0713 280.201 85.6455 280.748 85.6455Z" fill="#00AE4E"/>
<path d="M27.9559 110.598L34.7816 102.834H33.1643L27.2349 109.574L22.5025 102.834H17.043L24.2009 113.027L17.043 121.167H18.6602L24.918 114.048L29.9168 121.167H35.3763L27.9559 110.598ZM25.7401 113.116L25.0137 112.1L19.2435 104.027H21.7279L26.3861 110.545L27.1093 111.561L33.1636 120.032H30.6791L25.7401 113.116Z" fill="url(#paint1_linear_2089_49)"/>
<path d="M49.0967 116.5H47.5654V107.955H44.5439V106.636H52.1113V107.955H49.0967V116.5ZM61.7018 109.309L59.733 116.5H58.1949L56.6842 111.113H56.65L55.1529 116.5H53.6285L51.6529 109.309H53.1295L54.442 114.969H54.4693L55.9664 109.309H57.3883L58.8922 114.969H58.9264L60.2389 109.309H61.7018ZM62.802 116.5V109.309H64.2785V116.5H62.802ZM63.5402 108.256C63.0686 108.256 62.6857 107.88 62.6857 107.415C62.6857 106.943 63.0686 106.567 63.5402 106.567C64.0187 106.567 64.4016 106.943 64.4016 107.415C64.4016 107.88 64.0187 108.256 63.5402 108.256ZM66.3699 107.606H67.8533V109.309H69.2205V110.478H67.8533V114.442C67.8533 115.064 68.1268 115.345 68.7283 115.345C68.8787 115.345 69.118 115.331 69.2137 115.311V116.479C69.0496 116.521 68.7215 116.548 68.3934 116.548C66.9373 116.548 66.3699 115.994 66.3699 114.606V110.478H65.324V109.309H66.3699V107.606ZM71.018 107.606H72.5014V109.309H73.8686V110.478H72.5014V114.442C72.5014 115.064 72.7748 115.345 73.3764 115.345C73.5268 115.345 73.766 115.331 73.8617 115.311V116.479C73.6977 116.521 73.3695 116.548 73.0414 116.548C71.5854 116.548 71.018 115.994 71.018 114.606V110.478H69.9721V109.309H71.018V107.606ZM78.0654 110.368C77.0332 110.368 76.3086 111.154 76.2334 112.241H79.8291C79.7949 111.141 79.0977 110.368 78.0654 110.368ZM79.8223 114.388H81.2236C81.0186 115.7 79.7744 116.637 78.127 116.637C76.0146 116.637 74.7363 115.208 74.7363 112.938C74.7363 110.683 76.0352 109.179 78.0654 109.179C80.0615 109.179 81.3057 110.587 81.3057 112.768V113.273H76.2266V113.362C76.2266 114.613 76.9785 115.44 78.1611 115.44C79.002 115.44 79.624 115.017 79.8223 114.388ZM82.6041 116.5V109.309H84.0123V110.532H84.0465C84.2857 109.691 84.9283 109.192 85.776 109.192C85.9879 109.192 86.1725 109.227 86.2818 109.247V110.621C86.1656 110.573 85.9059 110.539 85.6188 110.539C84.6686 110.539 84.0807 111.175 84.0807 112.193V116.5H82.6041Z" fill="#CEC1F1" fill-opacity="0.7"/>
<path d="M159.181 112.036V110.833H160.371C161.437 110.833 162.169 110.163 162.169 109.233C162.169 108.317 161.54 107.709 160.371 107.709C159.304 107.709 158.593 108.324 158.504 109.295H157.062C157.178 107.565 158.484 106.451 160.439 106.451C162.305 106.451 163.666 107.511 163.666 109.028C163.666 110.259 162.859 111.141 161.635 111.359V111.387C163.119 111.489 164.076 112.398 164.076 113.779C164.076 115.502 162.51 116.685 160.453 116.685C158.327 116.685 156.96 115.516 156.864 113.813H158.334C158.429 114.757 159.209 115.406 160.453 115.406C161.656 115.406 162.517 114.723 162.517 113.759C162.517 112.692 161.711 112.036 160.412 112.036H159.181ZM166.495 118.53H165.32L165.935 114.921H167.425L166.495 118.53ZM169.229 109.527C169.229 107.75 170.658 106.451 172.62 106.451C174.5 106.451 175.901 107.647 175.901 109.213C175.901 110.361 175.286 111.216 173.844 112.692L171.376 115.174V115.208H176.058V116.5H169.311V115.461L172.873 111.831C174.076 110.58 174.39 110.061 174.39 109.288C174.39 108.413 173.597 107.716 172.572 107.716C171.492 107.716 170.679 108.495 170.679 109.521V109.541H169.229V109.527ZM181.164 116.685C178.799 116.685 177.398 114.702 177.398 111.558C177.398 108.434 178.813 106.451 181.164 106.451C183.523 106.451 184.917 108.427 184.917 111.551C184.917 114.695 183.53 116.685 181.164 116.685ZM181.164 115.399C182.573 115.399 183.372 113.943 183.372 111.558C183.372 109.206 182.559 107.736 181.164 107.736C179.77 107.736 178.95 109.213 178.95 111.558C178.95 113.937 179.756 115.399 181.164 115.399ZM186.729 116.5L191.11 107.962V107.928H185.908V106.636H192.621V107.962L188.335 116.5H186.729Z" fill="#CEC1F1" fill-opacity="0.7"/>
<path d="M231.459 112.75L235.209 116.5M235.209 116.5L238.959 112.75M235.209 116.5V107.5" stroke="#FA7C0B" stroke-width="1.5" stroke-linecap="round" stroke-linejoin="round"/>
<path d="M246.761 109.527C246.761 107.75 248.19 106.451 250.152 106.451C252.032 106.451 253.433 107.647 253.433 109.213C253.433 110.361 252.818 111.216 251.376 112.692L248.908 115.174V115.208H253.59V116.5H246.843V115.461L250.405 111.831C251.608 110.58 251.922 110.061 251.922 109.288C251.922 108.413 251.129 107.716 250.104 107.716C249.024 107.716 248.211 108.495 248.211 109.521V109.541H246.761V109.527ZM256.174 116.575C255.675 116.575 255.279 116.179 255.279 115.68C255.279 115.181 255.675 114.784 256.174 114.784C256.673 114.784 257.07 115.181 257.07 115.68C257.07 116.179 256.673 116.575 256.174 116.575ZM260.631 116.5V108.153H260.596L258.019 109.985V108.481L260.617 106.636H262.128V116.5H260.631ZM266.83 112.036V110.833H268.02C269.086 110.833 269.818 110.163 269.818 109.233C269.818 108.317 269.189 107.709 268.02 107.709C266.954 107.709 266.243 108.324 266.154 109.295H264.711C264.828 107.565 266.133 106.451 268.088 106.451C269.954 106.451 271.315 107.511 271.315 109.028C271.315 110.259 270.508 111.141 269.285 111.359V111.387C270.768 111.489 271.725 112.398 271.725 113.779C271.725 115.502 270.16 116.685 268.102 116.685C265.976 116.685 264.609 115.516 264.513 113.813H265.983C266.079 114.757 266.858 115.406 268.102 115.406C269.305 115.406 270.166 114.723 270.166 113.759C270.166 112.692 269.36 112.036 268.061 112.036H266.83ZM277.146 108.98C277.146 110.498 276.305 111.469 275.013 111.469C273.714 111.469 272.873 110.498 272.873 108.98C272.873 107.463 273.714 106.492 275.013 106.492C276.305 106.492 277.146 107.463 277.146 108.98ZM275.013 110.505C275.553 110.505 275.895 109.924 275.895 108.974C275.895 108.03 275.553 107.449 275.013 107.449C274.466 107.449 274.124 108.03 274.124 108.974C274.124 109.924 274.466 110.505 275.013 110.505ZM274.951 116.5H273.598L277.412 111.284L280.81 106.636H282.156L278.444 111.722L274.951 116.5ZM282.881 114.128C282.881 115.646 282.047 116.616 280.748 116.616C279.449 116.616 278.615 115.646 278.615 114.128C278.615 112.604 279.449 111.633 280.748 111.633C282.047 111.633 282.881 112.604 282.881 114.128ZM280.748 115.646C281.295 115.646 281.63 115.071 281.63 114.121C281.63 113.171 281.295 112.597 280.748 112.597C280.201 112.597 279.866 113.171 279.866 114.121C279.866 115.071 280.201 115.646 280.748 115.646Z" fill="#FA7C0B"/>
<g clip-path="url(#clip1_2089_49)">
<path d="M27.209 153C21.1348 153 16.209 148.074 16.209 142C16.209 135.926 21.1348 131 27.209 131C33.2832 131 38.209 135.926 38.209 142C38.209 148.074 33.2832 153 27.209 153Z" fill="url(#paint2_linear_2089_49)"/>
<path d="M27.2081 135.844C29.2123 135.844 29.4499 135.851 30.2419 135.888C30.9745 135.921 31.3727 136.044 31.6367 136.148C31.9865 136.284 32.2373 136.447 32.4991 136.709C32.7609 136.971 32.9237 137.221 33.0601 137.571C33.1635 137.835 33.2845 138.233 33.3197 138.966C33.3549 139.758 33.3637 139.996 33.3637 142C33.3637 144.004 33.3571 144.242 33.3197 145.034C33.2867 145.766 33.1635 146.164 33.0601 146.428C32.9237 146.778 32.7609 147.029 32.4991 147.291C32.2373 147.553 31.9865 147.715 31.6367 147.852C31.3727 147.955 30.9745 148.076 30.2419 148.111C29.4499 148.147 29.2123 148.155 27.2081 148.155C25.2039 148.155 24.9663 148.149 24.1743 148.111C23.4417 148.078 23.0435 147.955 22.7795 147.852C22.4297 147.715 22.1789 147.553 21.9171 147.291C21.6553 147.029 21.4925 146.778 21.3561 146.428C21.2527 146.164 21.1317 145.766 21.0965 145.034C21.0613 144.242 21.0525 144.004 21.0525 142C21.0525 139.996 21.0591 139.758 21.0965 138.966C21.1295 138.233 21.2527 137.835 21.3561 137.571C21.4925 137.221 21.6553 136.971 21.9171 136.709C22.1789 136.447 22.4297 136.284 22.7795 136.148C23.0435 136.044 23.4417 135.923 24.1743 135.888C24.9663 135.851 25.2039 135.844 27.2081 135.844ZM27.2081 134.491C25.1687 134.491 24.9135 134.5 24.1127 134.537C23.3141 134.575 22.7685 134.7 22.2889 134.887C21.7961 135.076 21.3759 135.334 20.9601 135.752C20.5421 136.17 20.2869 136.588 20.0933 137.083C19.9085 137.56 19.7809 138.106 19.7435 138.907C19.7061 139.707 19.6973 139.963 19.6973 142.002C19.6973 144.041 19.7061 144.297 19.7435 145.097C19.7809 145.896 19.9063 146.442 20.0933 146.921C20.2847 147.412 20.5421 147.832 20.9601 148.248C21.3781 148.666 21.7961 148.921 22.2911 149.115C22.7685 149.299 23.3141 149.427 24.1149 149.464C24.9157 149.502 25.1709 149.511 27.2103 149.511C29.2497 149.511 29.5049 149.502 30.3057 149.464C31.1043 149.427 31.6499 149.302 32.1295 149.115C32.6201 148.923 33.0403 148.666 33.4561 148.248C33.8741 147.83 34.1293 147.412 34.3229 146.917C34.5077 146.439 34.6353 145.894 34.6727 145.093C34.7101 144.292 34.7189 144.037 34.7189 141.998C34.7189 139.958 34.7101 139.703 34.6727 138.902C34.6353 138.104 34.5099 137.558 34.3229 137.078C34.1315 136.588 33.8741 136.168 33.4561 135.752C33.0381 135.334 32.6201 135.079 32.1251 134.885C31.6477 134.7 31.1021 134.573 30.3013 134.535C29.5027 134.5 29.2475 134.491 27.2081 134.491Z" fill="black"/>
<path d="M27.2082 138.144C25.0786 138.144 23.3516 139.871 23.3516 142C23.3516 144.13 25.0786 145.857 27.2082 145.857C29.3378 145.857 31.0648 144.13 31.0648 142C31.0648 139.871 29.3378 138.144 27.2082 138.144ZM27.2082 144.504C25.8266 144.504 24.7046 143.384 24.7046 142C24.7046 140.616 25.8266 139.497 27.2082 139.497C28.5898 139.497 29.7118 140.616 29.7118 142C29.7118 143.384 28.5898 144.504 27.2082 144.504Z" fill="black"/>
<path d="M31.2165 138.894C31.7146 138.894 32.1185 138.49 32.1185 137.992C32.1185 137.494 31.7146 137.09 31.2165 137.09C30.7183 137.09 30.3145 137.494 30.3145 137.992C30.3145 138.49 30.7183 138.894 31.2165 138.894Z" fill="black"/>
</g>
<path d="M48.6494 146.5H47.1182V136.636H48.6494V146.5ZM50.44 146.5V139.309H51.8482V140.512H51.8824C52.2721 139.691 53.0377 139.186 54.1451 139.186C55.7311 139.186 56.6402 140.197 56.6402 141.845V146.5H55.1568V142.132C55.1568 141.052 54.651 140.457 53.6256 140.457C52.5865 140.457 51.9166 141.195 51.9166 142.31V146.5H50.44ZM58.0891 141.346C58.0891 140.061 59.2238 139.179 60.9055 139.179C62.5051 139.179 63.6262 140.074 63.674 141.353H62.2863C62.218 140.703 61.6916 140.3 60.8645 140.3C60.0646 140.3 59.5314 140.689 59.5314 141.257C59.5314 141.701 59.8869 142.002 60.632 142.187L61.842 142.467C63.2912 142.815 63.8381 143.362 63.8381 144.422C63.8381 145.734 62.6145 146.637 60.8508 146.637C59.1486 146.637 58.0207 145.755 57.9045 144.436H59.3674C59.4836 145.126 60.0168 145.509 60.9191 145.509C61.8078 145.509 62.3547 145.14 62.3547 144.559C62.3547 144.101 62.0813 143.848 61.3293 143.656L60.0441 143.342C58.7453 143.027 58.0891 142.351 58.0891 141.346ZM65.5672 137.606H67.0506V139.309H68.4178V140.478H67.0506V144.442C67.0506 145.064 67.324 145.345 67.9256 145.345C68.076 145.345 68.3152 145.331 68.4109 145.311V146.479C68.2469 146.521 67.9188 146.548 67.5906 146.548C66.1346 146.548 65.5672 145.994 65.5672 144.606V140.478H64.5213V139.309H65.5672V137.606ZM72.1908 145.454C73.223 145.454 74.0297 144.743 74.0297 143.807V143.239L72.2592 143.349C71.3773 143.41 70.8783 143.8 70.8783 144.415C70.8783 145.044 71.3979 145.454 72.1908 145.454ZM71.7807 146.623C70.3725 146.623 69.3881 145.748 69.3881 144.456C69.3881 143.198 70.352 142.426 72.0609 142.33L74.0297 142.214V141.66C74.0297 140.86 73.4896 140.382 72.5873 140.382C71.7328 140.382 71.1996 140.792 71.0697 141.435H69.6752C69.7572 140.136 70.8646 139.179 72.642 139.179C74.3852 139.179 75.4994 140.102 75.4994 141.544V146.5H74.0844V145.317H74.0502C73.6332 146.117 72.724 146.623 71.7807 146.623ZM80.1475 145.304C81.3027 145.304 82.0615 144.367 82.0615 142.884C82.0615 141.407 81.3027 140.437 80.1475 140.437C79.0127 140.437 78.2744 141.387 78.2744 142.884C78.2744 144.388 79.0127 145.304 80.1475 145.304ZM80.1611 149.207C78.4658 149.207 77.208 148.305 77.0234 147.061H78.5068C78.7188 147.662 79.375 148.059 80.2158 148.059C81.3711 148.059 82.0547 147.402 82.0547 146.418V145.235H82.0273C81.624 146.015 80.7764 146.527 79.751 146.527C77.9463 146.527 76.7637 145.119 76.7637 142.877C76.7637 140.614 77.9395 139.192 79.7852 139.192C80.8037 139.192 81.6377 139.705 82.0752 140.539H82.1025V139.309H83.5381V146.37C83.5381 148.086 82.2119 149.207 80.1611 149.207ZM85.151 146.5V139.309H86.5592V140.532H86.5934C86.8326 139.691 87.4752 139.192 88.3229 139.192C88.5348 139.192 88.7193 139.227 88.8287 139.247V140.621C88.7125 140.573 88.4527 140.539 88.1656 140.539C87.2154 140.539 86.6275 141.175 86.6275 142.193V146.5H85.151ZM92.26 145.454C93.2922 145.454 94.0988 144.743 94.0988 143.807V143.239L92.3283 143.349C91.4465 143.41 90.9475 143.8 90.9475 144.415C90.9475 145.044 91.467 145.454 92.26 145.454ZM91.8498 146.623C90.4416 146.623 89.4572 145.748 89.4572 144.456C89.4572 143.198 90.4211 142.426 92.1301 142.33L94.0988 142.214V141.66C94.0988 140.86 93.5588 140.382 92.6564 140.382C91.802 140.382 91.2687 140.792 91.1389 141.435H89.7443C89.8264 140.136 90.9338 139.179 92.7111 139.179C94.4543 139.179 95.5686 140.102 95.5686 141.544V146.5H94.1535V145.317H94.1193C93.7023 146.117 92.7932 146.623 91.8498 146.623ZM97.1541 146.5V139.309H98.5623V140.519H98.5965C98.9178 139.719 99.6697 139.186 100.64 139.186C101.638 139.186 102.363 139.698 102.65 140.594H102.684C103.054 139.719 103.901 139.186 104.927 139.186C106.348 139.186 107.278 140.129 107.278 141.558V146.5H105.795V141.913C105.795 140.983 105.296 140.45 104.421 140.45C103.546 140.45 102.937 141.1 102.937 142.009V146.5H101.488V141.804C101.488 140.977 100.962 140.45 100.128 140.45C99.2527 140.45 98.6307 141.134 98.6307 142.057V146.5H97.1541Z" fill="#CEC1F1" fill-opacity="0.7"/>
<g filter="url(#filter2_f_2089_49)">
<path d="M161.09 146.5V138.153H161.056L158.479 139.985V138.481L161.077 136.636H162.588V146.5H161.09ZM165.868 148.53H164.693L165.308 144.921H166.798L165.868 148.53ZM172.198 146.685C169.833 146.685 168.431 144.702 168.431 141.558C168.431 138.434 169.846 136.451 172.198 136.451C174.556 136.451 175.951 138.427 175.951 141.551C175.951 144.695 174.563 146.685 172.198 146.685ZM172.198 145.399C173.606 145.399 174.406 143.943 174.406 141.558C174.406 139.206 173.593 137.736 172.198 137.736C170.804 137.736 169.983 139.213 169.983 141.558C169.983 143.937 170.79 145.399 172.198 145.399ZM181.037 146.685C178.835 146.685 177.304 145.502 177.304 143.834C177.304 142.576 178.193 141.571 179.498 141.298V141.264C178.405 140.963 177.701 140.108 177.701 139.049C177.701 137.552 179.102 136.451 181.037 136.451C182.978 136.451 184.366 137.545 184.366 139.056C184.366 140.102 183.668 140.949 182.575 141.264V141.298C183.887 141.571 184.769 142.583 184.769 143.834C184.769 145.509 183.224 146.685 181.037 146.685ZM181.037 145.454C182.294 145.454 183.183 144.729 183.183 143.725C183.183 142.706 182.294 141.981 181.037 141.981C179.779 141.981 178.883 142.713 178.883 143.725C178.883 144.729 179.779 145.454 181.037 145.454ZM181.037 140.751C182.096 140.751 182.855 140.108 182.855 139.213C182.855 138.311 182.103 137.668 181.037 137.668C179.963 137.668 179.218 138.311 179.218 139.213C179.218 140.108 179.963 140.751 181.037 140.751ZM190.969 146.5V144.552H186.033V143.212C186.881 141.619 188.002 139.849 190.224 136.636H192.438V143.267H193.792V144.552H192.438V146.5H190.969ZM187.462 143.253V143.287H190.982V137.818H190.955C189.246 140.286 188.248 141.824 187.462 143.253Z" fill="#CEC1F1" fill-opacity="0.7"/>
<path d="M220.459 141.25L224.209 137.5M224.209 137.5L227.959 141.25M224.209 137.5V146.5" stroke="#00AE4E" stroke-width="1.5" stroke-linecap="round" stroke-linejoin="round"/>
<path d="M234.977 139.527C234.977 137.75 236.405 136.451 238.367 136.451C240.247 136.451 241.648 137.647 241.648 139.213C241.648 140.361 241.033 141.216 239.591 142.692L237.123 145.174V145.208H241.806V146.5H235.059V145.461L238.62 141.831C239.823 140.58 240.138 140.061 240.138 139.288C240.138 138.413 239.345 137.716 238.319 137.716C237.239 137.716 236.426 138.495 236.426 139.521V139.541H234.977V139.527ZM246.912 146.685C244.546 146.685 243.145 144.702 243.145 141.558C243.145 138.434 244.56 136.451 246.912 136.451C249.27 136.451 250.665 138.427 250.665 141.551C250.665 144.695 249.277 146.685 246.912 146.685ZM246.912 145.399C248.32 145.399 249.12 143.943 249.12 141.558C249.12 139.206 248.306 137.736 246.912 137.736C245.517 137.736 244.697 139.213 244.697 141.558C244.697 143.937 245.504 145.399 246.912 145.399ZM252.961 146.575C252.462 146.575 252.066 146.179 252.066 145.68C252.066 145.181 252.462 144.784 252.961 144.784C253.46 144.784 253.857 145.181 253.857 145.68C253.857 146.179 253.46 146.575 252.961 146.575ZM259.229 146.685C256.864 146.685 255.463 144.702 255.463 141.558C255.463 138.434 256.878 136.451 259.229 136.451C261.588 136.451 262.982 138.427 262.982 141.551C262.982 144.695 261.595 146.685 259.229 146.685ZM259.229 145.399C260.638 145.399 261.437 143.943 261.437 141.558C261.437 139.206 260.624 137.736 259.229 137.736C257.835 137.736 257.014 139.213 257.014 141.558C257.014 143.937 257.821 145.399 259.229 145.399ZM268.068 146.685C265.867 146.685 264.335 145.502 264.335 143.834C264.335 142.576 265.224 141.571 266.53 141.298V141.264C265.436 140.963 264.732 140.108 264.732 139.049C264.732 137.552 266.133 136.451 268.068 136.451C270.009 136.451 271.397 137.545 271.397 139.056C271.397 140.102 270.7 140.949 269.606 141.264V141.298C270.918 141.571 271.8 142.583 271.8 143.834C271.8 145.509 270.255 146.685 268.068 146.685ZM268.068 145.454C269.326 145.454 270.214 144.729 270.214 143.725C270.214 142.706 269.326 141.981 268.068 141.981C266.81 141.981 265.914 142.713 265.914 143.725C265.914 144.729 266.81 145.454 268.068 145.454ZM268.068 140.751C269.127 140.751 269.886 140.108 269.886 139.213C269.886 138.311 269.134 137.668 268.068 137.668C266.995 137.668 266.249 138.311 266.249 139.213C266.249 140.108 266.995 140.751 268.068 140.751ZM277.146 138.98C277.146 140.498 276.305 141.469 275.013 141.469C273.714 141.469 272.873 140.498 272.873 138.98C272.873 137.463 273.714 136.492 275.013 136.492C276.305 136.492 277.146 137.463 277.146 138.98ZM275.013 140.505C275.553 140.505 275.895 139.924 275.895 138.974C275.895 138.03 275.553 137.449 275.013 137.449C274.466 137.449 274.124 138.03 274.124 138.974C274.124 139.924 274.466 140.505 275.013 140.505ZM274.951 146.5H273.598L277.412 141.284L280.81 136.636H282.156L278.444 141.722L274.951 146.5ZM282.881 144.128C282.881 145.646 282.047 146.616 280.748 146.616C279.449 146.616 278.615 145.646 278.615 144.128C278.615 142.604 279.449 141.633 280.748 141.633C282.047 141.633 282.881 142.604 282.881 144.128ZM280.748 145.646C281.295 145.646 281.63 145.071 281.63 144.121C281.63 143.171 281.295 142.597 280.748 142.597C280.201 142.597 279.866 143.171 279.866 144.121C279.866 145.071 280.201 145.646 280.748 145.646Z" fill="#00AE4E"/>
</g>
<path d="M20.3984 25H19.0859V17.6758H16.4961V16.5449H22.9824V17.6758H20.3984V25ZM25.1891 25.1172C23.4254 25.1172 22.2652 23.9043 22.2652 21.918C22.2652 19.9375 23.4313 18.7246 25.1891 18.7246C26.9469 18.7246 28.1129 19.9375 28.1129 21.918C28.1129 23.9043 26.9527 25.1172 25.1891 25.1172ZM25.1891 24.0742C26.1852 24.0742 26.8238 23.2891 26.8238 21.918C26.8238 20.5527 26.1793 19.7676 25.1891 19.7676C24.1988 19.7676 23.5543 20.5527 23.5543 21.918C23.5543 23.2891 24.1988 24.0742 25.1891 24.0742ZM29.6105 17.377H30.882V18.8359H32.0539V19.8379H30.882V23.2363C30.882 23.7695 31.1164 24.0098 31.632 24.0098C31.7609 24.0098 31.966 23.998 32.048 23.9805V24.9824C31.9074 25.0176 31.6262 25.041 31.3449 25.041C30.0969 25.041 29.6105 24.5664 29.6105 23.377V19.8379H28.7141V18.8359H29.6105V17.377ZM35.3094 24.1035C36.1941 24.1035 36.8855 23.4941 36.8855 22.6914V22.2051L35.368 22.2988C34.6121 22.3516 34.1844 22.6855 34.1844 23.2129C34.1844 23.752 34.6297 24.1035 35.3094 24.1035ZM34.9578 25.1055C33.7508 25.1055 32.907 24.3555 32.907 23.248C32.907 22.1699 33.7332 21.5078 35.198 21.4258L36.8855 21.3262V20.8516C36.8855 20.166 36.4227 19.7559 35.6492 19.7559C34.9168 19.7559 34.4598 20.1074 34.3484 20.6582H33.1531C33.2234 19.5449 34.1727 18.7246 35.6961 18.7246C37.1902 18.7246 38.1453 19.5156 38.1453 20.752V25H36.9324V23.9863H36.9031C36.5457 24.6719 35.7664 25.1055 34.9578 25.1055ZM39.5727 25V16.5449H40.8383V25H39.5727ZM50.5367 25L49.7633 22.7148H46.5406L45.7672 25H44.402L47.4547 16.5449H48.8727L51.9254 25H50.5367ZM48.1344 17.9512L46.8746 21.6602H49.4293L48.1695 17.9512H48.1344ZM57.9523 18.8359V25H56.7395V23.957H56.7102C56.3703 24.6953 55.7434 25.1113 54.8 25.1113C53.4582 25.1113 52.6379 24.2383 52.6379 22.8262V18.8359H53.9035V22.5801C53.9035 23.5176 54.3488 24.0215 55.2219 24.0215C56.1359 24.0215 56.6867 23.3887 56.6867 22.4277V18.8359H57.9523ZM61.6707 25.1055C60.1121 25.1055 59.0809 23.8633 59.0809 21.918C59.0809 19.9727 60.1121 18.7363 61.659 18.7363C62.5438 18.7363 63.2469 19.1816 63.5926 19.8613H63.616V16.5449H64.8875V25H63.657V23.9512H63.6336C63.2703 24.6543 62.5672 25.1055 61.6707 25.1055ZM62.0047 19.8027C61.0027 19.8027 60.3758 20.623 60.3758 21.918C60.3758 23.2188 61.0027 24.0332 62.0047 24.0332C62.9773 24.0332 63.6277 23.207 63.6277 21.918C63.6277 20.6406 62.9773 19.8027 62.0047 19.8027ZM66.3793 25V18.8359H67.6449V25H66.3793ZM67.0121 17.9336C66.6078 17.9336 66.2797 17.6113 66.2797 17.2129C66.2797 16.8086 66.6078 16.4863 67.0121 16.4863C67.4223 16.4863 67.7504 16.8086 67.7504 17.2129C67.7504 17.6113 67.4223 17.9336 67.0121 17.9336ZM71.668 19.7441C70.7832 19.7441 70.1621 20.418 70.0977 21.3496H73.1797C73.1504 20.4062 72.5527 19.7441 71.668 19.7441ZM73.1738 23.1895H74.375C74.1992 24.3145 73.1328 25.1172 71.7207 25.1172C69.9102 25.1172 68.8145 23.8926 68.8145 21.9473C68.8145 20.0137 69.9277 18.7246 71.668 18.7246C73.3789 18.7246 74.4453 19.9316 74.4453 21.8008V22.2344H70.0918V22.3105C70.0918 23.3828 70.7363 24.0918 71.75 24.0918C72.4707 24.0918 73.0039 23.7285 73.1738 23.1895ZM75.5797 25V18.8359H76.7867V19.8672H76.816C77.15 19.1641 77.8063 18.7305 78.7555 18.7305C80.1148 18.7305 80.8941 19.5977 80.8941 21.0098V25H79.6227V21.2559C79.6227 20.3301 79.1891 19.8203 78.3102 19.8203C77.4195 19.8203 76.8453 20.4531 76.8453 21.4082V25H75.5797ZM87.5598 20.957H86.3527C86.2238 20.3008 85.7316 19.7793 84.9055 19.7793C83.927 19.7793 83.2824 20.5938 83.2824 21.918C83.2824 23.2715 83.9328 24.0566 84.9172 24.0566C85.6965 24.0566 86.2063 23.6289 86.3527 22.9141H87.5715C87.4367 24.2266 86.3879 25.1172 84.9055 25.1172C83.1418 25.1172 81.9934 23.9102 81.9934 21.918C81.9934 19.9609 83.1418 18.7246 84.8938 18.7246C86.4816 18.7246 87.4484 19.7441 87.5598 20.957ZM91.1961 19.7441C90.3113 19.7441 89.6902 20.418 89.6258 21.3496H92.7078C92.6785 20.4062 92.0809 19.7441 91.1961 19.7441ZM92.702 23.1895H93.9031C93.7273 24.3145 92.6609 25.1172 91.2488 25.1172C89.4383 25.1172 88.3426 23.8926 88.3426 21.9473C88.3426 20.0137 89.4559 18.7246 91.1961 18.7246C92.907 18.7246 93.9734 19.9316 93.9734 21.8008V22.2344H89.6199V22.3105C89.6199 23.3828 90.2645 24.0918 91.2781 24.0918C91.9988 24.0918 92.532 23.7285 92.702 23.1895Z" fill="#CEC1F1" fill-opacity="0.7"/>
<path d="M17.0391 41.1465C17.0391 38.4805 19.168 36.5957 22.2441 36.5957C25.2129 36.5957 27.2539 38.3145 27.2539 40.668C27.2539 42.4258 26.082 43.7441 24.5293 45.2871L21.0918 48.5977V48.6562H27.4492V51H17.2051V49.0176L22.5176 43.9004C23.9434 42.4746 24.3828 41.7617 24.3828 40.7852C24.3828 39.7305 23.4551 38.8906 22.1465 38.8906C20.7793 38.8906 19.7734 39.8477 19.7734 41.1465V41.1953H17.0391V41.1465ZM33.9344 51.3125C30.3895 51.3125 28.2312 48.4902 28.2312 43.9297C28.2312 39.3789 30.409 36.5859 33.9344 36.5859C37.4598 36.5859 39.6277 39.3691 39.6277 43.9199C39.6277 48.4707 37.4793 51.3125 33.9344 51.3125ZM33.9344 48.9492C35.6141 48.9492 36.6297 47.1426 36.6297 43.9297C36.6297 40.7461 35.6043 38.9492 33.9344 38.9492C32.2742 38.9492 31.2293 40.7559 31.2293 43.9297C31.2293 47.1328 32.2547 48.9492 33.9344 48.9492ZM42.1871 54.0859H40.0484L40.7809 48.5781H43.4957L42.1871 54.0859ZM51.8363 51V48.4902H44.8246V45.9805C46.0551 43.6367 47.5883 41.166 50.4789 36.9082H54.6391V46.127H56.475V48.4902H54.6391V51H51.8363ZM47.4125 46.1367V46.2148H51.8949V38.998H51.8363C49.7855 42.0059 48.5551 43.9297 47.4125 46.1367ZM62.7062 51.3125C59.6789 51.3125 57.5012 49.5156 57.4133 46.9668H60.1379C60.3039 48.1582 61.3586 48.9785 62.7258 48.9785C64.2687 48.9785 65.3332 47.9043 65.3332 46.3711C65.3332 44.8086 64.2687 43.7148 62.7453 43.7148C61.6809 43.7148 60.7629 44.2031 60.2746 45.0137H57.6379L58.3312 36.9082H67.2961V39.252H60.6457L60.3234 43.1094H60.382C60.9582 42.1621 62.0812 41.5664 63.5168 41.5664C66.2121 41.5664 68.1457 43.5488 68.1457 46.293C68.1457 49.2812 65.9387 51.3125 62.7062 51.3125ZM72.4141 44.8477V42.7188H74.123C75.4707 42.7188 76.3789 41.918 76.3789 40.7559C76.3789 39.6133 75.5684 38.8613 74.1035 38.8613C72.7363 38.8613 71.8281 39.6719 71.75 40.9023H69.0352C69.1426 38.2949 71.1738 36.5957 74.2305 36.5957C77.1602 36.5957 79.1621 38.0996 79.1621 40.3555C79.1621 42.084 77.9805 43.334 76.252 43.6465V43.7051C78.3516 43.8809 79.709 45.1504 79.709 47.1035C79.709 49.6328 77.4141 51.3125 74.1621 51.3125C70.9785 51.3125 68.8984 49.5645 68.7617 46.9668H71.584C71.6719 48.1582 72.6484 48.9395 74.2012 48.9395C75.6758 48.9395 76.7109 48.1094 76.7109 46.918C76.7109 45.6289 75.7441 44.8477 74.1523 44.8477H72.4141Z" fill="#CEC1F1"/>
<rect x="93.209" y="32.5" width="53" height="23" rx="8" fill="#00AE4E" fill-opacity="0.1"/>
<rect x="93.709" y="33" width="52" height="22" rx="7.5" stroke="#00AE4E" stroke-opacity="0.5"/>
<path d="M101.459 43.25L105.209 39.5M105.209 39.5L108.959 43.25M105.209 39.5V48.5" stroke="#00AE4E" stroke-width="1.5" stroke-linecap="round" stroke-linejoin="round"/>
<path d="M117.345 48.5V40.58H115.653V39.56H118.533V48.5H117.345ZM124.849 48.5V46.436H120.457V45.464L124.825 39.56H125.953V45.464H127.117V46.436H125.953V48.5H124.849ZM121.345 45.884L121.177 45.464H124.849V40.544L125.197 40.64L121.345 45.884ZM129.459 48.5L136.755 39.56H138.087L130.791 48.5H129.459ZM130.803 44.096C130.363 44.096 129.967 43.992 129.615 43.784C129.263 43.568 128.979 43.284 128.763 42.932C128.555 42.58 128.451 42.188 128.451 41.756C128.451 41.324 128.555 40.932 128.763 40.58C128.979 40.22 129.263 39.936 129.615 39.728C129.967 39.52 130.363 39.416 130.803 39.416C131.235 39.416 131.627 39.52 131.979 39.728C132.331 39.936 132.611 40.22 132.819 40.58C133.027 40.932 133.131 41.324 133.131 41.756C133.131 42.188 133.027 42.58 132.819 42.932C132.611 43.284 132.331 43.568 131.979 43.784C131.627 43.992 131.235 44.096 130.803 44.096ZM130.791 43.112C131.063 43.112 131.295 43.048 131.487 42.92C131.679 42.792 131.831 42.624 131.943 42.416C132.055 42.208 132.111 41.988 132.111 41.756C132.111 41.516 132.055 41.296 131.943 41.096C131.831 40.888 131.679 40.72 131.487 40.592C131.295 40.456 131.063 40.388 130.791 40.388C130.535 40.388 130.307 40.456 130.107 40.592C129.907 40.72 129.751 40.888 129.639 41.096C129.527 41.304 129.471 41.524 129.471 41.756C129.471 41.98 129.527 42.2 129.639 42.416C129.751 42.624 129.907 42.792 130.107 42.92C130.307 43.048 130.535 43.112 130.791 43.112ZM136.671 48.644C136.231 48.644 135.835 48.54 135.483 48.332C135.131 48.116 134.847 47.832 134.631 47.48C134.423 47.128 134.319 46.736 134.319 46.304C134.319 45.872 134.423 45.48 134.631 45.128C134.847 44.768 135.131 44.484 135.483 44.276C135.835 44.068 136.231 43.964 136.671 43.964C137.103 43.964 137.495 44.068 137.847 44.276C138.199 44.484 138.479 44.768 138.687 45.128C138.895 45.48 138.999 45.872 138.999 46.304C138.999 46.736 138.895 47.128 138.687 47.48C138.479 47.832 138.199 48.116 137.847 48.332C137.495 48.54 137.103 48.644 136.671 48.644ZM136.671 47.66C136.935 47.66 137.163 47.596 137.355 47.468C137.555 47.34 137.707 47.172 137.811 46.964C137.923 46.756 137.979 46.536 137.979 46.304C137.979 46.064 137.923 45.844 137.811 45.644C137.707 45.436 137.555 45.268 137.355 45.14C137.163 45.004 136.935 44.936 136.671 44.936C136.415 44.936 136.183 45.004 135.975 45.14C135.775 45.268 135.619 45.436 135.507 45.644C135.395 45.852 135.339 46.072 135.339 46.304C135.339 46.528 135.395 46.748 135.507 46.964C135.619 47.172 135.775 47.34 135.975 47.468C136.183 47.596 136.415 47.66 136.671 47.66Z" fill="#00AE4E"/>
</g>
<g clip-path="url(#clip2_2089_49)">
<g filter="url(#filter3_b_2089_49)">
<rect x="90.5156" y="144.353" width="198.109" height="75.9173" rx="12.7323" transform="rotate(-6.4417 90.5156 144.353)" fill="url(#paint3_linear_2089_49)"/>
</g>
<path d="M166.727 152.457L167.263 157.803C167.383 159.004 168.225 159.774 169.566 159.639C170.907 159.505 171.586 158.583 171.466 157.382L170.931 152.036L172.231 151.906L172.777 157.363C172.959 159.176 171.793 160.588 169.682 160.8C167.572 161.011 166.149 159.858 165.968 158.045L165.421 152.587L166.727 152.457ZM174.071 155.779C173.961 154.683 174.854 153.834 176.288 153.69C177.652 153.554 178.685 154.222 178.835 155.308L177.651 155.427C177.538 154.879 177.054 154.579 176.349 154.65C175.667 154.718 175.245 155.096 175.294 155.58C175.332 155.959 175.66 156.185 176.312 156.279L177.367 156.415C178.633 156.588 179.146 157.008 179.237 157.912C179.349 159.031 178.382 159.905 176.878 160.056C175.426 160.201 174.389 159.545 174.177 158.43L175.425 158.305C175.583 158.884 176.07 159.165 176.84 159.088C177.598 159.012 178.033 158.651 177.983 158.155C177.944 157.764 177.689 157.572 177.032 157.473L175.909 157.315C174.774 157.157 174.157 156.636 174.071 155.779ZM182.585 154.085C181.704 154.173 181.154 154.905 181.182 155.839L184.249 155.532C184.126 154.596 183.465 153.997 182.585 154.085ZM184.426 157.363L185.622 157.243C185.559 158.38 184.577 159.285 183.172 159.426C181.371 159.606 180.159 158.497 179.965 156.561C179.772 154.637 180.752 153.244 182.483 153.07C184.186 152.9 185.367 153.995 185.553 155.855L185.596 156.286L181.264 156.72L181.272 156.795C181.379 157.862 182.091 158.504 183.099 158.403C183.817 158.331 184.311 157.916 184.426 157.363ZM187.001 158.925L186.387 152.792L187.588 152.671L187.692 153.715L187.721 153.712C187.854 152.974 188.359 152.494 189.082 152.422C189.263 152.404 189.423 152.417 189.518 152.425L189.635 153.597C189.532 153.566 189.308 153.559 189.063 153.584C188.252 153.665 187.805 154.257 187.892 155.126L188.26 158.799L187.001 158.925ZM199.021 156.579L199.134 157.71L193.794 158.245L192.952 149.832L198.292 149.297L198.405 150.423L194.37 150.827L194.617 153.287L198.436 152.905L198.544 153.989L194.725 154.371L194.987 156.983L199.021 156.579ZM200.473 157.577L199.859 151.443L201.06 151.323L201.163 152.349L201.192 152.346C201.454 151.613 202.064 151.116 203.009 151.022C204.361 150.886 205.223 151.672 205.364 153.077L205.761 157.047L204.496 157.174L204.123 153.448C204.031 152.527 203.549 152.063 202.674 152.151C201.788 152.239 201.28 152.926 201.375 153.877L201.732 157.45L200.473 157.577ZM209.639 155.629C210.624 155.53 211.191 154.666 211.065 153.401C210.939 152.142 210.209 151.379 209.223 151.477C208.255 151.574 207.707 152.448 207.835 153.725C207.963 155.007 208.671 155.725 209.639 155.629ZM209.984 158.957C208.538 159.101 207.388 158.439 207.124 157.394L208.389 157.267C208.621 157.762 209.215 158.044 209.932 157.972C210.917 157.874 211.444 157.256 211.36 156.416L211.259 155.408L211.236 155.41C210.959 156.109 210.28 156.619 209.405 156.706C207.866 156.86 206.737 155.76 206.546 153.848C206.352 151.918 207.234 150.605 208.808 150.447C209.677 150.36 210.432 150.726 210.876 151.4L210.899 151.398L210.794 150.349L212.019 150.226L212.622 156.249C212.768 157.712 211.733 158.781 209.984 158.957ZM216.086 155.113C216.966 155.025 217.593 154.35 217.513 153.551L217.465 153.067L215.964 153.311C215.218 153.439 214.825 153.814 214.878 154.339C214.931 154.875 215.409 155.181 216.086 155.113ZM215.836 156.145C214.635 156.265 213.72 155.603 213.61 154.501C213.503 153.428 214.259 152.687 215.708 152.46L217.378 152.192L217.33 151.72C217.262 151.038 216.761 150.676 215.991 150.753C215.262 150.826 214.842 151.221 214.787 151.78L213.597 151.899C213.556 150.785 214.419 149.874 215.935 149.722C217.422 149.573 218.451 150.265 218.574 151.496L218.997 155.722L217.79 155.843L217.689 154.835L217.66 154.838C217.373 155.555 216.64 156.064 215.836 156.145ZM222.88 154.303C223.866 154.205 224.433 153.341 224.306 152.076C224.18 150.817 223.45 150.054 222.465 150.152C221.497 150.249 220.948 151.122 221.076 152.399C221.205 153.682 221.913 154.4 222.88 154.303ZM223.225 157.631C221.779 157.776 220.63 157.114 220.366 156.068L221.631 155.942C221.863 156.437 222.457 156.719 223.174 156.647C224.159 156.548 224.686 155.93 224.602 155.091L224.501 154.082L224.478 154.084C224.2 154.784 223.521 155.293 222.647 155.381C221.107 155.535 219.979 154.435 219.787 152.522C219.594 150.593 220.475 149.28 222.05 149.122C222.918 149.035 223.673 149.401 224.118 150.075L224.141 150.073L224.036 149.023L225.26 148.901L225.863 154.923C226.01 156.387 224.974 157.456 223.225 157.631ZM229.313 149.408C228.433 149.496 227.882 150.228 227.91 151.162L230.977 150.855C230.854 149.919 230.193 149.32 229.313 149.408ZM231.155 152.686L232.35 152.566C232.287 153.703 231.306 154.608 229.901 154.749C228.099 154.929 226.887 153.82 226.693 151.884C226.501 149.96 227.48 148.567 229.212 148.393C230.914 148.223 232.095 149.318 232.281 151.178L232.325 151.609L227.993 152.043L228 152.118C228.107 153.185 228.819 153.827 229.828 153.726C230.545 153.654 231.039 153.239 231.155 152.686ZM233.729 154.248L233.115 148.115L234.316 147.994L234.419 149.026L234.448 149.023C234.654 148.314 235.25 147.795 236.078 147.712C236.929 147.627 237.591 148.002 237.912 148.741L237.941 148.739C238.181 147.961 238.859 147.434 239.733 147.346C240.946 147.225 241.819 147.95 241.941 149.168L242.363 153.384L241.098 153.51L240.707 149.598C240.627 148.805 240.156 148.393 239.41 148.468C238.664 148.543 238.2 149.148 238.278 149.924L238.661 153.754L237.425 153.878L237.024 149.873C236.954 149.167 236.46 148.763 235.748 148.834C235.002 148.909 234.53 149.545 234.609 150.332L234.988 154.122L233.729 154.248ZM245.773 147.76C244.893 147.848 244.342 148.581 244.37 149.514L247.437 149.207C247.314 148.272 246.653 147.672 245.773 147.76ZM247.615 151.039L248.81 150.919C248.747 152.056 247.766 152.961 246.361 153.101C244.559 153.282 243.347 152.172 243.153 150.237C242.961 148.313 243.94 146.919 245.671 146.746C247.374 146.576 248.555 147.67 248.741 149.53L248.785 149.962L244.453 150.395L244.46 150.471C244.567 151.538 245.279 152.179 246.288 152.078C247.005 152.006 247.499 151.592 247.615 151.039ZM250.189 152.601L249.575 146.467L250.776 146.347L250.879 147.373L250.908 147.37C251.17 146.637 251.78 146.14 252.724 146.046C254.077 145.91 254.939 146.696 255.079 148.101L255.477 152.071L254.212 152.198L253.839 148.472C253.746 147.551 253.264 147.087 252.39 147.175C251.504 147.263 250.995 147.95 251.09 148.901L251.448 152.474L250.189 152.601ZM256.453 144.312L257.718 144.186L257.863 145.638L259.029 145.521L259.129 146.518L257.963 146.635L258.301 150.016C258.354 150.547 258.612 150.762 259.125 150.711C259.253 150.698 259.456 150.666 259.536 150.64L259.635 151.637C259.499 151.686 259.222 151.738 258.942 151.766C257.7 151.89 257.169 151.466 257.05 150.283L256.698 146.761L255.806 146.85L255.706 145.853L256.598 145.764L256.453 144.312Z" fill="#CEC1F1" fill-opacity="0.7"/>
<path d="M176.047 189.496C173.563 189.745 171.442 188.673 170.118 186.509C169.296 185.237 168.781 183.616 168.583 181.646C168.02 176.014 170.205 172.427 174.414 172.005C177.387 171.708 179.875 173.261 180.656 175.891L178.044 176.153C177.498 174.818 176.149 174.046 174.61 174.2C171.963 174.465 170.664 177.021 171.076 181.255L171.123 181.25C171.694 179.544 173.369 178.269 175.467 178.059C178.674 177.738 181.29 179.867 181.61 183.062C181.947 186.432 179.615 189.139 176.047 189.496ZM175.803 187.295C177.785 187.096 179.215 185.375 179.017 183.404C178.813 181.364 177.185 180.043 175.121 180.249C173.069 180.455 171.689 182.077 171.888 184.071C172.088 186.065 173.797 187.495 175.803 187.295ZM185.399 191.728L183.393 191.929L183.826 185.667L186.368 185.413L185.399 191.728ZM194.869 187.612C192.385 187.861 190.264 186.789 188.94 184.625C188.118 183.353 187.603 181.732 187.405 179.762C186.842 174.13 189.026 170.543 193.236 170.121C196.209 169.824 198.697 171.377 199.478 174.007L196.866 174.269C196.32 172.934 194.971 172.162 193.432 172.316C190.785 172.581 189.486 175.137 189.898 179.371L189.945 179.366C190.516 177.66 192.19 176.386 194.289 176.176C197.496 175.855 200.112 177.984 200.431 181.179C200.769 184.548 198.437 187.255 194.869 187.612ZM194.625 185.411C196.607 185.212 198.037 183.491 197.839 181.52C197.635 179.48 196.007 178.159 193.943 178.365C191.891 178.571 190.511 180.193 190.71 182.187C190.91 184.181 192.619 185.611 194.625 185.411ZM208.301 186.256C204.943 186.592 202.277 184.786 201.832 181.863L204.327 181.613C204.681 183.262 206.229 184.261 208.106 184.073C210.229 183.861 211.55 182.233 211.338 180.122C211.127 178.012 209.506 176.643 207.407 176.853C205.95 176.999 204.757 177.789 204.215 178.963L201.824 179.202L201.758 169.598L211.775 168.596L211.995 170.8L204.078 171.592L204.128 176.804L204.187 176.798C204.815 175.664 206.127 174.885 207.771 174.72C211.001 174.397 213.558 176.532 213.885 179.797C214.231 183.248 211.928 185.893 208.301 186.256ZM221.77 184.908C217.736 185.312 215.007 182.169 214.47 176.806C213.937 171.477 216.012 167.854 220.023 167.452C224.046 167.049 226.762 170.181 227.295 175.51C227.832 180.874 225.805 184.504 221.77 184.908ZM221.551 182.716C223.953 182.475 225.069 179.855 224.661 175.786C224.26 171.774 222.621 169.406 220.242 169.644C217.864 169.882 216.717 172.541 217.117 176.541C217.523 180.598 219.149 182.956 221.551 182.716Z" fill="#CEC1F1"/>
<g filter="url(#filter4_bi_2089_49)">
<rect x="107.971" y="157.377" width="47.2762" height="47.2762" rx="23.6381" transform="rotate(-6.4417 107.971 157.377)" fill="url(#paint4_linear_2089_49)" fill-opacity="0.2"/>
</g>
<g filter="url(#filter5_i_2089_49)">
<path d="M124.955 173.119C124.851 172.03 125.183 170.944 125.879 170.1C126.575 169.255 127.578 168.722 128.666 168.618C129.755 168.513 130.841 168.845 131.686 169.541C132.53 170.237 133.063 171.24 133.167 172.329C133.272 173.418 132.94 174.504 132.244 175.348C131.548 176.192 130.545 176.725 129.456 176.83C128.367 176.935 127.281 176.602 126.437 175.906C125.593 175.21 125.06 174.208 124.955 173.119ZM134.876 174.425C134.834 173.984 134.878 173.539 135.008 173.115C135.138 172.691 135.35 172.297 135.631 171.955C135.913 171.613 136.26 171.33 136.651 171.122C137.043 170.914 137.471 170.785 137.912 170.742C138.354 170.7 138.799 170.745 139.223 170.874C139.646 171.004 140.041 171.216 140.383 171.498C140.724 171.78 141.008 172.126 141.216 172.518C141.424 172.909 141.553 173.338 141.595 173.779C141.681 174.67 141.409 175.558 140.839 176.249C140.27 176.939 139.45 177.376 138.559 177.461C137.668 177.547 136.779 177.275 136.088 176.706C135.398 176.136 134.962 175.316 134.876 174.425ZM123.19 186.097C123.009 184.216 123.583 182.34 124.785 180.883C125.987 179.425 127.719 178.504 129.6 178.323C131.481 178.142 133.357 178.716 134.815 179.918C136.273 181.12 137.193 182.852 137.374 184.733L137.375 184.736L137.385 184.855C137.395 184.981 137.373 185.109 137.32 185.224C137.267 185.34 137.186 185.441 137.084 185.516C135.17 186.935 132.905 187.804 130.533 188.028C128.073 188.265 125.704 187.805 123.625 186.811C123.51 186.756 123.411 186.673 123.337 186.569C123.263 186.466 123.217 186.345 123.202 186.219L123.19 186.097ZM138.868 184.592L138.88 184.736C138.907 185.068 138.859 185.402 138.74 185.714C140.488 185.654 142.191 185.14 143.681 184.224C143.796 184.153 143.89 184.053 143.952 183.933C144.015 183.813 144.044 183.679 144.037 183.544C143.992 182.705 143.731 181.893 143.28 181.185C142.828 180.477 142.202 179.898 141.461 179.503C140.72 179.109 139.89 178.912 139.05 178.932C138.211 178.953 137.391 179.19 136.671 179.62C137.921 180.995 138.692 182.739 138.866 184.59L138.868 184.592Z" fill="url(#paint5_linear_2089_49)"/>
</g>
</g>
<defs>
<filter id="filter0_f_2089_49" x="-146.431" y="4.36013" width="306.677" height="306.677" filterUnits="userSpaceOnUse" color-interpolation-filters="sRGB">
<feFlood flood-opacity="0" result="BackgroundImageFix"/>
<feBlend mode="normal" in="SourceGraphic" in2="BackgroundImageFix" result="shape"/>
<feGaussianBlur stdDeviation="38.8199" result="effect1_foregroundBlur_2089_49"/>
</filter>
<filter id="filter1_f_2089_49" x="106.141" y="-101.903" width="306.677" height="306.677" filterUnits="userSpaceOnUse" color-interpolation-filters="sRGB">
<feFlood flood-opacity="0" result="BackgroundImageFix"/>
<feBlend mode="normal" in="SourceGraphic" in2="BackgroundImageFix" result="shape"/>
<feGaussianBlur stdDeviation="38.8199" result="effect1_foregroundBlur_2089_49"/>
</filter>
<filter id="filter2_f_2089_49" x="153.209" y="129.5" width="134" height="25" filterUnits="userSpaceOnUse" color-interpolation-filters="sRGB">
<feFlood flood-opacity="0" result="BackgroundImageFix"/>
<feBlend mode="normal" in="SourceGraphic" in2="BackgroundImageFix" result="shape"/>
<feGaussianBlur stdDeviation="2" result="effect1_foregroundBlur_2089_49"/>
</filter>
<filter id="filter3_b_2089_49" x="82.0215" y="113.633" width="222.363" height="114.652" filterUnits="userSpaceOnUse" color-interpolation-filters="sRGB">
<feFlood flood-opacity="0" result="BackgroundImageFix"/>
<feGaussianBlur in="BackgroundImageFix" stdDeviation="5"/>
<feComposite in2="SourceAlpha" operator="in" result="effect1_backgroundBlur_2089_49"/>
<feBlend mode="normal" in="SourceGraphic" in2="effect1_backgroundBlur_2089_49" result="shape"/>
</filter>
<filter id="filter4_bi_2089_49" x="3.27198" y="47.3738" width="261.68" height="261.68" filterUnits="userSpaceOnUse" color-interpolation-filters="sRGB">
<feFlood flood-opacity="0" result="BackgroundImageFix"/>
<feGaussianBlur in="BackgroundImageFix" stdDeviation="53.5998"/>
<feComposite in2="SourceAlpha" operator="in" result="effect1_backgroundBlur_2089_49"/>
<feBlend mode="normal" in="SourceGraphic" in2="effect1_backgroundBlur_2089_49" result="shape"/>
<feColorMatrix in="SourceAlpha" type="matrix" values="0 0 0 0 0 0 0 0 0 0 0 0 0 0 0 0 0 0 127 0" result="hardAlpha"/>
<feOffset dx="53.5998" dy="-53.5998"/>
<feGaussianBlur stdDeviation="26.7999"/>
<feComposite in2="hardAlpha" operator="arithmetic" k2="-1" k3="1"/>
<feColorMatrix type="matrix" values="0 0 0 0 0.256614 0 0 0 0 0.157371 0 0 0 0 0.506977 0 0 0 0.1 0"/>
<feBlend mode="normal" in2="shape" result="effect2_innerShadow_2089_49"/>
</filter>
<filter id="filter5_i_2089_49" x="74.5527" y="164.906" width="71.5001" height="71.4998" filterUnits="userSpaceOnUse" color-interpolation-filters="sRGB">
<feFlood flood-opacity="0" result="BackgroundImageFix"/>
<feBlend mode="normal" in="SourceGraphic" in2="BackgroundImageFix" result="shape"/>
<feColorMatrix in="SourceAlpha" type="matrix" values="0 0 0 0 0 0 0 0 0 0 0 0 0 0 0 0 0 0 127 0" result="hardAlpha"/>
<feOffset dx="-45.3126" dy="45.3126"/>
<feGaussianBlur stdDeviation="22.6563"/>
<feComposite in2="hardAlpha" operator="arithmetic" k2="-1" k3="1"/>
<feColorMatrix type="matrix" values="0 0 0 0 0.4603 0 0 0 0 0.266667 0 0 0 0 1 0 0 0 0.1 0"/>
<feBlend mode="normal" in2="shape" result="effect1_innerShadow_2089_49"/>
</filter>
<linearGradient id="paint0_linear_2089_49" x1="27.2484" y1="71" x2="27.2484" y2="93" gradientUnits="userSpaceOnUse">
<stop stop-color="#CEC1F1"/>
<stop offset="1" stop-color="#402F6F"/>
</linearGradient>
<linearGradient id="paint1_linear_2089_49" x1="26.2096" y1="102.834" x2="26.2096" y2="121.167" gradientUnits="userSpaceOnUse">
<stop stop-color="#CEC1F1"/>
<stop offset="1" stop-color="#402F6F"/>
</linearGradient>
<linearGradient id="paint2_linear_2089_49" x1="27.209" y1="131" x2="27.209" y2="153" gradientUnits="userSpaceOnUse">
<stop stop-color="#CEC1F1"/>
<stop offset="1" stop-color="#402F6F"/>
</linearGradient>
<linearGradient id="paint3_linear_2089_49" x1="90.5156" y1="148.606" x2="222.838" y2="289.433" gradientUnits="userSpaceOnUse">
<stop stop-color="#15192E"/>
<stop offset="0.469102" stop-color="#443B7A" stop-opacity="0.3"/>
<stop offset="1" stop-color="#A492D6" stop-opacity="0.5"/>
</linearGradient>
<linearGradient id="paint4_linear_2089_49" x1="148.389" y1="171.56" x2="111.762" y2="171.56" gradientUnits="userSpaceOnUse">
<stop stop-color="#0A0B20"/>
<stop offset="0.228601" stop-color="#30127C"/>
<stop offset="0.75" stop-color="#8559F4"/>
</linearGradient>
<linearGradient id="paint5_linear_2089_49" x1="132.026" y1="168.295" x2="133.893" y2="187.705" gradientUnits="userSpaceOnUse">
<stop stop-color="#CEC1F1"/>
<stop offset="1" stop-color="#776F8B"/>
</linearGradient>
<clipPath id="clip0_2089_49">
<rect x="0.208984" width="295" height="167" rx="15.528" fill="white"/>
</clipPath>
<clipPath id="clip1_2089_49">
<rect width="22" height="22" fill="white" transform="translate(16.209 131)"/>
</clipPath>
<clipPath id="clip2_2089_49">
<rect width="214.821" height="83.7245" fill="white" transform="translate(90.5156 144.353) rotate(-6.4417)"/>
</clipPath>
</defs>
</svg>
