<svg width="140" height="27" viewBox="0 0 140 27" fill="none" xmlns="http://www.w3.org/2000/svg">
<mask id="mask0_134_430" style="mask-type:luminance" maskUnits="userSpaceOnUse" x="0" y="0" width="140" height="27">
<path d="M139.372 0.892822H0.102051V26.2419H139.372V0.892822Z" fill="white"/>
</mask>
<g mask="url(#mask0_134_430)">
<path d="M2.98948 20.929C2.47637 20.9302 1.97215 20.7951 1.52835 20.5375C1.08455 20.28 0.717064 19.9093 0.463429 19.4632C0.213682 19.0203 0.0891316 18.5178 0.10311 18.0095C0.117088 17.5012 0.269075 17.0063 0.542782 16.5778L5.74476 8.40883C6.011 7.96979 6.38901 7.60929 6.84016 7.36416C7.29131 7.11901 7.79945 6.99803 8.31268 7.01353C8.8255 7.02582 9.32586 7.17414 9.76254 7.44332C10.1992 7.7125 10.5565 8.09287 10.798 8.5455C11.2828 9.46247 11.2223 10.5657 10.6414 11.4264L5.44277 19.5955C5.17915 20.0062 4.81608 20.3438 4.38722 20.5771C3.95836 20.8102 3.47759 20.9312 2.98948 20.929Z" fill="#CEC1F1" fill-opacity="0.7"/>
<path d="M11.912 20.9285C10.8627 20.9285 9.89729 20.3675 9.39032 19.4659C9.14113 19.0242 9.01687 18.523 9.03085 18.016C9.04482 17.5092 9.19652 17.0155 9.46966 16.5883L14.6617 8.43798C14.9241 7.99277 15.3007 7.62585 15.7526 7.37527C16.2046 7.1247 16.7153 6.9996 17.2318 7.01293C18.2899 7.03607 19.2487 7.62791 19.7336 8.55371C20.2152 9.47949 20.1448 10.5894 19.5463 11.4479L14.3554 19.5982C14.0925 20.0073 13.7309 20.3435 13.3039 20.576C12.8769 20.8085 12.3981 20.9297 11.912 20.9285Z" fill="#CEC1F1" fill-opacity="0.7"/>
<path d="M20.6337 20.9976C22.1128 20.9976 23.3118 19.8237 23.3118 18.3756C23.3118 16.9276 22.1128 15.7537 20.6337 15.7537C19.1546 15.7537 17.9556 16.9276 17.9556 18.3756C17.9556 19.8237 19.1546 20.9976 20.6337 20.9976Z" fill="#CEC1F1" fill-opacity="0.7"/>
<path d="M136.98 15.9047C137.789 15.9047 138.272 16.48 138.272 17.4224V20.6516H139.372V17.3485C139.372 15.746 138.616 14.817 137.197 14.817C136.642 14.817 135.76 14.969 135.234 15.9908C135.112 15.6893 134.911 15.4268 134.651 15.2308C134.391 15.0348 134.084 14.9127 133.76 14.8775C133.557 14.8403 133.35 14.8281 133.144 14.8412C132.692 14.8775 131.887 15.1585 131.586 15.7956V14.9393H130.486V20.6516H131.586V17.5689C131.586 16.3699 132.371 15.9047 133.156 15.9047C133.893 15.9047 134.377 16.468 134.377 17.4102V20.6516H135.47V17.5689C135.47 16.6145 136.043 15.8937 136.98 15.9047ZM126.45 19.6971C126.952 19.7082 127.437 19.5076 127.788 19.1439C128.141 18.7802 128.329 18.2853 128.31 17.7773C128.31 16.6266 127.463 15.9047 126.45 15.9047C125.434 15.9047 124.589 16.6266 124.589 17.7773C124.569 18.2843 124.757 18.778 125.107 19.1406C125.457 19.5043 125.94 19.706 126.44 19.6971H126.45ZM126.45 20.7684C124.843 20.7684 123.501 19.5814 123.501 17.7707C123.501 15.9598 124.843 14.8104 126.45 14.8104C128.056 14.8104 129.408 15.9598 129.408 17.7707C129.408 19.5814 128.048 20.774 126.441 20.774L126.45 20.7684ZM117.841 17.7707L117.831 17.7773C117.831 15.9664 119.207 14.817 120.825 14.8104C121.232 14.8025 121.636 14.8801 122.01 15.038C122.384 15.196 122.721 15.4307 123 15.7273L122.167 16.437C121.99 16.2633 121.78 16.1263 121.55 16.0339C121.319 15.9417 121.073 15.8959 120.825 15.8993C119.811 15.8993 118.929 16.6211 118.929 17.7707C118.929 18.5476 119.392 19.2475 120.1 19.545C120.809 19.8426 121.624 19.6773 122.167 19.1285L123.012 19.8382C122.733 20.1379 122.394 20.3755 122.017 20.5357C121.641 20.6959 121.234 20.7752 120.825 20.7684C119.22 20.7684 117.841 19.5814 117.841 17.7707ZM114.323 19.555C114.322 19.4551 114.341 19.356 114.377 19.2633C114.414 19.1705 114.47 19.0861 114.54 19.0147C114.609 18.9432 114.692 18.8863 114.784 18.847C114.876 18.8077 114.975 18.7868 115.074 18.7857C115.174 18.7868 115.272 18.8077 115.365 18.847C115.457 18.8863 115.54 18.9432 115.61 19.0147C115.679 19.0861 115.735 19.1705 115.771 19.2633C115.809 19.356 115.827 19.4551 115.826 19.555C115.816 19.7484 115.733 19.9307 115.593 20.0649C115.454 20.1991 115.268 20.2748 115.074 20.2769C114.88 20.2748 114.695 20.1991 114.555 20.0649C114.416 19.9307 114.332 19.7484 114.323 19.555Z" fill="#CEC1F1" fill-opacity="0.7"/>
<path fill-rule="evenodd" clip-rule="evenodd" d="M117.329 7.67754H113.416L110.673 14.75L107.943 7.67754H104.03L108.788 18.8532L105.828 26.2419H109.714L117.329 7.67754ZM93.5281 13.8935C93.5281 15.679 95.0887 16.8539 96.6218 16.8539C98.1283 16.8539 99.6085 15.7606 99.6085 13.8925C99.6085 12.0243 98.1283 10.93 96.6218 10.93C95.0887 10.93 93.5281 12.1059 93.5281 13.8925V13.8935ZM99.6085 20.1339V18.7198C98.815 19.9211 96.9635 20.3752 96.0134 20.3752C92.8679 20.3752 89.7215 17.8954 89.7215 13.8925C89.7215 9.89062 92.8669 7.41083 96.0134 7.41083C96.8058 7.41083 98.6573 7.67533 99.6085 9.06402V7.68195H103.256V20.1361L99.6085 20.1339ZM88.6832 20.1339H85.0352V18.5864C84.4258 19.7326 82.9479 20.4005 81.4137 20.4005C78.2408 20.4005 75.4381 17.8668 75.4381 13.9431C75.4381 9.94572 78.2408 7.40862 81.4137 7.40862C82.9457 7.40862 84.428 8.04786 85.0352 9.19517V0.892822H88.6832V20.1339ZM84.9559 13.8649C84.9559 11.9979 83.608 10.9035 82.1014 10.9035C80.5409 10.9035 79.2448 12.0773 79.2448 13.8649C79.2448 15.7098 80.5409 16.8782 82.1004 16.8782C83.6355 16.8804 84.9559 15.6526 84.9559 13.8649ZM66.4184 13.5431C66.4184 11.6496 67.3971 11.0093 68.6921 11.0093C69.9341 11.0093 70.8335 11.8359 70.8335 13.4891V20.1317H74.5079V12.69C74.5079 9.14337 72.7621 7.40862 69.986 7.40862C68.5322 7.40862 67.0786 8.23522 66.4173 9.48944V7.67754H62.745V20.1317H66.4184V13.5431ZM55.2837 20.3455C51.7944 20.3455 48.8838 17.7852 48.8838 13.8638C48.8838 9.94022 51.7912 7.40532 55.2837 7.40532C58.7763 7.40532 61.7091 9.94022 61.7091 13.8638C61.7091 17.7874 58.7731 20.3465 55.2837 20.3465V20.3455ZM55.2837 16.7194C56.8157 16.7194 58.0864 15.5975 58.0864 13.8649C58.0864 12.1842 56.8167 11.0368 55.2837 11.0368C54.9146 11.031 54.5482 11.1005 54.2067 11.2409C53.8653 11.3813 53.556 11.5898 53.2978 11.8535C53.0379 12.1187 52.8341 12.4334 52.6983 12.779C52.5626 13.1245 52.4977 13.4938 52.5075 13.8649C52.5086 15.5997 53.7772 16.7194 55.2837 16.7194ZM42.2965 11.0104C43.3798 11.0104 44.332 11.8645 44.332 13.4902V20.1339H47.98V13.0604C47.98 9.29988 46.1517 7.40642 43.2211 7.40642C42.3504 7.40642 40.7106 7.67093 39.5202 9.61949C38.8325 8.17901 37.5111 7.43177 35.5581 7.43177C34.8801 7.42832 34.2155 7.62022 33.6435 7.98454C33.0716 8.34886 32.6169 8.87016 32.3333 9.48614V7.67864H28.6567V20.1327H32.3301V13.5431C32.3301 11.6496 33.3617 11.0093 34.4715 11.0093C35.5295 11.0093 36.4795 11.8359 36.5071 13.4097V20.1327H40.1815V13.5431C40.1815 11.7323 41.1337 11.0115 42.2965 11.0115V11.0104Z" fill="#CEC1F1" fill-opacity="0.7"/>
</g>
</svg>
