<svg width="38" height="38" viewBox="0 0 38 38" fill="none" xmlns="http://www.w3.org/2000/svg">
<path d="M37.9028 35.2761L36.5224 29.0863C36.4481 28.7597 36.1958 28.5222 35.8989 28.5222H34.9118C34.7931 28.5222 34.6817 28.4777 34.6001 28.3886L31.2899 24.9003L31.6981 28.0398C31.7352 28.2847 31.5274 28.5296 31.2677 28.5222H24.6993C24.4024 28.5222 24.1501 28.7523 24.0759 29.0863L22.7102 35.2761C22.6509 35.5285 22.7102 35.7882 22.8587 35.9738C22.9255 36.0628 23.0813 36.2113 23.3263 36.2113H37.2868C37.7321 36.2113 38.0067 35.6992 37.9028 35.2761ZM30.7036 35.3949H28.8036C28.5661 35.3949 28.3731 35.2019 28.3731 34.9644V30.1476C28.3731 29.9101 28.5661 29.7171 28.8036 29.7171H30.7036C31.6388 29.7097 32.3216 30.5409 32.2325 31.4538C32.2325 31.8917 32.0544 32.2777 31.7649 32.5597C32.7446 33.4949 32.1583 35.4097 30.7036 35.3949ZM22.7845 30.9417C22.354 31.0679 21.9235 31.1644 21.4856 31.246C22.7993 29.9027 23.8384 27.3867 24.3727 24.2101C27.5493 23.6683 30.0727 22.6292 31.4087 21.323C31.2899 21.9835 31.1192 22.6367 30.8966 23.2749C30.5997 23.1191 30.2138 23.3714 30.2657 23.7128L30.3696 24.5218C29.813 25.6796 29.0708 26.7409 28.1727 27.6761H24.7067C24.0091 27.6761 23.4079 28.1882 23.2446 28.9156L22.7845 30.9417ZM23.4821 24.3437C21.7009 33.762 16.8618 33.7546 15.0806 24.3437C17.6708 24.7074 20.8919 24.7074 23.4821 24.3437ZM14.1825 24.2101C14.7243 27.3867 15.7634 29.9101 17.077 31.2535C12.0376 30.3406 8.05204 26.355 7.13915 21.3156C8.47508 22.6292 10.9985 23.6683 14.1825 24.2101ZM14.0489 14.9105C13.8708 16.2242 13.7743 17.6343 13.7743 19.1113C13.7743 20.5882 13.8708 21.9984 14.0489 23.312C4.63055 21.5234 4.63797 16.6992 14.0489 14.9105ZM24.5138 23.312C24.8774 20.7144 24.8774 17.5081 24.5138 14.9105C28.8852 15.7195 31.572 17.3894 31.6165 19.1113C31.5571 20.8777 28.8704 22.4956 24.5138 23.312ZM24.3802 14.0124C23.8384 10.8359 22.8067 8.31985 21.4931 6.97649C26.5325 7.88938 30.5106 11.8675 31.4235 16.907C30.0727 15.5859 27.5567 14.5542 24.3802 14.0124ZM23.6231 14.762C23.8161 16.0831 23.9274 17.5378 23.9274 19.1038C23.9274 20.6699 23.8161 22.1245 23.6231 23.4531C21.0329 23.8538 17.5223 23.8464 14.9321 23.4531C14.5313 20.8628 14.5313 17.3523 14.9321 14.762C17.5223 14.3687 21.0329 14.3687 23.6231 14.762ZM15.0806 13.8788C16.8841 4.4679 21.6712 4.43821 23.4821 13.8788C20.8919 13.5152 17.6708 13.5152 15.0806 13.8788ZM14.7466 10.6503L15.4813 7.36985C16.0009 7.19915 16.5278 7.07298 17.0696 6.97649C15.7559 8.31985 14.7243 10.8359 14.1825 14.005C10.9985 14.5468 8.47508 15.5859 7.13172 16.907C7.16883 16.714 7.20594 16.521 7.25047 16.3355C7.51766 16.3503 7.76258 16.1277 7.71805 15.8456C7.68094 15.5859 7.65126 15.3187 7.62157 15.0515C8.0075 13.9308 8.55672 12.862 9.26922 11.8824H13.2845C13.9895 11.8898 14.5833 11.3777 14.7466 10.6503ZM2.09227 11.0288H3.07938C3.19813 11.0288 3.30946 11.0734 3.3911 11.1624L6.69383 14.6507C6.56024 13.6191 6.41922 12.5577 6.28563 11.5113C6.24852 11.2589 6.45633 11.0214 6.7161 11.0214H13.2845C13.5739 11.0214 13.8263 10.7913 13.9005 10.4574C13.9005 10.4499 15.2809 4.26751 15.2809 4.26009C15.3403 4.01517 15.2809 3.7554 15.1325 3.56985C15.0657 3.48079 14.9098 3.32493 14.6649 3.32493H0.711802C0.192271 3.36946 0.0141459 3.82962 0.0883646 4.26009L1.47626 10.4574C1.55047 10.7913 1.80282 11.0288 2.09227 11.0288ZM5.27626 9.49993L7.06493 4.68313C7.1911 4.31946 7.74774 4.31204 7.87391 4.68313L9.66258 9.49993C9.74422 9.72259 9.6329 9.97493 9.41024 10.0566C9.18758 10.1382 8.94266 10.0269 8.8536 9.80423L8.06688 7.67415H6.87938L6.08524 9.80423C5.87743 10.3238 5.07586 10.0343 5.27626 9.49993ZM31.3716 33.6507C31.4235 34.0886 31.1786 34.5265 30.7036 34.5265H29.2341V32.9827H30.7036C31.0747 32.9827 31.3716 33.2796 31.3716 33.6507ZM31.3716 31.246C31.4235 31.6839 31.1786 32.1218 30.7036 32.1218H29.2341V30.5706H30.7036C31.0747 30.5706 31.3716 30.8749 31.3716 31.246ZM7.74774 6.81321H7.19852L7.47313 6.07845L7.74774 6.81321ZM22.5915 3.03548C22.354 2.8722 22.354 2.49368 22.5915 2.3304L24.87 0.705009C25.3302 0.378446 25.8274 1.0761 25.3747 1.41009L24.2911 2.18938H36.6263C36.8638 2.18938 37.0567 2.38235 37.0567 2.61985V22.3695C37.0567 22.607 36.8638 22.7999 36.6263 22.7999C36.3888 22.7999 36.1958 22.607 36.1958 22.3695V3.0429H24.0981L25.3747 3.95579C25.8348 4.28977 25.3302 4.98001 24.87 4.66087L22.5915 3.03548ZM15.5036 34.9644C15.7411 35.1277 15.7411 35.5062 15.5036 35.6695L13.2251 37.2949C12.7649 37.6214 12.2677 36.9238 12.7204 36.5898L13.804 35.8105H1.47626C1.23876 35.8105 1.04579 35.6175 1.04579 35.38V15.6378C1.04579 15.4003 1.23876 15.2074 1.47626 15.2074C1.71376 15.2074 1.90672 15.4003 1.90672 15.6378V34.957H13.997L12.7204 34.0441C12.2602 33.7101 12.7649 33.0199 13.2251 33.339L15.5036 34.9644Z" fill="#7544FF"/>
</svg>
