<svg width="167" height="23" viewBox="0 0 167 23" fill="none" xmlns="http://www.w3.org/2000/svg">
<path d="M13.2142 2.81083C13.2142 1.00201 11.504 0.549805 10.1538 0.549805V0.821128C10.9639 0.821128 11.594 1.09245 11.594 1.72554C11.594 2.08731 11.324 2.62995 10.5138 2.62995C9.88371 2.62995 8.53353 2.26819 7.54342 1.90642C6.37326 1.45421 5.29311 1.09245 4.39299 1.09245C2.59273 1.09245 1.33255 2.44907 1.33255 3.98657C1.33255 5.34319 2.3227 5.79539 2.68274 5.97628L2.77276 5.79539C2.59273 5.61451 2.3227 5.43363 2.3227 4.89098C2.3227 4.52922 2.68274 3.89613 3.58287 3.89613C4.39299 3.89613 5.47313 4.25789 6.91334 4.7101C8.17351 5.07187 9.52371 5.34319 10.2438 5.43363V8.23732L8.89362 9.41303V9.50354L10.2438 10.6792V14.5682C9.52371 15.0204 8.71362 15.1108 7.99348 15.1108C6.6433 15.1108 5.47313 14.7491 4.483 13.6638L8.17351 11.855V5.61451L3.67289 7.60422C4.03293 6.42848 5.02307 5.61451 6.01321 5.07187L5.92319 4.80054C3.22282 5.52407 0.79248 8.05644 0.79248 11.1314C0.79248 14.7491 3.7629 17.4623 7.09336 17.4623C10.6939 17.4623 13.0342 14.5682 13.0342 11.5837H12.8542C12.3141 12.7594 11.504 13.8447 10.5138 14.3873V10.6792L11.9541 9.50354V9.41303L10.5138 8.23732V5.43363C11.8641 5.43363 13.2142 4.52922 13.2142 2.81083ZM5.38312 12.7594L4.30297 13.302C3.67289 12.4881 3.31283 11.4027 3.31283 9.86526C3.31283 9.23217 3.31283 8.50865 3.49286 7.966L5.38312 7.15201V12.7594ZM14.9244 14.8396L13.7543 15.7439L13.9343 15.9248L14.4744 15.4726L16.4547 17.2814L19.1551 15.4726L19.0651 15.2917L18.345 15.7439L17.4448 14.8396V8.68951L18.1649 8.14688L19.6952 9.41303V14.93C19.6952 18.3667 18.9751 18.9094 17.4448 19.452V19.7233C19.9652 19.8138 22.3055 18.9998 22.3055 14.5682V8.59908L23.1156 7.966L22.9356 7.78511L22.2155 8.32779L19.9652 6.42848L17.4448 8.32779V0.911569H17.2648L14.1143 3.08216V3.26304C14.4744 3.44392 15.0144 3.62481 15.0144 4.61966L14.9244 14.8396ZM31.3968 13.8447L29.1464 15.5631L26.8961 13.7542V12.6689L31.1267 9.77483V9.6844L28.9664 6.42848L24.2858 8.96088V14.93L23.3856 15.6535L23.5657 15.8344L24.3758 15.2013L27.4362 17.4623L31.4868 14.2065L31.3968 13.8447ZM26.8961 12.3072V7.87556L27.0762 7.78511L29.0564 10.9506L26.8961 12.3072ZM48.5891 1.99687C48.5891 1.72554 48.4991 1.45421 48.4091 1.18289H48.2291C47.959 1.90642 47.599 2.26819 46.6989 2.26819C45.8888 2.26819 45.3487 1.81598 44.9887 1.45421L42.3783 4.43878L42.5583 4.61966L43.4584 3.80568C43.9985 4.25789 44.4486 4.61966 45.7088 4.7101V12.2168L40.398 3.08216C39.948 2.35863 39.3179 1.36378 38.0577 1.36378C36.6175 1.36378 35.3573 2.62995 35.5373 4.61966H35.8074C35.8974 4.07701 36.1674 3.44392 36.7975 3.44392C37.2476 3.44392 37.6976 3.89613 37.9677 4.34834V7.3329C36.3474 7.3329 35.2673 8.05644 35.2673 9.41303C35.2673 10.1365 35.6273 11.2219 36.7075 11.4932V11.3123C36.5275 11.1314 36.4375 10.9506 36.4375 10.6792C36.4375 10.2271 36.7975 9.86526 37.4276 9.86526H37.8777V13.6638C35.9874 13.6638 34.4571 14.7491 34.4571 16.5579C34.4571 18.2763 35.8974 19.0902 37.5176 18.9998V18.819C36.5275 18.7285 36.0774 18.2763 36.0774 17.6432C36.0774 16.8293 36.6175 16.4675 37.3376 16.4675C38.0577 16.4675 38.6878 16.9197 39.1379 17.4623L41.7482 14.5682L41.5681 14.3873L40.9381 15.1108C39.948 14.2065 39.4079 13.9351 38.2377 13.7542V4.7101L45.4387 17.3719H45.9788V4.7101C47.329 4.61966 48.5891 3.53436 48.5891 1.99687ZM55.16 13.8447L52.9098 15.5631L50.6595 13.7542V12.6689L54.89 9.77483V9.6844L52.7298 6.42848L48.049 8.96088V14.93L47.149 15.6535L47.329 15.8344L48.1391 15.2013L51.1995 17.4623L55.2501 14.2065L55.16 13.8447ZM50.6595 12.3072V7.87556L50.8395 7.78511L52.8198 10.9506L50.6595 12.3072ZM69.8321 7.42334L69.202 7.87556L67.4918 6.42848L65.5115 8.23732L66.3217 9.05131V15.8344L64.1613 14.4778V8.87045L64.8815 8.41822L62.8111 6.42848L60.8309 8.23732L61.641 9.05131V15.5631L61.3709 15.7439L59.4807 14.3873V8.96088C59.4807 7.69466 58.8506 7.3329 58.1305 6.88069C57.5004 6.42848 57.1404 6.15716 57.1404 5.52407C57.1404 4.98142 57.6804 4.7101 57.9505 4.52922V4.34834C57.2304 4.34834 55.3401 5.07187 55.3401 6.79024C55.3401 7.69466 55.7901 8.05644 56.2402 8.50865C56.6903 8.96088 57.1404 9.3226 57.1404 10.1365V15.3822L56.1502 16.1057L56.3302 16.2866L57.2304 15.5631L59.3007 17.3719L61.5509 15.8344L64.0713 17.3719L68.842 14.5682V8.50865L70.0121 7.60422L69.8321 7.42334ZM86.5744 2.44907L85.6744 3.26304L83.6942 1.45421L80.7239 3.62481V1.6351H80.4537L80.5437 16.2866C80.2735 16.2866 79.4636 16.1057 78.8334 15.9248L78.6534 3.71525C78.6534 2.81083 78.0233 1.54466 76.403 1.54466C74.7828 1.54466 73.7027 2.81083 73.7027 4.07701H73.9727C74.0628 3.53436 74.3328 3.08216 74.8728 3.08216C75.4129 3.08216 75.863 3.44392 75.863 4.61966V8.14688C74.2428 8.23733 73.2526 9.14174 73.2526 10.3175C73.2526 11.041 73.6127 12.1263 74.6928 12.1263V11.9454C74.3328 11.7645 74.2428 11.4932 74.2428 11.3123C74.2428 10.7696 74.6928 10.5888 75.4129 10.5888H75.7729V16.1962C74.4228 16.6483 73.8827 17.6432 73.8827 18.7285C73.8827 20.266 75.0528 21.3513 76.8531 21.3513C78.1133 21.3513 79.1935 21.1704 80.2735 20.8991C81.1735 20.7182 82.3438 20.4469 82.8842 20.4469C83.6041 20.4469 83.8743 20.8087 83.8743 21.2609C83.8743 21.894 83.6041 22.1653 83.2438 22.2557V22.4366C84.6843 22.1653 85.5843 21.2609 85.5843 19.9042C85.5843 18.5476 84.2339 17.7336 82.7942 17.7336C82.0735 17.7336 80.5437 18.005 79.4636 18.1859C78.2033 18.4572 76.9431 18.6381 76.5831 18.6381C75.953 18.6381 75.2329 18.3667 75.2329 17.4623C75.2329 16.7388 75.863 16.1057 77.3932 16.1057C78.2033 16.1057 79.1935 16.1962 80.1834 16.4675C81.2636 16.7388 82.2537 17.0101 83.1537 17.0101C84.5041 17.0101 85.6744 16.5579 85.6744 14.6586V3.53436L86.7545 2.62995L86.5744 2.44907ZM82.8842 7.966C82.614 8.23732 82.2537 8.50865 81.8041 8.50865C81.3537 8.50865 80.9041 8.23732 80.7239 7.966V3.98657L81.6239 3.35348L82.8842 4.52922V7.966ZM82.8842 10.6792C82.7041 10.4984 82.2537 10.2271 81.8041 10.2271C81.3537 10.2271 80.9041 10.4984 80.7239 10.6792V8.32779C80.9041 8.50865 81.3537 8.77994 81.8041 8.77994C82.2537 8.77994 82.7041 8.50865 82.8842 8.32779V10.6792ZM82.8842 14.93C82.8842 15.6535 82.4338 16.377 81.4437 16.377H80.7239V11.041C80.9041 10.8602 81.3537 10.5888 81.8041 10.5888C82.2537 10.5888 82.614 10.8602 82.8842 11.041V14.93ZM95.2158 8.50865L92.3356 6.42848L87.9248 8.96088V14.8396L87.0248 15.5631L87.1149 15.7439L87.8347 15.2013L90.7149 17.3719L95.2158 14.6586V8.50865ZM90.3546 14.2065V7.69466L92.605 9.3226V15.7439L90.3546 14.2065ZM103.767 6.60937H103.587C103.317 6.79025 103.047 6.97113 102.777 6.97113C102.417 6.97113 101.966 6.79025 101.787 6.51892H101.607L100.076 8.23732L98.5464 6.51892L95.8456 8.32779L95.9357 8.50865L96.6555 8.05644L97.5563 9.05131V14.7491L96.3861 15.6535L96.5662 15.8344L97.1059 15.3822L99.2663 17.191L102.056 15.2917L101.966 15.1108L101.156 15.5631L100.076 14.6586V8.32779C100.527 8.77994 101.066 9.23217 101.697 9.23217C102.956 9.3226 103.677 8.05644 103.767 6.60937ZM114.568 15.2917L111.508 17.3719L107.367 11.041L110.337 6.42848H110.518C110.878 6.79025 111.418 7.15201 112.048 7.15201C112.678 7.15201 113.128 6.79025 113.398 6.42848H113.578C113.488 8.23732 112.228 9.3226 111.328 9.3226C110.428 9.3226 109.978 8.87045 109.437 8.59908L109.167 9.05131L113.668 15.7439L114.568 15.2013V15.2917ZM104.667 14.8396L103.497 15.7439L103.677 15.9248L104.217 15.4726L106.197 17.2814L108.898 15.4726L108.718 15.2917L107.998 15.7439L107.097 14.8396V0.911569H107.008L103.767 3.08216V3.26304C104.127 3.44392 104.667 3.53436 104.667 4.61966V14.8396ZM129.51 2.81083C129.51 1.00201 127.8 0.549805 126.45 0.549805V0.821128C127.26 0.821128 127.891 1.09245 127.891 1.72554C127.891 2.08731 127.62 2.62995 126.81 2.62995C126.18 2.62995 124.83 2.26819 123.839 1.90642C122.67 1.54466 121.59 1.18289 120.689 1.18289C118.889 1.18289 117.628 2.53951 117.628 4.07701C117.628 5.43363 118.619 5.88583 118.979 6.06672L119.069 5.88583C118.799 5.70496 118.529 5.52407 118.529 4.98142C118.529 4.61966 118.889 3.98657 119.789 3.98657C120.6 3.98657 121.68 4.34834 123.119 4.80054C124.38 5.1623 125.73 5.43363 126.45 5.52407V8.32779L125.1 9.50354V9.59397L126.45 10.7696V14.6586C125.73 15.1108 124.919 15.2013 124.2 15.2013C122.849 15.2013 121.68 14.8396 120.689 13.7542L124.38 11.9454V5.61451L119.879 7.60422C120.329 6.42848 121.319 5.61451 122.219 4.98142L122.129 4.80054C119.429 5.52407 116.999 7.966 116.999 11.041C116.999 14.6586 119.969 17.3719 123.3 17.3719C126.9 17.3719 129.24 14.4778 129.24 11.4932H129.06C128.52 12.6689 127.71 13.7542 126.72 14.2969V10.5888L128.16 9.41303V9.3226L126.81 8.14688V5.43363C128.16 5.43363 129.51 4.52922 129.51 2.81083ZM121.68 12.7594L120.6 13.302C119.969 12.4881 119.609 11.4027 119.609 9.86526C119.609 9.23217 119.699 8.50865 119.879 7.966L121.769 7.15201L121.68 12.7594ZM132.661 1.90642H132.571L130.771 3.44392V3.53436L132.301 5.25275H132.481L134.281 3.71525V3.62481L132.661 1.90642ZM135.361 15.2917L134.641 15.7439L133.741 14.8396V8.59908L134.641 7.966L134.461 7.78511L133.831 8.32779L132.21 6.42848L129.601 8.23732L129.781 8.50865L130.41 8.05644L131.22 9.05131V14.93L130.051 15.8344L130.14 16.0153L130.771 15.5631L132.751 17.3719L135.451 15.5631L135.361 15.2917ZM150.393 15.2013L149.764 15.6535L148.773 14.7491V8.59908L149.673 7.87556L149.493 7.69466L148.773 8.32779L146.703 6.42848L144.002 8.32779L141.932 6.42848L139.412 8.32779L137.792 6.42848L135.182 8.23732L135.272 8.50865L135.901 8.05644L136.801 9.05131V14.93L136.082 15.6535L138.152 17.3719L140.132 15.5631L139.322 14.7491V8.59908L140.132 8.05644L141.482 9.3226V14.7491L140.762 15.4726L142.832 17.191L144.812 15.3822L144.002 14.5682V8.59908L144.723 8.14688L146.163 9.41303V14.8396L145.533 15.4726L147.603 17.3719L150.393 15.4726V15.2013ZM158.225 13.8447L155.974 15.5631L153.724 13.7542V12.6689L157.955 9.77483V9.6844L155.794 6.42848L151.113 8.96088V15.1108L154.264 17.3719L158.314 14.116L158.225 13.8447ZM153.724 12.3072V7.87556L153.904 7.78511L155.884 10.9506L153.724 12.3072ZM166.416 11.4932L164.705 10.1365C165.875 9.14174 166.326 7.78511 166.326 6.88069V6.33804H166.146C165.965 6.79025 165.606 7.24245 164.885 7.24245C164.165 7.24245 163.715 6.88069 163.265 6.33804L159.215 8.59908V11.855L160.745 13.0307C159.215 14.3873 158.945 15.2917 158.945 16.0153C158.945 16.9197 159.394 17.5528 160.115 17.8241L160.205 17.6432C160.025 17.4623 159.845 17.3719 159.845 16.9197C159.845 16.6483 160.205 16.1962 160.925 16.1962C161.825 16.1962 162.365 16.8293 162.635 17.1005L166.506 14.7491V11.4932H166.416ZM165.426 8.77994C164.795 9.86526 163.446 10.9506 162.635 11.4932L161.645 10.6792V7.51377C162.005 8.41822 162.995 9.14174 163.985 9.14174C164.615 9.14174 164.975 9.05131 165.426 8.77994ZM163.895 16.0153C163.446 15.0204 162.365 14.2969 161.285 14.2969C161.015 14.2969 160.295 14.2969 159.574 14.7491C160.025 14.0255 161.195 12.7593 162.725 11.855L163.805 12.7594L163.895 16.0153Z" fill="#CEC1F1" fill-opacity="0.7"/>
</svg>
