<svg width="32" height="32" viewBox="0 0 32 32" fill="none" xmlns="http://www.w3.org/2000/svg">
<path d="M28.5005 6.5C29.0939 6.5 29.6739 6.32406 30.1672 5.99441C30.6606 5.66477 31.0451 5.19623 31.2722 4.64805C31.4992 4.09987 31.5586 3.49667 31.4429 2.91473C31.3271 2.33279 31.0414 1.79824 30.6218 1.37868C30.2023 0.959123 29.6677 0.673401 29.0858 0.557646C28.5038 0.44189 27.9006 0.5013 27.3525 0.728363C26.8043 0.955426 26.3357 1.33994 26.0061 1.83329C25.6765 2.32664 25.5005 2.90666 25.5005 3.5C25.5005 4.1375 25.7056 4.75808 26.0855 5.27L20.0855 11.635C19.1074 10.7078 17.8434 10.1401 16.5005 10.025V6.93C16.9718 6.80831 17.3826 6.51889 17.6558 6.116C17.929 5.71311 18.0459 5.22441 17.9846 4.7415C17.9232 4.25859 17.6879 3.81464 17.3226 3.49284C16.9574 3.17105 16.4873 2.99351 16.0005 2.99351C15.5137 2.99351 15.0437 3.17105 14.6784 3.49284C14.3131 3.81464 14.0778 4.25859 14.0165 4.7415C13.9551 5.22441 14.072 5.71311 14.3452 6.116C14.6184 6.51889 15.0292 6.80831 15.5005 6.93V10.025C14.1389 10.1378 12.8573 10.715 11.8705 11.66L7.42551 7.22C8.11718 6.474 8.49861 5.49249 8.4922 4.4752C8.48578 3.45791 8.092 2.48128 7.39098 1.74406C6.68996 1.00684 5.73439 0.564422 4.71871 0.506834C3.70303 0.449246 2.70357 0.780817 1.92371 1.43407C1.14386 2.08733 0.642207 3.01318 0.520844 4.02323C0.399481 5.03327 0.667527 6.05161 1.27043 6.87102C1.87334 7.69042 2.76581 8.24932 3.76622 8.43397C4.76663 8.61863 5.79981 8.41517 6.65551 7.865L11.2055 12.41C10.5268 13.3071 10.1175 14.3789 10.0255 15.5H6.93051C6.80882 15.0287 6.5194 14.6179 6.11651 14.3447C5.71362 14.0715 5.22492 13.9546 4.74201 14.0159C4.25911 14.0773 3.81515 14.3126 3.49335 14.6779C3.17156 15.0431 2.99402 15.5132 2.99402 16C2.99402 16.4868 3.17156 16.9569 3.49335 17.3221C3.81515 17.6874 4.25911 17.9227 4.74201 17.9841C5.22492 18.0454 5.71362 17.9285 6.11651 17.6553C6.5194 17.3821 6.80882 16.9713 6.93051 16.5H10.0255C10.1191 17.6333 10.5356 18.716 11.2255 19.62L5.22551 26.03C4.60005 25.5933 3.83329 25.4078 3.07738 25.5102C2.32147 25.6125 1.63167 25.9953 1.14486 26.5826C0.658055 27.1699 0.409818 27.9187 0.449414 28.6805C0.48901 29.4422 0.813545 30.1613 1.35862 30.6949C1.90369 31.2286 2.62946 31.5378 3.39191 31.5612C4.15435 31.5847 4.89775 31.3206 5.47457 30.8215C6.05139 30.3223 6.41948 29.6245 6.50579 28.8666C6.5921 28.1087 6.39033 27.3461 5.94051 26.73L11.9405 20.365C12.9086 21.2962 14.1633 21.8725 15.5005 22V25.095C15.0292 25.2167 14.6184 25.5061 14.3452 25.909C14.072 26.3119 13.9551 26.8006 14.0165 27.2835C14.0778 27.7664 14.3131 28.2104 14.6784 28.5322C15.0437 28.854 15.5137 29.0315 16.0005 29.0315C16.4873 29.0315 16.9574 28.854 17.3226 28.5322C17.6879 28.2104 17.9232 27.7664 17.9846 27.2835C18.0459 26.8006 17.929 26.3119 17.6558 25.909C17.3826 25.5061 16.9718 25.2167 16.5005 25.095V22C17.7428 21.8978 18.9216 21.4081 19.8705 20.6L24.3455 25.1C23.8075 25.7853 23.5105 26.6288 23.5005 27.5C23.5005 28.2911 23.7351 29.0645 24.1746 29.7223C24.6142 30.3801 25.2389 30.8928 25.9698 31.1955C26.7007 31.4983 27.5049 31.5775 28.2809 31.4231C29.0568 31.2688 29.7695 30.8878 30.3289 30.3284C30.8883 29.769 31.2693 29.0563 31.4237 28.2804C31.578 27.5044 31.4988 26.7002 31.196 25.9693C30.8933 25.2384 30.3806 24.6137 29.7228 24.1741C29.065 23.7346 28.2916 23.5 27.5005 23.5C26.6122 23.4989 25.7493 23.7965 25.0505 24.345L20.5505 19.87C21.3767 18.9274 21.8842 17.748 22.0005 16.5H25.0955C25.2172 16.9713 25.5066 17.3821 25.9095 17.6553C26.3124 17.9285 26.8011 18.0454 27.284 17.9841C27.7669 17.9227 28.2109 17.6874 28.5327 17.3221C28.8545 16.9569 29.032 16.4868 29.032 16C29.032 15.5132 28.8545 15.0431 28.5327 14.6779C28.2109 14.3126 27.7669 14.0773 27.284 14.0159C26.8011 13.9546 26.3124 14.0715 25.9095 14.3447C25.5066 14.6179 25.2172 15.0287 25.0955 15.5H22.0005C21.9069 14.3667 21.4904 13.284 20.8005 12.38L26.8005 5.97C27.3005 6.31465 27.8933 6.49946 28.5005 6.5ZM21.0005 16C21.0005 16.9889 20.7073 17.9556 20.1579 18.7779C19.6085 19.6001 18.8276 20.241 17.9139 20.6194C17.0003 20.9978 15.995 21.0969 15.0251 20.9039C14.0552 20.711 13.1642 20.2348 12.465 19.5355C11.7657 18.8363 11.2895 17.9454 11.0966 16.9755C10.9037 16.0056 11.0027 15.0002 11.3811 14.0866C11.7596 13.173 12.4004 12.3921 13.2227 11.8427C14.0449 11.2932 15.0116 11 16.0005 11C17.3266 11 18.5984 11.5268 19.536 12.4645C20.4737 13.4022 21.0005 14.6739 21.0005 16Z" fill="#7544FF"/>
</svg>
