<svg width="39" height="40" viewBox="0 0 39 40" fill="none" xmlns="http://www.w3.org/2000/svg">
<rect x="0.0249023" y="0.832031" width="38.9648" height="38.9648" rx="10" fill="url(#paint0_linear_134_2209)"/>
<path d="M29.9332 35.0946L8.72118 35.4106C8.28726 35.4171 7.92924 35.0696 7.92277 34.6356L7.60755 13.4737C7.60607 13.3747 7.644 13.2793 7.71293 13.2087L16.0406 4.62922C16.1095 4.5582 16.2038 4.51745 16.3023 4.51599L29.4744 4.31978C29.9083 4.31331 30.2663 4.66083 30.2728 5.09475L30.7078 34.2966C30.7142 34.7306 30.3667 35.0886 29.9328 35.0951L29.9332 35.0946ZM8.35513 13.6166L8.66806 34.6245C8.6684 34.6473 8.68731 34.6657 8.71008 34.6653L29.9221 34.3494C29.9449 34.349 29.9632 34.3301 29.9629 34.3073L29.5279 5.10543C29.5276 5.08266 29.5087 5.0643 29.4859 5.06464L16.4678 5.25856L8.35513 13.6166Z" fill="#CEC1F1"/>
<path d="M15.3464 28.8423C15.1002 29.0547 14.6678 29.0189 14.279 29.0276L14.2603 27.7681C14.8234 27.7626 14.9647 27.7422 15.2096 27.8359C15.6241 27.9946 15.6219 28.5988 15.3464 28.8423Z" fill="#CEC1F1"/>
<path d="M19.6521 27.8299C19.3097 27.6681 19.0169 27.6994 18.5093 27.7053L18.5486 30.3432C19.0582 30.3273 20.3227 30.4774 20.3006 28.9951C20.2929 28.4801 20.1202 28.0598 19.6521 27.8299ZM19.6521 27.8299C19.3097 27.6681 19.0169 27.6994 18.5093 27.7053L18.5486 30.3432C19.0582 30.3273 20.3227 30.4774 20.3006 28.9951C20.2929 28.4801 20.1202 28.0598 19.6521 27.8299ZM27.0605 25.3213L11.3003 25.556C10.8427 25.5628 10.4777 25.9389 10.4845 26.3965L10.5669 31.9261C10.5737 32.3832 10.9498 32.7486 11.4073 32.7418L27.1676 32.507C27.6251 32.5002 27.9901 32.1237 27.9833 31.6666L27.901 26.137C27.8942 25.6795 27.5181 25.3144 27.0605 25.3213ZM14.9679 29.8134L14.2914 29.8235L14.3118 31.1965L13.225 31.2127L13.1622 26.9981C14.7996 26.9902 16.636 26.6394 16.6604 28.2766C16.6746 29.2268 15.9418 29.7989 14.9679 29.8134ZM20.5026 30.77C19.7497 31.2414 18.8875 31.101 17.4735 31.1494L17.4107 26.9348C18.9119 26.9323 20.4132 26.63 21.1581 27.928C21.3295 28.2265 21.4184 28.5793 21.4245 28.9871C21.4364 29.7862 21.0336 30.437 20.5026 30.77ZM25.2546 27.6334L23.3156 27.6623L23.3272 28.4461L25.1246 28.4193L25.1368 29.2345L23.3394 29.2613L23.3662 31.0616L22.2851 31.0777L22.2223 26.8631L25.2424 26.8181L25.2546 27.6334ZM18.5093 27.7053L18.5486 30.3432C19.0756 30.3312 19.3858 30.3609 19.7432 30.1614C20.4111 29.7675 20.3992 28.7763 20.1385 28.2857C19.7746 27.5986 18.9798 27.7053 18.5093 27.7053Z" fill="#CEC1F1"/>
<path d="M16.4458 4.54118C16.3058 4.4857 16.1461 4.51997 16.0408 4.62797L7.71314 13.2075C7.60832 13.3155 7.57882 13.4762 7.63846 13.6149C7.69808 13.7531 7.83525 13.8422 7.98596 13.84L16.0255 13.7202C16.4594 13.7137 16.8069 13.3557 16.8005 12.9218L16.6807 4.88224C16.6785 4.73153 16.5858 4.59708 16.4454 4.5416L16.4458 4.54118Z" fill="#CEC1F1"/>
<defs>
<linearGradient id="paint0_linear_134_2209" x1="0.0249024" y1="3.01535" x2="47.6136" y2="22.4239" gradientUnits="userSpaceOnUse">
<stop stop-color="#15192E"/>
<stop offset="0.469102" stop-color="#443B7A" stop-opacity="0.3"/>
<stop offset="1" stop-color="#A492D6" stop-opacity="0.1"/>
</linearGradient>
</defs>
</svg>
