<svg width="100" height="19" viewBox="0 0 100 19" fill="none" xmlns="http://www.w3.org/2000/svg">
<path fill-rule="evenodd" clip-rule="evenodd" d="M93.5158 3.93066C95.2999 3.93066 97.169 4.32884 98.4716 4.84079V1.3425C97.1406 0.915878 95.2999 0.489258 92.8928 0.489258C88.3335 0.489258 85.2467 2.19573 85.2467 5.7509C85.2467 11.8943 94.0539 10.6428 94.0539 13.487C94.0539 14.5962 93.0061 15.2218 90.9388 15.2218C89.0698 15.2218 86.8892 15.165 85.1902 14.3686V17.8385C86.8892 18.4358 89.353 18.6917 91.222 18.6917C95.9513 18.6917 99.3779 17.2697 99.3779 12.8897C99.3779 7.03076 90.514 8.73725 90.514 5.2674C90.4858 3.95909 91.9016 3.93066 93.5158 3.93066ZM74.9104 13.942H73.3244V18.6917H67.8023V0.489258C67.9156 0.489258 72.1917 0.574582 74.1174 0.489258C79.8095 0.574582 83.6042 2.39483 83.6042 6.83168C83.6042 12.008 79.8945 13.942 74.9104 13.942ZM74.1457 3.64625C73.8626 3.64625 73.6643 3.64625 73.3528 3.64625V10.7566H74.1457C76.921 10.7566 78.0821 9.90333 78.0821 6.80323C78.0821 4.89766 76.7794 3.67469 74.1457 3.64625ZM59.165 0.489258H64.6872V18.6917H59.165V0.489258ZM45.7702 18.6917V0.489258H51.2924V14.7384H56.8145L56.0217 18.6917H45.7702ZM37.1046 0.489258H42.6268V18.6917H37.1046V0.489258ZM28.439 11.5814H22.9169V18.6917H17.3946V0.489258H22.9169V7.59959H28.439V0.489258H33.9612V18.6917H28.439V11.5814ZM7.1432 13.942H5.55734V18.6917H0.0634766V0.489258C0.176752 0.489258 4.4529 0.574582 6.37859 0.489258C12.0707 0.574582 15.8371 2.39483 15.8371 6.83168C15.8371 12.008 12.1273 13.942 7.1432 13.942ZM6.37859 3.64625C6.0954 3.64625 5.89717 3.64625 5.58566 3.64625V10.7566H6.37859C9.15384 10.7566 10.3149 9.90333 10.3149 6.80323C10.3149 4.89766 9.01225 3.67469 6.37859 3.64625Z" fill="#CEC1F1" fill-opacity="0.7"/>
</svg>
