<svg width="123" height="26" viewBox="0 0 123 26" fill="none" xmlns="http://www.w3.org/2000/svg">
<path d="M12.2944 11.7154L12.5017 11.6601C14.0462 11.2176 15.5613 10.6863 17.0387 10.069C18.5373 9.5068 19.9436 8.74108 21.214 7.79544C22.5628 6.76926 23.578 5.39672 24.1406 3.83857C24.262 3.58209 24.351 3.31272 24.4058 3.03613C22.376 5.68788 14.3291 5.96458 14.3291 5.96458L16.2287 4.29974C10.7008 4.31661 5.3167 5.98545 0.829102 9.07289C3.86817 9.3843 6.7267 10.6061 8.99657 12.564C10.0862 12.2412 11.2 12.0106 12.2944 11.72M24.9121 11.4479C19.7921 11.221 14.6698 11.8452 9.77282 13.2926C10.8015 14.3193 11.66 15.4904 12.3185 16.7653C16.3733 14.607 21.9951 11.8399 24.9121 11.4618M12.8296 17.8721C13.3105 19.0558 13.6188 20.2973 13.7457 21.5615L20.8187 14.607L12.8296 17.8721ZM16.5421 21.2802V21.2064C16.5409 21.1766 16.5308 21.1478 16.5132 21.1234C16.5052 21.112 16.4945 21.1027 16.4818 21.0962C16.4692 21.0898 16.4551 21.0864 16.4408 21.0865H16.5132C16.532 21.0744 16.5473 21.0579 16.5575 21.0385C16.5676 21.0191 16.5723 20.9975 16.571 20.9758C16.5743 20.9468 16.5675 20.9177 16.5519 20.8927C16.5362 20.8677 16.5125 20.8483 16.4842 20.8374C16.4349 20.8283 16.3841 20.8283 16.3348 20.8374H16.1274V21.3586H16.2335V21.1695H16.3107C16.3439 21.1617 16.3786 21.1617 16.4119 21.1695C16.4281 21.1821 16.4406 21.1984 16.4482 21.217C16.4559 21.2356 16.4583 21.2558 16.4553 21.2756V21.354H16.5614L16.5421 21.2802ZM16.2287 20.8743H16.2962C16.3327 20.8662 16.3706 20.8662 16.4071 20.8743C16.419 20.8819 16.4288 20.8922 16.4356 20.9042C16.4423 20.9163 16.4459 20.9298 16.4459 20.9435C16.4459 20.9572 16.4423 20.9707 16.4356 20.9828C16.4288 20.9948 16.419 21.0051 16.4071 21.0127H16.2287V20.8743Z" fill="#CEC1F1" fill-opacity="0.7"/>
<path d="M16.4429 20.7648C16.3574 20.6818 16.2417 20.6353 16.121 20.6353C16.0004 20.6353 15.8847 20.6818 15.7992 20.7648C15.7077 20.8481 15.654 20.9635 15.6497 21.0855C15.6454 21.2075 15.691 21.3262 15.7763 21.4154C15.8617 21.5046 15.9799 21.5571 16.1049 21.5613C16.2299 21.5654 16.3515 21.521 16.4429 21.4377C16.528 21.3542 16.5757 21.2412 16.5757 21.1235C16.5757 21.0058 16.528 20.8929 16.4429 20.8094M16.1096 21.5134C16.0586 21.514 16.008 21.5045 15.9609 21.4853C15.9138 21.4662 15.8712 21.4378 15.8357 21.402C15.7643 21.3305 15.7243 21.2345 15.7243 21.1347C15.7243 21.0348 15.7643 20.9389 15.8357 20.8673C15.8713 20.8324 15.9137 20.8047 15.9603 20.7858C16.0069 20.7669 16.0569 20.7572 16.1073 20.7572C16.1578 20.7572 16.2078 20.7669 16.2544 20.7858C16.301 20.8047 16.3434 20.8324 16.379 20.8673C16.4504 20.9389 16.4903 21.0348 16.4903 21.1347C16.4903 21.2345 16.4504 21.3305 16.379 21.402C16.3435 21.4378 16.3009 21.4662 16.2538 21.4853C16.2067 21.5045 16.1561 21.514 16.1051 21.5134" fill="#CEC1F1" fill-opacity="0.7"/>
<path d="M67.5853 14.9476C66.7305 14.9476 65.9107 14.6052 65.3062 13.9958C64.7018 13.3864 64.3622 12.5599 64.3622 11.6981C64.3622 10.8363 64.7018 10.0098 65.3062 9.40041C65.9107 8.79102 66.7305 8.44867 67.5853 8.44867C68.44 8.44867 69.2598 8.79102 69.8643 9.40041C70.4687 10.0098 70.8083 10.8363 70.8083 11.6981C70.8083 12.5599 70.4687 13.3864 69.8643 13.9958C69.2598 14.6052 68.44 14.9476 67.5853 14.9476ZM67.5853 4.90424C66.5691 4.91637 65.5688 5.1609 64.66 5.6194C63.7512 6.0779 62.9574 6.73842 62.3386 7.55116C61.7197 8.3639 61.2919 9.30766 61.0875 10.3113C60.883 11.315 60.9071 12.3523 61.1581 13.3452C61.409 14.3381 61.8803 15.2606 62.5362 16.0431C63.1922 16.8257 64.0158 17.448 64.945 17.863C65.8742 18.278 66.8847 18.475 67.9003 18.439C68.9159 18.4031 69.9102 18.1351 70.8083 17.6555V18.4775C70.807 19.3389 70.467 20.1647 69.8629 20.7738C69.2587 21.3829 68.4397 21.7257 67.5853 21.7269C67.1197 21.7269 66.6732 21.9134 66.344 22.2453C66.0148 22.5772 65.8299 23.0274 65.8299 23.4967C65.8299 23.9661 66.0148 24.4163 66.344 24.7482C66.6732 25.0801 67.1197 25.2665 67.5853 25.2665C69.3641 25.2602 71.0683 24.5449 72.3262 23.2767C73.5841 22.0085 74.2935 20.2903 74.2999 18.4968V11.7271C74.2935 9.93366 73.5841 8.21546 72.3262 6.94727C71.0683 5.67909 69.3641 4.9638 67.5853 4.95743V4.90424ZM34.4055 14.9476C33.7681 14.9485 33.1447 14.7589 32.6141 14.4026C32.0836 14.0464 31.6697 13.5395 31.4249 12.9461C31.1801 12.3527 31.1153 11.6994 31.2387 11.0689C31.3621 10.4384 31.6683 9.85896 32.1183 9.40384C32.5684 8.94872 33.1422 8.63837 33.7672 8.51205C34.3923 8.38573 35.0404 8.44911 35.6297 8.69417C36.219 8.93923 36.723 9.35496 37.0779 9.8888C37.4328 10.4226 37.6228 11.0506 37.6237 11.6933C37.6244 12.12 37.5416 12.5427 37.3802 12.9372C37.2188 13.3317 36.982 13.6902 36.6831 13.9924C36.3843 14.2946 36.0293 14.5345 35.6386 14.6984C35.2478 14.8623 34.8288 14.9469 34.4055 14.9476ZM34.4055 4.90424C32.6266 4.91061 30.9224 5.6259 29.6646 6.89408C28.4067 8.16227 27.6972 9.88047 27.6909 11.6739V21.3449C27.6909 21.5774 27.7363 21.8075 27.8245 22.0222C27.9128 22.2369 28.0421 22.432 28.2051 22.5964C28.3681 22.7607 28.5616 22.8911 28.7745 22.98C28.9875 23.069 29.2158 23.1147 29.4463 23.1147C29.6768 23.1147 29.9051 23.069 30.1181 22.98C30.331 22.8911 30.5246 22.7607 30.6876 22.5964C30.8506 22.432 30.9799 22.2369 31.0681 22.0222C31.1563 21.8075 31.2017 21.5774 31.2017 21.3449V17.641C32.0999 18.1189 33.0939 18.3853 34.109 18.4199C35.1241 18.4545 36.1337 18.2565 37.0619 17.8409C37.9901 17.4252 38.8127 16.8026 39.4677 16.02C40.1227 15.2374 40.5931 14.3153 40.8435 13.3229C41.0938 12.3305 41.1176 11.2938 40.9131 10.2908C40.7086 9.28777 40.281 8.34462 39.6626 7.53231C39.0443 6.72001 38.2512 6.05971 37.343 5.60115C36.4349 5.14258 35.4355 4.89769 34.4199 4.8849L34.4055 4.90424ZM53.2927 4.90424C51.5139 4.91061 49.8096 5.6259 48.5518 6.89408C47.2939 8.16227 46.5845 9.88047 46.5781 11.6739V16.6932C46.5781 17.1626 46.7631 17.6127 47.0923 17.9446C47.4215 18.2765 47.868 18.463 48.3335 18.463C48.7991 18.463 49.2456 18.2765 49.5748 17.9446C49.904 17.6127 50.0889 17.1626 50.0889 16.6932V11.6981C50.0889 10.8376 50.428 10.0123 51.0315 9.40383C51.635 8.79534 52.4536 8.4535 53.3071 8.4535C54.1607 8.4535 54.9792 8.79534 55.5828 9.40383C56.1863 10.0123 56.5253 10.8376 56.5253 11.6981V16.7174C56.5129 16.9572 56.549 17.1972 56.6315 17.4225C56.714 17.6479 56.8411 17.8539 57.0051 18.0281C57.1691 18.2024 57.3665 18.3411 57.5854 18.4359C57.8043 18.5308 58.0401 18.5796 58.2783 18.5796C58.5166 18.5796 58.7523 18.5308 58.9712 18.4359C59.1901 18.3411 59.3876 18.2024 59.5516 18.0281C59.7156 17.8539 59.8427 17.6479 59.9252 17.4225C60.0077 17.1972 60.0438 16.9572 60.0313 16.7174V11.6981C60.025 9.90465 59.3155 8.18644 58.0577 6.91825C56.7998 5.65007 55.0956 4.93479 53.3167 4.92842M96.1799 14.8896C95.3251 14.8896 94.5053 14.5472 93.9009 13.9378C93.2964 13.3284 92.9569 12.5019 92.9569 11.6401C92.9569 10.7783 93.2964 9.95177 93.9009 9.34238C94.5053 8.73299 95.3251 8.39064 96.1799 8.39064C97.0347 8.39064 97.8545 8.73299 98.4589 9.34238C99.0633 9.95177 99.4029 10.7783 99.4029 11.6401C99.4029 12.5019 99.0633 13.3284 98.4589 13.9378C97.8545 14.5472 97.0347 14.8896 96.1799 14.8896ZM96.1799 4.84622C94.8518 4.84622 93.5536 5.24325 92.4494 5.98712C91.3452 6.73098 90.4846 7.78826 89.9764 9.02526C89.4682 10.2623 89.3352 11.6234 89.5943 12.9366C89.8534 14.2498 90.4929 15.4561 91.4319 16.4028C92.371 17.3496 93.5674 17.9943 94.8699 18.2555C96.1724 18.5168 97.5225 18.3827 98.7494 17.8703C99.9764 17.3579 101.025 16.4902 101.763 15.377C102.501 14.2637 102.894 12.9548 102.894 11.6159C102.894 9.82048 102.187 8.09858 100.928 6.82901C99.6686 5.55945 97.9607 4.84622 96.1799 4.84622ZM81.8826 14.9476C81.2451 14.9476 80.622 14.757 80.092 14.4C79.5619 14.0429 79.1488 13.5354 78.9049 12.9416C78.6609 12.3479 78.5971 11.6945 78.7215 11.0642C78.8458 10.4339 79.1528 9.85486 79.6035 9.40041C80.0543 8.94597 80.6286 8.63648 81.2538 8.5111C81.879 8.38572 82.527 8.45007 83.116 8.69601C83.7049 8.94196 84.2082 9.35845 84.5624 9.89282C84.9165 10.4272 85.1056 11.0554 85.1056 11.6981C85.1056 12.5599 84.766 13.3864 84.1616 13.9958C83.5571 14.6052 82.7374 14.9476 81.8826 14.9476ZM86.8562 0.262161C86.3906 0.262161 85.9441 0.448621 85.6149 0.780522C85.2857 1.11242 85.1008 1.56257 85.1008 2.03195V5.73595C83.8093 5.02766 82.323 4.76627 80.87 4.99192C79.4169 5.21757 78.0775 5.91778 77.0573 6.98505C76.0372 8.05233 75.3926 9.42768 75.2226 10.9C75.0526 12.3723 75.3666 13.8601 76.1163 15.1351C76.8661 16.4101 78.0102 17.4018 79.3729 17.9579C80.7357 18.514 82.2418 18.6038 83.6601 18.2135C85.0784 17.8233 86.3305 16.9745 87.2241 15.7975C88.1177 14.6205 88.6034 13.1803 88.6068 11.6981V2.02712C88.6068 1.55774 88.4218 1.10759 88.0926 0.775686C87.7634 0.443785 87.3169 0.257324 86.8514 0.257324L86.8562 0.262161ZM43.7244 4.90424C43.2589 4.90424 42.8124 5.0907 42.4832 5.4226C42.154 5.7545 41.969 6.20466 41.969 6.67404V16.7125C41.969 17.1819 42.154 17.6321 42.4832 17.964C42.8124 18.2959 43.2589 18.4823 43.7244 18.4823C44.19 18.4823 44.6365 18.2959 44.9657 17.964C45.2949 17.6321 45.4798 17.1819 45.4798 16.7125V6.67887C45.4798 6.20949 45.2949 5.75934 44.9657 5.42744C44.6365 5.09554 44.19 4.90907 43.7244 4.90907M41.969 2.03195C41.969 2.26437 42.0144 2.4945 42.1027 2.70922C42.1909 2.92394 42.3202 3.11905 42.4832 3.28339C42.6462 3.44773 42.8397 3.57809 43.0527 3.66703C43.2656 3.75597 43.4939 3.80175 43.7244 3.80175C43.955 3.80175 44.1832 3.75597 44.3962 3.66703C44.6092 3.57809 44.8027 3.44773 44.9657 3.28339C45.1287 3.11905 45.258 2.92394 45.3462 2.70922C45.4344 2.4945 45.4798 2.26437 45.4798 2.03195C45.4798 1.56257 45.2949 1.11242 44.9657 0.780522C44.6365 0.448622 44.19 0.262161 43.7244 0.262161C43.2589 0.262161 42.8124 0.448622 42.4832 0.780522C42.154 1.11242 41.969 1.56257 41.969 2.03195ZM112.952 18.4291C113.418 18.4291 113.864 18.2427 114.193 17.9108C114.522 17.5789 114.707 17.1287 114.707 16.6593V9.13047C114.707 8.93426 114.785 8.74608 114.922 8.60733C115.06 8.46859 115.247 8.39064 115.441 8.39064C116.295 8.39192 117.114 8.73484 117.717 9.34409C118.32 9.95335 118.659 10.7791 118.659 11.6401V16.6303C118.659 17.0997 118.844 17.5499 119.174 17.8818C119.503 18.2137 119.949 18.4001 120.415 18.4001C120.88 18.4001 121.327 18.2137 121.656 17.8818C121.985 17.5499 122.17 17.0997 122.17 16.6303V11.6401C122.164 9.84662 121.454 8.12842 120.197 6.86023C118.939 5.59204 117.234 4.87676 115.456 4.87039C114.603 4.86813 113.757 5.03233 112.966 5.35394C112.175 5.03245 111.33 4.86825 110.477 4.87039C108.699 4.87803 106.995 5.59372 105.738 6.86163C104.48 8.12955 103.77 9.84701 103.763 11.6401V16.6303C103.763 17.0997 103.948 17.5499 104.277 17.8818C104.606 18.2137 105.052 18.4001 105.518 18.4001C105.984 18.4001 106.43 18.2137 106.759 17.8818C107.088 17.5499 107.273 17.0997 107.273 16.6303V11.6401C107.278 10.7816 107.62 9.96009 108.224 9.35488C108.828 8.74967 109.645 8.40997 110.496 8.40998C110.691 8.40998 110.878 8.48792 111.015 8.62667C111.153 8.76541 111.23 8.9536 111.23 9.14981V16.6303C111.23 16.8627 111.274 17.093 111.362 17.308C111.45 17.5229 111.578 17.7184 111.741 17.8832C111.903 18.048 112.097 18.1789 112.309 18.2684C112.522 18.3579 112.75 18.4043 112.981 18.405" fill="#CEC1F1" fill-opacity="0.7"/>
</svg>
