<svg width="448" height="375" viewBox="0 0 448 375" fill="none" xmlns="http://www.w3.org/2000/svg">
<g clip-path="url(#clip0_4001_42)">
<path d="M61.5321 120.6L20.2546 108.315C17.7765 107.577 15.1697 108.988 14.4322 111.466L2.14743 152.744C1.40992 155.222 2.82094 157.829 5.29903 158.566L46.5766 170.851C49.0547 171.589 51.6614 170.178 52.399 167.7L64.6837 126.422C65.4212 123.944 64.0102 121.337 61.5321 120.6Z" fill="#F47925"/>
<path d="M41.8498 150.289L20.5007 143.935C19.8809 143.751 19.2295 144.103 19.0451 144.723L16.8158 152.214C16.6315 152.833 16.9839 153.485 17.6037 153.669L38.9528 160.023C39.5726 160.207 40.2241 159.854 40.4084 159.235L42.6377 151.745C42.8221 151.125 42.4695 150.473 41.8498 150.289ZM26.8176 153.866C21.0596 154.333 21.1204 149.173 23.6595 147.832C25.058 147.094 27.0322 147.731 28.2792 148.871L27.8809 150.209L27.716 150.16C27.5404 149.923 27.3394 149.661 27.1453 149.468C26.1561 148.461 24.2797 148.299 23.7256 150.162C23.2866 151.637 24.033 152.501 25.5073 152.799L25.8404 151.68L24.7019 151.341L25.0225 150.264L27.6564 151.048L26.8176 153.866ZM32.5235 150.806L31.588 150.528L30.4915 154.212L31.427 154.49L31.1257 155.503L27.7823 154.508L28.0836 153.495L29.0192 153.774L30.1157 150.089L29.1802 149.811L29.4815 148.799L32.8248 149.794L32.5235 150.806ZM37.7874 152.473L35.1609 151.691L34.8449 152.753L37.2796 153.477L36.951 154.582L34.5162 153.857L33.7904 156.296L32.326 155.86L34.0251 150.151L38.1161 151.368L37.7874 152.473Z" fill="white"/>
<path d="M41.5784 164.703L12.8443 156.152C12.2565 155.977 11.9208 155.357 12.0958 154.769L20.6272 126.103C20.6671 125.969 20.7586 125.856 20.8815 125.79L35.7409 117.747C35.8639 117.68 36.0082 117.665 36.1417 117.705L53.9848 123.015C54.5726 123.19 54.9082 123.81 54.7333 124.398L42.9605 163.955C42.7856 164.543 42.1655 164.879 41.5777 164.704L41.5784 164.703ZM21.5747 126.612L13.1053 155.069C13.0962 155.1 13.1139 155.133 13.1447 155.142L41.8789 163.694C41.9097 163.703 41.9425 163.685 41.9517 163.654L53.7245 124.097C53.7336 124.066 53.7159 124.034 53.6851 124.024L36.0506 118.776L21.5747 126.612Z" fill="white"/>
<path d="M36.3254 117.8C36.1601 117.666 35.9302 117.645 35.7426 117.746L20.8832 125.789C20.6961 125.89 20.5883 126.094 20.61 126.307C20.6319 126.518 20.7792 126.696 20.9833 126.757L31.8738 129.998C32.4616 130.173 33.0817 129.838 33.2566 129.25L36.4978 118.359C36.5585 118.155 36.4905 117.935 36.3246 117.801L36.3254 117.8Z" fill="white"/>
</g>
<g filter="url(#filter0_d_4001_42)">
<path d="M220.166 251L220.166 273.195" stroke="#CD23D0" stroke-width="1.5"/>
<path d="M227 268.667C223.111 268.667 220.778 271 220 275.667C219.224 271 216.892 268.667 213 268.667" stroke="#CD23D0" stroke-width="1.5" stroke-linecap="square" stroke-linejoin="bevel"/>
</g>
<g clip-path="url(#clip1_4001_42)">
<path d="M443.412 122.33L401.209 107.227C398.675 106.32 395.886 107.639 394.979 110.173L379.876 152.377C378.969 154.91 380.288 157.699 382.822 158.606L425.026 173.709C427.559 174.616 430.348 173.297 431.255 170.763L446.358 128.56C447.265 126.026 445.946 123.237 443.412 122.33Z" fill="#659AB5"/>
<path d="M420.18 167.037L390.801 156.524C390.2 156.309 389.886 155.645 390.101 155.044L400.59 125.735C400.639 125.598 400.741 125.486 400.872 125.424L416.77 117.906C416.902 117.844 417.053 117.836 417.189 117.885L435.433 124.414C436.034 124.629 436.347 125.292 436.132 125.893L421.659 166.338C421.443 166.939 420.78 167.253 420.179 167.038L420.18 167.037ZM401.546 126.317L391.134 155.414C391.122 155.445 391.139 155.48 391.17 155.491L420.549 166.005C420.581 166.016 420.616 166 420.627 165.968L435.101 125.523C435.112 125.492 435.096 125.457 435.064 125.446L417.034 118.993L401.546 126.317Z" fill="white"/>
<path d="M408.459 151.035L407.835 152.779C408.688 153.069 409.552 153.519 409.934 152.45C410.239 151.6 409.284 151.323 408.459 151.035ZM408.459 151.035L407.835 152.779C408.688 153.069 409.552 153.519 409.934 152.45C410.239 151.6 409.284 151.323 408.459 151.035ZM421.278 152.072L399.45 144.261C398.816 144.034 398.119 144.363 397.892 144.997L395.152 152.656C394.925 153.289 395.254 153.986 395.888 154.213L417.716 162.024C418.35 162.251 419.047 161.921 419.273 161.288L422.014 153.629C422.241 152.996 421.911 152.299 421.278 152.072ZM402.494 152.111L401.557 151.775L400.877 153.677L399.371 153.138L401.46 147.301C403.626 148.101 406.438 148.576 405.618 150.868C405.147 152.185 403.839 152.592 402.494 152.111ZM408.378 154.216L407.441 153.881L406.76 155.783L405.255 155.244L407.344 149.407C409.611 150.244 412.313 150.708 411.503 152.973C411.03 154.295 409.719 154.696 408.378 154.216ZM417.391 154.276L415.568 153.624L413.883 158.332L412.378 157.793L414.063 153.085L412.24 152.432L412.644 151.303L417.795 153.147L417.391 154.276ZM408.459 151.035L407.835 152.779C408.482 152.956 409.516 153.618 409.934 152.45C410.257 151.547 409.046 151.248 408.459 151.035ZM402.576 148.929L401.951 150.674C402.601 150.851 403.633 151.511 404.05 150.344C404.374 149.439 403.161 149.142 402.576 148.929Z" fill="white"/>
<path d="M417.373 117.994C417.209 117.846 416.97 117.81 416.77 117.905L400.872 125.423C400.672 125.518 400.548 125.724 400.559 125.946C400.569 126.167 400.712 126.36 400.921 126.435L412.056 130.42C412.657 130.635 413.32 130.321 413.535 129.72L417.52 118.585C417.595 118.377 417.537 118.144 417.372 117.995L417.373 117.994Z" fill="white"/>
</g>
<g clip-path="url(#clip2_4001_42)">
<path d="M200.118 1.56907L154.542 9.31256C151.806 9.77744 149.965 12.3724 150.43 15.1086L158.173 60.6847C158.638 63.4208 161.233 65.2621 163.969 64.7972L209.545 57.0537C212.281 56.5888 214.123 53.9938 213.658 51.2577L205.914 5.68159C205.449 2.94542 202.854 1.10419 200.118 1.56907Z" fill="#4658A5"/>
<path d="M195.246 39.5176L171.674 43.5226C170.99 43.6389 170.53 44.2873 170.646 44.9716L172.051 53.2421C172.167 53.9258 172.816 54.3865 173.5 54.2702L197.073 50.2652C197.757 50.149 198.217 49.4999 198.101 48.8162L196.695 40.5457C196.579 39.8614 195.931 39.4013 195.246 39.5176ZM180.557 45.5293L178.588 45.8637L179.452 50.948L177.826 51.2242L176.962 46.1399L174.994 46.4743L174.787 45.255L180.35 44.3099L180.557 45.5293ZM186.232 49.7961L184.524 47.9575L183.492 50.2616L181.696 50.5668L183.392 47.0113L180.672 44.2552L182.548 43.9364L184.193 45.6761L185.207 43.4846L187.009 43.1785L185.329 46.6139L188.114 49.4764L186.232 49.7961ZM193.087 43.4003L191.119 43.7347L191.983 48.819L190.358 49.0952L189.494 44.0109L187.525 44.3453L187.318 43.126L192.88 42.1809L193.087 43.4003Z" fill="white"/>
<path d="M201.817 53.5032L170.091 58.8936C169.442 59.0039 168.825 58.5659 168.714 57.9169L163.337 26.2653C163.312 26.1173 163.346 25.9655 163.433 25.8437L173.929 11.0516C174.016 10.9291 174.148 10.8462 174.295 10.8212L193.996 7.47388C194.645 7.36361 195.263 7.80159 195.373 8.4506L202.794 52.1274C202.904 52.7764 202.466 53.3936 201.817 53.5039L201.817 53.5032ZM164.491 26.3063L169.829 57.7275C169.835 57.7615 169.867 57.7847 169.902 57.7789L201.628 52.3885C201.662 52.3827 201.685 52.3501 201.679 52.316L194.259 8.63927C194.253 8.60521 194.22 8.58207 194.186 8.58786L174.715 11.896L164.491 26.3063Z" fill="white"/>
<path d="M174.515 10.8264C174.293 10.7757 174.061 10.8641 173.928 11.0504L163.433 25.8425C163.301 26.0287 163.294 26.2765 163.415 26.4705C163.537 26.664 163.763 26.7657 163.989 26.7273L176.014 24.6843C176.663 24.574 177.101 23.9568 176.99 23.3077L174.947 11.2831C174.909 11.0577 174.739 10.8776 174.516 10.827L174.515 10.8264Z" fill="white"/>
</g>
<g clip-path="url(#clip3_4001_42)">
<path d="M383.264 39.5202L336.337 24.6735C333.52 23.7821 330.514 25.3434 329.622 28.1606L314.776 75.0872C313.884 77.9045 315.446 80.9109 318.263 81.8022L365.189 96.6489C368.007 97.5402 371.013 95.979 371.904 93.1617L386.751 46.2351C387.642 43.4179 386.081 40.4115 383.264 39.5202Z" fill="#1CA553"/>
<path d="M359.599 89.5258L326.932 79.1907C326.264 78.9793 325.892 78.2641 326.104 77.5959L336.414 45.0065C336.463 44.8541 336.569 44.7272 336.711 44.6542L353.848 35.7545C353.99 35.6808 354.156 35.6664 354.307 35.7145L374.592 42.1323C375.261 42.3437 375.632 43.0588 375.42 43.7271L361.192 88.6981C360.981 89.3663 360.266 89.7377 359.598 89.5263L359.599 89.5258ZM337.487 45.6068L327.251 77.959C327.24 77.9941 327.26 78.0319 327.295 78.043L359.962 88.3781C359.997 88.3892 360.034 88.3696 360.046 88.3345L374.274 43.3635C374.285 43.3285 374.265 43.2907 374.23 43.2796L354.182 36.9368L337.487 45.6068Z" fill="white"/>
<path d="M360.191 73.0599L335.92 65.381C335.215 65.1581 334.464 65.5482 334.241 66.2528L331.547 74.7684C331.324 75.4723 331.714 76.2242 332.419 76.4471L356.69 84.126C357.394 84.3489 358.146 83.9581 358.368 83.2542L361.062 74.7386C361.285 74.034 360.895 73.2828 360.191 73.0599ZM340.736 76.5618L340.014 73.989L337.915 75.6693L336.065 75.0841L339.402 72.5425L338.167 68.6087L340.099 69.2202L340.81 71.6679L342.837 70.0864L344.692 70.6733L341.43 73.1092L342.674 77.1748L340.736 76.5618ZM348.288 78.9509L343.606 77.4698L345.66 70.9793L347.333 71.5089L345.677 76.7438L348.685 77.6954L348.288 78.9509ZM353.83 80.1742C353.162 80.4025 352.363 80.3692 351.432 80.0749C350.895 79.9048 350.441 79.7094 350.072 79.4887C349.702 79.2679 349.366 79.0298 349.063 78.7741L349.555 77.2182L349.738 77.2761C349.997 77.6616 350.317 77.9957 350.699 78.28C351.081 78.5635 351.469 78.7678 351.864 78.8929C351.966 78.925 352.102 78.9591 352.273 78.9935C352.444 79.0287 352.589 79.0421 352.706 79.0344C352.851 79.0227 352.977 78.9909 353.084 78.9387C353.192 78.8865 353.27 78.7836 353.319 78.6293C353.364 78.4871 353.343 78.3448 353.255 78.2034C353.167 78.0626 353.015 77.927 352.8 77.7986C352.575 77.6635 352.334 77.527 352.078 77.39C351.823 77.2537 351.588 77.108 351.374 76.9541C350.884 76.6039 350.567 76.2393 350.424 75.8599C350.28 75.4805 350.279 75.0651 350.422 74.615C350.613 74.0105 351.04 73.6033 351.703 73.3922C352.366 73.1818 353.123 73.211 353.975 73.4803C354.402 73.6155 354.811 73.7904 355.202 74.0053C355.592 74.2201 355.92 74.4382 356.186 74.6596L355.713 76.1549L355.534 76.0984C355.339 75.8059 355.074 75.5299 354.739 75.269C354.405 75.008 354.04 74.8148 353.645 74.6897C353.505 74.6455 353.364 74.6113 353.219 74.5867C353.076 74.5616 352.931 74.5551 352.787 74.5671C352.659 74.5752 352.541 74.61 352.432 74.673C352.322 74.7358 352.25 74.8243 352.214 74.9371C352.16 75.1086 352.184 75.2608 352.285 75.3939C352.387 75.5271 352.607 75.6887 352.947 75.879C353.17 76.0041 353.384 76.1244 353.588 76.2403C353.793 76.3563 354.009 76.4947 354.236 76.6557C354.681 76.9761 354.978 77.3134 355.126 77.669C355.274 78.0244 355.277 78.426 355.136 78.873C354.934 79.5125 354.498 79.9465 353.83 80.1742Z" fill="white"/>
<path d="M354.515 35.827C354.329 35.6706 354.066 35.6416 353.85 35.7534L336.713 44.6532C336.497 44.7652 336.37 44.9964 336.391 45.2393C336.411 45.4816 336.576 45.6881 336.809 45.7617L349.19 49.6788C349.858 49.8902 350.573 49.5188 350.785 48.8506L354.702 36.4697C354.775 36.2376 354.702 35.9843 354.515 35.8277L354.515 35.827Z" fill="white"/>
</g>
<g clip-path="url(#clip4_4001_42)">
<path d="M291.83 38.0807L243.498 28.7796C240.596 28.2212 237.791 30.1208 237.233 33.0224L227.932 81.3548C227.374 84.2565 229.273 87.0614 232.175 87.6198L280.507 96.9209C283.409 97.4793 286.214 95.5797 286.772 92.678L296.073 44.3457C296.632 41.444 294.732 38.6391 291.83 38.0807Z" fill="#006CB7"/>
<path d="M274.128 90.4949L240.483 84.0202C239.795 83.8877 239.343 83.2205 239.475 82.5322L245.935 48.9665C245.965 48.8096 246.056 48.6712 246.189 48.5822L262.177 37.754C262.31 37.6644 262.472 37.6309 262.629 37.661L283.521 41.6816C284.209 41.8141 284.661 42.4813 284.529 43.1695L275.615 89.4877C275.483 90.176 274.816 90.6278 274.127 90.4954L274.128 90.4949ZM247.07 49.4383L240.658 82.7597C240.651 82.7958 240.674 82.8311 240.711 82.838L274.356 89.3127C274.392 89.3197 274.427 89.2958 274.434 89.2597L283.348 42.9415C283.355 42.9054 283.331 42.8702 283.295 42.8632L262.646 38.8896L247.07 49.4383Z" fill="white"/>
<path d="M252.064 77.8867C251.443 78.0824 250.973 77.945 250.115 77.7812L250.92 73.5972C251.71 73.7615 252.181 73.7895 252.686 74.17C253.9 75.114 253.448 77.412 252.064 77.8867Z" fill="white"/>
<path d="M258.663 75.4783C257.67 76.238 257.089 79.259 259.055 79.6372C260.226 79.8626 260.909 78.9037 261.134 77.7327C261.596 75.3297 259.698 74.6961 258.663 75.4783ZM258.663 75.4783C257.67 76.238 257.089 79.259 259.055 79.6372C260.226 79.8626 260.909 78.9037 261.134 77.7327C261.596 75.3297 259.698 74.6961 258.663 75.4783ZM272.806 74.0713L247.808 69.2607C247.082 69.121 246.381 69.5957 246.241 70.3214L244.554 79.0921C244.414 79.8171 244.889 80.5187 245.614 80.6583L270.612 85.4689C271.338 85.6086 272.039 85.1333 272.178 84.4082L273.866 75.6376C274.006 74.9119 273.531 74.211 272.806 74.0713ZM253.063 79.0986C251.722 79.5964 250.403 79.0914 248.149 78.7025L249.435 72.0176C251.817 72.5085 254.283 72.5228 255.034 74.8202C255.208 75.3487 255.232 75.9356 255.107 76.5818C254.859 77.8736 253.989 78.7551 253.063 79.0986ZM261.52 80.444C259.631 81.7606 255.268 80.7318 256.033 76.7559C256.799 72.7801 261.219 73.4394 262.494 75.3567C262.988 76.0988 263.131 77.0076 262.925 78.0821C262.718 79.1565 262.251 79.9351 261.52 80.444ZM269.877 78.0742L269.679 78.0362C266.665 74.2714 264.096 79.6321 266.476 80.9143C267.401 81.4117 268.294 81.17 269.198 80.6343L269.378 80.669L269.07 82.2675C261.814 83.9577 262.514 74.3996 267.934 75.4427C268.606 75.572 269.234 75.7935 269.798 76.1758C269.947 76.2774 270.078 76.37 270.189 76.4534L269.877 78.0742ZM260.507 75.4375C258.19 73.9332 256.836 78.3263 258.446 79.3893C260.739 80.9163 262.151 76.5044 260.507 75.4375Z" fill="white"/>
<path d="M262.846 37.7488C262.643 37.615 262.379 37.6167 262.177 37.7529L246.188 48.5811C245.987 48.7174 245.887 48.9618 245.936 49.2007C245.985 49.4389 246.173 49.6249 246.412 49.6709L259.163 52.1248C259.852 52.2573 260.519 51.8054 260.651 51.1172L263.105 38.3653C263.151 38.1263 263.049 37.8832 262.845 37.7493L262.846 37.7488Z" fill="white"/>
</g>
<g clip-path="url(#clip5_4001_42)">
<path d="M113.566 29.2306L66.219 42.6761C63.3766 43.4833 61.7266 46.442 62.5338 49.2845L75.9794 96.6316C76.7866 99.474 79.7453 101.124 82.5877 100.317L129.935 86.8712C132.777 86.064 134.427 83.1053 133.62 80.2629L120.174 32.9158C119.367 30.0733 116.409 28.4234 113.566 29.2306Z" fill="#F93332"/>
<path d="M121.347 84.0033L88.3876 93.363C87.7134 93.5545 87.0096 93.162 86.8181 92.4878L77.4805 59.6063C77.4368 59.4525 77.4561 59.2879 77.5341 59.1489L86.9392 42.2836C87.0171 42.144 87.147 42.041 87.3002 41.9975L107.767 36.1854C108.441 35.994 109.145 36.3864 109.336 37.0607L122.222 82.4346C122.413 83.1088 122.021 83.8126 121.346 84.0041L121.347 84.0033ZM78.7065 59.5168L87.9761 92.1589C87.9862 92.1943 88.0234 92.215 88.0587 92.205L121.018 82.8452C121.053 82.8352 121.074 82.798 121.064 82.7626L108.179 37.3887C108.169 37.3533 108.132 37.3326 108.096 37.3426L87.8688 43.0868L78.7065 59.5168Z" fill="white"/>
<path d="M95.9794 80.3477C95.6842 80.7819 94.9945 80.9069 94.3917 81.0829L93.8359 79.1259C94.7122 78.8819 94.9242 78.7911 95.3454 78.8349C96.0582 78.9091 96.3074 79.8527 95.9794 80.3477Z" fill="white"/>
<path d="M102.272 76.9679C101.67 76.8586 101.227 77.0298 100.437 77.2512L101.601 81.3499C102.39 81.1122 104.425 80.8178 103.771 78.5146C103.544 77.7143 103.099 77.1309 102.272 76.9679ZM102.272 76.9679C101.67 76.8586 101.227 77.0298 100.437 77.2512L101.601 81.3499C102.39 81.1122 104.425 80.8178 103.771 78.5146C103.544 77.7143 103.099 77.1309 102.272 76.9679ZM112.781 69.9575L88.2926 76.9117C87.5817 77.1136 87.1694 77.8529 87.3713 78.5638L89.8112 87.1557C90.0129 87.8659 90.7524 88.2789 91.4633 88.077L115.952 81.1228C116.662 80.9209 117.075 80.181 116.873 79.4707L114.433 70.8788C114.231 70.1679 113.492 69.7557 112.781 69.9575ZM95.7938 82.0202L94.7426 82.3187L95.3484 84.4521L93.6596 84.9317L91.8 78.383C94.3511 77.6864 97.0694 76.3715 97.7917 78.9153C98.211 80.3918 97.307 81.5905 95.7938 82.0202ZM104.828 81.199C103.85 82.249 102.447 82.3905 100.261 83.057L98.4014 76.5084C100.742 75.877 102.958 74.7778 104.663 76.4913C105.055 76.8854 105.341 77.3986 105.521 78.0323C105.873 79.2739 105.517 80.4576 104.828 81.199ZM110.93 74.3194L107.917 75.175L108.263 76.3929L111.056 75.5998L111.416 76.8665L108.623 77.6596L109.417 80.4569L107.737 80.9339L105.878 74.3853L110.57 73.0527L110.93 74.3194ZM100.437 77.2512L101.601 81.3499C102.418 81.1109 102.915 81.0277 103.389 80.567C104.266 79.6734 103.833 78.1319 103.221 77.4756C102.367 76.5559 101.171 77.0546 100.437 77.2512Z" fill="white"/>
<path d="M87.5342 41.9776C87.2926 41.9496 87.0577 42.0698 86.9387 42.2823L77.5336 59.1476C77.4152 59.3599 77.4364 59.623 77.5874 59.8144C77.7382 60.0051 77.9894 60.0868 78.2236 60.0203L90.7154 56.4728C91.3896 56.2814 91.7821 55.5776 91.5907 54.9034L88.0432 42.4115C87.9767 42.1773 87.7759 42.0063 87.5337 41.9785L87.5342 41.9776Z" fill="white"/>
</g>
<rect x="102.5" y="200.5" width="233.152" height="44.4286" rx="10.5" fill="#1A1D34"/>
<rect x="102.5" y="200.5" width="233.152" height="44.4286" rx="10.5" stroke="url(#paint0_linear_4001_42)"/>
<path d="M131.864 227.938C131.071 227.938 130.38 227.794 129.792 227.504C129.214 227.215 128.756 226.814 128.42 226.3C128.084 225.787 127.888 225.19 127.832 224.508L129.386 224.41C129.452 224.877 129.587 225.274 129.792 225.6C129.998 225.918 130.273 226.16 130.618 226.328C130.973 226.487 131.398 226.566 131.892 226.566C132.322 226.566 132.686 226.515 132.984 226.412C133.292 226.3 133.526 226.137 133.684 225.922C133.843 225.708 133.922 225.446 133.922 225.138C133.922 224.858 133.852 224.611 133.712 224.396C133.582 224.172 133.325 223.972 132.942 223.794C132.569 223.608 132.018 223.426 131.29 223.248C130.497 223.052 129.862 222.838 129.386 222.604C128.91 222.371 128.565 222.082 128.35 221.736C128.145 221.382 128.042 220.948 128.042 220.434C128.042 219.865 128.178 219.366 128.448 218.936C128.728 218.498 129.125 218.157 129.638 217.914C130.152 217.672 130.768 217.55 131.486 217.55C132.242 217.55 132.886 217.69 133.418 217.97C133.96 218.25 134.384 218.633 134.692 219.118C135.01 219.604 135.206 220.159 135.28 220.784L133.726 220.868C133.68 220.486 133.563 220.15 133.376 219.86C133.19 219.562 132.938 219.333 132.62 219.174C132.303 219.006 131.916 218.922 131.458 218.922C130.88 218.922 130.422 219.058 130.086 219.328C129.76 219.59 129.596 219.94 129.596 220.378C129.596 220.658 129.662 220.896 129.792 221.092C129.932 221.279 130.175 221.442 130.52 221.582C130.875 221.722 131.374 221.872 132.018 222.03C132.877 222.226 133.558 222.469 134.062 222.758C134.576 223.038 134.94 223.37 135.154 223.752C135.369 224.135 135.476 224.569 135.476 225.054C135.476 225.642 135.322 226.156 135.014 226.594C134.716 227.024 134.296 227.355 133.754 227.588C133.213 227.822 132.583 227.938 131.864 227.938ZM139.736 227.882C138.99 227.882 138.392 227.635 137.944 227.14C137.506 226.636 137.286 225.941 137.286 225.054V220.266H138.77V224.676C138.77 225.348 138.887 225.843 139.12 226.16C139.354 226.478 139.708 226.636 140.184 226.636C140.726 226.636 141.146 226.464 141.444 226.118C141.752 225.764 141.906 225.269 141.906 224.634V220.266H143.39V227.714H142.004L141.976 225.768L142.186 225.852C142.056 226.506 141.78 227.01 141.36 227.364C140.94 227.71 140.399 227.882 139.736 227.882ZM145.489 227.714V220.266H146.847L146.889 222.114L146.721 222.058C146.805 221.648 146.95 221.298 147.155 221.008C147.37 220.719 147.631 220.495 147.939 220.336C148.247 220.178 148.583 220.098 148.947 220.098C149.582 220.098 150.1 220.28 150.501 220.644C150.903 220.999 151.155 221.489 151.257 222.114H151.019C151.103 221.676 151.243 221.312 151.439 221.022C151.645 220.724 151.906 220.495 152.223 220.336C152.541 220.178 152.9 220.098 153.301 220.098C153.824 220.098 154.267 220.21 154.631 220.434C155.005 220.649 155.285 220.966 155.471 221.386C155.667 221.806 155.765 222.32 155.765 222.926V227.714H154.281V223.29C154.281 222.646 154.165 222.161 153.931 221.834C153.698 221.508 153.343 221.344 152.867 221.344C152.559 221.344 152.289 221.424 152.055 221.582C151.822 221.741 151.64 221.97 151.509 222.268C151.388 222.567 151.327 222.926 151.327 223.346V227.714H149.913V223.346C149.913 222.712 149.806 222.222 149.591 221.876C149.386 221.522 149.031 221.344 148.527 221.344C148.21 221.344 147.935 221.424 147.701 221.582C147.477 221.741 147.3 221.974 147.169 222.282C147.039 222.581 146.973 222.936 146.973 223.346V227.714H145.489ZM157.616 227.714V220.266H158.974L159.016 222.114L158.848 222.058C158.932 221.648 159.077 221.298 159.282 221.008C159.497 220.719 159.758 220.495 160.066 220.336C160.374 220.178 160.71 220.098 161.074 220.098C161.709 220.098 162.227 220.28 162.628 220.644C163.03 220.999 163.282 221.489 163.384 222.114H163.146C163.23 221.676 163.37 221.312 163.566 221.022C163.772 220.724 164.033 220.495 164.35 220.336C164.668 220.178 165.027 220.098 165.428 220.098C165.951 220.098 166.394 220.21 166.758 220.434C167.132 220.649 167.412 220.966 167.598 221.386C167.794 221.806 167.892 222.32 167.892 222.926V227.714H166.408V223.29C166.408 222.646 166.292 222.161 166.058 221.834C165.825 221.508 165.47 221.344 164.994 221.344C164.686 221.344 164.416 221.424 164.182 221.582C163.949 221.741 163.767 221.97 163.636 222.268C163.515 222.567 163.454 222.926 163.454 223.346V227.714H162.04V223.346C162.04 222.712 161.933 222.222 161.718 221.876C161.513 221.522 161.158 221.344 160.654 221.344C160.337 221.344 160.062 221.424 159.828 221.582C159.604 221.741 159.427 221.974 159.296 222.282C159.166 222.581 159.1 222.936 159.1 223.346V227.714H157.616ZM171.939 227.882C171.164 227.882 170.543 227.705 170.077 227.35C169.619 226.996 169.391 226.496 169.391 225.852C169.391 225.208 169.582 224.709 169.965 224.354C170.357 223.99 170.959 223.729 171.771 223.57L174.333 223.08C174.333 222.502 174.197 222.072 173.927 221.792C173.656 221.503 173.255 221.358 172.723 221.358C172.247 221.358 171.873 221.466 171.603 221.68C171.332 221.886 171.145 222.194 171.043 222.604L169.517 222.506C169.657 221.76 170.002 221.172 170.553 220.742C171.113 220.313 171.836 220.098 172.723 220.098C173.731 220.098 174.496 220.369 175.019 220.91C175.551 221.442 175.817 222.194 175.817 223.164V226.062C175.817 226.24 175.845 226.366 175.901 226.44C175.966 226.506 176.069 226.538 176.209 226.538H176.475V227.714C176.428 227.724 176.353 227.733 176.251 227.742C176.148 227.752 176.041 227.756 175.929 227.756C175.611 227.756 175.336 227.705 175.103 227.602C174.879 227.5 174.711 227.332 174.599 227.098C174.487 226.856 174.431 226.534 174.431 226.132L174.585 226.202C174.51 226.529 174.347 226.818 174.095 227.07C173.852 227.322 173.539 227.523 173.157 227.672C172.783 227.812 172.377 227.882 171.939 227.882ZM172.177 226.706C172.625 226.706 173.007 226.622 173.325 226.454C173.642 226.277 173.889 226.034 174.067 225.726C174.244 225.418 174.333 225.068 174.333 224.676V224.2L172.149 224.62C171.701 224.704 171.383 224.84 171.197 225.026C171.019 225.204 170.931 225.432 170.931 225.712C170.931 226.03 171.038 226.277 171.253 226.454C171.477 226.622 171.785 226.706 172.177 226.706ZM177.728 227.714V220.266H179.086L179.142 222.24L179.016 222.198C179.118 221.526 179.324 221.036 179.632 220.728C179.949 220.42 180.374 220.266 180.906 220.266H181.62V221.596H180.906C180.532 221.596 180.22 221.657 179.968 221.778C179.716 221.9 179.524 222.086 179.394 222.338C179.272 222.59 179.212 222.917 179.212 223.318V227.714H177.728ZM182.841 227.714V220.266H184.325V227.714H182.841ZM182.813 219.188V217.704H184.353V219.188H182.813ZM186.171 227.714V226.384L190.665 221.484H186.311V220.266H192.373V221.596L187.837 226.496H192.485V227.714H186.171ZM196.968 227.882C196.24 227.882 195.61 227.724 195.078 227.406C194.555 227.089 194.149 226.636 193.86 226.048C193.58 225.46 193.44 224.774 193.44 223.99C193.44 223.206 193.58 222.525 193.86 221.946C194.149 221.358 194.555 220.906 195.078 220.588C195.6 220.262 196.216 220.098 196.926 220.098C197.598 220.098 198.19 220.257 198.704 220.574C199.217 220.882 199.614 221.33 199.894 221.918C200.183 222.506 200.328 223.216 200.328 224.046V224.424H194.98C195.017 225.152 195.208 225.698 195.554 226.062C195.908 226.426 196.384 226.608 196.982 226.608C197.42 226.608 197.784 226.506 198.074 226.3C198.363 226.095 198.564 225.82 198.676 225.474L200.216 225.572C200.02 226.263 199.632 226.823 199.054 227.252C198.484 227.672 197.789 227.882 196.968 227.882ZM194.98 223.304H198.76C198.713 222.642 198.522 222.152 198.186 221.834C197.859 221.517 197.439 221.358 196.926 221.358C196.394 221.358 195.955 221.526 195.61 221.862C195.274 222.189 195.064 222.67 194.98 223.304ZM208.228 227.714C207.519 227.714 206.996 227.551 206.66 227.224C206.324 226.898 206.156 226.389 206.156 225.698V218.516H207.64V225.586C207.64 225.932 207.715 226.17 207.864 226.3C208.014 226.431 208.242 226.496 208.55 226.496H209.614V227.714H208.228ZM205.022 221.484V220.266H209.614V221.484H205.022ZM211.032 227.714V217.774H212.516V221.946L212.334 221.918C212.418 221.498 212.572 221.158 212.796 220.896C213.02 220.626 213.296 220.425 213.622 220.294C213.949 220.164 214.308 220.098 214.7 220.098C215.242 220.098 215.699 220.22 216.072 220.462C216.446 220.696 216.726 221.027 216.912 221.456C217.108 221.886 217.206 222.376 217.206 222.926V227.714H215.722V223.318C215.722 222.646 215.606 222.152 215.372 221.834C215.148 221.508 214.794 221.344 214.308 221.344C213.767 221.344 213.333 221.517 213.006 221.862C212.68 222.198 212.516 222.693 212.516 223.346V227.714H211.032ZM219.167 227.714V220.266H220.651V227.714H219.167ZM219.139 219.188V217.704H220.679V219.188H219.139ZM225.483 227.882C224.783 227.882 224.19 227.775 223.705 227.56C223.229 227.346 222.86 227.052 222.599 226.678C222.337 226.296 222.188 225.857 222.151 225.362L223.677 225.292C223.751 225.703 223.929 226.03 224.209 226.272C224.489 226.515 224.913 226.636 225.483 226.636C225.949 226.636 226.318 226.562 226.589 226.412C226.859 226.263 226.995 226.025 226.995 225.698C226.995 225.521 226.948 225.372 226.855 225.25C226.771 225.12 226.603 225.012 226.351 224.928C226.099 224.835 225.725 224.746 225.231 224.662C224.493 224.522 223.915 224.359 223.495 224.172C223.075 223.986 222.776 223.748 222.599 223.458C222.421 223.169 222.333 222.819 222.333 222.408C222.333 221.727 222.585 221.172 223.089 220.742C223.602 220.313 224.339 220.098 225.301 220.098C225.945 220.098 226.486 220.21 226.925 220.434C227.363 220.649 227.704 220.943 227.947 221.316C228.199 221.68 228.357 222.091 228.423 222.548L226.897 222.632C226.85 222.371 226.757 222.147 226.617 221.96C226.486 221.764 226.309 221.615 226.085 221.512C225.861 221.4 225.595 221.344 225.287 221.344C224.811 221.344 224.456 221.438 224.223 221.624C223.989 221.811 223.873 222.054 223.873 222.352C223.873 222.576 223.924 222.758 224.027 222.898C224.139 223.038 224.316 223.155 224.559 223.248C224.801 223.332 225.123 223.407 225.525 223.472C226.299 223.603 226.906 223.766 227.345 223.962C227.783 224.149 228.091 224.382 228.269 224.662C228.446 224.942 228.535 225.283 228.535 225.684C228.535 226.151 228.404 226.548 228.143 226.874C227.881 227.201 227.522 227.453 227.065 227.63C226.607 227.798 226.08 227.882 225.483 227.882ZM236.223 227.882C235.589 227.882 235.033 227.724 234.557 227.406C234.091 227.089 233.731 226.641 233.479 226.062C233.237 225.474 233.115 224.784 233.115 223.99C233.115 223.197 233.241 222.511 233.493 221.932C233.745 221.344 234.105 220.892 234.571 220.574C235.038 220.257 235.589 220.098 236.223 220.098C236.737 220.098 237.194 220.206 237.595 220.42C237.997 220.635 238.3 220.934 238.505 221.316V217.774H239.989V227.714H238.603L238.561 226.594C238.356 226.996 238.043 227.313 237.623 227.546C237.213 227.77 236.746 227.882 236.223 227.882ZM236.615 226.594C237.017 226.594 237.357 226.492 237.637 226.286C237.917 226.081 238.132 225.782 238.281 225.39C238.431 224.998 238.505 224.532 238.505 223.99C238.505 223.43 238.431 222.959 238.281 222.576C238.132 222.184 237.917 221.89 237.637 221.694C237.357 221.489 237.017 221.386 236.615 221.386C236.018 221.386 235.542 221.62 235.187 222.086C234.833 222.544 234.655 223.178 234.655 223.99C234.655 224.793 234.833 225.428 235.187 225.894C235.542 226.361 236.018 226.594 236.615 226.594ZM245.024 227.882C244.315 227.882 243.694 227.724 243.162 227.406C242.63 227.089 242.22 226.636 241.93 226.048C241.641 225.46 241.496 224.774 241.496 223.99C241.496 223.197 241.641 222.511 241.93 221.932C242.22 221.354 242.63 220.906 243.162 220.588C243.694 220.262 244.315 220.098 245.024 220.098C245.734 220.098 246.354 220.262 246.886 220.588C247.418 220.906 247.829 221.354 248.118 221.932C248.408 222.511 248.552 223.197 248.552 223.99C248.552 224.774 248.408 225.46 248.118 226.048C247.829 226.636 247.418 227.089 246.886 227.406C246.354 227.724 245.734 227.882 245.024 227.882ZM245.024 226.594C245.659 226.594 246.149 226.366 246.494 225.908C246.84 225.442 247.012 224.802 247.012 223.99C247.012 223.178 246.84 222.544 246.494 222.086C246.149 221.62 245.659 221.386 245.024 221.386C244.399 221.386 243.909 221.62 243.554 222.086C243.209 222.544 243.036 223.178 243.036 223.99C243.036 224.802 243.209 225.442 243.554 225.908C243.909 226.366 244.399 226.594 245.024 226.594ZM253.118 227.882C252.409 227.882 251.788 227.724 251.256 227.406C250.724 227.089 250.313 226.636 250.024 226.048C249.735 225.46 249.59 224.774 249.59 223.99C249.59 223.206 249.735 222.525 250.024 221.946C250.313 221.358 250.724 220.906 251.256 220.588C251.788 220.262 252.409 220.098 253.118 220.098C253.725 220.098 254.261 220.206 254.728 220.42C255.204 220.626 255.587 220.929 255.876 221.33C256.175 221.732 256.366 222.222 256.45 222.8L254.896 222.884C254.821 222.399 254.625 222.03 254.308 221.778C253.991 221.517 253.594 221.386 253.118 221.386C252.493 221.386 252.003 221.62 251.648 222.086C251.303 222.544 251.13 223.178 251.13 223.99C251.13 224.802 251.303 225.442 251.648 225.908C252.003 226.366 252.493 226.594 253.118 226.594C253.594 226.594 253.991 226.464 254.308 226.202C254.625 225.932 254.821 225.526 254.896 224.984L256.45 225.068C256.366 225.638 256.175 226.132 255.876 226.552C255.587 226.972 255.204 227.299 254.728 227.532C254.261 227.766 253.725 227.882 253.118 227.882ZM262.101 227.714V219.79C262.101 219.174 262.274 218.684 262.619 218.32C262.964 217.956 263.506 217.774 264.243 217.774H265.559V218.992H264.439C264.15 218.992 263.935 219.072 263.795 219.23C263.655 219.38 263.585 219.594 263.585 219.874V227.714H262.101ZM261.065 221.568V220.364H265.447V221.568H261.065ZM269.593 227.882C268.883 227.882 268.263 227.724 267.731 227.406C267.199 227.089 266.788 226.636 266.499 226.048C266.209 225.46 266.065 224.774 266.065 223.99C266.065 223.197 266.209 222.511 266.499 221.932C266.788 221.354 267.199 220.906 267.731 220.588C268.263 220.262 268.883 220.098 269.593 220.098C270.302 220.098 270.923 220.262 271.455 220.588C271.987 220.906 272.397 221.354 272.687 221.932C272.976 222.511 273.121 223.197 273.121 223.99C273.121 224.774 272.976 225.46 272.687 226.048C272.397 226.636 271.987 227.089 271.455 227.406C270.923 227.724 270.302 227.882 269.593 227.882ZM269.593 226.594C270.227 226.594 270.717 226.366 271.063 225.908C271.408 225.442 271.581 224.802 271.581 223.99C271.581 223.178 271.408 222.544 271.063 222.086C270.717 221.62 270.227 221.386 269.593 221.386C268.967 221.386 268.477 221.62 268.123 222.086C267.777 222.544 267.605 223.178 267.605 223.99C267.605 224.802 267.777 225.442 268.123 225.908C268.477 226.366 268.967 226.594 269.593 226.594ZM274.62 227.714V220.266H275.978L276.034 222.24L275.908 222.198C276.011 221.526 276.216 221.036 276.524 220.728C276.842 220.42 277.266 220.266 277.798 220.266H278.512V221.596H277.798C277.425 221.596 277.112 221.657 276.86 221.778C276.608 221.9 276.417 222.086 276.286 222.338C276.165 222.59 276.104 222.917 276.104 223.318V227.714H274.62ZM283.534 227.714V220.266H284.892L284.934 222.114L284.766 222.058C284.85 221.648 284.995 221.298 285.2 221.008C285.415 220.719 285.676 220.495 285.984 220.336C286.292 220.178 286.628 220.098 286.992 220.098C287.627 220.098 288.145 220.28 288.546 220.644C288.948 220.999 289.2 221.489 289.302 222.114H289.064C289.148 221.676 289.288 221.312 289.484 221.022C289.69 220.724 289.951 220.495 290.268 220.336C290.586 220.178 290.945 220.098 291.346 220.098C291.869 220.098 292.312 220.21 292.676 220.434C293.05 220.649 293.33 220.966 293.516 221.386C293.712 221.806 293.81 222.32 293.81 222.926V227.714H292.326V223.29C292.326 222.646 292.21 222.161 291.976 221.834C291.743 221.508 291.388 221.344 290.912 221.344C290.604 221.344 290.334 221.424 290.1 221.582C289.867 221.741 289.685 221.97 289.554 222.268C289.433 222.567 289.372 222.926 289.372 223.346V227.714H287.958V223.346C287.958 222.712 287.851 222.222 287.636 221.876C287.431 221.522 287.076 221.344 286.572 221.344C286.255 221.344 285.98 221.424 285.746 221.582C285.522 221.741 285.345 221.974 285.214 222.282C285.084 222.581 285.018 222.936 285.018 223.346V227.714H283.534ZM298.823 227.882C298.095 227.882 297.465 227.724 296.933 227.406C296.41 227.089 296.004 226.636 295.715 226.048C295.435 225.46 295.295 224.774 295.295 223.99C295.295 223.206 295.435 222.525 295.715 221.946C296.004 221.358 296.41 220.906 296.933 220.588C297.456 220.262 298.072 220.098 298.781 220.098C299.453 220.098 300.046 220.257 300.559 220.574C301.072 220.882 301.469 221.33 301.749 221.918C302.038 222.506 302.183 223.216 302.183 224.046V224.424H296.835C296.872 225.152 297.064 225.698 297.409 226.062C297.764 226.426 298.24 226.608 298.837 226.608C299.276 226.608 299.64 226.506 299.929 226.3C300.218 226.095 300.419 225.82 300.531 225.474L302.071 225.572C301.875 226.263 301.488 226.823 300.909 227.252C300.34 227.672 299.644 227.882 298.823 227.882ZM296.835 223.304H300.615C300.568 222.642 300.377 222.152 300.041 221.834C299.714 221.517 299.294 221.358 298.781 221.358C298.249 221.358 297.81 221.526 297.465 221.862C297.129 222.189 296.919 222.67 296.835 223.304ZM305.405 224.788C305.405 224.088 305.508 223.542 305.713 223.15C305.928 222.749 306.282 222.408 306.777 222.128C307.132 221.923 307.402 221.741 307.589 221.582C307.776 221.424 307.897 221.256 307.953 221.078C308.018 220.901 308.051 220.682 308.051 220.42C308.051 219.982 307.906 219.622 307.617 219.342C307.328 219.053 306.922 218.908 306.399 218.908C305.783 218.908 305.307 219.072 304.971 219.398C304.635 219.716 304.434 220.182 304.369 220.798L302.801 220.714C302.857 220.098 303.034 219.552 303.333 219.076C303.632 218.6 304.038 218.227 304.551 217.956C305.074 217.686 305.69 217.55 306.399 217.55C307.052 217.55 307.617 217.676 308.093 217.928C308.578 218.171 308.952 218.507 309.213 218.936C309.474 219.366 309.605 219.86 309.605 220.42C309.605 220.822 309.544 221.167 309.423 221.456C309.302 221.736 309.11 221.998 308.849 222.24C308.597 222.474 308.266 222.716 307.855 222.968C307.491 223.192 307.239 223.435 307.099 223.696C306.968 223.948 306.903 224.312 306.903 224.788H305.405ZM305.223 227.714V225.95H307.029V227.714H305.223Z" fill="white"/>
<path d="M253.52 192.141C253.598 192.406 253.876 192.557 254.141 192.48L258.459 191.214C258.724 191.136 258.876 190.859 258.798 190.594C258.72 190.329 258.443 190.177 258.178 190.254L254.339 191.38L253.214 187.541C253.136 187.276 252.859 187.124 252.594 187.202C252.329 187.28 252.177 187.557 252.254 187.822L253.52 192.141ZM253.557 97.2326C262.537 114.321 275.206 152.165 253.561 191.76L254.439 192.24C276.312 152.226 263.498 114 254.443 96.7674L253.557 97.2326Z" fill="#CEC1F1"/>
<path d="M298.112 196.787C298.09 197.062 298.294 197.304 298.569 197.326L303.054 197.696C303.329 197.718 303.571 197.514 303.594 197.239C303.616 196.963 303.412 196.722 303.136 196.699L299.15 196.371L299.478 192.384C299.501 192.109 299.296 191.868 299.021 191.845C298.746 191.822 298.504 192.027 298.482 192.302L298.112 196.787ZM336.464 92.0482C338.425 105.974 341.124 121.659 337.223 139.074C333.327 156.469 322.831 175.638 298.287 196.447L298.934 197.21C323.61 176.288 334.246 156.938 338.199 139.293C342.146 121.668 339.409 105.793 337.454 91.9088L336.464 92.0482Z" fill="#CEC1F1"/>
<path d="M336.613 226.183C336.438 226.397 336.469 226.712 336.683 226.887L340.166 229.736C340.38 229.911 340.695 229.88 340.87 229.666C341.044 229.452 341.013 229.137 340.799 228.963L337.703 226.43L340.236 223.334C340.411 223.12 340.38 222.805 340.166 222.63C339.952 222.455 339.637 222.487 339.462 222.7L336.613 226.183ZM400.006 165.424C397.517 181.604 391.674 195.748 381.514 206.342C371.36 216.929 356.852 224.012 336.95 226.002L337.049 226.997C357.148 224.988 371.89 217.821 382.236 207.034C392.576 196.252 398.483 181.897 400.994 165.576L400.006 165.424Z" fill="#CEC1F1"/>
<path d="M164.479 197.84C164.742 197.756 164.887 197.475 164.803 197.211L163.435 192.924C163.351 192.661 163.07 192.516 162.807 192.6C162.544 192.684 162.399 192.965 162.483 193.229L163.699 197.039L159.888 198.255C159.625 198.339 159.48 198.621 159.564 198.884C159.648 199.147 159.929 199.292 160.192 199.208L164.479 197.84ZM111.945 92.15C105.487 119.842 114.093 171.998 164.098 197.808L164.556 196.919C115.052 171.368 106.539 119.735 112.919 92.3771L111.945 92.15Z" fill="#CEC1F1"/>
<path d="M99.065 224.456C99.2694 224.271 99.2845 223.955 99.0987 223.75L96.0721 220.42C95.8863 220.216 95.5701 220.201 95.3658 220.386C95.1614 220.572 95.1463 220.888 95.3321 221.093L98.0224 224.053L95.0624 226.743C94.858 226.929 94.8429 227.245 95.0287 227.449C95.2144 227.654 95.5306 227.669 95.735 227.483L99.065 224.456ZM20.947 164.439C23.1157 175.157 31.8322 189.674 45.332 201.758C58.8436 213.852 77.201 223.56 98.7049 224.586L98.7526 223.587C77.5276 222.574 59.3804 212.99 45.9989 201.012C32.6057 189.024 24.0407 174.686 21.9271 164.241L20.947 164.439Z" fill="#CEC1F1"/>
<path d="M218.343 198.933C218.619 198.943 218.851 198.727 218.861 198.451L219.026 193.954C219.036 193.678 218.82 193.446 218.545 193.436C218.269 193.426 218.037 193.642 218.027 193.918L217.88 197.915L213.883 197.768C213.607 197.758 213.375 197.974 213.365 198.25C213.355 198.526 213.57 198.758 213.846 198.768L218.343 198.933ZM186.845 63.2601C180.419 90.8134 168.594 145.613 217.995 198.773L218.728 198.093C169.691 145.324 181.406 90.9836 187.819 63.4873L186.845 63.2601Z" fill="#CEC1F1"/>
<g clip-path="url(#clip6_4001_42)">
<path d="M272.332 327.275C272.332 323.164 270.699 319.222 267.793 316.315L238.517 287.04C235.61 284.133 231.668 282.5 227.557 282.5H180.125C174.908 282.5 170.666 286.742 170.666 291.959V413.041C170.666 418.258 174.908 422.5 180.125 422.5H262.873C268.091 422.5 272.332 418.258 272.332 413.041V327.275Z" fill="url(#paint1_linear_4001_42)" stroke="url(#paint2_linear_4001_42)"/>
<path d="M271.834 321.062H242.73C237.789 321.062 233.771 317.044 233.771 312.103V283L271.834 321.062Z" fill="url(#paint3_linear_4001_42)"/>
</g>
<path d="M181.12 337V327.06H182.94V331.806L182.1 331.204H187.952L187.126 331.806V327.06H188.946V337H187.126V332.198L187.952 332.786H182.1L182.94 332.198V337H181.12ZM194.14 337.168C193.393 337.168 192.744 337.009 192.194 336.692C191.643 336.365 191.218 335.908 190.92 335.32C190.621 334.732 190.472 334.046 190.472 333.262C190.472 332.478 190.621 331.797 190.92 331.218C191.218 330.63 191.638 330.173 192.18 329.846C192.73 329.519 193.37 329.356 194.098 329.356C194.807 329.356 195.428 329.515 195.96 329.832C196.501 330.149 196.916 330.607 197.206 331.204C197.495 331.801 197.64 332.52 197.64 333.36V333.766H192.334C192.371 334.419 192.548 334.914 192.866 335.25C193.192 335.577 193.622 335.74 194.154 335.74C194.555 335.74 194.886 335.651 195.148 335.474C195.418 335.287 195.605 335.031 195.708 334.704L197.542 334.816C197.336 335.544 196.93 336.118 196.324 336.538C195.726 336.958 194.998 337.168 194.14 337.168ZM192.334 332.562H195.792C195.754 331.955 195.582 331.507 195.274 331.218C194.966 330.919 194.574 330.77 194.098 330.77C193.622 330.77 193.225 330.924 192.908 331.232C192.6 331.54 192.408 331.983 192.334 332.562ZM199.041 337V329.524H200.721L200.791 331.596L200.637 331.568C200.749 330.849 200.959 330.331 201.267 330.014C201.584 329.687 202.013 329.524 202.555 329.524H203.241V331.064H202.541C202.158 331.064 201.841 331.12 201.589 331.232C201.337 331.344 201.145 331.521 201.015 331.764C200.893 331.997 200.833 332.305 200.833 332.688V337H199.041ZM207.443 337.168C206.696 337.168 206.047 337.009 205.497 336.692C204.946 336.365 204.521 335.908 204.223 335.32C203.924 334.732 203.775 334.046 203.775 333.262C203.775 332.478 203.924 331.797 204.223 331.218C204.521 330.63 204.941 330.173 205.483 329.846C206.033 329.519 206.673 329.356 207.401 329.356C208.11 329.356 208.731 329.515 209.263 329.832C209.804 330.149 210.219 330.607 210.509 331.204C210.798 331.801 210.943 332.52 210.943 333.36V333.766H205.637C205.674 334.419 205.851 334.914 206.169 335.25C206.495 335.577 206.925 335.74 207.457 335.74C207.858 335.74 208.189 335.651 208.451 335.474C208.721 335.287 208.908 335.031 209.011 334.704L210.845 334.816C210.639 335.544 210.233 336.118 209.627 336.538C209.029 336.958 208.301 337.168 207.443 337.168ZM205.637 332.562H209.095C209.057 331.955 208.885 331.507 208.577 331.218C208.269 330.919 207.877 330.77 207.401 330.77C206.925 330.77 206.528 330.924 206.211 331.232C205.903 331.54 205.711 331.983 205.637 332.562ZM212.228 331.232L212.956 329.02H212.102V327.06H214.146V328.796L213.222 331.232H212.228ZM218.772 337.168C218.035 337.168 217.414 337.061 216.91 336.846C216.415 336.631 216.033 336.333 215.762 335.95C215.491 335.567 215.337 335.133 215.3 334.648L217.134 334.564C217.199 334.956 217.363 335.259 217.624 335.474C217.885 335.689 218.273 335.796 218.786 335.796C219.206 335.796 219.533 335.731 219.766 335.6C220.009 335.46 220.13 335.245 220.13 334.956C220.13 334.788 220.088 334.648 220.004 334.536C219.92 334.424 219.761 334.326 219.528 334.242C219.295 334.158 218.949 334.074 218.492 333.99C217.727 333.859 217.125 333.701 216.686 333.514C216.247 333.318 215.935 333.075 215.748 332.786C215.571 332.497 215.482 332.137 215.482 331.708C215.482 331.008 215.748 330.443 216.28 330.014C216.821 329.575 217.61 329.356 218.646 329.356C219.318 329.356 219.883 329.468 220.34 329.692C220.797 329.907 221.152 330.205 221.404 330.588C221.665 330.961 221.829 331.391 221.894 331.876L220.088 331.96C220.041 331.708 219.957 331.489 219.836 331.302C219.715 331.115 219.551 330.975 219.346 330.882C219.141 330.779 218.898 330.728 218.618 330.728C218.198 330.728 217.881 330.812 217.666 330.98C217.451 331.148 217.344 331.372 217.344 331.652C217.344 331.848 217.391 332.011 217.484 332.142C217.587 332.273 217.75 332.38 217.974 332.464C218.198 332.539 218.497 332.609 218.87 332.674C219.654 332.795 220.27 332.954 220.718 333.15C221.175 333.337 221.497 333.579 221.684 333.878C221.88 334.167 221.978 334.517 221.978 334.928C221.978 335.404 221.843 335.81 221.572 336.146C221.311 336.482 220.937 336.739 220.452 336.916C219.976 337.084 219.416 337.168 218.772 337.168ZM227.354 339.1V337.714H228.306C228.548 337.714 228.726 337.677 228.838 337.602C228.959 337.527 229.052 337.401 229.118 337.224L229.328 336.706H228.81L226.136 329.524H227.998L229.874 335.026L231.666 329.524H233.528L230.602 337.784C230.434 338.251 230.196 338.587 229.888 338.792C229.589 338.997 229.169 339.1 228.628 339.1H227.354ZM237.658 337.168C236.92 337.168 236.272 337.009 235.712 336.692C235.161 336.365 234.732 335.908 234.424 335.32C234.125 334.732 233.976 334.046 233.976 333.262C233.976 332.469 234.125 331.783 234.424 331.204C234.732 330.616 235.161 330.163 235.712 329.846C236.272 329.519 236.92 329.356 237.658 329.356C238.395 329.356 239.039 329.519 239.59 329.846C240.14 330.163 240.565 330.616 240.864 331.204C241.172 331.783 241.326 332.469 241.326 333.262C241.326 334.046 241.172 334.732 240.864 335.32C240.565 335.908 240.14 336.365 239.59 336.692C239.039 337.009 238.395 337.168 237.658 337.168ZM237.658 335.712C238.236 335.712 238.68 335.497 238.988 335.068C239.305 334.639 239.464 334.037 239.464 333.262C239.464 332.497 239.305 331.899 238.988 331.47C238.68 331.031 238.236 330.812 237.658 330.812C237.079 330.812 236.631 331.031 236.314 331.47C235.996 331.899 235.838 332.497 235.838 333.262C235.838 334.037 235.996 334.639 236.314 335.068C236.631 335.497 237.079 335.712 237.658 335.712ZM245.173 337.168C244.417 337.168 243.815 336.921 243.367 336.426C242.928 335.922 242.709 335.227 242.709 334.34V329.524H244.501V333.892C244.501 334.517 244.603 334.979 244.809 335.278C245.023 335.567 245.345 335.712 245.775 335.712C246.26 335.712 246.633 335.553 246.895 335.236C247.165 334.909 247.301 334.438 247.301 333.822V329.524H249.093V337H247.455L247.413 334.942L247.637 335.012C247.525 335.721 247.259 336.258 246.839 336.622C246.419 336.986 245.863 337.168 245.173 337.168ZM251.062 337V329.524H252.742L252.812 331.596L252.658 331.568C252.77 330.849 252.98 330.331 253.288 330.014C253.605 329.687 254.035 329.524 254.576 329.524H255.262V331.064H254.562C254.179 331.064 253.862 331.12 253.61 331.232C253.358 331.344 253.167 331.521 253.036 331.764C252.915 331.997 252.854 332.305 252.854 332.688V337H251.062ZM180.98 355V347.524H182.66L182.73 349.596L182.576 349.568C182.688 348.849 182.898 348.331 183.206 348.014C183.523 347.687 183.953 347.524 184.494 347.524H185.18V349.064H184.48C184.097 349.064 183.78 349.12 183.528 349.232C183.276 349.344 183.085 349.521 182.954 349.764C182.833 349.997 182.772 350.305 182.772 350.688V355H180.98ZM189.382 355.168C188.635 355.168 187.987 355.009 187.436 354.692C186.885 354.365 186.461 353.908 186.162 353.32C185.863 352.732 185.714 352.046 185.714 351.262C185.714 350.478 185.863 349.797 186.162 349.218C186.461 348.63 186.881 348.173 187.422 347.846C187.973 347.519 188.612 347.356 189.34 347.356C190.049 347.356 190.67 347.515 191.202 347.832C191.743 348.149 192.159 348.607 192.448 349.204C192.737 349.801 192.882 350.52 192.882 351.36V351.766H187.576C187.613 352.419 187.791 352.914 188.108 353.25C188.435 353.577 188.864 353.74 189.396 353.74C189.797 353.74 190.129 353.651 190.39 353.474C190.661 353.287 190.847 353.031 190.95 352.704L192.784 352.816C192.579 353.544 192.173 354.118 191.566 354.538C190.969 354.958 190.241 355.168 189.382 355.168ZM187.576 350.562H191.034C190.997 349.955 190.824 349.507 190.516 349.218C190.208 348.919 189.816 348.77 189.34 348.77C188.864 348.77 188.467 348.924 188.15 349.232C187.842 349.54 187.651 349.983 187.576 350.562ZM194.283 357.1V347.524H196.005L196.047 349.12L195.865 349.036C196.051 348.485 196.355 348.07 196.775 347.79C197.204 347.501 197.703 347.356 198.273 347.356C198.982 347.356 199.57 347.533 200.037 347.888C200.513 348.243 200.867 348.714 201.101 349.302C201.334 349.89 201.451 350.543 201.451 351.262C201.451 351.981 201.329 352.634 201.087 353.222C200.853 353.81 200.499 354.281 200.023 354.636C199.556 354.991 198.968 355.168 198.259 355.168C197.885 355.168 197.535 355.103 197.209 354.972C196.891 354.841 196.616 354.655 196.383 354.412C196.159 354.169 196 353.885 195.907 353.558L196.075 353.418V357.1H194.283ZM197.839 353.712C198.38 353.712 198.805 353.497 199.113 353.068C199.43 352.629 199.589 352.027 199.589 351.262C199.589 350.497 199.43 349.899 199.113 349.47C198.805 349.031 198.38 348.812 197.839 348.812C197.475 348.812 197.162 348.905 196.901 349.092C196.639 349.269 196.434 349.54 196.285 349.904C196.145 350.268 196.075 350.721 196.075 351.262C196.075 351.803 196.145 352.256 196.285 352.62C196.425 352.984 196.625 353.259 196.887 353.446C197.157 353.623 197.475 353.712 197.839 353.712ZM206.089 355.168C205.352 355.168 204.703 355.009 204.143 354.692C203.593 354.365 203.163 353.908 202.855 353.32C202.557 352.732 202.407 352.046 202.407 351.262C202.407 350.469 202.557 349.783 202.855 349.204C203.163 348.616 203.593 348.163 204.143 347.846C204.703 347.519 205.352 347.356 206.089 347.356C206.827 347.356 207.471 347.519 208.021 347.846C208.572 348.163 208.997 348.616 209.295 349.204C209.603 349.783 209.757 350.469 209.757 351.262C209.757 352.046 209.603 352.732 209.295 353.32C208.997 353.908 208.572 354.365 208.021 354.692C207.471 355.009 206.827 355.168 206.089 355.168ZM206.089 353.712C206.668 353.712 207.111 353.497 207.419 353.068C207.737 352.639 207.895 352.037 207.895 351.262C207.895 350.497 207.737 349.899 207.419 349.47C207.111 349.031 206.668 348.812 206.089 348.812C205.511 348.812 205.063 349.031 204.745 349.47C204.428 349.899 204.269 350.497 204.269 351.262C204.269 352.037 204.428 352.639 204.745 353.068C205.063 353.497 205.511 353.712 206.089 353.712ZM211.14 355V347.524H212.82L212.89 349.596L212.736 349.568C212.848 348.849 213.058 348.331 213.366 348.014C213.683 347.687 214.113 347.524 214.654 347.524H215.34V349.064H214.64C214.257 349.064 213.94 349.12 213.688 349.232C213.436 349.344 213.245 349.521 213.114 349.764C212.993 349.997 212.932 350.305 212.932 350.688V355H211.14ZM219.331 355C218.585 355 218.034 354.827 217.679 354.482C217.334 354.137 217.161 353.595 217.161 352.858V345.774H218.953V352.69C218.953 353.035 219.028 353.278 219.177 353.418C219.327 353.549 219.56 353.614 219.877 353.614H220.927V355H219.331ZM215.985 348.91V347.524H220.927V348.91H215.985Z" fill="#CEC1F1" fill-opacity="0.7"/>
<g filter="url(#filter1_b_4001_42)">
<circle cx="170" cy="294" r="22" fill="url(#paint4_radial_4001_42)" fill-opacity="0.5"/>
</g>
<path d="M181.679 280.497L181.924 282.675C182.073 284 183.118 285.044 184.443 285.194L186.621 285.44L184.443 285.685C183.118 285.834 182.074 286.879 181.924 288.204L181.679 290.382L181.433 288.204C181.285 286.879 180.239 285.835 178.914 285.685L176.736 285.44L178.914 285.194C180.239 285.045 181.283 284 181.433 282.675L181.679 280.497Z" fill="white"/>
<path d="M177.559 278.366L177.71 279.706C177.802 280.522 178.445 281.164 179.26 281.257L180.601 281.408L179.26 281.559C178.445 281.65 177.803 282.294 177.71 283.109L177.559 284.449L177.408 283.109C177.317 282.294 176.673 281.651 175.858 281.559L174.518 281.408L175.858 281.257C176.673 281.165 177.316 280.522 177.408 279.706L177.559 278.366Z" fill="#FFB921"/>
<path d="M157.624 296.522C157.98 296.758 158.669 298.154 159.031 298.601C159.507 299.19 160.167 299.726 160.78 300.166C163.309 301.981 166.689 302.635 169.749 302.123C169.447 302.315 169.117 302.44 168.787 302.575C167.341 303.12 165.817 303.443 164.265 303.368C162.226 303.269 159.899 302.418 158.513 300.87C157.467 299.702 157.549 297.999 157.624 296.522Z" fill="white"/>
<path d="M167.16 284.245L167.239 284.238L167.272 284.278C164.545 285.719 162.637 287.671 161.706 290.672C160.946 293.121 161.25 295.651 162.451 297.904C163.653 300.156 165.37 301.38 167.782 302.108C166.845 301.999 165.94 301.891 165.019 301.686C163.735 301.304 162.543 300.81 161.467 299.994C159.715 298.665 158.524 296.809 158.228 294.619C157.918 292.333 158.696 290.074 160.089 288.266C161.768 286.086 164.433 284.589 167.16 284.245Z" fill="#333044"/>
<path d="M174.127 293.867C174.97 294.838 175.506 297.202 175.56 298.474C175.665 300.961 174.787 303.497 173.082 305.327C171.528 306.994 169.451 307.964 167.164 308.03C164.696 308.101 162.478 306.991 160.715 305.335C159.739 304.313 159.055 303.234 158.48 301.948C158.708 302.173 158.936 302.398 159.191 302.593C161.028 304.003 163.648 304.39 165.896 304.093C168.507 303.749 171.062 302.479 172.674 300.368C174.17 298.409 174.448 296.241 174.126 293.867L174.127 293.867Z" fill="white"/>
<path d="M170.474 284.505C171.541 284.41 172.767 284.64 173.771 284.991C176.608 285.981 178.281 288.179 179.549 290.77C179.388 290.586 179.219 290.408 179.043 290.237C177.493 288.758 175.224 288.209 173.134 288.281C169.986 288.39 167.419 289.828 165.316 292.096C165.064 292.406 164.822 292.719 164.612 293.059C163.274 295.223 163.362 297.391 163.934 299.766C162.91 298.245 162.117 296.688 161.935 294.836C161.692 292.371 162.509 289.654 164.097 287.745C165.705 285.812 167.99 284.723 170.474 284.505Z" fill="#FFB921"/>
<path d="M172.448 289.169C173.153 289.096 173.906 289.129 174.606 289.231C176.489 289.504 178.425 290.437 179.575 291.988C180.744 293.568 180.948 295.796 180.658 297.683C180.335 296.356 179.78 295.163 178.917 294.097C177.108 291.859 174.665 290.665 171.833 290.373L171.896 290.441C172.161 290.485 172.424 290.541 172.684 290.609C172.945 290.676 173.202 290.754 173.455 290.844C173.709 290.934 173.958 291.034 174.203 291.145C174.448 291.256 174.688 291.378 174.922 291.51C177.039 292.698 178.99 294.79 179.641 297.163C180.251 299.382 179.679 301.481 178.575 303.434C178.281 303.875 177.976 304.301 177.633 304.706C175.577 307.13 172.664 308.23 169.564 308.482C171.846 307.727 173.822 305.984 175.014 303.914C176.234 301.796 176.614 299.295 175.963 296.93C175.386 294.832 174.104 292.829 172.17 291.754C170.262 290.694 168.603 290.763 166.576 291.335C168.313 289.998 170.281 289.345 172.448 289.169L172.448 289.169Z" fill="#333044"/>
<defs>
<filter id="filter0_d_4001_42" x="208.25" y="247" width="23.5" height="32.7899" filterUnits="userSpaceOnUse" color-interpolation-filters="sRGB">
<feFlood flood-opacity="0" result="BackgroundImageFix"/>
<feColorMatrix in="SourceAlpha" type="matrix" values="0 0 0 0 0 0 0 0 0 0 0 0 0 0 0 0 0 0 127 0" result="hardAlpha"/>
<feOffset/>
<feGaussianBlur stdDeviation="2"/>
<feComposite in2="hardAlpha" operator="out"/>
<feColorMatrix type="matrix" values="0 0 0 0 0.980392 0 0 0 0 0.0431373 0 0 0 0 0.277451 0 0 0 1 0"/>
<feBlend mode="normal" in2="BackgroundImageFix" result="effect1_dropShadow_4001_42"/>
<feBlend mode="normal" in="SourceGraphic" in2="effect1_dropShadow_4001_42" result="shape"/>
</filter>
<filter id="filter1_b_4001_42" x="144" y="268" width="52" height="52" filterUnits="userSpaceOnUse" color-interpolation-filters="sRGB">
<feFlood flood-opacity="0" result="BackgroundImageFix"/>
<feGaussianBlur in="BackgroundImageFix" stdDeviation="2"/>
<feComposite in2="SourceAlpha" operator="in" result="effect1_backgroundBlur_4001_42"/>
<feBlend mode="normal" in="SourceGraphic" in2="effect1_backgroundBlur_4001_42" result="shape"/>
</filter>
<linearGradient id="paint0_linear_4001_42" x1="219.076" y1="201" x2="219.076" y2="244.429" gradientUnits="userSpaceOnUse">
<stop stop-color="#443F51"/>
<stop offset="0.67" stop-color="#776C94"/>
<stop offset="1" stop-color="#443F51"/>
</linearGradient>
<linearGradient id="paint1_linear_4001_42" x1="221.499" y1="283" x2="221" y2="382.5" gradientUnits="userSpaceOnUse">
<stop stop-color="#7544FF" stop-opacity="0.2"/>
<stop offset="1" stop-color="#0C0E19"/>
</linearGradient>
<linearGradient id="paint2_linear_4001_42" x1="221.499" y1="283" x2="221.499" y2="422" gradientUnits="userSpaceOnUse">
<stop stop-color="#443F51"/>
<stop offset="0.67" stop-color="#5A4E78"/>
<stop offset="1" stop-color="#443F51"/>
</linearGradient>
<linearGradient id="paint3_linear_4001_42" x1="252.803" y1="283" x2="264.125" y2="320.963" gradientUnits="userSpaceOnUse">
<stop stop-color="#7544FF" stop-opacity="0.2"/>
<stop offset="1" stop-color="#8559F4"/>
</linearGradient>
<radialGradient id="paint4_radial_4001_42" cx="0" cy="0" r="1" gradientUnits="userSpaceOnUse" gradientTransform="translate(170 294) rotate(45) scale(22)">
<stop stop-color="white"/>
<stop offset="1" stop-color="#831EFF"/>
</radialGradient>
<clipPath id="clip0_4001_42">
<rect width="52.4298" height="52.4298" fill="white" transform="translate(15.7676 106.979) rotate(16.5737)"/>
</clipPath>
<clipPath id="clip1_4001_42">
<rect width="54.5698" height="54.5698" fill="white" transform="translate(396.621 105.585) rotate(19.6905)"/>
</clipPath>
<clipPath id="clip2_4001_42">
<rect width="56.2797" height="56.2797" fill="white" transform="translate(149.588 10.1543) rotate(-9.64261)"/>
</clipPath>
<clipPath id="clip3_4001_42">
<rect width="59.9198" height="59.9198" fill="white" transform="translate(331.236 23.0596) rotate(17.5564)"/>
</clipPath>
<clipPath id="clip4_4001_42">
<rect width="59.9198" height="59.9198" fill="white" transform="translate(238.244 27.7686) rotate(10.8929)"/>
</clipPath>
<clipPath id="clip5_4001_42">
<rect width="59.9198" height="59.9198" fill="white" transform="translate(61.0723 44.1377) rotate(-15.8534)"/>
</clipPath>
<clipPath id="clip6_4001_42">
<rect width="139" height="93" fill="white" transform="translate(152 282)"/>
</clipPath>
</defs>
</svg>
