<svg width="42" height="56" viewBox="0 0 42 56" fill="none" xmlns="http://www.w3.org/2000/svg">
<ellipse cx="28.5" cy="44" rx="6.5" ry="9" fill="url(#paint0_linear_134_578)"/>
<path d="M28.7322 30.7153C26.2318 30.7153 23.7875 31.4568 21.7085 32.846C19.6295 34.2351 18.0091 36.2096 17.0522 38.5197C16.0953 40.8298 15.845 43.3717 16.3328 45.8241C16.8206 48.2765 18.0246 50.5291 19.7927 52.2972C21.5608 54.0653 23.8134 55.2693 26.2658 55.7571C28.7182 56.2449 31.2601 55.9946 33.5702 55.0377C35.8803 54.0808 37.8548 52.4604 39.2439 50.3814C40.6331 48.3024 41.3746 45.8581 41.3746 43.3577C41.3685 40.0066 40.0346 36.7945 37.665 34.4249C35.2954 32.0553 32.0833 30.7214 28.7322 30.7153ZM34.1339 41.8636C34.0271 41.9713 33.9 42.0568 33.7599 42.1152C33.6199 42.1735 33.4697 42.2036 33.3179 42.2036C33.1662 42.2036 33.016 42.1735 32.8759 42.1152C32.7359 42.0568 32.6088 41.9713 32.5019 41.8636L29.8815 39.2432V50.2535C29.8815 50.5583 29.7604 50.8507 29.5449 51.0662C29.3294 51.2817 29.037 51.4028 28.7322 51.4028C28.4274 51.4028 28.1351 51.2817 27.9195 51.0662C27.704 50.8507 27.5829 50.5583 27.5829 50.2535V39.2432L24.9395 41.8866C24.7231 42.103 24.4296 42.2246 24.1235 42.2246C23.8174 42.2246 23.5239 42.103 23.3075 41.8866C23.0911 41.6702 22.9695 41.3766 22.9695 41.0706C22.9695 40.7645 23.0911 40.471 23.3075 40.2546L27.9047 35.6573C28.0116 35.5496 28.1387 35.4641 28.2787 35.4058C28.4188 35.3474 28.569 35.3174 28.7207 35.3174C28.8724 35.3174 29.0227 35.3474 29.1627 35.4058C29.3028 35.4641 29.4299 35.5496 29.5367 35.6573L34.1339 40.2546C34.3445 40.4694 34.4625 40.7582 34.4625 41.0591C34.4625 41.3599 34.3445 41.6488 34.1339 41.8636Z" fill="url(#paint1_linear_134_578)"/>
<path d="M28.7326 28.4168C29.4481 28.4192 30.1625 28.473 30.8703 28.5777C31.0345 28.6023 31.202 28.5903 31.3609 28.5427C31.5199 28.495 31.6663 28.4128 31.7898 28.3019C31.9138 28.1929 32.013 28.0585 32.0804 27.9078C32.1478 27.757 32.182 27.5935 32.1805 27.4284V11.1772C32.1762 10.8741 32.0523 10.5849 31.8358 10.3727L22.6413 1.17829C22.4291 0.961742 22.1399 0.837814 21.8368 0.833496L4.59722 0.833496C3.37796 0.833496 2.20864 1.31784 1.34649 2.17999C0.484348 3.04214 0 4.21146 0 5.43072V39.9099C0 41.1291 0.484348 42.2985 1.34649 43.1606C2.20864 44.0228 3.37796 44.5071 4.59722 44.5071H12.6424C12.9472 44.5071 13.2395 44.386 13.455 44.1705C13.6706 43.9549 13.7917 43.6626 13.7917 43.3578C13.7977 39.3971 15.3738 35.6003 18.1745 32.7996C20.9751 29.999 24.7719 28.4229 28.7326 28.4168ZM25.2847 10.0279C24.6751 10.0279 24.0904 9.78576 23.6594 9.35469C23.2283 8.92362 22.9861 8.33896 22.9861 7.72933V4.76412L28.2499 10.0279H25.2847Z" fill="#252239" fill-opacity="0.3"/>
<path d="M28.7326 28.4168C29.4481 28.4192 30.1625 28.473 30.8703 28.5777C31.0345 28.6023 31.202 28.5903 31.3609 28.5427C31.5199 28.495 31.6663 28.4128 31.7898 28.3019C31.9138 28.1929 32.013 28.0585 32.0804 27.9078C32.1478 27.757 32.182 27.5935 32.1805 27.4284V11.1772C32.1762 10.8741 32.0523 10.5849 31.8358 10.3727L22.6413 1.17829C22.4291 0.961742 22.1399 0.837814 21.8368 0.833496L4.59722 0.833496C3.37796 0.833496 2.20864 1.31784 1.34649 2.17999C0.484348 3.04214 0 4.21146 0 5.43072V39.9099C0 41.1291 0.484348 42.2985 1.34649 43.1606C2.20864 44.0228 3.37796 44.5071 4.59722 44.5071H12.6424C12.9472 44.5071 13.2395 44.386 13.455 44.1705C13.6706 43.9549 13.7917 43.6626 13.7917 43.3578C13.7977 39.3971 15.3738 35.6003 18.1745 32.7996C20.9751 29.999 24.7719 28.4229 28.7326 28.4168ZM25.2847 10.0279C24.6751 10.0279 24.0904 9.78576 23.6594 9.35469C23.2283 8.92362 22.9861 8.33896 22.9861 7.72933V4.76412L28.2499 10.0279H25.2847Z" fill="url(#paint2_linear_134_578)"/>
<defs>
<linearGradient id="paint0_linear_134_578" x1="28" y1="37.5" x2="28.5" y2="53" gradientUnits="userSpaceOnUse">
<stop stop-color="#CEC1F1"/>
<stop offset="1" stop-color="#F2E3F2"/>
</linearGradient>
<linearGradient id="paint1_linear_134_578" x1="17.3345" y1="32.1187" x2="42.4988" y2="50.5237" gradientUnits="userSpaceOnUse">
<stop stop-color="#8559F4"/>
<stop offset="1" stop-color="#13172A"/>
</linearGradient>
<linearGradient id="paint2_linear_134_578" x1="1.58413" y1="3.25756" x2="39.6796" y2="23.788" gradientUnits="userSpaceOnUse">
<stop stop-color="#7C48FF"/>
<stop offset="1" stop-color="#363567" stop-opacity="0.2"/>
</linearGradient>
</defs>
</svg>
