<svg width="188" height="40" viewBox="0 0 188 40" fill="none" xmlns="http://www.w3.org/2000/svg">
<path d="M1.57675 38.9659H1.07675V38.4659V11.249C1.07675 5.45003 5.77776 0.749023 11.5768 0.749023H176.73C182.529 0.749023 187.23 5.45004 187.23 11.249V28.4659C187.23 34.2648 182.529 38.9659 176.73 38.9659H1.57675Z" fill="url(#paint0_linear_380_367)" stroke="url(#paint1_linear_380_367)"/>
<path d="M15.7218 24.5537V15.3053H17.1286V19.7602L16.4512 19.2652H22.0784L21.4011 19.7602V15.3053H22.8079V24.5537H21.4011V20.0468L22.0784 20.5417H16.4512L17.1286 20.0468V24.5537H15.7218ZM24.6737 24.5537V17.6239H26.0545V24.5537H24.6737ZM24.6477 16.6209V15.2402H26.0805V16.6209H24.6477ZM27.6418 26.5988L28.2931 24.5537H27.5767V22.9124H29.257V24.3583L28.4364 26.5988H27.6418ZM34.0903 24.5537V15.3053H35.4971V24.5537H34.0903ZM37.2592 18.9917L37.9105 16.9466H37.1941V15.3053H38.8744V16.7512L38.0538 18.9917H37.2592ZM42.8964 24.71C42.3059 24.71 41.7892 24.5624 41.3464 24.2671C40.9122 23.9719 40.5778 23.5551 40.3434 23.0167C40.1176 22.4696 40.0047 21.827 40.0047 21.0888C40.0047 20.3507 40.1219 19.7124 40.3564 19.174C40.5909 18.6269 40.9252 18.2058 41.3594 17.9105C41.7936 17.6153 42.3059 17.4676 42.8964 17.4676C43.3741 17.4676 43.7996 17.5675 44.173 17.7672C44.5464 17.967 44.8286 18.2448 45.0197 18.6009V15.3053H46.4004V24.5537H45.1108L45.0718 23.5116C44.8807 23.885 44.5898 24.1803 44.199 24.3974C43.8169 24.6058 43.3827 24.71 42.8964 24.71ZM43.2612 23.5116C43.6346 23.5116 43.9515 23.4161 44.2121 23.2251C44.4726 23.034 44.6723 22.7561 44.8112 22.3914C44.9502 22.0267 45.0197 21.5925 45.0197 21.0888C45.0197 20.5678 44.9502 20.1293 44.8112 19.7732C44.6723 19.4085 44.4726 19.1349 44.2121 18.9526C43.9515 18.7615 43.6346 18.666 43.2612 18.666C42.7054 18.666 42.2625 18.8831 41.9325 19.3173C41.6025 19.7428 41.4375 20.3333 41.4375 21.0888C41.4375 21.8356 41.6025 22.4261 41.9325 22.8603C42.2625 23.2945 42.7054 23.5116 43.2612 23.5116ZM53.0379 24.5537C52.5863 24.5537 52.2216 24.4365 51.9437 24.202C51.6658 23.9675 51.5269 23.5941 51.5269 23.0818V15.3053H52.9077V22.9515C52.9077 23.1078 52.9467 23.2251 53.0249 23.3032C53.1117 23.3814 53.2333 23.4205 53.3896 23.4205H53.9367V24.5537H53.0379ZM55.1014 24.5537V17.6239H56.4821V24.5537H55.1014ZM55.0753 16.6209V15.2402H56.5082V16.6209H55.0753ZM58.2052 24.5537V15.3053H59.586V21.0497L62.6991 17.6239H64.4446L61.7352 20.5417L64.5488 24.5537H62.9597L60.8104 21.4014L59.586 22.704V24.5537H58.2052ZM68.2577 24.71C67.5804 24.71 66.9942 24.5624 66.4992 24.2671C66.0129 23.9719 65.6352 23.5507 65.366 23.0036C65.1055 22.4565 64.9752 21.8183 64.9752 21.0888C64.9752 20.3594 65.1055 19.7254 65.366 19.187C65.6352 18.64 66.0129 18.2188 66.4992 17.9235C66.9855 17.6196 67.5587 17.4676 68.2187 17.4676C68.8439 17.4676 69.3953 17.6153 69.873 17.9105C70.3506 18.1971 70.7196 18.6139 70.9802 19.161C71.2494 19.7081 71.384 20.3681 71.384 21.1409V21.4926H66.4081C66.4428 22.17 66.6208 22.678 66.9421 23.0167C67.2721 23.3553 67.715 23.5247 68.2708 23.5247C68.6789 23.5247 69.0176 23.4291 69.2868 23.2381C69.556 23.047 69.7427 22.7909 69.8469 22.4696L71.2797 22.5607C71.0974 23.2034 70.737 23.7244 70.1986 24.1239C69.6689 24.5146 69.0219 24.71 68.2577 24.71ZM66.4081 20.4506H69.9251C69.8816 19.834 69.7036 19.3781 69.391 19.0828C69.0871 18.7876 68.6963 18.64 68.2187 18.64C67.7237 18.64 67.3155 18.7963 66.9942 19.1089C66.6816 19.4128 66.4862 19.86 66.4081 20.4506ZM78.7349 24.5537C78.075 24.5537 77.5887 24.4017 77.276 24.0978C76.9634 23.7939 76.8071 23.3206 76.8071 22.678V15.9957H78.1878V22.5738C78.1878 22.8951 78.2573 23.1165 78.3963 23.2381C78.5352 23.3597 78.748 23.4205 79.0345 23.4205H80.0245V24.5537H78.7349ZM75.752 18.7572V17.6239H80.0245V18.7572H75.752ZM84.0822 24.71C83.4222 24.71 82.8447 24.5624 82.3497 24.2671C81.8547 23.9719 81.4726 23.5507 81.2034 23.0036C80.9342 22.4565 80.7996 21.8183 80.7996 21.0888C80.7996 20.3507 80.9342 19.7124 81.2034 19.174C81.4726 18.6356 81.8547 18.2188 82.3497 17.9235C82.8447 17.6196 83.4222 17.4676 84.0822 17.4676C84.7421 17.4676 85.3196 17.6196 85.8146 17.9235C86.3096 18.2188 86.6917 18.6356 86.9609 19.174C87.2301 19.7124 87.3647 20.3507 87.3647 21.0888C87.3647 21.8183 87.2301 22.4565 86.9609 23.0036C86.6917 23.5507 86.3096 23.9719 85.8146 24.2671C85.3196 24.5624 84.7421 24.71 84.0822 24.71ZM84.0822 23.5116C84.6727 23.5116 85.1286 23.2989 85.4499 22.8734C85.7712 22.4392 85.9318 21.8443 85.9318 21.0888C85.9318 20.3333 85.7712 19.7428 85.4499 19.3173C85.1286 18.8831 84.6727 18.666 84.0822 18.666C83.5003 18.666 83.0444 18.8831 82.7144 19.3173C82.3931 19.7428 82.2325 20.3333 82.2325 21.0888C82.2325 21.8443 82.3931 22.4392 82.7144 22.8734C83.0444 23.2989 83.5003 23.5116 84.0822 23.5116ZM94.712 24.5537C94.052 24.5537 93.5657 24.4017 93.2531 24.0978C92.9405 23.7939 92.7842 23.3206 92.7842 22.678V15.9957H94.1649V22.5738C94.1649 22.8951 94.2344 23.1165 94.3733 23.2381C94.5123 23.3597 94.725 23.4205 95.0116 23.4205H96.0016V24.5537H94.712ZM91.7291 18.7572V17.6239H96.0016V18.7572H91.7291ZM99.2237 24.71C98.503 24.71 97.9255 24.545 97.4913 24.215C97.0658 23.885 96.853 23.4205 96.853 22.8213C96.853 22.2221 97.0311 21.7575 97.3871 21.4275C97.7518 21.0888 98.3119 20.8457 99.0674 20.698L101.451 20.2421C101.451 19.7037 101.325 19.3043 101.073 19.0438C100.822 18.7746 100.448 18.64 99.9532 18.64C99.5103 18.64 99.163 18.7398 98.9111 18.9396C98.6593 19.1306 98.4856 19.4172 98.3901 19.7993L96.9703 19.7081C97.1005 19.0134 97.4218 18.4663 97.9342 18.0668C98.4552 17.6674 99.1282 17.4676 99.9532 17.4676C100.891 17.4676 101.603 17.7195 102.089 18.2231C102.584 18.7181 102.832 19.4172 102.832 20.3203V23.0167C102.832 23.1817 102.858 23.2989 102.91 23.3684C102.971 23.4291 103.066 23.4595 103.197 23.4595H103.444V24.5537C103.401 24.5624 103.331 24.5711 103.236 24.5798C103.14 24.5884 103.04 24.5928 102.936 24.5928C102.641 24.5928 102.385 24.545 102.168 24.4495C101.959 24.354 101.803 24.1977 101.699 23.9806C101.594 23.7548 101.542 23.4552 101.542 23.0818L101.686 23.1469C101.616 23.4509 101.464 23.7201 101.23 23.9545C101.004 24.189 100.713 24.3757 100.357 24.5146C100.01 24.6449 99.6319 24.71 99.2237 24.71ZM99.4452 23.6158C99.862 23.6158 100.218 23.5377 100.513 23.3814C100.809 23.2164 101.039 22.9906 101.204 22.704C101.369 22.4175 101.451 22.0918 101.451 21.7271V21.2842L99.4191 21.675C99.0023 21.7531 98.7071 21.8791 98.5334 22.0527C98.3684 22.2177 98.2859 22.4305 98.2859 22.691C98.2859 22.9863 98.3857 23.2164 98.5855 23.3814C98.7939 23.5377 99.0805 23.6158 99.4452 23.6158ZM106.032 24.5537C105.58 24.5537 105.216 24.4365 104.938 24.202C104.66 23.9675 104.521 23.5941 104.521 23.0818V15.3053H105.902V22.9515C105.902 23.1078 105.941 23.2251 106.019 23.3032C106.106 23.3814 106.227 23.4205 106.384 23.4205H106.931V24.5537H106.032ZM108.095 24.5537V15.3053H109.476V21.0497L112.589 17.6239H114.335L111.625 20.5417L114.439 24.5537H112.85L110.701 21.4014L109.476 22.704V24.5537H108.095ZM121.858 24.5537C121.198 24.5537 120.711 24.4017 120.399 24.0978C120.086 23.7939 119.93 23.3206 119.93 22.678V15.9957H121.311V22.5738C121.311 22.8951 121.38 23.1165 121.519 23.2381C121.658 23.3597 121.871 23.4205 122.157 23.4205H123.147V24.5537H121.858ZM118.875 18.7572V17.6239H123.147V18.7572H118.875ZM127.205 24.71C126.545 24.71 125.968 24.5624 125.473 24.2671C124.978 23.9719 124.595 23.5507 124.326 23.0036C124.057 22.4565 123.922 21.8183 123.922 21.0888C123.922 20.3507 124.057 19.7124 124.326 19.174C124.595 18.6356 124.978 18.2188 125.473 17.9235C125.968 17.6196 126.545 17.4676 127.205 17.4676C127.865 17.4676 128.442 17.6196 128.937 17.9235C129.432 18.2188 129.815 18.6356 130.084 19.174C130.353 19.7124 130.488 20.3507 130.488 21.0888C130.488 21.8183 130.353 22.4565 130.084 23.0036C129.815 23.5507 129.432 23.9719 128.937 24.2671C128.442 24.5624 127.865 24.71 127.205 24.71ZM127.205 23.5116C127.795 23.5116 128.251 23.2989 128.573 22.8734C128.894 22.4392 129.055 21.8443 129.055 21.0888C129.055 20.3333 128.894 19.7428 128.573 19.3173C128.251 18.8831 127.795 18.666 127.205 18.666C126.623 18.666 126.167 18.8831 125.837 19.3173C125.516 19.7428 125.355 20.3333 125.355 21.0888C125.355 21.8443 125.516 22.4392 125.837 22.8734C126.167 23.2989 126.623 23.5116 127.205 23.5116ZM138.655 24.7621C137.917 24.7621 137.275 24.6275 136.728 24.3583C136.189 24.0891 135.764 23.7157 135.451 23.2381C135.138 22.7605 134.956 22.2047 134.904 21.5708L136.35 21.4796C136.411 21.9138 136.537 22.2829 136.728 22.5868C136.919 22.8821 137.175 23.1078 137.496 23.2641C137.826 23.4118 138.221 23.4856 138.682 23.4856C139.081 23.4856 139.42 23.4378 139.698 23.3423C139.984 23.2381 140.201 23.0861 140.349 22.8864C140.496 22.6867 140.57 22.4435 140.57 22.1569C140.57 21.8964 140.505 21.6663 140.375 21.4666C140.253 21.2582 140.014 21.0715 139.658 20.9065C139.311 20.7328 138.799 20.5634 138.121 20.3985C137.383 20.2161 136.793 20.0164 136.35 19.7993C135.907 19.5822 135.586 19.313 135.386 18.9917C135.195 18.6617 135.099 18.2579 135.099 17.7802C135.099 17.2505 135.225 16.7859 135.477 16.3865C135.738 15.9783 136.107 15.6614 136.584 15.4356C137.062 15.2098 137.635 15.0969 138.304 15.0969C139.007 15.0969 139.606 15.2272 140.101 15.4877C140.605 15.7482 141 16.1043 141.287 16.5558C141.582 17.0074 141.764 17.5241 141.834 18.1059L140.388 18.1841C140.344 17.828 140.236 17.5154 140.062 17.2462C139.889 16.9683 139.654 16.7555 139.359 16.6079C139.064 16.4516 138.703 16.3735 138.278 16.3735C137.739 16.3735 137.314 16.4994 137.001 16.7512C136.697 16.9944 136.545 17.32 136.545 17.7281C136.545 17.9887 136.606 18.2101 136.728 18.3925C136.858 18.5661 137.084 18.7181 137.405 18.8484C137.735 18.9786 138.2 19.1176 138.799 19.2652C139.598 19.4476 140.232 19.6733 140.701 19.9425C141.178 20.2031 141.517 20.5113 141.717 20.8674C141.916 21.2234 142.016 21.6272 142.016 22.0788C142.016 22.6259 141.873 23.1035 141.586 23.5116C141.308 23.9111 140.918 24.2194 140.414 24.4365C139.91 24.6536 139.324 24.7621 138.655 24.7621ZM145.743 24.71C145.022 24.71 144.445 24.545 144.011 24.215C143.585 23.885 143.372 23.4205 143.372 22.8213C143.372 22.2221 143.55 21.7575 143.906 21.4275C144.271 21.0888 144.831 20.8457 145.587 20.698L147.97 20.2421C147.97 19.7037 147.844 19.3043 147.593 19.0438C147.341 18.7746 146.967 18.64 146.472 18.64C146.03 18.64 145.682 18.7398 145.43 18.9396C145.179 19.1306 145.005 19.4172 144.909 19.7993L143.489 19.7081C143.62 19.0134 143.941 18.4663 144.453 18.0668C144.974 17.6674 145.647 17.4676 146.472 17.4676C147.41 17.4676 148.122 17.7195 148.609 18.2231C149.104 18.7181 149.351 19.4172 149.351 20.3203V23.0167C149.351 23.1817 149.377 23.2989 149.429 23.3684C149.49 23.4291 149.586 23.4595 149.716 23.4595H149.963V24.5537C149.92 24.5624 149.85 24.5711 149.755 24.5798C149.659 24.5884 149.56 24.5928 149.455 24.5928C149.16 24.5928 148.904 24.545 148.687 24.4495C148.478 24.354 148.322 24.1977 148.218 23.9806C148.114 23.7548 148.062 23.4552 148.062 23.0818L148.205 23.1469C148.135 23.4509 147.983 23.7201 147.749 23.9545C147.523 24.189 147.232 24.3757 146.876 24.5146C146.529 24.6449 146.151 24.71 145.743 24.71ZM145.964 23.6158C146.381 23.6158 146.737 23.5377 147.033 23.3814C147.328 23.2164 147.558 22.9906 147.723 22.704C147.888 22.4175 147.97 22.0918 147.97 21.7271V21.2842L145.938 21.675C145.522 21.7531 145.226 21.8791 145.053 22.0527C144.888 22.2177 144.805 22.4305 144.805 22.691C144.805 22.9863 144.905 23.2164 145.105 23.3814C145.313 23.5377 145.6 23.6158 145.964 23.6158ZM152.551 24.5537C152.1 24.5537 151.735 24.4365 151.457 24.202C151.179 23.9675 151.04 23.5941 151.04 23.0818V15.3053H152.421V22.9515C152.421 23.1078 152.46 23.2251 152.538 23.3032C152.625 23.3814 152.747 23.4205 152.903 23.4205H153.45V24.5537H152.551ZM157.48 24.71C156.803 24.71 156.216 24.5624 155.722 24.2671C155.235 23.9719 154.857 23.5507 154.588 23.0036C154.328 22.4565 154.197 21.8183 154.197 21.0888C154.197 20.3594 154.328 19.7254 154.588 19.187C154.857 18.64 155.235 18.2188 155.722 17.9235C156.208 17.6196 156.781 17.4676 157.441 17.4676C158.066 17.4676 158.618 17.6153 159.095 17.9105C159.573 18.1971 159.942 18.6139 160.202 19.161C160.472 19.7081 160.606 20.3681 160.606 21.1409V21.4926H155.63C155.665 22.17 155.843 22.678 156.164 23.0167C156.494 23.3553 156.937 23.5247 157.493 23.5247C157.901 23.5247 158.24 23.4291 158.509 23.2381C158.778 23.047 158.965 22.7909 159.069 22.4696L160.502 22.5607C160.32 23.2034 159.959 23.7244 159.421 24.1239C158.891 24.5146 158.244 24.71 157.48 24.71ZM155.63 20.4506H159.147C159.104 19.834 158.926 19.3781 158.613 19.0828C158.309 18.7876 157.919 18.64 157.441 18.64C156.946 18.64 156.538 18.7963 156.216 19.1089C155.904 19.4128 155.708 19.86 155.63 20.4506ZM164.676 24.71C164.024 24.71 163.473 24.6102 163.021 24.4104C162.578 24.2107 162.235 23.9372 161.992 23.5898C161.749 23.2338 161.61 22.8256 161.575 22.3654L162.995 22.3002C163.065 22.6823 163.23 22.9863 163.49 23.212C163.751 23.4378 164.146 23.5507 164.676 23.5507C165.11 23.5507 165.453 23.4812 165.705 23.3423C165.956 23.2034 166.082 22.9819 166.082 22.678C166.082 22.513 166.039 22.374 165.952 22.2612C165.874 22.1396 165.718 22.0397 165.483 21.9616C165.249 21.8747 164.901 21.7922 164.441 21.7141C163.755 21.5838 163.217 21.4318 162.826 21.2582C162.435 21.0845 162.157 20.863 161.992 20.5938C161.827 20.3246 161.745 19.999 161.745 19.6169C161.745 18.983 161.979 18.4663 162.448 18.0668C162.926 17.6674 163.612 17.4676 164.506 17.4676C165.105 17.4676 165.609 17.5718 166.017 17.7802C166.425 17.98 166.742 18.2535 166.968 18.6009C167.203 18.9396 167.35 19.3216 167.411 19.7472L165.991 19.8253C165.948 19.5822 165.861 19.3737 165.731 19.2001C165.609 19.0177 165.444 18.8788 165.236 18.7832C165.027 18.679 164.78 18.6269 164.493 18.6269C164.05 18.6269 163.72 18.7138 163.503 18.8874C163.286 19.0611 163.178 19.2869 163.178 19.5648C163.178 19.7732 163.225 19.9425 163.321 20.0728C163.425 20.2031 163.59 20.3116 163.816 20.3985C164.042 20.4766 164.341 20.5461 164.715 20.6069C165.435 20.7284 166 20.8804 166.408 21.0628C166.816 21.2365 167.103 21.4535 167.268 21.7141C167.433 21.9746 167.515 22.2915 167.515 22.665C167.515 23.0992 167.394 23.4682 167.151 23.7722C166.907 24.0761 166.573 24.3106 166.148 24.4756C165.722 24.6319 165.231 24.71 164.676 24.71Z" fill="#CEC1F1"/>
<defs>
<linearGradient id="paint0_linear_380_367" x1="21.5518" y1="38.4658" x2="52.2446" y2="-31.2402" gradientUnits="userSpaceOnUse">
<stop stop-color="#15192E"/>
<stop offset="1" stop-color="#272241"/>
</linearGradient>
<linearGradient id="paint1_linear_380_367" x1="94.1536" y1="1.24902" x2="94.1536" y2="38.4659" gradientUnits="userSpaceOnUse">
<stop stop-color="#443F51"/>
<stop offset="0.67" stop-color="#5A4E78"/>
<stop offset="1" stop-color="#443F51"/>
</linearGradient>
</defs>
</svg>
