<svg width="113" height="40" viewBox="0 0 113 40" fill="none" xmlns="http://www.w3.org/2000/svg">
<path d="M1.3002 39.0264H0.800201V38.5264V11.3096C0.800201 5.51058 5.50122 0.80957 11.3002 0.80957H101.09C106.889 0.80957 111.59 5.51059 111.59 11.3096V28.5264C111.59 34.3254 106.889 39.0264 101.09 39.0264H1.3002Z" fill="url(#paint0_linear_380_373)" stroke="url(#paint1_linear_380_373)"/>
<path d="M13.9327 23.7226C13.4042 23.7226 12.939 23.6035 12.537 23.3653C12.1425 23.1197 11.8373 22.7847 11.6215 22.3605C11.4056 21.9287 11.294 21.4338 11.2865 20.8755L12.5147 20.8085C12.5221 21.404 12.6487 21.8543 12.8943 22.1595C13.1399 22.4647 13.4861 22.6172 13.9327 22.6172C14.4016 22.6172 14.7589 22.4572 15.0045 22.1371C15.2576 21.8171 15.3841 21.3556 15.3841 20.7527V15.6168H16.5899V20.7527C16.5899 21.3556 16.4783 21.8804 16.255 22.327C16.0391 22.7736 15.7339 23.1197 15.3394 23.3653C14.945 23.6035 14.476 23.7226 13.9327 23.7226ZM20.6699 23.6779C20.0893 23.6779 19.5869 23.5514 19.1626 23.2983C18.7458 23.0452 18.422 22.6842 18.1912 22.2153C17.9679 21.7464 17.8563 21.1993 17.8563 20.574C17.8563 19.9488 17.9679 19.4054 18.1912 18.9439C18.422 18.475 18.7458 18.114 19.1626 17.8609C19.5794 17.6004 20.0707 17.4702 20.6364 17.4702C21.1723 17.4702 21.645 17.5967 22.0544 17.8498C22.4637 18.0954 22.7801 18.4527 23.0034 18.9216C23.2341 19.3905 23.3495 19.9562 23.3495 20.6187V20.9202H19.0845C19.1142 21.5007 19.2668 21.9362 19.5422 22.2265C19.8251 22.5168 20.2047 22.6619 20.6811 22.6619C21.0309 22.6619 21.3212 22.58 21.5519 22.4163C21.7827 22.2525 21.9427 22.0329 22.032 21.7575L23.2602 21.8357C23.1039 22.3865 22.795 22.8331 22.3335 23.1755C21.8794 23.5105 21.3249 23.6779 20.6699 23.6779ZM19.0845 20.027H22.099C22.0618 19.4985 21.9092 19.1077 21.6412 18.8546C21.3807 18.6016 21.0458 18.475 20.6364 18.475C20.2121 18.475 19.8623 18.609 19.5869 18.877C19.3189 19.1375 19.1514 19.5208 19.0845 20.027ZM24.5487 23.5439V17.6041H25.6317L25.6764 19.1896L25.5312 19.1114C25.5982 18.7244 25.7247 18.4117 25.9108 18.1736C26.0969 17.9354 26.3239 17.7605 26.5919 17.6488C26.8599 17.5297 27.1502 17.4702 27.4628 17.4702C27.9094 17.4702 28.2778 17.5706 28.5681 17.7716C28.8658 17.9651 29.0891 18.2331 29.238 18.5755C29.3943 18.9105 29.4725 19.2938 29.4725 19.7255V23.5439H28.289V20.0828C28.289 19.7329 28.2518 19.4389 28.1773 19.2007C28.1029 18.9626 27.9801 18.7802 27.8089 18.6537C27.6377 18.5271 27.4144 18.4638 27.139 18.4638C26.7222 18.4638 26.3835 18.6016 26.123 18.877C25.8624 19.1524 25.7322 19.5543 25.7322 20.0828V23.5439H24.5487ZM30.9381 23.5439V17.6041H32.0211L32.0657 19.1896L31.9206 19.1114C31.9876 18.7244 32.1141 18.4117 32.3002 18.1736C32.4863 17.9354 32.7133 17.7605 32.9813 17.6488C33.2492 17.5297 33.5395 17.4702 33.8521 17.4702C34.2987 17.4702 34.6672 17.5706 34.9575 17.7716C35.2552 17.9651 35.4785 18.2331 35.6274 18.5755C35.7837 18.9105 35.8619 19.2938 35.8619 19.7255V23.5439H34.6784V20.0828C34.6784 19.7329 34.6411 19.4389 34.5667 19.2007C34.4923 18.9626 34.3695 18.7802 34.1983 18.6537C34.0271 18.5271 33.8038 18.4638 33.5284 18.4638C33.1115 18.4638 32.7729 18.6016 32.5123 18.877C32.2518 19.1524 32.1216 19.5543 32.1216 20.0828V23.5439H30.9381ZM37.4988 25.2187V24.2473H38.2246C38.4255 24.2473 38.5744 24.2176 38.6712 24.158C38.7679 24.0985 38.8424 23.998 38.8945 23.8566L39.0843 23.3653H38.7158L36.5721 17.6041H37.8226L39.4527 22.2711L41.0047 17.6041H42.2663L39.8993 24.2362C39.7802 24.5786 39.6016 24.8279 39.3634 24.9842C39.1327 25.1405 38.8089 25.2187 38.392 25.2187H37.4988ZM47.7361 23.5439L45.637 15.6168H46.921L48.4618 21.8804L50.0026 15.6168H51.2307L52.7715 21.8804L54.3011 15.6168H55.6074L53.4972 23.5439H52.0904L50.6166 17.7605L49.1429 23.5439H47.7361ZM56.5828 23.5439V17.6041H57.7663V23.5439H56.5828ZM56.5605 16.7444V15.5609H57.7886V16.7444H56.5605ZM60.6474 23.5439C60.2603 23.5439 59.9477 23.4435 59.7095 23.2425C59.4713 23.0415 59.3522 22.7215 59.3522 22.2823V15.6168H60.5357V22.1706C60.5357 22.3046 60.5692 22.4051 60.6362 22.4721C60.7107 22.5391 60.8149 22.5726 60.9488 22.5726H61.4178V23.5439H60.6474ZM64.7158 23.6779C64.1576 23.6779 63.6849 23.5923 63.2979 23.4211C62.9183 23.2499 62.6242 23.0155 62.4158 22.7177C62.2074 22.4126 62.0883 22.0627 62.0585 21.6682L63.2755 21.6124C63.3351 21.9399 63.4765 22.2004 63.6998 22.3939C63.9231 22.5875 64.2618 22.6842 64.7158 22.6842C65.088 22.6842 65.382 22.6247 65.5979 22.5056C65.8137 22.3865 65.9217 22.1967 65.9217 21.9362C65.9217 21.7948 65.8844 21.6757 65.81 21.5789C65.743 21.4747 65.609 21.3891 65.4081 21.3221C65.2071 21.2477 64.9094 21.177 64.5149 21.11C63.9268 20.9983 63.4653 20.8681 63.1304 20.7192C62.7954 20.5703 62.5573 20.3805 62.4158 20.1498C62.2744 19.919 62.2037 19.6399 62.2037 19.3124C62.2037 18.769 62.4047 18.3261 62.8066 17.9838C63.216 17.6414 63.804 17.4702 64.5707 17.4702C65.0843 17.4702 65.516 17.5595 65.8658 17.7381C66.2157 17.9093 66.4873 18.1438 66.6809 18.4415C66.8818 18.7318 67.0084 19.0593 67.0605 19.424L65.8435 19.491C65.8063 19.2826 65.7318 19.104 65.6202 18.9551C65.516 18.7988 65.3746 18.6797 65.1959 18.5978C65.0173 18.5085 64.8051 18.4638 64.5595 18.4638C64.1799 18.4638 63.8971 18.5383 63.711 18.6871C63.5249 18.836 63.4318 19.0295 63.4318 19.2677C63.4318 19.4464 63.4728 19.5915 63.5547 19.7032C63.644 19.8148 63.7854 19.9079 63.9789 19.9823C64.1725 20.0493 64.4293 20.1088 64.7493 20.1609C65.3671 20.2651 65.8509 20.3954 66.2008 20.5517C66.5506 20.7006 66.7962 20.8867 66.9377 21.11C67.0791 21.3333 67.1498 21.6049 67.1498 21.925C67.1498 22.2972 67.0456 22.6135 66.8372 22.874C66.6288 23.1346 66.3422 23.3355 65.9775 23.477C65.6128 23.6109 65.1922 23.6779 64.7158 23.6779ZM70.7927 23.6779C70.227 23.6779 69.732 23.5514 69.3077 23.2983C68.8834 23.0452 68.5559 22.6842 68.3252 22.2153C68.0944 21.7464 67.9791 21.1993 67.9791 20.574C67.9791 19.9414 68.0944 19.3943 68.3252 18.9328C68.5559 18.4713 68.8834 18.114 69.3077 17.8609C69.732 17.6004 70.227 17.4702 70.7927 17.4702C71.3584 17.4702 71.8533 17.6004 72.2776 17.8609C72.7019 18.114 73.0294 18.4713 73.2601 18.9328C73.4909 19.3943 73.6063 19.9414 73.6063 20.574C73.6063 21.1993 73.4909 21.7464 73.2601 22.2153C73.0294 22.6842 72.7019 23.0452 72.2776 23.2983C71.8533 23.5514 71.3584 23.6779 70.7927 23.6779ZM70.7927 22.6507C71.2988 22.6507 71.6896 22.4684 71.965 22.1037C72.2404 21.7315 72.3781 21.2216 72.3781 20.574C72.3781 19.9265 72.2404 19.4203 71.965 19.0556C71.6896 18.6834 71.2988 18.4973 70.7927 18.4973C70.294 18.4973 69.9032 18.6834 69.6203 19.0556C69.3449 19.4203 69.2072 19.9265 69.2072 20.574C69.2072 21.2216 69.3449 21.7315 69.6203 22.1037C69.9032 22.4684 70.294 22.6507 70.7927 22.6507ZM74.8023 23.5439V17.6041H75.8853L75.93 19.1896L75.7848 19.1114C75.8518 18.7244 75.9784 18.4117 76.1645 18.1736C76.3505 17.9354 76.5776 17.7605 76.8455 17.6488C77.1135 17.5297 77.4038 17.4702 77.7164 17.4702C78.163 17.4702 78.5314 17.5706 78.8217 17.7716C79.1195 17.9651 79.3428 18.2331 79.4916 18.5755C79.6479 18.9105 79.7261 19.2938 79.7261 19.7255V23.5439H78.5426V20.0828C78.5426 19.7329 78.5054 19.4389 78.431 19.2007C78.3565 18.9626 78.2337 18.7802 78.0625 18.6537C77.8913 18.5271 77.668 18.4638 77.3926 18.4638C76.9758 18.4638 76.6371 18.6016 76.3766 18.877C76.1161 19.1524 75.9858 19.5543 75.9858 20.0828V23.5439H74.8023Z" fill="#CEC1F1"/>
<defs>
<linearGradient id="paint0_linear_380_373" x1="13.1447" y1="38.5264" x2="52.9776" y2="-15.1156" gradientUnits="userSpaceOnUse">
<stop stop-color="#15192E"/>
<stop offset="1" stop-color="#272241"/>
</linearGradient>
<linearGradient id="paint1_linear_380_373" x1="56.195" y1="1.30957" x2="56.195" y2="38.5264" gradientUnits="userSpaceOnUse">
<stop stop-color="#443F51"/>
<stop offset="0.67" stop-color="#5A4E78"/>
<stop offset="1" stop-color="#443F51"/>
</linearGradient>
</defs>
</svg>
