<svg width="18" height="19" viewBox="0 0 18 19" fill="none" xmlns="http://www.w3.org/2000/svg">
<path d="M6.5 10.125L8.375 12L11.5 7.625M16.5 9.5C16.5 10.5569 15.9753 11.4913 15.1722 12.0568C15.3401 13.0245 15.0504 14.056 14.3031 14.8033C13.5559 15.5505 12.5243 15.8402 11.5567 15.6724C10.9911 16.4754 10.0568 17 9 17C7.94321 17 7.00894 16.4754 6.44337 15.6725C5.47555 15.8405 4.4438 15.5508 3.69642 14.8034C2.94905 14.0561 2.65937 13.0243 2.82738 12.0565C2.02451 11.4909 1.5 10.5567 1.5 9.5C1.5 8.44323 2.02455 7.50898 2.82748 6.9434C2.65956 5.97566 2.94925 4.94403 3.69656 4.19672C4.44388 3.44941 5.47553 3.15972 6.44328 3.32765C7.00884 2.52463 7.94315 2 9 2C10.0568 2 10.9911 2.52458 11.5566 3.32756C12.5245 3.15954 13.5562 3.44921 14.3036 4.19659C15.0509 4.94395 15.3406 5.97568 15.1726 6.94348C15.9755 7.50906 16.5 8.44327 16.5 9.5Z" stroke="url(#paint0_linear_134_93)" stroke-width="1.5" stroke-linecap="round" stroke-linejoin="round"/>
<defs>
<linearGradient id="paint0_linear_134_93" x1="1" y1="4" x2="12" y2="18" gradientUnits="userSpaceOnUse">
<stop stop-color="#9DE8EE"/>
<stop offset="0.51" stop-color="#FA7C0B"/>
<stop offset="1" stop-color="#7544FF"/>
</linearGradient>
</defs>
</svg>
