<svg width="319" height="236" viewBox="0 0 319 236" fill="none" xmlns="http://www.w3.org/2000/svg">
<g opacity="0.7">
<rect y="129" width="155" height="79" rx="12.7323" fill="url(#paint0_linear_2089_45)"/>
<path d="M64.0628 189.244H61.6388V191.728H60.3668V189.244H57.9428V188.092H60.3668V185.608H61.6388V188.092H64.0628V189.244ZM67.4812 188.428C66.6492 188.012 66.2332 187.356 66.2332 186.46C66.2332 186.028 66.3412 185.632 66.5572 185.272C66.7732 184.912 67.0972 184.628 67.5292 184.42C67.9612 184.204 68.4892 184.096 69.1132 184.096C69.7292 184.096 70.2532 184.204 70.6852 184.42C71.1252 184.628 71.4532 184.912 71.6692 185.272C71.8852 185.632 71.9932 186.028 71.9932 186.46C71.9932 186.908 71.8772 187.304 71.6452 187.648C71.4212 187.984 71.1212 188.244 70.7452 188.428C71.2012 188.596 71.5612 188.872 71.8252 189.256C72.0892 189.632 72.2212 190.076 72.2212 190.588C72.2212 191.108 72.0892 191.568 71.8252 191.968C71.5612 192.368 71.1932 192.676 70.7212 192.892C70.2492 193.108 69.7132 193.216 69.1132 193.216C68.5132 193.216 67.9772 193.108 67.5052 192.892C67.0412 192.676 66.6772 192.368 66.4132 191.968C66.1492 191.568 66.0172 191.108 66.0172 190.588C66.0172 190.068 66.1492 189.62 66.4132 189.244C66.6772 188.868 67.0332 188.596 67.4812 188.428ZM70.6852 186.628C70.6852 186.18 70.5452 185.836 70.2652 185.596C69.9852 185.356 69.6012 185.236 69.1132 185.236C68.6332 185.236 68.2532 185.356 67.9732 185.596C67.6932 185.836 67.5532 186.184 67.5532 186.64C67.5532 187.04 67.6972 187.368 67.9852 187.624C68.2812 187.872 68.6572 187.996 69.1132 187.996C69.5692 187.996 69.9452 187.868 70.2412 187.612C70.5372 187.356 70.6852 187.028 70.6852 186.628ZM69.1132 189.028C68.5852 189.028 68.1532 189.16 67.8172 189.424C67.4892 189.68 67.3252 190.052 67.3252 190.54C67.3252 190.996 67.4852 191.368 67.8052 191.656C68.1252 191.936 68.5612 192.076 69.1132 192.076C69.6572 192.076 70.0852 191.932 70.3972 191.644C70.7172 191.356 70.8772 190.988 70.8772 190.54C70.8772 190.06 70.7132 189.688 70.3852 189.424C70.0652 189.16 69.6412 189.028 69.1132 189.028ZM73.4415 186.364C73.4415 185.78 73.6095 185.324 73.9455 184.996C74.2895 184.66 74.7295 184.492 75.2655 184.492C75.8015 184.492 76.2375 184.66 76.5735 184.996C76.9175 185.324 77.0895 185.78 77.0895 186.364C77.0895 186.948 76.9175 187.408 76.5735 187.744C76.2375 188.08 75.8015 188.248 75.2655 188.248C74.7295 188.248 74.2895 188.08 73.9455 187.744C73.6095 187.408 73.4415 186.948 73.4415 186.364ZM80.7615 184.648L75.9735 193H74.6295L79.4175 184.648H80.7615ZM75.2655 185.32C74.7615 185.32 74.5095 185.668 74.5095 186.364C74.5095 187.068 74.7615 187.42 75.2655 187.42C75.5055 187.42 75.6895 187.336 75.8175 187.168C75.9535 186.992 76.0215 186.724 76.0215 186.364C76.0215 185.668 75.7695 185.32 75.2655 185.32ZM78.3255 191.272C78.3255 190.688 78.4935 190.232 78.8295 189.904C79.1735 189.568 79.6135 189.4 80.1495 189.4C80.6775 189.4 81.1095 189.568 81.4455 189.904C81.7895 190.232 81.9615 190.688 81.9615 191.272C81.9615 191.856 81.7895 192.316 81.4455 192.652C81.1095 192.988 80.6775 193.156 80.1495 193.156C79.6135 193.156 79.1735 192.988 78.8295 192.652C78.4935 192.316 78.3255 191.856 78.3255 191.272ZM80.1375 190.228C79.6335 190.228 79.3815 190.576 79.3815 191.272C79.3815 191.968 79.6335 192.316 80.1375 192.316C80.6415 192.316 80.8935 191.968 80.8935 191.272C80.8935 190.576 80.6415 190.228 80.1375 190.228ZM89.254 187.504H88.03V193H86.65V187.504H85.87V186.388H86.65V185.92C86.65 185.16 86.85 184.608 87.25 184.264C87.658 183.912 88.294 183.736 89.158 183.736V184.876C88.742 184.876 88.45 184.956 88.282 185.116C88.114 185.268 88.03 185.536 88.03 185.92V186.388H89.254V187.504ZM91.8344 187.348C92.0344 187.012 92.2984 186.752 92.6264 186.568C92.9624 186.376 93.3584 186.28 93.8144 186.28V187.696H93.4664C92.9304 187.696 92.5224 187.832 92.2424 188.104C91.9704 188.376 91.8344 188.848 91.8344 189.52V193H90.4664V186.388H91.8344V187.348ZM97.9399 193.108C97.3159 193.108 96.7519 192.968 96.2479 192.688C95.7439 192.4 95.3479 192 95.0599 191.488C94.7719 190.968 94.6279 190.368 94.6279 189.688C94.6279 189.016 94.7759 188.42 95.0719 187.9C95.3679 187.38 95.7719 186.98 96.2839 186.7C96.7959 186.42 97.3679 186.28 97.9999 186.28C98.6319 186.28 99.2039 186.42 99.7159 186.7C100.228 186.98 100.632 187.38 100.928 187.9C101.224 188.42 101.372 189.016 101.372 189.688C101.372 190.36 101.22 190.956 100.916 191.476C100.612 191.996 100.196 192.4 99.6679 192.688C99.1479 192.968 98.5719 193.108 97.9399 193.108ZM97.9399 191.92C98.2919 191.92 98.6199 191.836 98.9239 191.668C99.2359 191.5 99.4879 191.248 99.6799 190.912C99.8719 190.576 99.9679 190.168 99.9679 189.688C99.9679 189.208 99.8759 188.804 99.6919 188.476C99.5079 188.14 99.2639 187.888 98.9599 187.72C98.6559 187.552 98.3279 187.468 97.9759 187.468C97.6239 187.468 97.2959 187.552 96.9919 187.72C96.6959 187.888 96.4599 188.14 96.2839 188.476C96.1079 188.804 96.0199 189.208 96.0199 189.688C96.0199 190.4 96.1999 190.952 96.5599 191.344C96.9279 191.728 97.3879 191.92 97.9399 191.92ZM110.728 186.28C111.248 186.28 111.712 186.388 112.12 186.604C112.536 186.82 112.86 187.14 113.092 187.564C113.332 187.988 113.452 188.5 113.452 189.1V193H112.096V189.304C112.096 188.712 111.948 188.26 111.652 187.948C111.356 187.628 110.952 187.468 110.44 187.468C109.928 187.468 109.52 187.628 109.216 187.948C108.92 188.26 108.772 188.712 108.772 189.304V193H107.416V189.304C107.416 188.712 107.268 188.26 106.972 187.948C106.676 187.628 106.272 187.468 105.76 187.468C105.248 187.468 104.84 187.628 104.536 187.948C104.24 188.26 104.092 188.712 104.092 189.304V193H102.724V186.388H104.092V187.144C104.316 186.872 104.6 186.66 104.944 186.508C105.288 186.356 105.656 186.28 106.048 186.28C106.576 186.28 107.048 186.392 107.464 186.616C107.88 186.84 108.2 187.164 108.424 187.588C108.624 187.188 108.936 186.872 109.36 186.64C109.784 186.4 110.24 186.28 110.728 186.28ZM124.262 186.388L120.206 196.108H118.79L120.134 192.892L117.53 186.388H119.054L120.914 191.428L122.846 186.388H124.262ZM131.355 189.532C131.355 189.78 131.339 190.004 131.307 190.204H126.255C126.295 190.732 126.491 191.156 126.843 191.476C127.195 191.796 127.627 191.956 128.139 191.956C128.875 191.956 129.395 191.648 129.699 191.032H131.175C130.975 191.64 130.611 192.14 130.083 192.532C129.563 192.916 128.915 193.108 128.139 193.108C127.507 193.108 126.939 192.968 126.435 192.688C125.939 192.4 125.547 192 125.259 191.488C124.979 190.968 124.839 190.368 124.839 189.688C124.839 189.008 124.975 188.412 125.247 187.9C125.527 187.38 125.915 186.98 126.411 186.7C126.915 186.42 127.491 186.28 128.139 186.28C128.763 186.28 129.319 186.416 129.807 186.688C130.295 186.96 130.675 187.344 130.947 187.84C131.219 188.328 131.355 188.892 131.355 189.532ZM129.927 189.1C129.919 188.596 129.739 188.192 129.387 187.888C129.035 187.584 128.599 187.432 128.079 187.432C127.607 187.432 127.203 187.584 126.867 187.888C126.531 188.184 126.331 188.588 126.267 189.1H129.927ZM135.101 193.108C134.581 193.108 134.113 193.016 133.697 192.832C133.289 192.64 132.965 192.384 132.725 192.064C132.485 191.736 132.357 191.372 132.341 190.972H133.757C133.781 191.252 133.913 191.488 134.153 191.68C134.401 191.864 134.709 191.956 135.077 191.956C135.461 191.956 135.757 191.884 135.965 191.74C136.181 191.588 136.289 191.396 136.289 191.164C136.289 190.916 136.169 190.732 135.929 190.612C135.697 190.492 135.325 190.36 134.813 190.216C134.317 190.08 133.913 189.948 133.601 189.82C133.289 189.692 133.017 189.496 132.785 189.232C132.561 188.968 132.449 188.62 132.449 188.188C132.449 187.836 132.553 187.516 132.761 187.228C132.969 186.932 133.265 186.7 133.649 186.532C134.041 186.364 134.489 186.28 134.993 186.28C135.745 186.28 136.349 186.472 136.805 186.856C137.269 187.232 137.517 187.748 137.549 188.404H136.181C136.157 188.108 136.037 187.872 135.821 187.696C135.605 187.52 135.313 187.432 134.945 187.432C134.585 187.432 134.309 187.5 134.117 187.636C133.925 187.772 133.829 187.952 133.829 188.176C133.829 188.352 133.893 188.5 134.021 188.62C134.149 188.74 134.305 188.836 134.489 188.908C134.673 188.972 134.945 189.056 135.305 189.16C135.785 189.288 136.177 189.42 136.481 189.556C136.793 189.684 137.061 189.876 137.285 190.132C137.509 190.388 137.625 190.728 137.633 191.152C137.633 191.528 137.529 191.864 137.321 192.16C137.113 192.456 136.817 192.688 136.433 192.856C136.057 193.024 135.613 193.108 135.101 193.108ZM139.663 193.084C139.415 193.084 139.207 193 139.039 192.832C138.871 192.664 138.787 192.456 138.787 192.208C138.787 191.96 138.871 191.752 139.039 191.584C139.207 191.416 139.415 191.332 139.663 191.332C139.903 191.332 140.107 191.416 140.275 191.584C140.443 191.752 140.527 191.96 140.527 192.208C140.527 192.456 140.443 192.664 140.275 192.832C140.107 193 139.903 193.084 139.663 193.084ZM142.557 193.084C142.309 193.084 142.101 193 141.933 192.832C141.765 192.664 141.681 192.456 141.681 192.208C141.681 191.96 141.765 191.752 141.933 191.584C142.101 191.416 142.309 191.332 142.557 191.332C142.797 191.332 143.001 191.416 143.169 191.584C143.337 191.752 143.421 191.96 143.421 192.208C143.421 192.456 143.337 192.664 143.169 192.832C143.001 193 142.797 193.084 142.557 193.084Z" fill="#27AE60"/>
<path d="M61.7891 155.07H60.6875V154.07C58.2344 153.93 56.7422 152.695 56.7344 150.781H58.9688C59.0234 151.594 59.6953 152.188 60.6875 152.297V149.25L59.8594 149.055C57.9766 148.617 56.9688 147.531 56.9688 145.906C56.9688 143.992 58.3438 142.758 60.6875 142.57V141.5H61.7891V142.578C63.9766 142.773 65.3828 144.055 65.4141 145.852H63.2422C63.2188 145.109 62.625 144.5 61.7891 144.383V147.297L62.625 147.461C64.625 147.898 65.625 148.938 65.625 150.633C65.625 152.617 64.2422 153.852 61.7891 154.062V155.07ZM63.4141 150.883C63.4141 150.125 62.8984 149.664 61.7891 149.445V152.305C62.8125 152.242 63.4141 151.711 63.4141 150.883ZM59.2266 145.711C59.2266 146.398 59.7344 146.867 60.6875 147.07V144.375C59.8359 144.422 59.2266 144.969 59.2266 145.711ZM69.9766 154V144.891H69.9297L67.0547 146.875V144.75L69.9688 142.727H72.3125V154H69.9766ZM76.0703 154.094C75.3672 154.094 74.8125 153.531 74.8125 152.836C74.8125 152.133 75.3672 151.578 76.0703 151.578C76.7656 151.578 77.3281 152.133 77.3281 152.836C77.3281 153.531 76.7656 154.094 76.0703 154.094ZM83.2734 154.25C80.4375 154.25 78.7109 151.992 78.7109 148.344C78.7109 144.703 80.4531 142.469 83.2734 142.469C86.0938 142.469 87.8281 144.695 87.8281 148.336C87.8281 151.977 86.1094 154.25 83.2734 154.25ZM83.2734 152.359C84.6172 152.359 85.4297 150.914 85.4297 148.344C85.4297 145.797 84.6094 144.359 83.2734 144.359C81.9453 144.359 81.1094 145.805 81.1094 148.344C81.1094 150.906 81.9297 152.359 83.2734 152.359ZM91.5938 148.984L94.4375 145.625H97.0234L93.8281 149.219L97.1797 154H94.5547L92.1562 150.594L91.5625 151.234V154H89.2812V142.727H91.5625V148.984H91.5938Z" fill="#CEC1F1"/>
<path opacity="0.5" d="M60.1895 170H58.877V162.676H56.2871V161.545H62.7734V162.676H60.1895V170ZM64.8301 170.117C63.0664 170.117 61.9062 168.904 61.9062 166.918C61.9062 164.938 63.0723 163.725 64.8301 163.725C66.5879 163.725 67.7539 164.938 67.7539 166.918C67.7539 168.904 66.5938 170.117 64.8301 170.117ZM64.8301 169.074C65.8262 169.074 66.4648 168.289 66.4648 166.918C66.4648 165.553 65.8203 164.768 64.8301 164.768C63.8398 164.768 63.1953 165.553 63.1953 166.918C63.1953 168.289 63.8398 169.074 64.8301 169.074ZM69.1016 162.377H70.373V163.836H71.5449V164.838H70.373V168.236C70.373 168.77 70.6074 169.01 71.123 169.01C71.252 169.01 71.457 168.998 71.5391 168.98V169.982C71.3984 170.018 71.1172 170.041 70.8359 170.041C69.5879 170.041 69.1016 169.566 69.1016 168.377V164.838H68.2051V163.836H69.1016V162.377ZM74.6504 169.104C75.5352 169.104 76.2266 168.494 76.2266 167.691V167.205L74.709 167.299C73.9531 167.352 73.5254 167.686 73.5254 168.213C73.5254 168.752 73.9707 169.104 74.6504 169.104ZM74.2988 170.105C73.0918 170.105 72.248 169.355 72.248 168.248C72.248 167.17 73.0742 166.508 74.5391 166.426L76.2266 166.326V165.852C76.2266 165.166 75.7637 164.756 74.9902 164.756C74.2578 164.756 73.8008 165.107 73.6895 165.658H72.4941C72.5645 164.545 73.5137 163.725 75.0371 163.725C76.5312 163.725 77.4863 164.516 77.4863 165.752V170H76.2734V168.986H76.2441C75.8867 169.672 75.1074 170.105 74.2988 170.105ZM78.7637 170V161.545H80.0293V170H78.7637ZM83.5449 167.645H84.8398C84.9336 168.482 85.748 169.033 86.8613 169.033C87.9277 169.033 88.6953 168.482 88.6953 167.727C88.6953 167.07 88.2324 166.678 87.1367 166.408L86.041 166.145C84.4883 165.77 83.7676 165.043 83.7676 163.865C83.7676 162.406 85.0391 161.404 86.8438 161.404C88.6309 161.404 89.8555 162.406 89.8965 163.865H88.6191C88.543 163.021 87.8457 162.512 86.8262 162.512C85.8066 162.512 85.1094 163.027 85.1094 163.777C85.1094 164.375 85.5547 164.727 86.6445 164.996L87.5762 165.225C89.3105 165.635 90.0312 166.332 90.0312 167.568C90.0312 169.15 88.7715 170.141 86.7676 170.141C84.8926 170.141 83.627 169.174 83.5449 167.645ZM93.2129 169.104C94.0977 169.104 94.7891 168.494 94.7891 167.691V167.205L93.2715 167.299C92.5156 167.352 92.0879 167.686 92.0879 168.213C92.0879 168.752 92.5332 169.104 93.2129 169.104ZM92.8613 170.105C91.6543 170.105 90.8105 169.355 90.8105 168.248C90.8105 167.17 91.6367 166.508 93.1016 166.426L94.7891 166.326V165.852C94.7891 165.166 94.3262 164.756 93.5527 164.756C92.8203 164.756 92.3633 165.107 92.252 165.658H91.0566C91.127 164.545 92.0762 163.725 93.5996 163.725C95.0938 163.725 96.0488 164.516 96.0488 165.752V170H94.8359V168.986H94.8066C94.4492 169.672 93.6699 170.105 92.8613 170.105ZM97.3262 170V161.545H98.5918V170H97.3262ZM102.471 164.744C101.586 164.744 100.965 165.418 100.9 166.35H103.982C103.953 165.406 103.355 164.744 102.471 164.744ZM103.977 168.189H105.178C105.002 169.314 103.936 170.117 102.523 170.117C100.713 170.117 99.6172 168.893 99.6172 166.947C99.6172 165.014 100.73 163.725 102.471 163.725C104.182 163.725 105.248 164.932 105.248 166.801V167.234H100.895V167.311C100.895 168.383 101.539 169.092 102.553 169.092C103.273 169.092 103.807 168.729 103.977 168.189ZM106.121 165.582C106.121 164.48 107.094 163.725 108.535 163.725C109.906 163.725 110.867 164.492 110.908 165.588H109.719C109.66 165.031 109.209 164.686 108.5 164.686C107.814 164.686 107.357 165.02 107.357 165.506C107.357 165.887 107.662 166.145 108.301 166.303L109.338 166.543C110.58 166.842 111.049 167.311 111.049 168.219C111.049 169.344 110 170.117 108.488 170.117C107.029 170.117 106.062 169.361 105.963 168.23H107.217C107.316 168.822 107.773 169.15 108.547 169.15C109.309 169.15 109.777 168.834 109.777 168.336C109.777 167.943 109.543 167.727 108.898 167.562L107.797 167.293C106.684 167.023 106.121 166.443 106.121 165.582Z" fill="#CEC1F1"/>
<g clip-path="url(#clip0_2089_45)">
<g filter="url(#filter0_bi_2089_45)">
<rect x="10" y="139" width="36" height="36" rx="18" fill="url(#paint1_linear_2089_45)" fill-opacity="0.2"/>
</g>
<mask id="mask0_2089_45" style="mask-type:luminance" maskUnits="userSpaceOnUse" x="13" y="142" width="30" height="30">
<rect x="13.5996" y="142.6" width="28.8" height="28.8" fill="white"/>
</mask>
<g mask="url(#mask0_2089_45)">
<path fill-rule="evenodd" clip-rule="evenodd" d="M22.1667 149.5C21.2462 149.5 20.5 150.246 20.5 151.167V162.833C20.5 163.754 21.2462 164.5 22.1667 164.5H33.8333C34.7538 164.5 35.5 163.754 35.5 162.833V151.167C35.5 150.246 34.7538 149.5 33.8333 149.5H22.1667ZM24.6667 157.833C24.6667 157.373 24.2936 157 23.8333 157C23.3731 157 23 157.373 23 157.833V161.167C23 161.627 23.3731 162 23.8333 162C24.2936 162 24.6667 161.627 24.6667 161.167V157.833ZM28 154.5C28.4602 154.5 28.8333 154.873 28.8333 155.333V161.167C28.8333 161.627 28.4602 162 28 162C27.5398 162 27.1667 161.627 27.1667 161.167V155.333C27.1667 154.873 27.5398 154.5 28 154.5ZM33 152.833C33 152.373 32.6269 152 32.1667 152C31.7064 152 31.3333 152.373 31.3333 152.833V161.167C31.3333 161.627 31.7064 162 32.1667 162C32.6269 162 33 161.627 33 161.167V152.833Z" fill="url(#paint2_linear_2089_45)"/>
</g>
</g>
</g>
<rect x="165.102" y="133.407" width="155" height="79" rx="12.7323" transform="rotate(8.96364 165.102 133.407)" fill="url(#paint3_linear_2089_45)"/>
<path d="M218.995 202.897L216.601 202.519L216.214 204.973L214.957 204.775L215.344 202.321L212.95 201.944L213.129 200.806L215.524 201.183L215.911 198.73L217.167 198.928L216.78 201.381L219.175 201.759L218.995 202.897ZM222.499 202.624C221.742 202.083 221.433 201.37 221.573 200.485C221.64 200.059 221.809 199.684 222.078 199.362C222.347 199.04 222.712 198.81 223.171 198.672C223.631 198.526 224.17 198.502 224.786 198.599C225.394 198.695 225.895 198.883 226.288 199.164C226.691 199.438 226.97 199.769 227.128 200.159C227.285 200.548 227.33 200.956 227.262 201.383C227.193 201.825 227.016 202.198 226.734 202.502C226.46 202.799 226.123 203.009 225.723 203.132C226.147 203.369 226.46 203.698 226.661 204.118C226.863 204.531 226.924 204.99 226.845 205.496C226.763 206.009 226.561 206.443 226.238 206.797C225.915 207.151 225.504 207.398 225.004 207.538C224.504 207.678 223.958 207.701 223.365 207.607C222.772 207.514 222.26 207.324 221.827 207.037C221.402 206.751 221.091 206.39 220.892 205.954C220.694 205.518 220.635 205.043 220.716 204.529C220.797 204.016 220.997 203.594 221.317 203.263C221.636 202.933 222.03 202.72 222.499 202.624ZM225.944 201.345C226.014 200.902 225.929 200.541 225.69 200.26C225.451 199.979 225.09 199.801 224.608 199.725C224.134 199.65 223.74 199.709 223.426 199.903C223.112 200.096 222.92 200.418 222.849 200.869C222.786 201.264 222.877 201.61 223.122 201.908C223.376 202.199 223.728 202.38 224.178 202.451C224.629 202.522 225.02 202.454 225.352 202.248C225.685 202.041 225.882 201.74 225.944 201.345ZM224.018 203.471C223.496 203.388 223.049 203.451 222.676 203.66C222.312 203.862 222.092 204.204 222.016 204.686C221.945 205.136 222.045 205.528 222.316 205.863C222.589 206.189 222.997 206.395 223.543 206.481C224.08 206.566 224.525 206.491 224.878 206.255C225.239 206.02 225.455 205.682 225.524 205.239C225.599 204.765 225.495 204.372 225.212 204.06C224.937 203.749 224.539 203.553 224.018 203.471ZM228.708 201.514C228.799 200.937 229.036 200.512 229.419 200.241C229.811 199.962 230.272 199.865 230.801 199.949C231.331 200.032 231.735 200.266 232.015 200.65C232.304 201.028 232.403 201.505 232.312 202.082C232.221 202.659 231.979 203.086 231.587 203.365C231.203 203.644 230.746 203.742 230.216 203.659C229.687 203.575 229.278 203.341 228.991 202.955C228.711 202.571 228.617 202.09 228.708 201.514ZM236.206 200.959L230.175 208.463L228.848 208.254L234.878 200.75L236.206 200.959ZM230.672 200.767C230.175 200.688 229.871 200.992 229.763 201.68C229.653 202.375 229.847 202.762 230.345 202.841C230.582 202.878 230.777 202.824 230.93 202.678C231.092 202.525 231.2 202.271 231.257 201.916C231.365 201.228 231.17 200.845 230.672 200.767ZM232.768 207.123C232.859 206.546 233.096 206.121 233.479 205.85C233.871 205.572 234.332 205.474 234.861 205.558C235.383 205.64 235.783 205.873 236.063 206.257C236.351 206.635 236.45 207.112 236.359 207.689C236.268 208.266 236.027 208.694 235.635 208.972C235.25 209.251 234.797 209.35 234.276 209.268C233.746 209.184 233.338 208.95 233.051 208.564C232.771 208.18 232.677 207.699 232.768 207.123ZM234.72 206.374C234.222 206.295 233.919 206.6 233.811 207.287C233.702 207.975 233.897 208.358 234.395 208.436C234.893 208.515 235.196 208.21 235.304 207.523C235.413 206.835 235.218 206.452 234.72 206.374ZM244.15 205.103L242.941 204.913L242.085 210.342L240.721 210.127L241.578 204.698L240.807 204.576L240.981 203.474L241.752 203.595L241.824 203.133C241.943 202.382 242.226 201.868 242.675 201.591C243.133 201.307 243.789 201.232 244.642 201.366L244.465 202.492C244.054 202.428 243.753 202.461 243.562 202.593C243.372 202.717 243.247 202.969 243.188 203.348L243.115 203.81L244.324 204.001L244.15 205.103ZM246.723 205.351C246.973 205.051 247.274 204.835 247.627 204.704C247.989 204.567 248.395 204.534 248.845 204.605L248.625 206.004L248.281 205.949C247.751 205.866 247.327 205.937 247.008 206.162C246.697 206.388 246.489 206.833 246.385 207.497L245.842 210.934L244.491 210.721L245.521 204.19L246.873 204.403L246.723 205.351ZM251.856 211.992C251.24 211.895 250.705 211.669 250.251 211.314C249.798 210.951 249.469 210.494 249.264 209.943C249.061 209.385 249.012 208.77 249.118 208.098C249.223 207.434 249.462 206.869 249.835 206.401C250.208 205.933 250.67 205.601 251.219 205.404C251.769 205.208 252.355 205.158 252.98 205.257C253.604 205.355 254.147 205.583 254.609 205.939C255.071 206.296 255.408 206.754 255.619 207.313C255.831 207.873 255.884 208.485 255.779 209.149C255.675 209.813 255.432 210.378 255.05 210.844C254.669 211.31 254.195 211.644 253.629 211.847C253.072 212.042 252.481 212.091 251.856 211.992ZM252.042 210.819C252.389 210.874 252.726 210.842 253.053 210.723C253.387 210.606 253.675 210.396 253.917 210.094C254.159 209.792 254.318 209.404 254.393 208.93C254.467 208.456 254.439 208.042 254.309 207.69C254.179 207.329 253.978 207.042 253.704 206.829C253.429 206.616 253.119 206.482 252.771 206.427C252.423 206.372 252.086 206.404 251.76 206.522C251.441 206.642 251.169 206.854 250.942 207.159C250.717 207.455 250.568 207.841 250.493 208.315C250.382 209.018 250.474 209.591 250.768 210.035C251.072 210.471 251.496 210.733 252.042 210.819ZM265.553 207.24C266.066 207.321 266.508 207.5 266.877 207.777C267.254 208.055 267.524 208.422 267.688 208.877C267.859 209.333 267.897 209.857 267.804 210.45L267.196 214.302L265.857 214.091L266.433 210.44C266.525 209.856 266.449 209.386 266.205 209.032C265.963 208.67 265.589 208.449 265.083 208.369C264.577 208.289 264.149 208.383 263.799 208.652C263.458 208.914 263.241 209.338 263.149 209.922L262.573 213.573L261.234 213.362L261.81 209.711C261.902 209.126 261.826 208.657 261.583 208.303C261.34 207.94 260.966 207.719 260.46 207.64C259.954 207.56 259.526 207.654 259.176 207.923C258.835 208.185 258.619 208.609 258.526 209.193L257.951 212.844L256.599 212.631L257.629 206.1L258.981 206.313L258.863 207.06C259.127 206.826 259.44 206.661 259.804 206.564C260.167 206.468 260.542 206.45 260.93 206.511C261.451 206.593 261.9 206.777 262.276 207.063C262.652 207.35 262.918 207.719 263.073 208.173C263.333 207.809 263.69 207.546 264.145 207.383C264.601 207.212 265.07 207.164 265.553 207.24ZM278.904 209.456L273.383 218.425L271.985 218.204L273.813 215.237L272.255 208.407L273.76 208.644L274.812 213.912L277.506 209.235L278.904 209.456ZM285.42 213.666C285.382 213.911 285.331 214.13 285.268 214.322L280.278 213.535C280.235 214.063 280.363 214.512 280.66 214.883C280.958 215.254 281.36 215.48 281.866 215.559C282.593 215.674 283.154 215.451 283.551 214.89L285.009 215.12C284.716 215.689 284.279 216.126 283.696 216.431C283.123 216.73 282.453 216.818 281.686 216.697C281.062 216.599 280.523 216.372 280.069 216.017C279.624 215.655 279.299 215.199 279.094 214.648C278.898 214.091 278.854 213.477 278.96 212.805C279.065 212.133 279.293 211.566 279.641 211.102C279.999 210.632 280.444 210.298 280.978 210.098C281.519 209.9 282.11 209.852 282.75 209.953C283.367 210.05 283.895 210.271 284.334 210.616C284.774 210.96 285.089 211.399 285.281 211.931C285.473 212.456 285.52 213.034 285.42 213.666ZM284.077 213.017C284.148 212.518 284.033 212.091 283.732 211.736C283.432 211.38 283.025 211.162 282.511 211.081C282.045 211.008 281.622 211.095 281.243 211.343C280.865 211.583 280.605 211.951 280.462 212.447L284.077 213.017ZM288.564 217.782C288.05 217.701 287.602 217.537 287.22 217.291C286.847 217.038 286.566 216.734 286.379 216.381C286.193 216.019 286.124 215.64 286.17 215.242L287.569 215.463C287.549 215.743 287.642 215.997 287.85 216.224C288.066 216.444 288.356 216.583 288.719 216.641C289.099 216.7 289.402 216.675 289.63 216.566C289.867 216.449 290.004 216.276 290.04 216.047C290.079 215.802 289.989 215.602 289.77 215.446C289.56 215.291 289.213 215.103 288.73 214.881C288.261 214.669 287.882 214.476 287.594 214.301C287.306 214.126 287.068 213.89 286.88 213.593C286.7 213.297 286.643 212.936 286.711 212.509C286.765 212.161 286.918 211.861 287.168 211.609C287.42 211.349 287.748 211.166 288.154 211.06C288.567 210.955 289.023 210.942 289.521 211.021C290.264 211.138 290.83 211.422 291.221 211.872C291.621 212.316 291.785 212.864 291.715 213.517L290.363 213.304C290.386 213.008 290.304 212.756 290.118 212.548C289.932 212.341 289.657 212.209 289.294 212.151C288.938 212.095 288.655 212.119 288.444 212.224C288.233 212.328 288.11 212.491 288.076 212.712C288.048 212.886 288.088 213.042 288.196 213.181C288.304 213.319 288.443 213.438 288.613 213.538C288.785 213.63 289.041 213.755 289.38 213.914C289.834 214.115 290.201 214.307 290.48 214.489C290.768 214.664 291.003 214.895 291.185 215.183C291.366 215.471 291.428 215.825 291.369 216.245C291.311 216.616 291.156 216.932 290.904 217.192C290.653 217.452 290.324 217.635 289.919 217.741C289.521 217.848 289.069 217.862 288.564 217.782ZM293.074 218.469C292.829 218.431 292.636 218.315 292.497 218.123C292.357 217.931 292.306 217.712 292.345 217.468C292.384 217.223 292.499 217.03 292.691 216.89C292.883 216.751 293.102 216.7 293.347 216.739C293.584 216.776 293.772 216.891 293.912 217.083C294.052 217.275 294.102 217.494 294.064 217.739C294.025 217.984 293.91 218.176 293.718 218.316C293.525 218.456 293.311 218.507 293.074 218.469ZM295.933 218.92C295.688 218.882 295.496 218.766 295.356 218.574C295.216 218.382 295.165 218.163 295.204 217.918C295.243 217.674 295.358 217.481 295.55 217.341C295.742 217.202 295.961 217.151 296.206 217.19C296.443 217.227 296.631 217.342 296.771 217.534C296.911 217.726 296.962 217.945 296.923 218.19C296.884 218.435 296.769 218.627 296.577 218.767C296.385 218.906 296.17 218.958 295.933 218.92Z" fill="#7544FF"/>
<path d="M221.553 167.874C219.161 167.497 217.664 165.805 217.912 163.78L220.065 164.12C220.048 165.082 220.779 165.862 221.859 166.032C223.079 166.224 224.054 165.508 224.245 164.297C224.44 163.062 223.735 162.065 222.531 161.875C221.69 161.742 220.903 162.014 220.417 162.593L218.333 162.265L219.891 155.946L226.975 157.063L226.683 158.915L221.428 158.087L220.693 161.095L220.739 161.102C221.312 160.425 222.274 160.094 223.408 160.273C225.538 160.609 226.819 162.417 226.477 164.585C226.105 166.947 224.107 168.277 221.553 167.874ZM231.508 169.444C228.707 169.002 227.353 166.503 227.921 162.899C228.489 159.303 230.558 157.367 233.344 157.807C236.13 158.246 237.496 160.716 236.929 164.312C236.361 167.908 234.309 169.886 231.508 169.444ZM231.803 167.577C233.13 167.786 234.158 166.485 234.558 163.946C234.955 161.43 234.369 159.883 233.049 159.674C231.737 159.467 230.686 160.765 230.291 163.273C229.891 165.804 230.475 167.367 231.803 167.577ZM241.803 171.068C239.001 170.626 237.648 168.127 238.216 164.523C238.783 160.927 240.852 158.991 243.638 159.431C246.424 159.87 247.79 162.34 247.223 165.936C246.656 169.532 244.604 171.51 241.803 171.068ZM242.097 169.201C243.425 169.41 244.452 168.109 244.853 165.57C245.25 163.054 244.663 161.506 243.344 161.298C242.032 161.091 240.981 162.389 240.585 164.897C240.186 167.428 240.77 168.991 242.097 169.201ZM252.097 172.692C249.296 172.25 247.942 169.751 248.511 166.147C249.078 162.551 251.147 160.615 253.933 161.054C256.719 161.494 258.085 163.964 257.518 167.56C256.951 171.156 254.899 173.134 252.097 172.692ZM252.392 170.824C253.719 171.034 254.747 169.733 255.147 167.194C255.544 164.678 254.958 163.13 253.638 162.922C252.326 162.715 251.275 164.013 250.88 166.521C250.481 169.052 251.064 170.615 252.392 170.824Z" fill="#CEC1F1"/>
<path opacity="0.5" d="M218.167 183.285L216.871 183.08L218.012 175.845L215.454 175.442L215.63 174.325L222.037 175.336L221.861 176.453L219.308 176.05L218.167 183.285ZM222.733 184.124C220.991 183.849 220.034 182.47 220.343 180.508C220.652 178.552 221.992 177.535 223.729 177.809C225.465 178.083 226.428 179.463 226.119 181.419C225.81 183.381 224.475 184.398 222.733 184.124ZM222.895 183.093C223.879 183.249 224.632 182.572 224.846 181.218C225.059 179.87 224.544 178.994 223.566 178.839C222.588 178.685 221.829 179.36 221.616 180.709C221.403 182.063 221.917 182.939 222.895 183.093ZM228.158 177.143L229.414 177.341L229.187 178.783L230.344 178.965L230.188 179.955L229.031 179.772L228.501 183.129C228.418 183.656 228.612 183.93 229.121 184.01C229.249 184.03 229.453 184.051 229.537 184.046L229.381 185.036C229.236 185.049 228.955 185.028 228.677 184.984C227.444 184.79 227.038 184.245 227.223 183.07L227.775 179.574L226.889 179.435L227.045 178.445L227.931 178.585L228.158 177.143ZM232.591 184.652C233.465 184.79 234.243 184.296 234.368 183.503L234.444 183.023L232.93 182.879C232.175 182.813 231.701 183.076 231.619 183.597C231.535 184.13 231.92 184.546 232.591 184.652ZM232.088 185.587C230.895 185.399 230.179 184.527 230.351 183.433C230.519 182.368 231.439 181.843 232.898 181.99L234.581 182.155L234.655 181.686C234.761 181.009 234.368 180.531 233.604 180.411C232.881 180.297 232.374 180.573 232.179 181.099L230.998 180.913C231.241 179.824 232.306 179.162 233.811 179.399C235.287 179.632 236.107 180.562 235.915 181.784L235.253 185.98L234.055 185.791L234.213 184.789L234.184 184.785C233.724 185.406 232.886 185.713 232.088 185.587ZM236.514 186.179L237.832 177.827L239.082 178.024L237.765 186.376L236.514 186.179ZM246.559 179.061C248.961 179.44 250.209 181.339 249.79 183.996C249.371 186.653 247.599 188.07 245.197 187.691C242.79 187.311 241.546 185.418 241.965 182.762C242.384 180.105 244.151 178.681 246.559 179.061ZM246.379 180.201C244.793 179.951 243.598 181.02 243.29 182.971C242.984 184.915 243.791 186.3 245.377 186.551C246.963 186.801 248.152 185.731 248.459 183.786C248.767 181.835 247.965 180.451 246.379 180.201ZM250.22 188.341L251.18 182.252L252.373 182.44L252.209 183.476L252.238 183.48C252.553 182.801 253.164 182.464 253.881 182.577C254.061 182.605 254.213 182.659 254.302 182.691L254.119 183.854C254.027 183.798 253.812 183.735 253.568 183.696C252.764 183.569 252.181 184.029 252.045 184.891L251.47 188.538L250.22 188.341ZM256.113 189.377C254.573 189.134 253.748 187.746 254.051 185.825C254.354 183.903 255.566 182.843 257.094 183.084C257.968 183.222 258.593 183.771 258.828 184.496L258.852 184.5L259.368 181.224L260.624 181.422L259.307 189.774L258.091 189.582L258.255 188.546L258.232 188.543C257.763 189.18 256.998 189.517 256.113 189.377ZM257.269 184.191C256.279 184.035 255.532 184.747 255.33 186.027C255.128 187.311 255.62 188.214 256.61 188.37C257.571 188.521 258.342 187.807 258.543 186.533C258.742 185.271 258.23 184.342 257.269 184.191ZM263.957 185.187C263.083 185.049 262.365 185.618 262.156 186.528L265.2 187.008C265.318 186.072 264.831 185.324 263.957 185.187ZM264.908 188.824L266.094 189.012C265.746 190.095 264.567 190.722 263.172 190.502C261.384 190.22 260.492 188.84 260.795 186.918C261.097 185.008 262.397 183.908 264.116 184.18C265.806 184.446 266.671 185.805 266.38 187.651L266.313 188.079L262.012 187.401L262 187.476C261.833 188.535 262.36 189.336 263.361 189.494C264.073 189.606 264.656 189.33 264.908 188.824ZM266.854 190.964L267.815 184.876L269.007 185.064L268.843 186.1L268.872 186.104C269.187 185.424 269.798 185.088 270.516 185.201C270.695 185.229 270.847 185.283 270.937 185.315L270.753 186.478C270.661 186.422 270.446 186.358 270.203 186.32C269.398 186.193 268.815 186.653 268.679 187.515L268.104 191.162L266.854 190.964Z" fill="#CEC1F1"/>
<g clip-path="url(#clip1_2089_45)">
<g filter="url(#filter1_bi_2089_45)">
<rect x="173.421" y="144.843" width="36" height="36" rx="18" transform="rotate(8.96364 173.421 144.843)" fill="url(#paint4_linear_2089_45)" fill-opacity="0.2"/>
</g>
<mask id="mask1_2089_45" style="mask-type:luminance" maskUnits="userSpaceOnUse" x="171" y="148" width="34" height="34">
<rect x="176.415" y="148.96" width="28.8" height="28.8" transform="rotate(8.96364 176.415 148.96)" fill="white"/>
</mask>
<g mask="url(#mask1_2089_45)">
<path fill-rule="evenodd" clip-rule="evenodd" d="M182.699 159.687C182.999 157.79 184.779 156.494 186.677 156.793L191.83 157.606L191.288 161.042C190.989 162.939 192.284 164.72 194.181 165.019L195.899 165.29L194.815 172.161C194.516 174.058 192.735 175.353 190.838 175.054L183.967 173.97C182.07 173.671 180.774 171.89 181.074 169.993L182.699 159.687ZM185.457 164.523C184.983 164.448 184.538 164.772 184.463 165.246C184.388 165.721 184.712 166.166 185.186 166.241L186.904 166.512C187.378 166.586 187.824 166.263 187.898 165.788C187.973 165.314 187.649 164.869 187.175 164.794L185.457 164.523ZM184.915 167.958C184.441 167.884 183.996 168.207 183.921 168.682C183.846 169.156 184.17 169.601 184.645 169.676L188.08 170.218C188.554 170.293 188.999 169.969 189.074 169.495C189.149 169.02 188.825 168.575 188.351 168.5L184.915 167.958ZM193.835 159.858L193.457 161.527C193.34 162.04 193.703 162.538 194.226 162.585L195.931 162.739C196.675 162.806 197.152 161.965 196.712 161.361L195.386 159.539C194.947 158.935 194 159.129 193.835 159.858Z" fill="url(#paint5_linear_2089_45)"/>
</g>
</g>
<g clip-path="url(#clip2_2089_45)">
<rect width="290" height="123" rx="12.7323" fill="url(#paint6_linear_2089_45)"/>
<g filter="url(#filter2_f_2089_45)">
<ellipse cx="134" cy="19.5" rx="168" ry="47.5" fill="#C61986" fill-opacity="0.15"/>
</g>
<path opacity="0.7" d="M23.8425 21.5V22.76H20.3475V32H19.0875V22.76H15.6V21.5H23.8425ZM27.491 32.195C26.801 32.195 26.171 32.0175 25.601 31.6625C25.036 31.3075 24.5835 30.8325 24.2435 30.2375C23.9085 29.6375 23.741 28.975 23.741 28.25C23.741 27.7 23.8385 27.1875 24.0335 26.7125C24.2285 26.2325 24.496 25.8125 24.836 25.4525C25.181 25.0875 25.581 24.8025 26.036 24.5975C26.491 24.3925 26.976 24.29 27.491 24.29C28.181 24.29 28.8085 24.4675 29.3735 24.8225C29.9435 25.1775 30.396 25.655 30.731 26.255C31.071 26.855 31.241 27.52 31.241 28.25C31.241 28.795 31.1435 29.305 30.9485 29.78C30.7535 30.255 30.4835 30.675 30.1385 31.04C29.7985 31.4 29.401 31.6825 28.946 31.8875C28.496 32.0925 28.011 32.195 27.491 32.195ZM27.491 30.935C27.961 30.935 28.3835 30.8125 28.7585 30.5675C29.1385 30.3175 29.436 29.99 29.651 29.585C29.871 29.175 29.981 28.73 29.981 28.25C29.981 27.76 29.8685 27.31 29.6435 26.9C29.4235 26.49 29.126 26.1625 28.751 25.9175C28.376 25.6725 27.956 25.55 27.491 25.55C27.021 25.55 26.5985 25.675 26.2235 25.925C25.8485 26.17 25.551 26.4975 25.331 26.9075C25.111 27.3175 25.001 27.765 25.001 28.25C25.001 28.75 25.1135 29.205 25.3385 29.615C25.5635 30.02 25.866 30.3425 26.246 30.5825C26.626 30.8175 27.041 30.935 27.491 30.935ZM38.4756 20.75H39.7356V32H38.4756V30.725C38.2206 31.165 37.8781 31.52 37.4481 31.79C37.0181 32.06 36.5131 32.195 35.9331 32.195C35.3881 32.195 34.8781 32.0925 34.4031 31.8875C33.9281 31.6825 33.5081 31.4 33.1431 31.04C32.7831 30.675 32.5006 30.255 32.2956 29.78C32.0906 29.305 31.9881 28.795 31.9881 28.25C31.9881 27.705 32.0906 27.195 32.2956 26.72C32.5006 26.24 32.7831 25.82 33.1431 25.46C33.5081 25.095 33.9281 24.81 34.4031 24.605C34.8781 24.4 35.3881 24.2975 35.9331 24.2975C36.5131 24.2975 37.0181 24.4325 37.4481 24.7025C37.8781 24.9725 38.2206 25.3275 38.4756 25.7675V20.75ZM35.9481 30.9725C36.4431 30.9725 36.8706 30.8525 37.2306 30.6125C37.5956 30.3675 37.8756 30.0375 38.0706 29.6225C38.2706 29.2075 38.3706 28.75 38.3706 28.25C38.3706 27.74 38.2706 27.28 38.0706 26.87C37.8706 26.455 37.5881 26.1275 37.2231 25.8875C36.8631 25.6425 36.4381 25.52 35.9481 25.52C35.4531 25.52 35.0031 25.6425 34.5981 25.8875C34.1981 26.1325 33.8781 26.4625 33.6381 26.8775C33.3981 27.2875 33.2781 27.745 33.2781 28.25C33.2781 28.755 33.4006 29.215 33.6456 29.63C33.8906 30.04 34.2156 30.3675 34.6206 30.6125C35.0256 30.8525 35.4681 30.9725 35.9481 30.9725ZM47.4915 24.5H48.7515V32H47.4915L47.439 30.7325C47.204 31.1675 46.879 31.52 46.464 31.79C46.054 32.06 45.564 32.195 44.994 32.195C44.444 32.195 43.929 32.0925 43.449 31.8875C42.969 31.6775 42.544 31.39 42.174 31.025C41.809 30.655 41.524 30.23 41.319 29.75C41.114 29.27 41.0115 28.7525 41.0115 28.1975C41.0115 27.6625 41.1115 27.1575 41.3115 26.6825C41.5115 26.2075 41.789 25.7925 42.144 25.4375C42.504 25.0775 42.919 24.7975 43.389 24.5975C43.859 24.3925 44.364 24.29 44.904 24.29C45.494 24.29 46.0115 24.43 46.4565 24.71C46.9015 24.985 47.2615 25.3425 47.5365 25.7825L47.4915 24.5ZM44.9715 30.9725C45.4665 30.9725 45.894 30.8525 46.254 30.6125C46.619 30.3675 46.899 30.0375 47.094 29.6225C47.294 29.2075 47.394 28.75 47.394 28.25C47.394 27.74 47.294 27.28 47.094 26.87C46.894 26.455 46.6115 26.1275 46.2465 25.8875C45.8865 25.6425 45.4615 25.52 44.9715 25.52C44.4765 25.52 44.0265 25.6425 43.6215 25.8875C43.2165 26.1325 42.894 26.4625 42.654 26.8775C42.419 27.2875 42.3015 27.745 42.3015 28.25C42.3015 28.755 42.424 29.215 42.669 29.63C42.914 30.04 43.239 30.3675 43.644 30.6125C44.049 30.8525 44.4915 30.9725 44.9715 30.9725ZM55.1537 24.5H56.4887L52.3862 35.75H51.0512L52.4087 32L49.7162 24.5H51.0962L53.0387 30.2675L55.1537 24.5ZM57.385 25.415L57.85 21.5H59.11L58.225 25.415H57.385ZM62.748 32.1425C62.343 32.1275 61.948 32.0525 61.563 31.9175C61.183 31.7775 60.848 31.59 60.558 31.355C60.273 31.115 60.0655 30.84 59.9355 30.53L61.0155 30.065C61.0905 30.235 61.2255 30.395 61.4205 30.545C61.6155 30.695 61.8405 30.815 62.0955 30.905C62.3505 30.995 62.608 31.04 62.868 31.04C63.143 31.04 63.4005 30.9975 63.6405 30.9125C63.8805 30.8275 64.0755 30.7025 64.2255 30.5375C64.3805 30.3675 64.458 30.165 64.458 29.93C64.458 29.68 64.373 29.485 64.203 29.345C64.038 29.2 63.828 29.0875 63.573 29.0075C63.323 28.9225 63.068 28.8425 62.808 28.7675C62.293 28.6375 61.833 28.4825 61.428 28.3025C61.023 28.1175 60.703 27.885 60.468 27.605C60.238 27.32 60.123 26.9575 60.123 26.5175C60.123 26.0525 60.2505 25.65 60.5055 25.31C60.7655 24.97 61.1055 24.7075 61.5255 24.5225C61.9455 24.3375 62.3955 24.245 62.8755 24.245C63.4805 24.245 64.033 24.375 64.533 24.635C65.033 24.895 65.4055 25.2475 65.6505 25.6925L64.638 26.285C64.553 26.105 64.423 25.9475 64.248 25.8125C64.073 25.6725 63.873 25.5625 63.648 25.4825C63.423 25.4025 63.193 25.36 62.958 25.355C62.668 25.345 62.3955 25.3825 62.1405 25.4675C61.8905 25.5525 61.688 25.6825 61.533 25.8575C61.383 26.0275 61.308 26.24 61.308 26.495C61.308 26.745 61.388 26.935 61.548 27.065C61.713 27.195 61.9255 27.3 62.1855 27.38C62.4505 27.455 62.738 27.5425 63.048 27.6425C63.503 27.7875 63.928 27.955 64.323 28.145C64.718 28.335 65.0355 28.5725 65.2755 28.8575C65.5205 29.1425 65.6405 29.495 65.6355 29.915C65.6355 30.375 65.498 30.7775 65.223 31.1225C64.948 31.4625 64.5905 31.7225 64.1505 31.9025C63.7155 32.0825 63.248 32.1625 62.748 32.1425ZM70.524 32V21.5H74.214C74.774 21.5 75.279 21.6375 75.729 21.9125C76.184 22.1875 76.544 22.56 76.809 23.03C77.079 23.495 77.214 24.015 77.214 24.59C77.214 25.095 77.114 25.555 76.914 25.97C76.714 26.385 76.439 26.7325 76.089 27.0125C75.744 27.2875 75.3515 27.4775 74.9115 27.5825L77.4615 32H76.0065L73.5015 27.6875H71.784V32H70.524ZM71.784 26.4275H74.0865C74.4265 26.4275 74.739 26.345 75.024 26.18C75.309 26.01 75.534 25.7825 75.699 25.4975C75.869 25.2075 75.954 24.8825 75.954 24.5225C75.954 24.1575 75.869 23.8325 75.699 23.5475C75.534 23.2575 75.309 23.03 75.024 22.865C74.739 22.695 74.4265 22.61 74.0865 22.61H71.784V26.4275ZM81.9979 32.195C81.3079 32.195 80.6779 32.0175 80.1079 31.6625C79.5429 31.3075 79.0904 30.8325 78.7504 30.2375C78.4154 29.6375 78.2479 28.975 78.2479 28.25C78.2479 27.7 78.3454 27.1875 78.5404 26.7125C78.7354 26.2325 79.0029 25.8125 79.3429 25.4525C79.6879 25.0875 80.0879 24.8025 80.5429 24.5975C80.9979 24.3925 81.4829 24.29 81.9979 24.29C82.5629 24.29 83.0804 24.405 83.5504 24.635C84.0254 24.86 84.4304 25.175 84.7654 25.58C85.1054 25.985 85.3579 26.455 85.5229 26.99C85.6929 27.525 85.7554 28.0975 85.7104 28.7075H79.5904C79.6504 29.1325 79.7904 29.5125 80.0104 29.8475C80.2304 30.1775 80.5104 30.44 80.8504 30.635C81.1954 30.83 81.5779 30.93 81.9979 30.935C82.4479 30.935 82.8554 30.82 83.2204 30.59C83.5854 30.355 83.8804 30.035 84.1054 29.63L85.3879 29.93C85.0879 30.595 84.6354 31.14 84.0304 31.565C83.4254 31.985 82.7479 32.195 81.9979 32.195ZM79.5529 27.7175H84.4429C84.4029 27.2975 84.2679 26.915 84.0379 26.57C83.8079 26.22 83.5154 25.94 83.1604 25.73C82.8054 25.52 82.4179 25.415 81.9979 25.415C81.5779 25.415 81.1929 25.5175 80.8429 25.7225C80.4929 25.9275 80.2029 26.205 79.9729 26.555C79.7479 26.9 79.6079 27.2875 79.5529 27.7175ZM90.552 32H88.9395L86.202 24.485H87.5445L89.742 30.5375L91.9395 24.485H93.282L90.552 32ZM97.5105 32.195C96.8205 32.195 96.1905 32.0175 95.6205 31.6625C95.0555 31.3075 94.603 30.8325 94.263 30.2375C93.928 29.6375 93.7605 28.975 93.7605 28.25C93.7605 27.7 93.858 27.1875 94.053 26.7125C94.248 26.2325 94.5155 25.8125 94.8555 25.4525C95.2005 25.0875 95.6005 24.8025 96.0555 24.5975C96.5105 24.3925 96.9955 24.29 97.5105 24.29C98.0755 24.29 98.593 24.405 99.063 24.635C99.538 24.86 99.943 25.175 100.278 25.58C100.618 25.985 100.871 26.455 101.036 26.99C101.206 27.525 101.268 28.0975 101.223 28.7075H95.103C95.163 29.1325 95.303 29.5125 95.523 29.8475C95.743 30.1775 96.023 30.44 96.363 30.635C96.708 30.83 97.0905 30.93 97.5105 30.935C97.9605 30.935 98.368 30.82 98.733 30.59C99.098 30.355 99.393 30.035 99.618 29.63L100.901 29.93C100.601 30.595 100.148 31.14 99.543 31.565C98.938 31.985 98.2605 32.195 97.5105 32.195ZM95.0655 27.7175H99.9555C99.9155 27.2975 99.7805 26.915 99.5505 26.57C99.3205 26.22 99.028 25.94 98.673 25.73C98.318 25.52 97.9305 25.415 97.5105 25.415C97.0905 25.415 96.7055 25.5175 96.3555 25.7225C96.0055 25.9275 95.7155 26.205 95.4855 26.555C95.2605 26.9 95.1205 27.2875 95.0655 27.7175ZM109.117 27.335V32H107.857V27.6125C107.857 27.2325 107.764 26.8875 107.579 26.5775C107.394 26.2675 107.147 26.0225 106.837 25.8425C106.527 25.6575 106.182 25.565 105.802 25.565C105.427 25.565 105.082 25.6575 104.767 25.8425C104.457 26.0225 104.209 26.2675 104.024 26.5775C103.839 26.8875 103.747 27.2325 103.747 27.6125V32H102.487V24.5H103.747V25.4375C104.012 25.0875 104.347 24.81 104.752 24.605C105.157 24.395 105.597 24.29 106.072 24.29C106.632 24.29 107.142 24.4275 107.602 24.7025C108.067 24.9725 108.434 25.3375 108.704 25.7975C108.979 26.2575 109.117 26.77 109.117 27.335ZM110.317 29.15V24.5H111.577V28.8725C111.577 29.2525 111.669 29.5975 111.854 29.9075C112.039 30.2175 112.287 30.465 112.597 30.65C112.912 30.83 113.257 30.92 113.632 30.92C114.012 30.92 114.354 30.83 114.659 30.65C114.969 30.465 115.217 30.2175 115.402 29.9075C115.587 29.5975 115.679 29.2525 115.679 28.8725V24.5H116.939L116.947 32H115.687L115.679 31.0475C115.414 31.3975 115.079 31.6775 114.674 31.8875C114.269 32.0925 113.832 32.195 113.362 32.195C112.802 32.195 112.289 32.06 111.824 31.79C111.364 31.515 110.997 31.1475 110.722 30.6875C110.452 30.2275 110.317 29.715 110.317 29.15ZM121.68 32.195C120.99 32.195 120.36 32.0175 119.79 31.6625C119.225 31.3075 118.773 30.8325 118.433 30.2375C118.098 29.6375 117.93 28.975 117.93 28.25C117.93 27.7 118.028 27.1875 118.223 26.7125C118.418 26.2325 118.685 25.8125 119.025 25.4525C119.37 25.0875 119.77 24.8025 120.225 24.5975C120.68 24.3925 121.165 24.29 121.68 24.29C122.245 24.29 122.763 24.405 123.233 24.635C123.708 24.86 124.113 25.175 124.448 25.58C124.788 25.985 125.04 26.455 125.205 26.99C125.375 27.525 125.438 28.0975 125.393 28.7075H119.273C119.333 29.1325 119.473 29.5125 119.693 29.8475C119.913 30.1775 120.193 30.44 120.533 30.635C120.878 30.83 121.26 30.93 121.68 30.935C122.13 30.935 122.538 30.82 122.903 30.59C123.268 30.355 123.563 30.035 123.788 29.63L125.07 29.93C124.77 30.595 124.318 31.14 123.713 31.565C123.108 31.985 122.43 32.195 121.68 32.195ZM119.235 27.7175H124.125C124.085 27.2975 123.95 26.915 123.72 26.57C123.49 26.22 123.198 25.94 122.843 25.73C122.488 25.52 122.1 25.415 121.68 25.415C121.26 25.415 120.875 25.5175 120.525 25.7225C120.175 25.9275 119.885 26.205 119.655 26.555C119.43 26.9 119.29 27.2875 119.235 27.7175Z" fill="#CEC1F1"/>
<path d="M20.5752 57.124L25.3984 63H21.7139L16.5684 56.6299V55.2656H19.1035C20.6719 55.2656 21.8213 54.5137 22.0039 53.3857H16.5898V51.3877H21.9824C21.8105 50.3027 20.8115 49.583 19.458 49.583H16.5791V47.499H28.0518V49.4648H23.6797V49.5938C24.2705 49.959 24.7646 50.6895 24.8613 51.3877H28.0518V53.3857H24.9473C24.7432 55.4053 22.9814 56.9629 20.7148 57.124H20.5752ZM34.2178 63V50.4746H34.1533L30.2002 53.2031V50.2812L34.207 47.499H37.4297V63H34.2178ZM46.8721 63.3438C43.542 63.3438 41.1465 61.3672 41.0498 58.5635H44.0469C44.2295 59.874 45.3896 60.7764 46.8936 60.7764C48.5908 60.7764 49.7617 59.5947 49.7617 57.9082C49.7617 56.1895 48.5908 54.9863 46.915 54.9863C45.7441 54.9863 44.7344 55.5234 44.1973 56.415H41.2969L42.0596 47.499H51.9209V50.0771H44.6055L44.251 54.3203H44.3154C44.9492 53.2783 46.1846 52.623 47.7637 52.623C50.7285 52.623 52.8555 54.8037 52.8555 57.8223C52.8555 61.1094 50.4277 63.3438 46.8721 63.3438ZM56.7871 66.3945H54.4346L55.2402 60.3359H58.2266L56.7871 66.3945ZM66.4229 63.3438C62.5234 63.3438 60.1494 60.2393 60.1494 55.2227C60.1494 50.2168 62.5449 47.1445 66.4229 47.1445C70.3008 47.1445 72.6855 50.2061 72.6855 55.2119C72.6855 60.2178 70.3223 63.3438 66.4229 63.3438ZM66.4229 60.7441C68.2705 60.7441 69.3877 58.7568 69.3877 55.2227C69.3877 51.7207 68.2598 49.7441 66.4229 49.7441C64.5967 49.7441 63.4473 51.7314 63.4473 55.2227C63.4473 58.7461 64.5752 60.7441 66.4229 60.7441ZM80.7529 63.3438C76.8535 63.3438 74.4795 60.2393 74.4795 55.2227C74.4795 50.2168 76.875 47.1445 80.7529 47.1445C84.6309 47.1445 87.0156 50.2061 87.0156 55.2119C87.0156 60.2178 84.6523 63.3438 80.7529 63.3438ZM80.7529 60.7441C82.6006 60.7441 83.7178 58.7568 83.7178 55.2227C83.7178 51.7207 82.5898 49.7441 80.7529 49.7441C78.9268 49.7441 77.7773 51.7314 77.7773 55.2227C77.7773 58.7461 78.9053 60.7441 80.7529 60.7441ZM90.7109 66.3945H88.3584L89.1641 60.3359H92.1504L90.7109 66.3945ZM100.347 63.3438C96.4473 63.3438 94.0732 60.2393 94.0732 55.2227C94.0732 50.2168 96.4688 47.1445 100.347 47.1445C104.225 47.1445 106.609 50.2061 106.609 55.2119C106.609 60.2178 104.246 63.3438 100.347 63.3438ZM100.347 60.7441C102.194 60.7441 103.312 58.7568 103.312 55.2227C103.312 51.7207 102.184 49.7441 100.347 49.7441C98.5205 49.7441 97.3711 51.7314 97.3711 55.2227C97.3711 58.7461 98.499 60.7441 100.347 60.7441ZM114.677 63.3438C110.777 63.3438 108.403 60.2393 108.403 55.2227C108.403 50.2168 110.799 47.1445 114.677 47.1445C118.555 47.1445 120.939 50.2061 120.939 55.2119C120.939 60.2178 118.576 63.3438 114.677 63.3438ZM114.677 60.7441C116.524 60.7441 117.642 58.7568 117.642 55.2227C117.642 51.7207 116.514 49.7441 114.677 49.7441C112.851 49.7441 111.701 51.7314 111.701 55.2227C111.701 58.7461 112.829 60.7441 114.677 60.7441ZM129.007 63.3438C125.107 63.3438 122.733 60.2393 122.733 55.2227C122.733 50.2168 125.129 47.1445 129.007 47.1445C132.885 47.1445 135.27 50.2061 135.27 55.2119C135.27 60.2178 132.906 63.3438 129.007 63.3438ZM129.007 60.7441C130.854 60.7441 131.972 58.7568 131.972 55.2227C131.972 51.7207 130.844 49.7441 129.007 49.7441C127.181 49.7441 126.031 51.7314 126.031 55.2227C126.031 58.7461 127.159 60.7441 129.007 60.7441Z" fill="#CEC1F1"/>
<rect x="15" y="78.4961" width="58.2337" height="22.9496" rx="11.4748" fill="#00AE4E" fill-opacity="0.1"/>
<path d="M25.4928 87.1552L29.5145 87.1552L29.5145 91.1769" stroke="#00AE4E" stroke-width="0.936999" stroke-miterlimit="10" stroke-linecap="round" stroke-linejoin="round"/>
<path d="M23.8826 92.7869L29.458 87.2114" stroke="#00AE4E" stroke-width="0.936999" stroke-miterlimit="10" stroke-linecap="round" stroke-linejoin="round"/>
<path d="M35.0968 92.3291H39.5424V94.3701H40.8705V92.3291H42.4222V91.0569H40.8705V85.3111H38.9832L35.0968 90.7493V92.3291ZM39.5424 91.0569H36.355L39.5424 86.6253V91.0569ZM43.6509 93.4754C43.6509 94.0206 44.0703 94.44 44.6155 94.44C45.1608 94.44 45.5941 94.0206 45.5941 93.4754C45.5941 92.9302 45.1608 92.4968 44.6155 92.4968C44.0703 92.4968 43.6509 92.9302 43.6509 93.4754ZM50.3889 89.1696C49.4243 89.1556 48.7113 88.5685 48.7113 87.6877C48.7113 86.8769 49.3684 86.2338 50.3889 86.2338C51.4094 86.2338 52.0665 86.8769 52.0665 87.6877C52.0665 88.5685 51.3535 89.1556 50.3889 89.1696ZM50.3889 93.3915C49.1727 93.3915 48.4877 92.7205 48.4877 91.8677C48.4877 91.001 49.1866 90.3159 50.3889 90.3159C51.5912 90.3159 52.2902 91.001 52.2902 91.8677C52.2902 92.7205 51.6052 93.3915 50.3889 93.3915ZM50.3889 94.5798C52.4719 94.5798 53.6742 93.4335 53.6742 91.9796C53.6742 90.8751 52.9193 90.0503 51.9547 89.7428C52.7935 89.4352 53.4365 88.5964 53.4365 87.6178C53.4365 86.136 52.1224 85.1014 50.3889 85.1014C48.6554 85.1014 47.3413 86.136 47.3413 87.6178C47.3413 88.6244 47.9984 89.4352 48.8232 89.7428C47.8586 90.0643 47.1036 90.8751 47.1036 91.9796C47.1036 93.4335 48.3059 94.5798 50.3889 94.5798ZM56.0259 87.4081C56.0259 86.779 56.5012 86.3177 57.1023 86.3177C57.7174 86.3177 58.1788 86.779 58.1788 87.4081C58.1788 88.0512 57.7174 88.5125 57.1023 88.5125C56.5012 88.5125 56.0259 88.0512 56.0259 87.4081ZM54.8655 87.4081C54.8655 88.6523 55.9001 89.617 57.1023 89.617C58.3046 89.617 59.3531 88.6523 59.3531 87.4081C59.3531 86.1779 58.3046 85.2133 57.1023 85.2133C55.9001 85.2133 54.8655 86.1779 54.8655 87.4081ZM61.5619 92.2731C61.5619 91.644 62.0372 91.1827 62.6384 91.1827C63.2535 91.1827 63.7148 91.644 63.7148 92.2731C63.7148 92.9162 63.2535 93.3775 62.6384 93.3775C62.0372 93.3775 61.5619 92.9162 61.5619 92.2731ZM60.4016 92.2731C60.4016 93.5173 61.4361 94.482 62.6384 94.482C63.8406 94.482 64.8891 93.5173 64.8891 92.2731C64.8891 91.0429 63.8406 90.0783 62.6384 90.0783C61.4361 90.0783 60.4016 91.0429 60.4016 92.2731ZM57.2701 94.3701L63.7568 85.3111H62.4986L55.9839 94.3701H57.2701Z" fill="#00AE4E"/>
<path d="M80.9375 86.9889V88.4709H82.6955V89.4789H80.9375V94.4709H79.9295V89.4789H79.1555V88.4709H79.9295V86.9889C79.9295 86.6809 80.0035 86.4029 80.1515 86.1549C80.3035 85.9029 80.5055 85.7029 80.7575 85.5549C81.0135 85.4029 81.2935 85.3269 81.5975 85.3269C81.8215 85.3269 82.0395 85.3729 82.2515 85.4649C82.4635 85.5529 82.6515 85.6849 82.8155 85.8609L82.0955 86.5749C82.0395 86.4989 81.9655 86.4409 81.8735 86.4009C81.7855 86.3569 81.6935 86.3349 81.5975 86.3349C81.4175 86.3349 81.2615 86.3989 81.1295 86.5269C81.0015 86.6549 80.9375 86.8089 80.9375 86.9889ZM83.8177 94.4709V88.4709H84.8257V89.2209C85.0377 88.9409 85.3057 88.7189 85.6297 88.5549C85.9537 88.3869 86.3057 88.3029 86.6857 88.3029C86.9177 88.3029 87.1417 88.3329 87.3577 88.3929L86.9497 89.4009C86.7857 89.3489 86.6257 89.3229 86.4697 89.3229C86.1697 89.3229 85.8937 89.3969 85.6417 89.5449C85.3937 89.6889 85.1957 89.8849 85.0477 90.1329C84.8997 90.3809 84.8257 90.6569 84.8257 90.9609V94.4709H83.8177ZM90.4303 94.6269C89.8783 94.6269 89.3743 94.4849 88.9183 94.2009C88.4663 93.9169 88.1043 93.5369 87.8323 93.0609C87.5643 92.5809 87.4303 92.0509 87.4303 91.4709C87.4303 91.0309 87.5083 90.6209 87.6643 90.2409C87.8203 89.8569 88.0343 89.5209 88.3063 89.2329C88.5823 88.9409 88.9023 88.7129 89.2663 88.5489C89.6303 88.3849 90.0183 88.3029 90.4303 88.3029C90.9823 88.3029 91.4843 88.4449 91.9363 88.7289C92.3923 89.0129 92.7543 89.3949 93.0223 89.8749C93.2943 90.3549 93.4303 90.8869 93.4303 91.4709C93.4303 91.9069 93.3523 92.3149 93.1963 92.6949C93.0403 93.0749 92.8243 93.4109 92.5483 93.7029C92.2763 93.9909 91.9583 94.2169 91.5943 94.3809C91.2343 94.5449 90.8463 94.6269 90.4303 94.6269ZM90.4303 93.6189C90.8063 93.6189 91.1443 93.5209 91.4443 93.3249C91.7483 93.1249 91.9863 92.8629 92.1583 92.5389C92.3343 92.2109 92.4223 91.8549 92.4223 91.4709C92.4223 91.0789 92.3323 90.7189 92.1523 90.3909C91.9763 90.0629 91.7383 89.8009 91.4383 89.6049C91.1383 89.4089 90.8023 89.3109 90.4303 89.3109C90.0543 89.3109 89.7163 89.4109 89.4163 89.6109C89.1163 89.8069 88.8783 90.0689 88.7023 90.3969C88.5263 90.7249 88.4383 91.0829 88.4383 91.4709C88.4383 91.8709 88.5283 92.2349 88.7083 92.5629C88.8883 92.8869 89.1303 93.1449 89.4343 93.3369C89.7383 93.5249 90.0703 93.6189 90.4303 93.6189ZM94.4231 94.4709V88.4709H95.4311V89.2209C95.6431 88.9409 95.9091 88.7189 96.2291 88.5549C96.5531 88.3869 96.9051 88.3029 97.2851 88.3029C97.7291 88.3029 98.1351 88.4109 98.5031 88.6269C98.8711 88.8429 99.1611 89.1289 99.3731 89.4849C99.5851 89.1289 99.8731 88.8429 100.237 88.6269C100.605 88.4109 101.009 88.3029 101.449 88.3029C101.901 88.3029 102.311 88.4129 102.679 88.6329C103.047 88.8489 103.339 89.1409 103.555 89.5089C103.775 89.8769 103.885 90.2869 103.885 90.7389V94.4709H102.877V90.9789C102.877 90.6829 102.805 90.4089 102.661 90.1569C102.517 89.9049 102.323 89.7029 102.079 89.5509C101.835 89.3989 101.565 89.3229 101.269 89.3229C100.973 89.3229 100.703 89.3949 100.459 89.5389C100.215 89.6789 100.021 89.8749 99.8771 90.1269C99.7331 90.3749 99.6611 90.6589 99.6611 90.9789V94.4709H98.6531V90.9789C98.6531 90.6589 98.5811 90.3749 98.4371 90.1269C98.2931 89.8749 98.0971 89.6789 97.8491 89.5389C97.6051 89.3949 97.3351 89.3229 97.0391 89.3229C96.7471 89.3229 96.4771 89.3989 96.2291 89.5509C95.9851 89.7029 95.7911 89.9049 95.6471 90.1569C95.5031 90.4089 95.4311 90.6829 95.4311 90.9789V94.4709H94.4231ZM112.08 88.4709H113.148L109.866 97.4709H108.798L109.884 94.4709L107.73 88.4709H108.834L110.388 93.0849L112.08 88.4709ZM116.563 94.6269C116.011 94.6269 115.507 94.4849 115.051 94.2009C114.599 93.9169 114.237 93.5369 113.965 93.0609C113.697 92.5809 113.563 92.0509 113.563 91.4709C113.563 91.0309 113.641 90.6209 113.797 90.2409C113.953 89.8569 114.167 89.5209 114.439 89.2329C114.715 88.9409 115.035 88.7129 115.399 88.5489C115.763 88.3849 116.151 88.3029 116.563 88.3029C117.015 88.3029 117.429 88.3949 117.805 88.5789C118.185 88.7589 118.509 89.0109 118.777 89.3349C119.049 89.6589 119.251 90.0349 119.383 90.4629C119.519 90.8909 119.569 91.3489 119.533 91.8369H114.637C114.685 92.1769 114.797 92.4809 114.973 92.7489C115.149 93.0129 115.373 93.2229 115.645 93.3789C115.921 93.5349 116.227 93.6149 116.563 93.6189C116.923 93.6189 117.249 93.5269 117.541 93.3429C117.833 93.1549 118.069 92.8989 118.249 92.5749L119.275 92.8149C119.035 93.3469 118.673 93.7829 118.189 94.1229C117.705 94.4589 117.163 94.6269 116.563 94.6269ZM114.607 91.0449H118.519C118.487 90.7089 118.379 90.4029 118.195 90.1269C118.011 89.8469 117.777 89.6229 117.493 89.4549C117.209 89.2869 116.899 89.2029 116.563 89.2029C116.227 89.2029 115.919 89.2849 115.639 89.4489C115.359 89.6129 115.127 89.8349 114.943 90.1149C114.763 90.3909 114.651 90.7009 114.607 91.0449ZM122.398 94.5849C122.074 94.5729 121.758 94.5129 121.45 94.4049C121.146 94.2929 120.878 94.1429 120.646 93.9549C120.418 93.7629 120.252 93.5429 120.148 93.2949L121.012 92.9229C121.072 93.0589 121.18 93.1869 121.336 93.3069C121.492 93.4269 121.672 93.5229 121.876 93.5949C122.08 93.6669 122.286 93.7029 122.494 93.7029C122.714 93.7029 122.92 93.6689 123.112 93.6009C123.304 93.5329 123.46 93.4329 123.58 93.3009C123.704 93.1649 123.766 93.0029 123.766 92.8149C123.766 92.6149 123.698 92.4589 123.562 92.3469C123.43 92.2309 123.262 92.1409 123.058 92.0769C122.858 92.0089 122.654 91.9449 122.446 91.8849C122.034 91.7809 121.666 91.6569 121.342 91.5129C121.018 91.3649 120.762 91.1789 120.574 90.9549C120.39 90.7269 120.298 90.4369 120.298 90.0849C120.298 89.7129 120.4 89.3909 120.604 89.1189C120.812 88.8469 121.084 88.6369 121.42 88.4889C121.756 88.3409 122.116 88.2669 122.5 88.2669C122.984 88.2669 123.426 88.3709 123.826 88.5789C124.226 88.7869 124.524 89.0689 124.72 89.4249L123.91 89.8989C123.842 89.7549 123.738 89.6289 123.598 89.5209C123.458 89.4089 123.298 89.3209 123.118 89.2569C122.938 89.1929 122.754 89.1589 122.566 89.1549C122.334 89.1469 122.116 89.1769 121.912 89.2449C121.712 89.3129 121.55 89.4169 121.426 89.5569C121.306 89.6929 121.246 89.8629 121.246 90.0669C121.246 90.2669 121.31 90.4189 121.438 90.5229C121.57 90.6269 121.74 90.7109 121.948 90.7749C122.16 90.8349 122.39 90.9049 122.638 90.9849C123.002 91.1009 123.342 91.2349 123.658 91.3869C123.974 91.5389 124.228 91.7289 124.42 91.9569C124.616 92.1849 124.712 92.4669 124.708 92.8029C124.708 93.1709 124.598 93.4929 124.378 93.7689C124.158 94.0409 123.872 94.2489 123.52 94.3929C123.172 94.5369 122.798 94.6009 122.398 94.5849ZM128.844 89.4789H127.482L127.476 94.4709H126.468L126.474 89.4789H125.442V88.4709H126.474L126.468 86.5869H127.476L127.482 88.4709H128.844V89.4789ZM132.407 94.6269C131.855 94.6269 131.351 94.4849 130.895 94.2009C130.443 93.9169 130.081 93.5369 129.809 93.0609C129.541 92.5809 129.407 92.0509 129.407 91.4709C129.407 91.0309 129.485 90.6209 129.641 90.2409C129.797 89.8569 130.011 89.5209 130.283 89.2329C130.559 88.9409 130.879 88.7129 131.243 88.5489C131.607 88.3849 131.995 88.3029 132.407 88.3029C132.859 88.3029 133.273 88.3949 133.649 88.5789C134.029 88.7589 134.353 89.0109 134.621 89.3349C134.893 89.6589 135.095 90.0349 135.227 90.4629C135.363 90.8909 135.413 91.3489 135.377 91.8369H130.481C130.529 92.1769 130.641 92.4809 130.817 92.7489C130.993 93.0129 131.217 93.2229 131.489 93.3789C131.765 93.5349 132.071 93.6149 132.407 93.6189C132.767 93.6189 133.093 93.5269 133.385 93.3429C133.677 93.1549 133.913 92.8989 134.093 92.5749L135.119 92.8149C134.879 93.3469 134.517 93.7829 134.033 94.1229C133.549 94.4589 133.007 94.6269 132.407 94.6269ZM130.451 91.0449H134.363C134.331 90.7089 134.223 90.4029 134.039 90.1269C133.855 89.8469 133.621 89.6229 133.337 89.4549C133.053 89.2869 132.743 89.2029 132.407 89.2029C132.071 89.2029 131.763 89.2849 131.483 89.4489C131.203 89.6129 130.971 89.8349 130.787 90.1149C130.607 90.3909 130.495 90.7009 130.451 91.0449ZM136.388 94.4709V88.4709H137.396V89.2209C137.608 88.9409 137.876 88.7189 138.2 88.5549C138.524 88.3869 138.876 88.3029 139.256 88.3029C139.488 88.3029 139.712 88.3329 139.928 88.3929L139.52 89.4009C139.356 89.3489 139.196 89.3229 139.04 89.3229C138.74 89.3229 138.464 89.3969 138.212 89.5449C137.964 89.6889 137.766 89.8849 137.618 90.1329C137.47 90.3809 137.396 90.6569 137.396 90.9609V94.4709H136.388ZM145.191 85.4709H146.199V94.4709H145.191V93.4509C144.987 93.8029 144.713 94.0869 144.369 94.3029C144.025 94.5189 143.621 94.6269 143.157 94.6269C142.721 94.6269 142.313 94.5449 141.933 94.3809C141.553 94.2169 141.217 93.9909 140.925 93.7029C140.637 93.4109 140.411 93.0749 140.247 92.6949C140.083 92.3149 140.001 91.9069 140.001 91.4709C140.001 91.0349 140.083 90.6269 140.247 90.2469C140.411 89.8629 140.637 89.5269 140.925 89.2389C141.217 88.9469 141.553 88.7189 141.933 88.5549C142.313 88.3909 142.721 88.3089 143.157 88.3089C143.621 88.3089 144.025 88.4169 144.369 88.6329C144.713 88.8489 144.987 89.1329 145.191 89.4849V85.4709ZM143.169 93.6489C143.565 93.6489 143.907 93.5529 144.195 93.3609C144.487 93.1649 144.711 92.9009 144.867 92.5689C145.027 92.2369 145.107 91.8709 145.107 91.4709C145.107 91.0629 145.027 90.6949 144.867 90.3669C144.707 90.0349 144.481 89.7729 144.189 89.5809C143.901 89.3849 143.561 89.2869 143.169 89.2869C142.773 89.2869 142.413 89.3849 142.089 89.5809C141.769 89.7769 141.513 90.0409 141.321 90.3729C141.129 90.7009 141.033 91.0669 141.033 91.4709C141.033 91.8749 141.131 92.2429 141.327 92.5749C141.523 92.9029 141.783 93.1649 142.107 93.3609C142.431 93.5529 142.785 93.6489 143.169 93.6489ZM152.403 88.4709H153.411V94.4709H152.403L152.361 93.4569C152.173 93.8049 151.913 94.0869 151.581 94.3029C151.253 94.5189 150.861 94.6269 150.405 94.6269C149.965 94.6269 149.553 94.5449 149.169 94.3809C148.785 94.2129 148.445 93.9829 148.149 93.6909C147.857 93.3949 147.629 93.0549 147.465 92.6709C147.301 92.2869 147.219 91.8729 147.219 91.4289C147.219 91.0009 147.299 90.5969 147.459 90.2169C147.619 89.8369 147.841 89.5049 148.125 89.2209C148.413 88.9329 148.745 88.7089 149.121 88.5489C149.497 88.3849 149.901 88.3029 150.333 88.3029C150.805 88.3029 151.219 88.4149 151.575 88.6389C151.931 88.8589 152.219 89.1449 152.439 89.4969L152.403 88.4709ZM150.387 93.6489C150.783 93.6489 151.125 93.5529 151.413 93.3609C151.705 93.1649 151.929 92.9009 152.085 92.5689C152.245 92.2369 152.325 91.8709 152.325 91.4709C152.325 91.0629 152.245 90.6949 152.085 90.3669C151.925 90.0349 151.699 89.7729 151.407 89.5809C151.119 89.3849 150.779 89.2869 150.387 89.2869C149.991 89.2869 149.631 89.3849 149.307 89.5809C148.983 89.7769 148.725 90.0409 148.533 90.3729C148.345 90.7009 148.251 91.0669 148.251 91.4709C148.251 91.8749 148.349 92.2429 148.545 92.5749C148.741 92.9029 149.001 93.1649 149.325 93.3609C149.649 93.5529 150.003 93.6489 150.387 93.6489ZM158.533 88.4709H159.601L156.319 97.4709H155.251L156.337 94.4709L154.183 88.4709H155.287L156.841 93.0849L158.533 88.4709Z" fill="#CEC1F1"/>
<path d="M177.391 55.062C182.712 50.2119 188.033 50.2119 193.133 53.4453C198.455 56.6787 203.554 63.1456 208.876 74.4625C213.975 85.7794 219.297 67.2569 224.397 76.9571C229.718 86.6573 234.818 89.8907 240.139 76.9571C245.239 64.0235 250.56 69.6124 255.66 55.062C260.981 40.5117 266.081 40.5117 268.742 40.5117H271.402" stroke="url(#paint7_linear_2089_45)" stroke-width="2" stroke-linecap="round" stroke-linejoin="round"/>
<g filter="url(#filter3_f_2089_45)">
<path d="M177.357 55.1577C182.679 50.3076 188 50.3076 193.1 53.541C198.421 56.7744 203.521 63.2413 208.842 74.5582C213.942 85.8751 219.264 67.3526 224.363 77.0528C229.685 86.753 234.784 89.9864 240.106 77.0528C245.206 64.1192 250.527 69.7081 255.627 55.1577C260.948 40.6074 266.048 40.6074 268.709 40.6074H271.369" stroke="url(#paint8_linear_2089_45)" stroke-width="2" stroke-linecap="round" stroke-linejoin="round"/>
</g>
</g>
<defs>
<filter id="filter0_bi_2089_45" x="-80.6251" y="48.3749" width="217.25" height="217.25" filterUnits="userSpaceOnUse" color-interpolation-filters="sRGB">
<feFlood flood-opacity="0" result="BackgroundImageFix"/>
<feGaussianBlur in="BackgroundImageFix" stdDeviation="45.3126"/>
<feComposite in2="SourceAlpha" operator="in" result="effect1_backgroundBlur_2089_45"/>
<feBlend mode="normal" in="SourceGraphic" in2="effect1_backgroundBlur_2089_45" result="shape"/>
<feColorMatrix in="SourceAlpha" type="matrix" values="0 0 0 0 0 0 0 0 0 0 0 0 0 0 0 0 0 0 127 0" result="hardAlpha"/>
<feOffset dx="45.3126" dy="-45.3126"/>
<feGaussianBlur stdDeviation="22.6563"/>
<feComposite in2="hardAlpha" operator="arithmetic" k2="-1" k3="1"/>
<feColorMatrix type="matrix" values="0 0 0 0 0.256614 0 0 0 0 0.157371 0 0 0 0 0.506977 0 0 0 0.1 0"/>
<feBlend mode="normal" in2="shape" result="effect2_innerShadow_2089_45"/>
</filter>
<filter id="filter1_bi_2089_45" x="79.7684" y="56.8002" width="217.256" height="217.256" filterUnits="userSpaceOnUse" color-interpolation-filters="sRGB">
<feFlood flood-opacity="0" result="BackgroundImageFix"/>
<feGaussianBlur in="BackgroundImageFix" stdDeviation="45.3126"/>
<feComposite in2="SourceAlpha" operator="in" result="effect1_backgroundBlur_2089_45"/>
<feBlend mode="normal" in="SourceGraphic" in2="effect1_backgroundBlur_2089_45" result="shape"/>
<feColorMatrix in="SourceAlpha" type="matrix" values="0 0 0 0 0 0 0 0 0 0 0 0 0 0 0 0 0 0 127 0" result="hardAlpha"/>
<feOffset dx="45.3126" dy="-45.3126"/>
<feGaussianBlur stdDeviation="22.6563"/>
<feComposite in2="hardAlpha" operator="arithmetic" k2="-1" k3="1"/>
<feColorMatrix type="matrix" values="0 0 0 0 0.256614 0 0 0 0 0.157371 0 0 0 0 0.506977 0 0 0 0.1 0"/>
<feBlend mode="normal" in2="shape" result="effect2_innerShadow_2089_45"/>
</filter>
<filter id="filter2_f_2089_45" x="-111.64" y="-105.64" width="491.28" height="250.28" filterUnits="userSpaceOnUse" color-interpolation-filters="sRGB">
<feFlood flood-opacity="0" result="BackgroundImageFix"/>
<feBlend mode="normal" in="SourceGraphic" in2="BackgroundImageFix" result="shape"/>
<feGaussianBlur stdDeviation="38.8199" result="effect1_foregroundBlur_2089_45"/>
</filter>
<filter id="filter3_f_2089_45" x="155.388" y="18.6376" width="137.951" height="88.916" filterUnits="userSpaceOnUse" color-interpolation-filters="sRGB">
<feFlood flood-opacity="0" result="BackgroundImageFix"/>
<feBlend mode="normal" in="SourceGraphic" in2="BackgroundImageFix" result="shape"/>
<feGaussianBlur stdDeviation="10.4849" result="effect1_foregroundBlur_2089_45"/>
</filter>
<linearGradient id="paint0_linear_2089_45" x1="1.79257e-06" y1="133.427" x2="110.434" y2="189.559" gradientUnits="userSpaceOnUse">
<stop stop-color="#242045"/>
<stop offset="1" stop-color="#111024"/>
</linearGradient>
<linearGradient id="paint1_linear_2089_45" x1="40.7782" y1="149.8" x2="12.8874" y2="149.8" gradientUnits="userSpaceOnUse">
<stop stop-color="#0A0B20"/>
<stop offset="0.228601" stop-color="#30127C"/>
<stop offset="0.75" stop-color="#8559F4"/>
</linearGradient>
<linearGradient id="paint2_linear_2089_45" x1="28" y1="149.5" x2="28" y2="164.5" gradientUnits="userSpaceOnUse">
<stop stop-color="#CEC1F1"/>
<stop offset="1" stop-color="#776F8B"/>
</linearGradient>
<linearGradient id="paint3_linear_2089_45" x1="165.102" y1="137.834" x2="275.536" y2="193.966" gradientUnits="userSpaceOnUse">
<stop stop-color="#242045"/>
<stop offset="1" stop-color="#111024"/>
</linearGradient>
<linearGradient id="paint4_linear_2089_45" x1="204.199" y1="155.643" x2="176.308" y2="155.643" gradientUnits="userSpaceOnUse">
<stop stop-color="#0A0B20"/>
<stop offset="0.228601" stop-color="#30127C"/>
<stop offset="0.75" stop-color="#8559F4"/>
</linearGradient>
<linearGradient id="paint5_linear_2089_45" x1="190.333" y1="157.37" x2="187.623" y2="174.547" gradientUnits="userSpaceOnUse">
<stop stop-color="#CEC1F1"/>
<stop offset="1" stop-color="#776F8B"/>
</linearGradient>
<linearGradient id="paint6_linear_2089_45" x1="94.5" y1="-4.5" x2="97.2721" y2="144.012" gradientUnits="userSpaceOnUse">
<stop offset="0.0241526" stop-color="#443B7A" stop-opacity="0.3"/>
<stop offset="0.515069" stop-color="#15192E" stop-opacity="0.5"/>
<stop offset="1" stop-color="#111024" stop-opacity="0"/>
</linearGradient>
<linearGradient id="paint7_linear_2089_45" x1="177.391" y1="62.9997" x2="271.402" y2="62.9997" gradientUnits="userSpaceOnUse">
<stop stop-color="#92FE9D"/>
<stop offset="1" stop-color="#7544FF"/>
<stop offset="1" stop-color="#7544FF"/>
</linearGradient>
<linearGradient id="paint8_linear_2089_45" x1="177.357" y1="63.0954" x2="271.369" y2="63.0954" gradientUnits="userSpaceOnUse">
<stop stop-color="#92FE9D"/>
<stop offset="1" stop-color="#7544FF"/>
<stop offset="1" stop-color="#7544FF"/>
</linearGradient>
<clipPath id="clip0_2089_45">
<rect width="36" height="36" fill="white" transform="translate(10 139)"/>
</clipPath>
<clipPath id="clip1_2089_45">
<rect width="36" height="36" fill="white" transform="translate(173.421 144.843) rotate(8.96364)"/>
</clipPath>
<clipPath id="clip2_2089_45">
<rect width="290" height="123" rx="15.528" fill="white"/>
</clipPath>
</defs>
</svg>
