<svg width="222" height="46" viewBox="0 0 222 46" fill="none" xmlns="http://www.w3.org/2000/svg">
<path d="M44.3727 31.4941H47.9123C48.1686 33.7844 50.3948 35.2899 53.4379 35.2899C56.3529 35.2899 58.451 33.7844 58.451 31.7183C58.451 29.9245 57.1857 28.8514 54.1907 28.1146L51.1956 27.3939C46.9513 26.3689 44.9813 24.3828 44.9813 21.1636C44.9813 17.1755 48.4569 14.4367 53.3899 14.4367C58.2748 14.4367 61.6222 17.1755 61.7344 21.1636H58.2428C58.0346 18.8572 56.1287 17.4638 53.3418 17.4638C50.555 17.4638 48.6491 18.8732 48.6491 20.9233C48.6491 22.557 49.8663 23.518 52.8453 24.2547L55.3919 24.8793C60.1327 26.0005 62.1027 27.9064 62.1027 31.2859C62.1027 35.6103 58.6592 38.317 53.1817 38.317C48.0564 38.317 44.5969 35.6743 44.3727 31.4941ZM64.9056 37.9326V21.0835H68.2049V23.9184H68.285C69.0378 22.0445 70.7996 20.7952 73.0739 20.7952C75.4123 20.7952 77.11 21.9964 77.7827 24.0945H77.8628C78.7276 22.0445 80.7137 20.7952 83.1161 20.7952C86.4475 20.7952 88.6257 23.0054 88.6257 26.3528V37.9326H85.1502V27.1857C85.1502 25.0075 83.981 23.7582 81.9309 23.7582C79.8808 23.7582 78.4554 25.2797 78.4554 27.4099V37.9326H75.0599V26.9294C75.0599 24.9915 73.8267 23.7582 71.8727 23.7582C69.8226 23.7582 68.3651 25.3598 68.3651 27.522V37.9326H64.9056ZM97.8671 35.4821C100.286 35.4821 102.175 33.8164 102.175 31.6222V30.2928L98.0273 30.5491C95.9612 30.6933 94.792 31.6062 94.792 33.0476C94.792 34.5211 96.0092 35.4821 97.8671 35.4821ZM96.9061 38.2209C93.6068 38.2209 91.3004 36.1708 91.3004 33.1437C91.3004 30.1967 93.5587 28.3869 97.5628 28.1627L102.175 27.8904V26.5931C102.175 24.7192 100.91 23.598 98.7961 23.598C96.794 23.598 95.5447 24.559 95.2404 26.0645H91.9731C92.1653 23.0215 94.76 20.7792 98.9242 20.7792C103.008 20.7792 105.619 22.9414 105.619 26.3208V37.9326H102.304V35.1618H102.224C101.247 37.0357 99.1164 38.2209 96.9061 38.2209ZM108.982 37.9326V21.0835H112.282V23.9504H112.362C112.922 21.9804 114.428 20.8112 116.414 20.8112C116.91 20.8112 117.343 20.8913 117.599 20.9393V24.1586C117.327 24.0465 116.718 23.9664 116.046 23.9664C113.819 23.9664 112.442 25.4559 112.442 27.8424V37.9326H108.982ZM120.754 17.0954H124.23V21.0835H127.433V23.8223H124.23V33.1117C124.23 34.5692 124.871 35.2259 126.28 35.2259C126.632 35.2259 127.193 35.1938 127.417 35.1458V37.8846C127.033 37.9807 126.264 38.0447 125.495 38.0447C122.084 38.0447 120.754 36.7474 120.754 33.4961V23.8223H118.304V21.0835H120.754V17.0954ZM140.454 38.317C133.968 38.317 129.868 33.7363 129.868 26.3689C129.868 19.0494 134 14.4367 140.454 14.4367C145.692 14.4367 149.648 17.656 150.256 22.4769H146.701C146.06 19.5139 143.594 17.5759 140.454 17.5759C136.258 17.5759 133.535 21.0194 133.535 26.3689C133.535 31.7663 136.226 35.1778 140.47 35.1778C143.69 35.1778 145.98 33.5281 146.701 30.7413H150.272C149.392 35.5142 145.772 38.317 140.454 38.317ZM160.331 38.2529C155.51 38.2529 152.339 34.9376 152.339 29.508C152.339 24.0945 155.526 20.7792 160.331 20.7792C165.136 20.7792 168.323 24.0945 168.323 29.508C168.323 34.9376 165.152 38.2529 160.331 38.2529ZM160.331 35.402C163.053 35.402 164.799 33.2559 164.799 29.508C164.799 25.7763 163.037 23.6301 160.331 23.6301C157.624 23.6301 155.862 25.7763 155.862 29.508C155.862 33.2559 157.624 35.402 160.331 35.402ZM170.997 37.9326V21.0835H174.297V23.9023H174.377C175.29 21.9804 177.084 20.7952 179.678 20.7952C183.394 20.7952 185.524 23.1656 185.524 27.0255V37.9326H182.049V27.6982C182.049 25.1676 180.864 23.7742 178.461 23.7742C176.027 23.7742 174.457 25.504 174.457 28.1146V37.9326H170.997ZM203.254 21.0835L197.216 37.9326H193.5L187.43 21.0835H191.114L195.342 34.5532H195.406L199.635 21.0835H203.254ZM211.999 38.2529C207.178 38.2529 204.007 34.9376 204.007 29.508C204.007 24.0945 207.194 20.7792 211.999 20.7792C216.804 20.7792 219.991 24.0945 219.991 29.508C219.991 34.9376 216.82 38.2529 211.999 38.2529ZM211.999 35.402C214.722 35.402 216.468 33.2559 216.468 29.508C216.468 25.7763 214.706 23.6301 211.999 23.6301C209.292 23.6301 207.531 25.7763 207.531 29.508C207.531 33.2559 209.292 35.402 211.999 35.402Z" fill="url(#paint0_linear_174_785)"/>
<path d="M37.5184 3.24414L37.8923 6.55967C38.1184 8.57675 39.7101 10.1662 41.7272 10.3946L45.0428 10.7684L41.7272 11.1423C39.7101 11.3684 38.1207 12.9601 37.8923 14.9772L37.5184 18.2928L37.1446 14.9772C36.9185 12.9601 35.3267 11.3707 33.3097 11.1423L29.9941 10.7684L33.3097 10.3946C35.3267 10.1685 36.9162 8.57675 37.1446 6.55967L37.5184 3.24414Z" fill="#7C4DFF"/>
<path d="M31.2397 0L31.4698 2.04033C31.6089 3.28161 32.5885 4.25975 33.8297 4.40027L35.8701 4.63034L33.8297 4.86041C32.5885 4.99956 31.6103 5.97908 31.4698 7.22036L31.2397 9.26069L31.0096 7.22036C30.8705 5.97908 29.891 5.00094 28.6497 4.86041L26.6094 4.63034L28.6497 4.40027C29.891 4.26113 30.8691 3.28161 31.0096 2.04033L31.2397 0Z" fill="#FFB921"/>
<path d="M0.892842 27.6382C1.43508 27.9971 2.48432 30.1226 3.03451 30.8027C3.75966 31.6991 4.76488 32.5164 5.69795 33.186C9.54698 35.9491 14.6927 36.9441 19.3521 36.1651C18.8928 36.4568 18.3894 36.6482 17.8878 36.8534C15.6857 37.6823 13.3659 38.1742 11.0027 38.0596C7.89841 37.9091 4.35586 36.6139 2.24629 34.2578C0.653396 32.4795 0.778942 29.8868 0.892842 27.6382Z" fill="#7C4DFF"/>
<path d="M15.4104 8.94982L15.5311 8.93848L15.5802 8.99971C11.429 11.1927 8.52383 14.1651 7.10675 18.734C5.95071 22.4618 6.41256 26.3132 8.24206 29.7434C10.0713 33.1727 12.6847 35.0358 16.3574 36.1439C14.9306 35.9778 13.5536 35.8134 12.151 35.5013C10.196 34.9201 8.38152 34.1675 6.74346 32.9249C4.07661 30.9026 2.26301 28.0765 1.81167 24.7427C1.34073 21.2632 2.52461 17.8237 4.64582 15.0705C7.20134 11.7526 11.2583 9.47341 15.4104 8.94982Z" fill="#686291"/>
<path d="M26.0186 23.5938C27.3021 25.073 28.1187 28.6715 28.2006 30.6072C28.3607 34.3937 27.0235 38.2542 24.4279 41.0405C22.063 43.5788 18.9008 45.0552 15.4187 45.1559C11.6623 45.2644 8.28507 43.5735 5.60088 41.0527C4.11592 39.4967 3.07406 37.8539 2.19922 35.8961C2.5449 36.2386 2.89341 36.5813 3.28028 36.8781C6.07779 39.0255 10.0666 39.6137 13.4893 39.1627C17.4641 38.6388 21.3529 36.7055 23.807 33.4913C26.0842 30.5091 26.5077 27.2087 26.0183 23.594L26.0186 23.5938Z" fill="#7C4DFF"/>
<path d="M20.4615 9.34314C22.0853 9.19884 23.9509 9.54951 25.4799 10.083C29.7993 11.59 32.346 14.9363 34.2766 18.8815C34.0309 18.6003 33.7739 18.3296 33.5057 18.0696C31.1465 15.8182 27.6914 14.9816 24.5096 15.0919C19.7173 15.258 15.81 17.4474 12.608 20.8997C12.2246 21.3717 11.8568 21.8482 11.5366 22.3658C9.50007 25.6611 9.63357 28.9608 10.5036 32.5767C8.94477 30.2612 7.73817 27.8912 7.46066 25.0709C7.09113 21.3178 8.33437 17.1826 10.7521 14.2758C13.2 11.3329 16.6795 9.67481 20.4615 9.34314Z" fill="#FFB921"/>
<path d="M23.4622 16.4446C24.5353 16.3335 25.682 16.384 26.7485 16.539C29.6153 16.9555 32.5625 18.3755 34.312 20.7372C36.0929 23.1417 36.4022 26.5333 35.9619 29.4061C35.47 27.3857 34.6247 25.5706 33.3116 23.9468C30.5567 20.5407 26.8383 18.7219 22.5271 18.2785L22.6217 18.3811C23.0256 18.4489 23.4258 18.5342 23.8223 18.6368C24.2189 18.7392 24.6103 18.8588 24.9963 18.9952C25.3823 19.1315 25.7621 19.2843 26.1347 19.4535C26.5077 19.6228 26.8724 19.8079 27.2291 20.0086C30.4516 21.8172 33.4215 25.0019 34.4139 28.6152C35.3419 31.9935 34.4713 35.1889 32.7909 38.1613C32.3433 38.8331 31.8789 39.4814 31.3562 40.0977C28.2255 43.7881 23.7914 45.4635 19.0726 45.8471C22.5462 44.6981 25.5544 42.0433 27.3686 38.8926C29.2256 35.6683 29.8051 31.8611 28.8138 28.2603C27.935 25.0671 25.9839 22.0165 23.0387 20.38C20.1349 18.7667 17.6095 18.8716 14.5234 19.7421C17.1679 17.7076 20.1636 16.7125 23.4619 16.4449L23.4622 16.4446Z" fill="#686291"/>
<defs>
<linearGradient id="paint0_linear_174_785" x1="43.2676" y1="26.4326" x2="221.268" y2="26.4326" gradientUnits="userSpaceOnUse">
<stop stop-color="#CEC1F1"/>
<stop offset="1" stop-color="#FFBFFF"/>
</linearGradient>
</defs>
</svg>
