<svg width="978" height="481" viewBox="0 0 978 481" fill="none" xmlns="http://www.w3.org/2000/svg">
<path d="M313.187 477.224C312.394 477.224 311.703 477.079 311.115 476.79C310.537 476.501 310.079 476.099 309.743 475.586C309.407 475.073 309.211 474.475 309.155 473.794L310.709 473.696C310.775 474.163 310.91 474.559 311.115 474.886C311.321 475.203 311.596 475.446 311.941 475.614C312.296 475.773 312.721 475.852 313.215 475.852C313.645 475.852 314.009 475.801 314.307 475.698C314.615 475.586 314.849 475.423 315.007 475.208C315.166 474.993 315.245 474.732 315.245 474.424C315.245 474.144 315.175 473.897 315.035 473.682C314.905 473.458 314.648 473.257 314.265 473.08C313.892 472.893 313.341 472.711 312.613 472.534C311.82 472.338 311.185 472.123 310.709 471.89C310.233 471.657 309.888 471.367 309.673 471.022C309.468 470.667 309.365 470.233 309.365 469.72C309.365 469.151 309.501 468.651 309.771 468.222C310.051 467.783 310.448 467.443 310.961 467.2C311.475 466.957 312.091 466.836 312.809 466.836C313.565 466.836 314.209 466.976 314.741 467.256C315.283 467.536 315.707 467.919 316.015 468.404C316.333 468.889 316.529 469.445 316.603 470.07L315.049 470.154C315.003 469.771 314.886 469.435 314.699 469.146C314.513 468.847 314.261 468.619 313.943 468.46C313.626 468.292 313.239 468.208 312.781 468.208C312.203 468.208 311.745 468.343 311.409 468.614C311.083 468.875 310.919 469.225 310.919 469.664C310.919 469.944 310.985 470.182 311.115 470.378C311.255 470.565 311.498 470.728 311.843 470.868C312.198 471.008 312.697 471.157 313.341 471.316C314.2 471.512 314.881 471.755 315.385 472.044C315.899 472.324 316.263 472.655 316.477 473.038C316.692 473.421 316.799 473.855 316.799 474.34C316.799 474.928 316.645 475.441 316.337 475.88C316.039 476.309 315.619 476.641 315.077 476.874C314.536 477.107 313.906 477.224 313.187 477.224ZM320.234 477C319.748 477 319.356 476.874 319.058 476.622C318.759 476.37 318.61 475.969 318.61 475.418V467.06H320.094V475.278C320.094 475.446 320.136 475.572 320.22 475.656C320.313 475.74 320.444 475.782 320.612 475.782H321.2V477H320.234ZM324.633 477.168C323.858 477.168 323.238 476.991 322.771 476.636C322.314 476.281 322.085 475.782 322.085 475.138C322.085 474.494 322.276 473.995 322.659 473.64C323.051 473.276 323.653 473.015 324.465 472.856L327.027 472.366C327.027 471.787 326.892 471.358 326.621 471.078C326.35 470.789 325.949 470.644 325.417 470.644C324.941 470.644 324.568 470.751 324.297 470.966C324.026 471.171 323.84 471.479 323.737 471.89L322.211 471.792C322.351 471.045 322.696 470.457 323.247 470.028C323.807 469.599 324.53 469.384 325.417 469.384C326.425 469.384 327.19 469.655 327.713 470.196C328.245 470.728 328.511 471.479 328.511 472.45V475.348C328.511 475.525 328.539 475.651 328.595 475.726C328.66 475.791 328.763 475.824 328.903 475.824H329.169V477C329.122 477.009 329.048 477.019 328.945 477.028C328.842 477.037 328.735 477.042 328.623 477.042C328.306 477.042 328.03 476.991 327.797 476.888C327.573 476.785 327.405 476.617 327.293 476.384C327.181 476.141 327.125 475.819 327.125 475.418L327.279 475.488C327.204 475.815 327.041 476.104 326.789 476.356C326.546 476.608 326.234 476.809 325.851 476.958C325.478 477.098 325.072 477.168 324.633 477.168ZM324.871 475.992C325.319 475.992 325.702 475.908 326.019 475.74C326.336 475.563 326.584 475.32 326.761 475.012C326.938 474.704 327.027 474.354 327.027 473.962V473.486L324.843 473.906C324.395 473.99 324.078 474.125 323.891 474.312C323.714 474.489 323.625 474.718 323.625 474.998C323.625 475.315 323.732 475.563 323.947 475.74C324.171 475.908 324.479 475.992 324.871 475.992ZM333.433 477.168C332.724 477.168 332.103 477.009 331.571 476.692C331.039 476.375 330.629 475.922 330.339 475.334C330.05 474.746 329.905 474.06 329.905 473.276C329.905 472.492 330.05 471.811 330.339 471.232C330.629 470.644 331.039 470.191 331.571 469.874C332.103 469.547 332.724 469.384 333.433 469.384C334.04 469.384 334.577 469.491 335.043 469.706C335.519 469.911 335.902 470.215 336.191 470.616C336.49 471.017 336.681 471.507 336.765 472.086L335.211 472.17C335.137 471.685 334.941 471.316 334.623 471.064C334.306 470.803 333.909 470.672 333.433 470.672C332.808 470.672 332.318 470.905 331.963 471.372C331.618 471.829 331.445 472.464 331.445 473.276C331.445 474.088 331.618 474.727 331.963 475.194C332.318 475.651 332.808 475.88 333.433 475.88C333.909 475.88 334.306 475.749 334.623 475.488C334.941 475.217 335.137 474.811 335.211 474.27L336.765 474.354C336.681 474.923 336.49 475.418 336.191 475.838C335.902 476.258 335.519 476.585 335.043 476.818C334.577 477.051 334.04 477.168 333.433 477.168ZM338.119 477V467.06H339.603V473.234L342.949 469.552H344.825L341.913 472.688L344.937 477H343.229L340.919 473.612L339.603 475.012V477H338.119Z" fill="#CEC1F1"/>
<path d="M394.49 343L391.858 333.06H393.468L395.4 340.914L397.332 333.06H398.872L400.804 340.914L402.722 333.06H404.36L401.714 343H399.95L398.102 335.748L396.254 343H394.49ZM408.376 343.168C407.648 343.168 407.018 343.009 406.486 342.692C405.963 342.375 405.557 341.922 405.268 341.334C404.988 340.746 404.848 340.06 404.848 339.276C404.848 338.492 404.988 337.811 405.268 337.232C405.557 336.644 405.963 336.191 406.486 335.874C407.008 335.547 407.624 335.384 408.334 335.384C409.006 335.384 409.598 335.543 410.112 335.86C410.625 336.168 411.022 336.616 411.302 337.204C411.591 337.792 411.736 338.501 411.736 339.332V339.71H406.388C406.425 340.438 406.616 340.984 406.962 341.348C407.316 341.712 407.792 341.894 408.39 341.894C408.828 341.894 409.192 341.791 409.482 341.586C409.771 341.381 409.972 341.105 410.084 340.76L411.624 340.858C411.428 341.549 411.04 342.109 410.462 342.538C409.892 342.958 409.197 343.168 408.376 343.168ZM406.388 338.59H410.168C410.121 337.927 409.93 337.437 409.594 337.12C409.267 336.803 408.847 336.644 408.334 336.644C407.802 336.644 407.363 336.812 407.018 337.148C406.682 337.475 406.472 337.955 406.388 338.59ZM416.949 343.168C416.436 343.168 415.979 343.056 415.577 342.832C415.185 342.599 414.882 342.281 414.667 341.88L414.625 343H413.239V333.06H414.723V336.602C414.919 336.275 415.209 335.991 415.591 335.748C415.983 335.505 416.436 335.384 416.949 335.384C417.593 335.384 418.153 335.543 418.629 335.86C419.105 336.177 419.469 336.63 419.721 337.218C419.983 337.797 420.113 338.483 420.113 339.276C420.113 340.069 419.983 340.76 419.721 341.348C419.469 341.927 419.105 342.375 418.629 342.692C418.153 343.009 417.593 343.168 416.949 343.168ZM416.711 341.88C417.281 341.88 417.733 341.651 418.069 341.194C418.405 340.727 418.573 340.088 418.573 339.276C418.573 338.464 418.405 337.829 418.069 337.372C417.733 336.905 417.285 336.672 416.725 336.672C416.305 336.672 415.946 336.775 415.647 336.98C415.349 337.185 415.12 337.484 414.961 337.876C414.803 338.259 414.723 338.725 414.723 339.276C414.723 339.808 414.803 340.27 414.961 340.662C415.12 341.054 415.349 341.357 415.647 341.572C415.946 341.777 416.301 341.88 416.711 341.88ZM424.49 343.168C423.79 343.168 423.198 343.061 422.712 342.846C422.236 342.631 421.868 342.337 421.606 341.964C421.345 341.581 421.196 341.143 421.158 340.648L422.684 340.578C422.759 340.989 422.936 341.315 423.216 341.558C423.496 341.801 423.921 341.922 424.49 341.922C424.957 341.922 425.326 341.847 425.596 341.698C425.867 341.549 426.002 341.311 426.002 340.984C426.002 340.807 425.956 340.657 425.862 340.536C425.778 340.405 425.61 340.298 425.358 340.214C425.106 340.121 424.733 340.032 424.238 339.948C423.501 339.808 422.922 339.645 422.502 339.458C422.082 339.271 421.784 339.033 421.606 338.744C421.429 338.455 421.34 338.105 421.34 337.694C421.34 337.013 421.592 336.457 422.096 336.028C422.61 335.599 423.347 335.384 424.308 335.384C424.952 335.384 425.494 335.496 425.932 335.72C426.371 335.935 426.712 336.229 426.954 336.602C427.206 336.966 427.365 337.377 427.43 337.834L425.904 337.918C425.858 337.657 425.764 337.433 425.624 337.246C425.494 337.05 425.316 336.901 425.092 336.798C424.868 336.686 424.602 336.63 424.294 336.63C423.818 336.63 423.464 336.723 423.23 336.91C422.997 337.097 422.88 337.339 422.88 337.638C422.88 337.862 422.932 338.044 423.034 338.184C423.146 338.324 423.324 338.441 423.566 338.534C423.809 338.618 424.131 338.693 424.532 338.758C425.307 338.889 425.914 339.052 426.352 339.248C426.791 339.435 427.099 339.668 427.276 339.948C427.454 340.228 427.542 340.569 427.542 340.97C427.542 341.437 427.412 341.833 427.15 342.16C426.889 342.487 426.53 342.739 426.072 342.916C425.615 343.084 425.088 343.168 424.49 343.168ZM429.044 343V335.552H430.528V343H429.044ZM429.016 334.474V332.99H430.556V334.474H429.016ZM434.976 343C434.267 343 433.744 342.837 433.408 342.51C433.072 342.183 432.904 341.675 432.904 340.984V333.802H434.388V340.872C434.388 341.217 434.463 341.455 434.612 341.586C434.762 341.717 434.99 341.782 435.298 341.782H436.362V343H434.976ZM431.77 336.77V335.552H436.362V336.77H431.77ZM440.723 343.168C439.995 343.168 439.365 343.009 438.833 342.692C438.311 342.375 437.905 341.922 437.615 341.334C437.335 340.746 437.195 340.06 437.195 339.276C437.195 338.492 437.335 337.811 437.615 337.232C437.905 336.644 438.311 336.191 438.833 335.874C439.356 335.547 439.972 335.384 440.681 335.384C441.353 335.384 441.946 335.543 442.459 335.86C442.973 336.168 443.369 336.616 443.649 337.204C443.939 337.792 444.083 338.501 444.083 339.332V339.71H438.735C438.773 340.438 438.964 340.984 439.309 341.348C439.664 341.712 440.14 341.894 440.737 341.894C441.176 341.894 441.54 341.791 441.829 341.586C442.119 341.381 442.319 341.105 442.431 340.76L443.971 340.858C443.775 341.549 443.388 342.109 442.809 342.538C442.24 342.958 441.545 343.168 440.723 343.168ZM438.735 338.59H442.515C442.469 337.927 442.277 337.437 441.941 337.12C441.615 336.803 441.195 336.644 440.681 336.644C440.149 336.644 439.711 336.812 439.365 337.148C439.029 337.475 438.819 337.955 438.735 338.59Z" fill="#CEC1F1"/>
<path d="M553.685 400L557.269 390.06H559.187L562.771 400H561.161L560.251 397.41H556.191L555.295 400H553.685ZM556.667 396.038H559.789L558.221 391.502L556.667 396.038ZM563.947 400V390.06H567.657C568.796 390.06 569.682 390.335 570.317 390.886C570.952 391.427 571.269 392.183 571.269 393.154C571.269 393.798 571.124 394.358 570.835 394.834C570.546 395.301 570.13 395.66 569.589 395.912C569.057 396.155 568.413 396.276 567.657 396.276H565.459V400H563.947ZM565.459 394.904H567.615C568.296 394.904 568.814 394.759 569.169 394.47C569.524 394.171 569.701 393.733 569.701 393.154C569.701 392.585 569.524 392.16 569.169 391.88C568.814 391.591 568.296 391.446 567.615 391.446H565.459V394.904ZM572.875 400V390.06H574.387V400H572.875Z" fill="#CEC1F1"/>
<path d="M734.399 468V458.06H740.867V459.446H735.911V462.344H740.699V463.688H735.911V466.614H740.979V468H734.399ZM742.777 468V460.552H744.135L744.177 462.4L744.009 462.344C744.093 461.933 744.237 461.583 744.443 461.294C744.657 461.005 744.919 460.781 745.227 460.622C745.535 460.463 745.871 460.384 746.235 460.384C746.869 460.384 747.387 460.566 747.789 460.93C748.19 461.285 748.442 461.775 748.545 462.4H748.307C748.391 461.961 748.531 461.597 748.727 461.308C748.932 461.009 749.193 460.781 749.511 460.622C749.828 460.463 750.187 460.384 750.589 460.384C751.111 460.384 751.555 460.496 751.919 460.72C752.292 460.935 752.572 461.252 752.759 461.672C752.955 462.092 753.053 462.605 753.053 463.212V468H751.569V463.576C751.569 462.932 751.452 462.447 751.219 462.12C750.985 461.793 750.631 461.63 750.155 461.63C749.847 461.63 749.576 461.709 749.343 461.868C749.109 462.027 748.927 462.255 748.797 462.554C748.675 462.853 748.615 463.212 748.615 463.632V468H747.201V463.632C747.201 462.997 747.093 462.507 746.879 462.162C746.673 461.807 746.319 461.63 745.815 461.63C745.497 461.63 745.222 461.709 744.989 461.868C744.765 462.027 744.587 462.26 744.457 462.568C744.326 462.867 744.261 463.221 744.261 463.632V468H742.777ZM758.737 468.168C758.223 468.168 757.766 468.056 757.365 467.832C756.973 467.599 756.669 467.281 756.455 466.88L756.413 468H755.027V458.06H756.511V461.602C756.707 461.275 756.996 460.991 757.379 460.748C757.771 460.505 758.223 460.384 758.737 460.384C759.381 460.384 759.941 460.543 760.417 460.86C760.893 461.177 761.257 461.63 761.509 462.218C761.77 462.797 761.901 463.483 761.901 464.276C761.901 465.069 761.77 465.76 761.509 466.348C761.257 466.927 760.893 467.375 760.417 467.692C759.941 468.009 759.381 468.168 758.737 468.168ZM758.499 466.88C759.068 466.88 759.521 466.651 759.857 466.194C760.193 465.727 760.361 465.088 760.361 464.276C760.361 463.464 760.193 462.829 759.857 462.372C759.521 461.905 759.073 461.672 758.513 461.672C758.093 461.672 757.733 461.775 757.435 461.98C757.136 462.185 756.907 462.484 756.749 462.876C756.59 463.259 756.511 463.725 756.511 464.276C756.511 464.808 756.59 465.27 756.749 465.662C756.907 466.054 757.136 466.357 757.435 466.572C757.733 466.777 758.088 466.88 758.499 466.88ZM766.473 468.168C765.745 468.168 765.115 468.009 764.583 467.692C764.061 467.375 763.655 466.922 763.365 466.334C763.085 465.746 762.945 465.06 762.945 464.276C762.945 463.492 763.085 462.811 763.365 462.232C763.655 461.644 764.061 461.191 764.583 460.874C765.106 460.547 765.722 460.384 766.431 460.384C767.103 460.384 767.696 460.543 768.209 460.86C768.723 461.168 769.119 461.616 769.399 462.204C769.689 462.792 769.833 463.501 769.833 464.332V464.71H764.485C764.523 465.438 764.714 465.984 765.059 466.348C765.414 466.712 765.89 466.894 766.487 466.894C766.926 466.894 767.29 466.791 767.579 466.586C767.869 466.381 768.069 466.105 768.181 465.76L769.721 465.858C769.525 466.549 769.138 467.109 768.559 467.538C767.99 467.958 767.295 468.168 766.473 468.168ZM764.485 463.59H768.265C768.219 462.927 768.027 462.437 767.691 462.12C767.365 461.803 766.945 461.644 766.431 461.644C765.899 461.644 765.461 461.812 765.115 462.148C764.779 462.475 764.569 462.955 764.485 463.59ZM773.983 468.168C773.348 468.168 772.793 468.009 772.317 467.692C771.85 467.375 771.491 466.927 771.239 466.348C770.996 465.76 770.875 465.069 770.875 464.276C770.875 463.483 771.001 462.797 771.253 462.218C771.505 461.63 771.864 461.177 772.331 460.86C772.798 460.543 773.348 460.384 773.983 460.384C774.496 460.384 774.954 460.491 775.355 460.706C775.756 460.921 776.06 461.219 776.265 461.602V458.06H777.749V468H776.363L776.321 466.88C776.116 467.281 775.803 467.599 775.383 467.832C774.972 468.056 774.506 468.168 773.983 468.168ZM774.375 466.88C774.776 466.88 775.117 466.777 775.397 466.572C775.677 466.367 775.892 466.068 776.041 465.676C776.19 465.284 776.265 464.817 776.265 464.276C776.265 463.716 776.19 463.245 776.041 462.862C775.892 462.47 775.677 462.176 775.397 461.98C775.117 461.775 774.776 461.672 774.375 461.672C773.778 461.672 773.302 461.905 772.947 462.372C772.592 462.829 772.415 463.464 772.415 464.276C772.415 465.079 772.592 465.713 772.947 466.18C773.302 466.647 773.778 466.88 774.375 466.88Z" fill="#CEC1F1"/>
<path d="M901.28 375V365.06H904.472C906.031 365.06 907.23 365.494 908.07 366.362C908.91 367.221 909.33 368.448 909.33 370.044C909.33 371.631 908.915 372.853 908.084 373.712C907.263 374.571 906.087 375 904.556 375H901.28ZM902.792 373.614H904.472C905.574 373.614 906.395 373.32 906.936 372.732C907.487 372.135 907.762 371.239 907.762 370.044C907.762 368.831 907.487 367.93 906.936 367.342C906.395 366.745 905.574 366.446 904.472 366.446H902.792V373.614ZM910.792 375V367.552H912.276V375H910.792ZM910.764 366.474V364.99H912.304V366.474H910.764ZM917.108 375.168C916.408 375.168 915.815 375.061 915.33 374.846C914.854 374.631 914.485 374.337 914.224 373.964C913.962 373.581 913.813 373.143 913.776 372.648L915.302 372.578C915.376 372.989 915.554 373.315 915.834 373.558C916.114 373.801 916.538 373.922 917.108 373.922C917.574 373.922 917.943 373.847 918.214 373.698C918.484 373.549 918.62 373.311 918.62 372.984C918.62 372.807 918.573 372.657 918.48 372.536C918.396 372.405 918.228 372.298 917.976 372.214C917.724 372.121 917.35 372.032 916.856 371.948C916.118 371.808 915.54 371.645 915.12 371.458C914.7 371.271 914.401 371.033 914.224 370.744C914.046 370.455 913.958 370.105 913.958 369.694C913.958 369.013 914.21 368.457 914.714 368.028C915.227 367.599 915.964 367.384 916.926 367.384C917.57 367.384 918.111 367.496 918.55 367.72C918.988 367.935 919.329 368.229 919.572 368.602C919.824 368.966 919.982 369.377 920.048 369.834L918.522 369.918C918.475 369.657 918.382 369.433 918.242 369.246C918.111 369.05 917.934 368.901 917.71 368.798C917.486 368.686 917.22 368.63 916.912 368.63C916.436 368.63 916.081 368.723 915.848 368.91C915.614 369.097 915.498 369.339 915.498 369.638C915.498 369.862 915.549 370.044 915.652 370.184C915.764 370.324 915.941 370.441 916.184 370.534C916.426 370.618 916.748 370.693 917.15 370.758C917.924 370.889 918.531 371.052 918.97 371.248C919.408 371.435 919.716 371.668 919.894 371.948C920.071 372.228 920.16 372.569 920.16 372.97C920.16 373.437 920.029 373.833 919.768 374.16C919.506 374.487 919.147 374.739 918.69 374.916C918.232 375.084 917.705 375.168 917.108 375.168ZM924.727 375.168C924.018 375.168 923.397 375.009 922.865 374.692C922.333 374.375 921.923 373.922 921.633 373.334C921.344 372.746 921.199 372.06 921.199 371.276C921.199 370.492 921.344 369.811 921.633 369.232C921.923 368.644 922.333 368.191 922.865 367.874C923.397 367.547 924.018 367.384 924.727 367.384C925.334 367.384 925.871 367.491 926.337 367.706C926.813 367.911 927.196 368.215 927.485 368.616C927.784 369.017 927.975 369.507 928.059 370.086L926.505 370.17C926.431 369.685 926.235 369.316 925.917 369.064C925.6 368.803 925.203 368.672 924.727 368.672C924.102 368.672 923.612 368.905 923.257 369.372C922.912 369.829 922.739 370.464 922.739 371.276C922.739 372.088 922.912 372.727 923.257 373.194C923.612 373.651 924.102 373.88 924.727 373.88C925.203 373.88 925.6 373.749 925.917 373.488C926.235 373.217 926.431 372.811 926.505 372.27L928.059 372.354C927.975 372.923 927.784 373.418 927.485 373.838C927.196 374.258 926.813 374.585 926.337 374.818C925.871 375.051 925.334 375.168 924.727 375.168ZM932.479 375.168C931.77 375.168 931.149 375.009 930.617 374.692C930.085 374.375 929.675 373.922 929.385 373.334C929.096 372.746 928.951 372.06 928.951 371.276C928.951 370.483 929.096 369.797 929.385 369.218C929.675 368.639 930.085 368.191 930.617 367.874C931.149 367.547 931.77 367.384 932.479 367.384C933.189 367.384 933.809 367.547 934.341 367.874C934.873 368.191 935.284 368.639 935.573 369.218C935.863 369.797 936.007 370.483 936.007 371.276C936.007 372.06 935.863 372.746 935.573 373.334C935.284 373.922 934.873 374.375 934.341 374.692C933.809 375.009 933.189 375.168 932.479 375.168ZM932.479 373.88C933.114 373.88 933.604 373.651 933.949 373.194C934.295 372.727 934.467 372.088 934.467 371.276C934.467 370.464 934.295 369.829 933.949 369.372C933.604 368.905 933.114 368.672 932.479 368.672C931.854 368.672 931.364 368.905 931.009 369.372C930.664 369.829 930.491 370.464 930.491 371.276C930.491 372.088 930.664 372.727 931.009 373.194C931.364 373.651 931.854 373.88 932.479 373.88ZM937.507 375V367.552H938.865L938.921 369.526L938.795 369.484C938.898 368.812 939.103 368.322 939.411 368.014C939.728 367.706 940.153 367.552 940.685 367.552H941.399V368.882H940.685C940.312 368.882 939.999 368.943 939.747 369.064C939.495 369.185 939.304 369.372 939.173 369.624C939.052 369.876 938.991 370.203 938.991 370.604V375H937.507ZM945.102 375.168C944.468 375.168 943.912 375.009 943.436 374.692C942.97 374.375 942.61 373.927 942.358 373.348C942.116 372.76 941.994 372.069 941.994 371.276C941.994 370.483 942.12 369.797 942.372 369.218C942.624 368.63 942.984 368.177 943.45 367.86C943.917 367.543 944.468 367.384 945.102 367.384C945.616 367.384 946.073 367.491 946.474 367.706C946.876 367.921 947.179 368.219 947.384 368.602V365.06H948.868V375H947.482L947.44 373.88C947.235 374.281 946.922 374.599 946.502 374.832C946.092 375.056 945.625 375.168 945.102 375.168ZM945.494 373.88C945.896 373.88 946.236 373.777 946.516 373.572C946.796 373.367 947.011 373.068 947.16 372.676C947.31 372.284 947.384 371.817 947.384 371.276C947.384 370.716 947.31 370.245 947.16 369.862C947.011 369.47 946.796 369.176 946.516 368.98C946.236 368.775 945.896 368.672 945.494 368.672C944.897 368.672 944.421 368.905 944.066 369.372C943.712 369.829 943.534 370.464 943.534 371.276C943.534 372.079 943.712 372.713 944.066 373.18C944.421 373.647 944.897 373.88 945.494 373.88Z" fill="#CEC1F1"/>
<path d="M662.462 322V312.06H666.172C667.31 312.06 668.197 312.335 668.832 312.886C669.466 313.427 669.784 314.183 669.784 315.154C669.784 315.798 669.639 316.358 669.35 316.834C669.06 317.301 668.645 317.66 668.104 317.912C667.572 318.155 666.928 318.276 666.172 318.276H663.974V322H662.462ZM663.974 316.904H666.13C666.811 316.904 667.329 316.759 667.684 316.47C668.038 316.171 668.216 315.733 668.216 315.154C668.216 314.585 668.038 314.16 667.684 313.88C667.329 313.591 666.811 313.446 666.13 313.446H663.974V316.904ZM674.178 322.168C673.469 322.168 672.849 322.009 672.317 321.692C671.785 321.375 671.374 320.922 671.085 320.334C670.795 319.746 670.651 319.06 670.651 318.276C670.651 317.483 670.795 316.797 671.085 316.218C671.374 315.639 671.785 315.191 672.317 314.874C672.849 314.547 673.469 314.384 674.178 314.384C674.888 314.384 675.509 314.547 676.041 314.874C676.573 315.191 676.983 315.639 677.273 316.218C677.562 316.797 677.707 317.483 677.707 318.276C677.707 319.06 677.562 319.746 677.273 320.334C676.983 320.922 676.573 321.375 676.041 321.692C675.509 322.009 674.888 322.168 674.178 322.168ZM674.178 320.88C674.813 320.88 675.303 320.651 675.649 320.194C675.994 319.727 676.167 319.088 676.167 318.276C676.167 317.464 675.994 316.829 675.649 316.372C675.303 315.905 674.813 315.672 674.178 315.672C673.553 315.672 673.063 315.905 672.709 316.372C672.363 316.829 672.191 317.464 672.191 318.276C672.191 319.088 672.363 319.727 672.709 320.194C673.063 320.651 673.553 320.88 674.178 320.88ZM680.5 322L678.232 314.552H679.786L681.382 320.376L683.02 314.552H684.42L686.058 320.376L687.668 314.552H689.222L686.954 322H685.288L683.72 316.68L682.152 322H680.5ZM693.264 322.168C692.536 322.168 691.906 322.009 691.374 321.692C690.852 321.375 690.446 320.922 690.156 320.334C689.876 319.746 689.736 319.06 689.736 318.276C689.736 317.492 689.876 316.811 690.156 316.232C690.446 315.644 690.852 315.191 691.374 314.874C691.897 314.547 692.513 314.384 693.222 314.384C693.894 314.384 694.487 314.543 695 314.86C695.514 315.168 695.91 315.616 696.19 316.204C696.48 316.792 696.624 317.501 696.624 318.332V318.71H691.276C691.314 319.438 691.505 319.984 691.85 320.348C692.205 320.712 692.681 320.894 693.278 320.894C693.717 320.894 694.081 320.791 694.37 320.586C694.66 320.381 694.86 320.105 694.972 319.76L696.512 319.858C696.316 320.549 695.929 321.109 695.35 321.538C694.781 321.958 694.086 322.168 693.264 322.168ZM691.276 317.59H695.056C695.01 316.927 694.818 316.437 694.482 316.12C694.156 315.803 693.736 315.644 693.222 315.644C692.69 315.644 692.252 315.812 691.906 316.148C691.57 316.475 691.36 316.955 691.276 317.59ZM698.128 322V314.552H699.486L699.542 316.526L699.416 316.484C699.519 315.812 699.724 315.322 700.032 315.014C700.349 314.706 700.774 314.552 701.306 314.552H702.02V315.882H701.306C700.933 315.882 700.62 315.943 700.368 316.064C700.116 316.185 699.925 316.372 699.794 316.624C699.673 316.876 699.612 317.203 699.612 317.604V322H698.128ZM703.132 324.1V314.552H704.532L704.574 316.148L704.406 316.064C704.593 315.513 704.901 315.098 705.33 314.818C705.759 314.529 706.254 314.384 706.814 314.384C707.542 314.384 708.139 314.566 708.606 314.93C709.082 315.285 709.432 315.756 709.656 316.344C709.889 316.932 710.006 317.576 710.006 318.276C710.006 318.976 709.889 319.62 709.656 320.208C709.432 320.796 709.082 321.272 708.606 321.636C708.139 321.991 707.542 322.168 706.814 322.168C706.441 322.168 706.091 322.103 705.764 321.972C705.437 321.841 705.157 321.659 704.924 321.426C704.7 321.183 704.541 320.899 704.448 320.572L704.616 320.404V324.1H703.132ZM706.548 320.88C707.145 320.88 707.612 320.651 707.948 320.194C708.293 319.737 708.466 319.097 708.466 318.276C708.466 317.455 708.293 316.815 707.948 316.358C707.612 315.901 707.145 315.672 706.548 315.672C706.156 315.672 705.815 315.77 705.526 315.966C705.237 316.153 705.013 316.442 704.854 316.834C704.695 317.226 704.616 317.707 704.616 318.276C704.616 318.845 704.691 319.326 704.84 319.718C704.999 320.11 705.223 320.404 705.512 320.6C705.811 320.787 706.156 320.88 706.548 320.88ZM714.579 322.168C713.87 322.168 713.249 322.009 712.717 321.692C712.185 321.375 711.774 320.922 711.485 320.334C711.196 319.746 711.051 319.06 711.051 318.276C711.051 317.483 711.196 316.797 711.485 316.218C711.774 315.639 712.185 315.191 712.717 314.874C713.249 314.547 713.87 314.384 714.579 314.384C715.288 314.384 715.909 314.547 716.441 314.874C716.973 315.191 717.384 315.639 717.673 316.218C717.962 316.797 718.107 317.483 718.107 318.276C718.107 319.06 717.962 319.746 717.673 320.334C717.384 320.922 716.973 321.375 716.441 321.692C715.909 322.009 715.288 322.168 714.579 322.168ZM714.579 320.88C715.214 320.88 715.704 320.651 716.049 320.194C716.394 319.727 716.567 319.088 716.567 318.276C716.567 317.464 716.394 316.829 716.049 316.372C715.704 315.905 715.214 315.672 714.579 315.672C713.954 315.672 713.464 315.905 713.109 316.372C712.764 316.829 712.591 317.464 712.591 318.276C712.591 319.088 712.764 319.727 713.109 320.194C713.464 320.651 713.954 320.88 714.579 320.88ZM719.607 322V314.552H721.091V322H719.607ZM719.579 313.474V311.99H721.119V313.474H719.579ZM723.312 322V314.552H724.67L724.726 316.54L724.544 316.442C724.628 315.957 724.786 315.565 725.02 315.266C725.253 314.967 725.538 314.748 725.874 314.608C726.21 314.459 726.574 314.384 726.966 314.384C727.526 314.384 727.988 314.51 728.352 314.762C728.725 315.005 729.005 315.341 729.192 315.77C729.388 316.19 729.486 316.671 729.486 317.212V322H728.002V317.66C728.002 317.221 727.955 316.853 727.862 316.554C727.768 316.255 727.614 316.027 727.4 315.868C727.185 315.709 726.905 315.63 726.56 315.63C726.037 315.63 725.612 315.803 725.286 316.148C724.959 316.493 724.796 316.997 724.796 317.66V322H723.312ZM733.906 322C733.197 322 732.674 321.837 732.338 321.51C732.002 321.183 731.834 320.675 731.834 319.984V312.802H733.318V319.872C733.318 320.217 733.393 320.455 733.542 320.586C733.691 320.717 733.92 320.782 734.228 320.782H735.292V322H733.906ZM730.7 315.77V314.552H735.292V315.77H730.7Z" fill="#CEC1F1"/>
<path d="M329 381V333.38C329 327.858 324.523 323.38 319 323.38H299C293.477 323.38 289 318.903 289 313.38V263.5C289 257.977 293.477 253.5 299 253.5H373C378.523 253.5 383 249.023 383 243.5V173.5" stroke="#CEC1F1" stroke-opacity="0.2"/>
<g filter="url(#filter0_b_134_748)">
<circle cx="327.5" cy="417.5" r="36.5" fill="url(#paint0_radial_134_748)"/>
<circle cx="327.5" cy="417.5" r="36.1996" stroke="url(#paint1_linear_134_748)" stroke-width="0.60077"/>
</g>
<g filter="url(#filter1_b_134_748)">
<ellipse cx="419.5" cy="285" rx="40.5" ry="35" fill="url(#paint2_radial_134_748)"/>
<path d="M459.7 285C459.7 304.124 441.744 319.7 419.5 319.7C397.256 319.7 379.3 304.124 379.3 285C379.3 265.876 397.256 250.3 419.5 250.3C441.744 250.3 459.7 265.876 459.7 285Z" stroke="url(#paint3_linear_134_748)" stroke-width="0.60077"/>
</g>
<g filter="url(#filter2_b_134_748)">
<ellipse cx="564.5" cy="338" rx="42.5" ry="39" fill="url(#paint4_radial_134_748)"/>
<path d="M606.7 338C606.7 359.349 587.831 376.7 564.5 376.7C541.169 376.7 522.3 359.349 522.3 338C522.3 316.651 541.169 299.3 564.5 299.3C587.831 299.3 606.7 316.651 606.7 338Z" stroke="url(#paint5_linear_134_748)" stroke-width="0.60077"/>
</g>
<g filter="url(#filter3_b_134_748)">
<ellipse cx="924" cy="313" rx="54" ry="39" fill="url(#paint6_radial_134_748)"/>
<path d="M977.7 313C977.7 323.649 971.724 333.317 962.008 340.334C952.292 347.35 938.856 351.7 924 351.7C909.144 351.7 895.708 347.35 885.992 340.334C876.276 333.317 870.3 323.649 870.3 313C870.3 302.351 876.276 292.683 885.992 285.666C895.708 278.65 909.144 274.3 924 274.3C938.856 274.3 952.292 278.65 962.008 285.666C971.724 292.683 977.7 302.351 977.7 313Z" stroke="url(#paint7_linear_134_748)" stroke-width="0.60077"/>
</g>
<g filter="url(#filter4_b_134_748)">
<ellipse cx="696.5" cy="266" rx="35.5" ry="33" fill="url(#paint8_radial_134_748)"/>
<path d="M731.7 266C731.7 284.039 715.961 298.7 696.5 298.7C677.039 298.7 661.3 284.039 661.3 266C661.3 247.961 677.039 233.3 696.5 233.3C715.961 233.3 731.7 247.961 731.7 266Z" stroke="url(#paint9_linear_134_748)" stroke-width="0.60077"/>
</g>
<g filter="url(#filter5_b_134_748)">
<ellipse cx="756.5" cy="412" rx="45.5" ry="33" fill="url(#paint10_radial_134_748)"/>
<path d="M801.7 412C801.7 420.993 796.675 429.16 788.497 435.091C780.32 441.022 769.008 444.7 756.5 444.7C743.992 444.7 732.68 441.022 724.503 435.091C716.325 429.16 711.3 420.993 711.3 412C711.3 403.007 716.325 394.84 724.503 388.909C732.68 382.978 743.992 379.3 756.5 379.3C769.008 379.3 780.32 382.978 788.497 388.909C796.675 394.84 801.7 403.007 801.7 412Z" stroke="url(#paint11_linear_134_748)" stroke-width="0.60077"/>
</g>
<path d="M498 167V185.171C498 193.772 505.218 200.611 513.807 200.149L547.193 198.351C555.782 197.889 563 204.728 563 213.329V299" stroke="#CEC1F1" stroke-opacity="0.4"/>
<g filter="url(#filter6_f_134_748)">
<path d="M473.5 10.5V49C473.5 54.5228 469.023 59 463.5 59H450.5C444.977 59 440.5 63.4772 440.5 69V98.5" stroke="url(#paint12_linear_134_748)" stroke-width="2"/>
</g>
<path d="M474 3V45.9091C474 51.4319 469.523 55.9091 464 55.9091H451C445.477 55.9091 441 60.3862 441 65.9091V99" stroke="url(#paint13_linear_134_748)"/>
<g filter="url(#filter7_f_134_748)">
<path d="M497.5 28V52C497.5 57.5228 501.977 62 507.5 62H517.5C523.023 62 527.5 66.4772 527.5 72V97.5" stroke="url(#paint14_linear_134_748)" stroke-width="5"/>
</g>
<path d="M497.5 28V52C497.5 57.5228 501.977 62 507.5 62H517.5C523.023 62 527.5 66.4772 527.5 72V97.5" stroke="url(#paint15_linear_134_748)" stroke-opacity="0.8"/>
<g filter="url(#filter8_f_134_748)">
<path d="M618.5 155H678.5C684.023 155 688.5 150.523 688.5 145V125.5C688.5 119.977 692.977 115.5 698.5 115.5H841.5C847.023 115.5 851.5 119.977 851.5 125.5V272V297C851.5 302.523 847.023 307 841.5 307H768C762.477 307 758 311.477 758 317V330" stroke="url(#paint16_linear_134_748)" stroke-width="2"/>
</g>
<path d="M608.5 155H668.5C674.023 155 678.5 150.523 678.5 145V125.5C678.5 119.977 682.977 115.5 688.5 115.5H841.5C847.023 115.5 851.5 119.977 851.5 125.5V272V295.5C851.5 301.023 847.023 305.5 841.5 305.5H765.5C759.977 305.5 755.5 309.977 755.5 315.5V378.5" stroke="url(#paint17_linear_134_748)" stroke-width="0.5"/>
<g filter="url(#filter9_f_134_748)">
<path d="M580 103H659.965C665.303 103 669.7 107.192 669.954 112.524L671.046 135.476C671.3 140.808 675.697 145 681.035 145H910C915.523 145 920 149.477 920 155V274" stroke="url(#paint18_linear_134_748)" stroke-width="2"/>
</g>
<path d="M580 103H690C695.523 103 700 107.477 700 113V135C700 140.523 704.477 145 710 145H910C915.523 145 920 149.477 920 155V274" stroke="#CEC1F1" stroke-opacity="0.7" stroke-width="0.5"/>
<g filter="url(#filter10_f_134_748)">
<path d="M620 166H634.376C639.898 166 644.376 170.477 644.376 176V220V248.5C644.376 254.023 648.853 258.5 654.376 258.5H658.5" stroke="url(#paint19_linear_134_748)" stroke-width="2"/>
</g>
<path d="M655.833 258.5C655.833 259.973 657.027 261.167 658.5 261.167C659.973 261.167 661.167 259.973 661.167 258.5C661.167 257.027 659.973 255.833 658.5 255.833C657.027 255.833 655.833 257.027 655.833 258.5ZM610 166.5H629.376V165.5H610V166.5ZM643.876 181V220H644.876V181H643.876ZM643.876 220V244.376H644.876V220H643.876ZM643.876 244.376C643.876 252.452 650.423 259 658.5 259V258C650.975 258 644.876 251.9 644.876 244.376H643.876ZM629.376 166.5C637.384 166.5 643.876 172.992 643.876 181H644.876C644.876 172.44 637.936 165.5 629.376 165.5V166.5Z" fill="#CEC1F1" fill-opacity="0.7"/>
<g filter="url(#filter11_f_134_748)">
<path d="M480 157V192C480 197.523 475.523 202 470 202H429C423.477 202 419 206.477 419 212V248" stroke="url(#paint20_linear_134_748)" stroke-width="2"/>
</g>
<path d="M416.333 248C416.333 249.473 417.527 250.667 419 250.667C420.473 250.667 421.667 249.473 421.667 248C421.667 246.527 420.473 245.333 419 245.333C417.527 245.333 416.333 246.527 416.333 248ZM479.5 157V192H480.5V157H479.5ZM470 201.5H429V202.5H470V201.5ZM418.5 212V248H419.5V212H418.5ZM429 201.5C423.201 201.5 418.5 206.201 418.5 212H419.5C419.5 206.753 423.753 202.5 429 202.5V201.5ZM479.5 192C479.5 197.247 475.247 201.5 470 201.5V202.5C475.799 202.5 480.5 197.799 480.5 192H479.5Z" fill="#CEC1F1"/>
<path d="M185.244 367V357.06H188.954C190.093 357.06 190.979 357.335 191.614 357.886C192.249 358.427 192.566 359.183 192.566 360.154C192.566 360.798 192.421 361.358 192.132 361.834C191.843 362.301 191.427 362.66 190.886 362.912C190.354 363.155 189.71 363.276 188.954 363.276H186.756V367H185.244ZM186.756 361.904H188.912C189.593 361.904 190.111 361.759 190.466 361.47C190.821 361.171 190.998 360.733 190.998 360.154C190.998 359.585 190.821 359.16 190.466 358.88C190.111 358.591 189.593 358.446 188.912 358.446H186.756V361.904ZM194.172 367V357.06H197.364C198.922 357.06 200.122 357.494 200.962 358.362C201.802 359.221 202.222 360.448 202.222 362.044C202.222 363.631 201.806 364.853 200.976 365.712C200.154 366.571 198.978 367 197.448 367H194.172ZM195.684 365.614H197.364C198.465 365.614 199.286 365.32 199.828 364.732C200.378 364.135 200.654 363.239 200.654 362.044C200.654 360.831 200.378 359.93 199.828 359.342C199.286 358.745 198.465 358.446 197.364 358.446H195.684V365.614ZM203.838 367V357.06H210.292V358.446H204.552L205.35 357.62V362.184L204.552 361.47H210.04V362.814H204.552L205.35 362.1V367H203.838Z" fill="#CEC1F1"/>
<g filter="url(#filter12_b_134_748)">
<ellipse cx="197.5" cy="307" rx="45.5" ry="37" fill="url(#paint21_radial_134_748)"/>
<path d="M242.7 307C242.7 327.214 222.524 343.7 197.5 343.7C172.476 343.7 152.3 327.214 152.3 307C152.3 286.786 172.476 270.3 197.5 270.3C222.524 270.3 242.7 286.786 242.7 307Z" stroke="url(#paint22_linear_134_748)" stroke-width="0.60077"/>
</g>
<g filter="url(#filter13_f_134_748)">
<path d="M202 270V232C202 226.477 206.477 222 212 222H289.652C295.175 222 299.652 217.523 299.652 212V173C299.652 167.477 304.129 163 309.652 163H341" stroke="url(#paint23_linear_134_748)" stroke-width="2"/>
</g>
<path d="M202 270V227.5C202 221.977 206.477 217.5 212 217.5H290.289C295.812 217.5 300.289 213.023 300.289 207.5V173C300.289 167.477 304.766 163 310.289 163H363" stroke="#CEC1F1" stroke-width="0.5"/>
<path d="M208.114 307.714V297.891C208.114 297.64 208.011 297.401 207.828 297.224L202.689 292.276C202.505 292.099 202.256 292 201.996 292H182.979C182.438 292 182 292.422 182 292.943V322.486C182 323.006 182.438 323.429 182.979 323.429H196.689M188.529 304.571H201.586M188.529 298.286H195.057M188.529 310.857H193.425M201.586 292V297.343C201.586 297.864 202.024 298.286 202.565 298.286H208.114M208.102 312.625L212.273 313.645C212.707 313.751 213.013 314.131 213 314.562C212.719 323.611 207.298 325 207.298 325C207.298 325 201.877 323.611 201.597 314.562C201.584 314.131 201.89 313.751 202.324 313.645L206.495 312.625C207.022 312.496 207.574 312.496 208.102 312.625Z" stroke="url(#paint24_linear_134_748)" stroke-width="1.5" stroke-linecap="round" stroke-linejoin="round"/>
<path d="M20.4169 374L17.7849 364.06H19.3949L21.3269 371.914L23.2589 364.06H24.7989L26.7309 371.914L28.6489 364.06H30.2869L27.6409 374H25.8769L24.0289 366.748L22.1809 374H20.4169ZM34.3025 374.168C33.5932 374.168 32.9725 374.009 32.4405 373.692C31.9085 373.375 31.4979 372.922 31.2085 372.334C30.9192 371.746 30.7745 371.06 30.7745 370.276C30.7745 369.483 30.9192 368.797 31.2085 368.218C31.4979 367.639 31.9085 367.191 32.4405 366.874C32.9725 366.547 33.5932 366.384 34.3025 366.384C35.0119 366.384 35.6325 366.547 36.1645 366.874C36.6965 367.191 37.1072 367.639 37.3965 368.218C37.6859 368.797 37.8305 369.483 37.8305 370.276C37.8305 371.06 37.6859 371.746 37.3965 372.334C37.1072 372.922 36.6965 373.375 36.1645 373.692C35.6325 374.009 35.0119 374.168 34.3025 374.168ZM34.3025 372.88C34.9372 372.88 35.4272 372.651 35.7725 372.194C36.1179 371.727 36.2905 371.088 36.2905 370.276C36.2905 369.464 36.1179 368.829 35.7725 368.372C35.4272 367.905 34.9372 367.672 34.3025 367.672C33.6772 367.672 33.1872 367.905 32.8325 368.372C32.4872 368.829 32.3145 369.464 32.3145 370.276C32.3145 371.088 32.4872 371.727 32.8325 372.194C33.1872 372.651 33.6772 372.88 34.3025 372.88ZM39.3303 374V366.552H40.6883L40.7443 368.526L40.6183 368.484C40.7209 367.812 40.9263 367.322 41.2343 367.014C41.5516 366.706 41.9763 366.552 42.5083 366.552H43.2223V367.882H42.5083C42.1349 367.882 41.8223 367.943 41.5703 368.064C41.3183 368.185 41.1269 368.372 40.9963 368.624C40.8749 368.876 40.8143 369.203 40.8143 369.604V374H39.3303ZM46.9255 374.168C46.2908 374.168 45.7355 374.009 45.2595 373.692C44.7928 373.375 44.4335 372.927 44.1815 372.348C43.9388 371.76 43.8175 371.069 43.8175 370.276C43.8175 369.483 43.9435 368.797 44.1955 368.218C44.4475 367.63 44.8068 367.177 45.2735 366.86C45.7402 366.543 46.2908 366.384 46.9255 366.384C47.4388 366.384 47.8962 366.491 48.2975 366.706C48.6988 366.921 49.0022 367.219 49.2075 367.602V364.06H50.6915V374H49.3055L49.2635 372.88C49.0582 373.281 48.7455 373.599 48.3255 373.832C47.9148 374.056 47.4482 374.168 46.9255 374.168ZM47.3175 372.88C47.7188 372.88 48.0595 372.777 48.3395 372.572C48.6195 372.367 48.8342 372.068 48.9835 371.676C49.1328 371.284 49.2075 370.817 49.2075 370.276C49.2075 369.716 49.1328 369.245 48.9835 368.862C48.8342 368.47 48.6195 368.176 48.3395 367.98C48.0595 367.775 47.7188 367.672 47.3175 367.672C46.7202 367.672 46.2442 367.905 45.8895 368.372C45.5348 368.829 45.3575 369.464 45.3575 370.276C45.3575 371.079 45.5348 371.713 45.8895 372.18C46.2442 372.647 46.7202 372.88 47.3175 372.88Z" fill="#CEC1F1"/>
<g filter="url(#filter14_f_134_748)">
<path d="M34.5 276.5V157C34.5 151.477 38.9772 147 44.5 147H260.5C266.023 147 270.5 142.523 270.5 137V117.5C270.5 111.977 274.977 107.5 280.5 107.5H335" stroke="url(#paint25_linear_134_748)" stroke-width="2"/>
</g>
<path d="M34.5 276.5V154.5C34.5 148.977 38.9772 144.5 44.5 144.5H260.5C266.023 144.5 270.5 140.023 270.5 134.5V117.5C270.5 111.977 274.977 107.5 280.5 107.5H361.5" stroke="#CEC1F1" stroke-opacity="0.8" stroke-width="0.5"/>
<g filter="url(#filter15_b_134_748)">
<circle cx="37" cy="314" r="37" fill="url(#paint26_radial_134_748)"/>
<circle cx="37" cy="314" r="36.6996" stroke="url(#paint27_linear_134_748)" stroke-width="0.60077"/>
</g>
<path d="M31.0696 312.139H43.2086M31.0696 324.278H43.2086M31.0696 318.209H37.1391M43.2086 300V305.159C43.2086 305.662 43.6162 306.069 44.119 306.069H49.2781M25 329.437V300.91C25 300.408 25.4077 300 25.9105 300H43.5902C43.8316 300 44.0632 300.096 44.2339 300.267L49.0115 305.044C49.1822 305.215 49.2781 305.446 49.2781 305.688V329.437C49.2781 329.94 48.8705 330.348 48.3677 330.348H25.9105C25.4077 330.348 25 329.94 25 329.437Z" stroke="url(#paint28_linear_134_748)" stroke-width="1.5" stroke-linecap="round" stroke-linejoin="round"/>
<path d="M421.294 304.125C421.708 304.125 422.044 303.789 422.044 303.375C422.044 302.961 421.708 302.625 421.294 302.625V304.125ZM438.171 291.5C438.171 291.914 438.507 292.25 438.921 292.25C439.335 292.25 439.671 291.914 439.671 291.5H438.171ZM399.75 274.917C399.336 274.917 399 275.253 399 275.667C399 276.081 399.336 276.417 399.75 276.417V274.917ZM438.921 276.417C439.335 276.417 439.671 276.081 439.671 275.667C439.671 275.253 439.335 274.917 438.921 274.917V276.417ZM405.066 271.229C404.79 271.539 404.818 272.013 405.127 272.288C405.436 272.564 405.91 272.536 406.186 272.227L405.066 271.229ZM406.205 272.205C406.481 271.896 406.453 271.422 406.144 271.146C405.835 270.871 405.361 270.898 405.085 271.207L406.205 272.205ZM410.941 271.229C410.666 271.539 410.693 272.013 411.002 272.288C411.312 272.564 411.786 272.536 412.061 272.227L410.941 271.229ZM412.081 272.205C412.357 271.896 412.329 271.422 412.02 271.146C411.711 270.871 411.236 270.898 410.961 271.207L412.081 272.205ZM416.817 271.229C416.542 271.539 416.569 272.013 416.878 272.288C417.188 272.564 417.662 272.536 417.937 272.227L416.817 271.229ZM417.957 272.205C418.232 271.896 418.205 271.422 417.896 271.146C417.586 270.871 417.112 270.898 416.837 271.207L417.957 272.205ZM427.703 300.868C427.411 300.574 426.937 300.571 426.642 300.863C426.348 301.154 426.345 301.629 426.637 301.924L427.703 300.868ZM431.087 305.354L430.554 305.882C430.695 306.024 430.887 306.104 431.087 306.104C431.287 306.104 431.479 306.024 431.62 305.882L431.087 305.354ZM439.454 297.965C439.746 297.671 439.743 297.196 439.449 296.905C439.154 296.613 438.679 296.616 438.388 296.91L439.454 297.965ZM421.294 302.625H403.667V304.125H421.294V302.625ZM403.667 302.625C401.925 302.625 400.5 301.196 400.5 299.417H399C399 302.01 401.082 304.125 403.667 304.125V302.625ZM400.5 299.417V271.708H399V299.417H400.5ZM400.5 271.708C400.5 269.929 401.925 268.5 403.667 268.5V267C401.082 267 399 269.115 399 271.708H400.5ZM403.667 268.5H435.004V267H403.667V268.5ZM435.004 268.5C436.746 268.5 438.171 269.929 438.171 271.708H439.671C439.671 269.115 437.589 267 435.004 267V268.5ZM438.171 271.708V291.5H439.671V271.708H438.171ZM399.75 276.417H438.921V274.917H399.75V276.417ZM406.186 272.227L406.205 272.205L405.085 271.207L405.066 271.229L406.186 272.227ZM412.061 272.227L412.081 272.205L410.961 271.207L410.941 271.229L412.061 272.227ZM417.937 272.227L417.957 272.205L416.837 271.207L416.817 271.229L417.937 272.227ZM426.637 301.924L430.554 305.882L431.62 304.827L427.703 300.868L426.637 301.924ZM431.62 305.882L439.454 297.965L438.388 296.91L430.554 304.827L431.62 305.882Z" fill="url(#paint29_linear_134_748)"/>
<path d="M564.402 345.623C567.285 345.623 569.623 343.285 569.623 340.402C569.623 337.519 567.285 335.182 564.402 335.182C561.519 335.182 559.182 337.519 559.182 340.402C559.182 343.285 561.519 345.623 564.402 345.623Z" stroke="url(#paint30_linear_134_748)" stroke-width="1.5" stroke-linecap="round" stroke-linejoin="round"/>
<path d="M577.666 337.609L575.756 332.997L578.323 329.961L574.843 326.48L571.823 329.061L567.112 327.124L566.029 323H562.628L561.529 327.178L556.927 329.118L553.961 326.48L550.48 329.961L553.009 333.074L551.128 337.698L547 338.661V342.142L551.178 343.282L553.118 347.884L550.48 350.843L553.961 354.323L557.078 351.783L561.612 353.648L562.661 357.803H566.142L567.194 353.65L571.806 351.74C572.575 352.289 574.843 354.323 574.843 354.323L578.323 350.843L575.74 347.796L577.651 343.183L581.803 342.102L581.803 338.661L577.666 337.609Z" stroke="url(#paint31_linear_134_748)" stroke-width="1.5" stroke-linecap="round" stroke-linejoin="round"/>
<path d="M759.25 401L752.833 424M746.417 405.6L740 412.04L746.417 418.48M766.583 405.6L773 412.04L766.583 418.48" stroke="url(#paint32_linear_134_748)" stroke-width="1.5" stroke-linecap="round" stroke-linejoin="round"/>
<path d="M691.733 280.947L696.973 275.572L702.214 280.947M696.973 251V254.071M692.481 266.357V269.429M696.973 263.286V269.429M701.465 260.214V269.429M711.946 254.993V274.65C711.946 275.159 711.544 275.572 711.048 275.572H682.898C682.402 275.572 682 275.159 682 274.65V254.993C682 254.484 682.402 254.071 682.898 254.071H711.048C711.544 254.071 711.946 254.484 711.946 254.993Z" stroke="url(#paint33_linear_134_748)" stroke-width="1.5" stroke-linecap="round" stroke-linejoin="round"/>
<path d="M931.556 325.293L932.104 325.005M931.556 325.293L931.559 325.303L915.059 329C915.949 327.839 916.744 326.598 917.422 325.312L917.427 325.292L917.54 324.872L918.161 324.882C918.16 324.931 918.157 324.98 918.152 325.029C920.25 325.54 922.391 325.797 924.524 325.797C926.656 325.797 928.765 325.543 930.835 325.039C930.829 324.992 930.826 324.945 930.824 324.898L931.446 324.883L931.556 325.293ZM932.104 325.005C932.08 324.958 932.068 324.911 932.067 324.867L932.047 324.078L931.285 324.282C929.072 324.876 926.812 325.176 924.524 325.176C922.238 325.176 919.942 324.873 917.701 324.272L916.932 324.066L916.918 324.862C916.917 324.909 916.905 324.959 916.881 325.005C916.217 326.266 915.438 327.483 914.565 328.622C914.5 328.707 914.394 328.763 914.277 328.769H914.255C914.216 328.769 914.177 328.764 914.137 328.752C910.226 327.594 906.691 325.883 903.326 323.52C903.238 323.459 903.189 323.369 903.18 323.278C902.345 314.809 904.41 307.172 909.514 299.899C909.55 299.848 909.602 299.803 909.667 299.775C912.485 298.52 915.458 297.636 918.501 297.146C918.674 297.118 918.832 297.202 918.903 297.328C919.181 297.817 919.477 298.381 919.724 298.89L919.918 299.288L920.357 299.235C923.101 298.906 925.889 298.907 928.667 299.235L929.109 299.287L929.3 298.886C929.549 298.366 929.845 297.791 930.128 297.321M932.104 325.005C932.768 326.267 933.547 327.483 934.419 328.621C934.511 328.74 934.682 328.801 934.847 328.752C938.792 327.583 942.327 325.872 945.66 323.52C945.746 323.459 945.796 323.37 945.805 323.279C946.257 318.966 945.922 314.774 944.815 310.816C943.764 307.057 941.982 303.383 939.51 299.898C939.474 299.847 939.422 299.803 939.357 299.774C936.519 298.52 933.547 297.636 930.526 297.146C930.358 297.118 930.202 297.197 930.128 297.321M930.128 297.321L929.595 297M903.919 323.067L903.893 322.773C903.197 314.724 905.203 307.42 909.996 300.499L910.097 300.353L910.259 300.282C912.713 299.214 915.284 298.431 917.914 297.951L918.361 297.869L918.575 298.27C918.858 298.803 919.133 299.36 919.326 299.801M903.919 323.067L919.737 300.014M903.919 323.067L904.162 323.233M919.326 299.801C919.388 299.94 919.551 300.04 919.737 300.014M919.326 299.801L918.757 300.051M919.737 300.014L919.824 300.63M904.162 323.233C907.142 325.274 910.267 326.802 913.678 327.883L914.106 328.019M904.162 323.233L914.106 328.019M914.106 328.019L914.369 327.654M914.369 327.654C914.833 327.012 915.266 326.347 915.665 325.664L916.025 325.05M914.369 327.654L916.025 325.05M916.025 325.05L915.367 324.776M915.367 324.776C914.469 324.404 913.599 323.974 912.73 323.477M915.367 324.776L912.73 323.477M912.73 323.477C912.618 323.413 912.557 323.306 912.552 323.198C912.548 323.092 912.599 322.981 912.702 322.91M912.73 323.477L912.702 322.91M912.702 322.91C912.981 322.718 913.275 322.496 913.553 322.269M912.702 322.91L913.553 322.269M913.553 322.269C913.666 322.176 913.83 322.152 913.972 322.214L913.553 322.269ZM929.704 299.8C929.643 299.94 929.48 300.04 929.294 300.014L929.704 299.8ZM929.704 299.8C929.893 299.371 930.162 298.802 930.447 298.267M929.704 299.8L930.447 298.267M930.447 298.267L930.661 297.867M935.694 322.469L935.674 322.454C935.589 322.388 935.506 322.323 935.421 322.259L935.798 321.765L935.422 322.26C935.309 322.174 935.149 322.154 935.013 322.215M935.694 322.469L934.759 321.647L935.013 322.215M935.694 322.469L935.709 322.481C935.895 322.625 936.087 322.774 936.282 322.909L936.284 322.91M935.694 322.469L936.284 322.91M935.013 322.215C935.012 322.215 935.013 322.215 935.013 322.215ZM936.284 322.91C936.388 322.981 936.438 323.092 936.434 323.198C936.429 323.305 936.368 323.413 936.256 323.477C935.387 323.975 934.517 324.403 933.619 324.776L932.961 325.05M936.284 322.91L932.961 325.05M932.961 325.05L933.321 325.665M933.321 325.665C933.72 326.346 934.153 327.012 934.616 327.654L934.88 328.019M933.321 325.665L934.88 328.019M934.88 328.019L935.308 327.883M935.308 327.883C938.746 326.794 941.872 325.265 944.828 323.231L945.068 323.067M935.308 327.883L945.068 323.067M945.068 323.067L945.095 322.777M945.095 322.777C945.843 314.694 943.851 307.388 939.034 300.497L938.933 300.353M945.095 322.777L938.933 300.353M938.933 300.353L938.771 300.283M938.771 300.283C936.298 299.213 933.725 298.43 931.108 297.949L930.661 297.867M938.771 300.283L930.661 297.867M934.949 314.469C934.967 313.432 934.569 312.427 933.843 311.711C933.215 311.093 932.393 310.742 931.528 310.742H930.907V310.803C929.274 311.127 928.105 312.701 928.105 314.481C928.105 316.479 929.579 318.219 931.528 318.219C933.474 318.219 934.949 316.511 934.949 314.481V314.48V314.478V314.477V314.476V314.474M934.949 314.469V314.47V314.472V314.473V314.474M934.949 314.469C934.949 314.471 934.949 314.472 934.949 314.474M934.949 314.469V314.467V314.466V314.464V314.463H934.327L934.949 314.474M914.079 314.481C914.079 312.454 915.525 310.743 917.499 310.743M914.079 314.481L917.499 310.743M914.079 314.481C914.079 316.512 915.556 318.219 917.499 318.219M914.079 314.481L917.499 318.219M917.499 310.743C918.363 310.743 919.185 311.093 919.813 311.711L917.499 310.743ZM917.499 318.219C919.447 318.219 920.92 316.479 920.92 314.481M917.499 318.219L920.92 314.481M920.92 314.481V314.48V314.478V314.477V314.476V314.474V314.473V314.472V314.47V314.469M934.519 317.589C933.744 318.427 932.712 318.892 931.597 318.91H931.528C929.252 318.91 927.347 316.952 927.347 314.481C927.347 313.301 927.772 312.201 928.536 311.374C929.327 310.518 930.387 310.052 931.528 310.052C932.597 310.052 933.615 310.472 934.399 311.243C935.248 312.079 935.728 313.259 935.707 314.478L935.707 314.488C935.705 315.665 935.28 316.764 934.519 317.589ZM917.432 318.91C915.187 318.871 913.32 316.928 913.32 314.481C913.32 313.301 913.745 312.2 914.508 311.374C915.299 310.518 916.358 310.052 917.499 310.052C918.568 310.052 919.587 310.471 920.37 311.243C921.22 312.079 921.7 313.26 921.679 314.48L921.678 314.49C921.674 316.957 919.771 318.91 917.499 318.91H917.432Z" stroke="url(#paint34_linear_134_748)"/>
<mask id="mask0_134_748" style="mask-type:luminance" maskUnits="userSpaceOnUse" x="306" y="397" width="44" height="44">
<path d="M326.792 406.583H322.084C319.492 406.583 317.376 404.468 317.376 401.876C317.376 399.284 319.492 397.168 322.084 397.168C324.676 397.168 326.792 399.284 326.792 401.876V406.583ZM322.084 398.177C320.038 398.177 318.385 399.844 318.385 401.876C318.385 403.907 320.038 405.575 322.084 405.575H325.783V401.876C325.783 399.83 324.13 398.177 322.084 398.177ZM322.084 417.792H310.875C308.284 417.792 306.168 415.69 306.168 413.084C306.168 410.478 308.284 408.377 310.875 408.377H322.084C324.676 408.377 326.792 410.492 326.792 413.084C326.792 415.676 324.676 417.792 322.084 417.792ZM310.875 409.386C308.83 409.386 307.177 411.053 307.177 413.084C307.177 415.116 308.83 416.783 310.875 416.783H322.084C324.13 416.783 325.783 415.116 325.783 413.084C325.783 411.053 324.13 409.386 322.084 409.386H310.875ZM344.501 417.792H339.794V413.084C339.794 410.492 341.909 408.377 344.501 408.377C347.093 408.377 349.209 410.492 349.209 413.084C349.209 415.676 347.093 417.792 344.501 417.792ZM340.802 416.783H344.501C346.547 416.783 348.2 415.116 348.2 413.084C348.2 411.053 346.547 409.386 344.501 409.386C342.456 409.386 340.802 411.053 340.802 413.084V416.783ZM333.293 417.792C330.701 417.792 328.585 415.676 328.585 413.084V401.876C328.585 399.284 330.701 397.168 333.293 397.168C335.885 397.168 338 399.284 338 401.876V413.084C338 415.676 335.885 417.792 333.293 417.792ZM333.293 398.177C331.247 398.177 329.594 399.844 329.594 401.876V413.084C329.594 415.13 331.247 416.783 333.293 416.783C335.338 416.783 336.991 415.116 336.991 413.084V401.876C336.991 399.83 335.338 398.177 333.293 398.177ZM333.293 440.209C330.701 440.209 328.585 438.094 328.585 435.502V430.794H333.293C335.885 430.794 338 432.91 338 435.502C338 438.094 335.885 440.209 333.293 440.209ZM329.594 431.803V435.502C329.594 437.547 331.247 439.2 333.293 439.2C335.338 439.2 336.991 437.547 336.991 435.502C336.991 433.456 335.338 431.803 333.293 431.803H329.594ZM344.501 429.001H333.293C330.701 429.001 328.585 426.885 328.585 424.293C328.585 421.701 330.701 419.585 333.293 419.585H344.501C347.093 419.585 349.209 421.701 349.209 424.293C349.209 426.885 347.093 429.001 344.501 429.001ZM333.293 420.594C331.247 420.594 329.594 422.247 329.594 424.293C329.594 426.339 331.247 427.992 333.293 427.992H344.501C346.547 427.992 348.2 426.339 348.2 424.293C348.2 422.247 346.547 420.594 344.501 420.594H333.293ZM310.875 429.001C308.284 429.001 306.168 426.885 306.168 424.293C306.168 421.701 308.284 419.585 310.875 419.585H315.583V424.293C315.583 426.885 313.467 429.001 310.875 429.001ZM310.875 420.594C308.83 420.594 307.177 422.247 307.177 424.293C307.177 426.339 308.83 427.992 310.875 427.992C312.921 427.992 314.574 426.339 314.574 424.293V420.594H310.875ZM322.084 440.209C319.492 440.209 317.376 438.094 317.376 435.502V424.293C317.376 421.701 319.492 419.585 322.084 419.585C324.676 419.585 326.792 421.701 326.792 424.293V435.502C326.792 438.094 324.676 440.209 322.084 440.209ZM322.084 420.594C320.038 420.594 318.385 422.247 318.385 424.293V435.502C318.385 437.547 320.053 439.2 322.084 439.2C324.116 439.2 325.783 437.547 325.783 435.502V424.293C325.783 422.247 324.13 420.594 322.084 420.594Z" fill="white"/>
<path d="M333.293 440.391C330.603 440.391 328.417 438.206 328.417 435.501V430.612H333.293C335.983 430.612 338.169 432.797 338.169 435.501C338.169 438.206 335.983 440.391 333.293 440.391ZM328.767 430.976V435.515C328.767 438.009 330.799 440.055 333.293 440.055C335.787 440.055 337.818 438.023 337.818 435.515C337.818 433.008 335.787 430.976 333.293 430.976H328.767ZM322.084 440.391C319.394 440.391 317.209 438.206 317.209 435.501V424.293C317.209 421.603 319.394 419.417 322.084 419.417C324.774 419.417 326.96 421.603 326.96 424.293V435.501C326.96 438.192 324.774 440.391 322.084 440.391ZM322.084 419.767C319.59 419.767 317.559 421.799 317.559 424.293V435.501C317.559 437.995 319.59 440.041 322.084 440.041C324.578 440.041 326.61 438.009 326.61 435.501V424.293C326.61 421.799 324.578 419.767 322.084 419.767ZM333.293 439.382C331.163 439.382 329.412 437.645 329.412 435.515V431.648H333.293C335.422 431.648 337.174 433.386 337.174 435.515C337.174 437.645 335.436 439.382 333.293 439.382ZM329.762 431.985V435.501C329.762 437.449 331.345 439.018 333.293 439.018C335.24 439.018 336.824 437.435 336.824 435.501C336.824 433.568 335.24 431.985 333.293 431.985H329.762ZM322.084 439.382C319.955 439.382 318.203 437.645 318.203 435.515V424.307C318.203 422.177 319.941 420.426 322.084 420.426C324.228 420.426 325.965 422.163 325.965 424.307V435.515C325.965 437.645 324.228 439.382 322.084 439.382ZM322.084 420.776C320.137 420.776 318.554 422.359 318.554 424.307V435.515C318.554 437.463 320.137 439.032 322.084 439.032C324.032 439.032 325.615 437.449 325.615 435.515V424.307C325.615 422.359 324.032 420.776 322.084 420.776ZM344.501 429.183H333.293C330.603 429.183 328.417 426.997 328.417 424.293C328.417 421.589 330.603 419.417 333.293 419.417H344.501C347.191 419.417 349.377 421.603 349.377 424.293C349.377 426.983 347.191 429.183 344.501 429.183ZM333.293 419.767C330.799 419.767 328.767 421.799 328.767 424.293C328.767 426.787 330.799 428.832 333.293 428.832H344.501C346.995 428.832 349.027 426.801 349.027 424.293C349.027 421.785 346.995 419.767 344.501 419.767H333.293ZM310.876 429.183C308.186 429.183 306 426.997 306 424.293C306 421.589 308.186 419.417 310.876 419.417H315.751V424.293C315.751 426.983 313.566 429.183 310.876 429.183ZM310.876 419.767C308.382 419.767 306.35 421.799 306.35 424.293C306.35 426.787 308.382 428.832 310.876 428.832C313.37 428.832 315.401 426.801 315.401 424.293V419.767H310.876ZM344.501 428.174H333.293C331.163 428.174 329.412 426.437 329.412 424.307C329.412 422.177 331.149 420.426 333.293 420.426H344.501C346.631 420.426 348.382 422.163 348.382 424.307C348.382 426.451 346.645 428.174 344.501 428.174ZM333.293 420.776C331.345 420.776 329.762 422.359 329.762 424.307C329.762 426.254 331.345 427.823 333.293 427.823H344.501C346.449 427.823 348.032 426.24 348.032 424.307C348.032 422.373 346.449 420.776 344.501 420.776H333.293ZM310.876 428.174C308.746 428.174 306.995 426.437 306.995 424.307C306.995 422.177 308.732 420.426 310.876 420.426H314.757V424.307C314.757 426.437 313.019 428.174 310.876 428.174ZM310.876 420.776C308.928 420.776 307.345 422.359 307.345 424.307C307.345 426.254 308.928 427.823 310.876 427.823C312.823 427.823 314.406 426.24 314.406 424.307V420.776H310.876ZM344.501 417.974H339.626V413.098C339.626 410.408 341.811 408.223 344.501 408.223C347.191 408.223 349.377 410.408 349.377 413.098C349.377 415.788 347.191 417.974 344.501 417.974ZM339.976 417.624H344.501C346.995 417.624 349.027 415.592 349.027 413.098C349.027 410.604 346.995 408.573 344.501 408.573C342.007 408.573 339.976 410.604 339.976 413.098V417.624ZM333.293 417.974C330.603 417.974 328.417 415.788 328.417 413.098V401.876C328.417 399.186 330.603 397 333.293 397C335.983 397 338.169 399.186 338.169 401.876V413.084C338.169 415.774 335.983 417.96 333.293 417.96V417.974ZM333.293 397.35C330.799 397.35 328.767 399.382 328.767 401.876V413.084C328.767 415.578 330.799 417.61 333.293 417.61C335.787 417.61 337.818 415.578 337.818 413.084V401.876C337.818 399.382 335.787 397.35 333.293 397.35ZM322.084 417.974H310.876C308.186 417.974 306 415.788 306 413.098C306 410.408 308.186 408.223 310.876 408.223H322.084C324.774 408.223 326.96 410.408 326.96 413.098C326.96 415.788 324.774 417.974 322.084 417.974ZM310.876 408.559C308.382 408.559 306.35 410.59 306.35 413.084C306.35 415.578 308.382 417.61 310.876 417.61H322.084C324.578 417.61 326.61 415.578 326.61 413.084C326.61 410.59 324.578 408.559 322.084 408.559H310.876ZM344.501 416.965H340.62V413.084C340.62 410.955 342.358 409.203 344.501 409.203C346.645 409.203 348.382 410.941 348.382 413.084C348.382 415.228 346.645 416.965 344.501 416.965ZM340.971 416.615H344.501C346.449 416.615 348.032 415.032 348.032 413.084C348.032 411.137 346.449 409.554 344.501 409.554C342.554 409.554 340.971 411.137 340.971 413.084V416.615ZM333.293 416.965C331.163 416.965 329.412 415.228 329.412 413.084V401.876C329.412 399.746 331.149 397.995 333.293 397.995C335.436 397.995 337.174 399.732 337.174 401.876V413.084C337.174 415.214 335.436 416.965 333.293 416.965ZM333.293 398.359C331.345 398.359 329.762 399.942 329.762 401.89V413.098C329.762 415.046 331.345 416.629 333.293 416.629C335.24 416.629 336.824 415.046 336.824 413.098V401.876C336.824 399.928 335.24 398.345 333.293 398.345V398.359ZM322.084 416.965H310.876C308.746 416.965 306.995 415.228 306.995 413.084C306.995 410.941 308.732 409.203 310.876 409.203H322.084C324.214 409.203 325.965 410.941 325.965 413.084C325.965 415.228 324.228 416.965 322.084 416.965ZM310.876 409.568C308.928 409.568 307.345 411.151 307.345 413.098C307.345 415.046 308.928 416.629 310.876 416.629H322.084C324.032 416.629 325.615 415.046 325.615 413.098C325.615 411.151 324.032 409.568 322.084 409.568H310.876ZM326.96 406.766H322.084C319.394 406.766 317.209 404.58 317.209 401.89C317.209 399.2 319.394 397.014 322.084 397.014C324.774 397.014 326.96 399.2 326.96 401.89V406.766ZM322.084 397.35C319.59 397.35 317.559 399.382 317.559 401.876C317.559 404.37 319.59 406.401 322.084 406.401H326.61V401.876C326.61 399.382 324.578 397.35 322.084 397.35ZM325.965 405.757H322.084C319.955 405.757 318.203 404.019 318.203 401.876C318.203 399.732 319.941 397.995 322.084 397.995C324.228 397.995 325.965 399.732 325.965 401.876V405.757ZM322.084 398.359C320.137 398.359 318.554 399.942 318.554 401.89C318.554 403.837 320.137 405.42 322.084 405.42H325.615V401.89C325.615 399.942 324.032 398.359 322.084 398.359Z" fill="white"/>
</mask>
<g mask="url(#mask0_134_748)">
<path d="M333.293 440.391C330.603 440.391 328.417 438.206 328.417 435.501V430.612H333.293C335.983 430.612 338.169 432.797 338.169 435.501C338.169 438.206 335.983 440.391 333.293 440.391ZM328.767 430.976V435.515C328.767 438.009 330.799 440.055 333.293 440.055C335.787 440.055 337.818 438.023 337.818 435.515C337.818 433.008 335.787 430.976 333.293 430.976H328.767ZM322.084 440.391C319.394 440.391 317.209 438.206 317.209 435.501V424.293C317.209 421.603 319.394 419.417 322.084 419.417C324.774 419.417 326.96 421.603 326.96 424.293V435.501C326.96 438.192 324.774 440.391 322.084 440.391ZM322.084 419.767C319.59 419.767 317.559 421.799 317.559 424.293V435.501C317.559 437.995 319.59 440.041 322.084 440.041C324.578 440.041 326.61 438.009 326.61 435.501V424.293C326.61 421.799 324.578 419.767 322.084 419.767ZM333.293 439.382C331.163 439.382 329.412 437.645 329.412 435.515V431.648H333.293C335.422 431.648 337.174 433.386 337.174 435.515C337.174 437.645 335.436 439.382 333.293 439.382ZM329.762 431.985V435.501C329.762 437.449 331.345 439.018 333.293 439.018C335.24 439.018 336.824 437.435 336.824 435.501C336.824 433.568 335.24 431.985 333.293 431.985H329.762ZM322.084 439.382C319.955 439.382 318.203 437.645 318.203 435.515V424.307C318.203 422.177 319.941 420.426 322.084 420.426C324.228 420.426 325.965 422.163 325.965 424.307V435.515C325.965 437.645 324.228 439.382 322.084 439.382ZM322.084 420.776C320.137 420.776 318.554 422.359 318.554 424.307V435.515C318.554 437.463 320.137 439.032 322.084 439.032C324.032 439.032 325.615 437.449 325.615 435.515V424.307C325.615 422.359 324.032 420.776 322.084 420.776ZM344.501 429.183H333.293C330.603 429.183 328.417 426.997 328.417 424.293C328.417 421.589 330.603 419.417 333.293 419.417H344.501C347.191 419.417 349.377 421.603 349.377 424.293C349.377 426.983 347.191 429.183 344.501 429.183ZM333.293 419.767C330.799 419.767 328.767 421.799 328.767 424.293C328.767 426.787 330.799 428.832 333.293 428.832H344.501C346.995 428.832 349.027 426.801 349.027 424.293C349.027 421.785 346.995 419.767 344.501 419.767H333.293ZM310.876 429.183C308.186 429.183 306 426.997 306 424.293C306 421.589 308.186 419.417 310.876 419.417H315.751V424.293C315.751 426.983 313.566 429.183 310.876 429.183ZM310.876 419.767C308.382 419.767 306.35 421.799 306.35 424.293C306.35 426.787 308.382 428.832 310.876 428.832C313.37 428.832 315.401 426.801 315.401 424.293V419.767H310.876ZM344.501 428.174H333.293C331.163 428.174 329.412 426.437 329.412 424.307C329.412 422.177 331.149 420.426 333.293 420.426H344.501C346.631 420.426 348.382 422.163 348.382 424.307C348.382 426.451 346.645 428.174 344.501 428.174ZM333.293 420.776C331.345 420.776 329.762 422.359 329.762 424.307C329.762 426.254 331.345 427.823 333.293 427.823H344.501C346.449 427.823 348.032 426.24 348.032 424.307C348.032 422.373 346.449 420.776 344.501 420.776H333.293ZM310.876 428.174C308.746 428.174 306.995 426.437 306.995 424.307C306.995 422.177 308.732 420.426 310.876 420.426H314.757V424.307C314.757 426.437 313.019 428.174 310.876 428.174ZM310.876 420.776C308.928 420.776 307.345 422.359 307.345 424.307C307.345 426.254 308.928 427.823 310.876 427.823C312.823 427.823 314.406 426.24 314.406 424.307V420.776H310.876ZM344.501 417.974H339.626V413.098C339.626 410.408 341.811 408.223 344.501 408.223C347.191 408.223 349.377 410.408 349.377 413.098C349.377 415.788 347.191 417.974 344.501 417.974ZM339.976 417.624H344.501C346.995 417.624 349.027 415.592 349.027 413.098C349.027 410.604 346.995 408.573 344.501 408.573C342.007 408.573 339.976 410.604 339.976 413.098V417.624ZM333.293 417.974C330.603 417.974 328.417 415.788 328.417 413.098V401.876C328.417 399.186 330.603 397 333.293 397C335.983 397 338.169 399.186 338.169 401.876V413.084C338.169 415.774 335.983 417.96 333.293 417.96V417.974ZM333.293 397.35C330.799 397.35 328.767 399.382 328.767 401.876V413.084C328.767 415.578 330.799 417.61 333.293 417.61C335.787 417.61 337.818 415.578 337.818 413.084V401.876C337.818 399.382 335.787 397.35 333.293 397.35ZM322.084 417.974H310.876C308.186 417.974 306 415.788 306 413.098C306 410.408 308.186 408.223 310.876 408.223H322.084C324.774 408.223 326.96 410.408 326.96 413.098C326.96 415.788 324.774 417.974 322.084 417.974ZM310.876 408.559C308.382 408.559 306.35 410.59 306.35 413.084C306.35 415.578 308.382 417.61 310.876 417.61H322.084C324.578 417.61 326.61 415.578 326.61 413.084C326.61 410.59 324.578 408.559 322.084 408.559H310.876ZM344.501 416.965H340.62V413.084C340.62 410.955 342.358 409.203 344.501 409.203C346.645 409.203 348.382 410.941 348.382 413.084C348.382 415.228 346.645 416.965 344.501 416.965ZM340.971 416.615H344.501C346.449 416.615 348.032 415.032 348.032 413.084C348.032 411.137 346.449 409.554 344.501 409.554C342.554 409.554 340.971 411.137 340.971 413.084V416.615ZM333.293 416.965C331.163 416.965 329.412 415.228 329.412 413.084V401.876C329.412 399.746 331.149 397.995 333.293 397.995C335.436 397.995 337.174 399.732 337.174 401.876V413.084C337.174 415.214 335.436 416.965 333.293 416.965ZM333.293 398.359C331.345 398.359 329.762 399.942 329.762 401.89V413.098C329.762 415.046 331.345 416.629 333.293 416.629C335.24 416.629 336.824 415.046 336.824 413.098V401.876C336.824 399.928 335.24 398.345 333.293 398.345V398.359ZM322.084 416.965H310.876C308.746 416.965 306.995 415.228 306.995 413.084C306.995 410.941 308.732 409.203 310.876 409.203H322.084C324.214 409.203 325.965 410.941 325.965 413.084C325.965 415.228 324.228 416.965 322.084 416.965ZM310.876 409.568C308.928 409.568 307.345 411.151 307.345 413.098C307.345 415.046 308.928 416.629 310.876 416.629H322.084C324.032 416.629 325.615 415.046 325.615 413.098C325.615 411.151 324.032 409.568 322.084 409.568H310.876ZM326.96 406.766H322.084C319.394 406.766 317.209 404.58 317.209 401.89C317.209 399.2 319.394 397.014 322.084 397.014C324.774 397.014 326.96 399.2 326.96 401.89V406.766ZM322.084 397.35C319.59 397.35 317.559 399.382 317.559 401.876C317.559 404.37 319.59 406.401 322.084 406.401H326.61V401.876C326.61 399.382 324.578 397.35 322.084 397.35ZM325.965 405.757H322.084C319.955 405.757 318.203 404.019 318.203 401.876C318.203 399.732 319.941 397.995 322.084 397.995C324.228 397.995 325.965 399.732 325.965 401.876V405.757ZM322.084 398.359C320.137 398.359 318.554 399.942 318.554 401.89C318.554 403.837 320.137 405.42 322.084 405.42H325.615V401.89C325.615 399.942 324.032 398.359 322.084 398.359Z" stroke="url(#paint35_linear_134_748)" stroke-width="2"/>
</g>
<defs>
<filter id="filter0_b_134_748" x="276" y="366" width="103" height="103" filterUnits="userSpaceOnUse" color-interpolation-filters="sRGB">
<feFlood flood-opacity="0" result="BackgroundImageFix"/>
<feGaussianBlur in="BackgroundImageFix" stdDeviation="7.5"/>
<feComposite in2="SourceAlpha" operator="in" result="effect1_backgroundBlur_134_748"/>
<feBlend mode="normal" in="SourceGraphic" in2="effect1_backgroundBlur_134_748" result="shape"/>
</filter>
<filter id="filter1_b_134_748" x="364" y="235" width="111" height="100" filterUnits="userSpaceOnUse" color-interpolation-filters="sRGB">
<feFlood flood-opacity="0" result="BackgroundImageFix"/>
<feGaussianBlur in="BackgroundImageFix" stdDeviation="7.5"/>
<feComposite in2="SourceAlpha" operator="in" result="effect1_backgroundBlur_134_748"/>
<feBlend mode="normal" in="SourceGraphic" in2="effect1_backgroundBlur_134_748" result="shape"/>
</filter>
<filter id="filter2_b_134_748" x="507" y="284" width="115" height="108" filterUnits="userSpaceOnUse" color-interpolation-filters="sRGB">
<feFlood flood-opacity="0" result="BackgroundImageFix"/>
<feGaussianBlur in="BackgroundImageFix" stdDeviation="7.5"/>
<feComposite in2="SourceAlpha" operator="in" result="effect1_backgroundBlur_134_748"/>
<feBlend mode="normal" in="SourceGraphic" in2="effect1_backgroundBlur_134_748" result="shape"/>
</filter>
<filter id="filter3_b_134_748" x="855" y="259" width="138" height="108" filterUnits="userSpaceOnUse" color-interpolation-filters="sRGB">
<feFlood flood-opacity="0" result="BackgroundImageFix"/>
<feGaussianBlur in="BackgroundImageFix" stdDeviation="7.5"/>
<feComposite in2="SourceAlpha" operator="in" result="effect1_backgroundBlur_134_748"/>
<feBlend mode="normal" in="SourceGraphic" in2="effect1_backgroundBlur_134_748" result="shape"/>
</filter>
<filter id="filter4_b_134_748" x="646" y="218" width="101" height="96" filterUnits="userSpaceOnUse" color-interpolation-filters="sRGB">
<feFlood flood-opacity="0" result="BackgroundImageFix"/>
<feGaussianBlur in="BackgroundImageFix" stdDeviation="7.5"/>
<feComposite in2="SourceAlpha" operator="in" result="effect1_backgroundBlur_134_748"/>
<feBlend mode="normal" in="SourceGraphic" in2="effect1_backgroundBlur_134_748" result="shape"/>
</filter>
<filter id="filter5_b_134_748" x="696" y="364" width="121" height="96" filterUnits="userSpaceOnUse" color-interpolation-filters="sRGB">
<feFlood flood-opacity="0" result="BackgroundImageFix"/>
<feGaussianBlur in="BackgroundImageFix" stdDeviation="7.5"/>
<feComposite in2="SourceAlpha" operator="in" result="effect1_backgroundBlur_134_748"/>
<feBlend mode="normal" in="SourceGraphic" in2="effect1_backgroundBlur_134_748" result="shape"/>
</filter>
<filter id="filter6_f_134_748" x="429.5" y="0.5" width="55" height="108" filterUnits="userSpaceOnUse" color-interpolation-filters="sRGB">
<feFlood flood-opacity="0" result="BackgroundImageFix"/>
<feBlend mode="normal" in="SourceGraphic" in2="BackgroundImageFix" result="shape"/>
<feGaussianBlur stdDeviation="5" result="effect1_foregroundBlur_134_748"/>
</filter>
<filter id="filter7_f_134_748" x="490" y="23" width="45" height="79.5" filterUnits="userSpaceOnUse" color-interpolation-filters="sRGB">
<feFlood flood-opacity="0" result="BackgroundImageFix"/>
<feBlend mode="normal" in="SourceGraphic" in2="BackgroundImageFix" result="shape"/>
<feGaussianBlur stdDeviation="2.5" result="effect1_foregroundBlur_134_748"/>
</filter>
<filter id="filter8_f_134_748" x="608.5" y="104.5" width="254" height="235.5" filterUnits="userSpaceOnUse" color-interpolation-filters="sRGB">
<feFlood flood-opacity="0" result="BackgroundImageFix"/>
<feBlend mode="normal" in="SourceGraphic" in2="BackgroundImageFix" result="shape"/>
<feGaussianBlur stdDeviation="5" result="effect1_foregroundBlur_134_748"/>
</filter>
<filter id="filter9_f_134_748" x="570" y="92" width="361" height="192" filterUnits="userSpaceOnUse" color-interpolation-filters="sRGB">
<feFlood flood-opacity="0" result="BackgroundImageFix"/>
<feBlend mode="normal" in="SourceGraphic" in2="BackgroundImageFix" result="shape"/>
<feGaussianBlur stdDeviation="5" result="effect1_foregroundBlur_134_748"/>
</filter>
<filter id="filter10_f_134_748" x="610" y="155" width="58.5" height="114.5" filterUnits="userSpaceOnUse" color-interpolation-filters="sRGB">
<feFlood flood-opacity="0" result="BackgroundImageFix"/>
<feBlend mode="normal" in="SourceGraphic" in2="BackgroundImageFix" result="shape"/>
<feGaussianBlur stdDeviation="5" result="effect1_foregroundBlur_134_748"/>
</filter>
<filter id="filter11_f_134_748" x="408" y="147" width="83" height="111" filterUnits="userSpaceOnUse" color-interpolation-filters="sRGB">
<feFlood flood-opacity="0" result="BackgroundImageFix"/>
<feBlend mode="normal" in="SourceGraphic" in2="BackgroundImageFix" result="shape"/>
<feGaussianBlur stdDeviation="5" result="effect1_foregroundBlur_134_748"/>
</filter>
<filter id="filter12_b_134_748" x="137" y="255" width="121" height="104" filterUnits="userSpaceOnUse" color-interpolation-filters="sRGB">
<feFlood flood-opacity="0" result="BackgroundImageFix"/>
<feGaussianBlur in="BackgroundImageFix" stdDeviation="7.5"/>
<feComposite in2="SourceAlpha" operator="in" result="effect1_backgroundBlur_134_748"/>
<feBlend mode="normal" in="SourceGraphic" in2="effect1_backgroundBlur_134_748" result="shape"/>
</filter>
<filter id="filter13_f_134_748" x="191" y="152" width="160" height="128" filterUnits="userSpaceOnUse" color-interpolation-filters="sRGB">
<feFlood flood-opacity="0" result="BackgroundImageFix"/>
<feBlend mode="normal" in="SourceGraphic" in2="BackgroundImageFix" result="shape"/>
<feGaussianBlur stdDeviation="5" result="effect1_foregroundBlur_134_748"/>
</filter>
<filter id="filter14_f_134_748" x="23.5" y="96.5" width="321.5" height="190" filterUnits="userSpaceOnUse" color-interpolation-filters="sRGB">
<feFlood flood-opacity="0" result="BackgroundImageFix"/>
<feBlend mode="normal" in="SourceGraphic" in2="BackgroundImageFix" result="shape"/>
<feGaussianBlur stdDeviation="5" result="effect1_foregroundBlur_134_748"/>
</filter>
<filter id="filter15_b_134_748" x="-15" y="262" width="104" height="104" filterUnits="userSpaceOnUse" color-interpolation-filters="sRGB">
<feFlood flood-opacity="0" result="BackgroundImageFix"/>
<feGaussianBlur in="BackgroundImageFix" stdDeviation="7.5"/>
<feComposite in2="SourceAlpha" operator="in" result="effect1_backgroundBlur_134_748"/>
<feBlend mode="normal" in="SourceGraphic" in2="effect1_backgroundBlur_134_748" result="shape"/>
</filter>
<radialGradient id="paint0_radial_134_748" cx="0" cy="0" r="1" gradientUnits="userSpaceOnUse" gradientTransform="translate(327.5 454) rotate(-90) scale(42.136)">
<stop stop-color="#3F2887"/>
<stop offset="1" stop-color="#1C163C"/>
</radialGradient>
<linearGradient id="paint1_linear_134_748" x1="288.567" y1="390.733" x2="342.1" y2="458.867" gradientUnits="userSpaceOnUse">
<stop offset="0.51" stop-color="#ABA1C8"/>
<stop offset="1" stop-color="#7544FF"/>
</linearGradient>
<radialGradient id="paint2_radial_134_748" cx="0" cy="0" r="1" gradientUnits="userSpaceOnUse" gradientTransform="translate(419.5 320) rotate(-90) scale(40.4044 46.7537)">
<stop stop-color="#3F2887"/>
<stop offset="1" stop-color="#1C163C"/>
</radialGradient>
<linearGradient id="paint3_linear_134_748" x1="376.3" y1="259.333" x2="425.408" y2="331.655" gradientUnits="userSpaceOnUse">
<stop offset="0.51" stop-color="#ABA1C8"/>
<stop offset="1" stop-color="#7544FF"/>
</linearGradient>
<radialGradient id="paint4_radial_134_748" cx="0" cy="0" r="1" gradientUnits="userSpaceOnUse" gradientTransform="translate(564.5 377) rotate(-90) scale(45.0221 49.0625)">
<stop stop-color="#3F2887"/>
<stop offset="1" stop-color="#1C163C"/>
</radialGradient>
<linearGradient id="paint5_linear_134_748" x1="519.167" y1="309.4" x2="575.023" y2="386.87" gradientUnits="userSpaceOnUse">
<stop offset="0.51" stop-color="#ABA1C8"/>
<stop offset="1" stop-color="#7544FF"/>
</linearGradient>
<radialGradient id="paint6_radial_134_748" cx="0" cy="0" r="1" gradientUnits="userSpaceOnUse" gradientTransform="translate(924 352) rotate(-90) scale(45.0221 62.3382)">
<stop stop-color="#3F2887"/>
<stop offset="1" stop-color="#1C163C"/>
</radialGradient>
<linearGradient id="paint7_linear_134_748" x1="866.4" y1="284.4" x2="916.94" y2="373.463" gradientUnits="userSpaceOnUse">
<stop offset="0.51" stop-color="#ABA1C8"/>
<stop offset="1" stop-color="#7544FF"/>
</linearGradient>
<radialGradient id="paint8_radial_134_748" cx="0" cy="0" r="1" gradientUnits="userSpaceOnUse" gradientTransform="translate(696.5 299) rotate(-90) scale(38.0956 40.9816)">
<stop stop-color="#3F2887"/>
<stop offset="1" stop-color="#1C163C"/>
</radialGradient>
<linearGradient id="paint9_linear_134_748" x1="658.633" y1="241.8" x2="706.086" y2="306.77" gradientUnits="userSpaceOnUse">
<stop offset="0.51" stop-color="#ABA1C8"/>
<stop offset="1" stop-color="#7544FF"/>
</linearGradient>
<radialGradient id="paint10_radial_134_748" cx="0" cy="0" r="1" gradientUnits="userSpaceOnUse" gradientTransform="translate(756.5 445) rotate(-90) scale(38.0956 52.5257)">
<stop stop-color="#3F2887"/>
<stop offset="1" stop-color="#1C163C"/>
</radialGradient>
<linearGradient id="paint11_linear_134_748" x1="707.967" y1="387.8" x2="750.824" y2="463.006" gradientUnits="userSpaceOnUse">
<stop offset="0.51" stop-color="#ABA1C8"/>
<stop offset="1" stop-color="#7544FF"/>
</linearGradient>
<linearGradient id="paint12_linear_134_748" x1="445.936" y1="69.6006" x2="479.473" y2="66.3693" gradientUnits="userSpaceOnUse">
<stop stop-color="#7544FF"/>
<stop offset="1" stop-color="#0C0E19"/>
</linearGradient>
<linearGradient id="paint13_linear_134_748" x1="457.5" y1="99.5455" x2="457.5" y2="3.54546" gradientUnits="userSpaceOnUse">
<stop stop-color="#CEC1F1"/>
<stop offset="1" stop-color="#0C0E19"/>
</linearGradient>
<linearGradient id="paint14_linear_134_748" x1="528" y1="93" x2="546.414" y2="60.9811" gradientUnits="userSpaceOnUse">
<stop stop-color="#7544FF"/>
<stop offset="1" stop-color="#0C0E19" stop-opacity="0"/>
</linearGradient>
<linearGradient id="paint15_linear_134_748" x1="535.5" y1="80" x2="486.5" y2="31" gradientUnits="userSpaceOnUse">
<stop stop-color="#CEC1F1"/>
<stop offset="1" stop-color="#0C0E19"/>
</linearGradient>
<linearGradient id="paint16_linear_134_748" x1="558" y1="207.5" x2="861.858" y2="153.723" gradientUnits="userSpaceOnUse">
<stop stop-color="#0C0E19"/>
<stop offset="1" stop-color="#7544FF"/>
</linearGradient>
<linearGradient id="paint17_linear_134_748" x1="784" y1="387.5" x2="607" y2="133" gradientUnits="userSpaceOnUse">
<stop stop-color="#CEC1F1"/>
</linearGradient>
<linearGradient id="paint18_linear_134_748" x1="491.717" y1="203.524" x2="924.809" y2="101.161" gradientUnits="userSpaceOnUse">
<stop stop-color="#0C0E19"/>
<stop offset="1" stop-color="#7544FF"/>
</linearGradient>
<linearGradient id="paint19_linear_134_748" x1="655" y1="259" x2="691.736" y2="227.068" gradientUnits="userSpaceOnUse">
<stop stop-color="#7544FF"/>
<stop offset="1" stop-color="#0C0E19"/>
</linearGradient>
<linearGradient id="paint20_linear_134_748" x1="429.048" y1="218.115" x2="489.814" y2="207.65" gradientUnits="userSpaceOnUse">
<stop stop-color="#7544FF"/>
<stop offset="1" stop-color="#0C0E19"/>
</linearGradient>
<radialGradient id="paint21_radial_134_748" cx="0" cy="0" r="1" gradientUnits="userSpaceOnUse" gradientTransform="translate(197.5 344) rotate(-90) scale(42.7132 52.5257)">
<stop stop-color="#3F2887"/>
<stop offset="1" stop-color="#1C163C"/>
</radialGradient>
<linearGradient id="paint22_linear_134_748" x1="148.967" y1="279.867" x2="199.648" y2="359.189" gradientUnits="userSpaceOnUse">
<stop offset="0.51" stop-color="#ABA1C8"/>
<stop offset="1" stop-color="#7544FF"/>
</linearGradient>
<linearGradient id="paint23_linear_134_748" x1="224.897" y1="234.861" x2="353.178" y2="192.043" gradientUnits="userSpaceOnUse">
<stop stop-color="#7544FF"/>
<stop offset="1" stop-color="#0C0E19"/>
</linearGradient>
<linearGradient id="paint24_linear_134_748" x1="197.5" y1="292" x2="197.5" y2="325" gradientUnits="userSpaceOnUse">
<stop stop-color="white"/>
<stop offset="1" stop-color="white" stop-opacity="0.5"/>
</linearGradient>
<linearGradient id="paint25_linear_134_748" x1="84" y1="221" x2="339" y2="104.5" gradientUnits="userSpaceOnUse">
<stop stop-color="#7544FF"/>
<stop offset="1" stop-color="#0C0E19"/>
</linearGradient>
<radialGradient id="paint26_radial_134_748" cx="0" cy="0" r="1" gradientUnits="userSpaceOnUse" gradientTransform="translate(37 351) rotate(-90) scale(42.7132)">
<stop stop-color="#3F2887"/>
<stop offset="1" stop-color="#1C163C"/>
</radialGradient>
<linearGradient id="paint27_linear_134_748" x1="-2.46667" y1="286.867" x2="51.8" y2="355.933" gradientUnits="userSpaceOnUse">
<stop offset="0.51" stop-color="#ABA1C8"/>
<stop offset="1" stop-color="#7544FF"/>
</linearGradient>
<linearGradient id="paint28_linear_134_748" x1="37.1391" y1="300" x2="37.1391" y2="330.348" gradientUnits="userSpaceOnUse">
<stop stop-color="white"/>
<stop offset="1" stop-color="white" stop-opacity="0.5"/>
</linearGradient>
<linearGradient id="paint29_linear_134_748" x1="419.336" y1="267.75" x2="419.336" y2="305.354" gradientUnits="userSpaceOnUse">
<stop stop-color="white"/>
<stop offset="1" stop-color="white" stop-opacity="0.5"/>
</linearGradient>
<linearGradient id="paint30_linear_134_748" x1="564.402" y1="323" x2="564.402" y2="357.804" gradientUnits="userSpaceOnUse">
<stop stop-color="white"/>
<stop offset="1" stop-color="white" stop-opacity="0.5"/>
</linearGradient>
<linearGradient id="paint31_linear_134_748" x1="564.402" y1="323" x2="564.402" y2="357.803" gradientUnits="userSpaceOnUse">
<stop stop-color="white"/>
<stop offset="1" stop-color="white" stop-opacity="0.5"/>
</linearGradient>
<linearGradient id="paint32_linear_134_748" x1="756.5" y1="401" x2="756.5" y2="424" gradientUnits="userSpaceOnUse">
<stop stop-color="white"/>
<stop offset="1" stop-color="white" stop-opacity="0.5"/>
</linearGradient>
<linearGradient id="paint33_linear_134_748" x1="696.973" y1="251" x2="696.973" y2="280.947" gradientUnits="userSpaceOnUse">
<stop stop-color="white"/>
<stop offset="1" stop-color="white" stop-opacity="0.5"/>
</linearGradient>
<linearGradient id="paint34_linear_134_748" x1="924.5" y1="296.519" x2="924.5" y2="329.391" gradientUnits="userSpaceOnUse">
<stop stop-color="white"/>
<stop offset="1" stop-color="white" stop-opacity="0.5"/>
</linearGradient>
<linearGradient id="paint35_linear_134_748" x1="327.689" y1="397" x2="327.689" y2="440.391" gradientUnits="userSpaceOnUse">
<stop stop-color="white"/>
<stop offset="1" stop-color="white" stop-opacity="0.5"/>
</linearGradient>
</defs>
</svg>
