<svg width="34" height="34" viewBox="0 0 34 34" fill="none" xmlns="http://www.w3.org/2000/svg">
<path fill-rule="evenodd" clip-rule="evenodd" d="M9.8857 9.5866L10.5962 9.7647C10.7585 10.4603 11.0337 11.1245 11.411 11.731L11.0356 12.36L10.5769 13.1283C11.0228 13.7174 11.5477 14.2423 12.1367 14.6882L12.9051 14.2295L13.5341 13.8541C14.1409 14.2305 14.8051 14.5057 15.5003 14.6688L15.6784 15.3793L15.8971 16.2463C16.6291 16.347 17.3714 16.347 18.1034 16.2463L18.3221 15.3793L18.5021 14.6688C19.1969 14.5062 19.8605 14.231 20.4664 13.8541L21.0973 14.2295L21.8656 14.6882C22.4542 14.2418 22.979 13.7169 23.4255 13.1283L22.9668 12.36L22.5894 11.7291C22.967 11.1235 23.2423 10.4598 23.4042 9.76477L24.1164 9.58667L24.9834 9.36799C25.084 8.636 25.084 7.8937 24.9834 7.16171L24.1164 6.94111L23.4042 6.76301C23.2423 6.06793 22.967 5.40426 22.5894 4.79864L22.9668 4.16778L23.4255 3.39946C22.9785 2.81131 22.4537 2.28656 21.8656 1.83958L21.0973 2.29812L20.4664 2.67358C19.86 2.29806 19.1965 2.02355 18.502 1.86077L18.3215 1.14876L18.1031 0.281492C17.3712 0.180909 16.6288 0.180909 15.8969 0.281492L15.6785 1.14876L15.5004 1.86096C14.8052 2.02338 14.1411 2.29791 13.5341 2.67378L12.9052 2.29832L12.1365 1.83938C11.5479 2.28584 11.0231 2.81066 10.5766 3.39926L11.0353 4.16759L11.4107 4.79844C11.0335 5.40423 10.7582 6.06785 10.596 6.76281L9.88543 6.94091L9.01644 7.16151C8.91586 7.8935 8.91586 8.6358 9.01644 9.36779L9.8857 9.5866ZM17 4.22383C17.799 4.22363 18.5802 4.46039 19.2447 4.90415C19.9092 5.34791 20.4272 5.97875 20.7331 6.7169C21.0391 7.45505 21.1193 8.26734 20.9636 9.05107C20.8079 9.8348 20.4233 10.5548 19.8584 11.1199C19.2935 11.685 18.5738 12.07 17.7901 12.2261C17.0064 12.3821 16.1941 12.3023 15.4558 11.9967C14.7175 11.6911 14.0864 11.1734 13.6424 10.5092C13.1983 9.84487 12.9612 9.06383 12.961 8.26478C12.9611 7.19342 13.3866 6.16594 14.144 5.4082C14.9014 4.65045 15.9286 4.22445 17 4.22383ZM2.51979 25.0674C2.43334 24.9761 2.38654 24.8543 2.3896 24.7287C2.39266 24.603 2.44533 24.4837 2.53611 24.3967C2.62689 24.3098 2.74839 24.2623 2.87407 24.2647C2.99975 24.267 3.11938 24.319 3.20682 24.4093L3.42749 24.6397V23.4088C3.42938 22.7252 3.70179 22.0701 4.18519 21.5867C4.66859 21.1033 5.32368 20.8309 6.00731 20.829H16.5219V17.9086C16.5219 17.7818 16.5722 17.6601 16.6619 17.5705C16.7516 17.4808 16.8732 17.4304 17 17.4304C17.1268 17.4304 17.2484 17.4808 17.3381 17.5705C17.4277 17.6601 17.4781 17.7818 17.4781 17.9086V20.829H27.9946C28.678 20.8317 29.3326 21.1044 29.8158 21.5876C30.299 22.0709 30.5717 22.7254 30.5744 23.4088V24.6397L30.7932 24.4093C30.8806 24.319 31.0003 24.267 31.1259 24.2647C31.2516 24.2623 31.3731 24.3098 31.4639 24.3967C31.5547 24.4837 31.6073 24.603 31.6104 24.7287C31.6135 24.8543 31.5667 24.9761 31.4802 25.0674L30.439 26.155C30.3959 26.2002 30.3444 26.2365 30.2873 26.2617C30.2303 26.2869 30.1688 26.3007 30.1064 26.3021C30.044 26.3036 29.982 26.2927 29.9238 26.2701C29.8656 26.2475 29.8125 26.2137 29.7674 26.1705L29.7519 26.155L28.7107 25.0674C28.6243 24.9761 28.5775 24.8543 28.5806 24.7287C28.5836 24.603 28.6363 24.4837 28.7271 24.3967C28.8178 24.3098 28.9393 24.2623 29.065 24.2647C29.1907 24.267 29.3103 24.319 29.3978 24.4093L29.6184 24.6397V23.4088C29.6162 22.9788 29.4444 22.5671 29.1404 22.263C28.8363 21.959 28.4246 21.7872 27.9946 21.785H17.4781V24.6397L17.6987 24.4093C17.7862 24.319 17.9058 24.267 18.0315 24.2647C18.1572 24.2623 18.2787 24.3098 18.3694 24.3967C18.4602 24.4837 18.5129 24.603 18.516 24.7287C18.519 24.8543 18.4722 24.9761 18.3858 25.0674L17.3446 26.155C17.2573 26.2463 17.1373 26.2992 17.011 26.3021C16.8848 26.305 16.7625 26.2577 16.6711 26.1705L16.6578 26.155L15.6166 25.0674C15.5301 24.9761 15.4833 24.8543 15.4864 24.7287C15.4894 24.603 15.5421 24.4837 15.6329 24.3967C15.7237 24.3098 15.8452 24.2623 15.9708 24.2647C16.0965 24.267 16.2162 24.319 16.3036 24.4093L16.5223 24.6397V21.785H6.00731C5.57707 21.7864 5.16483 21.9579 4.8606 22.2621C4.55638 22.5663 4.38487 22.9786 4.38354 23.4088V24.6397L4.60414 24.4093C4.64735 24.3644 4.69899 24.3283 4.75613 24.3033C4.81326 24.2783 4.87476 24.2647 4.93712 24.2635C4.99948 24.2622 5.06148 24.2733 5.11958 24.296C5.17767 24.3187 5.23073 24.3526 5.27571 24.3958C5.3207 24.439 5.35673 24.4906 5.38176 24.5478C5.40678 24.6049 5.42031 24.6664 5.42157 24.7288C5.42283 24.7911 5.41179 24.8531 5.38909 24.9112C5.36639 24.9693 5.33246 25.0224 5.28926 25.0674L4.24807 26.155C4.20504 26.2002 4.15351 26.2365 4.09644 26.2617C4.03938 26.2869 3.97789 26.3007 3.9155 26.3021C3.85312 26.3036 3.79106 26.2927 3.73289 26.2701C3.67472 26.2475 3.62158 26.2137 3.57651 26.1705L3.56104 26.155L2.51979 25.0674ZM7.81104 28.7562V33.3177C7.81079 33.4439 7.76054 33.5649 7.6713 33.6541C7.58206 33.7433 7.4611 33.7936 7.3349 33.7938H0.476067C0.413536 33.7938 0.351611 33.7816 0.293832 33.7577C0.236053 33.7337 0.183555 33.6987 0.139339 33.6545C0.0951238 33.6102 0.0600587 33.5577 0.0361496 33.5C0.0122405 33.4422 -4.35413e-05 33.3803 1.1596e-07 33.3177V27.8717C0.000316782 27.7457 0.0506367 27.625 0.139903 27.5361C0.22917 27.4472 0.35008 27.3974 0.476067 27.3976H2.6688L3.55134 28.28H7.3349C7.46102 28.2805 7.58182 28.3309 7.671 28.4201C7.76018 28.5092 7.81051 28.63 7.81104 28.7562ZM20.9055 28.7562V33.3177C20.9055 33.3803 20.8932 33.4422 20.8693 33.5C20.8454 33.5577 20.8104 33.6102 20.7661 33.6545C20.7219 33.6987 20.6694 33.7337 20.6117 33.7577C20.5539 33.7816 20.4919 33.7938 20.4294 33.7938H13.5706C13.4444 33.7936 13.3235 33.7433 13.2342 33.6541C13.145 33.5649 13.0948 33.4439 13.0945 33.3177V27.8717C13.0951 27.7458 13.1456 27.6253 13.2348 27.5364C13.324 27.4476 13.4447 27.3977 13.5706 27.3976H15.7633L16.648 28.28H20.4297C20.5558 28.2803 20.6767 28.3306 20.7659 28.4198C20.8551 28.5091 20.9053 28.63 20.9055 28.7562ZM34 28.7562V33.3177C34.0002 33.4437 33.9504 33.5646 33.8615 33.6539C33.7726 33.7432 33.6518 33.7935 33.5259 33.7938H26.6651C26.5391 33.7935 26.4184 33.7432 26.3295 33.6539C26.2405 33.5647 26.1907 33.4437 26.1909 33.3177V27.8717C26.1911 27.746 26.2411 27.6255 26.33 27.5366C26.4189 27.4478 26.5394 27.3977 26.6651 27.3976H28.8578L29.7422 28.28H33.5259C33.6518 28.2807 33.7723 28.3311 33.8611 28.4203C33.95 28.5095 33.9999 28.6303 34 28.7562Z" fill="#7544FF"/>
</svg>
