<svg width="20" height="20" viewBox="0 0 20 20" fill="none" xmlns="http://www.w3.org/2000/svg">
<path d="M6.95976 2.66021L9.35127 0.268726C9.70955 -0.0895752 10.2905 -0.0895752 10.6488 0.268726L13.0403 2.66021H16.4223C16.9291 2.66021 17.3398 3.07098 17.3398 3.57769V6.95976L19.7313 9.35127C20.0896 9.70955 20.0896 10.2905 19.7313 10.6488L17.3398 13.0403V16.4223C17.3398 16.9291 16.9291 17.3398 16.4223 17.3398H13.0403L10.6488 19.7313C10.2905 20.0896 9.70955 20.0896 9.35127 19.7313L6.95976 17.3398H3.57769C3.07098 17.3398 2.66021 16.9291 2.66021 16.4223V13.0403L0.268726 10.6488C-0.0895752 10.2905 -0.0895752 9.70955 0.268726 9.35127L2.66021 6.95976V3.57769C2.66021 3.07098 3.07098 2.66021 3.57769 2.66021H6.95976ZM10 12.7524C11.5201 12.7524 12.7524 11.5201 12.7524 10C12.7524 8.47986 11.5201 7.24758 10 7.24758C8.47986 7.24758 7.24758 8.47986 7.24758 10C7.24758 11.5201 8.47986 12.7524 10 12.7524Z" fill="#CEC1F1" fill-opacity="0.5"/>
</svg>
