<svg width="23" height="23" viewBox="0 0 23 23" fill="none" xmlns="http://www.w3.org/2000/svg">
<path d="M20.1243 12.4582C19.8702 12.4582 19.6264 12.5591 19.4467 12.7389C19.267 12.9186 19.166 13.1623 19.166 13.4165V16.2915C19.166 17.054 18.8631 17.7853 18.3239 18.3244C17.7848 18.8636 17.0535 19.1665 16.291 19.1665H6.70768C5.94518 19.1665 5.21392 18.8636 4.67475 18.3244C4.13558 17.7853 3.83268 17.054 3.83268 16.2915V6.70817C3.83268 5.94567 4.13558 5.21441 4.67475 4.67524C5.21392 4.13607 5.94518 3.83317 6.70768 3.83317H11.4993C11.7535 3.83317 11.9973 3.7322 12.177 3.55248C12.3567 3.37276 12.4577 3.129 12.4577 2.87484C12.4577 2.62067 12.3567 2.37692 12.177 2.19719C11.9973 2.01747 11.7535 1.9165 11.4993 1.9165H6.70768C5.43732 1.91803 4.21943 2.42335 3.32114 3.32163C2.42286 4.21991 1.91754 5.43781 1.91602 6.70817V16.2915C1.91754 17.5619 2.42286 18.7798 3.32114 19.678C4.21943 20.5763 5.43732 21.0816 6.70768 21.0832H16.291C17.5614 21.0816 18.7793 20.5763 19.6776 19.678C20.5758 18.7798 21.0812 17.5619 21.0827 16.2915V13.4165C21.0827 13.1623 20.9817 12.9186 20.802 12.7389C20.6223 12.5591 20.3785 12.4582 20.1243 12.4582Z" fill="#CEC1F1" fill-opacity="0.5"/>
<path d="M6.71752 12.5943C6.74654 12.7964 6.83936 12.984 6.98244 13.1296C7.12552 13.2753 7.31138 13.3714 7.51294 13.4041C7.56362 13.4125 7.6149 13.4166 7.66627 13.4165C7.84436 13.4166 8.01895 13.3671 8.17045 13.2735C8.32195 13.1799 8.44437 13.0459 8.52398 12.8866C9.71327 10.507 12.8777 10.3642 14.3746 10.4534V12.4582C14.3746 12.6477 14.4309 12.833 14.5362 12.9905C14.6415 13.1481 14.7911 13.2709 14.9662 13.3434C15.1413 13.4159 15.334 13.4349 15.5198 13.3979C15.7057 13.361 15.8765 13.2697 16.0105 13.1357L20.8021 8.34408C20.8975 8.2488 20.9716 8.13449 21.0198 8.0086C21.0679 7.88272 21.089 7.74809 21.0816 7.61352C21.0742 7.47894 21.0384 7.34744 20.9767 7.22761C20.9151 7.10778 20.8288 7.00231 20.7236 6.91808L15.9319 3.08475C15.7909 2.97188 15.6209 2.90115 15.4415 2.88068C15.2621 2.86022 15.0806 2.89087 14.9178 2.96909C14.755 3.04732 14.6177 3.16994 14.5216 3.32282C14.4255 3.4757 14.3745 3.65263 14.3746 3.83321V5.67129C11.6913 5.54575 9.64044 6.184 8.29781 7.56783C7.69517 8.24705 7.24286 9.04596 6.97052 9.91218C6.69818 10.7784 6.61197 11.6924 6.71752 12.5943Z" fill="#CEC1F1" fill-opacity="0.5"/>
</svg>
