<svg width="20" height="21" viewBox="0 0 20 21" fill="none" xmlns="http://www.w3.org/2000/svg">
<path d="M19.1599 12.1377C19.2363 11.6652 19.2745 11.1831 19.2745 10.6914C19.2745 5.56492 15.1217 1.41217 10 1.41217C9.50835 1.41217 9.02625 1.45036 8.5537 1.52673C7.69928 0.996895 6.69212 0.691406 5.60859 0.691406C2.51074 0.691406 0 3.20215 0 6.3C0 7.37876 0.305489 8.38592 0.835322 9.24511C0.763723 9.71766 0.720764 10.1998 0.720764 10.6914C0.720764 15.8179 4.87351 19.9706 9.99523 19.9706C10.4869 19.9706 10.969 19.9325 11.4415 19.8561C12.2959 20.3859 13.3031 20.6914 14.3866 20.6914C17.4845 20.6914 19.9952 18.1807 19.9952 15.0828C19.9952 14.0041 19.6897 12.9921 19.1599 12.1377ZM14.401 14.911C14.0095 15.4742 13.432 15.9181 12.6778 16.2332C11.9236 16.553 11.031 16.7105 10 16.7105C8.76372 16.7105 7.74224 16.4957 6.93556 16.0566C6.36277 15.7463 5.89976 15.3263 5.54177 14.8012C5.18377 14.2761 5.00239 13.7654 5.00239 13.2642C5.00239 12.973 5.11695 12.7153 5.33174 12.5052C5.55131 12.2952 5.83771 12.1902 6.17184 12.1902C6.44869 12.1902 6.68258 12.2714 6.87828 12.4384C7.06921 12.6007 7.2315 12.8394 7.36038 13.1544C7.5179 13.522 7.68974 13.8227 7.87112 14.0661C8.05251 14.3048 8.30549 14.51 8.63484 14.6628C8.95943 14.8203 9.39379 14.8967 9.93317 14.8967C10.673 14.8967 11.2745 14.7391 11.7327 14.4193C12.1957 14.0995 12.4153 13.7129 12.4153 13.2451C12.4153 12.868 12.2959 12.5721 12.0525 12.343C11.8043 12.1091 11.4845 11.9277 11.0883 11.8036C10.6921 11.6795 10.1575 11.5458 9.48926 11.4026C8.59188 11.2069 7.84248 10.9778 7.2315 10.7153C6.6253 10.4527 6.13842 10.0947 5.78043 9.64129C5.41766 9.18305 5.24105 8.61503 5.24105 7.93723C5.24105 7.25943 5.43198 6.71527 5.80907 6.21885C6.19093 5.71766 6.73986 5.33102 7.45107 5.06372C8.16229 4.79642 9.00239 4.66277 9.96659 4.66277C10.7351 4.66277 11.3986 4.75346 11.9618 4.93007C12.5251 5.10668 12.9928 5.34534 13.3652 5.64129C13.7375 5.93723 14.0095 6.24749 14.1862 6.57207C14.358 6.89666 14.4487 7.22124 14.4487 7.5315C14.4487 7.82267 14.3341 8.0852 14.1146 8.31432C13.895 8.54821 13.6181 8.66277 13.2888 8.66277C12.9928 8.66277 12.7637 8.59594 12.6014 8.45274C12.4439 8.31432 12.2816 8.08997 12.105 7.77971C11.8807 7.35012 11.6134 7.01122 11.2983 6.77255C10.9928 6.53866 10.4916 6.41456 9.79475 6.41456C9.14559 6.41456 8.63007 6.54821 8.23866 6.80596C7.84726 7.06849 7.65632 7.37398 7.65632 7.72721C7.65632 7.95155 7.72315 8.13771 7.85203 8.3C7.98091 8.46229 8.16706 8.60549 8.40095 8.72482C8.63484 8.84415 8.87351 8.93962 9.11695 9.00644C9.36038 9.07327 9.76134 9.17351 10.3246 9.30716C11.0263 9.4599 11.6659 9.62697 12.2387 9.81312C12.8115 9.99928 13.2983 10.2236 13.6993 10.4909C14.105 10.7582 14.4248 11.0924 14.6492 11.5029C14.8783 11.9134 14.9881 12.4098 14.9881 13.0017C14.9881 13.7081 14.7924 14.3477 14.3962 14.911H14.401Z" fill="#CEC1F1"/>
</svg>
