<svg width="307" height="213" viewBox="0 0 307 213" fill="none" xmlns="http://www.w3.org/2000/svg">
<path d="M107.3 68C107.3 62.6431 111.643 58.3004 117 58.3004H296C301.357 58.3004 305.7 62.6431 305.7 68V107.7H117C111.643 107.7 107.3 103.357 107.3 98V68Z" fill="url(#paint0_radial_2088_44)" stroke="url(#paint1_linear_2088_44)" stroke-width="0.60077"/>
<path d="M118.118 79V69.77H119.522V79H118.118ZM126.197 79L124.091 72.084H125.534L127.016 77.492L128.537 72.084H129.837L131.358 77.492L132.853 72.084H134.296L132.19 79H130.643L129.187 74.06L127.731 79H126.197ZM137.178 79.156C136.458 79.156 135.882 78.9913 135.449 78.662C135.024 78.3327 134.812 77.869 134.812 77.271C134.812 76.673 134.989 76.2093 135.345 75.88C135.709 75.542 136.268 75.2993 137.022 75.152L139.401 74.697C139.401 74.1597 139.275 73.761 139.024 73.501C138.772 73.2323 138.4 73.098 137.906 73.098C137.464 73.098 137.117 73.1977 136.866 73.397C136.614 73.5877 136.441 73.8737 136.346 74.255L134.929 74.164C135.059 73.4707 135.379 72.9247 135.891 72.526C136.411 72.1273 137.082 71.928 137.906 71.928C138.842 71.928 139.552 72.1793 140.038 72.682C140.532 73.176 140.779 73.8737 140.779 74.775V77.466C140.779 77.6307 140.805 77.7477 140.857 77.817C140.917 77.8777 141.013 77.908 141.143 77.908H141.39V79C141.346 79.0087 141.277 79.0173 141.182 79.026C141.086 79.0347 140.987 79.039 140.883 79.039C140.588 79.039 140.332 78.9913 140.116 78.896C139.908 78.8007 139.752 78.6447 139.648 78.428C139.544 78.2027 139.492 77.9037 139.492 77.531L139.635 77.596C139.565 77.8993 139.414 78.168 139.18 78.402C138.954 78.636 138.664 78.8223 138.309 78.961C137.962 79.091 137.585 79.156 137.178 79.156ZM137.399 78.064C137.815 78.064 138.17 77.986 138.465 77.83C138.759 77.6653 138.989 77.44 139.154 77.154C139.318 76.868 139.401 76.543 139.401 76.179V75.737L137.373 76.127C136.957 76.205 136.662 76.3307 136.489 76.504C136.324 76.6687 136.242 76.881 136.242 77.141C136.242 77.4357 136.341 77.6653 136.541 77.83C136.749 77.986 137.035 78.064 137.399 78.064ZM142.553 79V72.084H143.814L143.866 73.93L143.697 73.839C143.775 73.3883 143.922 73.0243 144.139 72.747C144.356 72.4697 144.62 72.266 144.932 72.136C145.244 71.9973 145.582 71.928 145.946 71.928C146.466 71.928 146.895 72.045 147.233 72.279C147.58 72.5043 147.84 72.8163 148.013 73.215C148.195 73.605 148.286 74.0513 148.286 74.554V79H146.908V74.97C146.908 74.5627 146.865 74.2203 146.778 73.943C146.691 73.6657 146.548 73.4533 146.349 73.306C146.15 73.1587 145.89 73.085 145.569 73.085C145.084 73.085 144.689 73.2453 144.386 73.566C144.083 73.8867 143.931 74.3547 143.931 74.97V79H142.553ZM152.391 79C151.732 79 151.247 78.8483 150.935 78.545C150.623 78.2417 150.467 77.7693 150.467 77.128V70.459H151.845V77.024C151.845 77.3447 151.914 77.5657 152.053 77.687C152.191 77.8083 152.404 77.869 152.69 77.869H153.678V79H152.391ZM149.414 73.215V72.084H153.678V73.215H149.414ZM160.884 79C160.225 79 159.74 78.8483 159.428 78.545C159.116 78.2417 158.96 77.7693 158.96 77.128V70.459H160.338V77.024C160.338 77.3447 160.407 77.5657 160.546 77.687C160.685 77.8083 160.897 77.869 161.183 77.869H162.171V79H160.884ZM157.907 73.215V72.084H162.171V73.215H157.907ZM166.22 79.156C165.562 79.156 164.985 79.0087 164.491 78.714C163.997 78.4193 163.616 77.999 163.347 77.453C163.079 76.907 162.944 76.27 162.944 75.542C162.944 74.8053 163.079 74.1683 163.347 73.631C163.616 73.0937 163.997 72.6777 164.491 72.383C164.985 72.0797 165.562 71.928 166.22 71.928C166.879 71.928 167.455 72.0797 167.949 72.383C168.443 72.6777 168.825 73.0937 169.093 73.631C169.362 74.1683 169.496 74.8053 169.496 75.542C169.496 76.27 169.362 76.907 169.093 77.453C168.825 77.999 168.443 78.4193 167.949 78.714C167.455 79.0087 166.879 79.156 166.22 79.156ZM166.22 77.96C166.81 77.96 167.265 77.7477 167.585 77.323C167.906 76.8897 168.066 76.296 168.066 75.542C168.066 74.788 167.906 74.1987 167.585 73.774C167.265 73.3407 166.81 73.124 166.22 73.124C165.64 73.124 165.185 73.3407 164.855 73.774C164.535 74.1987 164.374 74.788 164.374 75.542C164.374 76.296 164.535 76.8897 164.855 77.323C165.185 77.7477 165.64 77.96 166.22 77.96ZM177.024 79.156C176.365 79.156 175.789 79.0087 175.295 78.714C174.801 78.4193 174.42 77.999 174.151 77.453C173.882 76.907 173.748 76.27 173.748 75.542C173.748 74.814 173.882 74.1813 174.151 73.644C174.42 73.098 174.801 72.6777 175.295 72.383C175.789 72.0797 176.365 71.928 177.024 71.928C177.587 71.928 178.086 72.0277 178.519 72.227C178.961 72.4177 179.316 72.6993 179.585 73.072C179.862 73.4447 180.04 73.8997 180.118 74.437L178.675 74.515C178.606 74.0643 178.424 73.722 178.129 73.488C177.834 73.2453 177.466 73.124 177.024 73.124C176.443 73.124 175.988 73.3407 175.659 73.774C175.338 74.1987 175.178 74.788 175.178 75.542C175.178 76.296 175.338 76.8897 175.659 77.323C175.988 77.7477 176.443 77.96 177.024 77.96C177.466 77.96 177.834 77.8387 178.129 77.596C178.424 77.3447 178.606 76.9677 178.675 76.465L180.118 76.543C180.04 77.0717 179.862 77.531 179.585 77.921C179.316 78.311 178.961 78.6143 178.519 78.831C178.086 79.0477 177.587 79.156 177.024 79.156ZM181.375 79V69.77H182.753V73.644L182.584 73.618C182.662 73.228 182.805 72.9117 183.013 72.669C183.221 72.4177 183.477 72.2313 183.78 72.11C184.084 71.9887 184.417 71.928 184.781 71.928C185.284 71.928 185.709 72.0407 186.055 72.266C186.402 72.4827 186.662 72.7903 186.835 73.189C187.017 73.5877 187.108 74.0427 187.108 74.554V79H185.73V74.918C185.73 74.294 185.622 73.8347 185.405 73.54C185.197 73.2367 184.868 73.085 184.417 73.085C183.915 73.085 183.512 73.2453 183.208 73.566C182.905 73.878 182.753 74.3373 182.753 74.944V79H181.375ZM191.751 79.156C191.075 79.156 190.49 79.0087 189.996 78.714C189.51 78.4193 189.133 77.999 188.865 77.453C188.605 76.907 188.475 76.27 188.475 75.542C188.475 74.814 188.605 74.1813 188.865 73.644C189.133 73.098 189.51 72.6777 189.996 72.383C190.481 72.0797 191.053 71.928 191.712 71.928C192.336 71.928 192.886 72.0753 193.363 72.37C193.839 72.656 194.208 73.072 194.468 73.618C194.736 74.164 194.871 74.8227 194.871 75.594V75.945H189.905C189.939 76.621 190.117 77.128 190.438 77.466C190.767 77.804 191.209 77.973 191.764 77.973C192.171 77.973 192.509 77.8777 192.778 77.687C193.046 77.4963 193.233 77.2407 193.337 76.92L194.767 77.011C194.585 77.6523 194.225 78.1723 193.688 78.571C193.159 78.961 192.513 79.156 191.751 79.156ZM189.905 74.905H193.415C193.371 74.2897 193.194 73.8347 192.882 73.54C192.578 73.2453 192.188 73.098 191.712 73.098C191.218 73.098 190.81 73.254 190.49 73.566C190.178 73.8693 189.983 74.3157 189.905 74.905ZM199.114 79.156C198.455 79.156 197.879 79.0087 197.385 78.714C196.891 78.4193 196.51 77.999 196.241 77.453C195.972 76.907 195.838 76.27 195.838 75.542C195.838 74.814 195.972 74.1813 196.241 73.644C196.51 73.098 196.891 72.6777 197.385 72.383C197.879 72.0797 198.455 71.928 199.114 71.928C199.677 71.928 200.176 72.0277 200.609 72.227C201.051 72.4177 201.406 72.6993 201.675 73.072C201.952 73.4447 202.13 73.8997 202.208 74.437L200.765 74.515C200.696 74.0643 200.514 73.722 200.219 73.488C199.924 73.2453 199.556 73.124 199.114 73.124C198.533 73.124 198.078 73.3407 197.749 73.774C197.428 74.1987 197.268 74.788 197.268 75.542C197.268 76.296 197.428 76.8897 197.749 77.323C198.078 77.7477 198.533 77.96 199.114 77.96C199.556 77.96 199.924 77.8387 200.219 77.596C200.514 77.3447 200.696 76.9677 200.765 76.465L202.208 76.543C202.13 77.0717 201.952 77.531 201.675 77.921C201.406 78.311 201.051 78.6143 200.609 78.831C200.176 79.0477 199.677 79.156 199.114 79.156ZM203.465 79V69.77H204.843V75.503L207.95 72.084H209.692L206.988 74.996L209.796 79H208.21L206.065 75.854L204.843 77.154V79H203.465ZM217.395 79.156C216.737 79.156 216.16 79.0087 215.666 78.714C215.172 78.4193 214.791 77.999 214.522 77.453C214.254 76.907 214.119 76.27 214.119 75.542C214.119 74.8053 214.254 74.1683 214.522 73.631C214.791 73.0937 215.172 72.6777 215.666 72.383C216.16 72.0797 216.737 71.928 217.395 71.928C218.054 71.928 218.63 72.0797 219.124 72.383C219.618 72.6777 220 73.0937 220.268 73.631C220.537 74.1683 220.671 74.8053 220.671 75.542C220.671 76.27 220.537 76.907 220.268 77.453C220 77.999 219.618 78.4193 219.124 78.714C218.63 79.0087 218.054 79.156 217.395 79.156ZM217.395 77.96C217.985 77.96 218.44 77.7477 218.76 77.323C219.081 76.8897 219.241 76.296 219.241 75.542C219.241 74.788 219.081 74.1987 218.76 73.774C218.44 73.3407 217.985 73.124 217.395 73.124C216.815 73.124 216.36 73.3407 216.03 73.774C215.71 74.1987 215.549 74.788 215.549 75.542C215.549 76.296 215.71 76.8897 216.03 77.323C216.36 77.7477 216.815 77.96 217.395 77.96ZM222.064 79V72.084H223.325L223.377 73.93L223.208 73.839C223.286 73.3883 223.433 73.0243 223.65 72.747C223.867 72.4697 224.131 72.266 224.443 72.136C224.755 71.9973 225.093 71.928 225.457 71.928C225.977 71.928 226.406 72.045 226.744 72.279C227.091 72.5043 227.351 72.8163 227.524 73.215C227.706 73.605 227.797 74.0513 227.797 74.554V79H226.419V74.97C226.419 74.5627 226.376 74.2203 226.289 73.943C226.202 73.6657 226.059 73.4533 225.86 73.306C225.661 73.1587 225.401 73.085 225.08 73.085C224.595 73.085 224.2 73.2453 223.897 73.566C223.594 73.8867 223.442 74.3547 223.442 74.97V79H222.064ZM232.906 79V72.084H234.167L234.206 73.8L234.05 73.748C234.128 73.3667 234.262 73.0417 234.453 72.773C234.652 72.5043 234.895 72.2963 235.181 72.149C235.467 72.0017 235.779 71.928 236.117 71.928C236.706 71.928 237.187 72.097 237.56 72.435C237.932 72.7643 238.166 73.2193 238.262 73.8H238.041C238.119 73.3927 238.249 73.0547 238.431 72.786C238.621 72.5087 238.864 72.2963 239.159 72.149C239.453 72.0017 239.787 71.928 240.16 71.928C240.645 71.928 241.057 72.032 241.395 72.24C241.741 72.4393 242.001 72.734 242.175 73.124C242.357 73.514 242.448 73.9907 242.448 74.554V79H241.07V74.892C241.07 74.294 240.961 73.8433 240.745 73.54C240.528 73.2367 240.199 73.085 239.757 73.085C239.471 73.085 239.219 73.1587 239.003 73.306C238.786 73.4533 238.617 73.6657 238.496 73.943C238.383 74.2203 238.327 74.554 238.327 74.944V79H237.014V74.944C237.014 74.3547 236.914 73.8997 236.715 73.579C236.524 73.2497 236.195 73.085 235.727 73.085C235.432 73.085 235.176 73.1587 234.96 73.306C234.752 73.4533 234.587 73.67 234.466 73.956C234.344 74.2333 234.284 74.5627 234.284 74.944V79H232.906ZM244.366 80.95V79.819H245.211C245.445 79.819 245.618 79.7843 245.731 79.715C245.844 79.6457 245.93 79.5287 245.991 79.364L246.212 78.792H245.783L243.287 72.084H244.743L246.641 77.518L248.448 72.084H249.917L247.161 79.806C247.022 80.2047 246.814 80.495 246.537 80.677C246.268 80.859 245.891 80.95 245.406 80.95H244.366ZM254.323 80.95V72.084H255.623L255.662 73.566L255.506 73.488C255.679 72.9767 255.965 72.591 256.364 72.331C256.762 72.0623 257.222 71.928 257.742 71.928C258.418 71.928 258.972 72.097 259.406 72.435C259.848 72.7643 260.173 73.202 260.381 73.748C260.597 74.294 260.706 74.892 260.706 75.542C260.706 76.192 260.597 76.79 260.381 77.336C260.173 77.882 259.848 78.324 259.406 78.662C258.972 78.9913 258.418 79.156 257.742 79.156C257.395 79.156 257.07 79.0953 256.767 78.974C256.463 78.8527 256.203 78.6837 255.987 78.467C255.779 78.2417 255.631 77.9773 255.545 77.674L255.701 77.518V80.95H254.323ZM257.495 77.96C258.049 77.96 258.483 77.7477 258.795 77.323C259.115 76.8983 259.276 76.3047 259.276 75.542C259.276 74.7793 259.115 74.1857 258.795 73.761C258.483 73.3363 258.049 73.124 257.495 73.124C257.131 73.124 256.814 73.215 256.546 73.397C256.277 73.5703 256.069 73.839 255.922 74.203C255.774 74.567 255.701 75.0133 255.701 75.542C255.701 76.0707 255.77 76.517 255.909 76.881C256.056 77.245 256.264 77.518 256.533 77.7C256.81 77.8733 257.131 77.96 257.495 77.96ZM262.105 79V72.084H263.366L263.418 73.917L263.301 73.878C263.396 73.254 263.587 72.799 263.873 72.513C264.168 72.227 264.562 72.084 265.056 72.084H265.719V73.319H265.056C264.709 73.319 264.419 73.3753 264.185 73.488C263.951 73.6007 263.773 73.774 263.652 74.008C263.539 74.242 263.483 74.5453 263.483 74.918V79H262.105ZM269.548 79.156C268.889 79.156 268.313 79.0087 267.819 78.714C267.325 78.4193 266.943 77.999 266.675 77.453C266.406 76.907 266.272 76.27 266.272 75.542C266.272 74.8053 266.406 74.1683 266.675 73.631C266.943 73.0937 267.325 72.6777 267.819 72.383C268.313 72.0797 268.889 71.928 269.548 71.928C270.206 71.928 270.783 72.0797 271.277 72.383C271.771 72.6777 272.152 73.0937 272.421 73.631C272.689 74.1683 272.824 74.8053 272.824 75.542C272.824 76.27 272.689 76.907 272.421 77.453C272.152 77.999 271.771 78.4193 271.277 78.714C270.783 79.0087 270.206 79.156 269.548 79.156ZM269.548 77.96C270.137 77.96 270.592 77.7477 270.913 77.323C271.233 76.8897 271.394 76.296 271.394 75.542C271.394 74.788 271.233 74.1987 270.913 73.774C270.592 73.3407 270.137 73.124 269.548 73.124C268.967 73.124 268.512 73.3407 268.183 73.774C267.862 74.1987 267.702 74.788 267.702 75.542C267.702 76.296 267.862 76.8897 268.183 77.323C268.512 77.7477 268.967 77.96 269.548 77.96ZM276.673 79.156C276.084 79.156 275.568 79.0087 275.126 78.714C274.693 78.4193 274.359 78.0033 274.125 77.466C273.9 76.92 273.787 76.2787 273.787 75.542C273.787 74.8053 273.904 74.1683 274.138 73.631C274.372 73.085 274.706 72.6647 275.139 72.37C275.573 72.0753 276.084 71.928 276.673 71.928C277.15 71.928 277.575 72.0277 277.947 72.227C278.32 72.4263 278.602 72.7037 278.792 73.059V69.77H280.17V79H278.883L278.844 77.96C278.654 78.3327 278.363 78.6273 277.973 78.844C277.592 79.052 277.159 79.156 276.673 79.156ZM277.037 77.96C277.41 77.96 277.726 77.8647 277.986 77.674C278.246 77.4833 278.446 77.206 278.584 76.842C278.723 76.478 278.792 76.0447 278.792 75.542C278.792 75.022 278.723 74.5843 278.584 74.229C278.446 73.865 278.246 73.592 277.986 73.41C277.726 73.2193 277.41 73.124 277.037 73.124C276.483 73.124 276.041 73.3407 275.711 73.774C275.382 74.1987 275.217 74.788 275.217 75.542C275.217 76.2873 275.382 76.8767 275.711 77.31C276.041 77.7433 276.483 77.96 277.037 77.96ZM284.159 79.156C283.466 79.156 282.911 78.9263 282.495 78.467C282.088 77.999 281.884 77.3533 281.884 76.53V72.084H283.262V76.179C283.262 76.803 283.371 77.2623 283.587 77.557C283.804 77.8517 284.133 77.999 284.575 77.999C285.078 77.999 285.468 77.8387 285.745 77.518C286.031 77.1887 286.174 76.7293 286.174 76.14V72.084H287.552V79H286.265L286.239 77.193L286.434 77.271C286.313 77.8777 286.057 78.3457 285.667 78.675C285.277 78.9957 284.775 79.156 284.159 79.156ZM292.221 79.156C291.563 79.156 290.986 79.0087 290.492 78.714C289.998 78.4193 289.617 77.999 289.348 77.453C289.08 76.907 288.945 76.27 288.945 75.542C288.945 74.814 289.08 74.1813 289.348 73.644C289.617 73.098 289.998 72.6777 290.492 72.383C290.986 72.0797 291.563 71.928 292.221 71.928C292.785 71.928 293.283 72.0277 293.716 72.227C294.158 72.4177 294.514 72.6993 294.782 73.072C295.06 73.4447 295.237 73.8997 295.315 74.437L293.872 74.515C293.803 74.0643 293.621 73.722 293.326 73.488C293.032 73.2453 292.663 73.124 292.221 73.124C291.641 73.124 291.186 73.3407 290.856 73.774C290.536 74.1987 290.375 74.788 290.375 75.542C290.375 76.296 290.536 76.8897 290.856 77.323C291.186 77.7477 291.641 77.96 292.221 77.96C292.663 77.96 293.032 77.8387 293.326 77.596C293.621 77.3447 293.803 76.9677 293.872 76.465L295.315 76.543C295.237 77.0717 295.06 77.531 294.782 77.921C294.514 78.311 294.158 78.6143 293.716 78.831C293.283 79.0477 292.785 79.156 292.221 79.156ZM298.971 79C298.312 79 297.827 78.8483 297.515 78.545C297.203 78.2417 297.047 77.7693 297.047 77.128V70.459H298.425V77.024C298.425 77.3447 298.494 77.5657 298.633 77.687C298.771 77.8083 298.984 77.869 299.27 77.869H300.258V79H298.971ZM295.994 73.215V72.084H300.258V73.215H295.994ZM120.432 96.156C119.843 96.156 119.327 96.0087 118.885 95.714C118.452 95.4193 118.118 95.0033 117.884 94.466C117.659 93.92 117.546 93.2787 117.546 92.542C117.546 91.8053 117.663 91.1683 117.897 90.631C118.131 90.085 118.465 89.6647 118.898 89.37C119.331 89.0753 119.843 88.928 120.432 88.928C120.909 88.928 121.333 89.0277 121.706 89.227C122.079 89.4263 122.36 89.7037 122.551 90.059V86.77H123.929V96H122.642L122.603 94.96C122.412 95.3327 122.122 95.6273 121.732 95.844C121.351 96.052 120.917 96.156 120.432 96.156ZM120.796 94.96C121.169 94.96 121.485 94.8647 121.745 94.674C122.005 94.4833 122.204 94.206 122.343 93.842C122.482 93.478 122.551 93.0447 122.551 92.542C122.551 92.022 122.482 91.5843 122.343 91.229C122.204 90.865 122.005 90.592 121.745 90.41C121.485 90.2193 121.169 90.124 120.796 90.124C120.241 90.124 119.799 90.3407 119.47 90.774C119.141 91.1987 118.976 91.788 118.976 92.542C118.976 93.2873 119.141 93.8767 119.47 94.31C119.799 94.7433 120.241 94.96 120.796 94.96ZM128.604 96.156C127.928 96.156 127.343 96.0087 126.849 95.714C126.364 95.4193 125.987 94.999 125.718 94.453C125.458 93.907 125.328 93.27 125.328 92.542C125.328 91.814 125.458 91.1813 125.718 90.644C125.987 90.098 126.364 89.6777 126.849 89.383C127.335 89.0797 127.907 88.928 128.565 88.928C129.189 88.928 129.74 89.0753 130.216 89.37C130.693 89.656 131.061 90.072 131.321 90.618C131.59 91.164 131.724 91.8227 131.724 92.594V92.945H126.758C126.793 93.621 126.971 94.128 127.291 94.466C127.621 94.804 128.063 94.973 128.617 94.973C129.025 94.973 129.363 94.8777 129.631 94.687C129.9 94.4963 130.086 94.2407 130.19 93.92L131.62 94.011C131.438 94.6523 131.079 95.1723 130.541 95.571C130.013 95.961 129.367 96.156 128.604 96.156ZM126.758 91.905H130.268C130.225 91.2897 130.047 90.8347 129.735 90.54C129.432 90.2453 129.042 90.098 128.565 90.098C128.071 90.098 127.664 90.254 127.343 90.566C127.031 90.8693 126.836 91.3157 126.758 91.905ZM134.692 96C134.241 96 133.877 95.883 133.6 95.649C133.323 95.415 133.184 95.0423 133.184 94.531V86.77H134.562V94.401C134.562 94.557 134.601 94.674 134.679 94.752C134.766 94.83 134.887 94.869 135.043 94.869H135.589V96H134.692ZM136.751 96V89.084H138.129V96H136.751ZM136.725 88.083V86.705H138.155V88.083H136.725ZM141.784 96L139.262 89.084H140.731L142.616 94.596L144.501 89.084H145.983L143.448 96H141.784ZM149.717 96.156C149.041 96.156 148.456 96.0087 147.962 95.714C147.476 95.4193 147.099 94.999 146.831 94.453C146.571 93.907 146.441 93.27 146.441 92.542C146.441 91.814 146.571 91.1813 146.831 90.644C147.099 90.098 147.476 89.6777 147.962 89.383C148.447 89.0797 149.019 88.928 149.678 88.928C150.302 88.928 150.852 89.0753 151.329 89.37C151.805 89.656 152.174 90.072 152.434 90.618C152.702 91.164 152.837 91.8227 152.837 92.594V92.945H147.871C147.905 93.621 148.083 94.128 148.404 94.466C148.733 94.804 149.175 94.973 149.73 94.973C150.137 94.973 150.475 94.8777 150.744 94.687C151.012 94.4963 151.199 94.2407 151.303 93.92L152.733 94.011C152.551 94.6523 152.191 95.1723 151.654 95.571C151.125 95.961 150.479 96.156 149.717 96.156ZM147.871 91.905H151.381C151.337 91.2897 151.16 90.8347 150.848 90.54C150.544 90.2453 150.154 90.098 149.678 90.098C149.184 90.098 148.776 90.254 148.456 90.566C148.144 90.8693 147.949 91.3157 147.871 91.905ZM154.233 96V89.084H155.494L155.546 90.917L155.429 90.878C155.524 90.254 155.715 89.799 156.001 89.513C156.295 89.227 156.69 89.084 157.184 89.084H157.847V90.319H157.184C156.837 90.319 156.547 90.3753 156.313 90.488C156.079 90.6007 155.901 90.774 155.78 91.008C155.667 91.242 155.611 91.5453 155.611 91.918V96H154.233ZM159.422 97.95V96.819H160.267C160.501 96.819 160.674 96.7843 160.787 96.715C160.899 96.6457 160.986 96.5287 161.047 96.364L161.268 95.792H160.839L158.343 89.084H159.799L161.697 94.518L163.504 89.084H164.973L162.217 96.806C162.078 97.2047 161.87 97.495 161.593 97.677C161.324 97.859 160.947 97.95 160.462 97.95H159.422Z" fill="#CEC1F1" fill-opacity="0.7"/>
<path d="M147.982 188.033C147.641 182.687 151.698 178.076 157.044 177.735L294.763 168.936C300.109 168.594 304.72 172.651 305.061 177.997L306.636 202.647L159.237 212.064C153.891 212.406 149.28 208.349 148.939 203.003L147.982 188.033Z" fill="url(#paint2_radial_2088_44)" stroke="url(#paint3_linear_2088_44)" stroke-width="0.60077"/>
<path d="M160.816 198.236L160.396 191.671L158.45 191.796L158.378 190.667L159.169 190.616C159.515 190.594 159.794 190.533 160.004 190.433C160.215 190.324 160.36 190.158 160.442 189.936C160.522 189.705 160.55 189.395 160.525 189.006L161.628 188.935L162.217 198.146L160.816 198.236ZM165.567 197.932L165.147 191.368L163.201 191.492L163.129 190.363L163.92 190.313C164.266 190.291 164.545 190.229 164.755 190.129C164.966 190.02 165.111 189.855 165.193 189.632C165.273 189.401 165.301 189.091 165.276 188.702L166.379 188.632L166.968 197.843L165.567 197.932ZM170.318 197.629L169.898 191.064L167.952 191.188L167.88 190.06L168.671 190.009C169.017 189.987 169.296 189.926 169.506 189.826C169.717 189.717 169.862 189.551 169.944 189.329C170.024 189.098 170.052 188.788 170.028 188.398L171.13 188.328L171.719 197.539L170.318 197.629ZM175.069 197.325L174.649 190.761L172.703 190.885L172.631 189.756L173.423 189.706C173.769 189.684 174.047 189.622 174.258 189.522C174.468 189.413 174.613 189.247 174.695 189.025C174.776 188.794 174.803 188.484 174.779 188.095L175.881 188.024L176.47 197.236L175.069 197.325ZM178.102 193.94L178.025 192.733L182.371 192.456L182.448 193.662L178.102 193.94ZM187.568 196.735C186.807 196.784 186.133 196.631 185.546 196.278C184.959 195.925 184.491 195.399 184.143 194.7C183.794 194.002 183.588 193.159 183.525 192.173C183.462 191.188 183.559 190.326 183.816 189.589C184.081 188.842 184.478 188.257 185.007 187.832C185.543 187.398 186.192 187.157 186.953 187.109C187.723 187.059 188.398 187.216 188.976 187.579C189.564 187.932 190.031 188.458 190.38 189.156C190.737 189.854 190.948 190.701 191.011 191.695C191.074 192.681 190.977 193.543 190.72 194.28C190.463 195.017 190.066 195.598 189.529 196.024C188.992 196.449 188.338 196.686 187.568 196.735ZM187.486 195.451C188.222 195.404 188.769 195.065 189.128 194.434C189.487 193.803 189.63 192.921 189.558 191.788C189.509 191.027 189.377 190.388 189.162 189.872C188.955 189.356 188.671 188.975 188.307 188.729C187.952 188.473 187.528 188.361 187.035 188.393C186.551 188.424 186.145 188.589 185.817 188.888C185.496 189.177 185.262 189.592 185.114 190.131C184.975 190.67 184.93 191.32 184.978 192.081C185.051 193.214 185.305 194.07 185.742 194.65C186.178 195.23 186.76 195.497 187.486 195.451ZM195.804 196.209C195.008 196.26 194.352 196.111 193.835 195.761C193.317 195.412 192.943 194.928 192.713 194.309L194.121 194.128C194.243 194.407 194.435 194.62 194.696 194.769C194.965 194.908 195.308 194.964 195.723 194.937C196.449 194.891 196.98 194.57 197.316 193.976C197.66 193.381 197.795 192.443 197.722 191.162L197.986 191.211C197.804 191.769 197.502 192.205 197.079 192.519C196.665 192.832 196.164 193.007 195.576 193.045C194.97 193.084 194.43 192.988 193.955 192.758C193.48 192.519 193.097 192.17 192.807 191.711C192.517 191.252 192.352 190.706 192.312 190.075C192.268 189.392 192.369 188.799 192.615 188.297C192.86 187.786 193.221 187.381 193.697 187.082C194.173 186.782 194.735 186.611 195.384 186.57C196.179 186.519 196.839 186.655 197.364 186.978C197.897 187.3 198.305 187.777 198.589 188.41C198.88 189.034 199.055 189.796 199.112 190.696C199.162 191.474 199.143 192.192 199.054 192.849C198.966 193.506 198.79 194.077 198.526 194.563C198.27 195.048 197.917 195.435 197.467 195.725C197.024 196.005 196.47 196.166 195.804 196.209ZM195.693 191.826C196.083 191.801 196.419 191.701 196.703 191.527C196.988 191.352 197.203 191.117 197.349 190.821C197.494 190.517 197.554 190.157 197.527 189.742C197.502 189.344 197.402 188.999 197.227 188.706C197.06 188.404 196.828 188.176 196.531 188.021C196.234 187.857 195.887 187.788 195.489 187.814C195.1 187.839 194.768 187.947 194.494 188.138C194.228 188.329 194.027 188.585 193.892 188.906C193.764 189.218 193.713 189.573 193.738 189.971C193.764 190.377 193.864 190.723 194.039 191.007C194.213 191.291 194.44 191.507 194.718 191.654C195.005 191.792 195.33 191.849 195.693 191.826ZM202.663 195.562L202.243 188.998L200.297 189.122L200.225 187.993L201.017 187.943C201.363 187.921 201.641 187.859 201.852 187.759C202.062 187.65 202.208 187.484 202.289 187.262C202.37 187.031 202.398 186.721 202.373 186.332L203.475 186.261L204.064 195.473L202.663 195.562ZM209.481 195.335C208.755 195.381 208.13 195.261 207.608 194.973C207.086 194.676 206.675 194.229 206.376 193.631C206.077 193.025 205.899 192.281 205.843 191.399C205.794 190.629 205.813 189.911 205.901 189.246C205.996 188.571 206.176 187.978 206.438 187.466C206.7 186.946 207.056 186.532 207.505 186.225C207.963 185.91 208.529 185.73 209.203 185.687C210.051 185.633 210.726 185.798 211.228 186.183C211.73 186.559 212.093 187.083 212.319 187.755L210.938 187.96C210.813 187.629 210.622 187.372 210.368 187.189C210.121 187.005 209.76 186.928 209.285 186.958C208.575 187.004 208.037 187.342 207.669 187.974C207.301 188.605 207.144 189.544 207.198 190.791L206.948 190.755C207.024 190.455 207.167 190.177 207.377 189.92C207.585 189.655 207.854 189.438 208.182 189.269C208.518 189.092 208.906 188.989 209.347 188.961C209.962 188.921 210.506 189.017 210.981 189.247C211.464 189.468 211.846 189.804 212.127 190.255C212.416 190.705 212.58 191.242 212.62 191.865C212.663 192.539 212.558 193.132 212.304 193.644C212.05 194.146 211.68 194.543 211.195 194.835C210.71 195.126 210.138 195.293 209.481 195.335ZM209.415 194.089C209.977 194.053 210.419 193.846 210.743 193.47C211.074 193.084 211.22 192.579 211.18 191.957C211.155 191.568 211.056 191.235 210.882 190.96C210.716 190.675 210.49 190.464 210.203 190.326C209.925 190.187 209.609 190.129 209.254 190.152C208.865 190.177 208.524 190.277 208.231 190.452C207.938 190.627 207.715 190.867 207.561 191.172C207.406 191.468 207.341 191.811 207.366 192.2C207.391 192.59 207.491 192.931 207.666 193.223C207.841 193.516 208.077 193.74 208.373 193.895C208.678 194.049 209.025 194.114 209.415 194.089ZM215.822 194.721C215.761 193.77 215.826 192.824 216.018 191.882C216.218 190.931 216.524 190.013 216.936 189.127C217.357 188.232 217.871 187.387 218.481 186.592L213.33 186.921L213.248 185.637L219.878 185.213L219.954 186.407C219.28 187.284 218.728 188.153 218.297 189.014C217.874 189.866 217.574 190.754 217.399 191.677C217.231 192.591 217.181 193.575 217.249 194.63L215.822 194.721ZM224.621 194.368C223.938 194.411 223.347 194.34 222.849 194.155C222.35 193.961 221.95 193.674 221.648 193.294C221.345 192.914 221.156 192.466 221.08 191.95L222.514 191.767C222.614 192.247 222.841 192.597 223.193 192.818C223.554 193.029 224.003 193.118 224.539 193.083C225.145 193.045 225.609 192.846 225.934 192.486C226.267 192.126 226.414 191.643 226.375 191.038C226.35 190.64 226.246 190.304 226.063 190.029C225.889 189.745 225.65 189.534 225.346 189.397C225.041 189.252 224.686 189.192 224.279 189.218C223.873 189.244 223.515 189.354 223.206 189.547C222.897 189.74 222.683 189.993 222.564 190.305L221.111 190.397L221.399 185.116L226.796 184.771L226.878 186.056L222.726 186.321L222.538 189.499L222.305 189.318C222.436 189.049 222.608 188.825 222.823 188.647C223.037 188.459 223.288 188.313 223.576 188.208C223.873 188.093 224.19 188.025 224.527 188.004C225.15 187.964 225.699 188.063 226.175 188.302C226.659 188.541 227.046 188.889 227.336 189.348C227.626 189.807 227.79 190.34 227.828 190.945C227.869 191.577 227.762 192.144 227.507 192.646C227.253 193.149 226.879 193.55 226.386 193.851C225.893 194.152 225.304 194.324 224.621 194.368ZM233.788 193.574L233.666 191.653L229.021 191.95L228.945 190.757L233.031 184.373L234.601 184.273L234.986 190.293L236.114 190.22L236.195 191.492L235.067 191.564L235.189 193.484L233.788 193.574ZM230.536 190.577L233.584 190.382L233.324 186.308L230.536 190.577ZM237.155 190.167L237.078 188.96L241.424 188.683L241.501 189.889L237.155 190.167ZM244.434 192.893L244.015 186.329L242.069 186.453L241.997 185.324L242.788 185.274C243.134 185.252 243.412 185.19 243.623 185.09C243.833 184.981 243.979 184.816 244.06 184.593C244.141 184.362 244.169 184.052 244.144 183.663L245.247 183.593L245.835 192.804L244.434 192.893ZM247.891 192.672C247.847 191.981 247.911 191.355 248.084 190.797C248.257 190.239 248.579 189.711 249.051 189.211C249.523 188.712 250.185 188.201 251.037 187.678C251.447 187.434 251.772 187.214 252.011 187.016C252.258 186.809 252.432 186.603 252.532 186.397C252.631 186.191 252.672 185.945 252.654 185.66C252.635 185.365 252.554 185.119 252.411 184.919C252.276 184.711 252.084 184.554 251.834 184.448C251.584 184.334 251.272 184.289 250.9 184.313C250.312 184.35 249.856 184.54 249.53 184.882C249.213 185.215 249.029 185.678 248.98 186.272L247.522 186.274C247.566 185.342 247.87 184.584 248.432 184.001C249.002 183.418 249.798 183.093 250.818 183.028C251.476 182.986 252.041 183.067 252.514 183.272C252.996 183.467 253.371 183.76 253.639 184.151C253.916 184.541 254.071 185.004 254.105 185.541C254.135 186.008 254.083 186.415 253.949 186.762C253.815 187.109 253.575 187.442 253.231 187.759C252.886 188.068 252.413 188.406 251.811 188.775C251.042 189.249 250.468 189.707 250.088 190.148C249.707 190.581 249.514 190.958 249.509 191.279L254.452 190.964L254.534 192.248L247.891 192.672ZM259.45 192.142C258.766 192.186 258.176 192.115 257.677 191.93C257.179 191.736 256.778 191.449 256.476 191.069C256.174 190.689 255.985 190.24 255.908 189.724L257.342 189.541C257.443 190.021 257.669 190.372 258.022 190.592C258.383 190.804 258.831 190.892 259.368 190.858C259.973 190.819 260.438 190.62 260.762 190.261C261.095 189.901 261.243 189.418 261.204 188.813C261.178 188.415 261.074 188.079 260.892 187.804C260.717 187.52 260.478 187.309 260.174 187.172C259.87 187.027 259.514 186.967 259.108 186.993C258.701 187.019 258.343 187.128 258.034 187.322C257.725 187.515 257.511 187.768 257.392 188.079L255.939 188.172L256.227 182.891L261.624 182.546L261.706 183.831L257.555 184.096L257.367 187.273L257.134 187.093C257.264 186.824 257.437 186.6 257.651 186.421C257.865 186.234 258.116 186.088 258.405 185.983C258.701 185.868 259.018 185.8 259.356 185.778C259.978 185.739 260.527 185.838 261.003 186.077C261.487 186.315 261.874 186.664 262.164 187.123C262.454 187.582 262.618 188.115 262.657 188.72C262.697 189.351 262.59 189.918 262.336 190.421C262.081 190.923 261.707 191.325 261.214 191.626C260.721 191.927 260.133 192.099 259.45 192.142ZM267.761 191.611C267.034 191.658 266.41 191.537 265.888 191.249C265.365 190.952 264.955 190.505 264.656 189.908C264.357 189.302 264.179 188.558 264.122 187.675C264.073 186.906 264.092 186.188 264.18 185.522C264.276 184.847 264.455 184.254 264.718 183.742C264.98 183.222 265.336 182.808 265.785 182.502C266.242 182.186 266.808 182.007 267.483 181.963C268.331 181.909 269.006 182.075 269.508 182.459C270.009 182.835 270.373 183.359 270.598 184.031L269.217 184.237C269.092 183.906 268.902 183.649 268.647 183.465C268.401 183.281 268.04 183.204 267.564 183.235C266.855 183.28 266.317 183.619 265.949 184.25C265.581 184.881 265.424 185.821 265.477 187.068L265.228 187.032C265.304 186.731 265.447 186.453 265.656 186.197C265.865 185.931 266.133 185.714 266.461 185.546C266.797 185.368 267.186 185.265 267.627 185.237C268.241 185.198 268.786 185.293 269.261 185.523C269.744 185.744 270.126 186.08 270.406 186.531C270.696 186.982 270.86 187.518 270.9 188.141C270.943 188.816 270.838 189.409 270.584 189.92C270.329 190.423 269.959 190.82 269.474 191.111C268.989 191.403 268.418 191.569 267.761 191.611ZM267.694 190.365C268.256 190.329 268.699 190.123 269.022 189.746C269.354 189.36 269.5 188.856 269.46 188.233C269.435 187.844 269.336 187.512 269.162 187.236C268.996 186.952 268.77 186.74 268.483 186.602C268.205 186.464 267.888 186.406 267.534 186.428C267.145 186.453 266.804 186.553 266.511 186.728C266.218 186.903 265.995 187.143 265.84 187.448C265.686 187.745 265.621 188.088 265.646 188.477C265.67 188.866 265.77 189.207 265.945 189.5C266.12 189.793 266.356 190.016 266.653 190.171C266.958 190.325 267.305 190.39 267.694 190.365ZM274.101 190.998C274.04 190.046 274.106 189.1 274.298 188.159C274.497 187.208 274.803 186.29 275.216 185.403C275.636 184.508 276.151 183.663 276.76 182.869L271.61 183.198L271.528 181.913L278.157 181.49L278.233 182.683C277.56 183.56 277.008 184.429 276.576 185.29C276.153 186.143 275.854 187.03 275.678 187.953C275.511 188.867 275.461 189.852 275.528 190.907L274.101 190.998ZM283.008 190.637C282.247 190.686 281.572 190.534 280.985 190.18C280.398 189.827 279.93 189.301 279.582 188.603C279.233 187.904 279.028 187.062 278.965 186.076C278.902 185.09 278.998 184.228 279.255 183.491C279.52 182.745 279.917 182.159 280.446 181.734C280.983 181.301 281.631 181.06 282.393 181.011C283.162 180.962 283.837 181.118 284.416 181.481C285.003 181.834 285.471 182.36 285.819 183.059C286.176 183.757 286.387 184.603 286.45 185.597C286.513 186.583 286.416 187.445 286.16 188.182C285.903 188.92 285.506 189.501 284.968 189.926C284.431 190.351 283.777 190.588 283.008 190.637ZM282.926 189.353C283.661 189.306 284.208 188.967 284.567 188.336C284.926 187.705 285.07 186.823 284.997 185.69C284.949 184.929 284.817 184.291 284.601 183.775C284.395 183.258 284.11 182.877 283.747 182.631C283.392 182.376 282.968 182.264 282.475 182.295C281.99 182.326 281.584 182.491 281.256 182.79C280.936 183.08 280.701 183.494 280.554 184.033C280.414 184.572 280.369 185.222 280.418 185.983C280.49 187.116 280.744 187.972 281.181 188.552C281.618 189.133 282.199 189.399 282.926 189.353ZM291.243 190.111C290.448 190.162 289.791 190.013 289.274 189.664C288.756 189.315 288.382 188.831 288.152 188.211L289.56 188.03C289.682 188.309 289.874 188.522 290.135 188.671C290.405 188.81 290.747 188.866 291.162 188.84C291.889 188.793 292.42 188.473 292.755 187.878C293.099 187.283 293.235 186.345 293.161 185.065L293.425 185.113C293.244 185.671 292.941 186.108 292.519 186.421C292.104 186.734 291.603 186.91 291.015 186.947C290.41 186.986 289.869 186.89 289.394 186.66C288.919 186.421 288.536 186.072 288.246 185.613C287.957 185.154 287.791 184.609 287.751 183.977C287.707 183.294 287.809 182.701 288.054 182.199C288.3 181.689 288.66 181.283 289.136 180.984C289.612 180.684 290.174 180.514 290.823 180.472C291.619 180.421 292.279 180.557 292.803 180.88C293.336 181.202 293.744 181.679 294.028 182.313C294.319 182.937 294.494 183.698 294.551 184.598C294.601 185.376 294.582 186.094 294.494 186.751C294.405 187.408 294.229 187.979 293.965 188.465C293.709 188.95 293.356 189.338 292.906 189.627C292.463 189.907 291.909 190.069 291.243 190.111ZM291.133 185.728C291.522 185.703 291.858 185.604 292.143 185.429C292.427 185.255 292.642 185.02 292.788 184.724C292.933 184.419 292.993 184.059 292.966 183.644C292.941 183.246 292.841 182.901 292.666 182.608C292.499 182.306 292.267 182.078 291.971 181.923C291.674 181.76 291.326 181.691 290.928 181.716C290.539 181.741 290.207 181.849 289.933 182.04C289.667 182.231 289.467 182.487 289.331 182.808C289.203 183.12 289.152 183.475 289.177 183.873C289.203 184.28 289.304 184.625 289.478 184.909C289.652 185.193 289.879 185.409 290.158 185.556C290.444 185.694 290.769 185.751 291.133 185.728Z" fill="#CEC1F1" fill-opacity="0.7"/>
<path d="M267 16C267 10.3995 267 7.59921 265.91 5.46009C264.951 3.57847 263.422 2.04867 261.54 1.08993C259.401 0 256.601 0 251 0H40C34.3995 0 31.5992 0 29.4601 1.08993C27.5785 2.04867 26.0487 3.57847 25.0899 5.46009C24 7.59921 24 10.3995 24 16V50H251C256.601 50 259.401 50 261.54 48.9101C263.422 47.9513 264.951 46.4215 265.91 44.5399C267 42.4008 267 39.6005 267 34V16Z" fill="url(#paint4_linear_2088_44)"/>
<path d="M35.118 21V11.77H36.522V16.216L35.846 15.722H41.462L40.786 16.216V11.77H42.19V21H40.786V16.502L41.462 16.996H35.846L36.522 16.502V21H35.118ZM44.0521 21V14.084H45.4301V21H44.0521ZM44.0261 13.083V11.705H45.4561V13.083H44.0261ZM47.4693 18.244C47.4347 17.9407 47.4 17.581 47.3653 17.165C47.3307 16.7403 47.296 16.3113 47.2613 15.878C47.2353 15.436 47.2223 15.0417 47.2223 14.695V11.77H48.6263V14.695C48.6263 15.0417 48.6133 15.436 48.5873 15.878C48.5613 16.3113 48.5267 16.7403 48.4833 17.165C48.4487 17.581 48.4183 17.9407 48.3923 18.244H47.4693ZM47.0403 21V19.362H48.7303V21H47.0403ZM53.6405 21V11.77H55.0445V21H53.6405ZM56.803 15.449L57.453 13.408H56.738V11.77H58.415V13.213L57.596 15.449H56.803ZM59.9721 21V14.084H61.2331L61.2721 15.8L61.1161 15.748C61.1941 15.3667 61.3284 15.0417 61.5191 14.773C61.7184 14.5043 61.9611 14.2963 62.2471 14.149C62.5331 14.0017 62.8451 13.928 63.1831 13.928C63.7724 13.928 64.2534 14.097 64.6261 14.435C64.9987 14.7643 65.2327 15.2193 65.3281 15.8H65.1071C65.1851 15.3927 65.3151 15.0547 65.4971 14.786C65.6877 14.5087 65.9304 14.2963 66.2251 14.149C66.5197 14.0017 66.8534 13.928 67.2261 13.928C67.7114 13.928 68.1231 14.032 68.4611 14.24C68.8077 14.4393 69.0677 14.734 69.2411 15.124C69.4231 15.514 69.5141 15.9907 69.5141 16.554V21H68.1361V16.892C68.1361 16.294 68.0277 15.8433 67.8111 15.54C67.5944 15.2367 67.2651 15.085 66.8231 15.085C66.5371 15.085 66.2857 15.1587 66.0691 15.306C65.8524 15.4533 65.6834 15.6657 65.5621 15.943C65.4494 16.2203 65.3931 16.554 65.3931 16.944V21H64.0801V16.944C64.0801 16.3547 63.9804 15.8997 63.7811 15.579C63.5904 15.2497 63.2611 15.085 62.7931 15.085C62.4984 15.085 62.2427 15.1587 62.0261 15.306C61.8181 15.4533 61.6534 15.67 61.5321 15.956C61.4107 16.2333 61.3501 16.5627 61.3501 16.944V21H59.9721ZM74.4012 21V19.765L78.5742 15.215H74.5312V14.084H80.1602V15.319L75.9482 19.869H80.2642V21H74.4012ZM84.4265 21.156C83.7678 21.156 83.1915 21.0087 82.6975 20.714C82.2035 20.4193 81.8222 19.999 81.5535 19.453C81.2848 18.907 81.1505 18.27 81.1505 17.542C81.1505 16.8053 81.2848 16.1683 81.5535 15.631C81.8222 15.0937 82.2035 14.6777 82.6975 14.383C83.1915 14.0797 83.7678 13.928 84.4265 13.928C85.0852 13.928 85.6615 14.0797 86.1555 14.383C86.6495 14.6777 87.0308 15.0937 87.2995 15.631C87.5682 16.1683 87.7025 16.8053 87.7025 17.542C87.7025 18.27 87.5682 18.907 87.2995 19.453C87.0308 19.999 86.6495 20.4193 86.1555 20.714C85.6615 21.0087 85.0852 21.156 84.4265 21.156ZM84.4265 19.96C85.0158 19.96 85.4708 19.7477 85.7915 19.323C86.1122 18.8897 86.2725 18.296 86.2725 17.542C86.2725 16.788 86.1122 16.1987 85.7915 15.774C85.4708 15.3407 85.0158 15.124 84.4265 15.124C83.8458 15.124 83.3908 15.3407 83.0615 15.774C82.7408 16.1987 82.5805 16.788 82.5805 17.542C82.5805 18.296 82.7408 18.8897 83.0615 19.323C83.3908 19.7477 83.8458 19.96 84.4265 19.96ZM89.0951 21V14.084H90.3561L90.4081 15.93L90.2391 15.839C90.3171 15.3883 90.4645 15.0243 90.6811 14.747C90.8978 14.4697 91.1621 14.266 91.4741 14.136C91.7861 13.9973 92.1241 13.928 92.4881 13.928C93.0081 13.928 93.4371 14.045 93.7751 14.279C94.1218 14.5043 94.3818 14.8163 94.5551 15.215C94.7371 15.605 94.8281 16.0513 94.8281 16.554V21H93.4501V16.97C93.4501 16.5627 93.4068 16.2203 93.3201 15.943C93.2335 15.6657 93.0905 15.4533 92.8911 15.306C92.6918 15.1587 92.4318 15.085 92.1111 15.085C91.6258 15.085 91.2315 15.2453 90.9281 15.566C90.6248 15.8867 90.4731 16.3547 90.4731 16.97V21H89.0951ZM96.4118 23.041L97.0618 21H96.3468V19.362H98.0238V20.805L97.2048 23.041H96.4118ZM103.094 22.95V21.819H103.939C104.173 21.819 104.347 21.7843 104.459 21.715C104.572 21.6457 104.659 21.5287 104.719 21.364L104.94 20.792H104.511L102.015 14.084H103.471L105.369 19.518L107.176 14.084H108.645L105.889 21.806C105.751 22.2047 105.543 22.495 105.265 22.677C104.997 22.859 104.62 22.95 104.134 22.95H103.094ZM112.382 21.156C111.723 21.156 111.147 21.0087 110.653 20.714C110.159 20.4193 109.777 19.999 109.509 19.453C109.24 18.907 109.106 18.27 109.106 17.542C109.106 16.8053 109.24 16.1683 109.509 15.631C109.777 15.0937 110.159 14.6777 110.653 14.383C111.147 14.0797 111.723 13.928 112.382 13.928C113.04 13.928 113.617 14.0797 114.111 14.383C114.605 14.6777 114.986 15.0937 115.255 15.631C115.523 16.1683 115.658 16.8053 115.658 17.542C115.658 18.27 115.523 18.907 115.255 19.453C114.986 19.999 114.605 20.4193 114.111 20.714C113.617 21.0087 113.04 21.156 112.382 21.156ZM112.382 19.96C112.971 19.96 113.426 19.7477 113.747 19.323C114.067 18.8897 114.228 18.296 114.228 17.542C114.228 16.788 114.067 16.1987 113.747 15.774C113.426 15.3407 112.971 15.124 112.382 15.124C111.801 15.124 111.346 15.3407 111.017 15.774C110.696 16.1987 110.536 16.788 110.536 17.542C110.536 18.296 110.696 18.8897 111.017 19.323C111.346 19.7477 111.801 19.96 112.382 19.96ZM119.325 21.156C118.632 21.156 118.077 20.9263 117.661 20.467C117.254 19.999 117.05 19.3533 117.05 18.53V14.084H118.428V18.179C118.428 18.803 118.537 19.2623 118.753 19.557C118.97 19.8517 119.299 19.999 119.741 19.999C120.244 19.999 120.634 19.8387 120.911 19.518C121.197 19.1887 121.34 18.7293 121.34 18.14V14.084H122.718V21H121.431L121.405 19.193L121.6 19.271C121.479 19.8777 121.223 20.3457 120.833 20.675C120.443 20.9957 119.941 21.156 119.325 21.156ZM124.667 21V14.084H125.928L125.98 15.917L125.863 15.878C125.959 15.254 126.149 14.799 126.435 14.513C126.73 14.227 127.124 14.084 127.618 14.084H128.281V15.319H127.618C127.272 15.319 126.981 15.3753 126.747 15.488C126.513 15.6007 126.336 15.774 126.214 16.008C126.102 16.242 126.045 16.5453 126.045 16.918V21H124.667ZM135.61 21.156C134.96 21.156 134.409 21.0563 133.959 20.857C133.517 20.6577 133.174 20.3847 132.932 20.038C132.689 19.6827 132.55 19.2753 132.516 18.816L133.933 18.751C134.002 19.1323 134.167 19.4357 134.427 19.661C134.687 19.8863 135.081 19.999 135.61 19.999C136.043 19.999 136.385 19.9297 136.637 19.791C136.888 19.6523 137.014 19.4313 137.014 19.128C137.014 18.9633 136.97 18.8247 136.884 18.712C136.806 18.5907 136.65 18.491 136.416 18.413C136.182 18.3263 135.835 18.244 135.376 18.166C134.691 18.036 134.154 17.8843 133.764 17.711C133.374 17.5377 133.096 17.3167 132.932 17.048C132.767 16.7793 132.685 16.4543 132.685 16.073C132.685 15.4403 132.919 14.9247 133.387 14.526C133.863 14.1273 134.548 13.928 135.441 13.928C136.039 13.928 136.541 14.032 136.949 14.24C137.356 14.4393 137.672 14.7123 137.898 15.059C138.132 15.397 138.279 15.7783 138.34 16.203L136.923 16.281C136.879 16.0383 136.793 15.8303 136.663 15.657C136.541 15.475 136.377 15.3363 136.169 15.241C135.961 15.137 135.714 15.085 135.428 15.085C134.986 15.085 134.656 15.1717 134.44 15.345C134.223 15.5183 134.115 15.7437 134.115 16.021C134.115 16.229 134.162 16.398 134.258 16.528C134.362 16.658 134.526 16.7663 134.752 16.853C134.977 16.931 135.276 17.0003 135.649 17.061C136.368 17.1823 136.931 17.334 137.339 17.516C137.746 17.6893 138.032 17.906 138.197 18.166C138.361 18.426 138.444 18.7423 138.444 19.115C138.444 19.5483 138.322 19.9167 138.08 20.22C137.837 20.5233 137.503 20.7573 137.079 20.922C136.654 21.078 136.164 21.156 135.61 21.156ZM141.915 21.156C141.196 21.156 140.619 20.9913 140.186 20.662C139.761 20.3327 139.549 19.869 139.549 19.271C139.549 18.673 139.727 18.2093 140.082 17.88C140.446 17.542 141.005 17.2993 141.759 17.152L144.138 16.697C144.138 16.1597 144.012 15.761 143.761 15.501C143.51 15.2323 143.137 15.098 142.643 15.098C142.201 15.098 141.854 15.1977 141.603 15.397C141.352 15.5877 141.178 15.8737 141.083 16.255L139.666 16.164C139.796 15.4707 140.117 14.9247 140.628 14.526C141.148 14.1273 141.82 13.928 142.643 13.928C143.579 13.928 144.29 14.1793 144.775 14.682C145.269 15.176 145.516 15.8737 145.516 16.775V19.466C145.516 19.6307 145.542 19.7477 145.594 19.817C145.655 19.8777 145.75 19.908 145.88 19.908H146.127V21C146.084 21.0087 146.014 21.0173 145.919 21.026C145.824 21.0347 145.724 21.039 145.62 21.039C145.325 21.039 145.07 20.9913 144.853 20.896C144.645 20.8007 144.489 20.6447 144.385 20.428C144.281 20.2027 144.229 19.9037 144.229 19.531L144.372 19.596C144.303 19.8993 144.151 20.168 143.917 20.402C143.692 20.636 143.401 20.8223 143.046 20.961C142.699 21.091 142.322 21.156 141.915 21.156ZM142.136 20.064C142.552 20.064 142.907 19.986 143.202 19.83C143.497 19.6653 143.726 19.44 143.891 19.154C144.056 18.868 144.138 18.543 144.138 18.179V17.737L142.11 18.127C141.694 18.205 141.399 18.3307 141.226 18.504C141.061 18.6687 140.979 18.881 140.979 19.141C140.979 19.4357 141.079 19.6653 141.278 19.83C141.486 19.986 141.772 20.064 142.136 20.064ZM148.71 21C148.259 21 147.895 20.883 147.618 20.649C147.34 20.415 147.202 20.0423 147.202 19.531V11.77H148.58V19.401C148.58 19.557 148.619 19.674 148.697 19.752C148.783 19.83 148.905 19.869 149.061 19.869H149.607V21H148.71ZM153.629 21.156C152.953 21.156 152.368 21.0087 151.874 20.714C151.388 20.4193 151.011 19.999 150.743 19.453C150.483 18.907 150.353 18.27 150.353 17.542C150.353 16.814 150.483 16.1813 150.743 15.644C151.011 15.098 151.388 14.6777 151.874 14.383C152.359 14.0797 152.931 13.928 153.59 13.928C154.214 13.928 154.764 14.0753 155.241 14.37C155.717 14.656 156.086 15.072 156.346 15.618C156.614 16.164 156.749 16.8227 156.749 17.594V17.945H151.783C151.817 18.621 151.995 19.128 152.316 19.466C152.645 19.804 153.087 19.973 153.642 19.973C154.049 19.973 154.387 19.8777 154.656 19.687C154.924 19.4963 155.111 19.2407 155.215 18.92L156.645 19.011C156.463 19.6523 156.103 20.1723 155.566 20.571C155.037 20.961 154.391 21.156 153.629 21.156ZM151.783 16.905H155.293C155.249 16.2897 155.072 15.8347 154.76 15.54C154.456 15.2453 154.066 15.098 153.59 15.098C153.096 15.098 152.688 15.254 152.368 15.566C152.056 15.8693 151.861 16.3157 151.783 16.905ZM160.81 21.156C160.16 21.156 159.61 21.0563 159.159 20.857C158.717 20.6577 158.375 20.3847 158.132 20.038C157.889 19.6827 157.751 19.2753 157.716 18.816L159.133 18.751C159.202 19.1323 159.367 19.4357 159.627 19.661C159.887 19.8863 160.281 19.999 160.81 19.999C161.243 19.999 161.586 19.9297 161.837 19.791C162.088 19.6523 162.214 19.4313 162.214 19.128C162.214 18.9633 162.171 18.8247 162.084 18.712C162.006 18.5907 161.85 18.491 161.616 18.413C161.382 18.3263 161.035 18.244 160.576 18.166C159.891 18.036 159.354 17.8843 158.964 17.711C158.574 17.5377 158.297 17.3167 158.132 17.048C157.967 16.7793 157.885 16.4543 157.885 16.073C157.885 15.4403 158.119 14.9247 158.587 14.526C159.064 14.1273 159.748 13.928 160.641 13.928C161.239 13.928 161.742 14.032 162.149 14.24C162.556 14.4393 162.873 14.7123 163.098 15.059C163.332 15.397 163.479 15.7783 163.54 16.203L162.123 16.281C162.08 16.0383 161.993 15.8303 161.863 15.657C161.742 15.475 161.577 15.3363 161.369 15.241C161.161 15.137 160.914 15.085 160.628 15.085C160.186 15.085 159.857 15.1717 159.64 15.345C159.423 15.5183 159.315 15.7437 159.315 16.021C159.315 16.229 159.363 16.398 159.458 16.528C159.562 16.658 159.727 16.7663 159.952 16.853C160.177 16.931 160.476 17.0003 160.849 17.061C161.568 17.1823 162.132 17.334 162.539 17.516C162.946 17.6893 163.232 17.906 163.397 18.166C163.562 18.426 163.644 18.7423 163.644 19.115C163.644 19.5483 163.523 19.9167 163.28 20.22C163.037 20.5233 162.704 20.7573 162.279 20.922C161.854 21.078 161.365 21.156 160.81 21.156ZM171.174 21.156C170.515 21.156 169.939 21.0087 169.445 20.714C168.951 20.4193 168.569 19.999 168.301 19.453C168.032 18.907 167.898 18.27 167.898 17.542C167.898 16.814 168.032 16.1813 168.301 15.644C168.569 15.098 168.951 14.6777 169.445 14.383C169.939 14.0797 170.515 13.928 171.174 13.928C171.737 13.928 172.235 14.0277 172.669 14.227C173.111 14.4177 173.466 14.6993 173.735 15.072C174.012 15.4447 174.19 15.8997 174.268 16.437L172.825 16.515C172.755 16.0643 172.573 15.722 172.279 15.488C171.984 15.2453 171.616 15.124 171.174 15.124C170.593 15.124 170.138 15.3407 169.809 15.774C169.488 16.1987 169.328 16.788 169.328 17.542C169.328 18.296 169.488 18.8897 169.809 19.323C170.138 19.7477 170.593 19.96 171.174 19.96C171.616 19.96 171.984 19.8387 172.279 19.596C172.573 19.3447 172.755 18.9677 172.825 18.465L174.268 18.543C174.19 19.0717 174.012 19.531 173.735 19.921C173.466 20.311 173.111 20.6143 172.669 20.831C172.235 21.0477 171.737 21.156 171.174 21.156ZM178.372 21.156C177.713 21.156 177.137 21.0087 176.643 20.714C176.149 20.4193 175.767 19.999 175.499 19.453C175.23 18.907 175.096 18.27 175.096 17.542C175.096 16.8053 175.23 16.1683 175.499 15.631C175.767 15.0937 176.149 14.6777 176.643 14.383C177.137 14.0797 177.713 13.928 178.372 13.928C179.03 13.928 179.607 14.0797 180.101 14.383C180.595 14.6777 180.976 15.0937 181.245 15.631C181.513 16.1683 181.648 16.8053 181.648 17.542C181.648 18.27 181.513 18.907 181.245 19.453C180.976 19.999 180.595 20.4193 180.101 20.714C179.607 21.0087 179.03 21.156 178.372 21.156ZM178.372 19.96C178.961 19.96 179.416 19.7477 179.737 19.323C180.057 18.8897 180.218 18.296 180.218 17.542C180.218 16.788 180.057 16.1987 179.737 15.774C179.416 15.3407 178.961 15.124 178.372 15.124C177.791 15.124 177.336 15.3407 177.007 15.774C176.686 16.1987 176.526 16.788 176.526 17.542C176.526 18.296 176.686 18.8897 177.007 19.323C177.336 19.7477 177.791 19.96 178.372 19.96ZM183.04 21V14.084H184.301L184.353 15.93L184.184 15.839C184.262 15.3883 184.41 15.0243 184.626 14.747C184.843 14.4697 185.107 14.266 185.419 14.136C185.731 13.9973 186.069 13.928 186.433 13.928C186.953 13.928 187.382 14.045 187.72 14.279C188.067 14.5043 188.327 14.8163 188.5 15.215C188.682 15.605 188.773 16.0513 188.773 16.554V21H187.395V16.97C187.395 16.5627 187.352 16.2203 187.265 15.943C187.179 15.6657 187.036 15.4533 186.836 15.306C186.637 15.1587 186.377 15.085 186.056 15.085C185.571 15.085 185.177 15.2453 184.873 15.566C184.57 15.8867 184.418 16.3547 184.418 16.97V21H183.04ZM193.234 21.156C192.584 21.156 192.033 21.0563 191.583 20.857C191.141 20.6577 190.798 20.3847 190.556 20.038C190.313 19.6827 190.174 19.2753 190.14 18.816L191.557 18.751C191.626 19.1323 191.791 19.4357 192.051 19.661C192.311 19.8863 192.705 19.999 193.234 19.999C193.667 19.999 194.009 19.9297 194.261 19.791C194.512 19.6523 194.638 19.4313 194.638 19.128C194.638 18.9633 194.594 18.8247 194.508 18.712C194.43 18.5907 194.274 18.491 194.04 18.413C193.806 18.3263 193.459 18.244 193 18.166C192.315 18.036 191.778 17.8843 191.388 17.711C190.998 17.5377 190.72 17.3167 190.556 17.048C190.391 16.7793 190.309 16.4543 190.309 16.073C190.309 15.4403 190.543 14.9247 191.011 14.526C191.487 14.1273 192.172 13.928 193.065 13.928C193.663 13.928 194.165 14.032 194.573 14.24C194.98 14.4393 195.296 14.7123 195.522 15.059C195.756 15.397 195.903 15.7783 195.964 16.203L194.547 16.281C194.503 16.0383 194.417 15.8303 194.287 15.657C194.165 15.475 194.001 15.3363 193.793 15.241C193.585 15.137 193.338 15.085 193.052 15.085C192.61 15.085 192.28 15.1717 192.064 15.345C191.847 15.5183 191.739 15.7437 191.739 16.021C191.739 16.229 191.786 16.398 191.882 16.528C191.986 16.658 192.15 16.7663 192.376 16.853C192.601 16.931 192.9 17.0003 193.273 17.061C193.992 17.1823 194.555 17.334 194.963 17.516C195.37 17.6893 195.656 17.906 195.821 18.166C195.985 18.426 196.068 18.7423 196.068 19.115C196.068 19.5483 195.946 19.9167 195.704 20.22C195.461 20.5233 195.127 20.7573 194.703 20.922C194.278 21.078 193.788 21.156 193.234 21.156ZM199.737 21.156C199.044 21.156 198.489 20.9263 198.073 20.467C197.666 19.999 197.462 19.3533 197.462 18.53V14.084H198.84V18.179C198.84 18.803 198.949 19.2623 199.165 19.557C199.382 19.8517 199.711 19.999 200.153 19.999C200.656 19.999 201.046 19.8387 201.323 19.518C201.609 19.1887 201.752 18.7293 201.752 18.14V14.084H203.13V21H201.843L201.817 19.193L202.012 19.271C201.891 19.8777 201.635 20.3457 201.245 20.675C200.855 20.9957 200.353 21.156 199.737 21.156ZM206.587 21C206.137 21 205.773 20.883 205.495 20.649C205.218 20.415 205.079 20.0423 205.079 19.531V11.77H206.457V19.401C206.457 19.557 206.496 19.674 206.574 19.752C206.661 19.83 206.782 19.869 206.938 19.869H207.484V21H206.587ZM211.007 21C210.348 21 209.863 20.8483 209.551 20.545C209.239 20.2417 209.083 19.7693 209.083 19.128V12.459H210.461V19.024C210.461 19.3447 210.53 19.5657 210.669 19.687C210.808 19.8083 211.02 19.869 211.306 19.869H212.294V21H211.007ZM208.03 15.215V14.084H212.294V15.215H208.03ZM215.51 21.156C214.79 21.156 214.214 20.9913 213.781 20.662C213.356 20.3327 213.144 19.869 213.144 19.271C213.144 18.673 213.321 18.2093 213.677 17.88C214.041 17.542 214.6 17.2993 215.354 17.152L217.733 16.697C217.733 16.1597 217.607 15.761 217.356 15.501C217.104 15.2323 216.732 15.098 216.238 15.098C215.796 15.098 215.449 15.1977 215.198 15.397C214.946 15.5877 214.773 15.8737 214.678 16.255L213.261 16.164C213.391 15.4707 213.711 14.9247 214.223 14.526C214.743 14.1273 215.414 13.928 216.238 13.928C217.174 13.928 217.884 14.1793 218.37 14.682C218.864 15.176 219.111 15.8737 219.111 16.775V19.466C219.111 19.6307 219.137 19.7477 219.189 19.817C219.249 19.8777 219.345 19.908 219.475 19.908H219.722V21C219.678 21.0087 219.609 21.0173 219.514 21.026C219.418 21.0347 219.319 21.039 219.215 21.039C218.92 21.039 218.664 20.9913 218.448 20.896C218.24 20.8007 218.084 20.6447 217.98 20.428C217.876 20.2027 217.824 19.9037 217.824 19.531L217.967 19.596C217.897 19.8993 217.746 20.168 217.512 20.402C217.286 20.636 216.996 20.8223 216.641 20.961C216.294 21.091 215.917 21.156 215.51 21.156ZM215.731 20.064C216.147 20.064 216.502 19.986 216.797 19.83C217.091 19.6653 217.321 19.44 217.486 19.154C217.65 18.868 217.733 18.543 217.733 18.179V17.737L215.705 18.127C215.289 18.205 214.994 18.3307 214.821 18.504C214.656 18.6687 214.574 18.881 214.574 19.141C214.574 19.4357 214.673 19.6653 214.873 19.83C215.081 19.986 215.367 20.064 215.731 20.064ZM220.885 21V14.084H222.146L222.198 15.93L222.029 15.839C222.107 15.3883 222.254 15.0243 222.471 14.747C222.688 14.4697 222.952 14.266 223.264 14.136C223.576 13.9973 223.914 13.928 224.278 13.928C224.798 13.928 225.227 14.045 225.565 14.279C225.912 14.5043 226.172 14.8163 226.345 15.215C226.527 15.605 226.618 16.0513 226.618 16.554V21H225.24V16.97C225.24 16.5627 225.197 16.2203 225.11 15.943C225.023 15.6657 224.88 15.4533 224.681 15.306C224.482 15.1587 224.222 15.085 223.901 15.085C223.416 15.085 223.021 15.2453 222.718 15.566C222.415 15.8867 222.263 16.3547 222.263 16.97V21H220.885ZM230.723 21C230.064 21 229.579 20.8483 229.267 20.545C228.955 20.2417 228.799 19.7693 228.799 19.128V12.459H230.177V19.024C230.177 19.3447 230.246 19.5657 230.385 19.687C230.523 19.8083 230.736 19.869 231.022 19.869H232.01V21H230.723ZM227.746 15.215V14.084H232.01V15.215H227.746ZM233.329 21V19.362H235.006V21H233.329ZM34.975 38V28.77H36.353V32.644L36.184 32.618C36.262 32.228 36.405 31.9117 36.613 31.669C36.821 31.4177 37.0767 31.2313 37.38 31.11C37.6833 30.9887 38.017 30.928 38.381 30.928C38.8837 30.928 39.3083 31.0407 39.655 31.266C40.0017 31.4827 40.2617 31.7903 40.435 32.189C40.617 32.5877 40.708 33.0427 40.708 33.554V38H39.33V33.918C39.33 33.294 39.2217 32.8347 39.005 32.54C38.797 32.2367 38.4677 32.085 38.017 32.085C37.5143 32.085 37.1113 32.2453 36.808 32.566C36.5047 32.878 36.353 33.3373 36.353 33.944V38H34.975ZM45.3503 38.156C44.6917 38.156 44.1153 38.0087 43.6213 37.714C43.1273 37.4193 42.746 36.999 42.4773 36.453C42.2087 35.907 42.0743 35.27 42.0743 34.542C42.0743 33.8053 42.2087 33.1683 42.4773 32.631C42.746 32.0937 43.1273 31.6777 43.6213 31.383C44.1153 31.0797 44.6917 30.928 45.3503 30.928C46.009 30.928 46.5853 31.0797 47.0793 31.383C47.5733 31.6777 47.9547 32.0937 48.2233 32.631C48.492 33.1683 48.6263 33.8053 48.6263 34.542C48.6263 35.27 48.492 35.907 48.2233 36.453C47.9547 36.999 47.5733 37.4193 47.0793 37.714C46.5853 38.0087 46.009 38.156 45.3503 38.156ZM45.3503 36.96C45.9397 36.96 46.3947 36.7477 46.7153 36.323C47.036 35.8897 47.1963 35.296 47.1963 34.542C47.1963 33.788 47.036 33.1987 46.7153 32.774C46.3947 32.3407 45.9397 32.124 45.3503 32.124C44.7697 32.124 44.3147 32.3407 43.9853 32.774C43.6647 33.1987 43.5043 33.788 43.5043 34.542C43.5043 35.296 43.6647 35.8897 43.9853 36.323C44.3147 36.7477 44.7697 36.96 45.3503 36.96ZM51.2201 38L49.1141 31.084H50.5571L52.0391 36.492L53.5601 31.084H54.8601L56.3811 36.492L57.8761 31.084H59.3191L57.2131 38H55.6661L54.2101 33.06L52.7541 38H51.2201ZM66.5896 38.156C65.9309 38.156 65.3546 38.0087 64.8606 37.714C64.3666 37.4193 63.9852 36.999 63.7166 36.453C63.4479 35.907 63.3136 35.27 63.3136 34.542C63.3136 33.814 63.4479 33.1813 63.7166 32.644C63.9852 32.098 64.3666 31.6777 64.8606 31.383C65.3546 31.0797 65.9309 30.928 66.5896 30.928C67.1529 30.928 67.6512 31.0277 68.0846 31.227C68.5266 31.4177 68.8819 31.6993 69.1506 32.072C69.4279 32.4447 69.6056 32.8997 69.6836 33.437L68.2406 33.515C68.1712 33.0643 67.9892 32.722 67.6946 32.488C67.3999 32.2453 67.0316 32.124 66.5896 32.124C66.0089 32.124 65.5539 32.3407 65.2246 32.774C64.9039 33.1987 64.7436 33.788 64.7436 34.542C64.7436 35.296 64.9039 35.8897 65.2246 36.323C65.5539 36.7477 66.0089 36.96 66.5896 36.96C67.0316 36.96 67.3999 36.8387 67.6946 36.596C67.9892 36.3447 68.1712 35.9677 68.2406 35.465L69.6836 35.543C69.6056 36.0717 69.4279 36.531 69.1506 36.921C68.8819 37.311 68.5266 37.6143 68.0846 37.831C67.6512 38.0477 67.1529 38.156 66.5896 38.156ZM73.0175 38.156C72.2981 38.156 71.7218 37.9913 71.2885 37.662C70.8638 37.3327 70.6515 36.869 70.6515 36.271C70.6515 35.673 70.8291 35.2093 71.1845 34.88C71.5485 34.542 72.1075 34.2993 72.8615 34.152L75.2405 33.697C75.2405 33.1597 75.1148 32.761 74.8635 32.501C74.6121 32.2323 74.2395 32.098 73.7455 32.098C73.3035 32.098 72.9568 32.1977 72.7055 32.397C72.4541 32.5877 72.2808 32.8737 72.1855 33.255L70.7685 33.164C70.8985 32.4707 71.2191 31.9247 71.7305 31.526C72.2505 31.1273 72.9221 30.928 73.7455 30.928C74.6815 30.928 75.3921 31.1793 75.8775 31.682C76.3715 32.176 76.6185 32.8737 76.6185 33.775V36.466C76.6185 36.6307 76.6445 36.7477 76.6965 36.817C76.7571 36.8777 76.8525 36.908 76.9825 36.908H77.2295V38C77.1861 38.0087 77.1168 38.0173 77.0215 38.026C76.9261 38.0347 76.8265 38.039 76.7225 38.039C76.4278 38.039 76.1721 37.9913 75.9555 37.896C75.7475 37.8007 75.5915 37.6447 75.4875 37.428C75.3835 37.2027 75.3315 36.9037 75.3315 36.531L75.4745 36.596C75.4051 36.8993 75.2535 37.168 75.0195 37.402C74.7941 37.636 74.5038 37.8223 74.1485 37.961C73.8018 38.091 73.4248 38.156 73.0175 38.156ZM73.2385 37.064C73.6545 37.064 74.0098 36.986 74.3045 36.83C74.5991 36.6653 74.8288 36.44 74.9935 36.154C75.1581 35.868 75.2405 35.543 75.2405 35.179V34.737L73.2125 35.127C72.7965 35.205 72.5018 35.3307 72.3285 35.504C72.1638 35.6687 72.0815 35.881 72.0815 36.141C72.0815 36.4357 72.1811 36.6653 72.3805 36.83C72.5885 36.986 72.8745 37.064 73.2385 37.064ZM78.393 38V31.084H79.654L79.706 32.93L79.537 32.839C79.615 32.3883 79.7623 32.0243 79.979 31.747C80.1956 31.4697 80.46 31.266 80.772 31.136C81.084 30.9973 81.422 30.928 81.786 30.928C82.306 30.928 82.735 31.045 83.073 31.279C83.4196 31.5043 83.6796 31.8163 83.853 32.215C84.035 32.605 84.126 33.0513 84.126 33.554V38H82.748V33.97C82.748 33.5627 82.7046 33.2203 82.618 32.943C82.5313 32.6657 82.3883 32.4533 82.189 32.306C81.9896 32.1587 81.7296 32.085 81.409 32.085C80.9236 32.085 80.5293 32.2453 80.226 32.566C79.9226 32.8867 79.771 33.3547 79.771 33.97V38H78.393ZM89.2348 38V31.084H90.6128V38H89.2348ZM89.2088 30.083V28.705H90.6388V30.083H89.2088ZM95.7221 38V28.77H97.1001V32.644L96.9311 32.618C97.0091 32.228 97.1521 31.9117 97.3601 31.669C97.5681 31.4177 97.8237 31.2313 98.1271 31.11C98.4304 30.9887 98.7641 30.928 99.1281 30.928C99.6307 30.928 100.055 31.0407 100.402 31.266C100.749 31.4827 101.009 31.7903 101.182 32.189C101.364 32.5877 101.455 33.0427 101.455 33.554V38H100.077V33.918C100.077 33.294 99.9687 32.8347 99.7521 32.54C99.5441 32.2367 99.2147 32.085 98.7641 32.085C98.2614 32.085 97.8584 32.2453 97.5551 32.566C97.2517 32.878 97.1001 33.3373 97.1001 33.944V38H95.7221ZM106.097 38.156C105.421 38.156 104.836 38.0087 104.342 37.714C103.857 37.4193 103.48 36.999 103.211 36.453C102.951 35.907 102.821 35.27 102.821 34.542C102.821 33.814 102.951 33.1813 103.211 32.644C103.48 32.098 103.857 31.6777 104.342 31.383C104.828 31.0797 105.4 30.928 106.058 30.928C106.682 30.928 107.233 31.0753 107.709 31.37C108.186 31.656 108.554 32.072 108.814 32.618C109.083 33.164 109.217 33.8227 109.217 34.594V34.945H104.251C104.286 35.621 104.464 36.128 104.784 36.466C105.114 36.804 105.556 36.973 106.11 36.973C106.518 36.973 106.856 36.8777 107.124 36.687C107.393 36.4963 107.579 36.2407 107.683 35.92L109.113 36.011C108.931 36.6523 108.572 37.1723 108.034 37.571C107.506 37.961 106.86 38.156 106.097 38.156ZM104.251 33.905H107.761C107.718 33.2897 107.54 32.8347 107.228 32.54C106.925 32.2453 106.535 32.098 106.058 32.098C105.564 32.098 105.157 32.254 104.836 32.566C104.524 32.8693 104.329 33.3157 104.251 33.905ZM112.185 38C111.734 38 111.37 37.883 111.093 37.649C110.816 37.415 110.677 37.0423 110.677 36.531V28.77H112.055V36.401C112.055 36.557 112.094 36.674 112.172 36.752C112.259 36.83 112.38 36.869 112.536 36.869H113.082V38H112.185ZM114.308 39.95V31.084H115.608L115.647 32.566L115.491 32.488C115.664 31.9767 115.95 31.591 116.349 31.331C116.748 31.0623 117.207 30.928 117.727 30.928C118.403 30.928 118.958 31.097 119.391 31.435C119.833 31.7643 120.158 32.202 120.366 32.748C120.583 33.294 120.691 33.892 120.691 34.542C120.691 35.192 120.583 35.79 120.366 36.336C120.158 36.882 119.833 37.324 119.391 37.662C118.958 37.9913 118.403 38.156 117.727 38.156C117.38 38.156 117.055 38.0953 116.752 37.974C116.449 37.8527 116.189 37.6837 115.972 37.467C115.764 37.2417 115.617 36.9773 115.53 36.674L115.686 36.518V39.95H114.308ZM117.48 36.96C118.035 36.96 118.468 36.7477 118.78 36.323C119.101 35.8983 119.261 35.3047 119.261 34.542C119.261 33.7793 119.101 33.1857 118.78 32.761C118.468 32.3363 118.035 32.124 117.48 32.124C117.116 32.124 116.8 32.215 116.531 32.397C116.262 32.5703 116.054 32.839 115.907 33.203C115.76 33.567 115.686 34.0133 115.686 34.542C115.686 35.0707 115.755 35.517 115.894 35.881C116.041 36.245 116.249 36.518 116.518 36.7C116.795 36.8733 117.116 36.96 117.48 36.96ZM125.768 39.95V38.819H126.613C126.847 38.819 127.021 38.7843 127.133 38.715C127.246 38.6457 127.333 38.5287 127.393 38.364L127.614 37.792H127.185L124.689 31.084H126.145L128.043 36.518L129.85 31.084H131.319L128.563 38.806C128.425 39.2047 128.217 39.495 127.939 39.677C127.671 39.859 127.294 39.95 126.808 39.95H125.768ZM135.055 38.156C134.397 38.156 133.82 38.0087 133.326 37.714C132.832 37.4193 132.451 36.999 132.182 36.453C131.914 35.907 131.779 35.27 131.779 34.542C131.779 33.8053 131.914 33.1683 132.182 32.631C132.451 32.0937 132.832 31.6777 133.326 31.383C133.82 31.0797 134.397 30.928 135.055 30.928C135.714 30.928 136.29 31.0797 136.784 31.383C137.278 31.6777 137.66 32.0937 137.928 32.631C138.197 33.1683 138.331 33.8053 138.331 34.542C138.331 35.27 138.197 35.907 137.928 36.453C137.66 36.999 137.278 37.4193 136.784 37.714C136.29 38.0087 135.714 38.156 135.055 38.156ZM135.055 36.96C135.645 36.96 136.1 36.7477 136.42 36.323C136.741 35.8897 136.901 35.296 136.901 34.542C136.901 33.788 136.741 33.1987 136.42 32.774C136.1 32.3407 135.645 32.124 135.055 32.124C134.475 32.124 134.02 32.3407 133.69 32.774C133.37 33.1987 133.209 33.788 133.209 34.542C133.209 35.296 133.37 35.8897 133.69 36.323C134.02 36.7477 134.475 36.96 135.055 36.96ZM141.999 38.156C141.306 38.156 140.751 37.9263 140.335 37.467C139.928 36.999 139.724 36.3533 139.724 35.53V31.084H141.102V35.179C141.102 35.803 141.21 36.2623 141.427 36.557C141.644 36.8517 141.973 36.999 142.415 36.999C142.918 36.999 143.308 36.8387 143.585 36.518C143.871 36.1887 144.014 35.7293 144.014 35.14V31.084H145.392V38H144.105L144.079 36.193L144.274 36.271C144.153 36.8777 143.897 37.3457 143.507 37.675C143.117 37.9957 142.614 38.156 141.999 38.156ZM149.076 35.283C149.076 34.633 149.172 34.126 149.362 33.762C149.562 33.3893 149.891 33.073 150.35 32.813C150.68 32.6223 150.931 32.4533 151.104 32.306C151.278 32.1587 151.39 32.0027 151.442 31.838C151.503 31.6733 151.533 31.4697 151.533 31.227C151.533 30.8197 151.399 30.486 151.13 30.226C150.862 29.9573 150.485 29.823 149.999 29.823C149.427 29.823 148.985 29.9747 148.673 30.278C148.361 30.5727 148.175 31.006 148.114 31.578L146.658 31.5C146.71 30.928 146.875 30.421 147.152 29.979C147.43 29.537 147.807 29.1903 148.283 28.939C148.769 28.6877 149.341 28.562 149.999 28.562C150.606 28.562 151.13 28.679 151.572 28.913C152.023 29.1383 152.37 29.4503 152.612 29.849C152.855 30.2477 152.976 30.707 152.976 31.227C152.976 31.5997 152.92 31.9203 152.807 32.189C152.695 32.449 152.517 32.6917 152.274 32.917C152.04 33.1337 151.733 33.359 151.351 33.593C151.013 33.801 150.779 34.0263 150.649 34.269C150.528 34.503 150.467 34.841 150.467 35.283H149.076ZM148.907 38V36.362H150.584V38H148.907Z" fill="#CEC1F1" fill-opacity="0.7"/>
<path d="M267.324 146.421C267.637 140.829 267.794 138.033 266.825 135.836C265.973 133.904 264.531 132.291 262.706 131.229C260.631 130.021 257.836 129.865 252.244 129.552L41.5736 117.758C35.9818 117.445 33.186 117.288 30.9893 118.257C29.057 119.109 27.4441 120.551 26.3817 122.376C25.1739 124.451 25.0174 127.247 24.7043 132.839L23.6424 151.809L250.287 164.497C255.879 164.81 258.675 164.966 260.872 163.998C262.804 163.146 264.417 161.704 265.479 159.879C266.687 157.804 266.844 155.008 267.157 149.416L267.324 146.421Z" fill="url(#paint5_linear_2088_44)"/>
<path d="M35.5254 138.452L36.0413 129.237L37.9623 129.344L40.2774 137.065L43.4397 129.651L45.3607 129.758L44.8448 138.974L43.443 138.896L43.8208 132.146L40.9646 138.744L39.407 138.657L37.305 131.781L36.9272 138.531L35.5254 138.452ZM48.7285 139.348C48.0102 139.307 47.444 139.111 47.0298 138.758C46.6242 138.405 46.4381 137.93 46.4715 137.333C46.5049 136.736 46.7082 136.283 47.0814 135.974C47.4637 135.657 48.0354 135.446 48.7965 135.341L51.1972 135.02C51.2272 134.483 51.1241 134.078 50.8876 133.805C50.6517 133.522 50.2871 133.367 49.7939 133.34C49.3526 133.315 49.0009 133.395 48.7388 133.58C48.4772 133.757 48.2882 134.032 48.1717 134.408L46.762 134.238C46.9305 133.553 47.2812 133.026 47.814 132.656C48.3555 132.287 49.0373 132.126 49.8593 132.172C50.7938 132.224 51.4894 132.515 51.9458 133.044C52.4115 133.565 52.6191 134.275 52.5687 135.175L52.4183 137.862C52.4091 138.026 52.4285 138.144 52.4765 138.216C52.5337 138.28 52.6272 138.316 52.757 138.323L53.0036 138.337L52.9426 139.427C52.8988 139.434 52.8291 139.438 52.7335 139.442C52.6378 139.445 52.538 139.444 52.4342 139.438C52.14 139.421 51.8874 139.36 51.6764 139.252C51.474 139.145 51.327 138.981 51.2353 138.759C51.144 138.528 51.1088 138.227 51.1297 137.855L51.2688 137.927C51.1826 138.226 51.0162 138.486 50.7695 138.707C50.5314 138.928 50.2311 139.098 49.8686 139.216C49.5152 139.327 49.1351 139.37 48.7285 139.348ZM49.0101 138.27C49.4255 138.293 49.7846 138.235 50.0876 138.096C50.391 137.948 50.6329 137.736 50.8133 137.459C50.9937 137.183 51.094 136.863 51.1144 136.5L51.1391 136.058L49.0924 136.334C48.6727 136.389 48.3715 136.498 48.1888 136.661C48.0151 136.817 47.9211 137.024 47.9065 137.284C47.8901 137.578 47.9767 137.813 48.1666 137.988C48.3655 138.156 48.6467 138.249 49.0101 138.27ZM54.0678 141.443L54.131 140.314L54.9747 140.361C55.2083 140.374 55.3833 140.35 55.4997 140.287C55.616 140.224 55.7091 140.112 55.7789 139.951L56.0315 139.392L55.6032 139.368L53.486 132.531L54.9397 132.612L56.531 138.144L58.6389 132.819L60.1057 132.902L56.9224 140.457C56.7616 140.848 56.5377 141.126 56.2506 141.292C55.9722 141.459 55.5907 141.529 55.1062 141.502L54.0678 141.443ZM64.1179 140.053L64.5044 133.148L65.8803 133.225L65.4937 140.13L64.1179 140.053ZM64.5344 132.147L64.6115 130.771L66.0392 130.851L65.9622 132.227L64.5344 132.147ZM70.5951 140.416L71.1109 131.2L72.4868 131.277L72.2703 135.145L72.103 135.11C72.2027 134.725 72.3631 134.417 72.5844 134.186C72.8061 133.947 73.0718 133.775 73.3814 133.671C73.691 133.567 74.0276 133.525 74.391 133.545C74.8929 133.573 75.3106 133.709 75.6441 133.954C75.9781 134.189 76.2205 134.511 76.3713 134.919C76.5307 135.327 76.5962 135.786 76.5676 136.297L76.3191 140.736L74.9432 140.659L75.1714 136.583C75.2063 135.96 75.1238 135.496 74.9239 135.189C74.7332 134.875 74.4129 134.705 73.9629 134.68C73.461 134.652 73.0497 134.789 72.7289 135.093C72.4086 135.387 72.2315 135.837 72.1976 136.443L71.9709 140.493L70.5951 140.416ZM80.0495 141.101C79.3313 141.061 78.7651 140.864 78.3508 140.511C77.9452 140.159 77.7592 139.684 77.7926 139.087C77.826 138.49 78.0293 138.037 78.4025 137.728C78.7848 137.411 79.3565 137.2 80.1176 137.095L82.5183 136.773C82.5483 136.237 82.4451 135.832 82.2087 135.558C81.9728 135.276 81.6082 135.121 81.115 135.093C80.6737 135.069 80.322 135.149 80.0599 135.334C79.7983 135.51 79.6093 135.786 79.4928 136.161L78.0831 135.991C78.2516 135.306 78.6023 134.779 79.1351 134.409C79.6766 134.041 80.3583 133.879 81.1804 133.925C82.1149 133.977 82.8104 134.268 83.2669 134.797C83.7325 135.318 83.9401 136.028 83.8898 136.928L83.7394 139.615C83.7302 139.779 83.7496 139.898 83.7976 139.97C83.8548 140.034 83.9483 140.069 84.0781 140.077L84.3247 140.09L84.2637 141.181C84.2199 141.187 84.1502 141.192 84.0545 141.195C83.9589 141.198 83.8591 141.197 83.7553 141.191C83.4611 141.175 83.2085 141.113 82.9975 141.006C82.7951 140.899 82.6481 140.734 82.5564 140.512C82.4651 140.281 82.4299 139.98 82.4507 139.608L82.5899 139.681C82.5037 139.98 82.3373 140.24 82.0905 140.46C81.8525 140.681 81.5522 140.851 81.1897 140.97C80.8363 141.08 80.4562 141.124 80.0495 141.101ZM80.3312 140.023C80.7466 140.046 81.1057 139.988 81.4086 139.849C81.712 139.701 81.9539 139.489 82.1343 139.213C82.3147 138.936 82.4151 138.616 82.4354 138.253L82.4602 137.812L80.4135 138.088C79.9938 138.142 79.6926 138.251 79.5098 138.415C79.3362 138.57 79.2422 138.777 79.2276 139.037C79.2111 139.331 79.2978 139.566 79.4876 139.742C79.6866 139.909 79.9678 140.003 80.3312 140.023ZM86.9386 141.33L84.8071 134.284L86.2738 134.366L87.8478 139.975L90.0379 134.577L91.5176 134.66L88.6 141.423L86.9386 141.33ZM94.8504 141.93C94.1755 141.892 93.5996 141.712 93.1229 141.39C92.6548 141.069 92.3018 140.628 92.0641 140.068C91.835 139.508 91.7408 138.865 91.7815 138.138C91.8222 137.411 91.9874 136.787 92.277 136.265C92.5758 135.735 92.9757 135.336 93.4767 135.069C93.9783 134.793 94.5578 134.674 95.2155 134.711C95.8385 134.746 96.3797 134.923 96.8392 135.244C97.2991 135.557 97.6436 135.992 97.8727 136.552C98.1104 137.112 98.2077 137.777 98.1646 138.548L98.145 138.898L93.1868 138.62C93.1836 139.297 93.3327 139.813 93.6339 140.169C93.9439 140.525 94.3757 140.718 94.9295 140.749C95.3362 140.772 95.679 140.696 95.9579 140.52C96.2368 140.345 96.4372 140.1 96.5589 139.786L97.9816 139.957C97.764 140.587 97.3759 141.086 96.8171 141.454C96.2675 141.814 95.6119 141.972 94.8504 141.93ZM93.2449 137.582L96.7494 137.778C96.7405 137.161 96.5886 136.697 96.2935 136.386C96.0072 136.074 95.626 135.906 95.1501 135.879C94.6569 135.851 94.2414 135.984 93.9038 136.278C93.5754 136.563 93.3557 136.998 93.2449 137.582ZM102.932 144.179L102.995 143.05L103.839 143.097C104.072 143.11 104.247 143.085 104.364 143.022C104.48 142.959 104.573 142.847 104.643 142.686L104.895 142.127L104.467 142.103L102.35 135.266L103.804 135.348L105.395 140.879L107.503 135.555L108.97 135.637L105.786 143.193C105.626 143.583 105.402 143.861 105.115 144.028C104.836 144.194 104.455 144.264 103.97 144.237L102.932 144.179ZM112.305 142.907C111.647 142.87 111.08 142.691 110.603 142.369C110.126 142.047 109.769 141.606 109.531 141.046C109.293 140.486 109.195 139.842 109.236 139.115C109.277 138.38 109.447 137.751 109.745 137.23C110.043 136.708 110.447 136.314 110.957 136.048C111.467 135.772 112.051 135.653 112.709 135.69C113.366 135.727 113.933 135.91 114.409 136.241C114.886 136.563 115.244 136.999 115.482 137.551C115.72 138.102 115.819 138.746 115.777 139.481C115.737 140.208 115.567 140.837 115.268 141.367C114.969 141.897 114.565 142.295 114.056 142.562C113.546 142.829 112.962 142.944 112.305 142.907ZM112.371 141.713C112.96 141.746 113.426 141.559 113.77 141.153C114.114 140.738 114.308 140.154 114.35 139.402C114.392 138.649 114.265 138.051 113.968 137.609C113.672 137.159 113.23 136.917 112.642 136.884C112.062 136.852 111.596 137.043 111.242 137.457C110.899 137.863 110.706 138.442 110.663 139.195C110.621 139.948 110.748 140.55 111.044 141C111.349 141.443 111.792 141.68 112.371 141.713ZM119.237 143.295C118.545 143.256 118.004 142.996 117.614 142.514C117.234 142.024 117.067 141.368 117.113 140.546L117.361 136.107L118.737 136.184L118.508 140.272C118.473 140.895 118.556 141.36 118.756 141.666C118.955 141.973 119.276 142.138 119.717 142.163C120.219 142.191 120.618 142.053 120.912 141.748C121.216 141.435 121.385 140.985 121.418 140.396L121.644 136.347L123.02 136.424L122.634 143.329L121.349 143.257L121.424 141.451L121.614 141.54C121.459 142.139 121.178 142.592 120.77 142.899C120.363 143.197 119.852 143.329 119.237 143.295ZM124.58 143.438L124.966 136.532L126.225 136.603L126.175 138.436L126.06 138.391C126.19 137.773 126.406 137.329 126.708 137.06C127.018 136.791 127.42 136.67 127.913 136.697L128.575 136.734L128.506 137.968L127.844 137.93C127.498 137.911 127.205 137.951 126.965 138.051C126.725 138.15 126.538 138.313 126.403 138.54C126.278 138.767 126.205 139.067 126.184 139.439L125.956 143.515L124.58 143.438ZM135.678 144.215C135.02 144.178 134.453 143.999 133.977 143.677C133.5 143.355 133.143 142.914 132.905 142.354C132.667 141.794 132.569 141.151 132.609 140.424C132.65 139.688 132.82 139.06 133.118 138.538C133.417 138.017 133.821 137.623 134.33 137.356C134.841 137.081 135.424 136.962 136.082 136.999C136.74 137.035 137.307 137.219 137.783 137.549C138.26 137.871 138.617 138.308 138.855 138.859C139.094 139.411 139.192 140.054 139.151 140.79C139.11 141.517 138.941 142.145 138.642 142.675C138.343 143.206 137.939 143.604 137.429 143.871C136.919 144.137 136.336 144.252 135.678 144.215ZM135.745 143.021C136.333 143.054 136.8 142.867 137.143 142.461C137.488 142.047 137.681 141.463 137.723 140.71C137.765 139.957 137.638 139.36 137.342 138.918C137.046 138.467 136.604 138.226 136.015 138.193C135.435 138.16 134.969 138.351 134.616 138.765C134.272 139.171 134.079 139.751 134.037 140.504C133.995 141.256 134.122 141.858 134.418 142.309C134.723 142.751 135.165 142.989 135.745 143.021ZM140.348 144.32L140.735 137.415L141.994 137.486L141.943 139.319L141.829 139.273C141.959 138.656 142.174 138.212 142.476 137.942C142.786 137.673 143.188 137.553 143.681 137.58L144.343 137.617L144.274 138.85L143.612 138.813C143.266 138.794 142.973 138.834 142.733 138.933C142.493 139.033 142.306 139.196 142.172 139.423C142.046 139.65 141.973 139.95 141.952 140.322L141.724 144.397L140.348 144.32ZM147.381 144.87C146.793 144.837 146.286 144.661 145.861 144.343C145.445 144.024 145.135 143.59 144.932 143.041C144.737 142.483 144.66 141.836 144.702 141.101C144.743 140.365 144.895 139.736 145.159 139.212C145.423 138.68 145.78 138.279 146.229 138.009C146.678 137.739 147.197 137.621 147.785 137.654C148.261 137.68 148.679 137.804 149.04 138.023C149.401 138.243 149.667 138.536 149.838 138.901L150.021 135.617L151.397 135.694L150.881 144.91L149.596 144.838L149.616 143.798C149.404 144.159 149.098 144.437 148.697 144.631C148.304 144.818 147.866 144.897 147.381 144.87ZM147.811 143.697C148.183 143.717 148.505 143.64 148.775 143.464C149.045 143.288 149.26 143.022 149.418 142.667C149.577 142.311 149.671 141.882 149.699 141.38C149.728 140.861 149.683 140.42 149.565 140.058C149.446 139.687 149.263 139.403 149.013 139.207C148.764 139.002 148.454 138.889 148.082 138.868C147.528 138.837 147.074 139.029 146.721 139.443C146.369 139.849 146.172 140.428 146.129 141.181C146.088 141.925 146.219 142.522 146.524 142.973C146.828 143.425 147.258 143.666 147.811 143.697ZM155.541 145.327C154.866 145.289 154.29 145.11 153.813 144.788C153.345 144.466 152.992 144.026 152.754 143.465C152.525 142.906 152.431 142.263 152.472 141.536C152.512 140.809 152.678 140.184 152.967 139.662C153.266 139.132 153.666 138.734 154.167 138.467C154.668 138.191 155.248 138.071 155.906 138.108C156.529 138.143 157.07 138.321 157.529 138.642C157.989 138.954 158.334 139.39 158.563 139.95C158.801 140.51 158.898 141.175 158.855 141.945L158.835 142.296L153.877 142.018C153.874 142.695 154.023 143.211 154.324 143.566C154.634 143.922 155.066 144.116 155.62 144.147C156.026 144.169 156.369 144.093 156.648 143.918C156.927 143.742 157.127 143.498 157.249 143.183L158.672 143.354C158.454 143.984 158.066 144.483 157.507 144.851C156.958 145.211 156.302 145.37 155.541 145.327ZM153.935 140.98L157.44 141.176C157.431 140.559 157.279 140.095 156.984 139.783C156.697 139.472 156.316 139.303 155.84 139.276C155.347 139.249 154.932 139.382 154.594 139.675C154.266 139.961 154.046 140.396 153.935 140.98ZM160.058 145.424L160.445 138.519L161.704 138.589L161.654 140.422L161.539 140.377C161.669 139.759 161.885 139.315 162.186 139.046C162.497 138.777 162.898 138.656 163.391 138.684L164.053 138.721L163.984 139.954L163.322 139.917C162.976 139.897 162.683 139.937 162.443 140.037C162.203 140.136 162.016 140.299 161.882 140.526C161.757 140.753 161.683 141.053 161.662 141.425L161.434 145.501L160.058 145.424ZM168.323 145.886L168.709 138.981L169.968 139.052L169.917 140.898L169.754 140.797C169.857 140.352 170.024 139.997 170.256 139.732C170.488 139.467 170.763 139.279 171.082 139.166C171.401 139.045 171.742 138.995 172.106 139.015C172.625 139.044 173.047 139.185 173.371 139.438C173.705 139.682 173.947 140.008 174.098 140.416C174.258 140.815 174.324 141.266 174.295 141.768L174.047 146.207L172.671 146.13L172.896 142.106C172.919 141.699 172.895 141.355 172.824 141.073C172.753 140.792 172.622 140.572 172.431 140.414C172.24 140.255 171.985 140.167 171.665 140.149C171.18 140.122 170.778 140.26 170.457 140.563C170.136 140.867 169.958 141.325 169.924 141.94L169.699 145.963L168.323 145.886ZM178.077 146.589C177.385 146.55 176.844 146.29 176.454 145.808C176.073 145.318 175.906 144.662 175.952 143.84L176.201 139.401L177.577 139.478L177.348 143.566C177.313 144.189 177.395 144.654 177.595 144.96C177.795 145.267 178.116 145.432 178.557 145.457C179.059 145.485 179.457 145.347 179.752 145.042C180.056 144.729 180.224 144.278 180.257 143.69L180.484 139.64L181.86 139.717L181.473 146.623L180.188 146.551L180.263 144.745L180.454 144.834C180.299 145.433 180.017 145.886 179.609 146.193C179.202 146.491 178.691 146.623 178.077 146.589ZM183.419 146.732L183.806 139.826L185.065 139.897L185.008 141.612L184.855 141.552C184.954 141.175 185.107 140.858 185.312 140.601C185.526 140.344 185.78 140.15 186.074 140.018C186.368 139.887 186.683 139.831 187.021 139.85C187.609 139.883 188.08 140.079 188.433 140.437C188.787 140.787 188.995 141.254 189.058 141.839L188.837 141.827C188.938 141.424 189.086 141.094 189.283 140.836C189.489 140.57 189.743 140.371 190.046 140.241C190.348 140.11 190.685 140.055 191.057 140.076C191.542 140.103 191.947 140.23 192.273 140.457C192.608 140.675 192.851 140.984 193.002 141.383C193.162 141.782 193.226 142.263 193.195 142.826L192.946 147.265L191.571 147.188L191.8 143.086C191.834 142.489 191.751 142.033 191.551 141.718C191.352 141.403 191.032 141.233 190.59 141.209C190.305 141.193 190.05 141.252 189.825 141.387C189.601 141.522 189.42 141.725 189.283 141.995C189.155 142.266 189.08 142.596 189.059 142.985L188.832 147.035L187.521 146.961L187.748 142.912C187.781 142.323 187.707 141.863 187.525 141.532C187.353 141.192 187.034 141.01 186.567 140.983C186.272 140.967 186.013 141.026 185.788 141.161C185.573 141.297 185.396 141.504 185.259 141.783C185.122 142.053 185.043 142.378 185.022 142.759L184.795 146.809L183.419 146.732ZM198.207 147.716C197.732 147.689 197.313 147.561 196.953 147.333C196.602 147.096 196.337 146.786 196.159 146.403L196.062 147.439L194.777 147.367L195.292 138.152L196.668 138.229L196.485 141.513C196.683 141.22 196.966 140.971 197.334 140.766C197.71 140.561 198.136 140.472 198.611 140.499C199.209 140.532 199.72 140.709 200.144 141.027C200.569 141.346 200.883 141.785 201.086 142.343C201.299 142.893 201.384 143.536 201.343 144.272C201.302 145.007 201.145 145.641 200.872 146.172C200.608 146.696 200.248 147.092 199.79 147.362C199.332 147.631 198.805 147.749 198.207 147.716ZM198.054 146.509C198.582 146.539 199.013 146.35 199.348 145.944C199.684 145.528 199.873 144.944 199.915 144.192C199.957 143.439 199.834 142.842 199.547 142.4C199.259 141.95 198.856 141.711 198.337 141.681C197.948 141.66 197.609 141.736 197.322 141.911C197.034 142.086 196.806 142.351 196.639 142.706C196.472 143.053 196.374 143.481 196.346 143.992C196.318 144.485 196.368 144.917 196.494 145.289C196.621 145.661 196.817 145.954 197.083 146.168C197.349 146.374 197.673 146.488 198.054 146.509ZM205.38 148.117C204.706 148.079 204.13 147.9 203.653 147.578C203.185 147.256 202.832 146.816 202.594 146.256C202.365 145.696 202.271 145.053 202.312 144.326C202.352 143.599 202.517 142.974 202.807 142.453C203.106 141.922 203.506 141.524 204.007 141.257C204.508 140.981 205.088 140.862 205.746 140.898C206.369 140.933 206.91 141.111 207.369 141.432C207.829 141.744 208.174 142.18 208.403 142.74C208.641 143.3 208.738 143.965 208.695 144.735L208.675 145.086L203.717 144.808C203.714 145.485 203.863 146.001 204.164 146.356C204.474 146.712 204.906 146.906 205.46 146.937C205.866 146.96 206.209 146.883 206.488 146.708C206.767 146.533 206.967 146.288 207.089 145.973L208.512 146.144C208.294 146.774 207.906 147.273 207.347 147.641C206.798 148.001 206.142 148.16 205.38 148.117ZM203.775 143.77L207.279 143.966C207.271 143.349 207.119 142.885 206.824 142.573C206.537 142.262 206.156 142.093 205.68 142.066C205.187 142.039 204.772 142.172 204.434 142.465C204.105 142.751 203.886 143.186 203.775 143.77ZM209.898 148.214L210.285 141.309L211.544 141.379L211.493 143.212L211.379 143.167C211.509 142.549 211.725 142.105 212.026 141.836C212.336 141.567 212.738 141.446 213.231 141.474L213.893 141.511L213.824 142.744L213.162 142.707C212.816 142.687 212.523 142.727 212.283 142.827C212.043 142.926 211.856 143.089 211.722 143.316C211.596 143.543 211.523 143.843 211.502 144.215L211.274 148.291L209.898 148.214ZM217.144 145.898C217.181 145.249 217.304 144.748 217.515 144.396C217.735 144.035 218.081 143.737 218.554 143.503C218.894 143.331 219.154 143.177 219.336 143.039C219.517 142.902 219.638 142.752 219.699 142.591C219.769 142.43 219.811 142.228 219.824 141.986C219.847 141.579 219.732 141.239 219.478 140.964C219.225 140.681 218.856 140.526 218.371 140.498C217.8 140.466 217.35 140.593 217.022 140.879C216.694 141.155 216.484 141.578 216.391 142.145L214.942 141.986C215.026 141.418 215.218 140.921 215.52 140.495C215.821 140.069 216.217 139.744 216.707 139.52C217.206 139.296 217.784 139.203 218.442 139.239C219.047 139.273 219.564 139.419 219.993 139.678C220.43 139.928 220.759 140.259 220.979 140.67C221.199 141.082 221.294 141.547 221.265 142.067C221.244 142.439 221.17 142.756 221.042 143.018C220.915 143.271 220.725 143.503 220.47 143.715C220.224 143.918 219.904 144.126 219.51 144.338C219.161 144.527 218.915 144.739 218.772 144.974C218.637 145.201 218.558 145.535 218.533 145.976L217.144 145.898ZM216.824 148.602L216.915 146.966L218.59 147.06L218.498 148.695L216.824 148.602ZM224.547 146.313C224.583 145.664 224.707 145.163 224.917 144.81C225.137 144.449 225.484 144.152 225.957 143.918C226.296 143.746 226.557 143.591 226.738 143.454C226.919 143.316 227.041 143.167 227.102 143.005C227.171 142.844 227.213 142.643 227.227 142.4C227.249 141.994 227.134 141.653 226.88 141.378C226.627 141.095 226.258 140.94 225.774 140.913C225.202 140.881 224.753 141.008 224.424 141.293C224.096 141.57 223.886 141.992 223.793 142.56L222.344 142.4C222.428 141.832 222.621 141.335 222.922 140.909C223.224 140.484 223.62 140.159 224.11 139.934C224.608 139.71 225.186 139.617 225.844 139.654C226.45 139.688 226.967 139.834 227.395 140.092C227.832 140.342 228.161 140.673 228.381 141.085C228.601 141.496 228.697 141.962 228.667 142.481C228.647 142.853 228.572 143.17 228.445 143.432C228.318 143.685 228.127 143.918 227.872 144.129C227.626 144.332 227.307 144.54 226.913 144.752C226.564 144.941 226.317 145.153 226.174 145.388C226.04 145.615 225.96 145.949 225.936 146.39L224.547 146.313ZM224.226 149.016L224.318 147.381L225.992 147.474L225.901 149.11L224.226 149.016Z" fill="#CEC1F1" fill-opacity="0.7"/>
<path d="M11.7378 32.4731L12.198 36.5549C12.4764 39.0381 14.436 40.9949 16.9192 41.276L21.0009 41.7363L16.9192 42.1966C14.436 42.4749 12.4792 44.4345 12.198 46.9177L11.7378 50.9995L11.2775 46.9177C10.9991 44.4345 9.03957 42.4777 6.55635 42.1966L2.47461 41.7363L6.55635 41.276C9.03957 40.9977 10.9964 39.0381 11.2775 36.5549L11.7378 32.4731Z" fill="#7544FF"/>
<path d="M5.5 31L5.67391 32.7626C5.77908 33.8349 6.51949 34.6799 7.45775 34.8012L9 35L7.45775 35.1988C6.51949 35.319 5.78012 36.1651 5.67391 37.2374L5.5 39L5.32609 37.2374C5.22092 36.1651 4.48051 35.3201 3.54225 35.1988L2 35L3.54225 34.8012C4.48051 34.681 5.21987 33.8349 5.32609 32.7626L5.5 31Z" fill="#FFB921"/>
<path d="M11.5407 134.601L11.7721 138.702C11.9112 141.196 13.7583 143.26 16.222 143.679L20.2716 144.367L16.1705 144.598C13.6756 144.737 11.6123 146.585 11.1929 149.048L10.5052 153.098L10.2738 148.997C10.1346 146.502 8.28751 144.439 5.82388 144.019L1.77424 143.331L5.87533 143.1C8.37023 142.961 10.4335 141.114 10.853 138.65L11.5407 134.601Z" fill="#7544FF"/>
<path d="M5.39492 132.781L5.47004 134.551C5.51512 135.627 6.20713 136.512 7.13714 136.686L8.66587 136.97L7.11493 137.083C6.17141 137.15 5.38591 137.954 5.21992 139.018L4.94777 140.769L4.87265 138.999C4.82758 137.923 4.13556 137.037 3.20555 136.864L1.67682 136.579L3.22776 136.467C4.17128 136.399 4.95678 135.596 5.12277 134.531L5.39492 132.781Z" fill="#FFB921"/>
<defs>
<radialGradient id="paint0_radial_2088_44" cx="0" cy="0" r="1" gradientUnits="userSpaceOnUse" gradientTransform="translate(206.5 108) rotate(-90) scale(28.8603 114.864)">
<stop stop-color="#7544FF" stop-opacity="0.5"/>
<stop offset="1" stop-color="#462999" stop-opacity="0.2"/>
</radialGradient>
<linearGradient id="paint1_linear_2088_44" x1="100.367" y1="64.6667" x2="114.708" y2="137.312" gradientUnits="userSpaceOnUse">
<stop offset="0.03" stop-color="#BAA2FF" stop-opacity="0.2"/>
<stop offset="0.51" stop-color="#BAA2FF"/>
<stop offset="1" stop-color="#7544FF"/>
</linearGradient>
<radialGradient id="paint2_radial_2088_44" cx="0" cy="0" r="1" gradientUnits="userSpaceOnUse" gradientTransform="translate(228.116 207.964) rotate(-93.6558) scale(20.2022 91.1985)">
<stop stop-color="#7544FF" stop-opacity="0.5"/>
<stop offset="1" stop-color="#462999" stop-opacity="0.2"/>
</radialGradient>
<linearGradient id="paint3_linear_2088_44" x1="142.087" y1="183.066" x2="154.263" y2="233.672" gradientUnits="userSpaceOnUse">
<stop offset="0.51" stop-color="#816AC2"/>
<stop offset="1" stop-color="#7544FF"/>
</linearGradient>
<linearGradient id="paint4_linear_2088_44" x1="267" y1="2.80166" x2="196.769" y2="142.006" gradientUnits="userSpaceOnUse">
<stop stop-color="#15192E"/>
<stop offset="0.469102" stop-color="#443B7A" stop-opacity="0.3"/>
<stop offset="1" stop-color="#A492D6" stop-opacity="0.1"/>
</linearGradient>
<linearGradient id="paint5_linear_2088_44" x1="268.109" y1="132.404" x2="223.709" y2="238.778" gradientUnits="userSpaceOnUse">
<stop stop-color="#15192E"/>
<stop offset="0.469102" stop-color="#443B7A" stop-opacity="0.3"/>
<stop offset="1" stop-color="#A492D6" stop-opacity="0.1"/>
</linearGradient>
</defs>
</svg>
