<svg width="20" height="17" viewBox="0 0 20 17" fill="none" xmlns="http://www.w3.org/2000/svg">
<path d="M19.6881 2.58893C18.965 2.91202 18.1854 3.12742 17.37 3.22486C18.206 2.7274 18.8419 1.93249 19.1445 0.988856C18.3649 1.45042 17.4982 1.78889 16.5802 1.96839C15.8417 1.18374 14.7955 0.691406 13.6314 0.691406C11.4005 0.691406 9.59018 2.50175 9.59018 4.73262C9.59018 5.05058 9.62608 5.35829 9.69275 5.65061C6.33362 5.48137 3.35913 3.87617 1.36929 1.4299C1.02056 2.0248 0.82055 2.72227 0.82055 3.46076C0.82055 4.86083 1.5334 6.09678 2.6155 6.82502C1.95394 6.80451 1.32827 6.62501 0.784651 6.3173C0.784651 6.33269 0.784651 6.3532 0.784651 6.36859C0.784651 8.32765 2.17959 9.9585 4.02583 10.3277C3.68735 10.4201 3.32836 10.4713 2.96424 10.4713C2.70269 10.4713 2.45139 10.4457 2.20523 10.3995C2.71807 12.0047 4.21045 13.1689 5.97976 13.2048C4.59508 14.2869 2.85654 14.9331 0.964147 14.9331C0.635927 14.9331 0.317963 14.9126 0 14.8767C1.7847 16.0254 3.90787 16.6921 6.19003 16.6921C13.616 16.6921 17.6829 10.538 17.6829 5.1993C17.6829 5.02494 17.6829 4.85057 17.6726 4.6762C18.4624 4.10695 19.1445 3.39409 19.6881 2.5838V2.58893Z" fill="#CEC1F1"/>
</svg>
