<svg width="40" height="40" viewBox="0 0 40 40" fill="none" xmlns="http://www.w3.org/2000/svg">
<g filter="url(#filter0_b_134_2198)">
<rect x="0.37793" y="0.435547" width="39.3974" height="39.3974" rx="10" fill="url(#paint0_linear_134_2198)"/>
</g>
<path d="M27.0393 26H11.8007C11.3583 26 11 26.3583 11 26.8007V32.1472C11 32.5892 11.3583 32.9479 11.8007 32.9479H27.0393C27.4816 32.9479 27.8399 32.5892 27.8399 32.1472V26.8007C27.8399 26.3583 27.4816 26 27.0393 26ZM17.1677 28.2091H15.895V31.4959H14.8441V28.2091H13.5718V27.4208H17.1677V28.2091ZM20.2779 31.4959L19.4012 30.1583L18.5068 31.4959H17.3454L18.7906 29.4429L17.3758 27.4208H18.5889L19.4364 28.6895L20.3079 27.4208H21.4725L20.0505 29.4001L21.4945 31.4959H20.2779ZM25.2682 28.2091H23.9959V31.4959H22.945V28.2091H21.6723V27.4208H25.2682V28.2091Z" fill="#CEC1F1"/>
<path d="M29.8809 35.8865H9.371C8.95144 35.8865 8.61035 35.5454 8.61035 35.1259V14.6644C8.61035 14.5688 8.64838 14.4771 8.71604 14.4098L16.8898 6.23606C16.9575 6.1684 17.0491 6.13037 17.1444 6.13037H29.8805C30.3 6.13037 30.6411 6.47146 30.6411 6.89102V35.1263C30.6411 35.5458 30.3 35.8869 29.8805 35.8869L29.8809 35.8865ZM9.33097 14.8134V35.1259C9.33097 35.1479 9.34898 35.1659 9.371 35.1659H29.8809C29.9029 35.1659 29.9209 35.1479 29.9209 35.1259V6.89062C29.9209 6.8686 29.9029 6.85058 29.8809 6.85058H17.2937L9.33097 14.8134Z" fill="#CEC1F1"/>
<path d="M17.627 6.40529C17.4925 6.34964 17.3376 6.38047 17.2343 6.48335L9.0605 14.6571C8.95762 14.76 8.92679 14.9149 8.98244 15.0499C9.03808 15.1844 9.1694 15.2724 9.31552 15.2724H17.0889C17.5085 15.2724 17.8496 14.9314 17.8496 14.5118V6.73837C17.8496 6.59265 17.7619 6.46134 17.627 6.40569V6.40529Z" fill="#CEC1F1"/>
<defs>
<filter id="filter0_b_134_2198" x="-3.62207" y="-3.56445" width="47.3975" height="47.3975" filterUnits="userSpaceOnUse" color-interpolation-filters="sRGB">
<feFlood flood-opacity="0" result="BackgroundImageFix"/>
<feGaussianBlur in="BackgroundImageFix" stdDeviation="2"/>
<feComposite in2="SourceAlpha" operator="in" result="effect1_backgroundBlur_134_2198"/>
<feBlend mode="normal" in="SourceGraphic" in2="effect1_backgroundBlur_134_2198" result="shape"/>
</filter>
<linearGradient id="paint0_linear_134_2198" x1="0.37793" y1="2.64311" x2="48.495" y2="22.2671" gradientUnits="userSpaceOnUse">
<stop stop-color="#15192E"/>
<stop offset="0.469102" stop-color="#443B7A" stop-opacity="0.3"/>
<stop offset="1" stop-color="#A492D6" stop-opacity="0.1"/>
</linearGradient>
</defs>
</svg>
