<svg width="321" height="76" viewBox="0 0 321 76" fill="none" xmlns="http://www.w3.org/2000/svg">
<g filter="url(#filter0_b_134_1802)">
<rect width="321" height="76" rx="15" transform="matrix(-1 0 0 1 321 0.000488281)" fill="url(#paint0_radial_134_1802)"/>
<rect x="-0.300385" y="0.300385" width="320.399" height="75.3992" rx="14.6996" transform="matrix(-1 0 0 1 320.399 0.000488281)" stroke="url(#paint1_linear_134_1802)" stroke-width="0.60077"/>
</g>
<g filter="url(#filter1_b_134_1802)">
<rect width="305" height="62" rx="10" transform="matrix(-1 0 0 1 313 7.00049)" fill="url(#paint2_linear_134_1802)"/>
</g>
<g filter="url(#filter2_b_134_1802)">
<rect width="52" height="49" rx="10" transform="matrix(-1 0 0 1 70 14.0005)" fill="url(#paint3_linear_134_1802)"/>
</g>
<ellipse cx="48.6064" cy="46.6921" rx="3.41693" ry="4.73113" fill="url(#paint4_linear_134_1802)"/>
<path d="M48.7298 39.7085C47.4154 39.7085 46.1305 40.0983 45.0376 40.8285C43.9447 41.5588 43.0929 42.5967 42.5899 43.8111C42.0869 45.0255 41.9553 46.3617 42.2117 47.6509C42.4681 48.9401 43.1011 50.1242 44.0305 51.0537C44.96 51.9831 46.1441 52.6161 47.4333 52.8725C48.7225 53.1289 50.0587 52.9973 51.2731 52.4943C52.4875 51.9913 53.5254 51.1395 54.2557 50.0466C54.9859 48.9537 55.3757 47.6688 55.3757 46.3543C55.3725 44.5927 54.6713 42.9042 53.4256 41.6585C52.18 40.4129 50.4914 39.7117 48.7298 39.7085ZM51.5694 45.5689C51.5133 45.6256 51.4464 45.6705 51.3728 45.7012C51.2992 45.7318 51.2202 45.7476 51.1405 45.7476C51.0607 45.7476 50.9817 45.7318 50.9081 45.7012C50.8345 45.6705 50.7677 45.6256 50.7115 45.5689L49.334 44.1914V49.9794C49.334 50.1396 49.2704 50.2933 49.1571 50.4066C49.0437 50.5199 48.8901 50.5835 48.7298 50.5835C48.5696 50.5835 48.4159 50.5199 48.3026 50.4066C48.1893 50.2933 48.1257 50.1396 48.1257 49.9794V44.1914L46.7361 45.581C46.6223 45.6948 46.468 45.7587 46.3071 45.7587C46.1462 45.7587 45.9919 45.6948 45.8782 45.581C45.7644 45.4672 45.7005 45.3129 45.7005 45.1521C45.7005 44.9912 45.7644 44.8369 45.8782 44.7231L48.2948 42.3064C48.351 42.2498 48.4178 42.2048 48.4914 42.1742C48.5651 42.1435 48.644 42.1277 48.7238 42.1277C48.8036 42.1277 48.8825 42.1435 48.9561 42.1742C49.0298 42.2048 49.0966 42.2498 49.1528 42.3064L51.5694 44.7231C51.6801 44.836 51.7421 44.9879 51.7421 45.146C51.7421 45.3042 51.6801 45.456 51.5694 45.5689Z" fill="url(#paint5_linear_134_1802)"/>
<path d="M48.7292 38.5C49.1053 38.5013 49.4809 38.5296 49.853 38.5846C49.9392 38.5976 50.0273 38.5913 50.1108 38.5662C50.1944 38.5411 50.2714 38.4979 50.3363 38.4396C50.4015 38.3823 50.4536 38.3117 50.4891 38.2324C50.5245 38.1532 50.5425 38.0673 50.5417 37.9805V29.4375C50.5394 29.2782 50.4743 29.1261 50.3605 29.0146L45.5271 24.1813C45.4156 24.0674 45.2636 24.0023 45.1042 24H36.0417C35.4007 24 34.786 24.2546 34.3328 24.7078C33.8796 25.161 33.625 25.7757 33.625 26.4167V44.5417C33.625 45.1827 33.8796 45.7974 34.3328 46.2506C34.786 46.7038 35.4007 46.9584 36.0417 46.9584H40.2709C40.4311 46.9584 40.5848 46.8947 40.6981 46.7814C40.8114 46.6681 40.875 46.5145 40.875 46.3542C40.8782 44.2722 41.7067 42.2763 43.179 40.804C44.6512 39.3318 46.6471 38.5032 48.7292 38.5ZM46.9167 28.8333C46.5962 28.8333 46.2889 28.706 46.0623 28.4794C45.8357 28.2528 45.7084 27.9455 45.7084 27.625V26.0663L48.4755 28.8333H46.9167Z" fill="url(#paint6_linear_134_1802)"/>
<path d="M81.7891 22.7271V29.8911C81.7891 31.5005 82.8047 32.6333 84.6016 32.6333C86.3984 32.6333 87.4219 31.5005 87.4219 29.8911V22.7271H89.1641V30.0396C89.1641 32.4692 87.4297 34.188 84.6016 34.188C81.7734 34.188 80.0391 32.4692 80.0391 30.0396V22.7271H81.7891ZM95.3203 25.6489C97.4062 25.6489 98.7812 27.2896 98.7812 29.8911C98.7812 32.4927 97.4141 34.1411 95.3516 34.1411C94.1719 34.1411 93.2344 33.563 92.7656 32.6489H92.7266V36.7192H91.0391V25.7817H92.6719V27.1958H92.7031C93.1875 26.2505 94.1328 25.6489 95.3203 25.6489ZM94.875 32.7114C96.2109 32.7114 97.0469 31.6177 97.0469 29.8911C97.0469 28.1724 96.2109 27.0708 94.875 27.0708C93.5859 27.0708 92.7188 28.1958 92.7188 29.8911C92.7188 31.6021 93.5781 32.7114 94.875 32.7114ZM100.148 34.0005V22.7271H101.836V34.0005H100.148ZM107.102 34.1567C104.75 34.1567 103.203 32.5396 103.203 29.8911C103.203 27.2505 104.758 25.6333 107.102 25.6333C109.445 25.6333 111 27.2505 111 29.8911C111 32.5396 109.453 34.1567 107.102 34.1567ZM107.102 32.7661C108.43 32.7661 109.281 31.7192 109.281 29.8911C109.281 28.0708 108.422 27.0239 107.102 27.0239C105.781 27.0239 104.922 28.0708 104.922 29.8911C104.922 31.7192 105.781 32.7661 107.102 32.7661ZM115.18 32.8052C116.359 32.8052 117.281 31.9927 117.281 30.9224V30.2739L115.258 30.3989C114.25 30.4692 113.68 30.9146 113.68 31.6177C113.68 32.3364 114.273 32.8052 115.18 32.8052ZM114.711 34.1411C113.102 34.1411 111.977 33.1411 111.977 31.6646C111.977 30.2271 113.078 29.3442 115.031 29.2349L117.281 29.1021V28.4692C117.281 27.5552 116.664 27.0083 115.633 27.0083C114.656 27.0083 114.047 27.4771 113.898 28.2114H112.305C112.398 26.7271 113.664 25.6333 115.695 25.6333C117.688 25.6333 118.961 26.688 118.961 28.3364V34.0005H117.344V32.6489H117.305C116.828 33.563 115.789 34.1411 114.711 34.1411ZM123.688 34.1411C121.609 34.1411 120.234 32.4849 120.234 29.8911C120.234 27.2974 121.609 25.6489 123.672 25.6489C124.852 25.6489 125.789 26.2427 126.25 27.1489H126.281V22.7271H127.977V34.0005H126.336V32.6021H126.305C125.82 33.5396 124.883 34.1411 123.688 34.1411ZM124.133 27.0708C122.797 27.0708 121.961 28.1646 121.961 29.8911C121.961 31.6255 122.797 32.7114 124.133 32.7114C125.43 32.7114 126.297 31.6099 126.297 29.8911C126.297 28.188 125.43 27.0708 124.133 27.0708ZM130.375 36.4067H128.875L132.875 22.7271H134.375L130.375 36.4067ZM142.234 28.6099H140.625C140.453 27.7349 139.797 27.0396 138.695 27.0396C137.391 27.0396 136.531 28.1255 136.531 29.8911C136.531 31.6958 137.398 32.7427 138.711 32.7427C139.75 32.7427 140.43 32.1724 140.625 31.2192H142.25C142.07 32.9692 140.672 34.1567 138.695 34.1567C136.344 34.1567 134.812 32.5474 134.812 29.8911C134.812 27.2817 136.344 25.6333 138.68 25.6333C140.797 25.6333 142.086 26.9927 142.234 28.6099ZM143.445 34.0005V25.7817H145.055V27.1802H145.094C145.367 26.2192 146.102 25.6489 147.07 25.6489C147.312 25.6489 147.523 25.688 147.648 25.7114V27.2817C147.516 27.2271 147.219 27.188 146.891 27.188C145.805 27.188 145.133 27.9146 145.133 29.0786V34.0005H143.445ZM151.773 26.9927C150.594 26.9927 149.766 27.8911 149.68 29.1333H153.789C153.75 27.8755 152.953 26.9927 151.773 26.9927ZM153.781 31.5864H155.383C155.148 33.0864 153.727 34.1567 151.844 34.1567C149.43 34.1567 147.969 32.5239 147.969 29.9302C147.969 27.3521 149.453 25.6333 151.773 25.6333C154.055 25.6333 155.477 27.2427 155.477 29.7349V30.313H149.672V30.4146C149.672 31.8442 150.531 32.7896 151.883 32.7896C152.844 32.7896 153.555 32.3052 153.781 31.5864ZM159.664 32.8052C160.844 32.8052 161.766 31.9927 161.766 30.9224V30.2739L159.742 30.3989C158.734 30.4692 158.164 30.9146 158.164 31.6177C158.164 32.3364 158.758 32.8052 159.664 32.8052ZM159.195 34.1411C157.586 34.1411 156.461 33.1411 156.461 31.6646C156.461 30.2271 157.562 29.3442 159.516 29.2349L161.766 29.1021V28.4692C161.766 27.5552 161.148 27.0083 160.117 27.0083C159.141 27.0083 158.531 27.4771 158.383 28.2114H156.789C156.883 26.7271 158.148 25.6333 160.18 25.6333C162.172 25.6333 163.445 26.688 163.445 28.3364V34.0005H161.828V32.6489H161.789C161.312 33.563 160.273 34.1411 159.195 34.1411ZM165.578 23.8364H167.273V25.7817H168.836V27.1177H167.273V31.6489C167.273 32.3599 167.586 32.6802 168.273 32.6802C168.445 32.6802 168.719 32.6646 168.828 32.6411V33.9771C168.641 34.0239 168.266 34.0552 167.891 34.0552C166.227 34.0552 165.578 33.4224 165.578 31.8364V27.1177H164.383V25.7817H165.578V23.8364ZM173.461 26.9927C172.281 26.9927 171.453 27.8911 171.367 29.1333H175.477C175.438 27.8755 174.641 26.9927 173.461 26.9927ZM175.469 31.5864H177.07C176.836 33.0864 175.414 34.1567 173.531 34.1567C171.117 34.1567 169.656 32.5239 169.656 29.9302C169.656 27.3521 171.141 25.6333 173.461 25.6333C175.742 25.6333 177.164 27.2427 177.164 29.7349V30.313H171.359V30.4146C171.359 31.8442 172.219 32.7896 173.57 32.7896C174.531 32.7896 175.242 32.3052 175.469 31.5864ZM184.812 34.1411C182.734 34.1411 181.359 32.4849 181.359 29.8911C181.359 27.2974 182.734 25.6489 184.797 25.6489C185.977 25.6489 186.914 26.2427 187.375 27.1489H187.406V22.7271H189.102V34.0005H187.461V32.6021H187.43C186.945 33.5396 186.008 34.1411 184.812 34.1411ZM185.258 27.0708C183.922 27.0708 183.086 28.1646 183.086 29.8911C183.086 31.6255 183.922 32.7114 185.258 32.7114C186.555 32.7114 187.422 31.6099 187.422 29.8911C187.422 28.188 186.555 27.0708 185.258 27.0708ZM194.367 34.1567C192.016 34.1567 190.469 32.5396 190.469 29.8911C190.469 27.2505 192.023 25.6333 194.367 25.6333C196.711 25.6333 198.266 27.2505 198.266 29.8911C198.266 32.5396 196.719 34.1567 194.367 34.1567ZM194.367 32.7661C195.695 32.7661 196.547 31.7192 196.547 29.8911C196.547 28.0708 195.688 27.0239 194.367 27.0239C193.047 27.0239 192.188 28.0708 192.188 29.8911C192.188 31.7192 193.047 32.7661 194.367 32.7661ZM206.625 28.6099H205.016C204.844 27.7349 204.188 27.0396 203.086 27.0396C201.781 27.0396 200.922 28.1255 200.922 29.8911C200.922 31.6958 201.789 32.7427 203.102 32.7427C204.141 32.7427 204.82 32.1724 205.016 31.2192H206.641C206.461 32.9692 205.062 34.1567 203.086 34.1567C200.734 34.1567 199.203 32.5474 199.203 29.8911C199.203 27.2817 200.734 25.6333 203.07 25.6333C205.188 25.6333 206.477 26.9927 206.625 28.6099ZM214.883 25.7817V34.0005H213.266V32.6099H213.227C212.773 33.5942 211.938 34.1489 210.68 34.1489C208.891 34.1489 207.797 32.9849 207.797 31.1021V25.7817H209.484V30.7739C209.484 32.0239 210.078 32.6958 211.242 32.6958C212.461 32.6958 213.195 31.8521 213.195 30.5708V25.7817H214.883ZM216.555 34.0005V25.7817H218.164V27.1646H218.203C218.57 26.2505 219.43 25.6411 220.539 25.6411C221.68 25.6411 222.508 26.2271 222.836 27.2505H222.875C223.297 26.2505 224.266 25.6411 225.438 25.6411C227.062 25.6411 228.125 26.7192 228.125 28.3521V34.0005H226.43V28.7583C226.43 27.6958 225.859 27.0864 224.859 27.0864C223.859 27.0864 223.164 27.8286 223.164 28.8677V34.0005H221.508V28.6333C221.508 27.688 220.906 27.0864 219.953 27.0864C218.953 27.0864 218.242 27.8677 218.242 28.9224V34.0005H216.555ZM233.195 26.9927C232.016 26.9927 231.188 27.8911 231.102 29.1333H235.211C235.172 27.8755 234.375 26.9927 233.195 26.9927ZM235.203 31.5864H236.805C236.57 33.0864 235.148 34.1567 233.266 34.1567C230.852 34.1567 229.391 32.5239 229.391 29.9302C229.391 27.3521 230.875 25.6333 233.195 25.6333C235.477 25.6333 236.898 27.2427 236.898 29.7349V30.313H231.094V30.4146C231.094 31.8442 231.953 32.7896 233.305 32.7896C234.266 32.7896 234.977 32.3052 235.203 31.5864ZM238.211 34.0005V25.7817H239.82V27.1567H239.859C240.305 26.2192 241.18 25.6411 242.445 25.6411C244.258 25.6411 245.297 26.7974 245.297 28.6802V34.0005H243.602V29.0083C243.602 27.7739 243.023 27.0942 241.852 27.0942C240.664 27.0942 239.898 27.938 239.898 29.2114V34.0005H238.211ZM247.422 23.8364H249.117V25.7817H250.68V27.1177H249.117V31.6489C249.117 32.3599 249.43 32.6802 250.117 32.6802C250.289 32.6802 250.562 32.6646 250.672 32.6411V33.9771C250.484 34.0239 250.109 34.0552 249.734 34.0552C248.07 34.0552 247.422 33.4224 247.422 31.8364V27.1177H246.227V25.7817H247.422V23.8364ZM251.922 28.1099C251.922 26.6411 253.219 25.6333 255.141 25.6333C256.969 25.6333 258.25 26.6567 258.305 28.1177H256.719C256.641 27.3755 256.039 26.9146 255.094 26.9146C254.18 26.9146 253.57 27.3599 253.57 28.0083C253.57 28.5161 253.977 28.8599 254.828 29.0708L256.211 29.3911C257.867 29.7896 258.492 30.4146 258.492 31.6255C258.492 33.1255 257.094 34.1567 255.078 34.1567C253.133 34.1567 251.844 33.1489 251.711 31.6411H253.383C253.516 32.4302 254.125 32.8677 255.156 32.8677C256.172 32.8677 256.797 32.4458 256.797 31.7817C256.797 31.2583 256.484 30.9692 255.625 30.7505L254.156 30.3911C252.672 30.0317 251.922 29.2583 251.922 28.1099ZM266.586 34.1567C264.234 34.1567 262.688 32.5396 262.688 29.8911C262.688 27.2505 264.242 25.6333 266.586 25.6333C268.93 25.6333 270.484 27.2505 270.484 29.8911C270.484 32.5396 268.938 34.1567 266.586 34.1567ZM266.586 32.7661C267.914 32.7661 268.766 31.7192 268.766 29.8911C268.766 28.0708 267.906 27.0239 266.586 27.0239C265.266 27.0239 264.406 28.0708 264.406 29.8911C264.406 31.7192 265.266 32.7661 266.586 32.7661ZM271.789 34.0005V25.7817H273.398V27.1802H273.438C273.711 26.2192 274.445 25.6489 275.414 25.6489C275.656 25.6489 275.867 25.688 275.992 25.7114V27.2817C275.859 27.2271 275.562 27.188 275.234 27.188C274.148 27.188 273.477 27.9146 273.477 29.0786V34.0005H271.789ZM79.8906 53.0005V44.7817H81.5781V53.0005H79.8906ZM80.7344 43.5786C80.1953 43.5786 79.7578 43.1489 79.7578 42.6177C79.7578 42.0786 80.1953 41.6489 80.7344 41.6489C81.2812 41.6489 81.7188 42.0786 81.7188 42.6177C81.7188 43.1489 81.2812 43.5786 80.7344 43.5786ZM83.3047 53.0005V44.7817H84.9141V46.1646H84.9531C85.3203 45.2505 86.1797 44.6411 87.2891 44.6411C88.4297 44.6411 89.2578 45.2271 89.5859 46.2505H89.625C90.0469 45.2505 91.0156 44.6411 92.1875 44.6411C93.8125 44.6411 94.875 45.7192 94.875 47.3521V53.0005H93.1797V47.7583C93.1797 46.6958 92.6094 46.0864 91.6094 46.0864C90.6094 46.0864 89.9141 46.8286 89.9141 47.8677V53.0005H88.2578V47.6333C88.2578 46.688 87.6562 46.0864 86.7031 46.0864C85.7031 46.0864 84.9922 46.8677 84.9922 47.9224V53.0005H83.3047ZM100.789 44.6489C102.875 44.6489 104.25 46.2896 104.25 48.8911C104.25 51.4927 102.883 53.1411 100.82 53.1411C99.6406 53.1411 98.7031 52.563 98.2344 51.6489H98.1953V55.7192H96.5078V44.7817H98.1406V46.1958H98.1719C98.6562 45.2505 99.6016 44.6489 100.789 44.6489ZM100.344 51.7114C101.68 51.7114 102.516 50.6177 102.516 48.8911C102.516 47.1724 101.68 46.0708 100.344 46.0708C99.0547 46.0708 98.1875 47.1958 98.1875 48.8911C98.1875 50.6021 99.0469 51.7114 100.344 51.7114ZM109.086 53.1567C106.734 53.1567 105.188 51.5396 105.188 48.8911C105.188 46.2505 106.742 44.6333 109.086 44.6333C111.43 44.6333 112.984 46.2505 112.984 48.8911C112.984 51.5396 111.438 53.1567 109.086 53.1567ZM109.086 51.7661C110.414 51.7661 111.266 50.7192 111.266 48.8911C111.266 47.0708 110.406 46.0239 109.086 46.0239C107.766 46.0239 106.906 47.0708 106.906 48.8911C106.906 50.7192 107.766 51.7661 109.086 51.7661ZM114.289 53.0005V44.7817H115.898V46.1802H115.938C116.211 45.2192 116.945 44.6489 117.914 44.6489C118.156 44.6489 118.367 44.688 118.492 44.7114V46.2817C118.359 46.2271 118.062 46.188 117.734 46.188C116.648 46.188 115.977 46.9146 115.977 48.0786V53.0005H114.289ZM120.031 42.8364H121.727V44.7817H123.289V46.1177H121.727V50.6489C121.727 51.3599 122.039 51.6802 122.727 51.6802C122.898 51.6802 123.172 51.6646 123.281 51.6411V52.9771C123.094 53.0239 122.719 53.0552 122.344 53.0552C120.68 53.0552 120.031 52.4224 120.031 50.8364V46.1177H118.836V44.7817H120.031V42.8364ZM138.773 44.7817L136.523 53.0005H134.766L133.039 46.8442H133L131.289 53.0005H129.547L127.289 44.7817H128.977L130.477 51.2505H130.508L132.219 44.7817H133.844L135.562 51.2505H135.602L137.102 44.7817H138.773ZM143.195 45.9927C142.016 45.9927 141.188 46.8911 141.102 48.1333H145.211C145.172 46.8755 144.375 45.9927 143.195 45.9927ZM145.203 50.5864H146.805C146.57 52.0864 145.148 53.1567 143.266 53.1567C140.852 53.1567 139.391 51.5239 139.391 48.9302C139.391 46.3521 140.875 44.6333 143.195 44.6333C145.477 44.6333 146.898 46.2427 146.898 48.7349V49.313H141.094V49.4146C141.094 50.8442 141.953 51.7896 143.305 51.7896C144.266 51.7896 144.977 51.3052 145.203 50.5864ZM152.586 53.1411C151.383 53.1411 150.453 52.5552 149.945 51.6021H149.914V53.0005H148.273V41.7271H149.961V46.1802H150C150.492 45.2271 151.43 44.6489 152.594 44.6489C154.664 44.6489 156.016 46.2896 156.016 48.8911C156.016 51.5005 154.672 53.1411 152.586 53.1411ZM152.133 46.0708C150.852 46.0708 149.953 47.1958 149.953 48.8911C149.953 50.6021 150.852 51.7114 152.133 51.7114C153.461 51.7114 154.281 50.6333 154.281 48.8911C154.281 47.1646 153.461 46.0708 152.133 46.0708ZM161.617 44.6489C163.703 44.6489 165.078 46.2896 165.078 48.8911C165.078 51.4927 163.711 53.1411 161.648 53.1411C160.469 53.1411 159.531 52.563 159.062 51.6489H159.023V55.7192H157.336V44.7817H158.969V46.1958H159C159.484 45.2505 160.43 44.6489 161.617 44.6489ZM161.172 51.7114C162.508 51.7114 163.344 50.6177 163.344 48.8911C163.344 47.1724 162.508 46.0708 161.172 46.0708C159.883 46.0708 159.016 47.1958 159.016 48.8911C159.016 50.6021 159.875 51.7114 161.172 51.7114ZM169.258 51.8052C170.438 51.8052 171.359 50.9927 171.359 49.9224V49.2739L169.336 49.3989C168.328 49.4692 167.758 49.9146 167.758 50.6177C167.758 51.3364 168.352 51.8052 169.258 51.8052ZM168.789 53.1411C167.18 53.1411 166.055 52.1411 166.055 50.6646C166.055 49.2271 167.156 48.3442 169.109 48.2349L171.359 48.1021V47.4692C171.359 46.5552 170.742 46.0083 169.711 46.0083C168.734 46.0083 168.125 46.4771 167.977 47.2114H166.383C166.477 45.7271 167.742 44.6333 169.773 44.6333C171.766 44.6333 173.039 45.688 173.039 47.3364V53.0005H171.422V51.6489H171.383C170.906 52.563 169.867 53.1411 168.789 53.1411ZM178.18 51.6333C179.5 51.6333 180.367 50.563 180.367 48.8677C180.367 47.1802 179.5 46.0708 178.18 46.0708C176.883 46.0708 176.039 47.1567 176.039 48.8677C176.039 50.5864 176.883 51.6333 178.18 51.6333ZM178.195 56.0942C176.258 56.0942 174.82 55.063 174.609 53.6411H176.305C176.547 54.3286 177.297 54.7817 178.258 54.7817C179.578 54.7817 180.359 54.0317 180.359 52.9067V51.5552H180.328C179.867 52.4458 178.898 53.0317 177.727 53.0317C175.664 53.0317 174.312 51.4224 174.312 48.8599C174.312 46.2739 175.656 44.6489 177.766 44.6489C178.93 44.6489 179.883 45.2349 180.383 46.188H180.414V44.7817H182.055V52.8521C182.055 54.813 180.539 56.0942 178.195 56.0942ZM187.164 45.9927C185.984 45.9927 185.156 46.8911 185.07 48.1333H189.18C189.141 46.8755 188.344 45.9927 187.164 45.9927ZM189.172 50.5864H190.773C190.539 52.0864 189.117 53.1567 187.234 53.1567C184.82 53.1567 183.359 51.5239 183.359 48.9302C183.359 46.3521 184.844 44.6333 187.164 44.6333C189.445 44.6333 190.867 46.2427 190.867 48.7349V49.313H185.062V49.4146C185.062 50.8442 185.922 51.7896 187.273 51.7896C188.234 51.7896 188.945 51.3052 189.172 50.5864Z" fill="url(#paint7_linear_134_1802)"/>
<defs>
<filter id="filter0_b_134_1802" x="-15" y="-14.9995" width="351" height="106" filterUnits="userSpaceOnUse" color-interpolation-filters="sRGB">
<feFlood flood-opacity="0" result="BackgroundImageFix"/>
<feGaussianBlur in="BackgroundImageFix" stdDeviation="7.5"/>
<feComposite in2="SourceAlpha" operator="in" result="effect1_backgroundBlur_134_1802"/>
<feBlend mode="normal" in="SourceGraphic" in2="effect1_backgroundBlur_134_1802" result="shape"/>
</filter>
<filter id="filter1_b_134_1802" x="-9.83167" y="-10.8312" width="340.663" height="97.6633" filterUnits="userSpaceOnUse" color-interpolation-filters="sRGB">
<feFlood flood-opacity="0" result="BackgroundImageFix"/>
<feGaussianBlur in="BackgroundImageFix" stdDeviation="8.91583"/>
<feComposite in2="SourceAlpha" operator="in" result="effect1_backgroundBlur_134_1802"/>
<feBlend mode="normal" in="SourceGraphic" in2="effect1_backgroundBlur_134_1802" result="shape"/>
</filter>
<filter id="filter2_b_134_1802" x="0.168331" y="-3.83118" width="87.6633" height="84.6633" filterUnits="userSpaceOnUse" color-interpolation-filters="sRGB">
<feFlood flood-opacity="0" result="BackgroundImageFix"/>
<feGaussianBlur in="BackgroundImageFix" stdDeviation="8.91583"/>
<feComposite in2="SourceAlpha" operator="in" result="effect1_backgroundBlur_134_1802"/>
<feBlend mode="normal" in="SourceGraphic" in2="effect1_backgroundBlur_134_1802" result="shape"/>
</filter>
<radialGradient id="paint0_radial_134_1802" cx="0" cy="0" r="1" gradientUnits="userSpaceOnUse" gradientTransform="translate(160.5 76) rotate(-103.595) scale(75.4275 301.78)">
<stop stop-color="#7544FF" stop-opacity="0.5"/>
<stop offset="0.557971" stop-color="#0C0E19" stop-opacity="0.332609"/>
<stop offset="1" stop-color="#0C0E19" stop-opacity="0.2"/>
</radialGradient>
<linearGradient id="paint1_linear_134_1802" x1="-10.7" y1="10.1333" x2="9.92776" y2="121.02" gradientUnits="userSpaceOnUse">
<stop offset="0.00626218" stop-color="#635B79" stop-opacity="0.2"/>
<stop offset="1" stop-color="#A68DED"/>
</linearGradient>
<linearGradient id="paint2_linear_134_1802" x1="15.014" y1="3.44125" x2="25.6325" y2="57.2676" gradientUnits="userSpaceOnUse">
<stop stop-color="#B1B1B1" stop-opacity="0.32"/>
<stop offset="1" stop-color="#363567" stop-opacity="0.2"/>
</linearGradient>
<linearGradient id="paint3_linear_134_1802" x1="2.55977" y1="2.7197" x2="24.5696" y2="26.7881" gradientUnits="userSpaceOnUse">
<stop stop-color="#B1B1B1" stop-opacity="0.32"/>
<stop offset="1" stop-color="#363567" stop-opacity="0.2"/>
</linearGradient>
<linearGradient id="paint4_linear_134_1802" x1="48.3435" y1="43.2751" x2="48.6064" y2="51.4232" gradientUnits="userSpaceOnUse">
<stop stop-color="#CEC1F1"/>
<stop offset="1" stop-color="#F2E3F2"/>
</linearGradient>
<linearGradient id="paint5_linear_134_1802" x1="42.7383" y1="40.4462" x2="55.9667" y2="50.1214" gradientUnits="userSpaceOnUse">
<stop stop-color="#8559F4"/>
<stop offset="1" stop-color="#13172A"/>
</linearGradient>
<linearGradient id="paint6_linear_134_1802" x1="34.4577" y1="25.2743" x2="73.345" y2="45.7895" gradientUnits="userSpaceOnUse">
<stop stop-color="#7544FF"/>
<stop offset="1" stop-color="white"/>
</linearGradient>
<linearGradient id="paint7_linear_134_1802" x1="79" y1="38.0005" x2="312" y2="38.0005" gradientUnits="userSpaceOnUse">
<stop stop-color="#CEC1F1"/>
<stop offset="1" stop-color="#FFBFFF"/>
</linearGradient>
</defs>
</svg>
