<svg width="30" height="30" viewBox="0 0 30 30" fill="none" xmlns="http://www.w3.org/2000/svg">
<path d="M16.8656 16.7246H13.7531C13.3781 16.7246 13.0781 17.0246 13.0781 17.3996C13.0781 17.7746 13.3781 18.0746 13.7531 18.0746H16.8656C17.2406 18.0746 17.5406 17.7746 17.5406 17.3996C17.5406 17.0246 17.2406 16.7246 16.8656 16.7246Z" fill="url(#paint0_linear_134_1862)"/>
<path d="M11.802 16.7246H10.2395C9.86445 16.7246 9.56445 17.0246 9.56445 17.3996C9.56445 17.7746 9.86445 18.0746 10.2395 18.0746H11.802C12.177 18.0746 12.477 17.7746 12.477 17.3996C12.477 17.0246 12.177 16.7246 11.802 16.7246Z" fill="url(#paint1_linear_134_1862)"/>
<path d="M23.175 5.27529L16.3 2.70029C15.5875 2.43779 14.425 2.43779 13.7125 2.70029L6.8375 5.27529C5.5125 5.77529 4.4375 7.32529 4.4375 8.73779V18.8628C4.4375 19.8753 5.1 21.2128 5.9125 21.8128L12.7875 26.9503C14 27.8628 15.9875 27.8628 17.2 26.9503L24.075 21.8128C24.8875 21.2003 25.55 19.8753 25.55 18.8628V8.73779C25.5625 7.32529 24.4875 5.77529 23.175 5.27529ZM22.7125 17.0628C22.6875 19.6503 21.975 20.3003 19.2875 20.3003H10.725C7.9875 20.3003 7.3 19.6253 7.3 16.9128V14.0003C7.3 13.6503 7.575 13.3753 7.925 13.3753H22.0875C22.4375 13.3753 22.7125 13.6503 22.7125 14.0003V17.0628ZM22.7125 11.3878C22.7125 11.7378 22.4375 12.0128 22.0875 12.0128H7.925C7.575 12.0128 7.3 11.7378 7.3 11.3878V10.5878C7.3 8.13779 7.875 7.35029 10.0125 7.21279C10.2375 7.21279 10.475 7.20029 10.725 7.20029H19.2875C22.025 7.20029 22.7125 7.87529 22.7125 10.5878V11.3878Z" fill="url(#paint2_linear_134_1862)"/>
<defs>
<linearGradient id="paint0_linear_134_1862" x1="14.0858" y1="16.9859" x2="14.2094" y2="18.1877" gradientUnits="userSpaceOnUse">
<stop stop-color="#CEC1F1"/>
<stop offset="1" stop-color="#7544FF"/>
</linearGradient>
<linearGradient id="paint1_linear_134_1862" x1="10.2221" y1="16.9859" x2="10.4089" y2="18.171" gradientUnits="userSpaceOnUse">
<stop stop-color="#CEC1F1"/>
<stop offset="1" stop-color="#7544FF"/>
</linearGradient>
<linearGradient id="paint2_linear_134_1862" x1="9.20486" y1="7.36753" x2="17.0676" y2="26.7954" gradientUnits="userSpaceOnUse">
<stop stop-color="#CEC1F1"/>
<stop offset="1" stop-color="#7544FF"/>
</linearGradient>
</defs>
</svg>
