<svg width="43" height="43" viewBox="0 0 43 43" fill="none" xmlns="http://www.w3.org/2000/svg">
<path d="M16.108 22.7296L15.756 22.9238C15.6878 22.9598 15.6276 23.0093 15.5792 23.0693C15.5307 23.1292 15.495 23.1985 15.4742 23.2727C15.4534 23.347 15.4479 23.4247 15.4581 23.5011C15.4683 23.5775 15.494 23.6511 15.5336 23.7173L16.5078 25.3298C16.5927 25.4646 16.726 25.5617 16.8804 25.6012C17.0347 25.6407 17.1983 25.6195 17.3376 25.5421L17.6937 25.3459C17.8023 25.2884 17.9251 25.2631 18.0476 25.2731C18.1701 25.2831 18.2872 25.328 18.385 25.4023C18.7359 25.6597 19.1178 25.8717 19.5218 26.0332C19.6348 26.0738 19.7329 26.1473 19.8035 26.2444C19.8741 26.3415 19.9138 26.4575 19.9176 26.5774V26.9665C19.9213 27.1235 19.9869 27.2726 20.1002 27.3814C20.2135 27.4901 20.3652 27.5497 20.5222 27.547H22.4707C22.6277 27.5497 22.7794 27.4901 22.8927 27.3814C23.006 27.2726 23.0717 27.1235 23.0754 26.9665V26.5774C23.0791 26.4575 23.1188 26.3415 23.1894 26.2444C23.26 26.1473 23.3582 26.0738 23.4711 26.0332C23.8751 25.8717 24.2571 25.6597 24.6079 25.4023C24.7058 25.328 24.8229 25.2831 24.9454 25.2731C25.0679 25.2631 25.1907 25.2884 25.2993 25.3459L25.6554 25.5421C25.7946 25.6195 25.9582 25.6407 26.1125 25.6012C26.2669 25.5617 26.4002 25.4646 26.4851 25.3298L27.4594 23.7173C27.4989 23.6511 27.5246 23.5775 27.5348 23.5011C27.545 23.4247 27.5396 23.347 27.5187 23.2727C27.4979 23.1985 27.4622 23.1292 27.4138 23.0693C27.3653 23.0093 27.3052 22.9598 27.237 22.9238L26.8849 22.7296C26.7835 22.677 26.7006 22.5947 26.6472 22.4938C26.5938 22.3928 26.5724 22.278 26.5859 22.1646C26.6495 21.7239 26.6495 21.2763 26.5859 20.8356C26.5724 20.7222 26.5938 20.6074 26.6472 20.5064C26.7006 20.4054 26.7835 20.3232 26.8849 20.2706L27.237 20.0764C27.3052 20.0404 27.3653 19.9909 27.4138 19.9309C27.4622 19.8709 27.4979 19.8017 27.5187 19.7275C27.5396 19.6532 27.545 19.5755 27.5348 19.4991C27.5246 19.4226 27.4989 19.3491 27.4594 19.2829L26.4851 17.6704C26.4002 17.5356 26.2669 17.4385 26.1125 17.399C25.9582 17.3595 25.7946 17.3806 25.6554 17.4581L25.2993 17.6543C25.1907 17.7118 25.0679 17.737 24.9454 17.727C24.8229 17.717 24.7058 17.6722 24.6079 17.5978C24.2571 17.3405 23.8751 17.1285 23.4711 16.9669C23.3582 16.9264 23.26 16.8528 23.1894 16.7558C23.1188 16.6587 23.0791 16.5427 23.0754 16.4227V16.0337C23.0717 15.8767 23.006 15.7275 22.8927 15.6188C22.7794 15.51 22.6277 15.4505 22.4707 15.4532H20.5222C20.3652 15.4505 20.2135 15.51 20.1002 15.6188C19.9869 15.7275 19.9213 15.8767 19.9176 16.0337V16.4227C19.9138 16.5427 19.8741 16.6587 19.8035 16.7558C19.7329 16.8528 19.6348 16.9264 19.5218 16.9669C19.1178 17.1285 18.7359 17.3405 18.385 17.5978C18.2872 17.6722 18.1701 17.717 18.0476 17.727C17.9251 17.737 17.8023 17.7118 17.6937 17.6543L17.3376 17.4581C17.1983 17.3806 17.0347 17.3595 16.8804 17.399C16.726 17.4385 16.5927 17.5356 16.5078 17.6704L15.5336 19.2829C15.494 19.3491 15.4683 19.4226 15.4581 19.4991C15.4479 19.5755 15.4534 19.6532 15.4742 19.7275C15.495 19.8017 15.5307 19.8709 15.5792 19.9309C15.6276 19.9909 15.6878 20.0404 15.756 20.0764L16.108 20.2706C16.2094 20.3232 16.2923 20.4054 16.3457 20.5064C16.3992 20.6074 16.4205 20.7222 16.407 20.8356C16.3434 21.2763 16.3434 21.7239 16.407 22.1646C16.4205 22.278 16.3992 22.3928 16.3457 22.4938C16.2923 22.5947 16.2094 22.677 16.108 22.7296ZM21.4992 19.2325C21.9476 19.2325 22.386 19.3655 22.759 19.6147C23.1319 19.8638 23.4225 20.218 23.5941 20.6323C23.7657 21.0467 23.8107 21.5026 23.7232 21.9425C23.6357 22.3823 23.4197 22.7864 23.1026 23.1035C22.7854 23.4206 22.3814 23.6366 21.9415 23.7241C21.5017 23.8116 21.0457 23.7667 20.6314 23.5951C20.217 23.4234 19.8629 23.1328 19.6137 22.7599C19.3646 22.387 19.2316 21.9486 19.2316 21.5001C19.2316 20.8987 19.4705 20.3219 19.8957 19.8967C20.321 19.4714 20.8978 19.2325 21.4992 19.2325Z" fill="#7544FF"/>
<path d="M21.5 11.4219C22.5631 11.4219 23.6023 11.1066 24.4862 10.516C25.3701 9.92541 26.059 9.08595 26.4659 8.1038C26.8727 7.12165 26.9791 6.04091 26.7717 4.99827C26.5643 3.95562 26.0524 2.99789 25.3007 2.24618C24.549 1.49447 23.5913 0.982552 22.5486 0.775157C21.506 0.567761 20.4252 0.674204 19.4431 1.08102C18.4609 1.48785 17.6215 2.17677 17.0309 3.06069C16.4402 3.9446 16.125 4.9838 16.125 6.04688C16.125 7.47242 16.6913 8.83957 17.6993 9.84758C18.7073 10.8556 20.0745 11.4219 21.5 11.4219ZM21.5 5.03906C21.6993 5.03906 21.8942 5.09817 22.0599 5.20891C22.2256 5.31965 22.3548 5.47705 22.4311 5.6612C22.5074 5.84536 22.5273 6.048 22.4884 6.24349C22.4496 6.43899 22.3536 6.61856 22.2126 6.75951C22.0717 6.90045 21.8921 6.99644 21.6966 7.03532C21.5011 7.07421 21.2985 7.05425 21.1143 6.97797C20.9302 6.9017 20.7728 6.77252 20.662 6.60679C20.5513 6.44105 20.4922 6.2462 20.4922 6.04688C20.4922 5.77959 20.5984 5.52325 20.7874 5.33425C20.9764 5.14524 21.2327 5.03906 21.5 5.03906Z" fill="#7544FF"/>
<path d="M42.3281 21.5C42.3281 20.4369 42.0129 19.3977 41.4223 18.5138C40.8317 17.6299 39.9922 16.941 39.0101 16.5341C38.0279 16.1273 36.9472 16.0209 35.9045 16.2283C34.8619 16.4357 33.9041 16.9476 33.1524 17.6993C32.4007 18.451 31.8888 19.4087 31.6814 20.4514C31.474 21.494 31.5805 22.5748 31.9873 23.5569C32.3941 24.5391 33.083 25.3785 33.9669 25.9692C34.8509 26.5598 35.8901 26.875 36.9531 26.875C38.3787 26.875 39.7458 26.3087 40.7538 25.3007C41.7618 24.2927 42.3281 22.9255 42.3281 21.5ZM35.2734 22.5078C35.0741 22.5078 34.8793 22.4487 34.7135 22.338C34.5478 22.2272 34.4186 22.0698 34.3423 21.8857C34.2661 21.7015 34.2461 21.4989 34.285 21.3034C34.3239 21.1079 34.4199 20.9283 34.5608 20.7874C34.7018 20.6464 34.8813 20.5504 35.0768 20.5116C35.2723 20.4727 35.475 20.4926 35.6591 20.5689C35.8433 20.6452 36.0007 20.7744 36.1114 20.9401C36.2221 21.1058 36.2813 21.3007 36.2813 21.5C36.2813 21.7673 36.1751 22.0236 35.9861 22.2126C35.7971 22.4016 35.5407 22.5078 35.2734 22.5078ZM38.6328 22.5078C38.4335 22.5078 38.2386 22.4487 38.0729 22.338C37.9072 22.2272 37.778 22.0698 37.7017 21.8857C37.6254 21.7015 37.6055 21.4989 37.6444 21.3034C37.6833 21.1079 37.7792 20.9283 37.9202 20.7874C38.0611 20.6464 38.2407 20.5504 38.4362 20.5116C38.6317 20.4727 38.8343 20.4926 39.0185 20.5689C39.2026 20.6452 39.36 20.7744 39.4708 20.9401C39.5815 21.1058 39.6406 21.3007 39.6406 21.5C39.6406 21.7673 39.5344 22.0236 39.3454 22.2126C39.1564 22.4016 38.9001 22.5078 38.6328 22.5078Z" fill="#7544FF"/>
<path d="M26.875 36.9531C26.875 35.8901 26.5598 34.8509 25.9692 33.9669C25.3785 33.083 24.5391 32.3941 23.5569 31.9873C22.5748 31.5805 21.494 31.474 20.4514 31.6814C19.4087 31.8888 18.451 32.4007 17.6993 33.1524C16.9476 33.9041 16.4357 34.8619 16.2283 35.9045C16.0209 36.9472 16.1273 38.0279 16.5341 39.0101C16.941 39.9922 17.6299 40.8317 18.5138 41.4223C19.3977 42.0129 20.4369 42.3281 21.5 42.3281C22.9255 42.3281 24.2927 41.7618 25.3007 40.7538C26.3087 39.7458 26.875 38.3787 26.875 36.9531ZM24.1875 38.2969C24.1875 38.4962 24.1284 38.6911 24.0177 38.8568C23.9069 39.0225 23.7495 39.1517 23.5654 39.228C23.3812 39.3043 23.1786 39.3242 22.9831 39.2853C22.7876 39.2464 22.608 39.1505 22.4671 39.0095C22.3261 38.8686 22.2301 38.689 22.1912 38.4935C22.1524 38.298 22.1723 38.0954 22.2486 37.9112C22.3249 37.7271 22.454 37.5697 22.6198 37.4589C22.7855 37.3482 22.9804 37.2891 23.1797 37.2891C23.447 37.2891 23.7033 37.3952 23.8923 37.5842C24.0813 37.7732 24.1875 38.0296 24.1875 38.2969ZM21.5 33.9297C21.6993 33.9297 21.8942 33.9888 22.0599 34.0995C22.2256 34.2103 22.3548 34.3677 22.4311 34.5518C22.5074 34.736 22.5273 34.9386 22.4884 35.1341C22.4496 35.3296 22.3536 35.5092 22.2126 35.6501C22.0717 35.7911 21.8921 35.8871 21.6966 35.9259C21.5011 35.9648 21.2985 35.9449 21.1143 35.8686C20.9302 35.7923 20.7728 35.6631 20.662 35.4974C20.5513 35.3317 20.4922 35.1368 20.4922 34.9375C20.4922 34.6702 20.5984 34.4139 20.7874 34.2249C20.9764 34.0359 21.2327 33.9297 21.5 33.9297ZM19.8203 39.3047C19.621 39.3047 19.4261 39.2456 19.2604 39.1348C19.0947 39.0241 18.9655 38.8667 18.8892 38.6825C18.8129 38.4984 18.793 38.2958 18.8319 38.1003C18.8708 37.9048 18.9667 37.7252 19.1077 37.5842C19.2486 37.4433 19.4282 37.3473 19.6237 37.3084C19.8192 37.2695 20.0218 37.2895 20.206 37.3658C20.3901 37.4421 20.5475 37.5712 20.6583 37.737C20.769 37.9027 20.8281 38.0976 20.8281 38.2969C20.8281 38.5642 20.7219 38.8205 20.5329 39.0095C20.3439 39.1985 20.0876 39.3047 19.8203 39.3047Z" fill="#7544FF"/>
<path d="M6.04687 26.875C7.10995 26.875 8.14915 26.5598 9.03306 25.9692C9.91698 25.3785 10.6059 24.5391 11.0127 23.5569C11.4195 22.5748 11.526 21.494 11.3186 20.4514C11.1112 19.4087 10.5993 18.451 9.84757 17.6993C9.09587 16.9476 8.13813 16.4357 7.09548 16.2283C6.05284 16.0209 4.9721 16.1273 3.98995 16.5341C3.0078 16.941 2.16834 17.6299 1.57773 18.5138C0.987113 19.3977 0.671875 20.4369 0.671875 21.5C0.671875 22.9255 1.23817 24.2927 2.24618 25.3007C3.25418 26.3087 4.62134 26.875 6.04687 26.875ZM7.72656 18.8125C7.92589 18.8125 8.12074 18.8716 8.28647 18.9824C8.45221 19.0931 8.58138 19.2505 8.65766 19.4346C8.73394 19.6188 8.7539 19.8214 8.71501 20.0169C8.67612 20.2124 8.58014 20.392 8.43919 20.5329C8.29825 20.6739 8.11867 20.7699 7.92318 20.8088C7.72768 20.8476 7.52504 20.8277 7.34089 20.7514C7.15673 20.6751 6.99934 20.546 6.8886 20.3802C6.77786 20.2145 6.71875 20.0196 6.71875 19.8203C6.71875 19.553 6.82493 19.2967 7.01393 19.1077C7.20293 18.9187 7.45927 18.8125 7.72656 18.8125ZM7.72656 22.1719C7.92589 22.1719 8.12074 22.231 8.28647 22.3417C8.45221 22.4525 8.58138 22.6099 8.65766 22.794C8.73394 22.9782 8.7539 23.1808 8.71501 23.3763C8.67612 23.5718 8.58014 23.7514 8.43919 23.8923C8.29825 24.0333 8.11867 24.1292 7.92318 24.1681C7.72768 24.207 7.52504 24.1871 7.34089 24.1108C7.15673 24.0345 6.99934 23.9053 6.8886 23.7396C6.77786 23.5739 6.71875 23.379 6.71875 23.1797C6.71875 22.9124 6.82493 22.6561 7.01393 22.4671C7.20293 22.2781 7.45927 22.1719 7.72656 22.1719ZM4.36719 18.8125C4.56651 18.8125 4.76136 18.8716 4.9271 18.9824C5.09283 19.0931 5.22201 19.2505 5.29828 19.4346C5.37456 19.6188 5.39452 19.8214 5.35563 20.0169C5.31675 20.2124 5.22076 20.392 5.07982 20.5329C4.93887 20.6739 4.7593 20.7699 4.5638 20.8088C4.36831 20.8476 4.16567 20.8277 3.98151 20.7514C3.79736 20.6751 3.63996 20.546 3.52922 20.3802C3.41848 20.2145 3.35937 20.0196 3.35937 19.8203C3.35937 19.553 3.46555 19.2967 3.65456 19.1077C3.84356 18.9187 4.0999 18.8125 4.36719 18.8125ZM4.36719 22.1719C4.56651 22.1719 4.76136 22.231 4.9271 22.3417C5.09283 22.4525 5.22201 22.6099 5.29828 22.794C5.37456 22.9782 5.39452 23.1808 5.35563 23.3763C5.31675 23.5718 5.22076 23.7514 5.07982 23.8923C4.93887 24.0333 4.7593 24.1292 4.5638 24.1681C4.36831 24.207 4.16567 24.1871 3.98151 24.1108C3.79736 24.0345 3.63996 23.9053 3.52922 23.7396C3.41848 23.5739 3.35937 23.379 3.35937 23.1797C3.35937 22.9124 3.46555 22.6561 3.65456 22.4671C3.84356 22.2781 4.0999 22.1719 4.36719 22.1719Z" fill="#7544FF"/>
<path d="M5.375 9.40625C5.37607 8.51562 5.73034 7.66177 6.36012 7.03199C6.98989 6.40222 7.84374 6.04794 8.73438 6.04688H10.4141V8.0625L13.9972 5.375L10.4141 2.6875V4.70312H8.73438C7.48747 4.70455 6.29203 5.20051 5.41033 6.08221C4.52864 6.96391 4.03267 8.15934 4.03125 9.40625V14.1094H5.375V9.40625Z" fill="#7544FF"/>
<path d="M5.375 33.5939V32.586H7.39062L4.70312 29.0029L2.01562 32.586H4.03125V33.5939C4.03267 34.8408 4.52864 36.0362 5.41033 36.9179C6.29203 37.7996 7.48747 38.2956 8.73438 38.297H14.1094V36.9532H8.73438C7.84374 36.9522 6.98989 36.5979 6.36012 35.9681C5.73034 35.3383 5.37607 34.4845 5.375 33.5939Z" fill="#7544FF"/>
<path d="M29.002 37.625L32.5851 40.3125V38.2969H34.2648C35.5117 38.2955 36.7071 37.7995 37.5888 36.9178C38.4705 36.0361 38.9665 34.8407 38.9679 33.5938V28.8906H37.6241V33.5938C37.6231 34.4844 37.2688 35.3382 36.639 35.968C36.0092 36.5978 35.1554 36.9521 34.2648 36.9531H32.5851V34.9375L29.002 37.625Z" fill="#7544FF"/>
<path d="M37.625 9.40625V10.4141H35.6094L38.2969 13.9972L40.9844 10.4141H38.9688V9.40625C38.9673 8.15934 38.4714 6.96391 37.5897 6.08221C36.708 5.20051 35.5125 4.70455 34.2656 4.70312H28.8906V6.04688H34.2656C35.1563 6.04794 36.0101 6.40222 36.6399 7.03199C37.2697 7.66177 37.6239 8.51562 37.625 9.40625Z" fill="#7544FF"/>
</svg>
